DBRep_DrawableShape

CASCADE Topology V3, (c) Open Cascade
Locations 0
Curve2ds 2
7 0 0  1 2 2  -0.017155197617608309 0.22816998785000209  0.21973677034623584 0.0040504550299971243 
 0 2 0.22413050462816844 2
7 0 0  1 2 2  -0.017155197617608309 0.22816998785000209  0.2197367703464943 0.0040504550299971243 
 0 2 0.22413050462816844 2
Curves 2
1 46.554475658900003 59.455057909239997 -0.034386249940099999 -0.00043064894400910716 0.9999510472339167 -0.0098852252012981649 
1 46.554475658900003 59.455057909239997 -0.034386249940099999 -0.00043064894404080717 0.9999510472339167 -0.0098852252012981649 
Polygon3D 0
PolygonOnTriangulations 2
3 25 26 24 
p 0.0166666666666667 1 0 0.0747101682093895 0.224130504628168 
3 42 43 33 
p 0.0166666666666667 1 0 0.0747101682093895 0.224130504628168 
Surfaces 3
2 46.560960708640003 59.683227897089999 -0.040000000000000001 0 -1 0 -0.76718739504262401 0 0.64142302803041995 -0.64142302803041995 -0 -0.76718739504262401 0.0099999999994440005
1 46.766594376980002 58.237500375709999 -1.238857649893 0.98418332397358166 0 0.1771529983158967 -0.1771529983158967 0 0.98418332397358166 0 -1 0 
1 48.098999999999997 59.91485122692 -0.029999999999999999 0 0 1 1 0 -0 -0 1 0 
Triangulations 2
132 130 1 0 0.0296442309127789
46.5573531583771 56.7972594601319 -0.0306840107312785 46.606231285938 56.9980412676254 -0.319049512541201 46.7025151487161 57.1713853640207 -0.87602573815399 46.7527879763376 57.2758202673181 -1.16318445915218 46.8182814137124 57.4439659773945 -1.52782019462345 46.9000408831669 57.6883051623178 -1.98001718356396 46.9392614588213 57.8239758025703 -2.19815430808245 46.9516439071668 57.8733333916196 -2.26695972725803 46.9644934151695 57.9319347156903 -2.33832957364273 46.9729547982703 57.9770125439987 -2.38531929968359 46.9787683166876 58.0124277026573 -2.41760607142392 46.98418875361 58.05002655133 -2.44771529776 46.98418875071 58.42497343618 -2.447715281599 46.979041925528 58.4607712387875 -2.41912338209393 46.9735371896464 58.4945517979467 -2.38854541532929 46.9677149683072 58.5265090829718 -2.35620473304365 46.961615686752 58.556837063177 -2.32232468697556 46.9531221995754 58.5950751515575 -2.27514276637628 46.9398027979285 58.6486535992567 -2.20114129879033 46.9150634705941 58.7374486596154 -2.06364012241148 46.8873761347253 58.8275521561091 -1.90978175222408 46.818311433031 59.0257399335506 -1.52643727487196 46.7221703622156 59.2762452980444 -0.98473665802956 46.55437913734 59.67917744206 -0.03660183045288 46.5544756589 59.45505790924 -0.0343862499401 46.554443485045 59.52976442018 -0.0351247767776767 46.83683222174 58.92994666815 -1.629067898566 46.8395752521732 58.92453094125 -1.6443069565315 46.8415909363457 58.919765131821 -1.65550520193677 46.842603226764 58.9168841352262 -1.66112903759513 46.8439329036265 58.9120751655475 -1.66851613127611 46.8489006378558 58.8844579569023 -1.69611465475993 46.8496565608496 58.8799642492867 -1.70031422694425 46.8503296337451 58.8755445720597 -1.70405352080557 46.8512019513002 58.8689873373401 -1.70889972944143 46.8521320143257 58.8604517660697 -1.71406674624524 46.8525366071192 58.8560009622459 -1.71631448398512 46.8529087315329 58.8513667242735 -1.71838184183748 46.8536294361529 58.8405975396694 -1.72238575639058 46.854349719107 58.8274536845201 -1.72638732835705 46.8548994213644 58.8144622511 -1.72944122978972 46.8552252343821 58.8029208979614 -1.73125130211472 46.8553665470888 58.7926694267868 -1.73203637271341 46.8553679763591 58.7825429479224 -1.73204431310984 46.8552198777091 58.7714250567433 -1.73122154283796 46.8548892883253 58.7592202045545 -1.72938493515428 46.854418356656 58.7477933078697 -1.72676864810278 46.8538489068099 58.7376392113126 -1.723605037846 46.8532066018861 58.7286165067603 -1.72003667715777 46.8523875380331 58.7192231763878 -1.71548632241971 46.8511905219392 58.7077925164717 -1.70883623301096 46.8498141696632 58.6965221017161 -1.70118983147887 46.8482660250261 58.6854051913689 -1.69258902793782 46.8471015574338 58.6783792064969 -1.68611976353444 46.8463116279045 58.6742838248703 -1.68173126614815 46.8455082426619 58.670600568223 -1.67726801479843 46.8441498686959 58.6652786771747 -1.66972149276305 46.8427229299756 58.6606401124977 -1.66179405542593 46.8362741735936 58.6424270128893 -1.62596763106527 46.834626346544 58.6399035289126 -1.61681303634642 46.8328994106895 58.6385336194537 -1.60721894827179 46.8309097089705 58.6377721194735 -1.59616504984217 46.82837232374 58.6375 -1.582068465244 46.60684568113 58.6375 -0.3513648951449 46.5924048406274 58.5832286283713 -0.271138002379772 46.5812153416825 58.5339386210243 -0.208974119031899 46.5734140677557 58.4937472676346 -0.165633708390272 46.567363580617 58.4573998373128 -0.132019891168094 46.5631395433334 58.427853447937 -0.108553017603287 46.5597704877149 58.4004235952166 -0.0898360421709081 46.5571853861679 58.3756858530947 -0.0754743670967546 46.5552219264615 58.3533868548988 -0.0645662577519089 46.5536033869216 58.331060112787 -0.0555743715071172 46.552840230428 58.318408340024 -0.0513346132311655 46.55218808642 58.30575030814 -0.04771159096365 46.549641437258 58.2616422109405 -0.0330058078746132 46.54900000615 58.2375 -0.02999989752989 46.5496437999066 58.2132818543929 -0.0330154186484673 46.55218808642 58.16924969186 -0.0477115909464 46.5532965452527 58.1488082903911 -0.0538696955660036 46.5546943456493 58.1283847451713 -0.0616352532630624 46.5563808233814 58.1079830701108 -0.0710045738916338 46.5583553142206 58.08760727912 -0.0819739673057751 46.5606171539383 58.0672613861091 -0.0945397433595437 46.5631656783062 58.0469494049885 -0.108698211906997 46.5660002230957 58.0266753496684 -0.124445682802192 46.5691201240785 58.006443234059 -0.141778465899187 46.5737227314181 57.9795392570862 -0.167348506534621 46.5795036747039 57.9493817810467 -0.199464858062446 46.5859209404541 57.9193532893329 -0.235116334535564 46.5929722868978 57.889467328892 -0.27429048171142 46.5996673870718 57.86341924756 -0.311485483094335 46.60684568113 57.8375 -0.3513648951447 46.82837232374 57.8375 -1.582068465244 46.8312819561546 57.8371312855104 -1.59823308975174 46.8334643883911 57.8361127840832 -1.61035771327828 46.8345879974826 57.8351377104195 -1.61659998600512 46.8361237340302 57.8328796298105 -1.62513185571261 46.8423921006889 57.8153316369542 -1.65995611494417 46.8433822530013 57.8123198706537 -1.66545696112531 46.8442863133162 57.8092311771782 -1.67047951843139 46.8457215639641 57.8034646440849 -1.67845313314434 46.8464091609598 57.8002373992941 -1.6822731164555 46.8470621058922 57.7968375614287 -1.68590058830338 46.8481897264635 57.7900931146472 -1.6921651470347 46.8497479971053 57.7789852523527 -1.70082220615711 46.8511318190235 57.7677215120673 -1.70851010570134 46.8523375626696 57.7562986506222 -1.71520868151115 46.8531646157837 57.7469124590233 -1.71980342103309 46.8538466185185 57.7373966582129 -1.72359232511568 46.8543912744036 57.7277581316503 -1.72661819114499 46.8548497477957 57.7169175746347 -1.72916526554555 46.8551959882845 57.7047267074309 -1.7310888238132 46.8553571816523 57.6939265954917 -1.73198434251758 46.8553751603902 57.6838091921236 -1.73208422438874 46.855254721462 57.6735681061789 -1.73141511922632 46.8549890654459 57.6631972620601 -1.72993925246584 46.8545891762865 57.6527064744291 -1.72771764602189 46.8540699300144 57.6421090357063 -1.72483294450933 46.8534451457267 57.6314172938932 -1.72136192068954 46.8527577037965 57.6216829114034 -1.71754279885767 46.8522466229745 57.6157541642601 -1.71470346096011 46.8517224639374 57.6105418578627 -1.71179146631198 46.8511627854062 57.6056931419983 -1.70868214114137 46.8501673010484 57.5983459341362 -1.70315167249121 46.848958362586 57.5908725791968 -1.69643534770514 46.8458820059365 57.5738282784942 -1.67934447744014 46.8445181411563 57.5657134201434 -1.67176745088562 46.8431452054845 57.5598891839291 -1.66414003048617 46.8417046734121 57.5555370321405 -1.65613707452718 46.8396544793957 57.5506401192522 -1.64474710776692 46.83683222174 57.54505333185 -1.629067898566 1.26008901389413 1.35911643248784 0.933668632434141 1.23945910808459 0.368444944355703 1.0661150116893 0.0769221376687432 0.961680108391911 -0.293548631307877 0.793534398315477 -0.753077302128783 0.549195213392238 -0.97471226499228 0.413524573139661 -1.0446229989948 0.364166984090425 -1.11714034051074 0.305565660019689 -1.16488580466445 0.260487831711257 -1.1976917892146 0.225072673052734 -1.22828503432505 0.18747382438 -1.22828501790618 -0.187473060469998 -1.19923357169976 -0.22327086307752 -1.16816406626263 -0.257051422236738 -1.13530348210407 -0.289008707261827 -1.10087879973333 -0.319336687466962 -1.05293849356698 -0.357574775847517 -0.977747911281793 -0.411153223546666 -0.838038900449363 -0.499948283905369 -0.681709163692632 -0.590051780399119 -0.292192902762379 -0.788239557840628 0.25797148987636 -1.03874492233439 1.22083469463467 -1.44167706635 1.22299813294506 -1.21755753352533 1.22227698684059 -1.29226404447 -0.396481264382031 -0.692446292440003 -0.411965227170448 -0.687030565539967 -0.423343438050906 -0.682264756110996 -0.429057653605404 -0.679383759516186 -0.436563464261832 -0.674574789837524 -0.464605519854469 -0.646957581192288 -0.468872582790927 -0.642463873576731 -0.472671970334205 -0.638044196349665 -0.477596061728497 -0.631486961630058 -0.482846116955083 -0.62295139035969 -0.485129977781804 -0.618500586535929 -0.48723055986042 -0.613866348563508 -0.491298820778525 -0.603097163959446 -0.495364701462545 -0.58995330881008 -0.498467681728722 -0.576961875390041 -0.500306843479151 -0.565420522251414 -0.501104530840228 -0.555169051076829 -0.501112598845484 -0.54504257221237 -0.500276605944551 -0.533924681033264 -0.498410482389043 -0.521719828844458 -0.495752149345003 -0.510292932159748 -0.492537697139104 -0.50013883560258 -0.488911989812739 -0.491116131050302 -0.484288506944007 -0.48172280067776 -0.477531544854923 -0.470292140761749 -0.469762259046206 -0.459021726006081 -0.461023233164028 -0.447904815658872 -0.454450002094438 -0.440878830786867 -0.449990977764979 -0.436783449160285 -0.44545599811134 -0.433100192513039 -0.437788196949212 -0.427778301464667 -0.429733358847459 -0.423139736787677 -0.393331172905627 -0.404926637179332 -0.384029455943043 -0.402403153202648 -0.374281182586744 -0.40103324374372 -0.363049638462128 -0.400271743763465 -0.348726509574164 -0.399999624290004 0.901755529817338 -0.399999624290004 0.98327173800423 -0.345728252661252 1.04643464863639 -0.296438245314284 1.09047157711087 -0.256246891924564 1.12462559741392 -0.219899461602799 1.14846960391198 -0.19035307222704 1.16748737731207 -0.16292321950664 1.18207985691437 -0.138185477384674 1.19316326900172 -0.115886479188787 1.20229966262728 -0.093559737077046 1.2066075574812 -0.0809079643140498 1.21028880484561 -0.0682499324299997 1.22217630199457 -0.0233390847595831 1.22828513614115 3.75710001776497e-07 1.22215677163778 0.0234132084532401 1.21028880486259 0.0682506838499961 1.20403173418297 0.088692085318872 1.19614137726486 0.109115630538688 1.18662148355842 0.129517305599152 1.17547580251382 0.149893096589972 1.16270808358121 0.170238989600856 1.14832207621075 0.190550970721511 1.13232152985261 0.210825026041644 1.11471019395695 0.231057141650965 1.08872922067995 0.257961118623846 1.05609673164321 0.28811859466325 1.01987230515469 0.318147086377055 0.980068595608661 0.348033046818023 0.942275838442577 0.374081128149967 0.901755529817535 0.40000037571 -0.34872650957318 0.40000037571 -0.365150913559215 0.400369090199597 -0.377470390257814 0.401387591626774 -0.383812981698751 0.402362665290501 -0.392481965921219 0.404620745899476 -0.427865881074788 0.422168738755824 -0.433455130604941 0.425180505056285 -0.438558404744716 0.428269198531843 -0.446660162332607 0.434035731625131 -0.450541536074743 0.437262976415858 -0.454227304528116 0.440662814281284 -0.460592540128708 0.44740726106284 -0.469388725668014 0.458515123357294 -0.477200176397759 0.469778863642724 -0.484006404106256 0.481201725087829 -0.488674985060683 0.490587916686659 -0.492524780104233 0.50010371749713 -0.495599274413962 0.509742244059714 -0.498187282499979 0.520582801075329 -0.500141754010421 0.5327736682791 -0.501051664473984 0.54357378021828 -0.501153151533278 0.553691183586412 -0.500473293273196 0.563932269531111 -0.498973708059347 0.574303113649852 -0.496716398481201 0.584793901280857 -0.493785337323924 0.595391340003672 -0.490258531153498 0.606083081816835 -0.486378032735247 0.615817464306628 -0.483493064225345 0.621746211449894 -0.480534271308141 0.626958517847278 -0.477374976596526 0.631807233711655 -0.47175562853851 0.63915444157381 -0.464931366612284 0.646627796513242 -0.447565831300919 0.663672097215824 -0.439867035385555 0.671786955566622 -0.432117035752723 0.677611191780857 -0.423985465379598 0.681963343569464 -0.412412452016397 0.686860256457813 -0.396481264382249 0.692447043860568 33 21 32 31 32 21 34 21 33 35 21 34 30 31 21 36 21 35 37 21 36 38 21 37 39 21 38 40 21 39 22 27 28 22 28 29 22 29 30 22 30 21 41 21 40 42 21 41 43 21 42 44 21 43 12 13 14 45 21 44 46 21 45 47 21 46 48 21 47 49 21 48 11 14 15 11 12 14 50 21 49 50 20 21 51 20 50 52 20 51 53 20 52 10 15 16 10 11 15 54 20 53 55 20 54 55 19 20 56 19 55 57 19 56 9 16 17 9 10 16 8 9 17 8 17 18 8 18 19 7 8 19 26 23 24 103 104 7 105 6 7 105 7 104 102 103 7 106 6 105 101 19 57 101 7 19 101 102 7 100 101 57 100 57 58 107 6 106 99 100 58 99 58 59 108 6 107 109 6 108 25 23 26 110 6 109 98 99 59 98 59 60 111 6 110 97 98 60 112 6 111 96 60 61 96 97 60 113 6 112 95 96 61 95 61 62 114 6 113 94 62 63 94 95 62 115 6 114 116 6 115 117 6 116 118 6 117 119 6 118 120 6 119 121 6 120 122 6 121 123 6 122 124 6 123 125 6 124 126 6 125 127 6 126 128 6 127 129 6 128 5 6 129 5 129 130 5 130 131 5 131 132 64 94 63 78 75 76 78 76 77 79 75 78 79 74 75 80 74 79 80 73 74 93 94 64 81 73 80 81 72 73 82 72 81 82 71 72 92 93 64 92 64 65 83 70 71 83 71 82 91 92 65 84 69 70 84 70 83 90 65 66 90 91 65 85 69 84 86 68 69 86 69 85 89 66 67 89 90 66 87 67 68 87 68 86 88 89 67 88 67 87 25 27 22 25 22 23 132 1 2 132 2 5 5 2 3 5 3 4 
63 61 1 0 0.00512026740474299
49.33748169413 59.45681344808 -0.03195632349897 49.64229486828 59.45652045502 -0.03291088838896 49.64396339297 59.6791772627 -0.03604076217158 49.61061750873 59.74516052086 -0.03 49.6161016356287 59.7392282414643 -0.0300894927729122 49.6194441908766 59.7350523598024 -0.0301657273572447 49.6245922801277 59.7268735441241 -0.0300414932198131 49.627734020739 59.7195059374139 -0.029513805890751 49.6308395749647 59.7107766468822 -0.0292032543394176 49.6329117872157 59.7056505788767 -0.029609738303408 49.6374199386998 59.6970521275084 -0.0317717595411049 49.6419057995058 59.6882964323014 -0.0346197393755289 46.58738249429 59.74516052388 -0.03 46.7105445241397 59.8592950334138 -0.03 46.8422954213139 59.9633972567222 -0.03 46.9818201860937 60.0568232264367 -0.03 47.1282557301547 60.1389950174572 -0.03 47.2806962156798 60.2094043220753 -0.03 47.438198658795 60.267615594323 -0.03 47.5997887627872 60.3132687442228 -0.03 47.7644669450207 60.3460813652734 -0.03 47.9312145202709 60.3658504813926 -0.03 48.0990000022238 60.37245380251 -0.03 48.266785484163 60.365850481043 -0.03 48.433533059372 60.3460813645764 -0.03 48.5982112415372 60.3132687431828 -0.03 48.7598013454342 60.2676155929464 -0.03 48.9173037884281 60.2094043203706 -0.03 49.0697442738066 60.1389950154348 -0.03 49.2161798176965 60.0568232241093 -0.03 49.3557045822816 59.9633972541042 -0.03 49.4874554792389 59.8592950305212 -0.03 46.55437913734 59.67917744206 -0.03660183045288 46.5560172499741 59.687403051028 -0.0352814643623031 46.5584001692462 59.6927165755865 -0.0334775073990459 46.5630275221758 59.7013284564028 -0.0304629649069156 46.5662415290116 59.708470633945 -0.0292297178478924 46.5687228054295 59.7153025390248 -0.0291994138355276 46.5707446524923 59.7208527803644 -0.0296034624344279 46.5749636881475 59.729617650878 -0.0301595704178529 46.5806633810242 59.7376881412877 -0.030131051206354 46.5544756589 59.45505790924 -0.0343862499401 46.554443485045 59.52976442018 -0.0351247767776767 46.86051830174 59.45681344808 -0.03195632349897 49.2372244387871 59.5514023906341 -0.02999999999999 49.129536591383 59.6374602490739 -0.02999999999999 49.015368403973 59.7147147147135 -0.02999999999999 48.8954378022265 59.7826799870406 -0.02999999999999 48.7704989476969 59.8409286789278 -0.02999999999999 48.6413374954147 59.8890945041788 -0.02999999999999 48.5087656534407 59.9268745808513 -0.02999999999999 48.3736170754446 59.9540313358749 -0.02999999999999 48.2367416184273 59.9703939989853 -0.02999999999999 48.0989999985509 59.975859676582 -0.02999999999999 47.9612583786837 59.9703939987557 -0.02999999999999 47.8243829216936 59.9540313354171 -0.02999999999999 47.6892343437429 59.9268745801682 -0.02999999999999 47.5566625018319 59.8890945032746 -0.02999999999999 47.42750104963 59.8409286778083 -0.02999999999999 47.3025621951974 59.7826799857128 -0.02999999999999 47.1826315935642 59.7147147131858 -0.02999999999999 47.068463406283 59.6374602473558 -0.02999999999999 46.9607755590224 59.5514023887365 -0.02999999999999 1.23875477094325 -0.457768928494997 1.54329486828 -0.458330771900002 1.54496339297 -0.235673964219998 1.51161750872884 -0.169690706061167 1.51710163562871 -0.175622985455742 1.5204441908766 -0.179798867117568 1.52559228012774 -0.187977682795909 1.52873402073895 -0.195345289506121 1.53183957496472 -0.204074580037843 1.5339117872157 -0.209200648043276 1.53841993869985 -0.217799099411622 1.54290579950582 -0.226554794618565 -1.51161750571 -0.169690703039997 -1.38845547586028 -0.0555561935062454 -1.25670457868613 0.0485460298022036 -1.11717981390633 0.14197199951672 -0.970744269845307 0.22414379053716 -0.818303784320149 0.294553095155294 -0.660801341204961 0.352764367403049 -0.499211237212838 0.398417517302808 -0.334533054979286 0.431230138353375 -0.167785479729087 0.45099925447257 2.22383844672436e-09 0.457602575589999 0.167785484163006 0.450999254123028 0.334533059372021 0.431230137656453 0.499211241537216 0.398417516262818 0.660801345434232 0.352764366026424 0.81830378842815 0.29455309345055 0.970744273806627 0.224143788514842 1.11717981769647 0.141971997189338 1.25670458228163 0.0485460271841543 1.3884554792389 -0.0555561963987672 -1.54462086266514 -0.235673784859998 -1.54298275002586 -0.227448175892005 -1.54059983075381 -0.222134651333485 -1.53597247782418 -0.213522770517151 -1.53275847098844 -0.206380592975004 -1.53027719457047 -0.199548687895242 -1.52825534750769 -0.193998446555557 -1.52403631185253 -0.185233576041951 -1.51833661897577 -0.177163085632249 -1.54452434109999 -0.459793317680003 -1.54455651495504 -0.385086806740001 -1.23875477297648 -0.457768930560196 1.13822443878711 -0.363448836285882 1.03053659138302 -0.277390977846142 0.916368403973014 -0.200136512206453 0.796437802226552 -0.132171239879392 0.671498947696877 -0.0739225479921659 0.542337495414654 -0.0257567227411948 0.409765653440659 0.0120233539313343 0.274617075444627 0.0391801089549126 0.137741618427323 0.0555427720653083 -1.44905709653642e-09 0.0610084496619987 -0.137741621316325 0.0555427718356718 -0.27461707830635 0.0391801084970838 -0.409765656257107 0.0120233532481921 -0.542337498168117 -0.0257567236453551 -0.67149895037004 -0.0739225491116582 -0.796437804802605 -0.132171241207177 -0.916368406435759 -0.200136513734181 -1.03053659371697 -0.277390979564205 -1.13822444097758 -0.363448838183478 35 34 33 36 35 33 44 37 36 44 43 42 44 33 43 44 36 33 41 39 38 41 40 39 13 38 37 13 37 44 13 41 38 63 13 44 14 13 63 62 14 63 15 14 62 61 15 62 16 15 61 60 16 61 17 16 60 59 17 60 18 17 59 18 59 58 19 18 58 19 58 57 20 19 57 20 57 56 21 20 56 21 56 55 22 21 55 22 55 54 23 22 54 24 23 54 24 54 53 25 24 53 25 53 52 26 52 51 26 25 52 27 51 50 27 26 51 28 27 50 28 50 49 29 49 48 29 28 49 30 29 48 30 48 47 31 30 47 31 47 46 3 1 2 11 3 12 10 1 3 10 3 11 32 46 45 32 31 46 6 8 7 5 8 6 4 9 8 4 10 9 4 45 1 4 1 10 4 32 45 4 8 5 

TShapes 6
Ve
0.00660189647113458
46.5544756589 59.45505790924 -0.0343862499401
0 0

0101101
*
Ve
0.00773548173674132
46.55437913734 59.67917744206 -0.03660183045288
0 0

0101101
*
Ed
 0.00461206097055953 1 1 0
1  1 0 0 0.224130504628168
2  1 1 0 0 0.224130504628168
4 C0 1 0 2 0
6  1 1 0
0

0101000
+6 0 -5 0 *
Ed
 0.00660189647113458 1 1 0
1  2 0 0 0.224130504628168
2  2 1 0 0 0.224130504628168
4 C0 3 0 1 0
6  2 2 0
0

0101000
+6 0 -5 0 *
Wi

0101100
+4 0 -3 0 *
Fa
0  1e-07 1 0

0111000
+2 0 *

-1 0 