DBRep_DrawableShape

CASCADE Topology V3, (c) Open Cascade
Locations 0
Curve2ds 2
7 0 0  1 2 2  2.9050959345103267 0.019273990833710276  6.2823817597564489 0.2414806744681286 
 0 2 1 2
7 0 0  1 2 2  6.2823817597564489 0.2414806744681286  2.9050959345103267 0.019273990833710276 
 0 2 0.22222092033021096 2
Curves 2
7 0 0  3 10 8  41.483627016729997 54.786336943549998 -0.42676823033889999  41.487273905019997 54.777112713210002 -0.4267771521341  41.487139574849998 54.75916409853 -0.43969229698989998  41.503032260360001 54.726276566080003 -0.43454465380200002  41.515482426890003 54.692939412969999 -0.43587260539080003  41.528690621469998 54.659540074070001 -0.43576582911790002  41.541691441689998 54.628371876519999 -0.43486000822280002  41.550448001760003 54.59923291015 -0.43852482209409999  41.562400943969998 54.586409069570003 -0.42928199643479997  41.565089736209998 54.579601163459998 -0.42927422273869997 
 0 4 0.14285714285709999 1 0.28571428571430002 1 0.42857142857140001 1 0.57142857142860004 1 0.71428571428569998 1 0.85714285714289995 1 1 4
1 41.565089736209998 54.579601163459998 -0.42927422273869997 -0.36658438528599463 0.9303164606824863 0.011277031865759835 
Polygon3D 0
PolygonOnTriangulations 2
15 1 2 3 4 5 6 7 8 9 10 11 12 13 14 15 
p 0.05 1 0 0.0271622758734919 0.0594646692122479 0.129154328248291 0.160683865572508 0.195702407021664 0.325605359060276 0.686671600536634 0.765003700402475 0.800716224334495 0.829610074905912 0.856055962553575 0.882501850201238 0.958786111663672 1 
2 23 22 
p 0.05 1 0 0.222220920330211 
Surfaces 3
2 41.481431272290003 54.806193592760003 -0.43385734195039999 0.367517000228401 -0.93001680336600245 0 -0.71349716887272152 -0.28195441009936617 0.64142302783430671 -0.59653419395180418 -0.23573386706708252 -0.76718739520658852 0.01000000000045
1 41.231746929819998 55.997551549299999 -1.6327149918349999 0.91530702888926152 0.3617041028987848 0.17715299831529255 -0.16475526519954553 -0.065106738523177971 0.98418332397369046 0.36751700022575845 -0.93001680336704662 -1.4670583437953421e-12 
1 43.087361527200002 54.927268724629997 -0.42385734195039998 0 0 1 -0.93001680336702619 -0.36751700022581035 0 0.36751700022581035 -0.93001680336702619 0 
Triangulations 2
141 139 1 0 0.00534264542416951
41.48362701673 54.78633694355 -0.4267682303389 41.4853483897648 54.7810939249872 -0.427400290554489 41.4867118629889 54.7748582990739 -0.429371534554632 41.489137784184 54.7610121561927 -0.434819834583702 41.4909199476594 54.7543935576305 -0.436312247978609 41.4936604868148 54.7467459823416 -0.436820449809586 41.5062967313711 54.7169392977199 -0.435314376246892 41.5388067945195 54.634576886389 -0.435434051492368 41.5446788676438 54.6181913896267 -0.436234764893592 41.5472842583718 54.6111287751951 -0.43647721605041 41.5495595764608 54.6057195930712 -0.436286991110172 41.5518755581973 54.6010677542513 -0.435641607597233 41.5544629443474 54.5967344559171 -0.434464019212194 41.562057354653 54.5854436155712 -0.430252006754971 41.56508973621 54.57960116346 -0.4292742227387 41.5721678846338 55.0971598936656 -1.54729841237327 41.561950356853 55.4755421343338 -2.27397404400313 41.5508795942121 55.6146026698421 -2.49982259898372 41.5386581698765 55.7193168950766 -2.65026079270443 41.528980933421 55.7808469148351 -2.72592010913487 41.5200774397876 55.8277442803768 -2.77571016256185 41.5121959785581 55.8643962100728 -2.80984671964998 41.50301291776 55.90316801684 -2.841572626531 41.36521356475 56.25187492314 -2.841572639644 41.3472200943083 56.2833659793074 -2.81290394191982 41.329632035156 56.3128537582623 -2.78224269313864 41.3124173619457 56.3405296944345 -2.74981269255676 41.2955440493298 56.3665852222536 -2.7158377394305 41.2735219520918 56.3991361651197 -2.66852135594478 41.241353866367 56.4441919559772 -2.5943033770109 41.162160816616 56.5474449566558 -2.39583270975255 41.0728820871959 56.6553687151903 -2.15512403318818 40.8591896947898 56.8920534240589 -1.53450848445958 40.50390988618 57.25960895934 -0.4316379746316 40.58564658256 57.05201693961 -0.4297076350299 41.04258327121 56.66735247199 -2.022925240516 41.0471247073086 56.6633238652774 -2.03816429847424 41.0507508434442 56.6596323806274 -2.04936254387752 41.0527511057694 56.6573250393216 -2.05498637953544 41.0557551057056 56.6533412955646 -2.0623734732173 41.0705249756991 56.6294825542268 -2.08997199671886 41.0728795107207 56.6255811451973 -2.09417156889062 41.075129786333 56.6217181368533 -2.09791086274186 41.0783509515497 56.6159403899134 -2.10275707137811 41.0823528933388 56.6083439791799 -2.10792408818343 41.0843649175044 56.6043533515659 -2.11017182592383 41.0864141606993 56.6001801944301 -2.11223918377661 41.0910422865257 56.5904295429914 -2.11624309833062 41.0965427519921 56.5784702530745 -2.12024467029777 41.1018285569689 56.566590026621 -2.12329857173139 41.1063732120359 56.5559761160928 -2.12510864405748 41.1102722251636 56.5464940104638 -2.12589371465726 41.1139952075459 56.5370767402418 -2.12590165505475 41.1179434873295 56.5266824858551 -2.12507888478396 41.1221215243137 56.5152102710179 -2.12324227710133 41.1258831287394 56.5044099896987 -2.12062599005148 41.1290853339202 56.4947572267806 -2.11746237979666 41.1318039768587 56.4861299019583 -2.11389401911068 41.1344944423131 56.4770929269819 -2.1093436643744 41.1375821590744 56.4660222974222 -2.10269357496778 41.1404441973517 56.4550347894586 -2.09504717343762 41.1430900503663 56.4441269065612 -2.08644636989889 41.1445892448218 56.4371646609326 -2.07997710549697 41.1453597194561 56.4330655746716 -2.07558860811116 41.1459662171148 56.4293448263631 -2.07112535676188 41.1466587919348 56.423896152736 -2.06357883472702 41.1470364663232 56.4190577854038 -2.05565139739006 41.1477326382582 56.3997492691178 -2.01982497302249 41.147127554675 56.3967967821611 -2.01067037830409 41.1460249403282 56.3948880650608 -2.00107629022888 41.144454348486 56.393448608078 -1.99002239179752 41.14219454612 56.39226300018 -1.975925807195 40.93617104609 56.31084819302 -0.7452222370945 40.9426864736121 56.2550676507126 -0.664995344313311 40.9503949671942 56.2051147846079 -0.6028314609619 40.9579106569128 56.164869050008 -0.559491050322597 40.9656419006806 56.1288416723809 -0.525877233104892 40.9725722753597 56.0998106284281 -0.502410359544436 40.9795199341735 56.0730622193703 -0.483693384116017 40.9862072870624 56.0491056347851 -0.469331709044908 40.992576497483 56.0276455869074 -0.458423599702038 40.9992766858447 56.0062865006712 -0.449431713458196 41.003216679096 55.9942396663222 -0.445191955182218 41.00726221617 55.98222780983 -0.4415689329142 41.0210984776125 55.9402866803405 -0.426865286583025 41.02938039645 55.91758220273 -0.4238572394864 41.0389081597514 55.8952295769071 -0.426881741024001 41.05742851319 55.85527994302 -0.4415689328959 41.0659719611528 55.8366764734474 -0.447727037516325 41.074777939128 55.8181959485029 -0.455492595213122 41.0838443541955 55.7998418570654 -0.464861915840552 41.0931691134356 55.7816176880134 -0.475831309252876 41.1027501239283 55.7635269302256 -0.488397085304354 41.1125852927537 55.7455730725808 -0.502555553849248 41.122672526992 55.7277596039575 -0.518303024741818 41.1330097337233 55.7100900132346 -0.535635807836325 41.1471779047395 55.6867603991651 -0.561205848469008 41.163637664205 55.6608380347799 -0.593322199995065 41.1806418103457 55.6352694872489 -0.628973676468479 41.198183279557 55.6100665315377 -0.668147823647381 41.2139829479745 55.5883019412244 -0.705342825035767 41.23018464627 55.56683475033 -0.7452222370947 41.4362081463 55.64824955749 -1.975925807195 41.4390496621772 55.6489759861915 -1.9920904317033 41.4414536774172 55.648830843696 -2.00421505522952 41.4428570089003 55.6483369542457 -2.01045732795622 41.4451151527077 55.6468013106238 -2.01898919766449 41.457394024731 55.6327851137126 -2.05381345690361 41.4594217583361 55.6303480182522 -2.05931430308605 41.4613976969815 55.6278077389535 -2.06433686039302 41.4648518031463 55.6229722452911 -2.07231047510596 41.4666773472311 55.6202235569923 -2.07613045841624 41.4685340952039 55.6173016190115 -2.07975793026338 41.4720615001338 55.611443589904 -2.08602248899429 41.4775930462455 55.6016857822734 -2.09467954811511 41.4830196399242 55.5917188926208 -2.10236744765809 41.4883390975485 55.5815385708237 -2.10906602346651 41.4925578558221 55.573113210998 -2.11366076298729 41.4966893483941 55.5645140039471 -2.11744966706883 41.5007382098881 55.5557501825818 -2.12047553309724 41.5051486868413 55.5458367791647 -2.1230226074969 41.5099510472571 55.534626317081 -2.12494616576349 41.5140701845395 55.5246412727944 -2.12584168446695 41.5178052228034 55.5152385251397 -2.1259415663365 41.5214569857618 55.5056698797654 -2.12527246117172 41.5250213827237 55.4959271873613 -2.12379659440834 41.5285050218872 55.4860236125142 -2.1215749879612 41.5319168530202 55.4759769845928 -2.11869028644518 41.5352651900144 55.4658038661988 -2.11521926262151 41.5382034085214 55.456498080314 -2.11140014078324 41.539907010135 55.4507964149554 -2.1085608028799 41.5413351446329 55.4457562450696 -2.10564880822968 41.5425966197025 55.4410411664707 -2.10253948305727 41.5443710263136 55.433842282283 -2.09700901440503 41.545993278216 55.4264476311815 -2.09029268961855 41.5493962850996 55.4094655317748 -2.07320181936958 41.5511102163325 55.4014173336626 -2.06562479282017 41.5519738689081 55.3954961189184 -2.05799737241882 41.5522336396443 55.3909191246007 -2.04999441646089 41.5521266234945 55.38561143218 -2.03860444970656 41.5515551158 55.37937839836 -2.022925240517 1.22423235437892 1.21902014978795 1.22366804182307 1.22452887900491 1.22190931822388 1.23082921547298 1.21704898610553 1.24459792829476 1.21571747227976 1.25140831154666 1.21526369894184 1.25952787979978 1.21660467962581 1.29189263204405 1.21649304114792 1.38043905943308 1.21580434365956 1.39783593345334 1.2155962992249 1.40536180893512 1.21576081900988 1.41122865728151 1.21631729056937 1.41640610821092 1.21733209485069 1.42138705687207 1.22096137797764 1.43467880301184 1.22180447887523 1.44122683342151 0.0866009924991168 0.962489857478519 -0.651532888194829 0.606832900402765 -0.88103908123965 0.473435572219179 -1.03390190046277 0.371558001989417 -1.11077618124597 0.310777500790042 -1.16136515858954 0.263889977530966 -1.19604956418162 0.22690649604944 -1.22828502093959 0.1874731333017 -1.2282850342658 -0.187473753858727 -1.19915554101084 -0.223373871530657 -1.16800137903225 -0.257261912192163 -1.13504999515277 -0.289327682939325 -1.10052883619509 -0.319760990868223 -1.05245186987287 -0.358127409814775 -0.977041346766884 -0.41185237076995 -0.775384819956509 -0.536984188482663 -0.530800777731143 -0.670166548223078 0.0997958732555694 -0.968822891599935 1.2198265144899 -1.44122708508461 1.22177541079493 -1.21812339302887 -0.396481264387617 -0.692446973366658 -0.411965227171759 -0.687031246467358 -0.423343438050227 -0.682265437038549 -0.429057653604295 -0.679384440443638 -0.436563464261628 -0.674575470764081 -0.464605519872118 -0.646958262098909 -0.468872582795751 -0.6424645544966 -0.472671970328703 -0.638044877282443 -0.477596061723242 -0.63148764256505 -0.482846116951169 -0.622952071296147 -0.485129977778327 -0.618501267473475 -0.487230559857282 -0.613867029502325 -0.491298820776224 -0.603097844900201 -0.495364701461064 -0.589953989753094 -0.498467681728527 -0.576962556334702 -0.500306843480402 -0.565421203196721 -0.501104530842871 -0.555169732021863 -0.501112598849438 -0.545043253156565 -0.500276605949814 -0.53392536197634 -0.498410482395532 -0.521720509786682 -0.495752149353252 -0.510293613104177 -0.492537697149364 -0.500139516549217 -0.488911989825255 -0.491116811998908 -0.484288506958257 -0.481723481626323 -0.477531544871164 -0.47029282171026 -0.469762259064165 -0.459022406954774 -0.461023233184029 -0.447905496608088 -0.454450002115701 -0.44087951173532 -0.449990977786613 -0.436784130107756 -0.445455998133321 -0.433100873459642 -0.437788196971614 -0.427778982410042 -0.429733358869969 -0.423140417732019 -0.393331172920471 -0.404927318116759 -0.384029455958379 -0.402403834138711 -0.374281182601749 -0.401033924679736 -0.363049638475823 -0.400272424700421 -0.34872650958353 -0.400000305223921 0.901755529810731 -0.400000305226925 0.983271738013592 -0.34572893320215 1.04643464864906 -0.296438925910925 1.09047157712095 -0.256247572729224 1.12462559741928 -0.219900142637254 1.14846960391278 -0.190353753429404 1.16748737730872 -0.162923900816502 1.18207985690782 -0.138186158727855 1.19316326899307 -0.115887160492905 1.20229966261758 -0.0935604182611151 1.20660755747147 -0.0809086453885441 1.21028880483635 -0.068250613361419 1.22217195979304 -0.0233562765688283 1.2282851361277 -3.0522761752722e-07 1.22213852217128 0.023481919831127 1.21028880485523 0.0682500029167071 1.20403173417478 0.0886914045870971 1.19614137725693 0.109114949929959 1.18662148355164 0.129516625045859 1.17547580250888 0.149892416035364 1.1627080835786 0.170238308999042 1.14832207621075 0.190550290037459 1.13232152985531 0.210824345251182 1.11471019396222 0.231056460740778 1.08872922068811 0.257960437552082 1.05609673165335 0.288117913436546 1.01987230516479 0.318146405059113 0.980068595616027 0.348032365509197 0.942275838444794 0.374080446960423 0.901755529811553 0.399999694771022 -0.34872650958251 0.399999694776622 -0.365150913567326 0.400368409269061 -0.377470390265192 0.40138691069833 -0.383812981705875 0.402361984363085 -0.392481965929155 0.404620064973609 -0.427865881091186 0.42216805783256 -0.433455130622654 0.425179824133926 -0.438558404763352 0.428268517610572 -0.446660162351312 0.434035050705332 -0.450541536092615 0.437262295496264 -0.45422730454532 0.440662133361994 -0.460592540145673 0.447406580144954 -0.469388725683674 0.458514442439061 -0.47720017641242 0.469778182723543 -0.484006404119723 0.481201044167387 -0.488674985073116 0.49058723576515 -0.492524780115713 0.500103036574677 -0.495599274424569 0.509741563136699 -0.498187282509548 0.520582120152501 -0.500141754018514 0.532772987357925 -0.501051664480611 0.543573099304333 -0.501153151537734 0.553690502679533 -0.50047329327481 0.563931588631101 -0.49897370805776 0.574302432756036 -0.496716398476284 0.584793220392434 -0.493785337315582 0.595390659119821 -0.490258531141434 0.606082400936757 -0.486378032716955 0.615816783429759 -0.483493064201365 0.621745530575057 -0.480534271282184 0.62695783696729 -0.477374976568865 0.631806552826893 -0.471755628508881 0.639153760681858 -0.464931366582315 0.646627115613982 -0.447565831287012 0.663671416300319 -0.439867035376509 0.671786274646787 -0.432117035741603 0.67761051085901 -0.423985465369604 0.681962662645109 -0.41241245201263 0.686859575529061 -0.396481264390271 0.692446362924142 42 32 41 40 41 32 43 32 42 44 32 43 39 40 32 45 32 44 38 39 32 46 32 45 47 32 46 37 38 32 48 32 47 36 37 32 49 32 48 50 32 49 51 31 32 51 32 50 52 31 51 53 31 52 23 24 25 54 31 53 55 31 54 56 31 55 57 31 56 58 31 57 22 25 26 22 23 25 59 31 58 60 31 59 61 31 60 62 31 61 21 26 27 21 22 26 63 31 62 63 30 31 64 30 63 65 30 64 33 36 32 66 30 65 20 27 28 20 28 29 20 21 27 19 29 30 19 20 29 112 113 18 114 18 113 111 112 18 115 18 114 110 18 19 110 30 66 110 19 30 110 111 18 109 110 66 109 66 67 116 18 115 108 109 67 108 67 68 117 18 116 118 17 18 118 18 117 35 33 34 119 17 118 107 108 68 107 68 69 120 17 119 106 107 69 121 17 120 105 106 69 105 69 70 122 17 121 104 105 70 104 70 71 123 17 122 103 71 72 103 104 71 124 17 123 125 17 124 126 17 125 127 17 126 128 17 127 129 17 128 130 17 129 131 17 130 132 17 131 133 17 132 134 17 133 135 17 134 136 17 135 137 17 136 138 17 137 139 17 138 140 17 139 16 140 141 87 84 85 87 85 86 88 84 87 88 83 84 89 83 88 89 82 83 102 72 73 102 103 72 90 82 89 90 81 82 91 81 90 91 80 81 101 102 73 101 73 74 92 80 91 92 79 80 100 101 74 93 78 79 93 79 92 99 74 75 99 100 74 94 78 93 95 77 78 95 78 94 98 75 76 98 99 75 96 76 77 96 77 95 97 98 76 97 76 96 3 1 2 4 16 1 4 1 3 5 16 4 6 16 5 7 16 6 8 16 7 9 16 8 10 16 9 11 16 10 12 16 11 13 16 12 15 13 14 15 16 13 16 17 140 35 36 33 141 1 16 
69 67 1 0 0.00638946231267901
41.76721604544 54.89808846856 -0.4258136654498 41.8952200307843 54.8469654239354 -0.4238573419504 42.026999265574 54.8065072824303 -0.4238573419504 42.1615699291092 54.7766180795051 -0.4238573419504 42.2980857984776 54.7574857679251 -0.4238573419504 42.4356884186972 54.7492306577191 -0.4238573419504 42.5735125009528 54.7519046596322 -0.4238573419504 42.7106913638056 54.7654909586944 -0.4238573419504 42.846362383161 54.789904119958 -0.4238573419504 42.979672416721 54.8249906257406 -0.4238573419504 43.1097831688136 54.870529840992 -0.4238573419504 43.2358764618609 54.9262354007173 -0.4238573419504 43.3571593813385 54.991757010731 -0.4238573419504 43.4728692618733 55.0666826504176 -0.4238573419504 43.5822784831243 55.1505411636471 -0.4238573419504 43.6846990452897 55.2428052215545 -0.4238573419504 43.7794868954674 55.34289463855 -0.4238573419504 43.8660459776634 55.4501800207099 -0.4238573419504 43.9438319809804 55.5639867236047 -0.4238573419504 44.0123557624169 55.6835990946766 -0.4238573419504 44.07083366576 55.80841464162 -0.4258136654486 41.48362701673 54.78633694355 -0.4267682303389 41.56508973621 54.57960116346 -0.4292742227387 41.61916762455 54.52953880035 -0.4238573419504 41.6119046262419 54.533054513762 -0.423937592036156 41.6072762322612 54.5357217223087 -0.424005953220321 41.5994582123926 54.5414165691217 -0.423894549809105 41.5937251650915 54.5470307623438 -0.423421361281925 41.5875679000441 54.5539588633755 -0.423142883056093 41.5838364833561 54.5580286800199 -0.42350738593052 41.5769076218102 54.5647092891803 -0.425446116669075 41.5700761858673 54.5716524347038 -0.427999961169544 44.43082698963 55.64062906102 -0.4238573419504 44.3582306048888 55.4892179095641 -0.4238573419504 44.2739593934853 55.3439803981127 -0.4238573419504 44.1785346498868 55.2058149533981 -0.4238573419504 44.0725466634388 55.0755762551064 -0.4238573419504 43.9566510668081 54.9540699487448 -0.4238573419504 43.8315647802954 54.842047661987 -0.4238573419504 43.6980615770267 54.7402023551681 -0.4238573419504 43.5569672964595 54.6491640346914 -0.4238573419504 43.4091547358092 54.5694958558619 -0.4238573419504 43.2555382510003 54.5016906392558 -0.4238573419504 43.0970681005386 54.4461678221744 -0.4238573419504 42.9347245672924 54.4032708640403 -0.4238573419504 42.7695118945465 54.373265121787 -0.4238573419504 42.6024520738385 54.3563362083832 -0.4238573419504 42.4345785230062 54.3525888446468 -0.4238573419504 42.2669296935527 54.3620462114513 -0.4238573419504 42.1005426468737 54.3846498063302 -0.4238573419504 41.936446639084 54.4202598053685 -0.4238573419504 41.7756567541269 54.4686559281419 -0.4238573419504 44.43790479699 55.71485818263 -0.4316285350398 44.4392775688174 55.7064593034276 -0.430074296421914 44.438840973707 55.7004411831872 -0.427950809915173 44.4374129558009 55.6903959913317 -0.424402310457363 44.4369303069274 55.6824352456184 -0.422950622006562 44.4371306090501 55.675166176516 -0.422914950334426 44.4373288698979 55.6693062459491 -0.423390566862602 44.4366797429821 55.6596660686429 -0.424045176602831 44.4343422362961 55.6500624701652 -0.424011605868031 44.35616756609 55.92244909443 -0.4297032058046 44.3542877304744 55.9049843502362 -0.423516832564153 44.3558935317525 55.8993165735924 -0.423070227704377 44.3606798040083 55.890191784257 -0.423901803790341 44.3628641222388 55.8852699028805 -0.424070400550497 44.3864969030375 55.8246925676174 -0.423855437232134 44.4274345827168 55.7230705126097 -0.424611212222941 44.4336134155524 55.71896721169 -0.429037581327523 1.23848172110253 -0.458037778846441 1.13822445183728 -0.36344884759558 1.03053660394861 -0.27739098710092 0.916368415818824 -0.20013651956037 0.796437813139223 -0.132171245510168 0.671498957487094 -0.0739225520986606 0.542337503919096 -0.0257567255406812 0.40976566052367 0.0120233522060633 0.274617080999585 0.0391801080585823 0.137741622377698 0.0555427717433148 8.51045032560123e-10 0.0610084496536468 -0.137741620680932 0.0555427718774649 -0.274617079318754 0.0391801083260386 -0.409765658869288 0.0120233526051445 -0.542337502301509 -0.0257567250124851 -0.671498955916417 -0.0739225514446707 -0.796437811625276 -0.132171244734497 -0.91636841437107 -0.200136518667896 -1.03053660257609 -0.277390986097254 -1.13822445054858 -0.363448846487035 -1.23848171867749 -0.458037778849715 1.54329486829241 -0.4583307719137 1.54351208406934 -0.236124088279286 1.51161750873512 -0.169690706071273 1.51708013475946 -0.175629653969257 1.52040437445007 -0.179811216207403 1.52558231127941 -0.187980774645975 1.5288508301523 -0.195309061026124 1.53203099520073 -0.204015210980874 1.53400554861631 -0.209171567914482 1.53799426884394 -0.217931121100726 1.54179589504698 -0.226899031950752 -1.51161750571328 -0.169690703039004 -1.38845547585646 -0.0555561935152038 -1.25670457868221 0.0485460297934087 -1.11717981390229 0.141971999508068 -0.970744269841129 0.224143790528629 -0.818303784315819 0.29455309514686 -0.660801341200466 0.352764367394686 -0.499211237208169 0.398417517294489 -0.334533054974437 0.431230138345073 -0.167785479724056 0.450999254464257 2.22904985392198e-09 0.457602575581647 0.167785484168395 0.450999254114608 0.334533059377579 0.431230137647938 0.499211241542932 0.39841751625418 0.660801345440093 0.352764366017638 0.818303788434139 0.294553093441592 0.970744273812723 0.224143788505689 1.11717981770265 0.141971997179971 1.25670458228787 0.048546027174554 1.38845547924518 -0.0555561964086147 -1.54548044959258 -0.236123818906359 -1.54367041956952 -0.227808203134635 -1.54105261728285 -0.22237170631173 -1.53603275785727 -0.213554329950193 -1.53265817691062 -0.206328084335608 -1.53017295477956 -0.199494113490273 -1.52820371659596 -0.193971415364405 -1.52405708861154 -0.185244453659138 -1.51835368241167 -0.177172019147306 -1.54575664057377 -0.459226677013769 -1.53758977146785 -0.443675042993444 -1.53700018936931 -0.437813756208237 -1.53809798778842 -0.427568512377419 -1.53832056536774 -0.422188305909512 -1.53803624808326 -0.357164917505433 -1.53876114526264 -0.247609405523628 -1.54299953077994 -0.241522440610413 66 65 64 54 69 68 54 53 69 55 54 68 56 55 68 57 56 68 21 63 62 21 64 63 21 67 66 21 68 67 21 66 64 61 59 58 61 60 59 33 61 58 33 58 57 33 57 68 33 68 21 20 33 21 34 33 20 19 34 20 35 34 19 18 35 19 36 35 18 17 36 18 37 36 17 16 37 17 38 16 15 38 37 16 39 15 14 39 38 15 40 14 13 40 39 14 41 13 12 41 40 13 42 12 11 42 41 12 43 42 11 44 11 10 44 43 11 45 10 9 45 44 10 46 9 8 46 45 9 47 8 7 47 46 8 48 7 6 48 47 7 49 6 5 49 48 6 50 5 4 50 49 5 51 4 3 51 50 4 23 1 22 31 23 32 30 1 23 30 23 31 52 3 2 52 51 3 26 28 27 25 28 26 24 2 1 24 28 25 24 29 28 24 30 29 24 1 30 24 52 2 

TShapes 6
Ve
0.0203785613075994
41.48362701673 54.78633694355 -0.4267682303389
0 0

0101101
*
Ve
0.0203785613075994
41.56508973621 54.57960116346 -0.4292742227387
0 0

0101101
*
Ed
 0.0203785613075994 1 1 0
1  1 0 0 1
2  1 1 0 0 1
4 C0 2 0 1 0
6  1 1 0
0

0101000
+6 0 -5 0 *
Ed
 0.0188249597603915 1 1 0
1  2 0 0 0.222220920330211
2  2 1 0 0 0.222220920330211
4 C0 3 0 1 0
6  2 2 0
0

0101000
+5 0 -6 0 *
Wi

0101100
+4 0 +3 0 *
Fa
0  1e-07 1 0

0111000
+2 0 *

+1 0 