DBRep_DrawableShape

CASCADE Topology V3, (c) Open Cascade
Locations 0
Curve2ds 2
7 0 0  3 25 23  6.5621141749082756 0.10223138601999437  6.5620633150640746 0.10492041310575771  6.5619725439409038 0.10972007573877594  6.5618668682231984 0.11530880318062078  6.5617893069473032 0.11941117222254595  6.5617374998760614 0.12215159097259273  6.5617090897882555 0.12365446753862214  6.5617017223335026 0.12404421002859647  6.5617130451575019 0.12344522655033809  6.5617407073124276 0.12198192521187255  6.5617823586832715 0.1197787141209784  6.5618356495107903 0.1169600013857074  6.5618982299823365 0.11365019511386316  6.5619677498929825 0.10997370341345603  6.5620418583961593 0.1060549343922593  6.5621182038099901 0.10201829615836118  6.5621944335166971 0.097988196819509391  6.5622681939231509 0.094089044483731218  6.562337130505969 0.090445247258873568  6.5623988879263004 0.087181213252883194  6.5624511102174985 0.084421350573659321  6.5624914410770865 0.082290067329106001  6.5625175241065987 0.080911771627155113  6.5625238437713396 0.080577838259523721  6.5625238436981048 0.080577838868777008 
 0.99999999999997924 4 1.035848872727253 1 1.0716977454545267 1 1.1075466181818003 1 1.143395490909074 1 1.1792443636363477 1 1.2150932363636213 1 1.250942109090895 1 1.2867909818181686 1 1.3226398545454423 1 1.358488727272716 1 1.3943375999999896 1 1.4301864727272633 1 1.466035345454537 1 1.5018842181818106 1 1.5377330909090843 1 1.5735819636363582 1 1.6094308363636318 1 1.6452797090909055 1 1.6811285818181791 1 1.7169774545454528 1 1.7528263272727265 1 1.7886752000000001 4
7 0 0  3 4 2  6.5625238436981066 0.080577838868777021  6.5625238436301565 0.080577842460252569  6.5624140731853506 0.086379894169867064  6.5621141749082756 0.10223138601999437 
 0.78867520000000002 4 0.99999999999997924 4
Curves 1
7 0 1  3 3 2  49.645579615190002 99.894003488929997 -0.036212494815280001  49.645582451519999 99.969013576590001 -0.036196737374729997  49.64557677885 99.818993401270006 -0.036228252255829999 
 0 3 1 3
Polygon3D 0
PolygonOnTriangulations 0
Surfaces 2
1 49.431405623019998 101.2375003052 -1.2388576498849999 0.98418332397358166 0 -0.1771529983158967 0.1771529983158967 0 0.98418332397358166 0 -1 0 
2 49.637039291359997 99.791772102910002 -0.040000000000000001 0 1 0 0.76718739504262401 -0 0.64142302803041995 0.64142302803041995 0 -0.76718739504262401 0.0099999999994510001
Triangulations 0

TShapes 6
Ve
0.121856481219516
49.64557961519 99.89400348893 -0.0362124948152809
0 0

0101101
*
Ve
0.223934844514013
49.645131206742 99.7996772387604 -0.0341434137009797
0 0

0101101
*
Ed
 0.00226574626958324 1 1 0
1  1 0 0.999999999999979 1.7886752
2  1 2 0 0.999999999999979 1.7886752
4 C0 1 0 2 0
0

0101000
+6 0 -5 0 *
Ed
 0.00226574626659453 1 1 0
1  1 0 0.7886752 0.999999999999979
2  2 2 0 0.7886752 0.999999999999979
4 C0 1 0 2 0
0

0101000
+5 0 -6 0 *
Wi

0101100
-4 0 -3 0 *
Fa
0  1e-07 1 0

0111000
+2 0 *

+1 0 