DBRep_DrawableShape

CASCADE Topology V3, (c) Open Cascade
Locations 0
Curve2ds 3
1 0.20627465097366376 5.335 1 0 
1 0.7971835492456204 5.1769999999999996 -1 0 
1 0 0.049999999999999822 1 0 
Curves 3
2 6.2999999999999998 3.1000000000000001 2.0299999999990002 1 0 0 0 0.20481495523270465 -0.97880071215392228 -0 0.97880071215392228 0.20481495523270465 0.29999999999999999
2 6.2999999999999998 3.0950000000000002 2.0249999999989998 -1 0 0 0 0.7153910081826097 -0.69872434150490947 -0 -0.69872434150490947 -0.7153910081826097 0.29999999999999999
2 6.2999999999999998 3.0950000000000002 1.924999999999 1 0 0 0 0 -1 -0 1 0 0.20000000000000001
Polygon3D 0
PolygonOnTriangulations 3
9 32 33 34 35 36 37 38 39 40 
p 0.05 1 0 0.0709172658238131 0.141834531647626 0.212751797471439 0.283669063295252 0.354586329119065 0.425503594942878 0.496420860766692 0.567338126590505 
11 2 3 4 5 6 7 8 9 10 11 12 
p 0.05 1 0 0.079718354924562 0.159436709849124 0.239155064773686 0.318873419698248 0.39859177462281 0.478310129547372 0.558028484471934 0.637746839396496 0.717465194321058 0.79718354924562 
6 7 8 9 10 11 12 
p 0.05 1 0 0.0677317733224693 0.135463546644939 0.203195319967408 0.270927093289877 0.338658866612346 
Surfaces 4
1 6.2999999999999998 -0.0050000000000000001 3.2499999999989999 1 0 0 0 0 -1 -0 1 0 
2 0.96499999999999997 3.1000000000000001 2.0299999999990002 1 0 0 0 0 -1 -0 1 0 0.29999999999999999
2 1.123 3.0950000000000002 2.0249999999989998 1 0 0 0 0 -1 -0 1 0 0.29999999999999999
2 6.25 3.0950000000000002 1.924999999999 1 0 0 0 0 -1 -0 1 0 0.20000000000000001
Triangulations 3
50 48 1 0 0.000420134853237842
10.31481885643 3.4 2.029999999999 1.2 3.4 2.029999999999 10.85040016013 3.1 1.729999999999 10.8499773957145 3.10906763545801 1.73013842733851 10.84924502377 3.11501732465904 1.73037906674077 10.8474055738299 3.12424689151436 1.73098626980396 10.8446756166005 3.13361141771751 1.73189288685302 10.8413153462016 3.14243652237999 1.73301619683022 10.8368719814496 3.1518874127492 1.73451332195101 10.8310944353423 3.16207775857369 1.73648141509514 10.8237212159192 3.17307246248245 1.73902942123313 10.8144666287426 3.18495816755663 1.74228597264443 10.8042296243621 3.19652700807999 1.74596267499348 10.7931563340169 3.20775754642282 1.75002624829862 10.781389338728 3.21862809387518 1.75444464503632 10.7628049062251 3.23412766684127 1.76164234599413 10.742623382308 3.24925348626275 1.76976630767144 10.7207554804197 3.26419885910475 1.77892927093582 10.6891316350713 3.28375644129529 1.79286073339582 10.6503646168887 3.30511222716363 1.81107318783549 10.6083115394162 3.32563575207536 1.83229074783371 10.5630640490578 3.34502300886712 1.85689851375754 10.5148616433636 3.36276987794124 1.88524918119361 10.464016881664 3.37818662404024 1.91769602031222 10.4108298015126 3.39038239099508 1.95463837597606 10.3662814984846 3.39706913666125 1.98813819162876 10.3406676211309 3.39923521322499 2.00853063180416 8.8 3.1 1.729999999999 8.8 3.12061121555405 1.73070887451516 8.8 3.14112502600508 1.7328321480431 8.8 3.16144448657 1.736359786353 6.3 3.16144448657 1.736359786353 6.3 3.18209675167019 1.74145169665066 6.3 3.2023363039903 1.74799418288594 6.3 3.22206139624126 1.75595435499139 6.3 3.24117286740271 1.76529219597861 6.3 3.25957464122025 1.77596076310945 6.3 3.27717420919534 1.78790642388429 6.3 3.29388309563942 1.80106912566075 6.3 3.309617302455 1.815382697547 1.2 3.309617291535 1.815382686367 1.2 3.32604240795743 1.83275692710465 1.2 3.34103178192917 1.85138398699891 1.2 3.35449020586803 1.87114555367392 1.2 3.36633219654683 1.89191610853248 1.2 3.37648253776017 1.91356372423541 1.2 3.38487675807158 1.93595090265817 1.2 3.39146154031368 1.95893544823108 1.2 3.39619506024027 1.98237137111613 1.2 3.39904725217938 2.00610981448362 1.5707963267949 9.34981885643 1.5707963267949 0.235 0 9.88540016013 0.0302300915364794 9.88497739571448 0.0500792815453777 9.88424502377001 0.0809125086178814 9.8824055738299 0.112275316462958 9.87967561660051 0.141930923123317 9.8763153462016 0.173827621708515 9.87187198144958 0.208423767533823 9.86609443534226 0.246045226453311 9.85872121591917 0.287127210874194 9.8494666287426 0.327594333175113 9.83922962436205 0.367408221518175 9.82815633401686 0.406524581303558 9.81638933872796 0.463495082488922 9.79780490622506 0.52073360936396 9.77762338230801 0.579178127356826 9.75575548041974 0.659240272706384 9.72413163507128 0.752831106347715 9.68536461688871 0.851269018838192 9.64331153941622 0.955741044765324 9.59806404905784 1.06728898810659 9.54986164336361 1.18710425161192 9.49901688166401 1.31687279995172 9.44582980151255 1.43080206494131 9.40128149848455 1.49917125169665 9.37566762113092 0 7.835 0.0687582169914667 7.835 0.137516433982933 7.835 0.2062746509744 7.835 0.206274650973664 5.335 0.277191916797477 5.335 0.34810918262129 5.335 0.419026448445103 5.335 0.489943714268916 5.335 0.560860980092729 5.335 0.631778245916542 5.335 0.702695511740355 5.335 0.773612777560785 5.335 0.773612725319379 0.235 0.85333108546693 0.235 0.933049445614482 0.235 1.01276780576203 0.235 1.09248616590959 0.235 1.17220452605714 0.235 1.25192288620469 0.235 1.33164124635224 0.235 1.41135960649979 0.235 1.49107796664734 0.235 4 3 28 29 4 28 5 4 29 6 5 29 7 29 30 7 6 29 8 7 30 9 30 31 9 8 30 33 31 32 10 9 31 11 31 33 11 10 31 12 11 33 13 33 34 13 12 33 14 34 35 14 13 34 15 14 35 16 35 36 16 15 35 17 36 37 17 16 36 18 17 37 18 37 38 19 18 38 19 38 39 40 41 42 20 19 39 20 39 40 21 40 42 21 20 40 21 42 43 22 21 43 22 43 44 23 22 44 23 44 45 24 23 45 24 45 46 24 46 47 25 24 47 25 47 48 25 48 49 26 25 49 26 49 50 27 26 50 27 50 2 1 27 2 
22 20 1 0 0.000238281522985866
1.2 3.309617291535 1.815382686367 6.3 3.309617302455 1.815382697547 6.3 3.2922430622688 1.79895758276979 6.3 3.27361600292884 1.78396821060655 6.3 3.25385443702068 1.7705097883231 6.3 3.23308388312022 1.7586677991249 6.3 3.21143626854326 1.7485174591981 6.3 3.1890490913892 1.74012323996255 6.3 3.16606454720102 1.73353845857181 6.3 3.14262862578883 1.7288049392612 6.3 3.11889018395346 1.72595274769484 6.3 3.095 1.724999999999 1.2 3.095 1.724999999999 1.2 3.11889018239559 1.72595274757038 1.2 3.1426286227028 1.72880493876496 1.2 3.16606454264595 1.73353845746119 1.2 3.18904908545298 1.74012323800277 1.2 3.21143626134165 1.74851745616525 1.2 3.23308387479555 1.75866779480885 1.2 3.25385442774039 1.77050978253029 1.2 3.27361599288369 1.78396820316262 1.2 3.29224305167078 1.79895757352202 0.797183497151064 0.077 0.79718354924562 5.177 0.717465194321058 5.177 0.637746839396496 5.177 0.558028484471934 5.177 0.478310129547372 5.177 0.39859177462281 5.177 0.318873419698248 5.177 0.239155064773686 5.177 0.159436709849124 5.177 0.0797183549245621 5.177 0 5.177 0 0.077 0.0797183497151064 0.077 0.159436699430213 0.077 0.239155049145319 0.077 0.318873398860426 0.077 0.398591748575532 0.077 0.478310098290639 0.077 0.558028448005745 0.077 0.637746797720851 0.077 0.717465147435958 0.077 12 13 14 11 14 15 11 12 14 10 15 16 10 11 15 9 16 17 9 10 16 8 17 18 8 9 17 7 18 19 7 8 18 6 19 20 6 7 19 5 20 21 5 6 20 4 21 22 4 5 21 3 22 1 3 4 22 2 3 1 
12 10 1 0 0.000114678866941215
8.8 3.16144448657 1.736359786353 8.8 3.14852496549254 1.73229536054 8.8 3.13535998751157 1.72911464728455 8.8 3.12200992510357 1.72683223282709 8.8 3.10853599951275 1.72545858395413 8.8 3.095 1.724999999999 6.3 3.095 1.724999999999 6.3 3.1085359995128 1.72545858395414 6.3 3.12200992510367 1.72683223282711 6.3 3.13535998751172 1.72911464728458 6.3 3.14852496549275 1.73229536054006 6.3 3.16144448657 1.736359786353 0.338658866612346 2.55 0.270927093288808 2.55 0.203195319966606 2.55 0.135463546644404 2.55 0.0677317733222017 2.55 0 2.55 0 0.0499999999999998 0.0677317733224693 0.0499999999999998 0.135463546644939 0.0499999999999998 0.203195319967408 0.0499999999999998 0.270927093289877 0.0499999999999998 0.338658866612346 0.0499999999999998 5 6 7 5 7 8 4 8 9 4 5 8 3 9 10 3 4 9 2 10 11 2 3 10 1 11 12 1 2 11 

TShapes 8
Ve
1e-07
6.3 3.16144448657 1.736359786353
0 0

0101101
*
Ve
1e-07
6.3 3.309617302455 1.815382697547
0 0

0101101
*
Ed
 1e-07 1 1 0
1  1 0 0 0.567338126590505
2  1 2 0 0 0.567338126590505
4 C0 2 0 1 0
6  1 1 0
0

0101000
+8 0 -7 0 *
Ve
1e-07
6.3 3.095 1.724999999999
0 0

0101101
*
Ed
 1e-07 1 1 0
1  2 0 0 0.79718354924562
2  2 3 0 0 0.79718354924562
4 C0 3 0 1 0
6  2 2 0
0

0101000
+7 0 -5 0 *
Ed
 1e-07 1 1 0
1  3 0 0 0.338658866612346
2  3 4 0 0 0.338658866612346
4 C0 1 0 4 0
6  3 3 0
0

0101000
+5 0 -8 0 *
Wi

0101100
+6 0 +4 0 +3 0 *
Fa
0  1e-07 1 0

0111000
-2 0 *

+1 0 