DBRep_DrawableShape

CASCADE Topology V3, (c) Open Cascade
Locations 0
Curve2ds 2
7 0 0  1 2 2  -0.017155149562898764 0.22816998785000209  0.21973706602654008 0.0040504562800016686 
 0 2 0.22413050339637774 2
7 0 0  1 2 2  -0.017155149562899652 0.22816998785000209  0.21973706602660492 0.0040504562800016686 
 0 2 0.22413050339637774 2
Curves 2
1 11.340475659020001 18.885557909239999 -0.78438625058910005 -0.00043064933788239428 0.9999510471523867 -0.0098852334313908677 
1 11.340475659020001 18.885557909239999 -0.78438625058910005 -0.00043064933789039417 0.9999510471523867 -0.0098852334313918686 
Polygon3D 0
PolygonOnTriangulations 2
3 62 63 53 
p 0.0166666666666667 1 0 0.0747101677987926 0.224130503396378 
3 25 26 24 
p 0.0166666666666667 1 0 0.0747101677987926 0.224130503396378 
Surfaces 3
2 11.346960708639999 19.113727897090001 -0.79000000000000004 0 -1 0 -0.76718739504002875 0 0.64142302803352402 -0.64142302803352402 -0 -0.76718739504002875 0.0099999999994779994
1 12.885 19.345351226919998 -0.78000000000000003 0 0 1 1 0 -0 -0 1 0 
1 11.55259437698 17.668000374830001 -1.988857649893 0.98418332397358166 0 0.1771529983158967 -0.1771529983158967 0 0.98418332397358166 0 -1 0 
Triangulations 2
63 61 1 0 0.00512026932928167
14.1234817211 18.88731344808 -0.781956323499 14.0232244518346 18.9819023793312 -0.78 13.9155366039457 19.0679602398262 -0.78 13.8013684158157 19.1452147073671 -0.78 13.6814378131358 19.2131799814176 -0.78 13.5564989574834 19.2714286748293 -0.78 13.4273375039151 19.3195945013875 -0.78 13.2947656605193 19.3573745791344 -0.78 13.1596170809949 19.384531334987 -0.78 13.0227416223726 19.4008939986717 -0.78 12.8850000008456 19.406359676582 -0.78 12.7472583793132 19.4008939988057 -0.78 12.6103829206751 19.3845313352541 -0.78 12.4752343411242 19.357374579533 -0.78 12.3426624976917 19.3195945019151 -0.78 12.2135010440765 19.2714286754826 -0.78 12.0885621883674 19.2131799821924 -0.78 11.9686315856214 19.1452147082586 -0.78 11.8544633974162 19.0679602408288 -0.78 11.7467755494437 18.9819023804385 -0.78 11.64651828131 18.88731344808 -0.781956323499 14.42829486819 18.88702045502 -0.7829108888878 14.42996339326 19.10967726181 -0.7860407639324 14.39661750873 19.17566052086 -0.78 14.4021013237372 19.16972800495 -0.780089492799001 14.4054437170491 19.1655519954927 -0.780165727405558 14.4105916100366 19.1573730020332 -0.780041493231924 14.4137332893301 19.1500052999882 -0.779513805749058 14.4168388730656 19.1412759734998 -0.779203254107211 14.4189111417642 19.1361499273554 -0.779609738189687 14.4234194402743 19.1275515935593 -0.78177176005758 14.4279055143829 19.1187961173301 -0.784619740722144 11.37338249406 19.17566052373 -0.78 11.4965445239919 19.2897950332872 -0.78 11.6282954211648 19.3938972566137 -0.78 11.7678201859453 19.4873232263456 -0.78 11.9142557300087 19.5694950173826 -0.78 12.0666962155379 19.6399043220164 -0.78 12.2241986586587 19.6981155942787 -0.78 12.3857887626577 19.7437687441917 -0.78 12.5504669448993 19.7765813652541 -0.78 12.7172145201586 19.7963504813837 -0.78 12.8850000021214 19.80295380251 -0.78 13.0527854840711 19.7963504810503 -0.78 13.2195330592911 19.7765813645893 -0.78 13.3842112414675 19.7437687431996 -0.78 13.5458013453758 19.6981155929654 -0.78 13.7033037883808 19.6399043203902 -0.78 13.8557442737701 19.5694950154535 -0.78 14.0021798176703 19.4873232241254 -0.78 14.1417045822651 19.3938972541162 -0.78 14.2734554792311 19.2897950305279 -0.78 11.34037913737 19.10967744081 -0.7866018329343 11.3420172656024 19.117903051509 -0.785281466347432 11.3444001931171 19.1232165773474 -0.783477508706114 11.3490275559114 19.1318284604384 -0.780462965080895 11.3522415674396 19.1389706399472 -0.779229717558325 11.3547228453069 19.1458025466524 -0.779199413534571 11.356744691209 19.151352788812 -0.779603462285345 11.3609637200336 19.1601176588891 -0.780159570477807 11.3666633999099 19.1681881463032 -0.780131051255605 11.34047565902 18.88555790924 -0.7843862505891 11.3404434851357 18.9602644197633 -0.785124778037489 1.2384817211 -0.458037778839998 1.13822445183456 -0.363448847588797 1.03053660394571 -0.277390987093769 0.916368415815702 -0.20013651955289 0.796437813135837 -0.132171245502404 0.67149895748341 -0.073922552090661 0.542337503915086 -0.0257567255324982 0.409765660519312 0.0120233522143755 0.274617080994863 0.0391801080669665 0.137741622372606 0.055542771751713 8.45580272468283e-10 0.0610084496620003 -0.137741620686763 0.0555427718857147 -0.274617079324939 0.0391801083341272 -0.409765658875807 0.0120233526130156 -0.542337502308334 -0.025756725004886 -0.671498955923516 -0.0739225514373945 -0.796437811632611 -0.132171244727591 -0.916368414378596 -0.200136518661403 -1.03053660258376 -0.277390986091213 -1.13822445055633 -0.363448846481477 -1.23848171869 -0.458037778839998 1.54329486819 -0.458330771899998 1.54496339326 -0.235673965109999 1.51161750872883 -0.169690706061162 1.51710132373716 -0.175623221969968 1.52044371704908 -0.179799231427263 1.52559161003664 -0.187978224886812 1.52873328933012 -0.195345926931804 1.53183887306555 -0.204075253420244 1.53391114176424 -0.20920129956456 1.53841944027426 -0.21779963336066 1.54290551438287 -0.226555109589913 -1.51161750594 -0.16969070319 -1.38845547600811 -0.0555561936328099 -1.25670457883517 0.048546029693678 -1.11717981405472 0.141971999425604 -0.970744269991272 0.224143790462644 -0.818303784462059 0.294553095096406 -0.660801341341321 0.352764367358666 -0.499211237342305 0.398417517271673 -0.334533055100683 0.431230138334117 -0.167785479841411 0.450999254463717 2.12140793820481e-09 0.457602575590001 0.167785484071104 0.450999254130275 0.334533059291089 0.431230137669296 0.499211241467501 0.398417516279586 0.66080134537579 0.352764366045449 0.818303788380844 0.294553093470183 0.970744273770133 0.224143788533474 1.11717981767028 0.141971997205421 1.25670458226507 0.0485460271962157 1.38845547923112 -0.0555561963921023 -1.54462086263289 -0.235673786109999 -1.54298273439756 -0.227448175410986 -1.54059980688291 -0.222134649572595 -1.53597244408861 -0.213522766481603 -1.53275843256035 -0.206380586972784 -1.53027715469311 -0.19954868026757 -1.528255308791 -0.193998438108006 -1.52403627996644 -0.185233568030882 -1.51833660009006 -0.177163080616809 -1.54452434098 -0.459793317679999 -1.54455651486429 -0.385086807156666 55 54 53 56 55 53 21 57 56 21 63 62 21 53 63 21 56 53 61 59 58 61 60 59 33 58 57 33 57 21 33 61 58 20 33 21 34 33 20 19 34 20 35 34 19 18 35 19 36 35 18 17 36 18 37 36 17 16 37 17 38 37 16 38 16 15 39 38 15 39 15 14 40 14 13 40 39 14 41 13 12 41 40 13 42 12 11 42 41 12 43 42 11 44 11 10 44 43 11 45 10 9 45 44 10 46 9 8 46 45 9 47 8 7 47 46 8 48 7 6 48 47 7 49 6 5 49 48 6 50 5 4 50 49 5 51 4 3 51 50 4 23 1 22 31 23 32 30 1 23 30 23 31 52 3 2 52 51 3 26 28 27 25 28 26 24 2 1 24 29 28 24 30 29 24 1 30 24 52 2 24 28 25 
132 130 1 0 0.0296442309548032
11.3433531583747 16.2277594600345 -0.780684010731693 11.3922312859377 16.4285412677019 -1.06904951262174 11.4885151487751 16.6018853641651 -1.62602573851928 11.5387879763923 16.7063202674434 -1.91318445945868 11.6042814137529 16.8744659774932 -2.2778201948334 11.6860408831748 17.1188051623426 -2.73001718360115 11.7252614588174 17.2544758025557 -2.94815430806048 11.737643907164 17.3038333916078 -3.0169597272426 11.7504934151679 17.3624347156821 -3.08832957363355 11.7589547982694 17.4075125439935 -3.13531929967817 11.7647683166872 17.4429277026545 -3.16760607142088 11.77018875361 17.48052655133 -3.197715297759 11.7701887507 17.85547343618 -3.197715281597 11.7650419255216 17.8912712387847 -3.16912338209406 11.7595371896434 17.9250517979407 -3.13854541533185 11.753714968307 17.9570090829624 -3.1062047330488 11.7476156867544 17.987337063164 -3.07232468698335 11.7391221995805 18.0255751515399 -3.02514276638739 11.7258027979362 18.0791535992328 -2.95114129880536 11.7010634706046 18.1679486595767 -2.81364012244242 11.6733761347332 18.2580521560751 -2.65978175224856 11.6043114330924 18.4562399333973 -2.2764372751604 11.5081703623968 18.706745297161 -1.73473665976656 11.34037913737 19.10967744081 -0.7866018329343 11.34047565902 18.88555790924 -0.7843862505891 11.3404434851357 18.9602644197633 -0.78512477803749 11.62283222174 18.36044666815 -2.379067898566 11.6255752521732 18.35503094125 -2.3943069565315 11.6275909363457 18.350265131821 -2.40550520193677 11.628603226764 18.3473841352262 -2.41112903759513 11.6299329036265 18.3425751655475 -2.41851613127611 11.6349006378573 18.3149579568939 -2.4461146547681 11.6356565608502 18.3104642492826 -2.45031422694793 11.6363296337451 18.3060445720597 -2.45405352080557 11.6372019513002 18.2994873373401 -2.45889972944143 11.6381320143257 18.2909517660697 -2.46406674624524 11.6385366071192 18.2865009622459 -2.46631448398513 11.6389087315329 18.2818667242735 -2.46838184183748 11.6396294361529 18.2710975396694 -2.47238575639058 11.640349719107 18.2579536845201 -2.47638732835705 11.6408994213644 18.2449622511 -2.47944122978972 11.6412252343821 18.2334208979614 -2.48125130211472 11.6413665470888 18.2231694267868 -2.48203637271342 11.6413679763591 18.2130429479224 -2.48204431310984 11.6412198777091 18.2019250567433 -2.48122154283796 11.6408892883253 18.1897202045545 -2.47938493515428 11.640418356656 18.1782933078698 -2.47676864810278 11.6398489068099 18.1681392113126 -2.473605037846 11.6392066018861 18.1591165067603 -2.47003667715777 11.6383875380331 18.1497231763878 -2.46548632241971 11.6371905219392 18.1382925164718 -2.45883623301097 11.6358141696632 18.1270221017161 -2.45118983147887 11.6342660250261 18.1159051913689 -2.44258902793782 11.6331015574338 18.1088792064969 -2.43611976353444 11.6323116279045 18.1047838248703 -2.43173126614815 11.6315082426619 18.101100568223 -2.42726801479844 11.6301498686959 18.0957786771747 -2.41972149276305 11.6287229299756 18.0911401124977 -2.41179405542593 11.6222741735936 18.0729270128893 -2.37596763106527 11.620626346544 18.0704035289126 -2.36681303634642 11.6188994106895 18.0690336194537 -2.35721894827179 11.6169097089705 18.0682721194735 -2.34616504984217 11.61437232374 18.068 -2.332068465244 11.39284568113 18.068 -1.101364895145 11.378404840624 18.0137286279851 -1.02113800236333 11.3672153416783 17.9644386206934 -0.958974119011586 11.3594140677524 17.9242472675076 -0.915633708372087 11.3533635806153 17.887899837411 -0.882019891154255 11.3491395433335 17.8583534481998 -0.858553017593731 11.3457704877169 17.8309235955849 -0.839836042165274 11.3431853861718 17.8061858534959 -0.825474367094151 11.3412219264673 17.7838868552622 -0.814566257751284 11.3396033869294 17.7615601130335 -0.80557437150746 11.3388402304368 17.7489083401636 -0.801334613231497 11.33818808643 17.73625030814 -0.7977115909635 11.3356420723864 17.6921628071127 -0.783008384399076 11.33500000615 17.668 -0.7799998975299 11.3356435735926 17.6437891883606 -0.783014501203542 11.33818808642 17.59974969186 -0.7977115909463 11.3392965452527 17.5793082901926 -0.803869695566643 11.3406943456493 17.5588847448513 -0.811635253263343 11.3423808233814 17.5384830697358 -0.821004573890667 11.3443553142206 17.5181072787456 -0.831973967302879 11.3466171539383 17.4977613857804 -0.844539743354247 11.3491656783062 17.4774494047399 -0.858698211899036 11.3520002230957 17.4571753495237 -0.874445682791512 11.3551201240785 17.4369432340313 -0.89177846588594 11.3597227314181 17.4100392572164 -0.917348506518553 11.3655036747039 17.3798817813285 -0.949464858044589 11.3719209404541 17.3498532897038 -0.985116334518062 11.3789722868978 17.3199673292536 -1.02429048169712 11.3856673870718 17.2939192478044 -1.06148548308574 11.39284568113 17.268 -1.101364895145 11.61437232374 17.268 -2.332068465244 11.6172819561546 17.2676312855104 -2.34823308975174 11.6194643883911 17.2666127840832 -2.36035771327828 11.6205879974826 17.2656377104195 -2.36659998600512 11.6221237340302 17.2633796298105 -2.37513185571261 11.6283921006895 17.2458316369526 -2.40995611494725 11.6293822530016 17.2428198706529 -2.41545696112673 11.6302863133162 17.2397311771782 -2.42047951843139 11.6317215639641 17.2339646440849 -2.42845313314434 11.6324091609598 17.2307373992942 -2.43227311645545 11.6330621058922 17.2273375614287 -2.43590058830338 11.6341897264635 17.2205931146472 -2.4421651470347 11.6357479971053 17.2094852523527 -2.45082220615711 11.6371318190235 17.1982215120673 -2.45851010570134 11.6383375626696 17.1867986506222 -2.46520868151115 11.6391646157837 17.1774124590233 -2.46980342103309 11.6398466185185 17.1678966582129 -2.47359232511568 11.6403912744036 17.1582581316503 -2.47661819114499 11.6408497477957 17.1474175746347 -2.47916526554555 11.6411959882845 17.1352267074309 -2.4810888238132 11.6413571816523 17.1244265954917 -2.48198434251758 11.6413751603902 17.1143091921236 -2.48208422438874 11.641254721462 17.1040681061789 -2.48141511922632 11.6409890654459 17.0936972620602 -2.47993925246584 11.6405891762865 17.0832064744291 -2.47771764602189 11.6400699300144 17.0726090357063 -2.47483294450933 11.6394451457267 17.0619172938932 -2.47136192068954 11.6387577037965 17.0521829114034 -2.46754279885767 11.6382466229745 17.0462541642601 -2.46470346096011 11.6377224639374 17.0410418578627 -2.46179146631198 11.6371627854062 17.0361931419983 -2.45868214114138 11.6361673010484 17.0288459341362 -2.45315167249121 11.634958362586 17.0213725791968 -2.44643534770514 11.6318820059365 17.0043282784942 -2.42934447744014 11.6305181411563 16.9962134201434 -2.42176745088562 11.6291452054845 16.9903891839291 -2.41414003048617 11.6277046734121 16.9860370321405 -2.40613707452718 11.6256544793957 16.9811401192522 -2.39474710776692 11.62283222174 16.97555333185 -2.379067898566 1.26008901389141 1.35911643155796 0.933668632354914 1.23945910712814 0.368444943985732 1.06611501066493 0.076922137357408 0.961680107386591 -0.293548631521704 0.793534397336785 -0.753077302166788 0.549195212487381 -0.974712264969979 0.41352457227427 -1.04462299897912 0.364166983222179 -1.11714034050141 0.305565659147905 -1.16488580465895 0.260487830836531 -1.19769178921154 0.225072672175533 -1.22828503432285 0.1874738235 -1.22828501790244 -0.187473061349998 -1.19923357169876 -0.223270863954711 -1.1681640662646 -0.25705142311075 -1.13530348210911 -0.289008708132419 -1.1008787997414 -0.319336688334024 -1.0529384935788 -0.357574776709924 -0.977747911297945 -0.411153224402828 -0.838038900481684 -0.499948284746668 -0.681709163718133 -0.590051781245144 -0.292192903057131 -0.788239558567267 0.257971488134747 -1.03874492233096 1.22083469218677 -1.44167706598 1.22299813228515 -1.2175575344051 1.22227698558463 -1.29226404493333 -0.396481264382031 -0.69244629332 -0.411965227170448 -0.687030566419964 -0.423343438050906 -0.682264756990992 -0.429057653605405 -0.679383760396182 -0.436563464261832 -0.674574790717521 -0.46460551986277 -0.646957582063886 -0.468872582794671 -0.642463874452594 -0.472671970334206 -0.638044197229663 -0.477596061728497 -0.631486962510057 -0.482846116955083 -0.622951391239689 -0.485129977781817 -0.618500587415902 -0.48723055986042 -0.613866349443507 -0.491298820778525 -0.603097164839445 -0.495364701462545 -0.589953309690079 -0.498467681728723 -0.576961876270041 -0.500306843479152 -0.565420523131414 -0.501104530840229 -0.55516905195683 -0.501112598845485 -0.545042573092371 -0.500276605944552 -0.533924681913265 -0.498410482389044 -0.521719829724459 -0.495752149345004 -0.510292933039749 -0.492537697139106 -0.500138836482582 -0.48891198981274 -0.491116131930303 -0.484288506944007 -0.48172280155776 -0.477531544854924 -0.470292141641748 -0.469762259046207 -0.45902172688608 -0.461023233164029 -0.44790481653887 -0.454450002094439 -0.440878831666865 -0.44999097776498 -0.436783450040283 -0.445455998111341 -0.433100193393037 -0.437788196949213 -0.427778302344665 -0.42973335884746 -0.423139737667676 -0.393331172905627 -0.40492663805933 -0.384029455943043 -0.402403154082645 -0.374281182586744 -0.401033244623717 -0.363049638462128 -0.400271744643462 -0.348726509574164 -0.39999962517 0.901755529817239 -0.39999962517 0.983271738021022 -0.345728253155139 1.04643464865712 -0.296438245863425 1.09047157712935 -0.256246892677612 1.12462559742785 -0.219899462580976 1.14846960392138 -0.190353073369768 1.16748737731726 -0.162923220754857 1.18207985691624 -0.138185478665856 1.19316326900131 -0.115886480432168 1.20229966262557 -0.0935597382034949 1.2066075574793 -0.0809079653336411 1.21028880484399 -0.0682499333099997 1.22217106609236 -0.0233589946815926 1.22828513614114 3.74830001703685e-07 1.22215863601579 0.0234061182719392 1.21028880486269 0.0682506829699996 1.20403173418234 0.0886920846373767 1.19614137726458 0.10911562997866 1.18662148355937 0.129517305094213 1.17547580251667 0.149893096084395 1.16270808358642 0.17023898904957 1.14832207621859 0.190550970090099 1.13232152986312 0.210825025306343 1.11471019396999 0.231057140798665 1.08872922069576 0.257961117613569 1.05609673166079 0.288118593501477 1.01987230517191 0.318147085126181 0.980068595622733 0.348033045576401 0.942275838451038 0.374081127025559 0.901755529817239 0.40000037483 -0.34872650957318 0.40000037483 -0.365150913559214 0.400369089319597 -0.377470390257814 0.401387590746774 -0.38381298169875 0.402362664410501 -0.392481965921219 0.404620745019476 -0.427865881077921 0.422168737877433 -0.433455130606384 0.42518050417711 -0.438558404744716 0.428269197651844 -0.446660162332606 0.434035730745133 -0.45054153607469 0.437262975535814 -0.454227304528116 0.440662813401286 -0.460592540128708 0.447407260182842 -0.469388725668014 0.458515122477296 -0.477200176397759 0.469778862762726 -0.484006404106256 0.481201724207831 -0.488674985060684 0.490587915806661 -0.492524780104233 0.500103716617132 -0.495599274413963 0.509742243179715 -0.49818728249998 0.52058280019533 -0.500141754010422 0.5327736673991 -0.501051664473986 0.543573779338279 -0.501153151533279 0.553691182706412 -0.500473293273198 0.56393226865111 -0.498973708059348 0.574303112769851 -0.496716398481202 0.584793900400856 -0.493785337323925 0.59539133912367 -0.490258531153499 0.606083080936833 -0.486378032735249 0.615817463426625 -0.483493064225347 0.621746210569892 -0.480534271308143 0.626958516967276 -0.477374976596529 0.631807232831653 -0.471755628538513 0.639154440693808 -0.464931366612286 0.646627795633241 -0.44756583130092 0.663672096335826 -0.439867035385555 0.671786954686623 -0.432117035752724 0.677611190900857 -0.423985465379598 0.681963342689464 -0.412412452016397 0.686860255577813 -0.396481264384034 0.692447042984977 33 21 32 31 32 21 34 21 33 35 21 34 30 31 21 36 21 35 37 21 36 38 21 37 39 21 38 40 21 39 22 27 28 22 28 29 22 29 30 22 30 21 41 21 40 42 21 41 43 21 42 44 21 43 12 13 14 45 21 44 46 21 45 47 21 46 48 21 47 49 21 48 11 14 15 11 12 14 50 21 49 50 20 21 51 20 50 52 20 51 53 20 52 10 15 16 10 11 15 54 20 53 55 20 54 55 19 20 56 19 55 57 19 56 9 16 17 9 10 16 8 9 17 8 17 18 8 18 19 7 8 19 26 23 24 103 104 7 105 6 7 105 7 104 102 103 7 106 6 105 101 19 57 101 7 19 101 102 7 100 101 57 100 57 58 107 6 106 99 100 58 99 58 59 108 6 107 109 6 108 25 23 26 110 6 109 98 99 59 98 59 60 111 6 110 97 98 60 112 6 111 96 60 61 96 97 60 113 6 112 95 96 61 95 61 62 114 6 113 94 62 63 94 95 62 115 6 114 116 6 115 117 6 116 118 6 117 119 6 118 120 6 119 121 6 120 122 6 121 123 6 122 124 6 123 125 6 124 126 6 125 127 6 126 128 6 127 129 6 128 5 6 129 5 129 130 5 130 131 5 131 132 64 94 63 78 75 76 78 76 77 79 75 78 79 74 75 80 74 79 80 73 74 93 94 64 81 73 80 81 72 73 82 72 81 82 71 72 92 93 64 92 64 65 83 70 71 83 71 82 91 92 65 84 69 70 84 70 83 90 65 66 90 91 65 85 69 84 86 68 69 86 69 85 89 66 67 89 90 66 87 67 68 87 68 86 88 89 67 88 67 87 25 27 22 25 22 23 132 1 2 132 2 5 5 2 3 5 3 4 

TShapes 6
Ve
0.00660189895259776
11.34047565902 18.88555790924 -0.7843862505891
0 0

0101101
*
Ve
0.00773551624932636
11.34037913737 19.10967744081 -0.7866018329343
0 0

0101101
*
Ed
 0.00660189895259776 1 1 0
1  1 0 0 0.224130503396378
2  1 1 0 0 0.224130503396378
4 C0 2 0 1 0
6  1 1 0
0

0101000
+6 0 -5 0 *
Ed
 0.00461206097369096 1 1 0
1  2 0 0 0.224130503396378
2  2 1 0 0 0.224130503396378
4 C0 1 0 3 0
6  2 2 0
0

0101000
+6 0 -5 0 *
Wi

0101100
+4 0 -3 0 *
Fa
0  1e-07 1 0

0111000
+2 0 *

+1 0 