DBRep_DrawableShape

CASCADE Topology V3, (c) Open Cascade
Locations 0
Curve2ds 1
7 0 0  3 25 23  6.345645849739598 0.0022505481300001406  6.2952902366904855 0.017504101963639346  6.200949414996618 0.046909232867728946  6.0773337821484468 0.087363232534606164  5.9700874908186918 0.12381604717214736  5.8787715391214075 0.15591921523163224  5.8038012079589985 0.1833278899393368  5.7465304189202344 0.20568373863010836  5.7088508131656885 0.22267875742964038  5.6939880878547831 0.23381711319154266  5.7008194673639103 0.2397160462635988  5.7259581682890834 0.24151882270093128  5.7665690966063137 0.24024217121004265  5.8197038913346972 0.23693445483453091  5.8824471308098856 0.2326440366180178  5.9520000019756161 0.22838764526693534  6.0255475732394279 0.22530854683649321  6.1015522945048382 0.22402398167441046  6.1806738683371947 0.22403811663425394  6.2634925701481405 0.22504294784174109  6.3509235316907446 0.22668014263158062  6.4440825207334012 0.22860485423011009  6.5442772965366194 0.2304686210885018  6.6166703105292468 0.2314388436072746  6.6544899967385795 0.23179792162000012 
 0 4 0.045454545454545456 1 0.090909090909090912 1 0.13636363636363635 1 0.18181818181818182 1 0.22727272727272729 1 0.27272727272727271 1 0.31818181818181818 1 0.36363636363636365 1 0.40909090909090912 1 0.45454545454545459 1 0.5 1 0.54545454545454541 1 0.59090909090909094 1 0.63636363636363635 1 0.68181818181818188 1 0.72727272727272729 1 0.77272727272727271 1 0.81818181818181823 1 0.86363636363636365 1 0.90909090909090917 1 0.95454545454545459 1 1 4
Curves 1
7 0 0  3 6 4  -15.468903419189999 43.224522651039997 -0.78407715552629997  -15.47109260395 43.336382045820002 -0.78109904333930003  -15.47608029427 43.500838558520002 -0.7799491154032  -15.47132142003 43.432615147760004 -0.78114531619810001  -15.4683699089 43.451436785769999 -0.78417870065140005  -15.46748435148 43.454070024529997 -0.78680646670499998 
 0 4 0.33333333333330001 1 0.66666666666670005 1 1 4
Polygon3D 0
PolygonOnTriangulations 0
Surfaces 1
2 -15.47696070864 43.222272102909997 -0.79000000000000004 0 1 0 0.76718739504006983 -0 0.64142302803347484 0.64142302803347484 0 -0.76718739504006983 0.0099999999994790003
Triangulations 0

TShapes 4
Ve
0.223935485690684
-15.4688684630349 43.2301771335745 -0.784144387148934
0 0

0101101
*
Ed
 6.62394407372727e-05 1 1 0
1  1 0 0 1
2  1 1 0 0 1
0

0101000
-4 0 +4 0 *
Wi

0101100
-3 0 *
Fa
0  1e-07 1 0

0111000
+2 0 *

+1 0 