DBRep_DrawableShape

CASCADE Topology V3, (c) Open Cascade
Locations 0
Curve2ds 2
7 0 0  1 2 2  6.2823808812399804 0.24148029231435864  2.9055243649599456 0.019267332988714962 
 0 2 1 2
7 0 0  1 2 2  6.2823808812399804 0.24148029231435864  2.9055243649599456 0.019267332988714962 
 0 2 0.22222710287917596 2
Curves 2
7 0 0  3 6 4  13.379736120560001 87.081035049630003 -0.42927421340060001  13.35551380741 87.088698436640001 -0.42929784785719999  13.30595554119 87.098283987849996 -0.43740934821510002  13.23483266315 87.120632234210007 -0.43889374106599999  13.192285963870001 87.140543780279998 -0.42682385977229997  13.16792819532 87.148236611610002 -0.42677658912010003 
 0 4 0.33333333333330001 1 0.66666666666670005 1 1 4
1 13.379736120560001 87.081035049630003 -0.42927421340060001 -0.95311473035735494 0.30240038732078567 0.011239062419319469 
Polygon3D 0
PolygonOnTriangulations 2
10 110 111 112 113 114 115 116 117 118 109 
p 0.05 1 0 0.07971615 0.1594323 0.385294725 0.50486895 0.60172407225 0.691404741 0.91994097853125 0.959970489265625 1 
2 3 1 
p 0.05 1 0 0.222227102879176 
Surfaces 3
2 13.1511413374 87.159054971209997 -0.43385734195039999 0.95347212563670369 -0.30148118620210118 0 -0.23129256593897413 -0.73149179644651441 0.64142302786290484 -0.1933769752974519 -0.61157897780877435 -0.76718739518267853 0.01000000000035
1 12.069210849999999 87.716822042499999 -1.6327149918420001 0.29671275595359647 0.93839136592468864 0.17715299831619785 -0.053408296071610649 -0.1689104458674654 0.98418332397352737 0.95347212563616601 -0.3014811862038016 -3.3752964246476078e-13 
1 14.070214075719999 88.481543713250005 -0.42385734195039998 0 0 1 0.30148118620189063 0.95347212563677031 -0 -0.95347212563677031 0.30148118620189063 0 
Triangulations 2
138 136 1 0 0.00582009011134201
10.84344208647 87.88063931526 -0.429703205805 10.63080299651 87.94816396997 -0.43162853504 11.4301580004 87.99255139927 -2.022925240517 11.4361487171075 87.9935340625586 -2.03816429847823 11.4413004744096 87.9940191593524 -2.04936254388226 11.4443526108732 87.9941157837792 -2.05498637954055 11.449338701974 87.9939337797218 -2.06237347322305 11.4771686190279 87.9903443070134 -2.0899719967235 11.4816811405291 87.9897102902155 -2.09417156889758 11.4860980983732 87.989019596928 -2.09791086275073 11.4926132262292 87.9878744444998 -2.10275707138738 11.5010320520141 87.9861879195181 -2.10792408819203 11.5053977465112 87.9852318538527 -2.11017182593235 11.5099285517502 87.9841895285476 -2.11223918378502 11.5204139479707 87.9816299937649 -2.11624309833961 11.5331633992393 87.9783541384431 -2.1202446703073 11.545716093767 87.9749615914662 -2.12329857174145 11.5568186787734 87.9717927442632 -2.12510864406797 11.5666357739097 87.9688368563008 -2.12589371466808 11.5762915201383 87.9657852762105 -2.1259016550658 11.5868474705191 87.9622922332552 -2.12507888479517 11.5983847904004 87.958297492177 -2.12324227711259 11.6091380408294 87.9544034775909 -2.12062599006321 11.6186480104386 87.9507992539616 -2.11746237980903 11.6270572648735 87.9474666584505 -2.11389401912384 11.6357666112092 87.9438537915148 -2.10934366438776 11.6463045489861 87.9392663411254 -2.10269357498125 11.6566356309841 87.9345562095857 -2.0950471734511 11.6667685586418 87.9297285575083 -2.08644636991263 11.6731165743028 87.9265000678627 -2.07997710551084 11.6767832576377 87.9245122115632 -2.07558860812491 11.6800529346481 87.9226357735437 -2.07112535677547 11.6847176852263 87.9197361518031 -2.06357883474023 11.6887102321733 87.9169771655258 -2.05565139740267 11.704131736254 87.905337549193 -2.01982497302875 11.7060410190336 87.9030056090916 -2.01067037830968 11.7068265508497 87.9009460219638 -2.00107629023334 11.7069527622228 87.8988193189199 -1.99002239180023 11.70644724664 87.89631795393 -1.975925807195 11.63966113165 87.68509847511 -0.7452222370953 11.6870537303655 87.6549677386043 -0.664995344314992 11.7306769549727 87.6294388533944 -0.602831460964019 11.7666463526052 87.609883619329 -0.559491050324844 11.7994785059971 87.593156582157 -0.52587723310709 11.8263766967499 87.580221399884 -0.502410359546491 11.8515145897432 87.5687395147598 -0.483693384117861 11.8743219777958 87.5588167286649 -0.469331709046501 11.8949915048818 87.5502218961269 -0.458423599703357 11.9157914720364 87.5419475710603 -0.449431713459201 11.9276245074856 87.5374056511234 -0.445191955183026 11.93949697904 87.53296769148 -0.4415689329148 11.9807724312452 87.5172461944064 -0.426864822194763 12.00361059919 87.50935176195 -0.4238572394803 12.0269114423681 87.5026599274738 -0.426874764783562 12.06964651179 87.49181532376 -0.4415689328951 12.0894709979773 87.4867095103364 -0.447727037515513 12.1093656896916 87.4818849593754 -0.45549259521231 12.1293265595391 87.4773422476691 -0.46486191583975 12.1493495801265 87.4730819520091 -0.475831309252093 12.1694307240601 87.4691046491874 -0.488397085303598 12.1895659639463 87.4654109159959 -0.502555553848525 12.2097512723916 87.4620013292263 -0.518303024741131 12.2299826220024 87.4588764656705 -0.535635807835678 12.2570224134806 87.4551538806307 -0.561205848468417 12.2875195717543 87.4515739373101 -0.593322199994533 12.318085586381 87.4486395960503 -0.628973676468002 12.3487068649074 87.4463528035238 -0.668147823646947 12.3755614312392 87.4448833884224 -0.705342825035358 12.40243883215 87.44391352614 -0.7452222370943 12.46922494715 87.65513300497 -1.975925807195 12.4704537055699 87.6577960978859 -1.99209043170563 12.4720827805503 87.6595699271676 -2.00421505523248 12.473351233111 87.6603472907503 -2.01045732795934 12.4759672457058 87.6611308039194 -2.01898919766727 12.4945885623724 87.6618171271031 -2.05381345690423 12.4977587098852 87.6618532188561 -2.05931430308927 12.5009762501979 87.661784032193 -2.0643368603984 12.5069071798344 87.6614140024413 -2.07231047511135 12.5101915653435 87.6610966534227 -2.07613045842134 12.5136300665934 87.6606942310626 -2.07975793026831 12.5204006649925 87.6597360620294 -2.08602248899923 12.531461491348 87.6578730181502 -2.09467954811983 12.5426183500137 87.655796647994 -2.10236744766261 12.5538732390206 87.6535025131331 -2.10906602347068 12.5630720520292 87.6514613250468 -2.11366076299112 12.5723507138482 87.6492427607281 -2.11744966707231 12.5817049837602 87.6468562405113 -2.12047553310041 12.5921793738034 87.6440251581225 -2.12302260749974 12.6039074108638 87.6406799716705 -2.12494616576601 12.6142536133264 87.6375776344912 -2.12584168446922 12.6239056956798 87.6345445699439 -2.12594156633831 12.6336339756002 87.6313422400401 -2.12527246117282 12.6434421961026 87.6279623300426 -2.12379659440853 12.6533243106329 87.6244182717728 -2.12157498796034 12.6632721300819 87.620728256526 -2.11869028644315 12.6732780471719 87.6169091831165 -2.11521926261811 12.6823522587317 87.6133189932162 -2.11140014077767 12.6878510726228 87.6110442861757 -2.10856080287244 12.6926628373885 87.6089731028311 -2.10564880822145 12.6971172202571 87.6069776683442 -2.10253948304837 12.7038224583412 87.6038134568193 -2.09700901439532 12.7105836217505 87.6004076917855 -2.09029268960855 12.7259074237016 87.5923359354899 -2.07320181936401 12.7332335353665 87.5885890513211 -2.06562479281587 12.7383728679732 87.5855240977857 -2.05799737241376 12.7420882300699 87.5828384987257 -2.04999441645607 12.7461392050826 87.5794073687748 -2.0386044497035 12.75061519355 87.57503211348 -2.022925240517 13.16792819532 87.14823661161 -0.4267765891201 13.37973612056 87.08103504963 -0.4292742134006 13.3622773412504 87.0860980134983 -0.429903482897942 13.3447171493376 87.0905205037627 -0.431439374557373 13.2951954543681 87.1025714029505 -0.43655749062909 13.2695823602074 87.1101072386192 -0.437524677700875 13.249328677893 87.1169421512273 -0.436887127677063 13.2310608119053 87.123842251174 -0.434961971568348 13.185004549473 87.1423507876556 -0.427718655323204 13.1765774673131 87.1453733350732 -0.427036644466639 12.9823940962867 87.4120092309592 -1.54840559716631 12.7631485840619 87.5845456484108 -2.09486234618504 12.5930235039096 87.7060952586567 -2.45311631618339 12.5348870243375 87.7444097592875 -2.5588197884476 12.4842550977892 87.7761761579823 -2.64231796573314 12.4345864879668 87.8053359196656 -2.71358047337925 12.3891605174345 87.8301399283851 -2.76886681719539 12.3528141394168 87.8487660609879 -2.80664231962301 12.3135625266 87.86777238435 -2.84157263971 11.95606112242 87.98081181319 -2.841572623549 11.9203776778173 87.9866968183612 -2.81298102418785 11.8865096540298 87.9916325231853 -2.78240328875684 11.8542843098065 87.9957158957917 -2.75006282233978 11.8235289038961 87.9990439043098 -2.71618303002047 11.7845097015992 88.0024738374325 -2.66900159887932 11.7294091929836 88.005926881628 -2.59500144617037 11.6372863627599 88.0091062788044 -2.4575017867757 11.5430314071334 88.0098700988107 -2.30365092575083 11.3333886378793 88.003790384882 -1.92057645154335 11.065458833922 87.9873267960754 -1.37896564078703 1.22177991081524 -1.21812417421795 1.21983610582911 -1.4412270323116 -0.396481264382442 -0.692446292452062 -0.411965227167745 -0.687030565552785 -0.423343438047152 -0.682264756123987 -0.429057653601732 -0.67938375952909 -0.436563464259952 -0.674574789849482 -0.464605519869431 -0.646957581189854 -0.468872582795326 -0.64246387358583 -0.472671970330166 -0.638044196369732 -0.477596061725099 -0.631486961651622 -0.482846116952388 -0.622951390383112 -0.485129977779522 -0.618500586560136 -0.487230559858431 -0.613866348588732 -0.491298820778077 -0.603097163983802 -0.495364701463467 -0.589953308833788 -0.498467681731348 -0.576961875413084 -0.500306843483532 -0.565420522273327 -0.501104530846243 -0.555169051096993 -0.501112598852978 -0.545042572230394 -0.50027660595341 -0.533924681049088 -0.498410482398983 -0.52171982885889 -0.495752149356936 -0.510292932178344 -0.492537697153522 -0.500138835625231 -0.488911989830161 -0.491116131076364 -0.484288506963469 -0.481722800703314 -0.477531544876742 -0.470292140786301 -0.469762259069996 -0.459021726029799 -0.461023233190187 -0.447904815682288 -0.454450002121949 -0.440878830808406 -0.44999097779269 -0.436783449179834 -0.445455998139194 -0.433100192530701 -0.437788196977037 -0.427778301479365 -0.42973335887474 -0.42313973679949 -0.393331172919646 -0.404926637184292 -0.384029455957107 -0.402403153206024 -0.374281182599396 -0.40103324374519 -0.363049638471649 -0.400271743762609 -0.348726509576552 -0.399999624294603 0.901755529816496 -0.399999624294535 0.983271738018781 -0.345728252274977 1.04643464865412 -0.296438244986078 1.09047157712612 -0.256246891805026 1.12462559742466 -0.219899461712966 1.1484696039184 -0.190353072504733 1.16748737731461 -0.162923219891341 1.18207985691397 -0.13818547780222 1.19316326899945 -0.115886479566876 1.2022996626242 -0.093559737334774 1.20660755747822 -0.0809079644620815 1.21028880484323 -0.0682499324348863 1.22217290350498 -0.0233520072225598 1.22828513614009 3.7569976695045e-07 1.22215269885365 0.0234286950402948 1.21028880486401 0.0682506838421298 1.20403173418346 0.0886920855143088 1.19614137726551 0.10911563085856 1.18662148356012 0.129517305975491 1.17547580251726 0.149893096965711 1.16270808358688 0.170238989929828 1.14832207621895 0.190550970968452 1.13232152986342 0.21082502618219 1.11471019397026 0.231057141671652 1.08872922069606 0.257961118482618 1.05609673166122 0.288118594366595 1.01987230517261 0.318147085988699 0.980068595623824 0.348033046438483 0.942275838452599 0.374081127889693 0.9017555298194 0.400000375701294 -0.348726509577842 0.400000375704474 -0.365150913563809 0.400369090195743 -0.377470390262145 0.401387591624146 -0.383812981702889 0.402362665288469 -0.392481965925663 0.404620745898314 -0.427865881085152 0.422168738754986 -0.433455130619256 0.42518050505812 -0.43855840476214 0.428269198536639 -0.446660162350077 0.434035731632598 -0.450541536091076 0.437262976423955 -0.454227304543576 0.440662814290175 -0.460592540143862 0.447407261074303 -0.469388725681494 0.458515123369438 -0.477200176409853 0.469778863654574 -0.484006404116633 0.481201725098919 -0.488674985069564 0.490587916697135 -0.492524780111741 0.500103717507229 -0.495599274420274 0.50974224406978 -0.498187282505029 0.520582801085885 -0.500141754013926 0.532773668291008 -0.501051664476083 0.543573780238119 -0.501153151533011 0.553691183613968 -0.500473293269542 0.5639322695665 -0.498973708051592 0.5743031136929 -0.496716398468959 0.584793901331065 -0.493785337306904 0.595391340060244 -0.490258531131204 0.606083081878735 -0.486378032704415 0.615817464372962 -0.483493064186858 0.621746211518984 -0.480534271266886 0.626958517909738 -0.477374976552899 0.63180723376796 -0.471755628492155 0.639154441620837 -0.464931366565415 0.646627796550842 -0.447565831275258 0.663672097232657 -0.439867035366567 0.671786955578268 -0.4321170357311 0.677611191790601 -0.423985465359288 0.681963343576767 -0.412412452003812 0.686860256460585 -0.396481264381861 0.692447043848538 1.22422386306567 1.21901417287809 1.22180448831476 1.44122713220374 1.2212624279392 1.42305428443174 1.21994168410691 1.40497783331115 1.21551386621095 1.35412715816151 1.21465704717719 1.32743387415151 1.21521173980432 1.30606195506257 1.2169166029793 1.28656380373161 1.22337885538852 1.23707046575802 1.22398961536737 1.22812423663733 0.0856904070122731 0.962590098925716 -0.469556886615603 0.701529130552095 -0.833589377846952 0.502674688075827 -0.940987721606679 0.435692074222227 -1.02582674691667 0.37783897203125 -1.09823479109496 0.321690217504855 -1.15441022121086 0.270899878851029 -1.19279319099927 0.230629191991769 -1.22828503432347 0.187473824372164 -1.22828501790485 -0.187473060483738 -1.19923388948107 -0.223270448598946 -1.1681646508457 -0.257050687375804 -1.1353043266708 -0.289007714848899 -1.10087994162843 -0.319335469052814 -1.0529401663224 -0.357573251113901 -0.977750881011598 -0.411151078047325 -0.838042919186434 -0.499946157232564 -0.681720487988291 -0.590045907487105 -0.292481388353318 -0.788101524945194 0.257653486098884 -1.03860166236321 9 136 8 7 8 136 10 136 9 11 136 10 6 7 136 12 136 11 13 136 12 14 136 13 15 136 14 16 136 15 137 3 4 137 4 5 137 5 6 137 6 136 17 136 16 18 136 17 19 136 18 20 136 19 127 128 129 21 136 20 22 136 21 23 136 22 24 136 23 25 136 24 26 136 25 26 135 136 126 129 130 126 127 129 27 135 26 28 135 27 29 135 28 30 135 29 31 135 30 31 134 135 125 130 131 125 126 130 32 134 31 33 134 32 124 131 132 124 132 133 124 125 131 123 124 133 123 133 134 122 123 134 79 121 122 79 80 121 81 121 80 78 79 122 82 121 81 77 122 134 77 134 33 77 78 122 76 33 34 76 77 33 83 121 82 75 34 35 75 76 34 84 121 83 85 121 84 1 138 2 86 121 85 74 35 36 74 75 35 87 121 86 73 74 36 88 121 87 72 36 37 72 73 36 89 121 88 71 37 38 71 72 37 90 121 89 70 38 39 70 71 38 91 121 90 92 121 91 93 121 92 94 121 93 95 121 94 96 121 95 97 121 96 120 101 102 120 102 103 120 103 104 120 121 97 120 97 98 120 98 99 120 99 100 120 100 101 105 120 104 106 120 105 107 120 106 108 120 107 119 120 108 54 51 52 54 52 53 55 50 51 55 51 54 56 49 50 56 50 55 69 39 40 69 70 39 57 49 56 57 48 49 58 47 48 58 48 57 68 40 41 68 69 40 59 46 47 59 47 58 67 68 41 60 45 46 60 46 59 66 41 42 66 67 41 61 45 60 62 44 45 62 45 61 65 42 43 65 66 42 63 43 44 63 44 62 64 65 43 64 43 63 117 109 118 116 119 109 116 109 117 115 119 116 114 119 115 113 119 114 112 119 113 110 112 111 110 119 112 1 3 137 1 137 138 108 109 119 
73 71 1 0 0.00644614919796915
13.16792819532 87.14823661161 -0.4267765891201 13.26093530954 87.43876697254 -0.4238573419504 13.37973612056 87.08103504963 -0.4292742134006 13.4526944779 87.0914171094 -0.4238573419504 13.4453849722416 87.0879991304953 -0.423937591897811 13.44039576888 87.0860902243919 -0.424005952964126 13.4310452795999 87.0836161717852 -0.423894549744955 13.4230725977287 87.0827090606705 -0.423421362033503 13.4138127852478 87.0823015965022 -0.423142884287744 13.4083010273889 87.0819734671282 -0.423507386533812 13.3987463829273 87.0808112148214 -0.425446113930211 13.3890494391451 87.0798901803026 -0.427999954028132 14.36414295911 89.97398742401 -0.4238573419504 14.4358359976566 89.8221464542915 -0.4238573419504 14.4953741490349 89.6651407845391 -0.4238573419504 14.542389115378 89.5039416383139 -0.4238573419504 14.5765900661041 89.3395461798201 -0.4238573419504 14.5977654370417 89.1729713453774 -0.4238573419504 14.6057842391478 89.0052475527398 -0.4238573419504 14.6005968687948 88.8374123270189 -0.4238573419504 14.5822354146143 88.670503882642 -0.4238573419504 14.5508134589998 88.5055547010456 -0.4238573419504 14.5065253754954 88.3435851438336 -0.4238573419504 14.4496451264176 88.1855971409068 -0.4238573419504 14.380524568148 88.0325679926099 -0.4238573419504 14.2995912745794 87.885444324235 -0.4238573419504 14.2073458921802 87.7451362302775 -0.4238573419504 14.1043590430378 87.6125116446695 -0.4238573419504 13.9912677950391 87.4883909718142 -0.4238573419504 13.8687717210226 87.3735420116339 -0.4238573419504 13.7376285712805 87.2686752100251 -0.4238573419504 13.5986495861795 87.1744392641007 -0.4238573419504 14.31100876414 90.02630170078 -0.4316379746323 14.3183920042452 90.0220691720764 -0.430081848095922 14.3227866379418 90.0179345600446 -0.42795578221083 14.3296808747738 90.0104906442953 -0.424402972425329 14.3355537334597 90.0050947656213 -0.422949520622713 14.3413204915526 90.0006648685243 -0.422913805620529 14.3459924739987 89.9971221776517 -0.423389999875453 14.3530631647965 89.9905373481551 -0.424045404763742 14.359040541224 89.9826656283722 -0.424011793250902 14.3005059851726 90.0293087162496 -0.431316716601977 14.2898444302485 90.0318378127302 -0.430458033213039 14.2754672335343 90.0346979414249 -0.428749584401132 14.2320688162573 90.0428387412387 -0.423282409124487 14.2128962849719 90.0477069317825 -0.42225779431082 14.1939978940382 90.0536280637511 -0.422292621724889 14.1752647421444 90.0606569453307 -0.42325156061318 14.1565911554075 90.0688116892984 -0.424980829070479 14.1279403551023 90.0821702283134 -0.428084382896117 14.1112367277174 90.0892562566631 -0.429356238102927 14.1048063142009 90.0916600243051 -0.429615485178871 14.09836915166 90.09382746913 -0.4297076350301 14.00686675875 89.80049128302 -0.4258136654491 13.3811152849207 87.5062155845475 -0.4238573419504 13.4955746170641 87.5829723629427 -0.4238573419504 13.6035939315059 87.6685548930047 -0.4238573419504 13.7044943291549 87.7624252903544 -0.4238573419504 13.79764165316 87.8639935815432 -0.4238573419504 13.8824504745732 87.9726214120233 -0.4238573419504 13.9583877717576 88.0876260581931 -0.4238573419504 14.0249762804171 88.2082847183001 -0.4238573419504 14.0817974931928 88.3338390552344 -0.4238573419504 14.128494289972 88.4634999626617 -0.4238573419504 14.1647731823812 88.5964525245395 -0.4238573419504 14.1904061583542 88.7318611368472 -0.4238573419504 14.2052321151826 88.8688747593393 -0.4238573419504 14.2091578720435 89.006632264316 -0.4238573419504 14.2021587556385 89.1442678487913 -0.4238573419504 14.1842787552654 89.2809164760474 -0.4238573419504 14.1556302463457 89.4157193123713 -0.4238573419504 14.1163932841479 89.5478291248071 -0.4238573419504 14.0668144721442 89.6764156059962 -0.4238573419504 -1.54329337383948 0.458337429743194 -1.23824087792751 0.457247176687399 -1.54351208544237 0.236124470417552 -1.51161750872705 0.169690706060012 -1.51708013477886 0.175629659619157 -1.52040437448661 0.179811226677143 -1.5255823112842 0.187980777252206 -1.52885083003464 0.195309030248133 -1.53203099501198 0.204015160556464 -1.53400554852112 0.209171543205244 -1.53799426924462 0.217931233165729 -1.54179589609901 0.226899324186591 1.51161750571498 0.16969070302757 1.3884554758622 0.0555561935063682 1.2567045786881 -0.0485460298021465 1.11717981390834 -0.141971999516732 0.970744269847348 -0.224143790537243 0.818303784322217 -0.29455309515545 0.66080134120705 -0.352764367403279 0.499211237214941 -0.398417517303112 0.334533054981398 -0.431230138353755 0.167785479731201 -0.450999254473025 -2.22172675914058e-09 -0.457602575590529 -0.167785484160904 -0.450999254123632 -0.334533059369934 -0.43123013765713 -0.499211241535149 -0.398417516263565 -0.660801345432191 -0.352764366027239 -0.81830378842614 -0.294553093451431 -0.970744273804652 -0.224143788515785 -1.11717981769453 -0.14197199719034 -1.25670458227974 -0.048546027185211 -1.38845547923706 0.0555561963976589 1.54547875026058 0.236124447065525 1.54366906010562 0.227808705654139 1.54105172216281 0.222372037182236 1.53603263868833 0.213554373985325 1.53265837518234 0.206328011027211 1.53017316085128 0.199494037298781 1.52820381866431 0.193971377618332 1.52405704753623 0.185244468826115 1.51835364867811 0.177172031600478 1.54517946543073 0.247045112643376 1.54437663020277 0.257973083086415 1.54276922886917 0.272543614389803 1.53744744825207 0.316377093544676 1.53630897476352 0.336125235562971 1.53625709973179 0.355929434427223 1.5373112495381 0.375910048139561 1.53945683552287 0.396173294463435 1.54355615285124 0.427518382119724 1.5452766539663 0.445581129460647 1.54562993071474 0.452437040224959 1.54575584554054 0.45922813911142 1.23875478303342 0.457768940773517 -1.13769850492775 0.362993407659895 -1.03000572104786 0.277000349541747 -0.915839373141569 0.199808466872304 -0.795916994274702 0.13190290899061 -0.670992294045103 0.0737104608821387 -0.541850421533876 0.0255968608442443 -0.409303030660126 -0.0121354981712467 -0.274183178953359 -0.0392494690913012 -0.137340091804641 -0.0555746411859852 0.00036617489689421 -0.0610084110962712 0.138070140197007 -0.0555166276939663 0.274906337605713 -0.0391338067208256 0.410014754535752 -0.0119629138578501 0.542546237463382 0.0258252824118266 0.671667828840203 0.073993284079218 0.796568002213606 0.132238356279415 0.916461762653258 0.200194429973766 1.03059558042751 0.277434402685991 1.13825212692175 0.363472822832151 8 5 4 8 6 5 8 7 6 9 8 4 10 9 4 3 11 10 3 12 11 2 1 3 2 10 4 2 3 10 55 2 4 55 4 32 56 55 32 56 32 31 57 56 31 57 31 30 58 57 30 58 30 29 59 58 29 59 29 28 60 28 27 60 59 28 61 60 27 61 27 26 62 26 25 62 61 26 63 25 24 63 62 25 64 23 22 64 24 23 64 63 24 65 22 21 65 64 22 66 21 20 66 65 21 67 66 20 67 20 19 68 19 18 68 67 19 69 68 18 17 69 18 70 69 17 16 70 17 71 70 16 15 71 16 72 71 15 14 72 15 73 72 14 13 73 14 54 73 13 39 41 40 38 13 41 38 41 39 37 13 38 33 35 34 42 36 35 42 35 33 43 36 42 44 37 36 44 13 37 44 36 43 45 54 13 45 13 44 46 54 45 47 54 46 48 54 47 49 54 48 50 54 49 51 54 50 52 54 51 53 54 52 

TShapes 6
Ve
0.0212955099016666
13.37973612056 87.08103504963 -0.4292742134006
0 0

0101101
*
Ve
0.0212955099016666
13.16792819532 87.14823661161 -0.4267765891201
0 0

0101101
*
Ed
 0.0212955099016666 1 1 0
1  1 0 0 1
2  1 1 0 0 1
4 C0 2 0 1 0
6  1 1 0
0

0101000
+6 0 -5 0 *
Ed
 0.0188173557084278 1 1 0
1  2 0 0 0.222227102879176
2  2 1 0 0 0.222227102879176
4 C0 3 0 1 0
6  2 2 0
0

0101000
+6 0 -5 0 *
Wi

0101100
-4 0 +3 0 *
Fa
0  1e-07 1 0

0111000
+2 0 *

+1 0 