DBRep_DrawableShape

CASCADE Topology V3, (c) Open Cascade
Locations 0
Curve2ds 3
7 0 0  1 2 2  2.8096338564976899 0.0043251650350009108  2.8052437886768034 0.07432516503491593 
 0 2 0.070000413603627076 2
7 0 0  1 2 2  6.3267469865304831 0.074325165035625584  6.3318127351698585 0.0043251650357105653 
 0 2 0.070000413603627076 2
7 0 0  1 2 2  2.8096338564976899 0.0043251650350009108  2.8052437886768034 0.07432516503491593 
 0 2 0.070000413603627076 2
Curves 2
1 -2.021544274339 -2.0783856435220001 -1.288965032181 -0.70735035937730906 -0.70685484698830914 0.0034197043623190432 
1 -2.021544274339 -2.0783856435220001 -1.288965032181 -0.70735035937730906 -0.70685484698830914 0.0034197043623190432 
Polygon3D 0
PolygonOnTriangulations 2
3 4 5 3 
p 0.0166666666666667 1 0 0.023333471201209 0.0700004136036271 
3 7 8 3 
p 0.0166666666666667 1 0 0.023333471201209 0.0700004136036271 
Surfaces 3
2 -1.9853090361979999 -2.1085041746109998 -1.3051387818939999 -0.70710678118654757 -0.70710678118654757 0 0.70710678118654757 -0.70710678118654757 0 0 0 1 0.050000000000239998
1 -2.034329330501 -2.1150980620439999 -1.2600000000080001 0.58834840541432087 -0.58834840541432087 -0.55470019622571975 -0.39223227027671498 0.39223227027671498 -0.83205029433751665 0.70710678118654757 0.70710678118654757 -8.1524687095804742e-18 
2 -2.0409232179329999 -2.1641183563470001 -1.291010205152 0.70710678118654757 0.70710678118654757 0 -0.70710678118654757 0.70710678118654757 0 0 -0 1 0.04999999999989
Triangulations 2
6 4 1 0 0.00164071494671145
-2.001376376325 -2.098553541537 -1.242596227932 -2.050873851007 -2.14805101622 -1.242596227932 -2.071059092058 -2.127865775169 -1.288725651462 -2.021544274339 -2.078385643522 -1.288965032181 -2.0380492135787 -2.09487902073764 -1.28888523860775 -2.011460325332 -2.08846959252987 -1.26578063005688 -0.0209167308680959 0.0349999999999585 -0.020916730868468 -0.0349999999999589 0.0332998754037344 -0.0349999999992492 0.0334854472052367 0.0350000000006657 0.0334235899380693 0.0116666666673607 0.00628435816873541 0.0350000000000469 6 1 2 5 2 3 5 6 2 4 6 5 
12 10 1 0 0.00634153961738637
-2.009580593159 -2.090349324702 -1.331010205152 -2.061600315995 -2.137324551232 -1.327916992577 -2.071059092058 -2.127865775169 -1.288725651462 -2.07082792929573 -2.12809693793212 -1.29828668899081 -2.07089526680549 -2.12802960042274 -1.3098492524802 -2.06899953269185 -2.12992533453662 -1.31575188409014 -2.021544274339 -2.078385643522 -1.288965032181 -2.0380492135787 -2.09487902073764 -1.28888523860775 -2.01802562867937 -2.08190428918262 -1.31918361534778 -2.02017293058775 -2.07975698727413 -1.31422507612502 -2.02118620224725 -2.07874371561414 -1.30294073285896 -2.02123086321937 -2.0786990546417 -1.29438189616551 5.40310822333641 0.0743251650349182 5.45043204558896 0.0043251650357079 6.33181273516986 0.00432516503571057 6.19960563171902 0.0043251650357079 6.0080051226981 0.0043251650357079 5.82501883865399 0.0043251650357079 6.32674698653048 0.0743251650356256 6.32843556941028 0.0509918317023206 5.81361434031155 0.0743251650352326 5.9504497126366 0.0743251650353374 6.13859834958354 0.0743251650354815 6.25311197199729 0.0743251650355692 9 1 2 9 2 6 10 6 5 10 9 6 11 5 4 11 10 5 12 11 4 8 4 3 8 12 4 7 12 8 

TShapes 6
Ve
0.00724753242801082
-2.021544274339 -2.078385643522 -1.288965032181
0 0

0101101
*
Ve
0.00556240310503867
-2.071059092058 -2.127865775169 -1.288725651462
0 0

0101101
*
Ed
 0.00198930343260631 1 1 0
1  1 0 0 0.0700004136036271
2  1 1 0 0 0.0700004136036271
4 C0 1 0 2 0
6  1 1 0
0

0101000
+6 0 -5 0 *
Ed
 0.00303627755169176 1 1 0
1  2 0 0 0.0700004136036271
2  2 3 0 0 0.0700004136036271
2  3 1 0 0 0.0700004136036271
4 C0 3 0 1 0
6  2 2 0
0

0101000
+6 0 -5 0 *
Wi

0101100
-4 0 +3 0 *
Fa
0  1e-07 1 0

0111000
+2 0 *

-1 0 