DBRep_DrawableShape

CASCADE Topology V3, (c) Open Cascade
Locations 0
Curve2ds 3
7 0 0  1 2 2  6.3151499829690207 0.0043251650355129456  6.3267469865299146 0.074325165035219687 
 0 2 0.070003533097300799 2
7 0 0  1 2 2  0.31889538379237053 0.0043251650355129456  0.33195879709146947 0.074325165035219687 
 0 2 0.070003533097300799 2
7 0 0  1 2 2  0.31889538379237053 0.0043251650355129456  0.33195879709413162 0.074325165035217466 
 0 2 1 2
Curves 2
1 -0.63501437376710002 3.2349442916290001 -1.2894951586050001 0.71173960003257108 0.70240258659257171 0.0075728524044946944 
7 0 0  3 4 2  -0.63501437376710002 3.2349442916290001 -1.2894951586050001  -0.61851521553949995 3.2514434498560001 -1.2894951586050001  -0.60168924534699997 3.2676157961190002 -1.288965032181  -0.58519008711940002 3.2841149543469998 -1.288965032181 
 0 4 1 4
Polygon3D 0
PolygonOnTriangulations 2
3 3 8 9 
p 0.0166666666666667 1 0 0.0233345110324336 0.0700035330973008 
3 3 4 5 
p 0.0166666666666667 1 0 0.5 1 
Surfaces 3
2 -0.60456903071379997 3.1983822415229999 -1.3051387818939999 0.70710678118629755 0.70710678118679759 0 -0.70710678118679759 0.70710678118629755 0 0 -0 1 0.04999999999983
2 -0.60456903071379997 3.1983822415229999 -1.291010205152 0.70710678118629755 0.70710678118679759 0 -0.70710678118679759 0.70710678118629755 0 0 -0 1 0.04999999999983
1 -0.5979751432814 3.2474025358260001 -1.2600000000080001 0.5883484054148862 -0.58834840541378619 -0.55470019622568711 0.39223227027669194 -0.39223227027669194 0.83205029433753841 -0.70710678118608994 -0.70710678118700521 -4.3147052544327362e-13 
Triangulations 2
13 11 1 0 0.00613058867746002
-0.6252461287757 3.225176046637 -1.327916992577 -0.57322640594 3.272151273167 -1.331010205152 -0.6350143737671 3.234944291629 -1.289495158605 -0.63469693485725 3.23462685271878 -1.29524109107841 -0.634655231962074 3.23458514982341 -1.30829125812524 -0.633516382680972 3.23344630054237 -1.31384120370159 -0.628783155616225 3.22871307347776 -1.32225815065098 -0.61840627821792 3.25133451253505 -1.28931844979702 -0.5851900871194 3.284114954347 -1.288965032181 -0.581671441459777 3.28059630868638 -1.31918361534778 -0.583818743368212 3.28274361059487 -1.31422507612502 -0.584832015027685 3.28375688225486 -1.30294073285896 -0.584876675999781 3.2838015432273 -1.29438189616552 5.4504320455774 0.00432516503508351 5.40310822333053 0.074325165035283 6.31514998296902 0.00432516503551295 6.23547026919899 0.00432516503547337 6.03022644107084 0.00432516503537145 5.88279101427321 0.00432516503529823 5.61893796973502 0.00432516503516719 6.31901565082265 0.0276584983687485 6.32674698653143 0.0743251650352175 5.8136143403087 0.0743251650352539 5.95044971263476 0.0743251650352442 6.13859834958309 0.0743251650352308 6.25311197199754 0.0743251650352227 7 2 1 10 7 6 10 2 7 11 6 5 11 10 6 12 5 4 12 11 5 8 4 3 13 12 4 13 4 8 9 13 8 
6 4 1 0 0.00164265338951848
-0.6145196637882 3.214449581649 -1.242596227932 -0.5650221891049 3.263947056332 -1.242596227932 -0.6350143737671 3.234944291629 -1.289495158605 -0.61010223044325 3.25952962298763 -1.289230095393 -0.5851900871194 3.284114954347 -1.288965032181 -0.575106138112187 3.2740310053395 -1.26578063005688 0.0209167308685687 0.0350000000004538 0.0209167308686841 -0.034999999999605 -0.0341829114498232 0.0349999999997482 -0.0338341793271868 1.6058071539149e-13 -0.0334854472048444 -0.034999999999957 -0.00628435816840702 -0.0349999999997546 4 5 6 1 3 4 1 6 2 1 4 6 

TShapes 6
Ve
0.00724753242822642
-0.5851900871194 3.284114954347 -1.288965032181
0 0

0101101
*
Ve
0.00501962046192531
-0.6350143737671 3.234944291629 -1.289495158605
0 0

0101101
*
Ed
 0.00303627755242138 1 1 0
1  1 0 0 0.0700035330973008
2  1 2 0 0 0.0700035330973008
2  2 1 0 0 0.0700035330973008
4 C0 1 0 2 0
6  1 1 0
0

0101000
-6 0 +5 0 *
Ed
 0.00198930343322048 1 1 0
1  2 0 0 1
2  3 1 0 0 1
4 C0 3 0 1 0
6  2 2 0
0

0101000
+5 0 -6 0 *
Wi

0101100
-4 0 +3 0 *
Fa
0  1e-07 1 0

0111000
+2 0 *

-1 0 