DBRep_DrawableShape

CASCADE Topology V3, (c) Open Cascade
Locations 0
Curve2ds 3
7 0 0  1 2 2  6.3267469865092076 0.07432516503562514  6.3318127351542852 0.0043251650357047922 
 0 2 0.070000413603633932 2
7 0 0  1 2 2  2.8096338565167431 0.0043251650350004667  2.8052437886911084 0.074325165034920815 
 0 2 0.070000413603633932 2
7 0 0  1 2 2  2.8096338565167431 0.0043251650350004667  2.8052437886911123 0.074325165034920815 
 0 2 0.070000413603633932 2
Curves 2
1 3.521544274339 3.5783856435220001 -1.2889650321820001 0.7073503593779995 0.70685484698759959 0.0034197043661869978 
1 3.521544274339 3.5783856435220001 -1.2889650321820001 0.7073503593779995 0.70685484698759959 0.003419704366183998 
Polygon3D 0
PolygonOnTriangulations 2
3 7 8 3 
p 0.0166666666666667 1 0 0.0233334712012113 0.0700004136036339 
3 1 4 5 
p 0.0166666666666667 1 0 0.0233334712012113 0.0700004136036339 
Surfaces 3
2 3.4853090361980001 3.6085041746109998 -1.3051387818939999 0.70710678118654757 0.70710678118654757 0 -0.70710678118654757 0.70710678118654757 0 0 -0 1 0.04999999999989
2 3.5409232179329999 3.6641183563470001 -1.291010205152 -0.70710678118654757 -0.70710678118654757 0 0.70710678118654757 -0.70710678118654757 0 0 0 1 0.04999999999989
1 3.534329330501 3.6150980620430002 -1.2600000000080001 0.58834840541432087 -0.58834840541432087 0.55470019622571975 0.39223227027671498 -0.39223227027671498 -0.83205029433751665 0.70710678118654757 0.70710678118654757 8.1524687095804742e-18 
Triangulations 2
12 10 1 0 0.00634153961752971
3.509580593159 3.590349324702 -1.331010205152 3.561600315995 3.637324551232 -1.327916992577 3.571059092058 3.627865775169 -1.288725651461 3.57082792929573 3.62809693793152 -1.29828668899064 3.5708952668055 3.62802960042254 -1.30984925248006 3.56899953269185 3.62992533453662 -1.31575188409014 3.521544274339 3.578385643522 -1.288965032182 3.53804921357871 3.59487902073762 -1.28888523860866 3.51802562867937 3.58190428918262 -1.31918361534778 3.52017293058775 3.57975698727413 -1.31422507612502 3.52118620224725 3.57874371561414 -1.30294073285902 3.52123086321937 3.5786990546417 -1.29438189616598 5.40310822334918 0.0743251650349182 5.45043204558896 0.00432516503570746 6.33181273515429 0.00432516503570479 6.19960563173709 0.00432516503570746 6.0080051227149 0.00432516503570746 5.82501883866302 0.00432516503570746 6.32674698650921 0.0743251650356251 6.3284355693909 0.0509918317023184 5.81361434030919 0.0743251650352324 5.9504497126292 0.0743251650353371 6.1385983495692 0.0743251650354811 6.25311197197835 0.0743251650355688 9 1 2 9 2 6 10 6 5 10 9 6 11 5 4 11 10 5 12 11 4 8 4 3 8 12 4 7 12 8 
6 4 1 0 0.00164071494769408
3.521544274339 3.578385643522 -1.288965032182 3.51146032533187 3.58846959252987 -1.265780630057 3.501376376324 3.598553541537 -1.242596227932 3.53804921357871 3.59487902073762 -1.28888523860866 3.571059092058 3.627865775169 -1.288725651461 3.550873851007 3.64805101622 -1.242596227933 0.0334854472056767 -0.0349999999999589 0.0062843581683983 -0.0349999999994285 -0.0209167308688801 -0.0349999999999589 0.0334235899384471 -0.011666666666652 0.0332998754030701 0.0349999999997748 -0.0209167308688711 0.0349999999999588 6 3 2 4 2 1 4 6 2 5 6 4 

TShapes 6
Ve
0.00724753242764354
3.521544274339 3.578385643522 -1.288965032182
0 0

0101101
*
Ve
0.00556240310569589
3.571059092058 3.627865775169 -1.288725651461
0 0

0101101
*
Ed
 0.00303627755173547 1 1 0
1  1 0 0 0.0700004136036339
2  1 2 0 0 0.0700004136036339
2  2 1 0 0 0.0700004136036339
4 C0 1 0 2 0
6  1 1 0
0

0101000
+6 0 -5 0 *
Ed
 0.00198930343374924 1 1 0
1  2 0 0 0.0700004136036339
2  3 1 0 0 0.0700004136036339
4 C0 3 0 1 0
6  2 2 0
0

0101000
+6 0 -5 0 *
Wi

0101100
-4 0 +3 0 *
Fa
0  1e-07 1 0

0111000
+2 0 *

+1 0 