DBRep_DrawableShape

CASCADE Topology V3, (c) Open Cascade
Locations 0
Curve2ds 3
7 0 0  1 2 2  6.3267469865736814 0.074325165029255985  6.3318127351696507 0.0043251650265160591 
 0 2 0.070000413606448389 2
7 0 0  1 2 2  2.8096338564597869 0.0043251650332590263  2.8052437886921253 0.07432516503600009 
 0 2 0.070000413606448389 2
7 0 0  1 2 2  2.8096338564597869 0.0043251650332590263  2.8052437886921298 0.07432516503600009 
 0 2 0.070000413606448389 2
Curves 2
1 -33.228455725659998 32.828385643520001 -1.288965032171 0.70735035939677005 0.70685484696897005 0.0034197043343188551 
1 -33.228455725659998 32.828385643520001 -1.288965032171 0.70735035939677005 0.70685484696897005 0.0034197043343158554 
Polygon3D 0
PolygonOnTriangulations 2
3 7 8 3 
p 0.0166666666666667 1 0 0.0233334712021495 0.0700004136064484 
3 1 4 5 
p 0.0166666666666667 1 0 0.0233334712021495 0.0700004136064484 
Surfaces 3
2 -33.2646909638 32.858504174609998 -1.3051387818860001 0.70710678118154768 0.70710678119154757 0 -0.70710678119154757 0.70710678118154768 0 0 -0 1 0.050000000004729997
2 -33.209076782069999 32.914118356339998 -1.291010205144 -0.70710678118654757 -0.70710678118654757 0 0.70710678118654757 -0.70710678118654757 0 0 0 1 0.049999999997409998
1 -33.2156706695 32.865098062050002 -1.2599999999980001 0.58834840544072087 -0.58834840538792088 0.55470019622571975 0.39223227022721502 -0.39223227032621499 -0.83205029433751665 0.70710678119203918 0.70710678118105608 -7.8956346899313827e-11 
Triangulations 2
12 10 1 0 0.0063415396195747
-33.24041940684 32.8403493247 -1.331010205149 -33.188399684 32.88732455123 -1.327916992569 -33.17894090794 32.87786577517 -1.288725651453 -33.179172070703 32.8780969379307 -1.29828668898226 -33.1791047331955 32.8780296004173 -1.30984925247164 -33.1810004673104 32.8799253345314 -1.31575188408246 -33.22845572566 32.82838564352 -1.288965032171 -33.2119507864192 32.8448790207359 -1.2888852385984 -33.2319743713193 32.8319042891793 -1.31918361534561 -33.2298270694108 32.8297569872708 -1.31422507612202 -33.2288137977544 32.8287437156144 -1.30294073285287 -33.2287691367826 32.8286990546426 -1.29438189616425 5.40310822317067 0.0743251650292554 5.45043204562046 0.0043251650265109 6.33181273516965 0.00432516502651606 6.19960563174368 0.00432516502651498 6.00800512274705 0.00432516502651393 5.82501883868207 0.00432516502651294 6.32674698657368 0.074325165029256 6.328435569439 0.0509918316950093 5.81361434023868 0.0743251650292557 5.95044971259468 0.0743251650292557 6.13859834958418 0.0743251650292559 6.25311197192764 0.0743251650292559 9 1 2 9 2 6 10 6 5 10 9 6 11 5 4 11 10 5 12 11 4 8 4 3 8 12 4 7 12 8 
6 4 1 0 0.00164071494264703
-33.22845572566 32.82838564352 -1.288965032171 -33.23853967467 32.83846959253 -1.26578063004612 -33.24862362368 32.84855354154 -1.242596227922 -33.2119507864192 32.8448790207359 -1.2888852385984 -33.17894090794 32.87786577517 -1.288725651453 -33.19912614899 32.89805101622 -1.242596227923 0.0334854472116117 -0.0350000000024889 0.0062843581724749 -0.0350000000044327 -0.0209167308660341 -0.0350000000063727 0.033423589943707 -0.0116666666682491 0.03329987540587 0.0349999999999794 -0.0209167308671263 0.034999999996375 6 3 2 4 2 1 4 6 2 5 6 4 

TShapes 6
Ve
0.00724753243051544
-33.22845572566 32.82838564352 -1.288965032171
0 0

0101101
*
Ve
0.00556240310634539
-33.17894090794 32.87786577517 -1.288725651453
0 0

0101101
*
Ed
 0.00303627754983293 1 1 0
1  1 0 0 0.0700004136064484
2  1 2 0 0 0.0700004136064484
2  2 1 0 0 0.0700004136064484
4 C0 1 0 2 0
6  1 1 0
0

0101000
+6 0 -5 0 *
Ed
 0.0019893034280291 1 1 0
1  2 0 0 0.0700004136064484
2  3 1 0 0 0.0700004136064484
4 C0 3 0 1 0
6  2 2 0
0

0101000
+6 0 -5 0 *
Wi

0101100
-4 0 +3 0 *
Fa
0  1e-07 1 0

0111000
+2 0 *

+1 0 