DBRep_DrawableShape

CASCADE Topology V3, (c) Open Cascade
Locations 0
Curve2ds 1
7 0 0  3 25 23  6.345645849739598 0.0022505481300001406  6.2952902366902972 0.017504101963636786  6.2009494149963622 0.046909232867724603  6.0773337821485631 0.087363232534603916  5.9700874908186981 0.12381604717213929  5.8787715391215931 0.15591921523162419  5.8038012079590784 0.18332788993933455  5.7465304189202104 0.20568373863010403  5.7088508131662428 0.22267875742961749  5.6939880878546347 0.23381711319155304  5.7008194673639547 0.23971604626358015  5.7259581682887424 0.24151882270093158  5.7665690966067302 0.24024217121003891  5.8197038913348305 0.2369344548345243  5.8824471308098873 0.23264403661800523  5.9520000019758923 0.22838764526692834  6.0255475732396713 0.22530854683649121  6.1015522945051615 0.22402398167440435  6.1806738683370872 0.22403811663425913  6.2634925701482471 0.2250429478417264  6.3509235316904409 0.22668014263159142  6.4440825207334482 0.22860485423010296  6.5442772965365599 0.23046862108849833  6.6166703105291695 0.23143884360727324  6.6544899967385147 0.23179792162000012 
 0 4 0.045454545454545456 1 0.090909090909090912 1 0.13636363636363635 1 0.18181818181818182 1 0.22727272727272729 1 0.27272727272727271 1 0.31818181818181818 1 0.36363636363636365 1 0.40909090909090912 1 0.45454545454545459 1 0.5 1 0.54545454545454541 1 0.59090909090909094 1 0.63636363636363635 1 0.68181818181818188 1 0.72727272727272729 1 0.77272727272727271 1 0.81818181818181823 1 0.86363636363636365 1 0.90909090909090917 1 0.95454545454545459 1 1 4
Curves 1
7 0 0  3 6 4  14.431096580809999 16.224522651040001 -0.78407715552629997  14.428907396050001 16.336382045819999 -0.78109904333930003  14.42391970573 16.500838558520002 -0.7799491154032  14.428678579970001 16.43261514776 -0.78114531619810001  14.431630091100001 16.451436785769999 -0.78417870065140005  14.432515648520001 16.454070024530001 -0.78680646670499998 
 0 4 0.33333333333330001 1 0.66666666666670005 1 1 4
Polygon3D 0
PolygonOnTriangulations 0
Surfaces 1
2 14.42303929136 16.222272102910001 -0.79000000000000004 0 1 0 0.76718739504006983 -0 0.64142302803347484 0.64142302803347484 0 -0.76718739504006983 0.0099999999994790003
Triangulations 0

TShapes 4
Ve
0.223935485690684
14.4311315369651 16.2301771335745 -0.784144387148934
0 0

0101101
*
Ed
 6.62394407369581e-05 1 1 0
1  1 0 0 1
2  1 1 0 0 1
0

0101000
-4 0 +4 0 *
Wi

0101100
-3 0 *
Fa
0  1e-07 1 0

0111000
+2 0 *

+1 0 