DBRep_DrawableShape

CASCADE Topology V3, (c) Open Cascade
Locations 0
Curve2ds 3
7 0 0  1 2 2  0.31889538381464355 0.0043251650335847103  0.33195879712357906 0.074325165029321738 
 0 2 0.070003533093327436 2
7 0 0  1 2 2  6.315149982952371 0.0043251650335847103  6.3267469865274624 0.074325165029321738 
 0 2 0.070003533093327436 2
7 0 0  1 2 2  0.31889538381464355 0.0043251650335847103  0.33195879718494609 0.074325165029264895 
 0 2 1 2
Curves 2
1 31.614985626229998 27.984944291630001 -1.2894951585979999 0.71173960002710757 0.70240258659800747 0.0075728524138390808 
7 0 0  3 4 2  31.614985626229998 27.984944291630001 -1.2894951585979999  31.63148478446 28.001443449859998 -1.2894951585979999  31.648310754650002 28.017615796120001 -1.288965032174  31.664809912879999 28.034114954340001 -1.288965032173 
 0 4 1 4
Polygon3D 0
PolygonOnTriangulations 2
3 3 8 9 
p 0.0166666666666667 1 0 0.0233345110311091 0.0700035330933274 
3 3 4 5 
p 0.0166666666666667 1 0 0.5 1 
Surfaces 3
2 31.64543096928 27.948382241529998 -1.3051387818860001 0.70710678118654757 0.70710678118654757 0 -0.70710678118654757 0.70710678118654757 0 0 -0 1 0.049999999997409998
2 31.64543096928 27.948382241529998 -1.291010205144 0.70710678118654757 0.70710678118654757 0 -0.70710678118654757 0.70710678118654757 0 0 -0 1 0.049999999997409998
1 31.652024856720001 27.997402535820001 -1.26 0.58834840544078626 -0.58834840538788624 -0.55470019622568711 0.39223227032629182 -0.39223227022709189 0.8320502943375383 -0.70710678113702674 -0.7071067812360684 3.7615025773314119e-11 
Triangulations 2
13 11 1 0 0.00613058867825279
31.62475387122 27.97517604664 -1.327916992568 31.67677359406 28.02215127316 -1.331010205143 31.61498562623 27.98494429163 -1.289495158598 31.6153030651397 27.9846268527203 -1.29524109107097 31.6153447680352 27.9845851498248 -1.30829125811574 31.6164836173166 27.9834463005434 -1.31384120369356 31.6212168443699 27.9787130734901 -1.32225815062419 31.6315937217781 28.0013345125353 -1.28931844978981 31.66480991288 28.03411495434 -1.288965032173 31.6683285585385 28.0305963086907 -1.31918361534236 31.6661812566296 28.0327436105992 -1.31422507611891 31.6651679849688 28.0337568822551 -1.30294073285202 31.6651233239975 28.0338015432233 -1.29438189615531 5.4504320455291 0.00432516503359182 5.40310822319631 0.0743251650292649 6.31514998295237 0.00432516503358471 6.23547026917687 0.00432516503358537 6.03022644107432 0.00432516503358705 5.88279101424073 0.00432516503358826 5.61893797018333 0.00432516503359043 6.31901565081073 0.0276584983654971 6.32674698654425 0.0743251650292649 5.81361434023984 0.0743251650292649 5.95044971258768 0.0743251650292649 6.13859834956596 0.0743251650292649 6.25311197203554 0.0743251650292649 7 2 1 10 7 6 10 2 7 11 6 5 11 10 6 12 5 4 12 11 5 8 4 3 13 12 4 13 4 8 9 13 8 
6 4 1 0 0.00164265338720065
31.63548033621 27.96444958165 -1.242596227925 31.68497781089 28.01394705633 -1.242596227924 31.61498562623 27.98494429163 -1.289495158598 31.639897769555 28.0095296229888 -1.28923009538588 31.66480991288 28.03411495434 -1.288965032173 31.674893861885 28.024031005335 -1.26578063004887 0.0209167308612773 0.0349999999993039 0.0209167308670216 -0.0349999999963695 -0.0341829114575435 0.0349999999955118 -0.0338341793319452 -4.95201712968902e-12 -0.0334854472027821 -0.0350000000001102 -0.0062843581681921 -0.0349999999982399 4 5 6 1 3 4 1 6 2 1 4 6 

TShapes 6
Ve
0.00724753242917001
31.66480991288 28.03411495434 -1.288965032173
0 0

0101101
*
Ve
0.00501962046250687
31.61498562623 27.98494429163 -1.289495158598
0 0

0101101
*
Ed
 0.00303627755599503 1 1 0
1  1 0 0 0.0700035330933274
2  1 1 0 0 0.0700035330933274
2  2 2 0 0 0.0700035330933274
4 C0 1 0 2 0
6  1 1 0
0

0101000
-6 0 +5 0 *
Ed
 0.00198930343391261 1 1 0
1  2 0 0 1
2  3 1 0 0 1
4 C0 3 0 1 0
6  2 2 0
0

0101000
+5 0 -6 0 *
Wi

0101100
-4 0 +3 0 *
Fa
0  1e-07 1 0

0111000
+2 0 *

-1 0 