DBRep_DrawableShape

CASCADE Topology V3, (c) Open Cascade
Locations 0
Curve2ds 3
7 0 0  1 2 2  6.3151499829480811 0.0043251650357080118  6.3267469865129282 0.074325165035635021 
 0 2 0.070003533097521969 2
7 0 0  1 2 2  0.31889538377466209 0.0043251650357080118  0.33195879707713222 0.074325165035635021 
 0 2 0.070003533097521969 2
7 0 0  1 2 2  0.31889538377466209 0.0043251650357080118  0.33195879709674453 0.074325165035625251 
 0 2 1 2
Curves 2
1 -1.385014373767 2.4849442916290001 -1.2894951586059999 0.71173960003220915 0.702402586592909 0.0075728524072530964 
7 0 0  3 4 2  -1.385014373767 2.4849442916290001 -1.2894951586059999  -1.36851521554 2.5014434498560001 -1.2894951586050001  -1.351689245347 2.5176157961190002 -1.288965032181  -1.3351900871189999 2.5341149543469998 -1.288965032181 
 0 4 1 4
Polygon3D 0
PolygonOnTriangulations 2
3 3 8 9 
p 0.0166666666666667 1 0 0.0233345110325073 0.070003533097522 
3 3 4 5 
p 0.0166666666666667 1 0 0.5 1 
Surfaces 3
2 -1.3545690307139999 2.4483822415229999 -1.3051387818939999 0.70710678118654757 0.70710678118654757 0 -0.70710678118654757 0.70710678118654757 0 0 -0 1 0.049999999999540003
2 -1.3545690307139999 2.4483822415229999 -1.291010205152 0.70710678118654757 0.70710678118654757 0 -0.70710678118654757 0.70710678118654757 0 0 -0 1 0.049999999999540003
1 -1.347975143282 2.4974025358260001 -1.260000000007 0.58834840541432087 -0.58834840541432087 -0.55470019622571975 0.39223227027671498 -0.39223227027671498 0.83205029433751665 -0.70710678118654757 -0.70710678118654757 8.1524687095804742e-18 
Triangulations 2
13 11 1 0 0.00613058867721618
-1.375246128776 2.475176046637 -1.327916992577 -1.32322640594 2.522151273167 -1.331010205152 -1.385014373767 2.484944291629 -1.289495158606 -1.3846969348574 2.48462685271878 -1.29524109107842 -1.3846552319624 2.4845851498234 -1.30829125812563 -1.38351638268138 2.48344630054237 -1.31384120370203 -1.37878315559732 2.47871307345832 -1.32225815068411 -1.36840627821778 2.50133451253511 -1.28931844979796 -1.335190087119 2.534114954347 -1.288965032181 -1.33167144145974 2.5305963086873 -1.31918361534778 -1.33381874336834 2.53274361059575 -1.31422507612502 -1.3348320150276 2.53375688225525 -1.30294073285896 -1.33487667599944 2.53380154322737 -1.29438189616571 5.45043204557848 0.00432516503500047 5.40310822333641 0.0743251650349182 6.31514998294808 0.00432516503570801 6.23547026917918 0.00432516503564281 6.03022644105573 0.00432516503547488 5.88279101426328 0.00432516503535424 5.61893796883787 0.00432516503513834 6.31901565080303 0.027658498369017 6.32674698653179 0.0743251650356253 5.81361434031214 0.0743251650352324 5.95044971263738 0.0743251650353372 6.13859834958459 0.0743251650354812 6.25311197199581 0.0743251650355689 7 2 1 10 7 6 10 2 7 11 6 5 11 10 6 12 5 4 12 11 5 8 4 3 13 12 4 13 4 8 9 13 8 
6 4 1 0 0.00164265339030642
-1.364519663788 2.464449581649 -1.242596227932 -1.315022189105 2.513947056332 -1.242596227932 -1.385014373767 2.484944291629 -1.289495158606 -1.36010223044337 2.50952962298763 -1.28923009539313 -1.335190087119 2.534114954347 -1.288965032181 -1.32510613811237 2.52403100533988 -1.2657806300565 0.0209167308680481 0.0349999999999587 0.0209167308680481 -0.0349999999999584 -0.0341829114512127 0.0349999999992517 -0.0338341793279365 -1.76721137723491e-13 -0.0334854472052841 -0.0350000000006659 -0.00628435816891228 -0.0350000000003121 4 5 6 1 3 4 1 6 2 1 4 6 

TShapes 6
Ve
0.00724753242817378
-1.335190087119 2.534114954347 -1.288965032181
0 0

0101101
*
Ve
0.00501962046144561
-1.385014373767 2.484944291629 -1.289495158606
0 0

0101101
*
Ed
 0.00303627755231934 1 1 0
1  1 0 0 0.070003533097522
2  1 2 0 0 0.070003533097522
2  2 1 0 0 0.070003533097522
4 C0 2 0 1 0
6  1 1 0
0

0101000
-6 0 +5 0 *
Ed
 0.00198930343433789 1 1 0
1  2 0 0 1
2  3 1 0 0 1
4 C0 1 0 3 0
6  2 2 0
0

0101000
+5 0 -6 0 *
Wi

0101100
-4 0 +3 0 *
Fa
0  1e-07 1 0

0111000
+2 0 *

-1 0 