DBRep_DrawableShape

CASCADE Topology V3, (c) Open Cascade
Locations 0
Curve2ds 0
Curves 3
1 11.039999999999999 -45.875 -0.78633333333330002 0 1 0 
1 11.039999999999999 -43.875 -0.77300000000000002 1.33226762955e-13 0 -1 
1 11.039999999999999 -45.875 -0.77300000000000002 0 0 -1 
Polygon3D 0
PolygonOnTriangulations 1
2 1 3 
p 0.05 1 0 0.0133333333333 
Surfaces 3
1 11.039999999999999 -44.875 -0.78000000000000003 1 0 0 0 0 -1 -0 1 0 
1 10.039999999999999 -43.875 -0.78000000000000003 0 1 0 0 -0 1 1 0 -0 
1 10.744999999999999 -45.875 -0.78000000000000003 0 1 0 0 0 -1 -1 0 0 
Triangulations 1
3 1 1 0 0.000444444488866269
11.04 -45.875 -0.780333333399967 10.45 -45.875 -0.7795 11.04 -45.875 -0.780333333399967 -0.00700000000000001 -0.295 -0.000500000000000056 0.295 0.00633333333333477 -0.295 2 1 3 

TShapes 7
Ve
0.0133360008001
11.04 -43.875 -0.780333333399967
0 0

0101101
*
Ve
0.0133346673333667
11.04 -45.875 -0.780333333399967
0 0

0101101
*
Ed
 1e-07 1 1 0
1  1 0 0 2
4 CN 1 0 1 0
0

0101000
-7 0 +6 0 *
Ed
 1e-07 1 1 0
1  2 0 0 0.0133333333333
4 C0 1 0 2 0
0

0101000
+7 0 -7 0 *
Ed
 1e-07 1 1 0
1  3 0 0 0.0133333333333
4 C0 3 0 1 0
6  1 1 0
0

0101000
+6 0 -6 0 *
Wi

0101100
+5 0 -4 0 -5 0 +3 0 *
Fa
0  1e-07 1 0

0111000
+2 0 *

+1 0 