DBRep_DrawableShape

CASCADE Topology V3, (c) Open Cascade
Locations 0
Curve2ds 3
7 0 0  1 2 2  6.3151499829476041 0.0043251650406617159  6.3267469865208064 0.074325165036391638 
 0 2 0.070003533093327408 2
7 0 0  1 2 2  0.3188953837702227 0.0043251650406617159  0.33195879707708503 0.074325165036391638 
 0 2 0.070003533093327408 2
7 0 0  1 2 2  0.3188953837702227 0.0043251650406617159  0.33195879713854359 0.074325165036334795 
 0 2 1 2
Curves 2
1 27.864985626229998 30.234944291630001 -1.2894951585979999 0.71173960002710779 0.70240258659800781 0.0075728524137690838 
7 0 0  3 4 2  27.864985626229998 30.234944291630001 -1.2894951585979999  27.88148478446 30.251443449859998 -1.2894951585979999  27.898310754650002 30.267615796120001 -1.288965032174  27.914809912879999 30.284114954340001 -1.288965032173 
 0 4 1 4
Polygon3D 0
PolygonOnTriangulations 2
3 3 8 9 
p 0.0166666666666667 1 0 0.0233345110311091 0.0700035330933274 
3 3 4 5 
p 0.0166666666666667 1 0 0.5 1 
Surfaces 3
2 27.89543096928 30.198382241520001 -1.3051387818860001 0.70710678118654757 0.70710678118654757 0 -0.70710678118654757 0.70710678118654757 0 0 -0 1 0.049999999997409998
2 27.89543096928 30.198382241520001 -1.291010205144 0.70710678118654757 0.70710678118654757 0 -0.70710678118654757 0.70710678118654757 0 0 -0 1 0.049999999997409998
1 27.902024856720001 30.247402535820001 -1.26 0.58834840544078626 -0.58834840538788624 -0.55470019622568711 0.39223227032619196 -0.39223227022719187 0.83205029433753841 -0.70710678113708214 -0.707106781236013 3.7497446744678548e-11 
Triangulations 2
13 11 1 0 0.0061305886778066
27.87475387122 30.22517604664 -1.327916992568 27.92677359406 30.27215127316 -1.331010205143 27.86498562623 30.23494429163 -1.289495158598 27.8653030651397 30.2346268527203 -1.29524109107097 27.8653447680352 30.2345851498248 -1.30829125811574 27.8664836173166 30.2334463005434 -1.31384120369356 27.8712168443699 30.2287130734901 -1.32225815062419 27.8815937217781 30.2513345125353 -1.28931844978981 27.91480991288 30.28411495434 -1.288965032173 27.9183285585385 30.2805963086907 -1.31918361534236 27.9161812566296 30.2827436105992 -1.31422507611891 27.9151679849688 30.2837568822551 -1.30294073285202 27.9151233239975 30.2838015432233 -1.29438189615531 5.45043204563388 0.00432516504066172 5.40310822330548 0.0743251650363348 6.3151499829476 0.00432516504066172 6.2354702691822 0.00432516504066172 6.03022644110565 0.00432516504066172 5.88279101429074 0.00432516504066172 5.61893797026677 0.00432516504066172 6.31901565080534 0.0276584983725717 6.3267469865377 0.0743251650363348 5.81361434029758 0.0743251650363348 5.95044971262828 0.0743251650363348 6.13859834958299 0.0743251650363348 6.25311197203821 0.0743251650363348 7 2 1 10 7 6 10 2 7 11 6 5 11 10 6 12 5 4 12 11 5 8 4 3 13 12 4 13 4 8 9 13 8 
6 4 1 0 0.00164265338720065
27.88548033621 30.21444958165 -1.242596227925 27.93497781089 30.26394705633 -1.242596227924 27.86498562623 30.23494429163 -1.289495158598 27.889897769555 30.2595296229888 -1.28923009538588 27.91480991288 30.28411495434 -1.288965032173 27.924893861885 30.274031005335 -1.26578063004887 0.0209167308612822 0.034999999999301 0.0209167308670166 -0.0349999999963725 -0.0341829114575386 0.0349999999955167 -0.0338341793319452 -4.94722762756095e-12 -0.0334854472027871 -0.0350000000001055 -0.00628435816819705 -0.034999999998239 4 5 6 1 3 4 1 6 2 1 4 6 

TShapes 6
Ve
0.00724753242898528
27.91480991288 30.28411495434 -1.288965032173
0 0

0101101
*
Ve
0.005019620461727
27.86498562623 30.23494429163 -1.289495158598
0 0

0101101
*
Ed
 0.00303627754893327 1 1 0
1  1 0 0 0.0700035330933274
2  1 2 0 0 0.0700035330933274
2  2 1 0 0 0.0700035330933274
4 C0 2 0 1 0
6  1 1 0
0

0101000
-6 0 +5 0 *
Ed
 0.00198930343391261 1 1 0
1  2 0 0 1
2  3 1 0 0 1
4 C0 1 0 3 0
6  2 2 0
0

0101000
+5 0 -6 0 *
Wi

0101100
-4 0 +3 0 *
Fa
0  1e-07 1 0

0111000
+2 0 *

-1 0 