DBRep_DrawableShape

CASCADE Topology V3, (c) Open Cascade
Locations 0
Curve2ds 3
7 0 0  1 2 2  8.9446614479832789 0.025614847071000924  9.2658313381736441 0.025614847071000924 
 0.50000000039919879 2 1 2
7 0 0  1 2 2  8.7171935239874543 0.025614847071000924  6.1242386845838048 0.025614847071000924 
 5.8282811255397267 2 6.376918939725944 2
7 0 0  1 2 2  8.944661447983151 0.025614847071000924  8.7171935239874543 0.025614847071000924 
 5.8282811255397267 2 6.05574904953549 2
Curves 2
7 0 0  3 5 3  72.430993420850001 68.385000000040009 4.9875000000000007  72.435112241430005 68.389815434889996 4.9875000000000007  72.443463231229998 68.401661647660006 4.9875000000000007  72.452737741860005 68.422108262409992 4.9875000000000007  72.455768645999996 68.433846903679992 4.9875000000000007 
 0 4 0.5 1 1 4
2 72.355000000090001 68.450000000040006 4.9875000000000007 0 0 1 0.96824583655185081 -0.25000000000001316 0 0.25000000000001316 0.96824583655185081 -0 0.10000000000000001
Polygon3D 0
PolygonOnTriangulations 3
5 64 68 69 70 71 
p 0.05 1 0.500000000399199 0.680000000255487 0.825800000139081 0.91290000006954 1 
8 53 72 73 74 75 76 77 71 
p 0.05 1 5.82828112553973 5.90665795613776 5.98503478673579 6.06341161733382 6.14178844793185 6.22016527852988 6.29854210912791 6.37691893972594 
4 53 62 63 64 
p 0.05 1 5.82828112553973 5.90410376687165 5.97992640820357 6.05574904953549 
Surfaces 2
2 72.355000000090001 68.450000000040006 4.9618851529289998 0 0 1 -1 0 0 0 -1 0 0.10000000000000001
1 72.565000000089995 68.600000000039998 4.9875000000000007 0 0 1 0 -1 0 1 0 -0 
Triangulations 1
77 69 1 0 0.00102754775743066
72.455768646 68.43384690368 4.9875 72.4546773197493 68.4419730488413 4.9875 72.4549998442757 68.4498234700796 4.9875 72.4547050384072 68.4576749810928 4.9875 72.4537947220728 68.4654791120412 4.9875 72.4522745149406 68.4731876855776 4.9875 72.4501538017259 68.4807531142601 4.9875 72.4474456742565 68.4881286943254 4.9875 72.4441668506523 68.4952688940048 4.9875 72.4403375721197 68.5021296346069 4.9875 72.4359814779957 68.5086685626286 4.9875 72.4311254598153 68.5148453112168 4.9875 72.4257994953015 68.5206217493656 4.9875 72.4200364633032 68.525962217311 4.9875 72.413871940824 68.5308337466698 4.9875 72.4073439833943 68.5352062639637 4.9875 72.4004928901422 68.5390527762724 4.9875 72.3933609550147 68.5423495378692 4.9875 72.3859922056836 68.5450761968111 4.9875 72.3784321317492 68.5472159205773 4.9875 72.3707274039184 68.5487554999821 4.9875 72.3629255858922 68.5496854307192 4.9875 72.3550748407396 68.5499999720344 4.9875 72.3472236335723 68.5496971821656 4.9875 72.3394204323538 68.5487789303296 4.9875 72.3317134086923 68.5472508851829 4.9875 72.3241501404614 68.5451224798274 4.9875 72.3167773180876 68.5424068535767 4.9875 72.3096404563152 68.5391207708431 4.9875 72.3027836132299 68.5352845176459 4.9875 72.2962491182741 68.530921776379 4.9875 72.2900773109342 68.5260594796121 4.9875 72.2843062917122 68.520727643828 4.9875 72.2789716869194 68.5149591841207 4.9875 72.2741064287439 68.508789711001 4.9875 72.26974055195 68.5022573105608 4.9875 72.2659010084643 68.4954023093565 4.9875 72.2626115009924 68.4882670254601 4.9875 72.2598923366958 68.4808955072164 4.9875 72.257760301828 68.473333261319 4.9875 72.256228558109 68.4656269718832 4.9875 72.2553065614729 68.45782421225 4.9875 72.2550000036943 68.4499731513015 4.9875 72.2553107772502 68.4421222560986 4.9875 72.2562369636383 68.4343199926793 4.9875 72.2577728452193 68.4266145268622 4.9875 72.2599089405148 68.4190534269039 4.9875 72.2626320627386 68.4116833698456 4.9875 72.2659254012035 68.4045498533603 4.9875 72.2697686250983 68.3976969148822 4.9875 72.2741380089968 68.3911668597495 4.9875 72.2790065793222 68.38500000004 4.9875 72.43099342085 68.38500000004 4.9875 72.3862246116427 68.3549998756539 4.9875 72.3935276305723 68.3577198738512 4.9875 72.4005966616637 68.3610003121005 4.9875 72.4073887729412 68.3648212674881 4.9875 72.4138627142313 68.369159534406 4.9875 72.4199791676859 68.3739887654852 4.9875 72.425700986569 68.3792796316098 4.9875 72.46000000009 68.35499983115 4.9875 72.435698830319 68.3909432578367 4.9875 72.4399405185472 68.3972258745216 4.9875 72.4436941114481 68.4038117481743 4.9875 72.4341801992635 68.3889459185676 4.9875 72.437235933201 68.3931842095937 4.9875 72.4404960897714 68.398252505988 4.9875 72.4484570449175 68.413337155002 4.9875 72.4520934918769 68.4221563252346 4.9875 72.4540481702263 68.4278535965974 4.9875 72.455768646 68.43384690368 4.9875 72.4358494090151 68.391149570335 4.9875 72.4402089993019 68.3976604695368 4.9875 72.4440454247739 68.404492722129 4.9875 72.4473351306086 68.4116043795592 4.9875 72.4500579187245 68.41895177779 4.9875 72.4521970717915 68.4264898053862 4.9875 0.16615309635981 -0.109231354086358 0.158026951198731 -0.110322680340733 0.150176529960383 -0.110000155814242 0.142325018947236 -0.110294961682759 0.134520887998763 -0.111205278017213 0.126812314462442 -0.112725485149427 0.119246885779884 -0.114846198364082 0.111871305714629 -0.117554325833515 0.104731106035172 -0.120833149437672 0.0978703654330812 -0.124662427970308 0.0913314374114073 -0.129018522094297 0.0851546888232332 -0.133874540274677 0.0793782506744306 -0.139200504788523 0.0740377827290037 -0.144963536786834 0.0691662533701847 -0.151128059265976 0.0647937360762661 -0.157656016695683 0.0609472237675888 -0.164507109947777 0.0576504621707812 -0.171639045075322 0.0549238032289426 -0.179007794406421 0.0527840794627167 -0.186567868340844 0.0512445000578632 -0.194272596171588 0.0503145693208126 -0.20207441419779 0.0500000280056022 -0.209925159350367 0.0503028178744012 -0.217776366517742 0.051221069710404 -0.225579567736176 0.0527491148570916 -0.233286591397705 0.0548775202126261 -0.240849859628584 0.0575931464633458 -0.248222682002417 0.0608792291968688 -0.255359543774802 0.0647154823940677 -0.26221638686012 0.0690782236610261 -0.268750881815911 0.0739405204278828 -0.2749226891558 0.0792723562120307 -0.280693708377789 0.0850408159192759 -0.286028313170609 0.0912102890390356 -0.290893571346107 0.0977426894791864 -0.295259448139972 0.104597690683453 -0.299098991625751 0.111732974579886 -0.302388499097546 0.119104492823589 -0.305107663394246 0.126666738720964 -0.307239698262 0.134373028156801 -0.308771441981032 0.14217578778996 -0.309693438617055 0.150026848738521 -0.309999996395727 0.1578777439414 -0.309689222839752 0.165680007360713 -0.308763036451741 0.173385473177825 -0.30722715487069 0.180946573136051 -0.305091059575203 0.188316630194423 -0.302367937351353 0.195450146679699 -0.299074598886514 0.202303085157766 -0.295231374991719 0.208833140290529 -0.290861991093186 0.215000000000032 -0.285993420767822 0.214999999999989 -0.134006579232129 0.245000124386137 -0.178775388447273 0.242280126188799 -0.171472369517712 0.238999687939516 -0.16440333842627 0.23517873255191 -0.157611227148836 0.230840465633995 -0.151137285858705 0.226011234554779 -0.145020832404074 0.220720368430169 -0.13929901352101 0.245000168890002 -0.10499999999999 0.209056742203312 -0.129301169770975 0.20277412551836 -0.125059481542823 0.196188251865661 -0.121305888641939 0.211054081472426 -0.130819800826454 0.206815790446342 -0.127764066889002 0.201747494051979 -0.124503910318563 0.186662845038011 -0.116542955172454 0.177843674805401 -0.112906508213061 0.172146403442607 -0.110951829863692 0.165827819550326 -0.111260544217194 0.208850429704998 -0.129150591074897 0.202339530503221 -0.124791000788038 0.195507277911029 -0.120954575316133 0.188395620480763 -0.117664869481333 0.181048222249998 -0.114942081365534 0.173510194653811 -0.112802928298522 1 2 71 70 1 71 61 55 54 61 56 55 61 57 56 61 58 57 61 59 58 61 60 59 62 53 65 52 53 51 51 53 50 50 53 49 49 53 48 48 53 47 47 53 46 46 53 45 45 53 44 44 53 43 43 53 42 42 53 41 41 53 40 40 53 39 39 53 38 38 53 37 37 53 36 36 53 35 35 53 72 35 72 73 35 73 64 35 64 34 34 64 33 33 64 32 32 64 31 31 64 30 30 64 29 29 64 28 28 64 27 27 64 26 26 64 25 25 64 24 24 64 23 23 64 22 22 64 21 21 64 20 20 64 19 19 64 18 18 64 17 15 68 14 14 68 13 13 68 12 12 68 11 11 68 10 10 68 9 9 68 8 8 68 7 7 68 6 6 68 5 5 68 4 4 68 3 3 68 2 2 68 71 53 60 61 61 1 70 61 70 69 61 69 68 68 64 61 15 16 17 15 17 68 68 17 64 

TShapes 8
Ve
0.200001999999999
72.4436941114481 68.4038117481743 4.9875
0 0

0101101
*
Ve
0.202055115720381
72.455768646 68.43384690368 4.9875
0 0

0101101
*
Ed
 0.00205511606582826 1 1 0
1  1 0 0.500000000399199 1
2  1 1 0 0.500000000399199 1
4 C0 2 0 1 0
6  1 1 0
0

0101000
+8 0 -7 0 *
Ve
0.200001999999999
72.43099342085 68.38500000004 4.9875
0 0

0101101
*
Ed
 0.200001999999999 1 1 0
1  2 0 5.82828112553973 6.37691893972594
2  2 1 0 5.82828112553973 6.37691893972594
4 C0 2 0 1 0
6  2 1 0
0

0101000
+5 0 -7 0 *
Ed
 0.200001999999999 1 1 0
1  2 0 5.82828112553973 6.05574904953549
2  3 1 0 5.82828112553973 6.05574904953549
4 C0 2 0 1 0
6  3 1 0
0

0101000
+8 0 -5 0 *
Wi

0101100
+6 0 -4 0 -3 0 *
Fa
0  1e-07 1 0

0111000
+2 0 *

+1 0 