DBRep_DrawableShape

CASCADE Topology V3, (c) Open Cascade
Locations 0
Curve2ds 3
7 0 0  1 2 2  6.3151499829442859 0.004325165031701772  6.32674698652073 0.074325165031634555 
 0 2 0.070003533097541135 2
7 0 0  1 2 2  0.31889538373928894 0.004325165031701772  0.33195879706163733 0.074325165031634555 
 0 2 0.070003533097541135 2
7 0 0  1 2 2  0.31889538373928894 0.004325165031701772  0.33195879708061216 0.074325165031616791 
 0 2 1 2
Curves 2
1 -32.135014373769998 1.7349442916290001 -1.2894951586059999 0.71173960004587677 0.70240258657897703 0.0075728524149307527 
7 0 0  3 4 2  -32.135014373769998 1.7349442916290001 -1.2894951586059999  -32.11851521554 1.751443449857 -1.2894951586059999  -32.101689245350002 1.767615796117 -1.288965032181  -32.085190087119997 1.7841149543449999 -1.288965032181 
 0 4 1 4
Polygon3D 0
PolygonOnTriangulations 2
3 3 8 9 
p 0.0166666666666667 1 0 0.0233345110325137 0.0700035330975411 
3 4 5 1 
p 0.0166666666666667 1 0 0.5 1 
Surfaces 3
2 -32.104569030710003 1.698382241522 -1.3051387818939999 0.70710678118304759 0.70710678119004766 0 -0.70710678119004766 0.70710678118304759 0 0 -0 1 0.050000000002889997
2 -32.104569030710003 1.698382241522 -1.291010205152 0.70710678118304759 0.70710678119004766 0 -0.70710678119004766 0.70710678118304759 0 0 -0 1 0.050000000002889997
1 -32.097975143280003 1.7474025358259999 -1.260000000007 -0.58834840540551536 0.5883484054003153 0.5547001962499144 0.39223227031857322 -0.39223227026907326 0.83205029432138689 0.7071067811706554 0.70710678120243975 -2.7083586085122792e-11 
Triangulations 2
13 11 1 0 0.00613058867537779
-32.12524612878 1.725176046638 -1.327916992579 -32.07322640595 1.772151273169 -1.331010205155 -32.13501437377 1.734944291629 -1.289495158606 -32.1346969348605 1.73462685271913 -1.29524109107101 -32.1346552319646 1.7345851498248 -1.30829125812712 -32.1335163826834 1.73344630054428 -1.31384120370162 -32.1287831555696 1.72871307342924 -1.3222581507363 -32.1184062782204 1.75133451253479 -1.28931844979778 -32.08519008712 1.784114954345 -1.288965032181 -32.0816714414615 1.78059630868952 -1.31918361534455 -32.0838187433704 1.78274361059711 -1.31422507612198 -32.0848320150312 1.78375688225505 -1.30294073285721 -32.0848766760025 1.78380154322614 -1.29438189616271 5.45043204565597 0.00432516503092728 5.40310822341625 0.0743251650315422 6.31514998294429 0.00432516503170177 6.23547026929292 0.00432516503163041 6.03022644105029 0.00432516503144658 5.88279101430013 0.00432516503131453 5.61893796750022 0.0043251650310782 6.3190156508031 0.0276584983650127 6.32674698652952 0.0743251650316168 5.81361434035548 0.0743251650315753 5.95044971266856 0.0743251650315864 6.13859834959904 0.0743251650316016 6.2531119720305 0.0743251650316108 7 2 1 10 7 6 10 2 7 11 6 5 11 10 6 12 5 4 12 11 5 8 4 3 13 12 4 13 4 8 9 13 8 
6 4 1 0 0.00164265338985277
-32.08519008712 1.784114954345 -1.288965032181 -32.075106138115 1.774031005338 -1.2657806300565 -32.06502218911 1.763947056331 -1.242596227932 -32.13501437377 1.734944291629 -1.289495158606 -32.110102230445 1.759529622987 -1.2892300953935 -32.11451966379 1.714449581649 -1.242596227932 -0.0334854472043912 0.0349999999982994 -0.00628435816873526 0.0349999999959357 0.0209167308682694 0.03499999999357 -0.0341829114543392 -0.0350000000015408 -0.0338341793293675 -1.64915386902107e-12 0.0209167308648635 -0.0350000000035159 6 5 4 2 1 5 2 5 6 3 2 6 

TShapes 6
Ve
0.00724753242503189
-32.08519008712 1.784114954345 -1.288965032181
0 0

0101101
*
Ve
0.00501962046098308
-32.13501437377 1.734944291629 -1.289495158606
0 0

0101101
*
Ed
 0.00303627755173384 1 1 0
1  1 0 0 0.0700035330975411
2  1 2 0 0 0.0700035330975411
2  2 1 0 0 0.0700035330975411
4 C0 2 0 1 0
6  1 1 0
0

0101000
-6 0 +5 0 *
Ed
 0.0019893034348548 1 1 0
1  2 0 0 1
2  3 1 0 0 1
4 C0 1 0 3 0
6  2 2 0
0

0101000
+5 0 -6 0 *
Wi

0101100
-4 0 +3 0 *
Fa
0  1e-07 1 0

0111000
+2 0 *

-1 0 