DBRep_DrawableShape

CASCADE Topology V3, (c) Open Cascade
Locations 0
Curve2ds 2
7 0 0  3 4 2  6.5625238436952831 0.080577838867725418  6.562523843627317 0.080577842459811602  6.562414073182417 0.086379894169862734  6.562114174905088 0.10223138601999437 
 0.78867520000000002 4 0.99999999999998934 4
7 0 0  3 25 23  6.5621141749050889 0.10223138601999437  6.5620633150616534 0.10492041310541426  6.5619725439388645 0.10972007573776393  6.5618668682201715 0.11530880317870947  6.5617893069435871 0.11941117221994807  6.5617374998738995 0.12215159096941992  6.5617090897849542 0.1236544675349824  6.5617017223310121 0.1240442100245857  6.5617130451550976 0.12344522654610407  6.5617407073098057 0.12198192520745293  6.5617823586804933 0.11977871411654384  6.5618356495088568 0.11696000138126253  6.5618982299793744 0.113650195109517  6.5619677498910933 0.10997370340923693  6.562041858393199 0.10605493438828599  6.5621182038080468 0.10201829615459923  6.562194433513949 0.097988196816063036  6.5622681939204117 0.094089044480601819  6.5623371305039999 0.090445247256079039  6.5623988879234343 0.08718121325043604  6.5624511102152541 0.084421350571576917  6.5624914410741857 0.082290067327391456  6.5625175241047655 0.080911771625778645  6.5625238437691831 0.080577838258364745  6.5625238436952822 0.080577838867725404 
 0.99999999999998934 4 1.0358488727272626 1 1.0716977454545358 1 1.107546618181809 1 1.1433954909090822 1 1.1792443636363554 1 1.2150932363636286 1 1.2509421090909019 1 1.2867909818181751 1 1.3226398545454483 1 1.3584887272727215 1 1.3943375999999947 1 1.430186472727268 1 1.4660353454545412 1 1.5018842181818144 1 1.5377330909090876 1 1.5735819636363608 1 1.609430836363634 1 1.6452797090909073 1 1.6811285818181805 1 1.7169774545454537 1 1.7528263272727269 1 1.7886752000000001 4
Curves 1
7 0 1  3 3 2  49.645579615190002 56.894003488929997 -0.036212494815249997  49.645582451519999 56.969013576579997 -0.0361967373747  49.64557677885 56.818993401269999 -0.036228252255810001 
 0 3 1 3
Polygon3D 0
PolygonOnTriangulations 0
Surfaces 2
2 49.637039291359997 56.791772102910002 -0.040000000000000001 0 1 0 0.76718739504262401 -0 0.64142302803041995 0.64142302803041995 0 -0.76718739504262401 0.0099999999994510001
1 49.431405623019998 58.237500305220003 -1.2388576498849999 0.98418332397358166 0 -0.1771529983158967 0.1771529983158967 0 0.98418332397358166 0 -1 0 
Triangulations 0

TShapes 6
Ve
0.223934844534518
49.645131206742 56.7996772387699 -0.0341434137010824
0 0

0101101
*
Ve
0.121856481228811
49.64557961519 56.89400348893 -0.0362124948152504
0 0

0101101
*
Ed
 0.00226574626660174 1 1 0
1  1 0 0.7886752 0.999999999999989
2  1 1 0 0.7886752 0.999999999999989
4 C0 2 0 1 0
0

0101000
+6 0 -5 0 *
Ed
 0.00226574626959051 1 1 0
1  1 0 0.999999999999989 1.7886752
2  2 1 0 0.999999999999989 1.7886752
4 C0 2 0 1 0
0

0101000
+5 0 -6 0 *
Wi

0101100
+4 0 +3 0 *
Fa
0  1e-07 1 0

0111000
+2 0 *

+1 0 