DBRep_DrawableShape

CASCADE Topology V3, (c) Open Cascade
Locations 0
Curve2ds 8
7 0 0  1 2 2  6.1242386845838048 0.025614847071000924  6.9907697439053473 0.025614847071000924 
 0.093733632546357706 2 4.1018573454576996 2
1 2.888912398447701 0.025614847071000924 1 0 
1 2.8889123984476797 0.025614847071000924 1 0 
1 2.888912398447701 0.025614847071000924 1 0 
1 8.717193523992993 1.3063572006010009 -4.3273600842926761e-12 -1 
1 9.4247779607709425 1.3063572006038138 -1 8.786582370594925e-13 
1 0 0 0 1 
7 0 0  1 2 2  9.4247779607693793 1.3063572006099999  9.2658313382184723 0.025614847070958291 
 0 2 1.2808444439068958 2
Curves 4
2 72.355000000090001 68.450000000040006 4.9875000000000007 0 0 1 0.96824583655185081 -0.25000000000001316 0 0.25000000000001316 0.96824583655185081 -0 0.10000000000000001
1 72.430993420850001 68.385000000040009 6.2682423535300007 -1.5118020807310002e-12 7.2122668071570004e-13 -1 
2 72.355000000090001 68.450000000040006 6.2682423535380005 -5.1868459896170002e-11 9.5999874740689997e-12 -1 1 1.5099033135369888e-12 -5.1868459896155507e-11 1.5099033130390523e-12 -1 -9.5999874741473153e-12 0.099999999996929989
1 72.455000000089996 68.450000000040006 6.2682423535389997 0.00060010871696008887 -0.012611286587659766 -0.99992029448358122 
Polygon3D 0
PolygonOnTriangulations 7
52 1 2 3 4 5 6 7 8 9 10 11 12 13 14 15 16 17 18 19 20 21 22 23 24 25 26 27 28 29 30 31 32 33 34 35 36 37 38 39 40 41 42 43 44 45 46 47 48 49 50 51 52 
p 0.05 1 0.0937336325463577 0.172324293583835 0.250914954621312 0.32950561565879 0.408096276696267 0.486686937733744 0.565277598771222 0.643868259808699 0.722458920846176 0.801049581883653 0.879640242921131 0.958230903958608 1.03682156499609 1.11541222603356 1.19400288707104 1.27259354810852 1.35118420914599 1.42977487018347 1.50836553122095 1.58695619225843 1.6655468532959 1.74413751433338 1.82272817537086 1.90131883640834 1.97990949744581 2.05850015848329 2.13709081952077 2.21568148055825 2.29427214159572 2.3728628026332 2.45145346367068 2.53004412470815 2.60863478574563 2.68722544678311 2.76581610782059 2.84440676885806 2.92299742989554 3.00158809093302 3.0801787519705 3.15876941300797 3.23736007404545 3.31595073508293 3.39454139612041 3.47313205715788 3.55172271819536 3.63031337923284 3.70890404027032 3.78749470130779 3.86608536234527 3.94467602338275 4.02326668442022 4.1018573454577 
8 4 5 6 7 8 9 10 3 
p 0.05 1 4.1018573454577 4.17980795088813 4.25775855631856 4.33570916174899 4.41365976717943 4.49161037260986 4.56956097804029 4.64751158347072 
9 1 2 3 4 5 6 7 8 9 
p 0.05 1 4.64751158347072 4.72690084569308 4.80629010791543 4.88567937013778 4.96506863236014 5.04445789458249 5.12384715680485 5.2032364190272 5.28262568124956 
8 54 55 56 57 58 59 60 53 
p 0.05 1 5.28262568124956 5.3605764590134 5.43852723677723 5.51647801454107 5.59442879230491 5.67237957006874 5.75033034783258 5.82828112559642 
2 9 1 
p 0.05 1 0 1.28074235353 
10 1 2 3 4 5 6 7 8 9 10 
p 0.05 1 0 0.0786204929753219 0.157240985950644 0.235861478925966 0.314481971901287 0.393102464876609 0.471722957851931 0.550343450827253 0.628963943802575 0.707584436777897 
2 3 4 
p 0.05 1 0 1.2808444439069 
Surfaces 5
2 72.355000000090001 68.450000000040006 4.9618851529289998 0 0 1 -1 0 0 0 -1 0 0.10000000000000001
1 72.565000000089995 68.600000000039998 4.9875000000000007 0 0 1 0 -1 0 1 0 -0 
1 72.352996710469995 68.385000000040009 5.8375000816080007 0 1 0 0 0 -1 -1 0 0 
5 72.255000000090007 68.450000000040006 6.2682423535430001 -4.6999737435270002e-11 -1 -9.5999874716309995e-12 1 -4.6999737434771283e-11 -5.1949936286849997e-11 5.1949936286398803e-11 -9.5999874740726331e-12 1 0.10000000000000001 0.099999999996929989
1 72.455000000079991 68.600000000039998 5.6278711767710003 1 2.5381911702459999e-11 0 0 -0 1 2.5381911702459999e-11 -1 -0 
Triangulations 6
77 69 1 0 0.00102754775743066
72.455768646 68.43384690368 4.9875 72.4546773197493 68.4419730488413 4.9875 72.4549998442757 68.4498234700796 4.9875 72.4547050384072 68.4576749810928 4.9875 72.4537947220728 68.4654791120412 4.9875 72.4522745149406 68.4731876855776 4.9875 72.4501538017259 68.4807531142601 4.9875 72.4474456742565 68.4881286943254 4.9875 72.4441668506523 68.4952688940048 4.9875 72.4403375721197 68.5021296346069 4.9875 72.4359814779957 68.5086685626286 4.9875 72.4311254598153 68.5148453112168 4.9875 72.4257994953015 68.5206217493656 4.9875 72.4200364633032 68.525962217311 4.9875 72.413871940824 68.5308337466698 4.9875 72.4073439833943 68.5352062639637 4.9875 72.4004928901422 68.5390527762724 4.9875 72.3933609550147 68.5423495378692 4.9875 72.3859922056836 68.5450761968111 4.9875 72.3784321317492 68.5472159205773 4.9875 72.3707274039184 68.5487554999821 4.9875 72.3629255858922 68.5496854307192 4.9875 72.3550748407396 68.5499999720344 4.9875 72.3472236335723 68.5496971821656 4.9875 72.3394204323538 68.5487789303296 4.9875 72.3317134086923 68.5472508851829 4.9875 72.3241501404614 68.5451224798274 4.9875 72.3167773180876 68.5424068535767 4.9875 72.3096404563152 68.5391207708431 4.9875 72.3027836132299 68.5352845176459 4.9875 72.2962491182741 68.530921776379 4.9875 72.2900773109342 68.5260594796121 4.9875 72.2843062917122 68.520727643828 4.9875 72.2789716869194 68.5149591841207 4.9875 72.2741064287439 68.508789711001 4.9875 72.26974055195 68.5022573105608 4.9875 72.2659010084643 68.4954023093565 4.9875 72.2626115009924 68.4882670254601 4.9875 72.2598923366958 68.4808955072164 4.9875 72.257760301828 68.473333261319 4.9875 72.256228558109 68.4656269718832 4.9875 72.2553065614729 68.45782421225 4.9875 72.2550000036943 68.4499731513015 4.9875 72.2553107772502 68.4421222560986 4.9875 72.2562369636383 68.4343199926793 4.9875 72.2577728452193 68.4266145268622 4.9875 72.2599089405148 68.4190534269039 4.9875 72.2626320627386 68.4116833698456 4.9875 72.2659254012035 68.4045498533603 4.9875 72.2697686250983 68.3976969148822 4.9875 72.2741380089968 68.3911668597495 4.9875 72.2790065793222 68.38500000004 4.9875 72.43099342085 68.38500000004 4.9875 72.3862246116427 68.3549998756539 4.9875 72.3935276305723 68.3577198738512 4.9875 72.4005966616637 68.3610003121005 4.9875 72.4073887729412 68.3648212674881 4.9875 72.4138627142313 68.369159534406 4.9875 72.4199791676859 68.3739887654852 4.9875 72.425700986569 68.3792796316098 4.9875 72.46000000009 68.35499983115 4.9875 72.435698830319 68.3909432578367 4.9875 72.4399405185472 68.3972258745216 4.9875 72.4436941114481 68.4038117481743 4.9875 72.4341801992635 68.3889459185676 4.9875 72.437235933201 68.3931842095937 4.9875 72.4404960897714 68.398252505988 4.9875 72.4484570449175 68.413337155002 4.9875 72.4520934918769 68.4221563252346 4.9875 72.4540481702263 68.4278535965974 4.9875 72.455768646 68.43384690368 4.9875 72.4358494090151 68.391149570335 4.9875 72.4402089993019 68.3976604695368 4.9875 72.4440454247739 68.404492722129 4.9875 72.4473351306086 68.4116043795592 4.9875 72.4500579187245 68.41895177779 4.9875 72.4521970717915 68.4264898053862 4.9875 0.16615309635981 -0.109231354086358 0.158026951198731 -0.110322680340733 0.150176529960383 -0.110000155814242 0.142325018947236 -0.110294961682759 0.134520887998763 -0.111205278017213 0.126812314462442 -0.112725485149427 0.119246885779884 -0.114846198364082 0.111871305714629 -0.117554325833515 0.104731106035172 -0.120833149437672 0.0978703654330812 -0.124662427970308 0.0913314374114073 -0.129018522094297 0.0851546888232332 -0.133874540274677 0.0793782506744306 -0.139200504788523 0.0740377827290037 -0.144963536786834 0.0691662533701847 -0.151128059265976 0.0647937360762661 -0.157656016695683 0.0609472237675888 -0.164507109947777 0.0576504621707812 -0.171639045075322 0.0549238032289426 -0.179007794406421 0.0527840794627167 -0.186567868340844 0.0512445000578632 -0.194272596171588 0.0503145693208126 -0.20207441419779 0.0500000280056022 -0.209925159350367 0.0503028178744012 -0.217776366517742 0.051221069710404 -0.225579567736176 0.0527491148570916 -0.233286591397705 0.0548775202126261 -0.240849859628584 0.0575931464633458 -0.248222682002417 0.0608792291968688 -0.255359543774802 0.0647154823940677 -0.26221638686012 0.0690782236610261 -0.268750881815911 0.0739405204278828 -0.2749226891558 0.0792723562120307 -0.280693708377789 0.0850408159192759 -0.286028313170609 0.0912102890390356 -0.290893571346107 0.0977426894791864 -0.295259448139972 0.104597690683453 -0.299098991625751 0.111732974579886 -0.302388499097546 0.119104492823589 -0.305107663394246 0.126666738720964 -0.307239698262 0.134373028156801 -0.308771441981032 0.14217578778996 -0.309693438617055 0.150026848738521 -0.309999996395727 0.1578777439414 -0.309689222839752 0.165680007360713 -0.308763036451741 0.173385473177825 -0.30722715487069 0.180946573136051 -0.305091059575203 0.188316630194423 -0.302367937351353 0.195450146679699 -0.299074598886514 0.202303085157766 -0.295231374991719 0.208833140290529 -0.290861991093186 0.215000000000032 -0.285993420767822 0.214999999999989 -0.134006579232129 0.245000124386137 -0.178775388447273 0.242280126188799 -0.171472369517712 0.238999687939516 -0.16440333842627 0.23517873255191 -0.157611227148836 0.230840465633995 -0.151137285858705 0.226011234554779 -0.145020832404074 0.220720368430169 -0.13929901352101 0.245000168890002 -0.10499999999999 0.209056742203312 -0.129301169770975 0.20277412551836 -0.125059481542823 0.196188251865661 -0.121305888641939 0.211054081472426 -0.130819800826454 0.206815790446342 -0.127764066889002 0.201747494051979 -0.124503910318563 0.186662845038011 -0.116542955172454 0.177843674805401 -0.112906508213061 0.172146403442607 -0.110951829863692 0.165827819550326 -0.111260544217194 0.208850429704998 -0.129150591074897 0.202339530503221 -0.124791000788038 0.195507277911029 -0.120954575316133 0.188395620480763 -0.117664869481333 0.181048222249998 -0.114942081365534 0.173510194653811 -0.112802928298522 1 2 71 70 1 71 61 55 54 61 56 55 61 57 56 61 58 57 61 59 58 61 60 59 62 53 65 52 53 51 51 53 50 50 53 49 49 53 48 48 53 47 47 53 46 46 53 45 45 53 44 44 53 43 43 53 42 42 53 41 41 53 40 40 53 39 39 53 38 38 53 37 37 53 36 36 53 35 35 53 72 35 72 73 35 73 64 35 64 34 34 64 33 33 64 32 32 64 31 31 64 30 30 64 29 29 64 28 28 64 27 27 64 26 26 64 25 25 64 24 24 64 23 23 64 22 22 64 21 21 64 20 20 64 19 19 64 18 18 64 17 15 68 14 14 68 13 13 68 12 12 68 11 11 68 10 10 68 9 9 68 8 8 68 7 7 68 6 6 68 5 5 68 4 4 68 3 3 68 2 2 68 71 53 60 61 61 1 70 61 70 69 61 69 68 68 64 61 15 16 17 15 17 68 68 17 64 
17 15 1 0 2.8421709430404e-14
72.25500000009 68.40500006148 4.9875 72.25000000009 68.35499995782 4.9875 72.3237752739355 68.3549999133212 4.9875 72.2790065793222 68.38500000004 4.9875 72.2842990014236 68.3792796437939 4.9875 72.2900208062956 68.3739887878814 4.9875 72.2961372441542 68.369159564838 4.9875 72.3026111685223 68.3648213036014 4.9875 72.3094032618283 68.3610003513896 4.9875 72.3164722741901 68.3577199136888 4.9875 72.27500000009 68.38500000004 4.9875 72.2555014301279 68.4005496327034 4.9875 72.2569806036907 68.3963223647973 4.9875 72.2593633485508 68.3925302314518 4.9875 72.2625301834661 68.389363386808 4.9875 72.2663223094918 68.3869806302985 4.9875 72.2705495728538 68.3855014437495 4.9875 0.194999938560011 -0.309999999999903 0.245000042219999 -0.314999999999998 0.245000086718782 -0.241224726154499 0.215000000000032 -0.285993420767822 0.220720356246065 -0.280700998666419 0.226011212158648 -0.274979193794417 0.23084043520198 -0.268862755935768 0.235178696438576 -0.262388831567657 0.238999648650368 -0.255596738261748 0.242280086351184 -0.248527725899894 0.214999999999998 -0.289999999999992 0.199450367336631 -0.309498569962151 0.203677635242675 -0.308019396399294 0.207469768588173 -0.305636651539162 0.210636613231972 -0.302469816623893 0.213019369741522 -0.298677690598202 0.214498556290535 -0.294450427236198 2 12 1 2 13 12 2 14 13 2 15 14 2 16 15 2 17 16 5 4 11 5 11 17 5 17 2 6 5 2 7 6 2 8 7 2 9 8 2 10 9 2 2 3 10 
9 7 1 0 1.4210854715202e-14
72.3237752739355 68.3549999133212 4.9875 72.331407688471 68.3528228276564 4.9875 72.3391887191252 68.3512578945619 4.9875 72.3470693504989 68.3503149720917 4.9875 72.3549999397733 68.35000000004 4.9875 72.3629305294277 68.3503149625247 4.9875 72.3708111619389 68.3512578754883 4.9875 72.378592194481 68.3528227991963 4.9875 72.3862246116427 68.3549998756539 4.9875 0.245000086718782 -0.241224726154499 0.247177172383588 -0.233592311619043 0.248742105478121 -0.22581128096478 0.249685027948349 -0.217930649591084 0.249999999999981 -0.210000060316658 0.249685037515283 -0.202069470662277 0.248742124551724 -0.194188838151108 0.247177200843708 -0.186407805609019 0.245000124386139 -0.178775388447278 9 1 2 9 2 3 9 3 4 9 4 5 9 5 6 9 6 7 9 7 8 
9 7 1 0 4.5661621405892e-12
72.43099342085 68.38500000004 4.9875 72.2790065793222 68.38500000004 4.9875 72.27500000009 68.38500000004 4.9875 72.27500000009 68.38500000004 6.6875001632 72.35279197337 68.38500000004 6.687500163214 72.42775992601 68.38500000004 6.301823481382 72.4295538565425 68.3850000000416 6.29070644380155 72.4306331610523 68.3850000000416 6.27949743790495 72.43099342085 68.38500000004 6.26824235353 0.850000081608 -0.0779967103780699 0.850000081608 0.0739901311478216 0.850000081608 0.0779967103800274 -0.850000081592645 0.0779967103799919 -0.850000081605999 0.00020473709999181 -0.46432339977936 -0.0747632155468806 -0.453206362193555 -0.0765571460724952 -0.441997356296953 -0.077636450582304 -0.430742271922 -0.0779967103800061 6 4 5 9 6 7 9 7 8 9 4 6 2 9 1 3 9 2 3 4 9 
40 54 1 0 0.000179586311550021
72.45500000009 68.45000000004 6.268242353539 72.4546911001542 68.4421460476995 6.26824235353275 72.4537663087395 68.4343406170659 6.26824235353273 72.4522313392029 68.4266319300791 6.26824235353273 72.4500956745841 68.4190676109972 6.26824235353277 72.4473725090163 68.4116943921731 6.26824235353284 72.4440786662126 68.4045578253429 6.26824235353294 72.4402344955295 68.3977020002068 6.26824235353308 72.4358637462483 68.3911692720433 6.26824235353324 72.43099342085 68.38500000004 6.26824235353 72.45132543678 68.45000000004 6.306404152618 72.4533640703953 68.4500000000304 6.29377068311409 72.4545905986403 68.4500000000305 6.28103270025881 72.4510222122057 68.4421460476993 6.30634521173212 72.450114411814 68.4343406170657 6.30616875321135 72.4486076439911 68.4266319300789 6.30587586721614 72.4465112175467 68.4190676109969 6.30546836319579 72.4438380842004 68.4116943921728 6.30494875870956 72.4406047585664 68.4045578253425 6.30432026387329 72.4368312161262 68.3977020002063 6.30358676152723 72.4325407698199 68.3911692720426 6.30275278324788 72.42775992601 68.38500000004 6.301823481382 72.4295538565425 68.3850000000416 6.29070644380155 72.4306331610523 68.3850000000416 6.27949743790495 72.4542823310277 68.4421460476902 6.28101294557253 72.4533594326674 68.434340617057 6.28095380355829 72.4530576971551 68.4421460476902 6.29373125461759 72.4518276052243 68.4266319300707 6.28085563959537 72.4521404702088 68.4343406170569 6.29361321271743 72.4496963123262 68.4190676109892 6.28071906014059 72.4506180561831 68.4266319300706 6.29341728667631 72.4469787210979 68.4116943921655 6.28054490898165 72.44849986055 68.4190676109891 6.29314468692504 72.4436916208142 68.4045578253357 6.28033426202416 72.4457989695191 68.4116943921655 6.29279709758453 72.4398553191763 68.3977020002 6.28008842064476 72.4425320691915 68.4045578253357 6.29237666606126 72.4354935168506 68.3911692720369 6.27980890365114 72.4387193424733 68.3977020002 6.2918859897806 72.4343843443848 68.3911692720369 6.29132810013996 3.19382298386017e-11 0 -1.03227858071799e-27 0.0786204929753219 -1.03227858071799e-27 0.157240985950644 -1.03227858071799e-27 0.235861478925966 -1.03227858071799e-27 0.314481971901287 -1.03227858071799e-27 0.393102464876609 -1.03227858071799e-27 0.471722957851931 -1.03227858071799e-27 0.550343450827253 -1.03227858071799e-27 0.628963943802575 -2.1657259319241e-11 0.70758443662864 0.191986217772381 0 0.127990811861687 0 0.0639954059468124 0 0.191986217772424 0.078620492971647 0.191986217772466 0.157240985943294 0.191986217772509 0.235861478914941 0.191986217772552 0.314481971886588 0.191986217772595 0.393102464858235 0.191986217772637 0.471722957829882 0.19198621777268 0.550343450801529 0.191986217772723 0.628963943773176 0.191986217972754 0.707584436629346 0.127990811974617 0.707584436629111 0.0639954059764798 0.707584436628875 0.0639954059468124 0.078620492971647 0.0639954059468124 0.157240985943294 0.127990811861687 0.078620492971647 0.0639954059468124 0.235861478914941 0.127990811861687 0.157240985943294 0.0639954059468124 0.314481971886588 0.127990811861687 0.235861478914941 0.0639954059468124 0.393102464858235 0.127990811861687 0.314481971886588 0.0639954059468124 0.471722957829882 0.127990811861687 0.393102464858235 0.0639954059468124 0.550343450801529 0.127990811861687 0.471722957829882 0.0639954059468124 0.628963943773176 0.127990811861687 0.550343450801529 0.127990811861687 0.628963943773176 24 10 9 22 23 21 25 2 1 25 1 13 26 3 2 26 2 25 27 12 11 27 13 12 27 11 14 27 25 13 28 4 3 28 3 26 29 14 15 29 25 27 29 26 25 29 27 14 30 5 4 30 4 28 31 15 16 31 28 26 31 26 29 31 29 15 32 6 5 32 5 30 33 16 17 33 28 31 33 31 16 33 30 28 34 7 6 34 6 32 35 17 18 35 33 17 35 30 33 35 32 30 36 8 7 36 7 34 37 18 19 37 35 18 37 34 32 37 32 35 38 9 8 38 24 9 38 8 36 39 19 20 39 34 37 39 36 34 39 37 19 40 20 21 40 23 24 40 21 23 40 39 20 40 24 38 40 38 36 40 36 39 
4 2 1 0 0.000256215308596097
72.45500000008 68.75000000005 6.268242353542 72.45500000008 68.75000000004 4.9875 72.45500000009 68.45000000004 6.268242353539 72.455768646 68.43384690368 4.9875 0.640371176771 -0.150000000009996 -0.640371176771 -0.150000000000006 0.640371176767999 0.149999999999991 -0.640371176771 0.16615309636002 3 2 1 3 4 2 

TShapes 16
Ve
0.202055115720381
72.455768646 68.43384690368 4.9875
0 0

0101101
*
Ve
0.200001999999999
72.2790065793222 68.38500000004 4.9875
0 0

0101101
*
Ed
 0.200001999999999 1 1 0
1  1 0 0.0937336325463577 4.1018573454577
2  1 1 0 0.0937336325463577 4.1018573454577
4 C0 2 0 1 0
6  1 1 0
0

0101000
+16 0 -15 0 *
Ve
1.24387391465607e-07
72.3237752739355 68.3549999133212 4.9875
0 0

0101101
*
Ed
 1e-07 1 1 0
1  1 0 4.1018573454577 4.64751158347072
2  2 1 0 4.1018573454577 4.64751158347072
4 C0 2 0 1 0
6  2 2 0
0

0101000
+15 0 -13 0 *
Ve
1.68886683727726e-07
72.3862246116427 68.3549998756539 4.9875
0 0

0101101
*
Ed
 1e-07 1 1 0
1  1 0 4.64751158347072 5.28262568124956
2  3 1 0 4.64751158347072 5.28262568124956
4 C0 2 0 1 0
6  3 3 0
0

0101000
+13 0 -11 0 *
Ve
0.200001999999999
72.43099342085 68.38500000004 4.9875
0 0

0101101
*
Ed
 1e-07 1 1 0
1  1 0 5.28262568124956 5.82828112559642
2  4 1 0 5.28262568124956 5.82828112559642
4 C0 2 0 1 0
6  4 1 0
0

0101000
+11 0 -9 0 *
Ve
1e-07
72.43099342085 68.38500000004 6.26824235353
0 0

0101101
*
Ed
 1e-07 1 1 0
1  2 0 0 1.28074235353
2  5 1 0 0 1.28074235353
4 C0 1 0 3 0
6  5 4 0
0

0101000
+7 0 -9 0 *
Ve
0.00205511607102476
72.45500000009 68.45000000004 6.268242353539
0 0

0101101
*
Ed
 1e-07 1 1 0
1  3 0 0 0.707584436777897
2  6 1 0 0 0.707584436777897
2  7 4 0 0 0.707584436777897
4 G1 1 0 4 0
6  6 5 0
0

0101000
+5 0 -7 0 *
Ed
 0.00205511607102476 1 1 0
1  4 0 0 1.2808444439069
2  8 1 0 0 1.2808444439069
4 C0 5 0 1 0
6  7 6 0
0

0101000
+5 0 -16 0 *
Wi

0101100
+14 0 +12 0 +10 0 +8 0 -6 0 -4 0 +3 0 *
Fa
0  1e-07 1 0

0111000
+2 0 *

+1 0 