DBRep_DrawableShape

CASCADE Topology V3, (c) Open Cascade
Locations 0
Curve2ds 2
7 0 0  3 4 2  6.5630806701751618 0.080577839024478237  6.5630806701071931 0.080577842615344245  6.5629708517932208 0.086379894315466235  6.5626708227352051 0.10223138613999792 
 0.78867520000000002 4 0.99999999999999745 4
7 0 0  3 25 23  6.5626708227352042 0.10223138613999794  6.5626199407222394 0.10492041322183727  6.5625291300277002 0.10972007584784227  6.5624234082299342 0.11530880328154519  6.5623458131303813 0.11941117231765834  6.5622939834681713 0.12215159106390205  6.5622655609964866 0.12365446762799819  6.5622581903399535 0.12404421011767824  6.5622695181189847 0.12344522664065442  6.5622971923573701 0.12198192530464294  6.5623388619135188 0.11977871421738485  6.5623921760028701 0.11696000148658132  6.5624547837823988 0.1136501952199616  6.562524334024098 0.10997370352524682  6.5625984748512183 0.10605493451016229  6.5626748535582173 0.10201829628242462  6.5627511164988235 0.09798819694975984  6.5628249090555295 0.094089044619886611  6.5628938756786734 0.090445247400521692  6.5629556600051018 0.087181213399397245  6.563007905042916 0.0844213507242286  6.5630482534630081 0.082290067482739718  6.5630743478443216 0.080911771782637296  6.5630806702531999 0.080577838415323844  6.5630806701751592 0.080577839024478237 
 0.99999999999999745 4 1.0358488727272703 1 1.0716977454545431 1 1.1075466181818161 1 1.1433954909090889 1 1.1792443636363616 1 1.2150932363636346 1 1.2509421090909074 1 1.2867909818181802 1 1.3226398545454532 1 1.358488727272726 1 1.3943375999999987 1 1.4301864727272717 1 1.4660353454545445 1 1.5018842181818173 1 1.5377330909090903 1 1.573581963636363 1 1.6094308363636358 1 1.6452797090909088 1 1.6811285818181816 1 1.7169774545454544 1 1.7528263272727274 1 1.7886752000000001 4
Curves 1
7 0 1  3 3 2  14.431581292920001 16.324503489049999 -0.78621743943599998  14.431584129279999 16.3995135766 -0.78620168185759998  14.43157845656 16.249493401510001 -0.78623319701439998 
 0 3 1 3
Polygon3D 0
PolygonOnTriangulations 0
Surfaces 2
2 14.42303929136 16.222272102910001 -0.79000000000000004 0 1 0 0.76718739504006983 -0 0.64142302803347484 0.64142302803347484 0 -0.76718739504006983 0.0099999999994790003
1 14.217405623019999 17.668000304549999 -1.9888576498849999 0.98418332397358166 0 -0.1771529983158967 0.1771529983158967 0 0.98418332397358166 0 -1 0 
Triangulations 0

TShapes 6
Ve
0.223935485690684
14.4311315369651 16.2301771335745 -0.784144387148934
0 0

0101101
*
Ve
0.121858367681875
14.43158129292 16.32450348905 -0.786217439436
0 0

0101101
*
Ed
 0.00226321909181335 1 1 0
1  1 0 0.7886752 0.999999999999997
2  1 1 0 0.7886752 0.999999999999997
4 C0 2 0 1 0
0

0101000
+6 0 -5 0 *
Ed
 0.00226321909298288 1 1 0
1  1 0 0.999999999999997 1.7886752
2  2 1 0 0.999999999999997 1.7886752
4 C0 2 0 1 0
0

0101000
+5 0 -6 0 *
Wi

0101100
+4 0 +3 0 *
Fa
0  1e-07 1 0

0111000
+2 0 *

+1 0 