DBRep_DrawableShape

CASCADE Topology V3, (c) Open Cascade
Locations 0
Curve2ds 3
7 0 0  1 2 2  2.8096338564597403 0.0043251650332565283  2.8052437886920099 0.074325165036002172 
 0 2 0.070000413606453399 2
7 0 0  1 2 2  2.8096338564597403 0.0043251650332565283  2.8052437886920099 0.074325165036002172 
 0 2 0.070000413606453399 2
7 0 0  1 2 2  6.3267469865736814 0.074325165029262008  6.3318127351696898 0.0043251650265139219 
 0 2 0.070000413606453399 2
Curves 2
1 31.728455725660002 -34.328385643520001 -1.288965032171 -0.70735035939671997 -0.7068548469690199 0.0034197043343350969 
1 31.728455725660002 -34.328385643520001 -1.288965032171 -0.70735035939671997 -0.7068548469690199 0.0034197043343340964 
Polygon3D 0
PolygonOnTriangulations 2
3 4 5 3 
p 0.0166666666666667 1 0 0.0233334712021511 0.0700004136064534 
3 7 8 3 
p 0.0166666666666667 1 0 0.0233334712021511 0.0700004136064534 
Surfaces 3
2 31.7646909638 -34.358504174609998 -1.3051387818860001 -0.70710678118154768 -0.70710678119154757 0 0.70710678119154757 -0.70710678118154768 0 0 0 1 0.050000000004729997
1 31.7156706695 -34.365098062050002 -1.2599999999980001 0.58834840543639533 -0.58834840538359534 -0.55470019623489553 -0.39223227023365326 0.39223227033275321 -0.83205029433139943 0.70710678119206682 0.70710678118102832 7.9015151467237235e-11 
2 31.709076782069999 -34.414118356339998 -1.291010205144 0.70710678118654757 0.70710678118654757 0 -0.70710678118654757 0.70710678118654757 0 0 -0 1 0.049999999997419997
Triangulations 2
6 4 1 0 0.00164071494291523
31.74862362368 -34.34855354154 -1.242596227922 31.69912614899 -34.39805101622 -1.242596227923 31.67894090794 -34.37786577517 -1.288725651453 31.72845572566 -34.32838564352 -1.288965032171 31.7119507864192 -34.3448790207359 -1.28888523859839 31.73853967467 -34.33846959253 -1.26578063004612 -0.0209167308660334 0.0350000000063767 -0.0209167308662057 -0.034999999996371 0.0332998754078681 -0.0350000000002305 0.0334854472115878 0.0350000000024891 0.0334235899436813 0.0116666666682492 0.00628435817246597 0.035000000004432 6 1 2 5 2 3 5 6 2 4 6 5 
12 10 1 0 0.00634153961956493
31.74041940684 -34.3403493247 -1.331010205149 31.688399684 -34.38732455123 -1.327916992569 31.67894090794 -34.37786577517 -1.288725651453 31.679172070703 -34.3780969379307 -1.29828668898226 31.6791047331955 -34.3780296004174 -1.30984925247177 31.6810004673104 -34.3799253345314 -1.31575188408246 31.72845572566 -34.32838564352 -1.288965032171 31.7119507864192 -34.3448790207359 -1.28888523859839 31.7319743713193 -34.3319042891793 -1.31918361534561 31.7298270694108 -34.3297569872708 -1.31422507612202 31.7288137977544 -34.3287437156144 -1.30294073285287 31.7287691367826 -34.3286990546426 -1.29438189616424 5.40310822317067 0.0743251650292589 5.45043204562035 0.00432516502651348 6.33181273516969 0.00432516502651392 6.19960563174366 0.00432516502651329 6.00800512274394 0.00432516502651334 5.825018838682 0.00432516502651338 6.32674698657368 0.074325165029262 6.32843556943902 0.0509918316950126 5.81361434023868 0.0743251650292603 5.95044971259468 0.0743251650292607 6.13859834958418 0.0743251650292614 6.25311197192776 0.0743251650292618 9 1 2 9 2 6 10 6 5 10 9 6 11 5 4 11 10 5 12 11 4 8 4 3 8 12 4 7 12 8 

TShapes 6
Ve
0.00724753243051465
31.72845572566 -34.32838564352 -1.288965032171
0 0

0101101
*
Ve
0.00556240310634378
31.67894090794 -34.37786577517 -1.288725651453
0 0

0101101
*
Ed
 0.00198930342839745 1 1 0
1  1 0 0 0.0700004136064534
2  1 1 0 0 0.0700004136064534
4 C0 2 0 1 0
6  1 1 0
0

0101000
+6 0 -5 0 *
Ed
 0.0030362775498455 1 1 0
1  2 0 0 0.0700004136064534
2  2 1 0 0 0.0700004136064534
2  3 3 0 0 0.0700004136064534
4 C0 1 0 3 0
6  2 2 0
0

0101000
+6 0 -5 0 *
Wi

0101100
-4 0 +3 0 *
Fa
0  1e-07 1 0

0111000
+2 0 *

-1 0 