DBRep_DrawableShape

CASCADE Topology V3, (c) Open Cascade
Locations 0
Curve2ds 3
7 0 0  1 2 2  2.8096338564597785 0.0043251650332578606  2.8052437886883905 0.07432516503600084 
 0 2 0.070000413606453427 2
7 0 0  1 2 2  6.3267469865736823 0.074325165029264895  6.331812735173787 0.0043251650265219155 
 0 2 0.070000413606453413 2
7 0 0  1 2 2  2.8096338564597785 0.0043251650332578606  2.8052437886884318 0.07432516503600084 
 0 2 0.070000413606453413 2
Curves 2
1 26.771544274339998 31.328385643520001 -1.288965032171 0.70735035939676338 0.70685484696896339 0.0034197043371008225 
1 26.771544274339998 31.328385643520001 -1.288965032171 0.70735035939681334 0.70685484696891332 0.0034197043371010645 
Polygon3D 0
PolygonOnTriangulations 2
3 1 4 5 
p 0.0166666666666667 1 0 0.0233334712021511 0.0700004136064534 
3 7 8 3 
p 0.0166666666666667 1 0 0.0233334712021511 0.0700004136064534 
Surfaces 3
2 26.7353090362 31.358504174610001 -1.3051387818860001 0.70710678118154768 0.70710678119154757 0 -0.70710678119154757 0.70710678118154768 0 0 -0 1 0.050000000004729997
1 26.7843293305 31.365098062049999 -1.2599999999980001 0.58834840544078626 -0.58834840538788624 0.55470019622568711 0.39223227022709189 -0.39223227032629188 -0.83205029433753841 0.70710678119205295 0.7071067811810422 -7.9113244291946286e-11 
2 26.790923217930001 31.414118356340001 -1.291010205144 -0.70710678118654757 -0.70710678118654757 0 0.70710678118654757 -0.70710678118654757 0 0 0 1 0.049999999997419997
Triangulations 2
6 4 1 0 0.00164071494337715
26.77154427434 31.32838564352 -1.288965032171 26.76146032533 31.3384695925338 -1.26578063004612 26.75137637632 31.34855354154 -1.242596227922 26.7880492135808 31.3448790207359 -1.28888523859833 26.82105909206 31.37786577517 -1.288725651453 26.80087385101 31.39805101622 -1.242596227923 0.0334854472116129 -0.0350000000024867 0.00628435817100746 -0.0350000000017783 -0.0209167308660325 -0.0350000000063756 0.0334235899436509 -0.0116666666682444 0.0332998754058652 0.0349999999999892 -0.0209167308671413 0.0349999999963695 6 3 2 4 2 1 4 6 2 5 6 4 
12 10 1 0 0.00634153961955224
26.75958059316 31.3403493247 -1.331010205149 26.811600316 31.38732455123 -1.327916992569 26.82105909206 31.37786577517 -1.288725651453 26.820827929297 31.3780969379307 -1.29828668898226 26.8208952668044 31.3780296004174 -1.30984925247194 26.8189995326896 31.3799253345314 -1.31575188408246 26.77154427434 31.32838564352 -1.288965032171 26.7880492135808 31.3448790207358 -1.28888523859833 26.7680256286807 31.3319042891793 -1.31918361534561 26.7701729305892 31.3297569872708 -1.31422507612202 26.7711862022456 31.3287437156144 -1.30294073285287 26.7712308632174 31.3286990546426 -1.29438189616424 5.40310822317076 0.074325165029272 5.45043204562042 0.00432516502652192 6.33181273517379 0.00432516502652192 6.19960563174367 0.00432516502652192 6.00800512273995 0.00432516502652192 5.82501883868205 0.00432516502652192 6.32674698657368 0.0743251650292649 6.32843556944038 0.0509918316950172 5.81361434023873 0.0743251650292688 5.95044971259471 0.0743251650292678 6.1385983495842 0.0743251650292663 6.2531119719278 0.0743251650292655 9 1 2 9 2 6 10 6 5 10 9 6 11 5 4 11 10 5 12 11 4 8 4 3 8 12 4 7 12 8 

TShapes 6
Ve
0.00724753243051534
26.77154427434 31.32838564352 -1.288965032171
0 0

0101101
*
Ve
0.00556240310634564
26.82105909206 31.37786577517 -1.288725651453
0 0

0101101
*
Ed
 0.00198930342803341 1 1 0
1  1 0 0 0.0700004136064534
2  1 1 0 0 0.0700004136064534
4 C0 1 0 2 0
6  1 1 0
0

0101000
+6 0 -5 0 *
Ed
 0.00303627754984299 1 1 0
1  2 0 0 0.0700004136064534
2  2 3 0 0 0.0700004136064534
2  3 1 0 0 0.0700004136064534
4 C0 3 0 1 0
6  2 2 0
0

0101000
+6 0 -5 0 *
Wi

0101100
-4 0 +3 0 *
Fa
0  1e-07 1 0

0111000
+2 0 *

-1 0 