DBRep_DrawableShape

CASCADE Topology V3, (c) Open Cascade
Locations 0
Curve2ds 6
1 0.18239970310188544 -1.4066144412693815 -1.150512668941609e-10 1 
1 2.9591929506265369 1.4066144406422201 4.4552061880595476e-13 -1 
7 0 0  3 25 23  0.21469996347812687 -1.5707963267437484  0.18239970324091809 -1.5683087227441046  0.18239970324091809 -1.5633335143409317  0.18239970324091798 -1.5558707012359276  0.18239970324091831 -1.5484078882650474  0.18239970324091739 -1.5409450752581957  0.18239970324092059 -1.533482262260959  0.18239970324090873 -1.5260194492610544  0.18239970324095298 -1.5185566362618641  0.18239970324078789 -1.5110938232625168  0.18239970324140406 -1.5036310102630182  0.18239970323910432 -1.4961681972636616  0.18239970324768723 -1.4887053842642366  0.1823997032156551 -1.4812425712646566  0.182399703196335 -1.4737797582652519  0.18239970318296264 -1.4663169452655911  0.1823997031649057 -1.4588541322661486  0.18239970315575516 -1.4513913192665009  0.18239970314075518 -1.4439285062668459  0.18239970313306381 -1.4364656932672919  0.18239970312375436 -1.4290028802675474  0.18239970311419956 -1.4215400672678746  0.1823997031087356 -1.4140772542681135  0.18239970310434964 -1.4091020456015741  0.18239970310155765 -1.4066144412682937 
 0 4 0.0074628130079206099 1 0.01492562601584122 1 0.022388439023761829 1 0.02985125203168244 1 0.03731406503960305 1 0.044776878047523658 1 0.052239691055444272 1 0.059702504063364879 1 0.067165317071285494 1 0.074628130079206101 1 0.082090943087126708 1 0.089553756095047315 1 0.097016569102967923 1 0.10447938211088854 1 0.11194219511880915 1 0.11940500812672976 1 0.12686782113465037 1 0.13433063414257099 1 0.14179344715049158 1 0.1492562601584122 1 0.1567190731663328 1 0.16418188617425342 4
1 2.9591929506265271 1.5707963268148575 8.1145835304893079e-15 -1 
1 6.2831853071795862 0.39136508913820478 1 0 
7 0 0  1 2 2  0 -0.87444463317975551  0.21469996347812687 -1.5707963267437484 
 0 2 0.69635169431264698 2
Curves 3
2 47.067169017250002 101.1781227286 -3.1875 -0.057450495248238115 0.99834835633446717 0 -0.16317532020479661 -0.0093900119117487184 -0.98655240233469566 -0.98492296930866341 -0.056677924102467331 0.16344527355552588 0.10000000000000001
2 47.067169017250002 101.1781227286 -3.1875 -0.057450495248702334 0.99834835633444041 0 6.23126929452671e-11 3.5858175628494474e-12 -1 -0.99834835633444041 -0.057450495248702334 -6.2415781575537281e-11 0.10000000000000001
2 47.067169017189997 101.1781227286 -3.1875 -0.12459293375350285 -0.9922079423481226 0 -0.63642502272958301 0.079916776828417732 -0.76718739511608691 0.76120942670354852 -0.095586128296220998 -0.64142302794255313 0.099999999994319994
Polygon3D 0
PolygonOnTriangulations 3
4 104 105 106 91 
p 0.05 1 0 0.00598072265714733 0.0119614453142947 0.017942167971442 
4 1 107 108 104 
p 0.05 1 0 0.0547272953914178 0.109454590782836 0.164181886174253 
4 22 23 24 21 
p 0.05 1 0.514227640708806 0.574935658576753 0.6356436764447 0.696351694312647 
Surfaces 3
4 47.067169017209999 101.1781227286 -3.1874999998829998 0 0 1 -0.99220794234757093 0.12459293375789635 0 -0.12459293375789635 -0.99220794234757093 0 0.10000000000000001
5 48.099000005820002 101.2375 -3.1875 0 0 -1 0.99220794234726961 -0.12459293376029619 0 -0.12459293376029619 -0.99220794234726961 -0 1.033538025098 0.10000000000000001
2 47.115930341819997 101.5664382784 -3.1875 -0.12459293375350285 -0.9922079423481226 0 -0.6364250227295859 0.079916776828418093 -0.76718739511608425 0.76120942670354608 -0.095586128296220693 -0.64142302794255623 0.099999999994319994
Triangulations 2
618 1126 1 0 0.00124208338118955
47.0671690172 101.1781227286 -3.287499999994 47.0751205390439 101.096533029282 -3.2875 47.0895133385205 101.01583016023 -3.2875 47.1102568698485 100.936521827388 -3.2875 47.1372206344197 100.859106963505 -3.2875 47.1702350018229 100.784072589415 -3.2875 47.2090922769973 100.711890750176 -3.2875 47.2535480068529 100.643015545399 -3.2875 47.3033225181375 100.577880272494 -3.2875 47.3581026768744 100.516894700768 -3.2875 47.4175438583054 100.460442493548 -3.2875 47.4812721149415 100.408878794533 -3.2875 47.5488865290864 100.36252799357 -3.2875 47.6199617350295 100.321681685902 -3.2875 47.6940505950434 100.286596837722 -3.2875 47.7706870123501 100.25749416959 -3.2875 47.8493888633592 100.234556767868 -3.2875 47.9296610307324 100.217928932916 -3.2875 48.0109985181911 100.207715271285 -3.2875 48.0928896274742 100.20398003764 -3.2875 48.1748191774575 100.206746730526 -3.2875 48.2562717451846 100.215997944536 -3.2875 48.3367349084184 100.231675479815 -3.2875 48.4157024693158 100.253680708191 -3.2875 48.4926776389441 100.281875193657 -3.2875 48.5671761626047 100.316081563275 -3.2875 48.638729366305 100.356084623035 -3.2875 48.7068871052093 100.401632711661 -3.2875 48.7712205955236 100.452439283814 -3.2875 48.8313251119955 100.508184712772 -3.2875 48.8868225340619 100.568518301212 -3.2875 48.9373637246242 100.633060487466 -3.2875 48.982630726488 100.701405233367 -3.2875 49.0223387626473 100.77312257865 -3.2875 49.0562380278316 100.847761345855 -3.2875 49.08411526008 100.9248519787 -3.287499999991 49.0952219369243 100.92241355011 -3.28684593261201 49.0913798516501 100.922546400673 -3.28720912705804 49.087750200105 100.923698350527 -3.2874272553048 49.09969402237 100.9199077155 -3.286155240234 49.0981327036004 100.920403234388 -3.28641268851887 49.0965675306906 100.920899976481 -3.28664294041466 49.17199384939 100.8969617732 -3.22622324844 49.1688674994335 100.897953989133 -3.23325539394147 49.1652308594215 100.899108156931 -3.24001204792619 49.1611058254119 100.90041732732 -3.2464525288293 49.1565172340804 100.901873617834 -3.25253805875555 49.1514927131644 100.903468260202 -3.25823199695627 49.1460625151168 100.905191653142 -3.26350006044196 49.1402593349575 100.907033420169 -3.2683105303989 49.1341181134177 100.908982472073 -3.27263444316694 49.1276758265633 100.911027073686 -3.27644576462859 49.120971263163 100.913154914536 -3.27972154695952 49.114044791143 100.915353182974 -3.28244206679653 49.106938114533 100.917608643307 -3.28459094399115 46.97512308525 101.1728258959 -3.226223248374 46.9837839337109 101.08395787293 -3.226223248437 46.9994606630595 100.996055791129 -3.226223248437 47.0220546502123 100.909672647098 -3.226223248437 47.0514237552495 100.825351881581 -3.226223248437 47.0873832156409 100.743623960792 -3.226223248437 47.1297068085963 100.665003039229 -3.226223248437 47.1781282742447 100.589983725099 -3.226223248437 47.2323429906883 100.519037968715 -3.226223248437 47.2920098903948 100.452612093429 -3.226223248437 47.3567536058701 100.391123987794 -3.226223248437 47.4261668311147 100.334960476604 -3.226223248437 47.4998128840059 100.284474887357 -3.226223248437 47.5772284534877 100.239984827458 -3.226223248437 47.6579265142839 100.20177018613 -3.226223248437 47.7413993907986 100.170071373622 -3.226223248437 47.8271219509298 100.145087808771 -3.226223248437 47.9145549097015 100.126976664453 -3.226223248437 48.0031482219329 100.115851878796 -3.226223248437 48.092344542601 100.111783438389 -3.226223248437 48.181582733126 100.114796937999 -3.226223248437 48.2703013915226 100.124873419546 -3.226223248437 48.3579423842086 100.141949491374 -3.226223248437 48.4439543572516 100.165917727048 -3.226223248437 48.5277962049641 100.196627341182 -3.226223248437 48.6089404740274 100.233885138033 -3.226223248437 48.6868766817271 100.277456726913 -3.226223248437 48.7611145274254 100.327067996743 -3.226223248437 48.8311869770676 100.382406840507 -3.226223248437 48.896653201317 100.443125118732 -3.226223248437 48.9571013488347 100.508840849648 -3.226223248437 49.012151137257 100.579140612256 -3.226223248437 49.0614562455713 100.653582147182 -3.226223248437 49.104706492839 100.731697138953 -3.226223248437 49.1416297895599 100.812994162191 -3.226223248437 47.0491426483698 101.178730766844 -3.28584612052456 47.0416618541229 101.176654905125 -3.2841810742775 47.0343848340412 101.176236145075 -3.28195442358055 47.0272982518854 101.175828343878 -3.27917910267879 47.0204432724452 101.175433870384 -3.27587123295468 47.0138597151681 101.175055016026 -3.27205002927916 47.0075858228552 101.174693981505 -3.26773768839564 47.0016580395146 101.174352864012 -3.26295925998274 46.9961107986643 101.174033645042 -3.25774250114485 46.9909763233137 101.173738178885 -3.2521177151757 46.9862844387852 101.173468181857 -3.24611757553145 46.9820623994641 101.173225222324 -3.23977693603602 46.978334730482 101.1730107116 -3.23313262842094 47.05085148523 101.1771837274 -3.286155240233 47.0502627254598 101.17714984691 -3.28605572433461 47.0496745704101 101.17711600121 -3.28595268320227 47.0617080536699 101.177808474502 -3.28735028353059 47.0562634420074 101.177495161384 -3.2869015824221 49.1386503201182 100.814207250663 -3.23313262841722 49.1351921312068 100.815615249364 -3.23977693603246 49.1312753109005 100.817209979451 -3.24611757552806 49.1269226113641 100.818982177399 -3.25211771517251 49.1221593167129 100.820921548802 -3.25774250114188 49.1170130961418 100.823016828171 -3.26295925998 49.1115138431993 100.825255844372 -3.26773768839315 49.1056935021409 100.827625591329 -3.27205002927693 49.0995858823701 100.830112303572 -3.27587123295273 49.0932264620451 100.832701536198 -3.27917910267712 49.0866521819924 100.835378248781 -3.28195442357918 49.0799012311229 100.838126892739 -3.28418107427643 49.101832537201 100.733142545742 -3.23313262841722 49.0730128245994 100.84093150165 -3.28584612052136 49.0984968152834 100.734820189976 -3.23977693603246 49.0668137107289 100.843455465638 -3.28684593261356 49.0947187037697 100.736720326485 -3.24611757552806 49.0613042083382 100.845698654893 -3.28735028353036 49.090520149088 100.738831917688 -3.25211771517251 49.0859255399515 100.741142697698 -3.25774250114188 49.0809615656888 100.743639243576 -3.26295925998 49.0756570612096 100.746307053296 -3.26773768839315 49.0700428395075 100.749130629992 -3.27205002927693 49.0641515126727 100.75209357197 -3.27587123295273 49.0580173024533 100.755178667989 -3.27917910267712 49.0516758414672 100.758367997233 -3.28195442357918 49.0451639662178 100.761643033414 -3.28418107427643 49.0587058839376 100.655250779161 -3.23313262841722 49.0385195031169 100.764984752384 -3.28584612052136 49.0555136142097 100.657187514784 -3.23977693603246 49.0325399223198 100.767992080182 -3.28684593261356 49.0518979797798 100.659381103859 -3.24611757552806 49.0272255313625 100.770664862138 -3.28735028353036 49.0478799832734 100.661818804188 -3.25211771517251 49.0434829645709 100.664486455572 -3.25774250114188 49.0387324652307 100.667368562061 -3.26295925998 49.0336560801216 100.670448381975 -3.26773768839315 49.0282832971294 100.673708025145 -3.27205002927693 49.0226453258666 100.677128556841 -3.27587123295273 49.0167749163806 100.680690107757 -3.27917910267712 49.010706168914 100.684371989429 -3.28195442357918 49.0044743358224 100.688152814414 -3.28418107427643 49.0095416722923 100.581021971975 -3.23313262841722 48.9981156167988 100.692010620521 -3.28584612052136 49.006512937485 100.583205614885 -3.23977693603246 48.9923931869213 100.695482392877 -3.28684593261356 49.0030825262786 100.585678856546 -3.24611757552806 48.9873073405005 100.698567952925 -3.28735028353036 48.9992703653673 100.588427330306 -3.25211771517251 48.9950985989667 100.591435070732 -3.25774250114188 48.9905914601813 100.594684606356 -3.26295925998 48.9857751302386 100.598157061159 -3.26773768839315 48.9806775864069 100.601832264223 -3.27205002927693 48.9753284394795 100.605688866897 -3.27587123295273 48.9697587617708 100.609704466813 -3.27917910267712 48.964000906622 100.61385573801 -3.28195442357918 48.9580883204664 100.618118566437 -3.28418107427643 48.9546491968156 100.510923101379 -3.23313262841722 48.952055348544 100.622468190026 -3.28584612052136 48.9518030508532 100.513339914166 -3.23977693603246 48.946626069683 100.626382565843 -3.28684593261356 48.9485794437613 100.516077249125 -3.24611757552806 48.9418007631167 100.62986149257 -3.28735028353036 48.9449971009429 100.519119205528 -3.25211771517251 48.9410768316382 100.522448113149 -3.25774250114188 48.9368414080465 100.526044634913 -3.26295925998 48.9323154330464 100.529887879216 -3.26773768839315 48.927525197282 100.533955521285 -3.27205002927693 48.9224985264448 100.538223932855 -3.27587123295273 48.9172646196385 100.542668319428 -3.27917910267712 48.9118538797665 100.547262864291 -3.28195442357918 48.9062977369264 100.551980878491 -3.28418107427643 48.8943737888562 100.445395162923 -3.23313262841722 48.9006284658378 100.556794955858 -3.28584612052136 48.8917281369875 100.448029941297 -3.23977693603246 48.895526493862 100.561127309601 -3.28684593261356 48.8887316138858 100.45101414884 -3.24611757552806 48.8909920833987 100.564977716901 -3.28735028353036 48.8854016258609 100.454330450783 -3.25211771517251 48.8817575162652 100.457959583273 -3.25774250114188 48.8778204531319 100.461880465276 -3.26295925998 48.8736133062128 100.466070321035 -3.26773768839315 48.8691605141321 100.470504812366 -3.27205002927693 48.8644879424263 100.475158180038 -3.27587123295273 48.8596227332958 100.480003393406 -3.27917910267712 48.8545931479396 100.485012307421 -3.28195442357918 48.8494284023917 100.490155826126 -3.28418107427643 48.8290946440646 100.384850396195 -3.23313262841722 48.844158497809 100.495404071668 -3.28584612052136 48.8266661302196 100.387686564631 -3.23977693603246 48.8394159294831 100.500127148278 -3.28684593261356 48.8239155423871 100.390898870958 -3.24611757552806 48.835200941329 100.504324813045 -3.28735028353036 48.8208588582792 100.394468655417 -3.25211771517251 48.8175138336711 100.398375181718 -3.25774250114188 48.8138998992601 100.402595757494 -3.26295925998 48.8100380477967 100.407105866112 -3.26773768839315 48.8059507121406 100.411879309095 -3.27205002927693 48.8016616349521 100.416888358297 -3.27587123295273 48.7971957307748 100.422103916977 -3.27917910267712 48.7925789413112 100.427495688811 -3.28195442357918 48.7878380847318 100.433032353885 -3.28418107427643 48.7592224368533 100.329669691395 -3.23313262841722 48.7830006998922 100.438681750622 -3.28584612052136 48.7570263389359 100.332689407412 -3.23977693603246 48.7786473709541 100.443765836986 -3.28684593261356 48.7545389904602 100.33610960374 -3.24611757552806 48.7747783218137 100.448284351496 -3.28735028353036 48.7517748400243 100.339910413021 -3.25211771517251 48.7487499441231 100.344069756979 -3.25774250114188 48.7454818738793 100.34856347467 -3.26295925998 48.7419896129752 100.353365462826 -3.26773768839315 48.7382934473797 100.358447827489 -3.27205002927693 48.7344148475107 100.363781046038 -3.27587123295273 48.7303763435165 100.369334138686 -3.27917910267712 48.7262013944023 100.375074848429 -3.28195442357918 48.7219142517606 100.380969828431 -3.28418107427643 48.6851967368237 100.280200193136 -3.23313262841722 48.7175398188976 100.386984835721 -3.28584612052136 48.6832468705974 100.283384459549 -3.23977693603246 48.7136031163607 100.392397947592 -3.28684593261356 48.681038409514 100.286991029249 -3.24611757552806 48.7101043466185 100.397208885642 -3.28735028353036 48.6785841821606 100.290998952267 -3.25211771517251 48.6758984447401 100.295384947238 -3.25774250114188 48.6729967982592 100.300123536638 -3.26295925998 48.669896097905 100.305187194781 -3.26773768839315 48.6666143551355 100.31054650771 -3.27205002927693 48.6631706330545 100.316170344058 -3.27587123295273 48.6595849356769 100.322026035885 -3.27917910267712 48.6558780917289 100.328079568442 -3.28195442357918 48.6520716336569 100.334295777752 -3.28418107427643 48.6074832434114 100.236753116542 -3.23313262841722 48.6481876725497 100.34063855488 -3.28584612052136 48.6057918755835 100.240081900969 -3.23977693603246 48.6446923624093 100.346346638098 -3.28684593261356 48.6038761954331 100.243852154929 -3.24611757552806 48.6415858830032 100.351419733832 -3.28735028353036 48.6017473308312 100.248041977638 -3.25211771517251 48.5994176480017 100.252627031104 -3.25774250114188 48.596900679689 100.257580681506 -3.26295925998 48.5942110465479 100.262874153906 -3.26773768839315 48.5913643722146 100.268476699391 -3.27205002927693 48.5883771925521 100.274355773698 -3.27587123295273 48.5852668595954 100.280477226251 -3.27917910267712 48.5820514407568 100.28680549854 -3.28195442357918 48.5787496138755 100.293303830671 -3.28418107427643 48.5265708561471 100.199601789378 -3.23313262841722 48.5753805587204 100.299934474904 -3.28584612052136 48.5251486271985 100.203054150267 -3.23977693603246 48.57234863015 100.305901619626 -3.28684593261356 48.5235377796222 100.206964369627 -3.24611757552806 48.5696539840998 100.311204957942 -3.28735028353036 48.5217476705669 100.211309733639 -3.25211771517251 48.5197886984814 100.216065000797 -3.25774250114188 48.5176722427123 100.221202548536 -3.26295925998 48.5154105974029 100.226692533688 -3.26773768839315 48.5130169000786 100.232503065832 -3.27205002927693 48.5105050553333 100.238600392543 -3.27587123295273 48.5078896540599 100.244949095453 -3.27917910267712 48.505185888694 100.251512295992 -3.28195442357918 48.5024094649637 100.258251869607 -3.28418107427643 48.4429685989653 100.168979932528 -3.23313262841722 48.4995765106577 100.265128667225 -3.28584612052136 48.4418244562104 100.172534150901 -3.23977693603246 48.4970270376739 100.271317333842 -3.28684593261356 48.4405285751321 100.176559736274 -3.24611757552806 48.4947611771344 100.276817551169 -3.28735028353036 48.4390884832903 100.181033304682 -3.25211771517251 48.4375125459416 100.185928869905 -3.25774250114188 48.4358099174467 100.191217994408 -3.26295925998 48.4339904880944 100.196869954537 -3.26773768839315 48.4320648266504 100.202851918987 -3.27205002927693 48.4300441189652 100.20912913951 -3.27587123295273 48.4279401029972 100.215665152765 -3.27917910267712 48.425765000629 100.222421992126 -3.28195442357918 48.4235314466724 100.229360408226 -3.28418107427643 48.3572024179084 100.145080189646 -3.23313262841722 48.4212524154748 100.236440096946 -3.28584612052136 48.3563435592075 100.148713905736 -3.23977693603246 48.4192014369415 100.242811352242 -3.28684593261356 48.3553707970808 100.152829531959 -3.24611757552806 48.4173786165564 100.248473846434 -3.28735028353036 48.3542897821434 100.157403161319 -3.25211771517251 48.3531067938333 100.162408226357 -3.25774250114188 48.3518287039348 100.167815653473 -3.26295925998 48.350462936662 100.173594031812 -3.26773768839315 48.3490174255322 100.179709795726 -3.27205002927693 48.3475005672816 100.186127419748 -3.27587123295273 48.3459211730903 100.192809624957 -3.27917910267712 48.3442884173993 100.199717595521 -3.28195442357918 48.3426117846176 100.206811204177 -3.28418107427643 48.269811872374 100.128052915229 -3.23313262841722 48.3409010140293 100.214049245319 -3.28584612052136 48.2692437008506 100.131743269143 -3.23977693603246 48.3393614327565 100.220563007404 -3.28684593261356 48.2686001773714 100.135923044603 -3.24611757552806 48.3379931199814 100.226352155422 -3.28735028353036 48.2678850400582 100.14056796198 -3.25211771517251 48.2671024430262 100.145651039715 -3.25774250114188 48.2662569322527 100.151142751045 -3.26295925998 48.2653534191706 100.157011195523 -3.26773768839315 48.2643971521388 100.16322228432 -3.27205002927693 48.2633936859551 100.169739938243 -3.27587123295273 48.2623488495895 100.176526297313 -3.27917910267712 48.2612687123245 100.183541940687 -3.28195442357918 48.2601595484997 100.190746115647 -3.28418107427643 48.1813467407188 100.118005228725 -3.23313262841722 48.2590278010653 100.198096974326 -3.28584612052136 48.1810728307689 100.121729004259 -3.23977693603246 48.2580093026369 100.204712264792 -3.28684593261356 48.180762594376 100.125946633776 -3.24611757552806 48.2571041055969 100.210591646813 -3.28735028353036 48.1804178336522 100.130633617759 -3.25211771517251 48.1800405512559 100.135762730292 -3.25774250114188 48.1796329387585 100.141304177201 -3.26295925998 48.1791973639138 100.147225769135 -3.26773768839315 48.1787363569044 100.15349310854 -3.27205002927693 48.1782525956443 100.160069789472 -3.27587123295273 48.177748890223 100.166917609075 -3.27917910267712 48.1772281665823 100.17399678949 -3.28195442357918 48.1766934495203 100.181266208924 -3.28418107427643 48.0923635615755 100.115000340637 -3.23313262841722 48.1761478451204 100.188683640516 -3.28584612052136 48.0923856363804 100.118734111331 -3.23977693603246 48.1756568369617 100.195358842234 -3.28684593261356 48.0924106387868 100.122963061584 -3.24611757552806 48.1752204502973 100.201291470767 -3.28735028353036 48.0924384235596 100.12766262612 -3.25211771517251 48.0924688293017 100.132805505942 -3.25774250114188 48.0925016793912 100.138361826907 -3.26295925998 48.0925367830074 100.144299313262 -3.26773768839315 48.092573936239 100.150583475124 -3.27205002927693 48.092612923269 100.157177808833 -3.27587123295273 48.0926535176283 100.164044008987 -3.27917910267712 48.0926954835109 100.17114219096 -3.28195442357918 48.0927385771439 100.178431122582 -3.28418107427643 48.0034221326444 100.119057154871 -3.23313262841722 48.0927825482034 100.185868463647 -3.28584612052136 48.0037400533304 100.122777431383 -3.23977693603246 48.0928221192717 100.192561582586 -3.28684593261356 48.0041001372445 100.126991097831 -3.24611757552806 48.0928572883135 100.198510135163 -3.28735028353036 48.0045002927185 100.13167367772 -3.25211771517251 48.004938195315 100.136797970714 -3.25774250114188 48.0054113013299 100.142334210638 -3.26295925998 48.0059168625682 100.148250238386 -3.26773768839315 48.0064519423079 100.154511688725 -3.27205002927693 48.0070134323587 100.161082189921 -3.27587123295273 48.0075980711175 100.167923575013 -3.27917910267712 48.0082024625138 100.174996103522 -3.28195442357918 48.0088230957374 100.182258692293 -3.28418107427643 47.9150819889694 100.130150149799 -3.23313262841722 48.0094563656321 100.189669154142 -3.28584612052136 47.9156937554814 100.133833527682 -3.23977693603246 48.0100262669837 100.196338083549 -3.28684593261356 47.9163866555971 100.138005401936 -3.24611757552806 48.0105327704816 100.202265137525 -3.28735028353036 47.9171566643738 100.14264153883 -3.25211771517251 47.9179993089571 100.147715007809 -3.25774250114188 47.9189096945634 100.153196337926 -3.26295925998 47.9198825329125 100.159053689035 -3.26773768839315 47.9209121729464 100.165253036749 -3.27205002927693 47.9219926336556 100.171758370077 -3.27587123295273 47.9231176388217 100.178531900606 -3.27917910267712 47.9242806534747 100.185534282014 -3.28195442357918 47.9254749218538 100.192724838619 -3.28418107427643 47.8278988828715 100.148209538829 -3.23313262841722 47.9266935066507 100.20006180166 -3.28584612052136 47.8288006465553 100.151832845765 -3.23977693603246 47.9277901530073 100.206664586964 -3.28684593261356 47.8298220038028 100.155936682352 -3.24611757552806 47.9287648045219 100.212532854941 -3.28735028353036 47.8309570217179 100.160497210079 -3.25211771517251 47.8321991071683 100.165487937592 -3.25774250114188 47.833541045084 100.170879874575 -3.26295925998 47.8349750403683 100.176641700154 -3.26773768839315 47.8364927631788 100.182739944832 -3.27205002927693 47.8380853973132 100.189139184908 -3.27587123295273 47.839743691422 100.195802248251 -3.27917910267712 47.8414580127475 100.202690430221 -3.28195442357918 47.8432184030792 100.209763718504 -3.28418107427643 47.7424212876954 100.173121709427 -3.23313262841722 47.8450146365994 100.216981025531 -3.28584612052136 47.7436073755098 100.176662151008 -3.23977693603246 47.8466311289031 100.223476128272 -3.28684593261356 47.7449507644789 100.180672132484 -3.24611757552806 47.8480677968524 100.229248692679 -3.28735028353036 47.7464436510772 100.185128360533 -3.25211771517251 47.748077363372 100.19000494966 -3.25774250114188 47.7498424113975 100.195273572561 -3.26295925998 47.75172854228 100.200903624671 -3.26773768839315 47.7537247997958 100.206862401946 -3.27205002927693 47.7558195880132 100.213115290828 -3.27587123295273 47.7580007386523 100.219625969314 -3.27917910267712 47.7602555817679 100.226356617944 -3.28195442357918 47.7625710193473 100.233268139489 -3.28418107427643 47.65918694733 100.204729937865 -3.23313262841722 47.7649336013947 100.240320386056 -3.28584612052136 47.6606498975365 100.208165240993 -3.23977693603246 47.7670597702103 100.246666945216 -3.28684593261356 47.6623068668989 100.212056140361 -3.24611757552806 47.7689494164432 100.252307490556 -3.28735028353036 47.6641482303549 100.216380034375 -3.25211771517251 47.6661632917272 100.221111806246 -3.25774250114188 47.6683403458558 100.22622396989 -3.26295925998 47.6706667465915 100.231686829589 -3.26773768839315 47.6731289802552 100.23746865249 -3.27205002927693 47.6757127441368 100.243535852936 -3.27587123295273 47.6784030295768 100.249853187557 -3.27917910267712 47.68118420915 100.256383959995 -3.28195442357918 47.6840401274418 100.26309023407 -3.28418107427643 47.5787194932343 100.242835375172 -3.23313262841722 47.6869541948927 100.269933054137 -3.28584612052136 47.5804501023388 100.246143928181 -3.23977693603246 47.6895766643844 100.276091143187 -3.28684593261356 47.5824102280163 100.249891267596 -3.24611757552806 47.6919074010406 100.281564184505 -3.28735028353036 47.5845884842191 100.254055625738 -3.25211771517251 47.5869722178155 100.258612812536 -3.25774250114188 47.5895475820893 100.263536356043 -3.26295925998 47.592299617173 100.268797656202 -3.26773768839315 47.5952123369478 100.274366150989 -3.27205002927693 47.5982688219037 100.280209493933 -3.27587123295273 47.6014513174225 100.286293742016 -3.27917910267712 47.6047413369115 100.292583552842 -3.28195442357918 47.6081197691887 100.299042389935 -3.28418107427643 47.5015251502454 100.287198298109 -3.23313262841722 47.6115669894969 100.305632734973 -3.28584612052136 47.5035125308983 100.290359286724 -3.23977693603246 47.6146692615761 100.311563613065 -3.28684593261356 47.5057634816406 100.293939491483 -3.24611757552806 47.617426425873 100.316834719179 -3.28735028353036 47.50826492707 100.297918115565 -3.25211771517251 47.5110023367016 100.302272047798 -3.25774250114188 47.5139598093731 100.306975996904 -3.26295925998 47.5171201656125 100.312002638419 -3.26773768839315 47.5204650474304 100.317322773408 -3.27205002927693 47.5239750249587 100.322905498082 -3.27587123295273 47.5276297093155 100.328718383314 -3.27917910267712 47.5314078710406 100.334727663008 -3.28195442357918 47.5352875634144 100.340898430248 -3.28418107427643 47.4280895518924 100.337539617276 -3.23313262841722 47.5392462499421 100.347194840063 -3.28584612052136 47.4303212013811 100.340533155559 -3.23977693603246 47.5428088080576 100.352861195741 -3.28684593261356 47.432848816343 100.343923702412 -3.24611757552806 47.5459750545348 100.357897205855 -3.28735028353036 47.4356577142788 100.347691562708 -3.25211771517251 47.4387315787626 100.351814849565 -3.25774250114188 47.4420525542212 100.35626961149 -3.26295925998 47.4456013496548 100.361029971502 -3.26773768839315 47.4493573506946 100.366068277454 -3.27205002927693 47.4532987393486 100.371355262655 -3.27587123295273 47.4574026207385 100.376860215879 -3.27917910267712 47.4616451560928 100.382551159758 -3.28195442357918 47.4660017012215 100.388395036536 -3.28418107427643 47.3588746852511 100.393542632881 -3.23313262841722 47.4704469496708 100.394357900093 -3.28584612052136 47.3613365641554 100.396349888329 -3.23977693603246 47.4744473815888 100.399724086025 -3.28684593261356 47.3641249419829 100.399529447174 -3.24611757552806 47.4780027912289 100.404493318345 -3.28735028353036 47.3672236215057 100.403062839884 -3.25211771517251 47.3706146030042 100.406929541559 -3.25774250114188 47.3742781888248 100.411107091168 -3.26295925998 47.3781930978005 100.415571222012 -3.26773768839315 47.382336588869 100.420296002688 -3.27205002927693 47.3866845931726 100.425253987725 -3.27587123295273 47.3912118538696 100.430416377001 -3.27917910267712 47.3958920728477 100.435753183048 -3.28195442357918 47.4006980634849 100.441233405237 -3.28418107427643 47.2943159845599 100.45485502711 -3.23313262841722 47.4056019085723 100.44682520986 -3.28584612052136 47.2969926050747 100.457458339137 -3.23977693603246 47.4100150473725 100.451857467099 -3.28684593261356 47.3000242039414 100.460406907208 -3.24611757552806 47.4139372529131 100.456329918141 -3.28735028353036 47.303393171101 100.463683603578 -3.25211771517251 47.3070799367775 100.467269394456 -3.25774250114188 47.3110630851559 100.471143450573 -3.26295925998 47.3153194787825 100.475283268174 -3.26773768839315 47.3198243929672 100.47966479974 -3.27205002927693 47.3245516594047 100.484262593675 -3.27587123295273 47.3294738181821 100.489049942151 -3.27917910267712 47.334562277289 100.493999036248 -3.28195442357918 47.3397874787036 100.499081127493 -3.28418107427643 47.2348195918809 100.521091080579 -3.23313262841722 47.3451190700908 100.504266694855 -3.28584612052136 47.2376941152508 100.523474071617 -3.23977693603246 47.3499171524931 100.508933365215 -3.28684593261356 47.2409498632143 100.526173099323 -3.24611757552806 47.3541814791401 100.513080898564 -3.28735028353036 47.2445679236674 100.52917248549 -3.25211771517251 47.248527279892 100.532454807178 -3.25774250114188 47.2528049326395 100.536000997919 -3.26295925998 47.2573760337288 100.539790458475 -3.26773768839315 47.2622140303859 100.543801176493 -3.27205002927693 47.2672908194843 100.548009854373 -3.27587123295273 47.2725769107914 100.552392044596 -3.27917910267712 47.2780415982725 100.556922291742 -3.28195442357918 47.2836531384574 100.561574280349 -3.28418107427643 47.1807598020398 100.591834098915 -3.23313262841722 47.2893789348324 100.566320987781 -3.28584612052136 47.1838141444923 100.593981777446 -3.23977693603246 47.2945317758569 100.570592713003 -3.28684593261356 47.187273559477 100.596414285067 -3.24611757552806 47.299111396515 100.574389236314 -3.28735028353036 47.1911179518216 100.599117491741 -3.25211771517251 47.1953249900834 100.602075694986 -3.25774250114188 47.1998702362695 100.605271711085 -3.26295925998 47.2047272877926 100.608686974908 -3.26773768839315 47.2098679308397 100.612301647748 -3.27205002927693 47.215262304261 100.616094732565 -3.27587123295273 47.2208790730291 100.620044195955 -3.27917910267712 47.2266856102583 100.624127096134 -3.28195442357918 47.2326481867294 100.628319716207 -3.28418107427643 47.1324767079176 100.666639034201 -3.23313262841722 47.2387321668166 100.632597701933 -3.28584612052136 47.1356916544294 100.66853788907 -3.23977693603246 47.244207349679 100.636447608376 -3.28684593261356 47.1393329730801 100.670688573576 -3.24611757552806 47.2490734537222 100.63986923753 -3.28735028353036 47.1433795120489 100.673078594747 -3.25211771517251 47.1478077656567 100.675694069342 -3.25774250114188 47.152592010907 100.6785198045 -3.26295925998 47.1577044569063 100.681539385991 -3.26773768839315 47.163115406297 100.684735273562 -3.27205002927693 47.1687934277644 100.688088902829 -3.27587123295273 47.1747055386162 100.69158079311 -3.27917910267712 47.1808173963731 100.695190660591 -3.28195442357918 47.1870934982591 100.698897536143 -3.28418107427643 47.0902740609098 100.74503528479 -3.23313262841722 47.1934973874311 100.702679887138 -3.28584612052136 47.0936293860892 100.746673370206 -3.23977693603246 47.1992604674781 100.706083754845 -3.28684593261356 47.0974297006854 100.748528701533 -3.24611757552806 47.204382441999 100.709108964199 -3.28735028353036 47.1016529292965 100.750590501455 -3.25211771517251 47.1062745398821 100.752846793318 -3.25774250114188 47.1112676862669 100.755284470691 -3.26295925998 47.1166033640852 100.75788937351 -3.26773768839315 47.1222505792623 100.760646370322 -3.27205002927693 47.1281765280547 100.763539446186 -3.27587123295273 47.1343467876007 100.7665517957 -3.27917910267712 47.140725515878 100.769665920622 -3.28195442357918 47.1472756599036 100.772863731512 -3.28418107427643 47.0544173600102 100.826529655894 -3.23313262841722 47.1539591709686 100.776126652814 -3.28584612052136 47.0578919553362 100.827896666578 -3.23977693603246 47.1599738923712 100.77906306788 -3.28684593261356 47.0618273579061 100.829444972741 -3.24611757552806 47.165319514768 100.781672825689 -3.28735028353036 47.0662007076138 100.831165580527 -3.25211771517251 47.0709866003905 100.83304849521 -3.25774250114188 47.0761572357726 100.835082779248 -3.26295925998 47.0816825783899 100.837256615819 -3.26773768839315 47.0875305324363 100.839557377464 -3.27205002927693 47.0936671281089 100.841971699438 -3.27587123295273 47.1000567189333 100.844485557341 -3.27917910267712 47.1066621888277 100.847084348587 -3.28195442357918 47.1134451677044 100.849752977225 -3.28418107427643 47.0251321815438 100.910609462288 -3.23313262841722 47.1203662543551 100.852475941629 -3.28584612052136 47.0287041881609 100.911696798306 -3.23977693603246 47.1265947781958 100.854926430919 -3.28684593261356 47.0327499208871 100.912928338833 -3.24611757552806 47.1321304188869 100.857104319063 -3.28735028353036 47.0372458787266 100.914296930053 -3.25211771517251 47.0421659454001 100.915794622044 -3.25774250114188 47.0474815410499 100.917412714961 -3.26295925998 47.0531617882554 100.919141809568 -3.26773768839315 47.0591736913953 100.920971861839 -3.27205002927693 47.0654823283135 100.9228922413 -3.27587123295273 47.0720510531762 100.924891792785 -3.27917910267712 47.0788417093414 100.926958901227 -3.28195442357918 47.0858148510048 100.929081559134 -3.28418107427643 47.0026027600544 100.996745753642 -3.23313262841722 47.0929299723339 100.931247436335 -3.28584612052136 47.0062497062878 100.997546574509 -3.23977693603246 47.0993331146531 100.933196583695 -3.28684593261356 47.0103803172604 100.998453601716 -3.24611757552806 47.1050239486419 100.93492890097 -3.28735028353036 47.0149705989327 100.999461566492 -3.25211771517251 47.0199938871139 101.000564613736 -3.25774250114188 47.0254210023494 101.001756336028 -3.26295925998 47.0312204194197 101.003029810849 -3.26773768839315 47.0373584504655 101.004377640793 -3.27205002927693 47.0437994406742 101.005791996538 -3.27587123295273 47.0505059753936 101.007264662324 -3.27917910267712 47.0574390974671 101.008787083678 -3.28195442357918 47.0645585335292 101.010350417106 -3.28418107427643 46.9869708292759 101.084396642178 -3.23313262841722 47.0718229279474 101.011945581459 -3.28584612052136 46.9906697720017 101.084905909888 -3.23977693603246 47.0783604062518 101.013381124706 -3.28684593261356 46.9948592753375 101.085482717621 -3.24611757552806 47.0841706322129 101.014656973015 -3.28735028353036 46.9995150031478 101.086123714796 -3.25211771517251 47.0046099110757 101.086825177966 -3.25774250114188 47.0101144036395 101.087583032447 -3.26295925998 47.0159965061476 101.088392875988 -3.26773768839315 47.0222220504344 101.089250004339 -3.27205002927693 47.0287548733374 101.090149438584 -3.27587123295273 47.0355570267634 101.091085954056 -3.27917910267712 47.0425889981223 101.092054110693 -3.28195442357918 47.0498099398496 101.09304828463 -3.28418107427643 47.0571779066829 101.094062700876 -3.28584612052136 47.0638085933647 101.094975608934 -3.28684593261356 47.0697016588718 101.095786961851 -3.28735028353036 2.95919295062653 1.57079632681486 2.87985600078631 1.57079632681487 2.80051905084971 1.57079632681487 2.72118210091311 1.57079632681487 2.64184515097651 1.57079632681487 2.5625082010399 1.57079632681487 2.4831712511033 1.57079632681487 2.4038343011667 1.57079632681487 2.3244973512301 1.57079632681487 2.24516040129349 1.57079632681487 2.16582345135689 1.57079632681487 2.08648650142029 1.57079632681487 2.00714955148369 1.57079632681487 1.92781260154708 1.57079632681487 1.84847565161048 1.57079632681487 1.76913870167388 1.57079632681487 1.68980175173728 1.57079632681487 1.61046480180068 1.57079632681487 1.53112785186407 1.57079632681487 1.45179090192747 1.57079632681487 1.37245395199087 1.57079632681487 1.29311700205427 1.57079632681487 1.21378005211766 1.57079632681487 1.13444310218106 1.57079632681487 1.05510615224446 1.57079632681487 0.975769202307856 1.57079632681487 0.896432252371254 1.57079632681487 0.817095302434652 1.57079632681487 0.737758352498049 1.57079632681487 0.658421402561447 1.57079632681487 0.579084452624845 1.57079632681488 0.499747502688242 1.57079632681488 0.42041055275164 1.57079632681488 0.341073602815038 1.57079632681488 0.261736652878435 1.57079632681488 0.182399702852531 1.57079632643153 0.182399702852559 1.45636017520098 0.18239970285255 1.49450555894466 0.182399702852541 1.53265094268809 0.182399702852598 1.40661444072757 0.182399702852569 1.42319635224911 0.182399702852564 1.43977826372504 0.182399702787193 0.397627991534836 0.182399702852909 0.475242333793202 0.182399702852884 0.552856676037732 0.182399702852858 0.630471018282263 0.182399702852832 0.708085360526794 0.182399702852806 0.785699702771325 0.18239970285278 0.863314045015855 0.182399702852754 0.940928387260386 0.182399702852728 1.01854272950492 0.182399702852702 1.09615707174945 0.182399702852676 1.17377141399398 0.18239970285265 1.25138575623851 0.182399702852624 1.32900009848304 2.95919295062654 0.39762799083347 2.87985600094928 0.397627991534862 2.80051905100334 0.397627991534861 2.72118210105739 0.39762799153486 2.64184515111145 0.39762799153486 2.5625082011655 0.397627991534859 2.48317125121956 0.397627991534858 2.40383430127362 0.397627991534857 2.32449735132767 0.397627991534857 2.24516040138173 0.397627991534856 2.16582345143579 0.397627991534855 2.08648650148984 0.397627991534854 2.0071495515439 0.397627991534853 1.92781260159795 0.397627991534853 1.84847565165201 0.397627991534852 1.76913870170607 0.397627991534851 1.68980175176012 0.39762799153485 1.61046480181418 0.39762799153485 1.53112785186824 0.397627991534849 1.45179090192229 0.397627991534848 1.37245395197635 0.397627991534847 1.2931170020304 0.397627991534847 1.21378005208446 0.397627991534846 1.13444310213852 0.397627991534845 1.05510615219257 0.397627991534844 0.975769202246629 0.397627991534843 0.896432252300686 0.397627991534843 0.817095302354742 0.397627991534842 0.737758352408798 0.397627991534841 0.658421402462854 0.39762799153484 0.579084452516911 0.39762799153484 0.499747502570967 0.397627991534839 0.420410552625023 0.397627991534838 0.341073602679079 0.397627991534837 0.261736652733136 0.397627991534837 2.95919295062654 1.38867227267078 2.95919295062654 1.31243809714495 2.95919295062654 1.23620392161899 2.95919295062654 1.15996974609303 2.95919295062654 1.08373557056708 2.95919295062654 1.00750139504112 2.95919295062654 0.931267219515165 2.95919295062654 0.855033043989209 2.95919295062654 0.778798868463252 2.95919295062654 0.702564692937296 2.95919295062654 0.626330517411339 2.95919295062654 0.550096341885383 2.95919295062654 0.473862166359427 2.95919295062653 1.4066144406406 2.95919295062654 1.40063371798507 2.95919295062654 1.39465299532793 2.95919295062653 1.51606903142344 2.95919295062653 1.46134173603202 0.261736652733136 0.473862166359427 0.261736652733136 0.550096341885383 0.261736652733136 0.626330517411339 0.261736652733136 0.702564692937296 0.261736652733136 0.778798868463252 0.261736652733136 0.855033043989209 0.261736652733136 0.931267219515165 0.261736652733136 1.00750139504112 0.261736652733136 1.08373557056708 0.261736652733136 1.15996974609303 0.261736652733136 1.23620392161899 0.261736652733136 1.31243809714495 0.341073602679079 0.473862166359427 0.261736652733136 1.38867227267078 0.341073602679079 0.550096341885383 0.261736652733136 1.45636017520098 0.341073602679079 0.626330517411339 0.261736652733136 1.51606903142344 0.341073602679079 0.702564692937296 0.341073602679079 0.778798868463252 0.341073602679079 0.855033043989209 0.341073602679079 0.931267219515165 0.341073602679079 1.00750139504112 0.341073602679079 1.08373557056708 0.341073602679079 1.15996974609303 0.341073602679079 1.23620392161899 0.341073602679079 1.31243809714495 0.420410552625023 0.473862166359427 0.341073602679079 1.38867227267078 0.420410552625023 0.550096341885383 0.341073602679079 1.45636017520098 0.420410552625023 0.626330517411339 0.341073602679079 1.51606903142344 0.420410552625023 0.702564692937296 0.420410552625023 0.778798868463252 0.420410552625023 0.855033043989209 0.420410552625023 0.931267219515165 0.420410552625023 1.00750139504112 0.420410552625023 1.08373557056708 0.420410552625023 1.15996974609303 0.420410552625023 1.23620392161899 0.420410552625023 1.31243809714495 0.499747502570967 0.473862166359427 0.420410552625023 1.38867227267078 0.499747502570967 0.550096341885383 0.420410552625023 1.45636017520098 0.499747502570967 0.626330517411339 0.420410552625023 1.51606903142344 0.499747502570967 0.702564692937296 0.499747502570967 0.778798868463252 0.499747502570967 0.855033043989209 0.499747502570967 0.931267219515165 0.499747502570967 1.00750139504112 0.499747502570967 1.08373557056708 0.499747502570967 1.15996974609303 0.499747502570967 1.23620392161899 0.499747502570967 1.31243809714495 0.579084452516911 0.473862166359427 0.499747502570967 1.38867227267078 0.579084452516911 0.550096341885383 0.499747502570967 1.45636017520098 0.579084452516911 0.626330517411339 0.499747502570967 1.51606903142344 0.579084452516911 0.702564692937296 0.579084452516911 0.778798868463252 0.579084452516911 0.855033043989209 0.579084452516911 0.931267219515165 0.579084452516911 1.00750139504112 0.579084452516911 1.08373557056708 0.579084452516911 1.15996974609303 0.579084452516911 1.23620392161899 0.579084452516911 1.31243809714495 0.658421402462854 0.473862166359427 0.579084452516911 1.38867227267078 0.658421402462854 0.550096341885383 0.579084452516911 1.45636017520098 0.658421402462854 0.626330517411339 0.579084452516911 1.51606903142344 0.658421402462854 0.702564692937296 0.658421402462854 0.778798868463252 0.658421402462854 0.855033043989209 0.658421402462854 0.931267219515165 0.658421402462854 1.00750139504112 0.658421402462854 1.08373557056708 0.658421402462854 1.15996974609303 0.658421402462854 1.23620392161899 0.658421402462854 1.31243809714495 0.737758352408798 0.473862166359427 0.658421402462854 1.38867227267078 0.737758352408798 0.550096341885383 0.658421402462854 1.45636017520098 0.737758352408798 0.626330517411339 0.658421402462854 1.51606903142344 0.737758352408798 0.702564692937296 0.737758352408798 0.778798868463252 0.737758352408798 0.855033043989209 0.737758352408798 0.931267219515165 0.737758352408798 1.00750139504112 0.737758352408798 1.08373557056708 0.737758352408798 1.15996974609303 0.737758352408798 1.23620392161899 0.737758352408798 1.31243809714495 0.817095302354742 0.473862166359427 0.737758352408798 1.38867227267078 0.817095302354742 0.550096341885383 0.737758352408798 1.45636017520098 0.817095302354742 0.626330517411339 0.737758352408798 1.51606903142344 0.817095302354742 0.702564692937296 0.817095302354742 0.778798868463252 0.817095302354742 0.855033043989209 0.817095302354742 0.931267219515165 0.817095302354742 1.00750139504112 0.817095302354742 1.08373557056708 0.817095302354742 1.15996974609303 0.817095302354742 1.23620392161899 0.817095302354742 1.31243809714495 0.896432252300686 0.473862166359427 0.817095302354742 1.38867227267078 0.896432252300686 0.550096341885383 0.817095302354742 1.45636017520098 0.896432252300686 0.626330517411339 0.817095302354742 1.51606903142344 0.896432252300686 0.702564692937296 0.896432252300686 0.778798868463252 0.896432252300686 0.855033043989209 0.896432252300686 0.931267219515165 0.896432252300686 1.00750139504112 0.896432252300686 1.08373557056708 0.896432252300686 1.15996974609303 0.896432252300686 1.23620392161899 0.896432252300686 1.31243809714495 0.975769202246629 0.473862166359427 0.896432252300686 1.38867227267078 0.975769202246629 0.550096341885383 0.896432252300686 1.45636017520098 0.975769202246629 0.626330517411339 0.896432252300686 1.51606903142344 0.975769202246629 0.702564692937296 0.975769202246629 0.778798868463252 0.975769202246629 0.855033043989209 0.975769202246629 0.931267219515165 0.975769202246629 1.00750139504112 0.975769202246629 1.08373557056708 0.975769202246629 1.15996974609303 0.975769202246629 1.23620392161899 0.975769202246629 1.31243809714495 1.05510615219257 0.473862166359427 0.975769202246629 1.38867227267078 1.05510615219257 0.550096341885383 0.975769202246629 1.45636017520098 1.05510615219257 0.626330517411339 0.975769202246629 1.51606903142344 1.05510615219257 0.702564692937296 1.05510615219257 0.778798868463252 1.05510615219257 0.855033043989209 1.05510615219257 0.931267219515165 1.05510615219257 1.00750139504112 1.05510615219257 1.08373557056708 1.05510615219257 1.15996974609303 1.05510615219257 1.23620392161899 1.05510615219257 1.31243809714495 1.13444310213852 0.473862166359427 1.05510615219257 1.38867227267078 1.13444310213852 0.550096341885383 1.05510615219257 1.45636017520098 1.13444310213852 0.626330517411339 1.05510615219257 1.51606903142344 1.13444310213852 0.702564692937296 1.13444310213852 0.778798868463252 1.13444310213852 0.855033043989209 1.13444310213852 0.931267219515165 1.13444310213852 1.00750139504112 1.13444310213852 1.08373557056708 1.13444310213852 1.15996974609303 1.13444310213852 1.23620392161899 1.13444310213852 1.31243809714495 1.21378005208446 0.473862166359427 1.13444310213852 1.38867227267078 1.21378005208446 0.550096341885383 1.13444310213852 1.45636017520098 1.21378005208446 0.626330517411339 1.13444310213852 1.51606903142344 1.21378005208446 0.702564692937296 1.21378005208446 0.778798868463252 1.21378005208446 0.855033043989209 1.21378005208446 0.931267219515165 1.21378005208446 1.00750139504112 1.21378005208446 1.08373557056708 1.21378005208446 1.15996974609303 1.21378005208446 1.23620392161899 1.21378005208446 1.31243809714495 1.2931170020304 0.473862166359427 1.21378005208446 1.38867227267078 1.2931170020304 0.550096341885383 1.21378005208446 1.45636017520098 1.2931170020304 0.626330517411339 1.21378005208446 1.51606903142344 1.2931170020304 0.702564692937296 1.2931170020304 0.778798868463252 1.2931170020304 0.855033043989209 1.2931170020304 0.931267219515165 1.2931170020304 1.00750139504112 1.2931170020304 1.08373557056708 1.2931170020304 1.15996974609303 1.2931170020304 1.23620392161899 1.2931170020304 1.31243809714495 1.37245395197635 0.473862166359427 1.2931170020304 1.38867227267078 1.37245395197635 0.550096341885383 1.2931170020304 1.45636017520098 1.37245395197635 0.626330517411339 1.2931170020304 1.51606903142344 1.37245395197635 0.702564692937296 1.37245395197635 0.778798868463252 1.37245395197635 0.855033043989209 1.37245395197635 0.931267219515165 1.37245395197635 1.00750139504112 1.37245395197635 1.08373557056708 1.37245395197635 1.15996974609303 1.37245395197635 1.23620392161899 1.37245395197635 1.31243809714495 1.45179090192229 0.473862166359427 1.37245395197635 1.38867227267078 1.45179090192229 0.550096341885383 1.37245395197635 1.45636017520098 1.45179090192229 0.626330517411339 1.37245395197635 1.51606903142344 1.45179090192229 0.702564692937296 1.45179090192229 0.778798868463252 1.45179090192229 0.855033043989209 1.45179090192229 0.931267219515165 1.45179090192229 1.00750139504112 1.45179090192229 1.08373557056708 1.45179090192229 1.15996974609303 1.45179090192229 1.23620392161899 1.45179090192229 1.31243809714495 1.53112785186407 0.473862166359427 1.45179090192229 1.38867227267078 1.53112785186407 0.550096341885383 1.45179090192229 1.45636017520098 1.53112785186407 0.626330517411339 1.45179090192229 1.51606903142344 1.53112785186407 0.702564692937296 1.53112785186407 0.778798868463252 1.53112785186407 0.855033043989209 1.53112785186407 0.931267219515165 1.53112785186407 1.00750139504112 1.53112785186407 1.08373557056708 1.53112785186407 1.15996974609303 1.53112785186407 1.23620392161899 1.53112785186407 1.31243809714495 1.61046480180068 0.473862166359427 1.53112785186407 1.38867227267078 1.61046480180068 0.550096341885383 1.53112785186407 1.45636017520098 1.61046480180068 0.626330517411339 1.53112785186407 1.51606903142344 1.61046480180068 0.702564692937296 1.61046480180068 0.778798868463252 1.61046480180068 0.855033043989209 1.61046480180068 0.931267219515165 1.61046480180068 1.00750139504112 1.61046480180068 1.08373557056708 1.61046480180068 1.15996974609303 1.61046480180068 1.23620392161899 1.61046480180068 1.31243809714495 1.68980175173728 0.473862166359427 1.61046480180068 1.38867227267078 1.68980175173728 0.550096341885383 1.61046480180068 1.45636017520098 1.68980175173728 0.626330517411339 1.61046480180068 1.51606903142344 1.68980175173728 0.702564692937296 1.68980175173728 0.778798868463252 1.68980175173728 0.855033043989209 1.68980175173728 0.931267219515165 1.68980175173728 1.00750139504112 1.68980175173728 1.08373557056708 1.68980175173728 1.15996974609303 1.68980175173728 1.23620392161899 1.68980175173728 1.31243809714495 1.76913870167388 0.473862166359427 1.68980175173728 1.38867227267078 1.76913870167388 0.550096341885383 1.68980175173728 1.45636017520098 1.76913870167388 0.626330517411339 1.68980175173728 1.51606903142344 1.76913870167388 0.702564692937296 1.76913870167388 0.778798868463252 1.76913870167388 0.855033043989209 1.76913870167388 0.931267219515165 1.76913870167388 1.00750139504112 1.76913870167388 1.08373557056708 1.76913870167388 1.15996974609303 1.76913870167388 1.23620392161899 1.76913870167388 1.31243809714495 1.84847565161048 0.473862166359427 1.76913870167388 1.38867227267078 1.84847565161048 0.550096341885383 1.76913870167388 1.45636017520098 1.84847565161048 0.626330517411339 1.76913870167388 1.51606903142344 1.84847565161048 0.702564692937296 1.84847565161048 0.778798868463252 1.84847565161048 0.855033043989209 1.84847565161048 0.931267219515165 1.84847565161048 1.00750139504112 1.84847565161048 1.08373557056708 1.84847565161048 1.15996974609303 1.84847565161048 1.23620392161899 1.84847565161048 1.31243809714495 1.92781260154708 0.473862166359427 1.84847565161048 1.38867227267078 1.92781260154708 0.550096341885383 1.84847565161048 1.45636017520098 1.92781260154708 0.626330517411339 1.84847565161048 1.51606903142344 1.92781260154708 0.702564692937296 1.92781260154708 0.778798868463252 1.92781260154708 0.855033043989209 1.92781260154708 0.931267219515165 1.92781260154708 1.00750139504112 1.92781260154708 1.08373557056708 1.92781260154708 1.15996974609303 1.92781260154708 1.23620392161899 1.92781260154708 1.31243809714495 2.00714955148369 0.473862166359427 1.92781260154708 1.38867227267078 2.00714955148369 0.550096341885383 1.92781260154708 1.45636017520098 2.00714955148369 0.626330517411339 1.92781260154708 1.51606903142344 2.00714955148369 0.702564692937296 2.00714955148369 0.778798868463252 2.00714955148369 0.855033043989209 2.00714955148369 0.931267219515165 2.00714955148369 1.00750139504112 2.00714955148369 1.08373557056708 2.00714955148369 1.15996974609303 2.00714955148369 1.23620392161899 2.00714955148369 1.31243809714495 2.08648650142029 0.473862166359427 2.00714955148369 1.38867227267078 2.08648650142029 0.550096341885383 2.00714955148369 1.45636017520098 2.08648650142029 0.626330517411339 2.00714955148369 1.51606903142344 2.08648650142029 0.702564692937296 2.08648650142029 0.778798868463252 2.08648650142029 0.855033043989209 2.08648650142029 0.931267219515165 2.08648650142029 1.00750139504112 2.08648650142029 1.08373557056708 2.08648650142029 1.15996974609303 2.08648650142029 1.23620392161899 2.08648650142029 1.31243809714495 2.16582345135689 0.473862166359427 2.08648650142029 1.38867227267078 2.16582345135689 0.550096341885383 2.08648650142029 1.45636017520098 2.16582345135689 0.626330517411339 2.08648650142029 1.51606903142344 2.16582345135689 0.702564692937296 2.16582345135689 0.778798868463252 2.16582345135689 0.855033043989209 2.16582345135689 0.931267219515165 2.16582345135689 1.00750139504112 2.16582345135689 1.08373557056708 2.16582345135689 1.15996974609303 2.16582345135689 1.23620392161899 2.16582345135689 1.31243809714495 2.24516040129349 0.473862166359427 2.16582345135689 1.38867227267078 2.24516040129349 0.550096341885383 2.16582345135689 1.45636017520098 2.24516040129349 0.626330517411339 2.16582345135689 1.51606903142344 2.24516040129349 0.702564692937296 2.24516040129349 0.778798868463252 2.24516040129349 0.855033043989209 2.24516040129349 0.931267219515165 2.24516040129349 1.00750139504112 2.24516040129349 1.08373557056708 2.24516040129349 1.15996974609303 2.24516040129349 1.23620392161899 2.24516040129349 1.31243809714495 2.3244973512301 0.473862166359427 2.24516040129349 1.38867227267078 2.3244973512301 0.550096341885383 2.24516040129349 1.45636017520098 2.3244973512301 0.626330517411339 2.24516040129349 1.51606903142344 2.3244973512301 0.702564692937296 2.3244973512301 0.778798868463252 2.3244973512301 0.855033043989209 2.3244973512301 0.931267219515165 2.3244973512301 1.00750139504112 2.3244973512301 1.08373557056708 2.3244973512301 1.15996974609303 2.3244973512301 1.23620392161899 2.3244973512301 1.31243809714495 2.4038343011667 0.473862166359427 2.3244973512301 1.38867227267078 2.4038343011667 0.550096341885383 2.3244973512301 1.45636017520098 2.4038343011667 0.626330517411339 2.3244973512301 1.51606903142344 2.4038343011667 0.702564692937296 2.4038343011667 0.778798868463252 2.4038343011667 0.855033043989209 2.4038343011667 0.931267219515165 2.4038343011667 1.00750139504112 2.4038343011667 1.08373557056708 2.4038343011667 1.15996974609303 2.4038343011667 1.23620392161899 2.4038343011667 1.31243809714495 2.4831712511033 0.473862166359427 2.4038343011667 1.38867227267078 2.4831712511033 0.550096341885383 2.4038343011667 1.45636017520098 2.4831712511033 0.626330517411339 2.4038343011667 1.51606903142344 2.4831712511033 0.702564692937296 2.4831712511033 0.778798868463252 2.4831712511033 0.855033043989209 2.4831712511033 0.931267219515165 2.4831712511033 1.00750139504112 2.4831712511033 1.08373557056708 2.4831712511033 1.15996974609303 2.4831712511033 1.23620392161899 2.4831712511033 1.31243809714495 2.5625082010399 0.473862166359427 2.4831712511033 1.38867227267078 2.5625082010399 0.550096341885383 2.4831712511033 1.45636017520098 2.5625082010399 0.626330517411339 2.4831712511033 1.51606903142344 2.5625082010399 0.702564692937296 2.5625082010399 0.778798868463252 2.5625082010399 0.855033043989209 2.5625082010399 0.931267219515165 2.5625082010399 1.00750139504112 2.5625082010399 1.08373557056708 2.5625082010399 1.15996974609303 2.5625082010399 1.23620392161899 2.5625082010399 1.31243809714495 2.64184515097651 0.473862166359427 2.5625082010399 1.38867227267078 2.64184515097651 0.550096341885383 2.5625082010399 1.45636017520098 2.64184515097651 0.626330517411339 2.5625082010399 1.51606903142344 2.64184515097651 0.702564692937296 2.64184515097651 0.778798868463252 2.64184515097651 0.855033043989209 2.64184515097651 0.931267219515165 2.64184515097651 1.00750139504112 2.64184515097651 1.08373557056708 2.64184515097651 1.15996974609303 2.64184515097651 1.23620392161899 2.64184515097651 1.31243809714495 2.72118210091311 0.473862166359427 2.64184515097651 1.38867227267078 2.72118210091311 0.550096341885383 2.64184515097651 1.45636017520098 2.72118210091311 0.626330517411339 2.64184515097651 1.51606903142344 2.72118210091311 0.702564692937296 2.72118210091311 0.778798868463252 2.72118210091311 0.855033043989209 2.72118210091311 0.931267219515165 2.72118210091311 1.00750139504112 2.72118210091311 1.08373557056708 2.72118210091311 1.15996974609303 2.72118210091311 1.23620392161899 2.72118210091311 1.31243809714495 2.80051905084971 0.473862166359427 2.72118210091311 1.38867227267078 2.80051905084971 0.550096341885383 2.72118210091311 1.45636017520098 2.80051905084971 0.626330517411339 2.72118210091311 1.51606903142344 2.80051905084971 0.702564692937296 2.80051905084971 0.778798868463252 2.80051905084971 0.855033043989209 2.80051905084971 0.931267219515165 2.80051905084971 1.00750139504112 2.80051905084971 1.08373557056708 2.80051905084971 1.15996974609303 2.80051905084971 1.23620392161899 2.80051905084971 1.31243809714495 2.87985600078631 0.473862166359427 2.80051905084971 1.38867227267078 2.87985600078631 0.550096341885383 2.80051905084971 1.45636017520098 2.87985600078631 0.626330517411339 2.80051905084971 1.51606903142344 2.87985600078631 0.702564692937296 2.87985600078631 0.778798868463252 2.87985600078631 0.855033043989209 2.87985600078631 0.931267219515165 2.87985600078631 1.00750139504112 2.87985600078631 1.08373557056708 2.87985600078631 1.15996974609303 2.87985600078631 1.23620392161899 2.87985600078631 1.31243809714495 2.87985600078631 1.38867227267078 2.87985600078631 1.45636017520098 2.87985600078631 1.51606903142344 35 36 39 103 57 56 109 44 43 109 43 90 110 45 44 110 44 109 111 45 110 111 46 45 112 47 46 112 46 111 113 47 112 113 48 47 114 49 48 114 48 113 115 49 114 115 50 49 116 51 50 116 50 115 117 51 116 117 52 51 118 53 52 118 52 117 119 53 118 119 54 53 120 54 119 120 55 54 121 109 90 121 90 89 122 55 120 122 41 40 122 40 55 123 110 109 123 109 121 124 41 122 124 38 37 124 42 41 124 37 42 125 110 123 125 111 110 126 39 38 126 35 39 126 38 124 127 111 125 127 112 111 128 113 112 128 112 127 129 114 113 129 113 128 130 114 129 130 115 114 131 115 130 131 116 115 132 116 131 132 117 116 133 118 117 133 117 132 134 119 118 134 118 133 135 120 119 135 119 134 136 89 88 136 121 89 137 120 135 137 122 120 138 123 121 138 121 136 139 124 122 139 122 137 140 123 138 140 125 123 141 34 35 141 124 139 141 126 124 141 35 126 142 125 140 142 127 125 143 128 127 143 127 142 144 129 128 144 128 143 145 129 144 145 130 129 146 131 130 146 130 145 147 131 146 147 132 131 148 132 147 148 133 132 149 134 133 149 133 148 150 135 134 150 134 149 151 136 88 151 88 87 152 135 150 152 137 135 153 138 136 153 136 151 154 137 152 154 139 137 155 140 138 155 138 153 156 139 154 156 141 139 156 33 34 156 34 141 157 142 140 157 140 155 158 143 142 158 142 157 159 143 158 159 144 143 160 144 159 160 145 144 161 146 145 161 145 160 162 146 161 162 147 146 163 147 162 163 148 147 164 149 148 164 148 163 165 150 149 165 149 164 166 151 87 166 87 86 167 152 150 167 150 165 168 153 151 168 151 166 169 154 152 169 152 167 170 155 153 170 153 168 171 32 33 171 156 154 171 33 156 171 154 169 172 157 155 172 155 170 173 158 157 173 157 172 174 159 158 174 158 173 175 159 174 175 160 159 176 160 175 176 161 160 177 162 161 177 161 176 178 162 177 178 163 162 179 164 163 179 163 178 180 164 179 180 165 164 181 86 85 181 166 86 182 165 180 182 167 165 183 166 181 183 168 166 184 167 182 184 169 167 185 168 183 185 170 168 186 31 32 186 32 171 186 169 184 186 171 169 187 172 170 187 170 185 188 172 187 188 173 172 189 173 188 189 174 173 190 174 189 190 175 174 191 176 175 191 175 190 192 176 191 192 177 176 193 178 177 193 177 192 194 179 178 194 178 193 195 180 179 195 179 194 196 181 85 196 85 84 197 182 180 197 180 195 198 183 181 198 181 196 199 184 182 199 182 197 200 183 198 200 185 183 201 31 186 201 30 31 201 186 184 201 184 199 202 187 185 202 185 200 203 188 187 203 187 202 204 189 188 204 188 203 205 190 189 205 189 204 206 191 190 206 190 205 207 192 191 207 191 206 208 192 207 208 193 192 209 193 208 209 194 193 210 194 209 210 195 194 211 196 84 211 84 83 212 195 210 212 197 195 213 198 196 213 196 211 214 197 212 214 199 197 215 200 198 215 198 213 216 199 214 216 30 201 216 29 30 216 201 199 217 200 215 217 202 200 218 202 217 218 203 202 219 203 218 219 204 203 220 204 219 220 205 204 221 206 205 221 205 220 222 207 206 222 206 221 223 207 222 223 208 207 224 208 223 224 209 208 225 210 209 225 209 224 226 83 82 226 211 83 227 210 225 227 212 210 228 211 226 228 213 211 229 214 212 229 216 214 229 212 227 230 213 228 230 215 213 231 28 29 231 29 216 231 216 229 232 215 230 232 217 215 233 218 217 233 217 232 234 219 218 234 218 233 235 220 219 235 219 234 236 221 220 236 220 235 237 221 236 237 222 221 238 223 222 238 222 237 239 224 223 239 223 238 240 225 224 240 224 239 241 82 81 241 226 82 242 227 225 242 225 240 243 228 226 243 230 228 243 226 241 244 229 227 244 227 242 245 230 243 246 229 244 246 28 231 246 27 28 246 231 229 247 232 230 247 230 245 248 234 233 248 232 247 248 233 232 249 234 248 250 234 249 250 235 234 251 235 250 251 236 235 252 236 251 252 237 236 253 237 252 253 238 237 254 239 238 254 238 253 255 240 239 255 239 254 256 81 80 256 241 81 257 242 240 257 240 255 258 245 243 258 243 241 258 241 256 259 244 242 259 242 257 260 245 258 261 27 246 261 26 27 261 244 259 261 246 244 262 247 245 262 245 260 263 247 262 263 248 247 264 248 263 264 249 248 265 249 264 265 250 249 266 250 265 266 251 250 267 251 266 267 252 251 268 253 252 268 252 267 269 254 253 269 253 268 270 254 269 270 255 254 271 256 80 271 258 256 271 80 79 272 257 255 272 255 270 273 258 271 274 259 257 274 257 272 275 260 258 275 262 260 275 258 273 276 259 274 276 25 26 276 26 261 276 261 259 277 262 275 278 262 277 278 263 262 279 263 278 279 265 264 279 264 263 280 265 279 281 265 280 281 266 265 282 266 281 282 267 266 283 267 282 283 268 267 284 268 283 284 270 269 284 269 268 285 270 284 286 79 78 286 271 79 287 270 285 287 272 270 288 273 271 288 271 286 289 274 272 289 272 287 290 273 288 290 275 273 291 25 276 291 24 25 291 274 289 291 276 274 292 277 275 292 275 290 293 277 292 293 278 277 294 278 293 294 279 278 295 279 294 295 280 279 296 280 295 296 281 280 297 282 281 297 281 296 298 283 282 298 282 297 299 284 283 299 283 298 300 285 284 300 284 299 301 286 78 301 78 77 302 287 285 302 285 300 303 286 301 303 288 286 304 289 287 304 287 302 305 288 303 305 290 288 306 23 24 306 24 291 306 291 289 306 289 304 307 290 305 307 292 290 308 293 292 308 292 307 309 294 293 309 293 308 310 294 309 310 295 294 311 296 295 311 295 310 312 297 296 312 298 297 312 296 311 313 298 312 314 298 313 314 299 298 315 299 314 315 300 299 316 77 76 316 301 77 317 300 315 317 302 300 317 304 302 318 301 316 318 303 301 319 304 317 320 303 318 320 305 303 321 22 23 321 304 319 321 23 306 321 306 304 322 305 320 322 307 305 323 307 322 323 308 307 324 309 308 324 308 323 325 310 309 325 309 324 326 311 310 326 310 325 327 311 326 327 312 311 327 313 312 328 313 327 329 314 313 329 315 314 329 313 328 330 315 329 331 316 76 331 76 75 332 315 330 332 317 315 333 318 316 333 316 331 334 319 317 334 317 332 335 320 318 335 318 333 336 21 22 336 321 319 336 22 321 336 319 334 337 322 320 337 320 335 338 323 322 338 322 337 339 324 323 339 323 338 340 325 324 340 324 339 341 325 340 341 326 325 342 327 326 342 326 341 343 327 342 343 328 327 344 328 343 344 329 328 345 329 344 345 330 329 346 75 74 346 331 75 347 330 345 347 332 330 348 331 346 348 333 331 349 332 347 349 334 332 350 335 333 350 333 348 351 20 21 351 334 349 351 21 336 351 336 334 352 335 350 352 337 335 353 337 352 353 338 337 353 339 338 354 339 353 355 340 339 355 339 354 356 340 355 356 341 340 357 343 342 357 341 356 357 342 341 358 343 357 358 344 343 359 344 358 360 345 344 360 344 359 361 346 74 361 74 73 362 347 345 362 349 347 362 345 360 363 346 361 363 348 346 364 349 362 365 348 363 365 350 348 366 19 20 366 20 351 366 349 364 366 351 349 367 352 350 367 350 365 368 352 367 368 353 352 369 354 353 369 355 354 369 353 368 370 356 355 370 355 369 371 356 370 372 357 356 372 358 357 372 356 371 373 358 372 374 359 358 374 358 373 375 360 359 375 359 374 376 361 73 376 73 72 377 362 360 377 360 375 378 363 361 378 361 376 379 362 377 379 364 362 380 363 378 380 365 363 381 364 379 381 17 18 381 18 19 381 19 366 381 366 364 382 365 380 382 367 365 383 368 367 383 367 382 383 369 368 384 369 383 385 369 384 385 370 369 385 371 370 386 371 385 387 371 386 387 372 371 388 372 387 388 373 372 389 374 373 389 373 388 390 375 374 390 374 389 391 378 376 391 376 72 391 72 71 392 375 390 392 377 375 393 378 391 394 377 392 394 379 377 394 381 379 395 380 378 395 382 380 395 378 393 396 381 394 396 17 381 397 382 395 398 382 397 398 383 382 399 385 384 399 383 398 399 384 383 400 385 399 401 385 400 401 386 385 402 387 386 402 388 387 402 386 401 403 389 388 403 388 402 404 389 403 405 390 389 405 392 390 405 389 404 406 393 391 406 391 71 406 71 70 407 394 392 407 392 405 408 393 406 408 395 393 409 394 407 410 395 408 411 394 409 411 16 17 411 17 396 411 396 394 412 397 395 412 395 410 413 397 412 413 398 397 414 398 413 414 399 398 415 400 399 415 399 414 416 400 415 416 401 400 416 402 401 417 402 416 418 402 417 418 403 402 418 404 403 419 404 418 419 405 404 420 405 419 421 406 70 421 70 69 422 405 420 422 407 405 423 408 406 423 406 421 424 409 407 424 407 422 424 411 409 425 410 408 425 408 423 426 16 411 426 15 16 426 411 424 427 412 410 427 410 425 428 413 412 428 412 427 429 414 413 429 413 428 430 414 429 430 415 414 431 415 430 431 416 415 432 417 416 432 416 431 433 418 417 433 417 432 434 419 418 434 418 433 435 420 419 435 422 420 435 419 434 436 421 69 436 69 68 436 423 421 437 422 435 438 423 436 439 424 422 439 422 437 440 425 423 440 423 438 441 14 15 441 424 439 441 15 426 441 426 424 442 427 425 442 428 427 442 425 440 443 428 442 444 429 428 444 428 443 445 430 429 445 429 444 446 431 430 446 432 431 446 430 445 447 432 446 448 432 447 448 433 432 449 433 448 449 434 433 450 434 449 450 435 434 451 68 67 451 436 68 452 435 450 452 437 435 453 436 451 453 438 436 454 437 452 454 439 437 455 438 453 455 440 438 456 13 14 456 439 454 456 14 441 456 441 439 457 442 440 457 440 455 458 443 442 458 442 457 459 444 443 459 443 458 460 445 444 460 444 459 460 446 445 461 446 460 462 446 461 462 447 446 463 448 447 463 447 462 464 449 448 464 448 463 465 450 449 465 449 464 466 451 67 466 67 66 467 452 450 467 450 465 467 454 452 468 453 451 468 455 453 468 451 466 469 454 467 470 455 468 471 12 13 471 13 456 471 456 454 471 454 469 472 457 455 472 458 457 472 455 470 473 459 458 473 458 472 474 459 473 475 460 459 475 461 460 475 459 474 476 461 475 477 462 461 477 461 476 478 463 462 478 462 477 479 463 478 479 464 463 480 464 479 480 465 464 481 66 65 481 466 66 482 465 480 482 467 465 483 466 481 483 468 466 484 467 482 484 469 467 485 470 468 485 468 483 486 11 12 486 469 484 486 12 471 486 471 469 487 470 485 487 472 470 488 472 487 488 474 473 488 473 472 489 474 488 490 475 474 490 476 475 490 474 489 491 476 490 492 477 476 492 476 491 493 478 477 493 477 492 494 479 478 494 478 493 495 480 479 495 479 494 496 481 65 496 65 64 497 482 480 497 480 495 497 484 482 498 483 481 498 481 496 499 484 497 500 485 483 500 483 498 501 10 11 501 11 486 501 486 484 501 484 499 502 487 485 502 485 500 503 488 487 503 489 488 503 487 502 504 489 503 505 490 489 505 489 504 506 490 505 506 491 490 507 492 491 507 491 506 508 493 492 508 492 507 509 494 493 509 495 494 509 493 508 510 495 509 511 64 63 511 496 64 511 498 496 512 495 510 512 497 495 513 498 511 514 497 512 514 499 497 515 502 500 515 500 498 515 498 513 516 9 10 516 499 514 516 10 501 516 501 499 517 502 515 518 502 517 518 503 502 519 503 518 519 504 503 519 505 504 520 505 519 521 505 520 521 506 505 522 506 521 522 507 506 522 508 507 523 508 522 524 509 508 524 508 523 525 509 524 525 510 509 526 63 62 526 511 63 526 513 511 527 512 510 527 510 525 528 513 526 529 514 512 529 516 514 529 512 527 530 515 513 530 513 528 531 7 8 531 8 9 531 9 516 531 516 529 532 517 515 532 515 530 533 518 517 533 517 532 534 519 518 534 518 533 534 520 519 535 520 534 536 522 521 536 520 535 536 521 520 537 522 536 538 523 522 538 524 523 538 522 537 539 524 538 540 525 524 540 524 539 541 526 62 541 62 61 542 527 525 542 525 540 543 526 541 543 528 526 544 529 527 544 527 542 545 530 528 545 528 543 546 529 544 546 7 531 546 531 529 547 530 545 547 532 530 548 532 547 548 534 533 548 533 532 549 535 534 549 534 548 550 535 549 551 535 550 551 536 535 551 537 536 552 537 551 553 537 552 553 538 537 554 538 553 554 539 538 555 542 540 555 539 554 555 540 539 556 61 60 556 541 61 556 543 541 557 544 542 557 542 555 558 543 556 559 544 557 560 543 558 560 545 543 561 6 7 561 7 546 561 544 559 561 546 544 562 547 545 562 545 560 563 547 562 563 548 547 564 549 548 564 548 563 565 550 549 565 549 564 566 551 550 566 550 565 567 552 551 567 551 566 568 553 552 568 552 567 569 554 553 569 553 568 570 554 569 570 555 554 571 60 59 571 556 60 572 557 555 572 555 570 573 558 556 573 556 571 574 559 557 574 557 572 575 560 558 575 558 573 576 5 6 576 561 559 576 6 561 576 559 574 577 562 560 577 560 575 578 563 562 578 562 577 579 564 563 579 565 564 579 563 578 580 565 579 581 566 565 581 565 580 581 567 566 582 567 581 583 567 582 583 568 567 584 568 583 584 569 568 585 569 584 585 570 569 586 59 58 586 571 59 587 570 585 587 572 570 588 571 586 588 573 571 589 572 587 589 574 572 590 573 588 590 575 573 591 576 574 591 4 5 591 574 589 591 5 576 592 575 590 592 577 575 592 578 577 593 579 578 593 578 592 594 579 593 595 581 580 595 579 594 595 580 579 596 581 595 597 582 581 597 581 596 598 583 582 598 584 583 598 582 597 599 584 598 600 584 599 600 585 584 601 103 102 601 588 586 601 58 57 601 57 103 601 586 58 602 587 585 602 585 600 603 588 601 603 601 102 603 590 588 604 589 587 604 587 602 605 590 603 605 592 590 605 603 102 605 102 101 606 2 3 606 3 4 606 4 591 606 591 589 606 589 604 607 592 605 607 605 101 607 101 100 608 593 592 608 607 100 608 592 607 608 99 98 608 100 99 609 594 593 609 595 594 609 593 608 609 608 98 610 595 609 610 98 97 610 609 98 611 610 97 611 596 595 611 595 610 611 97 96 612 611 96 612 597 596 612 596 611 612 96 95 613 612 95 613 598 597 613 597 612 613 95 94 614 598 613 614 613 94 614 599 598 614 93 92 614 94 93 615 599 614 615 614 92 615 600 599 615 602 600 616 105 104 616 106 105 616 91 106 616 602 615 616 615 92 616 604 602 616 92 91 617 104 108 617 616 104 617 604 616 618 1 2 618 107 1 618 108 107 618 617 108 618 604 617 618 2 606 618 606 604 
39 37 1 0 0.000825932331537517
47.0162332999 101.5624102485 -3.205215297693 46.96951756487 101.1903849694 -3.205215284576 47.0178840879939 101.562202958387 -3.21276956820125 47.0201092958104 101.561923535942 -3.22017263602025 47.0228956094406 101.561573654657 -3.22738020699138 47.0262263569657 101.561155408049 -3.23434915458501 47.0300816088445 101.560671298699 -3.24103778007542 47.0344382971622 101.560124223277 -3.24740606204533 47.0392703536567 101.559517455211 -3.25341589585418 47.0445488656988 101.558854625099 -3.25903132163744 47.05024224929 101.558139699 -3.264218739475 47.0563164380583 101.557376954642 -3.26894711043093 47.0627350870568 101.556570955944 -3.27318814227563 47.0694597902776 101.555726525592 -3.2769164587785 47.0764503104322 101.554848716236 -3.28010975154282 47.0836648197151 101.553942780253 -3.28274891348859 47.0910601500814 101.553014138315 -3.28481815317974 47.0985920515422 101.552068346955 -3.28630508931232 47.1062154569349 101.551111065318 -3.28720082479802 47.11388475157 101.5501480212 -3.2875 47.0671690172 101.1781227286 -3.287499999994 47.0491426483698 101.178730766844 -3.28584612052456 47.0551515990665 101.179631772538 -3.28676381237341 47.0611492186659 101.178878643088 -3.28731578341064 47.00352651492 101.1861144063 -3.264218739507 47.0092850614981 101.185391297565 -3.26871955169485 47.0153558402407 101.18462898142 -3.27278225704988 47.0217061047274 101.183831569861 -3.27638494091093 47.0283016009614 101.183003364209 -3.27950817002108 47.0351067521401 101.182148831894 -3.28213509735292 47.0420848505598 101.181272582353 -3.28425155298323 46.9711683535674 101.190177665688 -3.21276956815391 46.9733935613846 101.189898243242 -3.22017263598608 46.9761798750175 101.189548361957 -3.22738020696992 46.979510622547 101.189130115349 -3.23434915457556 46.9833658744322 101.188646005998 -3.24103778007708 46.9877225627578 101.188098930575 -3.24740606205699 46.9925546192619 101.187492162507 -3.25341589587456 46.9978331313149 101.186829332394 -3.25903132166505 5.58683361283904 0.0164181885625823 5.58683361209715 0.391365089138205 5.66420602326751 0.0164181885626012 5.74157843369598 0.0164181885626202 5.81895084412445 0.0164181885626391 5.89632325455293 0.016418188562658 5.9736956649814 0.016418188562677 6.05106807540987 0.0164181885626959 6.12844048583834 0.0164181885627149 6.20581289626681 0.0164181885627338 6.28318530717959 0.0164181885627244 6.36055771768024 0.0164181885627591 6.4379301281809 0.0164181885627938 6.51530253868156 0.0164181885628286 6.59267494918221 0.0164181885628633 6.67004735968287 0.0164181885628981 6.74741977018353 0.0164181885629328 6.82479218068418 0.0164181885629675 6.90216459118484 0.0164181885630023 6.97953700179892 0.0164181886672428 6.97953700149223 0.391365089138205 6.79741294788839 0.391365089138205 6.85812096575634 0.391365089138205 6.91882898362429 0.391365089138205 6.2831853071462 0.391365089138205 6.35664639870942 0.391365089138205 6.43010749023925 0.391365089138205 6.50356858176907 0.391365089138205 6.5770296732989 0.391365089138205 6.65049076482873 0.391365089138205 6.72395185635856 0.391365089138205 5.66420602265815 0.391365089138205 5.74157843321916 0.391365089138205 5.81895084378016 0.391365089138205 5.89632325434117 0.391365089138205 5.97369566490218 0.391365089138205 6.05106807546318 0.391365089138205 6.12844048602419 0.391365089138205 6.2058128965852 0.391365089138205 32 2 1 32 1 3 33 3 4 33 32 3 34 4 5 34 33 4 35 5 6 35 34 5 36 6 7 36 35 6 37 7 8 37 8 9 37 36 7 38 9 10 38 37 9 39 10 11 39 38 10 25 39 11 26 11 12 26 25 11 27 12 13 27 26 12 28 13 14 28 27 13 29 14 15 29 28 14 30 15 16 30 29 15 31 30 16 31 16 17 22 31 17 22 17 18 23 22 18 23 18 19 24 23 19 24 19 20 21 24 20 

TShapes 8
Ve
1e-07
47.05085148523 101.1771837274 -3.286155240233
0 0

0101101
*
Ve
0.00421193879601256
47.0491426483698 101.178730766844 -3.28584612052456
0 0

0101101
*
Ed
 1e-07 1 1 0
1  1 0 0 0.017942167971442
2  1 1 0 0 0.017942167971442
2  2 2 0 0 0.017942167971442
4 C0 1 0 2 0
6  1 1 0
0

0101000
+8 0 -7 0 *
Ve
0.00286861264181315
47.0671690172 101.1781227286 -3.287499999994
0 0

0101101
*
Ed
 1e-07 1 1 0
1  2 0 0 0.164181886174253
2  3 1 0 0 0.164181886174253
2  4 2 0 0 0.164181886174253
4 C0 1 0 2 0
6  2 1 0
0

0101000
+5 0 -8 0 *
Ed
 0.00286861264181315 1 1 0
1  3 0 0.514227640708806 0.696351694312647
2  5 3 0 0.514227640708806 0.696351694312647
2  6 1 0 0.514227640708806 0.696351694312647
4 C0 3 0 1 0
6  3 2 0
0

0101000
+7 0 -5 0 *
Wi

0101100
-6 0 -4 0 -3 0 *
Fa
0  1e-07 1 0

0111000
+2 0 *

-1 0 