DBRep_DrawableShape

CASCADE Topology V3, (c) Open Cascade
Locations 0
Curve2ds 0
Curves 1
1 11.039999999999999 -43.875 -0.77300000000000002 1.33226762955e-13 0 -1 
Polygon3D 0
PolygonOnTriangulations 0
Surfaces 2
1 10.039999999999999 -43.875 -0.78000000000000003 0 1 0 0 -0 1 1 0 -0 
1 11.039999999999999 -44.875 -0.78000000000000003 1 0 0 0 0 -1 -0 1 0 
Triangulations 0

TShapes 4
Ve
0.0133360008001
11.04 -43.875 -0.780333333399967
0 0

0101101
*
Ed
 1e-07 1 1 0
1  1 0 0 0.0133333333333
4 C0 2 0 1 0
0

0101000
+4 0 -4 0 *
Wi

0101100
+3 0 *
Fa
0  1e-07 1 0

0111000
+2 0 *

+1 0 