DBRep_DrawableShape

CASCADE Topology V3, (c) Open Cascade
Locations 0
Curve2ds 2
7 0 0  1 2 2  -0.017155197617608309 0.22816998785000209  0.21973677034740557 0.0040504550299971243 
 0 2 0.22413050462816844 2
7 0 0  1 2 2  -0.017155197617608309 0.22816998785000209  0.21973677034764005 0.0040504550299971243 
 0 2 0.22413050462816847 2
Curves 2
1 15.5544756589 59.455057909239997 -0.034386249940099999 -0.00043064894406450718 0.9999510472339167 -0.0098852252012991641 
1 15.5544756589 59.455057909239997 -0.034386249940099999 -0.00043064894407250718 0.9999510472339167 -0.009885225201300165 
Polygon3D 0
PolygonOnTriangulations 2
3 25 26 24 
p 0.0166666666666667 1 0 0.0747101682093895 0.224130504628168 
3 42 43 33 
p 0.0166666666666667 1 0 0.0747101682093895 0.224130504628168 
Surfaces 3
2 15.56096070864 59.683227897089999 -0.040000000000000001 0 -1 0 -0.76718739504239408 0 0.64142302803069506 -0.64142302803069506 -0 -0.76718739504239408 0.0099999999994469999
1 15.766594376980001 58.237500375700002 -1.238857649893 0.98418332397358166 0 0.1771529983158967 -0.1771529983158967 0 0.98418332397358166 0 -1 0 
1 17.099 59.91485122692 -0.029999999999999999 0 0 1 1 0 -0 -0 1 0 
Triangulations 2
132 130 1 0 0.0296442309138874
15.5573531583771 56.7972594601322 -0.0306840107312774 15.6062312859358 56.9980412676232 -0.319049512532819 15.7025151487102 57.1713853640189 -0.876025738142488 15.7527879763318 57.2758202673169 -1.16318445914247 15.8182814137091 57.4439659773929 -1.52782019461659 15.9000408831666 57.6883051623171 -1.9800171835621 15.9392614588214 57.8239758025708 -2.19815430808257 15.9516439071669 57.8733333916199 -2.26695972725809 15.9644934151696 57.9319347156906 -2.33832957364263 15.9729547982703 57.9770125439989 -2.38531929968325 15.9787683166876 58.0124277026574 -2.4176060714233 15.98418875361 58.05002655133 -2.447715297759 15.98418875071 58.42497343618 -2.447715281599 15.979041925528 58.4607712387875 -2.41912338209393 15.9735371896464 58.4945517979467 -2.38854541532929 15.9677149683072 58.5265090829718 -2.35620473304365 15.961615686752 58.556837063177 -2.32232468697556 15.9531221995754 58.5950751515575 -2.27514276637628 15.9398027979285 58.6486535992567 -2.20114129879033 15.9150634705941 58.7374486596151 -2.06364012241195 15.8873761347253 58.8275521561091 -1.90978175222408 15.8183114330297 59.0257399335542 -1.52643727486455 15.7221703622156 59.2762452980444 -0.984736658029557 15.55437913734 59.67917744206 -0.03660183045288 15.5544756589 59.45505790924 -0.0343862499401 15.5544434850449 59.52976442018 -0.0351247767776768 15.83683222174 58.92994666815 -1.629067898566 15.8395752521721 58.9245309412519 -1.64430695652552 15.8415909363442 58.9197651318239 -1.65550520192814 15.8426032267624 58.9168841352293 -1.66112903758602 15.8439329036251 58.9120751655497 -1.66851613126863 15.8489006378578 58.884457956887 -1.69611465477079 15.8496565608491 58.8799642492866 -1.70031422694165 15.8503296337427 58.875544572074 -1.7040535207923 15.851201951298 58.8689873373571 -1.70889972942906 15.8521320143238 58.8604517660892 -1.71406674623452 15.8525366071174 58.8560009622669 -1.71631448397507 15.8529087315312 58.8513667242962 -1.71838184182792 15.8536294361516 58.8405975396919 -1.72238575638305 15.8543497191059 58.8274536845423 -1.726387328351 15.8548994213636 58.814462251122 -1.72944122978542 15.8552252343816 58.8029208979831 -1.73125130211222 15.8553665470887 58.7926694268082 -1.7320363727126 15.8553679763592 58.7825429479435 -1.73204431311059 15.8552198777095 58.7714250567642 -1.73122154284029 15.854889288326 58.7592202045751 -1.72938493515818 15.8544183566573 58.747793307897 -1.72676864811016 15.853848906812 58.7376392113456 -1.7236050378577 15.8532066018891 58.7286165067983 -1.72003667717445 15.8523875380367 58.7192231764253 -1.71548632243958 15.8511905219434 58.7077925165087 -1.70883623303434 15.849814169668 58.6965221017526 -1.70118983150524 15.8482660250315 58.6854051914047 -1.69258902796816 15.8471015574397 58.6783792065294 -1.68611976356726 15.8463116279106 58.6742838248996 -1.68173126618157 15.845508242668 58.6706005682494 -1.67726801483235 15.8441498687021 58.6652786771966 -1.66972149279736 15.8427229299817 58.6606401125158 -1.66179405545978 15.8362741735963 58.6424270128948 -1.62596763107987 15.8346263465467 58.6399035289155 -1.61681303636116 15.8328994106918 58.638533619455 -1.60721894828453 15.830909708972 58.6377721194738 -1.59616504985037 15.82837232374 58.6375 -1.582068465244 15.60684568113 58.6375 -0.3513648951448 15.5924048406274 58.583228628374 -0.27113800237978 15.5812153416825 58.5339386210267 -0.208974119031946 15.5734140677557 58.4937472676355 -0.165633708390322 15.567363580617 58.4573998373121 -0.132019891168131 15.5631395433334 58.4278534479351 -0.108553017603311 15.5597704877149 58.400423595214 -0.0898360421709183 15.5571853861679 58.3756858530918 -0.0754743670967547 15.5552219264615 58.3533868548962 -0.0645662577519033 15.5536033869216 58.3310601127853 -0.0555743715071107 15.552840230428 58.318408340023 -0.0513346132311611 15.55218808642 58.30575030814 -0.04771159096365 15.5496420122873 58.2616608583941 -0.0330081406361311 15.54900000615 58.2375 -0.02999989752989 15.5496438013121 58.2132818088472 -0.0330154243460399 15.55218808642 58.16924969186 -0.0477115909464 15.5532965452527 58.1488082903926 -0.0538696955659987 15.5546943456493 58.1283847451737 -0.0616352532630602 15.5563808233814 58.1079830701137 -0.0710045738916406 15.5583553142206 58.0876072791229 -0.0819739673057959 15.5606171539383 58.0672613861116 -0.0945397433595822 15.5631656783062 58.0469494049904 -0.108698211907056 15.5660002230957 58.0266753496695 -0.124445682802272 15.5691201240785 58.0064432340592 -0.141778465899288 15.5737227314181 57.9795392570852 -0.167348506534748 15.5795036747039 57.9493817810446 -0.199464858062596 15.5859209404541 57.9193532893301 -0.235116334535726 15.5929722868978 57.8894673288892 -0.274290481711577 15.5996673870718 57.8634192475582 -0.311485483094473 15.60684568113 57.8375 -0.3513648951448 15.82837232374 57.8375 -1.582068465244 15.8312819561546 57.8371312855104 -1.59823308975174 15.8334643883911 57.8361127840832 -1.61035771327828 15.8345879974826 57.8351377104195 -1.61659998600512 15.8361237340302 57.8328796298105 -1.62513185571261 15.8423921006907 57.815331636949 -1.65995611495405 15.8433822530021 57.8123198706511 -1.66545696112986 15.8442863133162 57.8092311771782 -1.67047951843139 15.8457215639641 57.8034646440849 -1.67845313314434 15.8464091609598 57.8002373992941 -1.68227311645553 15.8470621058922 57.7968375614287 -1.68590058830338 15.8481897264635 57.7900931146472 -1.6921651470347 15.8497479971053 57.7789852523527 -1.70082220615711 15.8511318190235 57.7677215120673 -1.70851010570134 15.8523375626696 57.7562986506222 -1.71520868151115 15.8531646157837 57.7469124590233 -1.71980342103309 15.8538466185185 57.7373966582129 -1.72359232511568 15.8543912744036 57.7277581316503 -1.72661819114499 15.8548497477957 57.7169175746347 -1.72916526554555 15.8551959882845 57.7047267074309 -1.7310888238132 15.8553571816523 57.6939265954917 -1.73198434251758 15.8553751603902 57.6838091921236 -1.73208422438874 15.855254721462 57.6735681061789 -1.73141511922632 15.8549890654459 57.6631972620601 -1.72993925246584 15.8545891762865 57.6527064744291 -1.72771764602189 15.8540699300144 57.6421090357063 -1.72483294450932 15.8534451457267 57.6314172938932 -1.72136192068954 15.8527577037965 57.6216829114034 -1.71754279885767 15.8522466229745 57.6157541642601 -1.71470346096011 15.8517224639374 57.6105418578627 -1.71179146631198 15.8511627854062 57.6056931419983 -1.70868214114137 15.8501673010484 57.5983459341362 -1.70315167249121 15.848958362586 57.5908725791968 -1.69643534770514 15.8458820059365 57.5738282784942 -1.67934447744014 15.8445181411563 57.5657134201434 -1.67176745088562 15.8431452054845 57.5598891839291 -1.66414003048617 15.8417046734121 57.5555370321405 -1.65613707452718 15.8396544793957 57.5506401192522 -1.64474710776692 15.83683222174 57.54505333185 -1.629067898566 1.26008901389478 1.3591164324763 0.933668632442775 1.23945910807679 0.368444944368079 1.06611501168109 0.0769221376793322 0.96168010838309 -0.293548631300558 0.793534398307121 -0.753077302126905 0.549195213382923 -0.974712264992419 0.413524573129204 -1.04462299899487 0.364166984080052 -1.11714034051066 0.305565660009422 -1.16488580466412 0.260487831701083 -1.197691789214 0.225072673042642 -1.22828503432492 0.187473824370002 -1.22828501790618 -0.187473060479995 -1.19923357169976 -0.223270863087518 -1.16816406626263 -0.257051422246736 -1.13530348210407 -0.289008707271825 -1.10087879973333 -0.319336687476961 -1.05293849356698 -0.357574775857516 -0.977747911281791 -0.411153223556665 -0.838038900449841 -0.499948283915078 -0.681709163692628 -0.590051780409118 -0.292192902754842 -0.788239557854224 0.257971489876362 -1.03874492234439 1.22083469463467 -1.44167706636 1.22299813294506 -1.21755753353533 1.22227698684059 -1.29226404448 -0.396481264382032 -0.692446292450001 -0.411965227164377 -0.687030565551939 -0.423343438042135 -0.682264756123866 -0.429057653596146 -0.679383759529248 -0.436563464254233 -0.67457478984969 -0.464605519865496 -0.646957581187005 -0.468872582788288 -0.642463873586575 -0.472671970320726 -0.638044196374003 -0.477596061715931 -0.631486961657066 -0.482846116944187 -0.622951390389214 -0.485129977771593 -0.618500586566885 -0.487230559850701 -0.613866348596234 -0.491298820770873 -0.603097163991924 -0.495364701456401 -0.589953308842319 -0.498467681724351 -0.576961875422 -0.500306843476605 -0.565420522283084 -0.501104530839406 -0.555169051108226 -0.501112598846251 -0.545042572243516 -0.500276605946918 -0.533924681064156 -0.498410482393014 -0.521719828875096 -0.495752149352503 -0.510292932197008 -0.492537697150995 -0.500138835645608 -0.488911989829685 -0.491116131098346 -0.484288506964203 -0.481722800725289 -0.477531544878674 -0.470292140808716 -0.469762259072999 -0.459021726052566 -0.46102323319485 -0.447904815704719 -0.454450002127777 -0.440878830829416 -0.449990977798931 -0.436783449199585 -0.445455998145804 -0.433100192549368 -0.437788196984069 -0.427778301496642 -0.429733358881854 -0.423139736815843 -0.393331172920462 -0.404926637194852 -0.384029455958025 -0.40240315321552 -0.37428118259969 -0.401033243755003 -0.36304963847046 -0.400271743773811 -0.348726509574164 -0.399999624300001 0.901755529817436 -0.399999624300001 0.983271738004221 -0.345728252674029 1.04643464863635 -0.296438245326665 1.09047157711082 -0.256246891935477 1.12462559741388 -0.219899461612093 1.14846960391196 -0.19035307223515 1.16748737731206 -0.16292321951399 1.18207985691437 -0.138185477391786 1.19316326900173 -0.115886479196171 1.20229966262729 -0.093559737085271 1.2066075574812 -0.080907964323043 1.21028880484561 -0.068249932439997 1.22217156149445 -0.0233571101090373 1.22828513614115 3.75700004440205e-07 1.22215676005951 0.0234132524695461 1.21028880486259 0.0682506838399988 1.20403173418297 0.0886920853073703 1.19614137726486 0.109115630526266 1.18662148355841 0.129517305586312 1.1754758025138 0.149893096577137 1.16270808358117 0.170238989588367 1.14832207621069 0.190550970709629 1.13232152985253 0.21082502603055 1.11471019395685 0.231057141640758 1.08872922067982 0.257961118614836 1.05609673164307 0.288118594655388 1.01987230515453 0.318147086369868 0.980068595608506 0.348033046810767 0.94227583844244 0.374081128141821 0.901755529817436 0.400000375700003 -0.34872650957318 0.400000375700003 -0.365150913559214 0.4003690901896 -0.377470390257814 0.401387591616777 -0.38381298169875 0.402362665280504 -0.392481965921219 0.404620745889479 -0.427865881084828 0.422168738750978 -0.433455130609567 0.425180505048926 -0.438558404744717 0.428269198521846 -0.446660162332607 0.434035731615134 -0.450541536074772 0.437262976405886 -0.454227304528117 0.440662814271287 -0.460592540128708 0.447407261052843 -0.469388725668015 0.458515123347297 -0.47720017639776 0.469778863632727 -0.484006404106257 0.481201725077832 -0.488674985060684 0.490587916676662 -0.492524780104233 0.500103717487133 -0.495599274413963 0.509742244049717 -0.49818728249998 0.520582801065332 -0.500141754010422 0.532773668269103 -0.501051664473985 0.543573780208283 -0.501153151533279 0.553691183576416 -0.500473293273197 0.563932269521115 -0.498973708059348 0.574303113639856 -0.496716398481201 0.584793901270861 -0.493785337323923 0.595391339993676 -0.490258531153498 0.60608308180684 -0.486378032735247 0.615817464296633 -0.483493064225344 0.621746211439899 -0.48053427130814 0.626958517837283 -0.477374976596525 0.63180723370166 -0.471755628538509 0.639154441563814 -0.464931366612283 0.646627796503246 -0.447565831300919 0.663672097205828 -0.439867035385554 0.671786955556625 -0.432117035752722 0.67761119177086 -0.423985465379597 0.681963343559467 -0.412412452016397 0.686860256447816 -0.396481264381467 0.692447043848631 33 21 32 31 32 21 34 21 33 35 21 34 30 31 21 36 21 35 37 21 36 38 21 37 39 21 38 40 21 39 22 27 28 22 28 29 22 29 30 22 30 21 41 21 40 42 21 41 43 21 42 44 21 43 12 13 14 45 21 44 46 21 45 47 21 46 48 21 47 49 21 48 11 14 15 11 12 14 50 21 49 50 20 21 51 20 50 52 20 51 53 20 52 10 15 16 10 11 15 54 20 53 55 20 54 55 19 20 56 19 55 57 19 56 9 16 17 9 10 16 8 9 17 8 17 18 8 18 19 7 8 19 26 23 24 103 104 7 105 6 7 105 7 104 102 103 7 106 6 105 101 19 57 101 7 19 101 102 7 100 101 57 100 57 58 107 6 106 99 100 58 99 58 59 108 6 107 109 6 108 25 23 26 110 6 109 98 99 59 98 59 60 111 6 110 97 98 60 112 6 111 96 60 61 96 97 60 113 6 112 95 96 61 95 61 62 114 6 113 94 62 63 94 95 62 115 6 114 116 6 115 117 6 116 118 6 117 119 6 118 120 6 119 121 6 120 122 6 121 123 6 122 124 6 123 125 6 124 126 6 125 127 6 126 128 6 127 129 6 128 5 6 129 5 129 130 5 130 131 5 131 132 64 94 63 78 75 76 78 76 77 79 75 78 79 74 75 80 74 79 80 73 74 93 94 64 81 73 80 81 72 73 82 72 81 82 71 72 92 93 64 92 64 65 83 70 71 83 71 82 91 92 65 84 69 70 84 70 83 90 65 66 90 91 65 85 69 84 86 68 69 86 69 85 89 66 67 89 90 66 87 67 68 87 68 86 88 89 67 88 67 87 25 27 22 25 22 23 132 1 2 132 2 5 5 2 3 5 3 4 
63 61 1 0 0.00512026740474446
18.33748169413 59.45681344808 -0.03195632349897 18.64229486828 59.45652045502 -0.03291088838872 18.64396339297 59.6791772627 -0.03604076217075 18.61061750873 59.74516052086 -0.03 18.6161016356287 59.7392282414643 -0.0300894927729 18.6194441908766 59.7350523598024 -0.0301657273572222 18.6245922801277 59.7268735441241 -0.0300414932198082 18.627734020739 59.7195059374139 -0.0295138058908191 18.6308395749647 59.7107766468822 -0.0292032543395288 18.6329117872157 59.7056505788767 -0.0296097383034634 18.6374199386998 59.6970521275084 -0.0317717595408627 18.6419057995058 59.6882964323014 -0.0346197393748946 15.58738249464 59.74516052424 -0.03 15.7105445244101 59.8592950336452 -0.03 15.8422954215865 59.9633972569207 -0.03 15.9818201863651 60.0568232266034 -0.03 16.1282557304217 60.1389950175935 -0.03 16.2806962159394 60.209404322183 -0.03 16.4381986590444 60.2676155944042 -0.03 16.599788763024 60.3132687442798 -0.03 16.7644669452428 60.3460813653086 -0.03 16.9312145204764 60.3658504814088 -0.03 17.0990000024112 60.37245380251 -0.03 17.2667854843311 60.3658504810298 -0.03 17.43353305952 60.346081364553 -0.03 17.5982112416647 60.3132687431522 -0.03 17.7598013455411 60.2676155929116 -0.03 17.9173037885147 60.2094043203346 -0.03 18.0697442738734 60.1389950154008 -0.03 18.2161798177444 60.0568232240799 -0.03 18.3557045823119 59.9633972540821 -0.03 18.4874554792531 59.859295030509 -0.03 15.55437913734 59.67917744206 -0.03660183045288 15.5560172499352 59.6874030509279 -0.0352814643623045 15.5584001691923 59.6927165754415 -0.0334775073990489 15.5630275221131 59.7013284562213 -0.0304629649069212 15.566241528954 59.7084706337682 -0.0292297178478982 15.5687228053914 59.7153025388822 -0.0291994138355322 15.570744652486 59.7208527802725 -0.0296034624344309 15.5749636882357 59.7296176509134 -0.0301595704178538 15.5806633812458 59.7376881414863 -0.0301310512063541 15.5544756589 59.45505790924 -0.0343862499401 15.5544434850449 59.52976442018 -0.0351247767776768 15.86051830174 59.45681344808 -0.03195632349897 18.2372244387871 59.5514023906341 -0.02999999999999 18.129536591383 59.6374602490739 -0.02999999999999 18.015368403973 59.7147147147135 -0.02999999999999 17.8954378022265 59.7826799870406 -0.02999999999999 17.7704989476969 59.8409286789278 -0.02999999999999 17.6413374954146 59.8890945041788 -0.02999999999999 17.5087656534407 59.9268745808513 -0.02999999999999 17.3736170754446 59.9540313358749 -0.02999999999999 17.2367416184273 59.9703939989853 -0.02999999999999 17.0989999985509 59.975859676582 -0.02999999999999 16.9612583786837 59.9703939987557 -0.02999999999999 16.8243829216936 59.9540313354171 -0.02999999999999 16.6892343437429 59.9268745801682 -0.02999999999999 16.5566625018319 59.8890945032746 -0.02999999999999 16.42750104963 59.8409286778083 -0.02999999999999 16.3025621951974 59.7826799857128 -0.02999999999999 16.1826315935642 59.7147147131858 -0.02999999999999 16.068463406283 59.6374602473558 -0.02999999999999 15.9607755590224 59.5514023887365 -0.02999999999999 1.23875477094324 -0.457768928494996 1.54329486828 -0.458330771900002 1.54496339297 -0.235673964219998 1.51161750872884 -0.169690706061164 1.5171016356287 -0.175622985455742 1.52044419087659 -0.179798867117568 1.52559228012773 -0.187977682795909 1.52873402073895 -0.195345289506121 1.53183957496472 -0.204074580037843 1.53391178721569 -0.209200648043276 1.53841993869985 -0.217799099411622 1.54290579950582 -0.226554794618565 -1.51161750536 -0.169690702680001 -1.38845547558988 -0.0555561932747488 -1.25670457841352 0.0485460300007055 -1.11717981363493 0.141971999683381 -0.970744269578332 0.224143790673457 -0.818303784060592 0.294553095263007 -0.660801340955557 0.352764367484232 -0.49921123697604 0.398417517359757 -0.334533054757248 0.431230138388603 -0.167785479523644 0.450999254488766 2.41118391919315e-09 0.45760257559 0.167785484331096 0.450999254109778 0.334533059520047 0.43123013763297 0.499211241664722 0.398417516232154 0.660801345541119 0.352764365991634 0.818303788514668 0.294553093414648 0.97074427387337 0.22414378848077 1.11717981774436 0.141971997159929 1.25670458231192 0.0485460271621004 1.38845547925314 -0.055556196410949 -1.54462086266515 -0.235673784859998 -1.54298275006485 -0.227448175992127 -1.54059983080774 -0.222134651478499 -1.53597247788694 -0.213522770698676 -1.532758471046 -0.206380593151834 -1.5302771946086 -0.199548688037758 -1.528255347514 -0.193998446647493 -1.52403631176428 -0.185233576006553 -1.51833661875419 -0.177163085433686 -1.5445243411 -0.459793317680003 -1.54455651495505 -0.385086806740001 -1.23875477297649 -0.4577689305602 1.1382244387871 -0.363448836285882 1.03053659138302 -0.277390977846142 0.91636840397301 -0.200136512206454 0.796437802226548 -0.132171239879393 0.671498947696874 -0.073922547992167 0.54233749541465 -0.0257567227411963 0.409765653440655 0.012023353931333 0.274617075444624 0.0391801089549106 0.13774161842732 0.0555427720653061 -1.44905998311629e-09 0.0610084496619965 -0.137741621316328 0.0555427718356692 -0.274617078306352 0.0391801084970809 -0.40976565625711 0.012023353248189 -0.542337498168119 -0.0257567236453586 -0.671498950370042 -0.0739225491116617 -0.796437804802607 -0.13217124120718 -0.91636840643576 -0.200136513734185 -1.03053659371697 -0.277390979564209 -1.13822444097759 -0.363448838183482 35 34 33 36 35 33 44 37 36 44 43 42 44 33 43 44 36 33 41 39 38 41 40 39 13 38 37 13 37 44 13 41 38 63 13 44 14 13 63 62 14 63 15 14 62 61 15 62 16 15 61 60 16 61 17 16 60 59 17 60 18 17 59 18 59 58 19 18 58 19 58 57 20 19 57 20 57 56 21 20 56 21 56 55 22 21 55 22 55 54 23 22 54 24 23 54 24 54 53 25 24 53 25 53 52 26 52 51 26 25 52 27 51 50 27 26 51 28 50 49 28 27 50 29 28 49 29 49 48 30 29 48 30 48 47 31 47 46 31 30 47 3 1 2 11 3 12 10 1 3 10 3 11 32 46 45 32 31 46 6 8 7 5 8 6 4 9 8 4 10 9 4 45 1 4 1 10 4 32 45 4 8 5 

TShapes 6
Ve
0.00660189647113502
15.5544756589 59.45505790924 -0.0343862499401
0 0

0101101
*
Ve
0.00773548172656714
15.55437913734 59.67917744206 -0.03660183045288
0 0

0101101
*
Ed
 0.00461206097055938 1 1 0
1  1 0 0 0.224130504628168
2  1 1 0 0 0.224130504628168
4 C0 1 0 2 0
6  1 1 0
0

0101000
+6 0 -5 0 *
Ed
 0.00660189647113502 1 1 0
1  2 0 0 0.224130504628168
2  2 1 0 0 0.224130504628168
4 C0 3 0 1 0
6  2 2 0
0

0101000
+6 0 -5 0 *
Wi

0101100
+4 0 -3 0 *
Fa
0  1e-07 1 0

0111000
+2 0 *

-1 0 