DBRep_DrawableShape

CASCADE Topology V3, (c) Open Cascade
Locations 0
Curve2ds 3
7 0 0  1 2 2  2.8096338565167414 0.0043251650350013549  2.8052437886910906 0.074325165034921703 
 0 2 0.070000413603634098 2
7 0 0  1 2 2  6.3267469865098542 0.074325165036326357  6.3318127351550348 0.0043251650364055649 
 0 2 0.070000413603634098 2
7 0 0  1 2 2  2.8096338565167414 0.0043251650350013549  2.8052437886910906 0.074325165034921703 
 0 2 0.070000413603634098 2
Curves 2
1 1.271544274339 2.8283856435220001 -1.2889650321820001 0.7073503593779995 0.70685484698759959 0.003419704366196998 
1 1.271544274339 2.8283856435220001 -1.2889650321820001 0.7073503593779995 0.70685484698759959 0.003419704366196998 
Polygon3D 0
PolygonOnTriangulations 2
3 1 4 5 
p 0.0166666666666667 1 0 0.0233334712012114 0.0700004136036341 
3 7 8 3 
p 0.0166666666666667 1 0 0.0233334712012114 0.0700004136036341 
Surfaces 3
2 1.2353090361979999 2.8585041746109998 -1.3051387818939999 0.70710678118654757 0.70710678118654757 0 -0.70710678118654757 0.70710678118654757 0 0 -0 1 0.04999999999989
1 1.284329330501 2.8650980620430002 -1.2600000000080001 0.58834840541432087 -0.58834840541432087 0.55470019622571975 0.39223227027671498 -0.39223227027671498 -0.83205029433751665 0.70710678118654757 0.70710678118654757 8.1524687095804742e-18 
2 1.290923217934 2.9141183563470001 -1.291010205152 -0.7071067811866476 -0.70710678118644765 0 0.70710678118644765 -0.7071067811866476 0 0 0 1 0.049999999999899999
Triangulations 2
6 4 1 0 0.00164071494769394
1.271544274339 2.828385643522 -1.288965032182 1.26146032533188 2.83846959252987 -1.265780630057 1.251376376324 2.848553541537 -1.242596227932 1.28804921357871 2.84487902073762 -1.28888523860865 1.321059092058 2.877865775169 -1.288725651461 1.300873851007 2.89805101622 -1.242596227933 0.0334854472056767 -0.0349999999999589 0.00628435816839827 -0.0349999999994285 -0.0209167308688801 -0.0349999999999589 0.0334235899384468 -0.011666666666652 0.0332998754030702 0.0349999999997747 -0.0209167308688655 0.0349999999999587 6 3 2 4 2 1 4 6 2 5 6 4 
12 10 1 0 0.00634153961755127
1.259580593159 2.840349324702 -1.331010205152 1.311600315995 2.887324551232 -1.327916992577 1.321059092058 2.877865775169 -1.288725651461 1.32082792929573 2.87809693793152 -1.29828668899064 1.3208952668055 2.87802960042254 -1.30984925248005 1.31899953269185 2.87992533453662 -1.31575188409014 1.271544274339 2.828385643522 -1.288965032182 1.28804921357871 2.84487902073762 -1.28888523860865 1.26802562867937 2.83190428918262 -1.31918361534778 1.27017293058775 2.82975698727413 -1.31422507612502 1.27118620224725 2.82874371561414 -1.30294073285902 1.27123086321937 2.8286990546417 -1.29438189616598 5.40310822333841 0.0743251650356211 5.45043204557848 0.00432516503641045 6.33181273515503 0.00432516503640556 6.19960563173614 0.00432516503640894 6.00800512271171 0.00432516503640933 5.82501883865731 0.0043251650364097 6.32674698650985 0.0743251650363264 6.32843556939158 0.0509918317030194 5.8136143403035 0.0743251650359346 5.95044971262519 0.074325165036039 6.13859834956752 0.0743251650361827 6.25311197197805 0.0743251650362701 9 1 2 9 2 6 10 6 5 10 9 6 11 5 4 11 10 5 12 11 4 8 4 3 8 12 4 7 12 8 

TShapes 6
Ve
0.00724753242766137
1.271544274339 2.828385643522 -1.288965032182
0 0

0101101
*
Ve
0.00556240310578018
1.321059092058 2.877865775169 -1.288725651461
0 0

0101101
*
Ed
 0.00198930343374924 1 1 0
1  1 0 0 0.0700004136036341
2  1 1 0 0 0.0700004136036341
4 C0 1 0 2 0
6  1 1 0
0

0101000
+6 0 -5 0 *
Ed
 0.00303627755244136 1 1 0
1  2 0 0 0.0700004136036341
2  2 3 0 0 0.0700004136036341
2  3 1 0 0 0.0700004136036341
4 C0 3 0 1 0
6  2 2 0
0

0101000
+6 0 -5 0 *
Wi

0101100
-4 0 +3 0 *
Fa
0  1e-07 1 0

0111000
+2 0 *

-1 0 