DBRep_DrawableShape

CASCADE Topology V3, (c) Open Cascade
Locations 0
Curve2ds 3
7 0 0  1 2 2  0.31889538377599308 0.0043251650354951821  0.3319587970816138 0.07432516503556208 
 0 2 0.070003533097662954 2
7 0 0  1 2 2  6.3151499829482241 0.0043251650354951821  6.326746986515996 0.07432516503556208 
 0 2 0.070003533097662954 2
7 0 0  1 2 2  0.31889538377599308 0.0043251650354951821  0.33195879709720821 0.07432516503555453 
 0 2 1 2
Curves 2
1 4.3850143737670004 -0.98494429162880004 -1.2894951586059999 -0.71173960003309311 -0.70240258659199317 0.0075728524091089261 
7 0 0  3 4 2  4.3850143737670004 -0.98494429162880004 -1.2894951586059999  4.3685152155400004 -1.0014434498560001 -1.2894951586059999  4.351689245347 -1.0176157961200001 -1.288965032181  4.3351900871189999 -1.0341149543470001 -1.288965032181 
 0 4 1 4
Polygon3D 0
PolygonOnTriangulations 2
3 3 8 9 
p 0.0166666666666667 1 0 0.0233345110325543 0.070003533097663 
3 3 4 5 
p 0.0166666666666667 1 0 0.5 1 
Surfaces 3
2 4.3545690307139999 -0.94838224152310002 -1.3051387818939999 -0.70710678118654757 -0.70710678118654757 0 0.70710678118654757 -0.70710678118654757 0 0 0 1 0.050000000000000003
2 4.3545690307139999 -0.94838224152310002 -1.291010205152 -0.70710678118654757 -0.70710678118654757 0 0.70710678118654757 -0.70710678118654757 0 0 0 1 0.050000000000000003
1 4.3479751432820004 -0.99740253582619998 -1.2600000000080001 -0.58834840541519806 0.58834840541619815 -0.5547001962227982 -0.39223227027759905 0.3922322702716991 0.83205029433946431 0.70710678118532722 0.70710678118776782 3.8634971745951091e-12 
Triangulations 2
13 11 1 0 0.00613058867739845
4.375246128776 -0.9751760466373 -1.327916992577 4.32322640594 -1.022151273167 -1.331010205152 4.385014373767 -0.9849442916288 -1.289495158606 4.38469693485743 -0.984626852719027 -1.29524109107655 4.38465523196229 -0.984585149823785 -1.30829125812487 4.38351638268091 -0.983446300542625 -1.31384120370203 4.37878315556656 -0.978713073427986 -1.3222581507359 4.36840627821772 -1.00133451253493 -1.28931844979791 4.335190087119 -1.034114954347 -1.288965032181 4.33167144145974 -1.0305963086873 -1.31918361534833 4.33381874336834 -1.03274361059575 -1.31422507612532 4.3348320150276 -1.03375688225525 -1.302940732859 4.33487667599944 -1.03380154322737 -1.29438189616571 5.45043204558058 0.00432516503514169 5.40310822333531 0.0743251650348475 6.31514998294822 0.00432516503549518 6.23547026920549 0.00432516503546261 6.03022644107199 0.00432516503537871 5.8827910142644 0.00432516503531843 5.6189379674408 0.00432516503521057 6.31901565080415 0.0276584983688508 6.32674698653186 0.0743251650355545 5.81361434031155 0.0743251650351618 5.95044971263697 0.0743251650352665 6.13859834958441 0.0743251650354105 6.25311197199577 0.0743251650354982 7 2 1 10 7 6 10 2 7 11 6 5 11 10 6 12 5 4 12 11 5 8 4 3 13 12 4 13 4 8 9 13 8 
6 4 1 0 0.00164265338988593
4.364519663788 -0.9644495816496 -1.242596227932 4.315022189105 -1.013947056333 -1.242596227932 4.385014373767 -0.9849442916288 -1.289495158606 4.36010223044337 -1.00952962298798 -1.2892300953935 4.335190087119 -1.034114954347 -1.288965032181 4.325106138112 -1.02403100534 -1.26578063005688 0.0209167308685752 0.0349999999996923 0.0209167308687125 -0.0350000000004373 -0.0341829114503763 0.0349999999993904 -0.033834179327482 -4.2569586744534e-13 -0.0334854472042345 -0.035000000000666 -0.006284358168073 -0.0350000000005518 4 5 6 1 3 4 1 6 2 1 4 6 

TShapes 6
Ve
0.00724753242845319
4.335190087119 -1.034114954347 -1.288965032181
0 0

0101101
*
Ve
0.00501962046150043
4.385014373767 -0.9849442916288 -1.289495158606
0 0

0101101
*
Ed
 0.00303627755307536 1 1 0
1  1 0 0 0.070003533097663
2  1 1 0 0 0.070003533097663
2  2 2 0 0 0.070003533097663
4 C0 2 0 1 0
6  1 1 0
0

0101000
-6 0 +5 0 *
Ed
 0.00198930343375841 1 1 0
1  2 0 0 1
2  3 1 0 0 1
4 C0 1 0 3 0
6  2 2 0
0

0101000
+5 0 -6 0 *
Wi

0101100
-4 0 +3 0 *
Fa
0  1e-07 1 0

0111000
+2 0 *

-1 0 