DBRep_DrawableShape

CASCADE Topology V3, (c) Open Cascade
Locations 0
Curve2ds 3
7 0 0  1 2 2  6.3267469865736832 0.074325165029257789  6.3318127351737052 0.0043251650265148101 
 0 2 0.070000413606448375 2
7 0 0  1 2 2  2.8096338564598162 0.0043251650332578606  2.8052437886884602 0.07432516503600084 
 0 2 0.070000413606448375 2
7 0 0  1 2 2  2.8096338564598162 0.0043251650332578606  2.8052437886884753 0.07432516503600084 
 0 2 0.070000413606448389 2
Curves 2
1 32.021544274340002 29.078385643520001 -1.288965032171 0.70735035939666357 0.70685484696906353 0.0034197043370378238 
1 32.021544274340002 29.078385643520001 -1.288965032171 0.70735035939671342 0.70685484696901346 0.0034197043370420648 
Polygon3D 0
PolygonOnTriangulations 2
3 7 8 3 
p 0.0166666666666667 1 0 0.0233334712021495 0.0700004136064484 
3 1 4 5 
p 0.0166666666666667 1 0 0.0233334712021495 0.0700004136064484 
Surfaces 3
2 31.9853090362 29.108504174610001 -1.3051387818860001 0.70710678118154768 0.70710678119154757 0 -0.70710678119154757 0.70710678118154768 0 0 -0 1 0.050000000004729997
2 32.040923217930001 29.164118356340001 -1.291010205144 -0.70710678118654757 -0.70710678118654757 0 0.70710678118654757 -0.70710678118654757 0 0 0 1 0.049999999997419997
1 32.0343293305 29.115098062049999 -1.2599999999980001 0.58834840544078626 -0.58834840538788624 0.55470019622568711 0.39223227022719193 -0.3922322703261919 -0.83205029433753841 0.70710678119199755 0.70710678118109771 -7.8995581996583868e-11 
Triangulations 2
12 10 1 0 0.00634153961956335
32.00958059316 29.0903493247 -1.331010205149 32.061600316 29.13732455123 -1.327916992569 32.07105909206 29.12786577517 -1.288725651453 32.070827929297 29.1280969379307 -1.29828668898226 32.0708952668044 29.1280296004174 -1.30984925247181 32.0689995326896 29.1299253345314 -1.31575188408246 32.02154427434 29.07838564352 -1.288965032171 32.0380492135808 29.0948790207359 -1.28888523859833 32.0180256286807 29.0819042891793 -1.31918361534561 32.0201729305892 29.0797569872708 -1.31422507612202 32.0211862022456 29.0787437156144 -1.30294073285287 32.0212308632174 29.0786990546426 -1.29438189616425 5.40310822317071 0.0743251650292649 5.45043204562046 0.00432516502651481 6.33181273517371 0.00432516502651481 6.19960563174368 0.00432516502652085 6.00800512274303 0.0043251650265193 5.82501883868207 0.00432516502651783 6.32674698657368 0.0743251650292578 6.32843556944036 0.0509918316950101 5.8136143402387 0.0743251650292617 5.95044971259469 0.0743251650292607 6.13859834958419 0.0743251650292592 6.25311197192768 0.0743251650292584 9 1 2 9 2 6 10 6 5 10 9 6 11 5 4 11 10 5 12 11 4 8 4 3 8 12 4 7 12 8 
6 4 1 0 0.00164071494338133
32.02154427434 29.07838564352 -1.288965032171 32.01146032533 29.0884695925338 -1.26578063004612 32.00137637632 29.09855354154 -1.242596227922 32.0380492135808 29.0948790207359 -1.28888523859833 32.07105909206 29.12786577517 -1.288725651453 32.05087385101 29.14805101622 -1.242596227923 0.0334854472116089 -0.0350000000024864 0.00628435817100222 -0.0350000000017783 -0.0209167308660379 -0.0350000000063702 0.0334235899436504 -0.0116666666682457 0.0332998754058668 0.0349999999999844 -0.0209167308671319 0.034999999996375 6 3 2 4 2 1 4 6 2 5 6 4 

TShapes 6
Ve
0.00724753243051449
32.02154427434 29.07838564352 -1.288965032171
0 0

0101101
*
Ve
0.00556240310634627
32.07105909206 29.12786577517 -1.288725651453
0 0

0101101
*
Ed
 0.00303627754984299 1 1 0
1  1 0 0 0.0700004136064484
2  1 2 0 0 0.0700004136064484
2  2 1 0 0 0.0700004136064484
4 C0 1 0 2 0
6  1 1 0
0

0101000
+6 0 -5 0 *
Ed
 0.00198930342803082 1 1 0
1  2 0 0 0.0700004136064484
2  3 1 0 0 0.0700004136064484
4 C0 3 0 1 0
6  2 2 0
0

0101000
+6 0 -5 0 *
Wi

0101100
-4 0 +3 0 *
Fa
0  1e-07 1 0

0111000
+2 0 *

+1 0 