DBRep_DrawableShape

CASCADE Topology V3, (c) Open Cascade
Locations 0
Curve2ds 3
7 0 0  1 2 2  2.8096338564981664 0.0043251650350553117  2.8052437886759858 0.074325165035040497 
 0 2 0.070000413603697909 2
7 0 0  1 2 2  6.3267469865314521 0.074325165035261653  6.331812735173445 0.0043251650352766902 
 0 2 0.070000413603697909 2
7 0 0  1 2 2  2.8096338564981664 0.0043251650350553117  2.8052437886759898 0.074325165035040497 
 0 2 0.070000413603697922 2
Curves 2
1 -0.9784557256609 3.5783856435220001 -1.288965032181 0.70735035937865431 0.70685484698695433 0.0034197043640837787 
1 -0.9784557256609 3.5783856435220001 -1.288965032181 0.70735035937865454 0.70685484698695444 0.0034197043640807798 
Polygon3D 0
PolygonOnTriangulations 2
3 7 8 3 
p 0.0166666666666667 1 0 0.0233334712012326 0.0700004136036979 
3 4 5 3 
p 0.0166666666666667 1 0 0.0233334712012326 0.0700004136036979 
Surfaces 3
2 -1.0146909638020001 3.6085041746109998 -1.3051387818939999 0.70710678118629755 0.70710678118679759 0 -0.70710678118679759 0.70710678118629755 0 0 -0 1 0.050000000000080001
2 -0.95907678206640001 3.664118356346 -1.291010205152 -0.70710678118669756 -0.70710678118639758 0 0.70710678118639758 -0.70710678118669756 0 0 0 1 0.04999999999976
1 -0.96567066949890001 3.6150980620430002 -1.2600000000080001 -0.58834840541292388 0.58834840541392386 -0.55470019622762246 0.39223227028006041 -0.39223227027606039 -0.83205029433624811 -0.70710678118585424 -0.70710678118724102 -2.7456297553426038e-12 
Triangulations 2
12 10 1 0 0.0063415396175396
-0.9904194068402 3.590349324702 -1.331010205152 -0.9383996840046 3.637324551232 -1.327916992577 -0.9289409079418 3.627865775169 -1.288725651462 -0.929172070704372 3.62809693793151 -1.29828668899081 -0.92910473319484 3.62802960042233 -1.30984925248016 -0.931000467308578 3.62992533453605 -1.31575188409014 -0.9784557256609 3.578385643522 -1.288965032181 -0.961950786421157 3.59487902073762 -1.2888852386077 -0.981974371320332 3.58190428918262 -1.31918361534778 -0.979827069411912 3.57975698727413 -1.31422507612502 -0.978813797752537 3.57874371561414 -1.30294073285896 -0.978769136780505 3.5786990546417 -1.29438189616555 5.40310822333118 0.0743251650352652 5.45043204557639 0.00432516503513503 6.33181273517345 0.00432516503527669 6.19960563171801 0.0043251650352528 6.00800512269506 0.00432516503522268 5.8250188386472 0.00432516503519391 6.32674698653145 0.0743251650352617 6.32843556941212 0.0509918317019333 5.81361434030908 0.0743251650352636 5.95044971263504 0.0743251650352631 6.13859834958325 0.0743251650352624 6.25311197199723 0.0743251650352619 9 1 2 9 2 6 10 6 5 10 9 6 11 5 4 11 10 5 12 11 4 8 4 3 8 12 4 7 12 8 
6 4 1 0 0.00164071494735771
-0.9986236236754 3.598553541537 -1.242596227932 -0.9491261489923 3.64805101622 -1.242596227932 -0.9289409079418 3.627865775169 -1.288725651462 -0.9784557256609 3.578385643522 -1.288965032181 -0.961950786421157 3.59487902073762 -1.2888852386077 -0.988539674668113 3.58846959252987 -1.26578063005688 -0.020916730868783 0.0349999999995461 -0.0209167308685477 -0.0350000000003714 0.0332998754034084 -0.0349999999999306 0.0334854472047409 0.0350000000000551 0.0334235899376301 0.0116666666667265 0.00628435816815856 0.0349999999995088 6 1 2 5 2 3 5 6 2 4 6 5 

TShapes 6
Ve
0.00724753242821112
-0.9784557256609 3.578385643522 -1.288965032181
0 0

0101101
*
Ve
0.00556240310518929
-0.9289409079418 3.627865775169 -1.288725651462
0 0

0101101
*
Ed
 0.00303627755260601 1 1 0
1  1 0 0 0.0700004136036979
2  1 1 0 0 0.0700004136036979
2  2 2 0 0 0.0700004136036979
4 C0 2 0 1 0
6  1 1 0
0

0101000
+6 0 -5 0 *
Ed
 0.00198930343324625 1 1 0
1  2 0 0 0.0700004136036979
2  3 1 0 0 0.0700004136036979
4 C0 1 0 3 0
6  2 2 0
0

0101000
+6 0 -5 0 *
Wi

0101100
-4 0 +3 0 *
Fa
0  1e-07 1 0

0111000
+2 0 *

+1 0 