DBRep_DrawableShape

CASCADE Topology V3, (c) Open Cascade
Locations 0
Curve2ds 3
7 0 0  1 2 2  6.3151499829690199 0.0043251650355127236  6.3267469865298995 0.074325165035219687 
 0 2 0.070003533097300813 2
7 0 0  1 2 2  0.31889538379236776 0.0043251650355127236  0.33195879709145387 0.074325165035219687 
 0 2 0.070003533097300813 2
7 0 0  1 2 2  0.31889538379236776 0.0043251650355127236  0.33195879709413162 0.074325165035217911 
 0 2 1 2
Curves 2
1 0.1149856262329 2.4849442916290001 -1.2894951586050001 0.7117396000325712 0.70240258659257171 0.0075728524044846937 
7 0 0  3 4 2  0.1149856262329 2.4849442916290001 -1.2894951586050001  0.13148478446049999 2.5014434498560001 -1.2894951586050001  0.148310754653 2.5176157961190002 -1.288965032181  0.16480991288060001 2.5341149543469998 -1.288965032181 
 0 4 1 4
Polygon3D 0
PolygonOnTriangulations 2
3 3 8 9 
p 0.0166666666666667 1 0 0.0233345110324336 0.0700035330973008 
3 3 4 5 
p 0.0166666666666667 1 0 0.5 1 
Surfaces 3
2 0.1454309692862 2.4483822415229999 -1.3051387818939999 0.70710678118629755 0.70710678118679759 0 -0.70710678118679759 0.70710678118629755 0 0 -0 1 0.04999999999983
2 0.1454309692862 2.4483822415229999 -1.291010205152 0.70710678118629755 0.70710678118679759 0 -0.70710678118679759 0.70710678118629755 0 0 -0 1 0.04999999999983
1 0.1520248567186 2.4974025358260001 -1.2600000000080001 0.5883484054148862 -0.58834840541378619 -0.55470019622568711 0.39223227027669194 -0.39223227027669194 0.83205029433753841 -0.70710678118608994 -0.70710678118700521 -4.3147052544327362e-13 
Triangulations 2
13 11 1 0 0.00613058867745807
0.1247538712243 2.475176046637 -1.327916992577 0.17677359406 2.522151273167 -1.331010205152 0.1149856262329 2.484944291629 -1.289495158605 0.115303065142694 2.48462685271878 -1.2952410910782 0.115344768037898 2.48458514982341 -1.30829125812521 0.116483617319025 2.48344630054237 -1.31384120370159 0.121216844383962 2.47871307347757 -1.3222581506513 0.13159372178208 2.50133451253505 -1.28931844979702 0.1648099128806 2.534114954347 -1.288965032181 0.168328558540223 2.53059630868638 -1.31918361534778 0.166181256631788 2.53274361059487 -1.31422507612502 0.165167984972315 2.53375688225486 -1.30294073285896 0.165123324000219 2.5338015432273 -1.29438189616552 5.4504320455774 0.00432516503508329 5.40310822333054 0.074325165035283 6.31514998296902 0.00432516503551272 6.23547026920192 0.00432516503547315 6.0302264410715 0.00432516503537123 5.88279101427321 0.00432516503529801 5.61893796972642 0.00432516503516697 6.31901565082265 0.0276584983687484 6.32674698653143 0.0743251650352179 5.81361434030871 0.074325165035254 5.95044971263477 0.0743251650352444 6.1385983495831 0.0743251650352312 6.25311197199754 0.0743251650352231 7 2 1 10 7 6 10 2 7 11 6 5 11 10 6 12 5 4 12 11 5 8 4 3 13 12 4 13 4 8 9 13 8 
6 4 1 0 0.00164265338951849
0.1354803362118 2.464449581649 -1.242596227932 0.1849778108951 2.513947056332 -1.242596227932 0.1149856262329 2.484944291629 -1.289495158605 0.13989776955675 2.50952962298763 -1.289230095393 0.1648099128806 2.534114954347 -1.288965032181 0.174893861887813 2.5240310053395 -1.26578063005688 0.0209167308685687 0.0350000000004537 0.0209167308686841 -0.0349999999996051 -0.0341829114498232 0.0349999999997483 -0.0338341793271868 1.60617075195546e-13 -0.0334854472048444 -0.034999999999957 -0.006284358168407 -0.0349999999997547 4 5 6 1 3 4 1 6 2 1 4 6 

TShapes 6
Ve
0.00724753242822662
0.1648099128806 2.534114954347 -1.288965032181
0 0

0101101
*
Ve
0.00501962046191877
0.1149856262329 2.484944291629 -1.289495158605
0 0

0101101
*
Ed
 0.00303627755242144 1 1 0
1  1 0 0 0.0700035330973008
2  1 2 0 0 0.0700035330973008
2  2 1 0 0 0.0700035330973008
4 C0 2 0 1 0
6  1 1 0
0

0101000
-6 0 +5 0 *
Ed
 0.00198930343322051 1 1 0
1  2 0 0 1
2  3 1 0 0 1
4 C0 1 0 3 0
6  2 2 0
0

0101000
+5 0 -6 0 *
Wi

0101100
-4 0 +3 0 *
Fa
0  1e-07 1 0

0111000
+2 0 *

-1 0 