DBRep_DrawableShape

CASCADE Topology V3, (c) Open Cascade
Locations 0
Curve2ds 3
7 0 0  1 2 2  2.80963385651674 0.0043251650350009108  2.8052437886911052 0.074325165034921703 
 0 2 0.070000413603633932 2
7 0 0  1 2 2  2.80963385651674 0.0043251650350009108  2.8052437886911052 0.074325165034921703 
 0 2 0.070000413603633932 2
7 0 0  1 2 2  6.3267469865092085 0.074325165035625584  6.3318127351542861 0.0043251650357047922 
 0 2 0.070000413603633932 2
Curves 2
1 2.771544274339 2.8283856435220001 -1.2889650321820001 0.7073503593779995 0.70685484698759959 0.0034197043661869978 
1 2.771544274339 2.8283856435220001 -1.2889650321820001 0.7073503593779995 0.70685484698759959 0.0034197043661869978 
Polygon3D 0
PolygonOnTriangulations 2
3 1 4 5 
p 0.0166666666666667 1 0 0.0233334712012113 0.0700004136036339 
3 7 8 3 
p 0.0166666666666667 1 0 0.0233334712012113 0.0700004136036339 
Surfaces 3
2 2.7353090361980001 2.8585041746109998 -1.3051387818939999 0.70710678118654757 0.70710678118654757 0 -0.70710678118654757 0.70710678118654757 0 0 -0 1 0.04999999999989
1 2.784329330501 2.8650980620430002 -1.2600000000080001 0.58834840541432087 -0.58834840541432087 0.55470019622571975 0.39223227027671498 -0.39223227027671498 -0.83205029433751665 0.70710678118654757 0.70710678118654757 8.1524687095804742e-18 
2 2.7909232179329999 2.9141183563470001 -1.291010205152 -0.70710678118654757 -0.70710678118654757 0 0.70710678118654757 -0.70710678118654757 0 0 0 1 0.04999999999989
Triangulations 2
6 4 1 0 0.00164071494769408
2.771544274339 2.828385643522 -1.288965032182 2.76146032533187 2.83846959252987 -1.265780630057 2.751376376324 2.848553541537 -1.242596227932 2.78804921357871 2.84487902073762 -1.28888523860866 2.821059092058 2.877865775169 -1.288725651461 2.800873851007 2.89805101622 -1.242596227933 0.0334854472056767 -0.0349999999999589 0.0062843581683983 -0.0349999999994285 -0.0209167308688801 -0.0349999999999589 0.033423589938447 -0.011666666666652 0.0332998754030701 0.0349999999997748 -0.0209167308688711 0.0349999999999588 6 3 2 4 2 1 4 6 2 5 6 4 
12 10 1 0 0.00634153961752971
2.759580593159 2.840349324702 -1.331010205152 2.811600315995 2.887324551232 -1.327916992577 2.821059092058 2.877865775169 -1.288725651461 2.82082792929573 2.87809693793152 -1.29828668899064 2.8208952668055 2.87802960042254 -1.30984925248006 2.81899953269185 2.87992533453662 -1.31575188409014 2.771544274339 2.828385643522 -1.288965032182 2.78804921357871 2.84487902073762 -1.28888523860866 2.76802562867937 2.83190428918262 -1.31918361534778 2.77017293058775 2.82975698727413 -1.31422507612502 2.77118620224725 2.82874371561414 -1.30294073285902 2.77123086321937 2.8286990546417 -1.29438189616598 5.40310822334918 0.0743251650349186 5.45043204558896 0.00432516503570834 6.33181273515429 0.00432516503570479 6.19960563173709 0.00432516503570834 6.0080051227149 0.00432516503570834 5.82501883866302 0.00432516503570834 6.32674698650921 0.0743251650356256 6.3284355693909 0.0509918317023187 5.81361434030919 0.0743251650352328 5.9504497126292 0.0743251650353376 6.1385983495692 0.0743251650354816 6.25311197197835 0.0743251650355692 9 1 2 9 2 6 10 6 5 10 9 6 11 5 4 11 10 5 12 11 4 8 4 3 8 12 4 7 12 8 

TShapes 6
Ve
0.00724753242764354
2.771544274339 2.828385643522 -1.288965032182
0 0

0101101
*
Ve
0.00556240310569579
2.821059092058 2.877865775169 -1.288725651461
0 0

0101101
*
Ed
 0.00198930343374924 1 1 0
1  1 0 0 0.0700004136036339
2  1 1 0 0 0.0700004136036339
4 C0 2 0 1 0
6  1 1 0
0

0101000
+6 0 -5 0 *
Ed
 0.00303627755173547 1 1 0
1  2 0 0 0.0700004136036339
2  2 1 0 0 0.0700004136036339
2  3 3 0 0 0.0700004136036339
4 C0 1 0 3 0
6  2 2 0
0

0101000
+6 0 -5 0 *
Wi

0101100
-4 0 +3 0 *
Fa
0  1e-07 1 0

0111000
+2 0 *

-1 0 