DBRep_DrawableShape

CASCADE Topology V3, (c) Open Cascade
Locations 0
Curve2ds 2
7 0 0  1 2 2  6.2823808807868744 0.24148029231697876  2.9055243647356934 0.019267333000396285 
 0 2 1 2
7 0 0  1 2 2  6.2823808807868744 0.24148029231697876  2.9055243647356934 0.019267333000396285 
 0 2 0.22222710287009817 2
Curves 2
7 0 0  3 6 4  43.376723277419998 58.394865583280001 -0.4292742133995  43.386056335619998 58.371236322199998 -0.42929784785649999  43.409879812630003 58.326735238090002 -0.43740934821540001  43.437403084499998 58.257450482179998 -0.43889374106579998  43.448791255929997 58.21187635754 -0.4268238597722  43.458186912179997 58.188123416960003 -0.42677658912010003 
 0 4 0.33333333333330001 1 0.66666666666670005 1 1 4
1 43.376723277419998 58.394865583280001 -0.4292742133995 0.3665783052661008 -0.93031931592560213 0.011239062414320024 
Polygon3D 0
PolygonOnTriangulations 2
10 14 23 24 25 26 27 28 29 30 31 
p 0.05 1 0 0.07971615 0.1594323 0.385294725 0.50486895 0.60172407225 0.691404741 0.91994097853125 0.959970489265625 1 
2 3 1 
p 0.05 1 0 0.222227102870098 
Surfaces 3
2 43.460381599610002 58.168273508879999 -0.43385734195039999 -0.367517000228401 0.93001680336600245 0 0.71349716887341086 0.28195441009963856 0.64142302783342009 0.59653419395097973 0.23573386706675672 -0.76718739520732993 0.01000000000045
1 43.710066192340001 56.97691491906 -1.632714991843 0.91530702888998516 0.3617041028972941 -0.17715299831459713 0.16475526519956532 0.065106738521235774 0.98418332397381558 0.36751700022394734 -0.93001680336776238 -2.5092405270836869e-14 
1 41.85445134471 58.047198377009998 -0.42385734195039998 0 0 1 -0.93001680336755155 -0.36751700022448092 0 0.36751700022448092 -0.93001680336755155 0 
Triangulations 2
138 136 1 0 0.0058200901132806
43.57659930527 56.72259219114 -2.841572623549 43.5945419703496 56.6911915179855 -2.81298102418494 43.6120760738329 56.6617983311461 -2.78240328875064 43.6292353388667 56.6342174253267 -2.75006282232998 43.6460534885983 56.608253595232 -2.71618303000684 43.6680053513577 56.5758132143649 -2.66900159886032 43.7000833657418 56.5308800355578 -2.59500144614309 43.7557273878282 56.4573921643001 -2.45750178673663 43.8145907107271 56.3837736251971 -2.30365092569278 43.9515508518825 56.2249373152709 -1.9205764514957 44.1333357643751 56.0274235810885 -1.37896564075659 44.43790479699 55.71485818263 -0.4316285350398 43.43879994821 57.07129909335 -2.841572639709 43.37672327742 58.39486558328 -0.4292742133995 43.3705485686614 57.8777713308143 -1.5484055971655 43.37496971015 57.5988127971871 -2.09486234618455 43.3879686842711 57.390131515522 -2.4531163161834 43.3949111934476 57.3208519890968 -2.55881978844152 43.4022008033242 57.2615261291294 -2.64231796573285 43.4109053618347 57.2045920166418 -2.7135804733787 43.4203134919053 57.1536975696337 -2.76886681719462 43.4287879129952 57.1137453957495 -2.8066423196221 43.383807686922 58.3781248031294 -0.42990348289714 43.3914530401704 58.3617093429201 -0.431439374556868 43.4133404720342 58.3156814951445 -0.436557490629112 43.423649807499 58.291053522958 -0.437524677700895 43.4311223053172 58.2710263051292 -0.436887127677014 43.4372915687936 58.2524988526578 -0.434961971568245 43.451982231076 58.2050865159434 -0.427718655323141 43.4549527002057 58.196640936049 -0.427036644466605 43.45818691218 58.18812341696 -0.4267765891201 43.39025775611 57.59508870328 -2.022925240517 43.5056047256 57.32621754415 -1.975925807195 43.5027632097228 57.3254911154485 -1.9920904317029 43.5003591944828 57.325636257944 -2.00421505522884 43.4989558629997 57.3261301473943 -2.01045732795541 43.4966977191923 57.3276657910162 -2.01898919766354 43.4844188471666 57.3416819879302 -2.05381345690865 43.4823911135627 57.3441190833893 -2.05931430308747 43.4804151749184 57.3466593626866 -2.06433686039132 43.4769610687537 57.351494856349 -2.07231047510403 43.475135524669 57.3542435446478 -2.07613045841413 43.4732787766962 57.3571654826288 -2.07975793026127 43.4697513717666 57.3630235117364 -2.08602248899214 43.4642198256563 57.3727813193671 -2.09467954811266 43.4587932319798 57.3827482090197 -2.10236744765547 43.453473774358 57.3929285308168 -2.10906602346374 43.4492550160861 57.4013538906425 -2.11366076298436 43.445123523515 57.4099530976934 -2.11744966706569 43.4410746620212 57.4187169190587 -2.12047553309389 43.4366641850675 57.4286303224758 -2.12302260749337 43.4318618246499 57.4398407845595 -2.12494616575993 43.4277426873654 57.4498258288466 -2.1258416844635 43.4240076490998 57.4592285765014 -2.12594156633306 43.4203558861406 57.4687972218754 -2.1252724611681 43.4167914891791 57.4785399142785 -2.12379659440434 43.4133078500169 57.4884434891246 -2.12157498795668 43.4098960188856 57.4984901170456 -2.11869028644011 43.4065476818926 57.5086632354404 -2.11521926261593 43.4036094633863 57.517969021327 -2.11140014077695 43.4019058617728 57.5236706866871 -2.10856080287297 43.4004777272753 57.5287108565734 -2.10564880822258 43.399216252206 57.5334259351728 -2.10253948305003 43.3974418455952 57.540624819361 -2.09700901439762 43.3958195936931 57.5480194704625 -2.09029268961113 43.392416586808 57.5650015698661 -2.07320181936405 43.3907026555725 57.5730497679746 -2.06562479281528 43.3898390029958 57.578970982717 -2.05799737241378 43.38957923226 57.5835479770347 -2.04999441645611 43.3896862484118 57.5888556694568 -2.03860444970269 43.71162822563 57.40763235131 -0.7452222370949 43.88438435871 57.11918715862 -0.4415689328963 43.8758409107472 57.1377906281926 -0.447727037516754 43.867034932772 57.1562711531371 -0.455492595213536 43.8579685177045 57.1746252445746 -0.464861915840914 43.8486437584644 57.1928494136266 -0.475831309253157 43.8390627479717 57.2109401714144 -0.488397085304534 43.8292275791463 57.2288940290592 -0.502555553849315 43.819140344908 57.2467074976825 -0.518303024741768 43.8088031381767 57.2643770884054 -0.535635807836162 43.7946349671605 57.2877067024749 -0.561205848468716 43.778175207695 57.3136290668601 -0.593322199994677 43.7611710615543 57.3391976143911 -0.628973676468077 43.743629592343 57.3644005701023 -0.668147823647073 43.7278299239255 57.3861651604156 -0.705342825035651 43.9029282958883 57.0791828452902 -0.426874295133113 43.91243247545 57.05688489891 -0.4238572394802 43.920712905022 57.0341845587655 -0.426864736755054 43.93455065573 56.99223929181 -0.4415689329147 44.00564182581 56.66361890862 -0.7452222370949 43.9991263982886 56.7193994509274 -0.664995344314184 43.9914179047079 56.7693523170321 -0.602831460963 43.9839022149904 56.809598051632 -0.559491050323763 43.9761709712235 56.8456254292591 -0.525877233106037 43.9692405965447 56.8746564732119 -0.502410359545518 43.9622929377309 56.9014048822697 -0.483693384117009 43.9556055848415 56.9253614668549 -0.469331709045794 43.9492363744201 56.9468215147326 -0.458423599702814 43.9425361860572 56.9681806009688 -0.449431713458849 43.9385961928051 56.9802274353178 -0.445191955182795 43.79961832578 56.58220410146 -1.975925807195 43.8992296007 56.30711462965 -2.022925240516 43.8946881645915 56.3111432363525 -2.03816429847503 43.891062028456 56.3148347210024 -2.04936254387889 43.8890617661309 56.3171420623081 -2.05498637953708 43.8860577661949 56.321125806065 -2.06237347321921 43.8712878962017 56.344984547411 -2.08997199673018 43.8689333611837 56.3488859564356 -2.09417156889637 43.8666830855745 56.3527489647748 -2.0979108627431 43.8634619203579 56.3585267117146 -2.10275707137963 43.8594599785683 56.3661231224477 -2.1079240881852 43.8574479544023 56.3701137500614 -2.11017182592569 43.8553987112071 56.374286907197 -2.11223918377855 43.8507705853796 56.3840375586367 -2.11624309833312 43.8452701199137 56.3959968485556 -2.12024467030067 43.8399843149384 56.4078770750116 -2.12329857173465 43.8354396598721 56.4184909855418 -2.12510864406105 43.831540646744 56.4279730911721 -2.12589371466112 43.8278176643605 56.4373903613946 -2.12590165505887 43.8238693845754 56.4477846157815 -2.12507888478836 43.819691347591 56.4592568306187 -2.123242277106 43.8159297431672 56.4700571119356 -2.12062599005707 43.8127275379883 56.4797098748517 -2.11746237980344 43.8100088950508 56.4883371996723 -2.11389401911884 43.8073184295958 56.4973741746487 -2.10934366438323 43.8042307128324 56.5084448042085 -2.10269357497727 43.8013686745527 56.5194323121722 -2.09504717344766 43.7987228215365 56.5303401950696 -2.0864463699098 43.7972236270802 56.537302440699 -2.07997710550842 43.7964531524454 56.5414015269608 -2.07558860812268 43.7958466547863 56.5451222752699 -2.07112535677343 43.7951540799658 56.5505709488981 -2.06357883473844 43.7947764055771 56.5554093162312 -2.05565139740107 43.7940802336417 56.5747178325211 -2.01982497302778 43.7946853172247 56.5776703194799 -2.01067037830915 43.7957879315714 56.5795790365826 -2.00107629023293 43.7973585234137 56.5810184935683 -1.99002239179968 44.35616756609 55.92244909443 -0.4297032058046 -1.2282850179048 0.187473060478759 -1.19923388947783 0.223270448595592 -1.16816465083895 0.257050687374498 -1.13530432666028 0.289007714849967 -1.10087994161394 0.319335469056489 -1.05294016630241 0.357573251121248 -0.977750880983198 0.411151078060138 -0.83804291914612 0.499946157251078 -0.681720487928706 0.590045907511293 -0.292481388304116 0.788101524955278 0.25765348613049 1.03860166236601 1.2198361057368 1.44122704305974 -1.22828503432322 -0.187473824366337 1.2218044883155 -1.44122713220842 0.0856904070120913 -0.962590098930617 -0.469556886614095 -0.701529130557015 -0.83358937784537 -0.502674688085176 -0.940987721599266 -0.435692074233823 -1.02582674691563 -0.377838972035217 -1.09823479109405 -0.321690217504822 -1.15441022120989 -0.270899878847941 -1.1927931909981 -0.230629191986958 1.22126242794002 -1.42305428443832 1.21994168410752 -1.40497783331714 1.21551386621049 -1.35412715816183 1.21465704717636 -1.32743387415113 1.21521173980332 -1.30606195506337 1.21691660297823 -1.28656380373496 1.22337885538808 -1.23707046577025 1.22398961536723 -1.22812423665052 1.22422386306593 -1.21901417289183 -0.396481264381879 -0.692447043855588 -0.34872650957622 -0.400000375711833 -0.365150913560641 -0.400369090204244 -0.377470390258235 -0.401387591633491 -0.38381298169879 -0.402362665298237 -0.39248196592194 -0.404620745908754 -0.427865881090109 -0.422168738771113 -0.433455130617908 -0.425180505070842 -0.43855840475545 -0.428269198545771 -0.44666016234318 -0.434035731640533 -0.450541536084301 -0.437262976431403 -0.454227304537001 -0.440662814297219 -0.46059254013725 -0.447407261080243 -0.469388725674751 -0.458515123373837 -0.477200176402978 -0.46977886365749 -0.484006404109753 -0.481201725100427 -0.488674985062741 -0.490587916697589 -0.492524780104989 -0.500103717506761 -0.495599274413608 -0.509742244068698 -0.498187282498524 -0.520582801084718 -0.500141754007751 -0.532773668290754 -0.501051664470306 -0.543573780238423 -0.501153151527733 -0.553691183614371 -0.500473293264816 -0.563932269565874 -0.498973708047385 -0.574303113689758 -0.496716398465265 -0.584793901324743 -0.493785337303808 -0.595391340051158 -0.490258531128921 -0.606083081868355 -0.486378032703541 -0.615817464362887 -0.483493064187202 -0.621746211509493 -0.480534271267774 -0.626958517902069 -0.477374976554246 -0.631807233761993 -0.471755628494025 -0.639154441617306 -0.464931366567408 -0.64662779654943 -0.447565831274441 -0.663672097233334 -0.439867035365259 -0.671786955577342 -0.432117035730514 -0.677611191788401 -0.423985465358696 -0.68196334357436 -0.412412452002218 -0.686860256458925 0.901755529817646 -0.400000375706947 1.21028880486173 -0.0682506838547503 1.20403173418121 -0.0886920855251281 1.19614137726334 -0.109115630867975 1.18662148355807 -0.129517305983857 1.17547580251535 -0.149893096973342 1.16270808358513 -0.170238989936997 1.14832207621736 -0.190550970975387 1.13232152986199 -0.210825026189082 1.11471019396897 -0.231057141678646 1.08872922069494 -0.257961118489904 1.05609673166023 -0.288118594374309 1.01987230517162 -0.318147085996811 0.980068595622714 -0.348033046446823 0.942275838451244 -0.374081127897982 1.22215365324759 -0.0234250659999105 1.22828513614082 -3.75710455857714e-07 1.22217307712962 0.0233513470147511 1.210288804843 0.0682499324233743 0.90175552981808 0.399999624289448 0.983271738020491 0.34572825226478 1.04643464865587 0.296438244973939 1.09047157712782 0.25624689179259 1.12462559742624 0.219899461700862 1.1484696039198 0.190353072493095 1.16748737731577 0.162923219880138 1.18207985691486 0.1381854777913 1.19316326900005 0.115886479556041 1.20229966262444 0.0935597373237935 1.20660755747824 0.0809079644508899 -0.348726509574802 0.399999624284563 -0.396481264381302 0.692446292444504 -0.411965227164915 0.687030565541709 -0.423343438043944 0.68226475611305 -0.429057653598272 0.679383759518232 -0.436563464255854 0.674574789838866 -0.464605519875099 0.646957581166279 -0.468872582792957 0.642463873569829 -0.472671970321274 0.638044196361228 -0.477596061716104 0.631486961644069 -0.482846116944402 0.622951390375371 -0.485129977771738 0.618500586552789 -0.487230559850862 0.613866348581711 -0.491298820770475 0.603097163978281 -0.495364701455517 0.589953308829424 -0.498467681722952 0.57696187540925 -0.500306843474892 0.565420522269732 -0.501104530837663 0.555169051093627 -0.501112598844682 0.545042572227313 -0.50027660594556 0.533924681046358 -0.498410482391614 0.521719828856547 -0.495752149350091 0.510292932176883 -0.492537697147208 0.500138835624506 -0.48891198982442 0.491116131076246 -0.484288506958211 0.481722800703322 -0.477531544872124 0.470292140786419 -0.469762259066064 0.459021726030007 -0.461023233187075 0.447904815682622 -0.454450002119386 0.440878830808824 -0.449990977790404 0.436783449180358 -0.445455998137158 0.43310019253144 -0.437788196975346 0.427778301480684 -0.429733358873302 0.423139736801659 -0.393331172918014 0.404926637182616 -0.384029455955607 0.402403153202546 -0.37428118259784 0.401033243741295 -0.363049638469852 0.400271743759314 1.22177991081717 1.21812417420408 66 65 16 66 16 67 64 16 65 68 67 16 63 16 64 62 16 63 69 68 16 61 16 62 60 17 16 60 16 61 70 69 16 59 17 60 58 17 59 32 70 16 57 17 58 56 17 57 55 17 56 54 17 55 53 17 54 52 17 53 51 17 52 50 17 51 49 17 50 48 17 49 2 1 13 2 13 22 47 17 48 46 17 47 45 17 46 3 2 22 3 22 21 44 17 45 43 17 44 42 18 17 42 17 43 41 18 42 15 32 16 40 18 41 4 3 21 4 21 20 5 4 20 6 20 19 6 5 20 7 19 18 7 18 40 7 6 19 24 15 14 24 14 23 25 15 24 26 15 25 27 15 26 28 15 27 130 8 7 130 129 8 128 8 129 131 130 7 127 8 128 132 131 7 132 40 39 132 7 40 126 8 127 133 39 38 133 132 39 125 9 8 125 8 126 124 9 125 31 28 29 31 29 30 31 15 28 123 9 124 134 38 37 134 133 38 122 9 123 135 36 35 135 37 36 135 134 37 121 9 122 136 35 34 136 135 35 120 9 121 137 34 33 137 136 34 119 9 120 101 137 33 118 9 119 117 9 118 116 9 117 115 9 116 114 9 115 113 9 114 112 9 113 111 9 112 110 9 111 109 9 110 108 9 109 107 9 108 106 9 107 105 9 106 10 103 102 10 104 103 10 105 104 10 9 105 71 101 33 88 86 87 89 72 86 89 86 88 100 72 89 100 73 72 99 73 100 99 74 73 90 101 71 90 71 85 98 74 99 98 75 74 97 76 75 97 75 98 91 84 83 91 85 84 91 90 85 96 77 76 96 76 97 95 77 96 95 78 77 95 79 78 92 83 82 92 91 83 94 79 95 94 80 79 93 80 94 93 92 82 93 81 80 93 82 81 12 11 138 31 32 15 102 138 10 10 138 11 
73 71 1 0 0.00644614919738673
43.45818691218 58.18812341696 -0.4267765891201 43.17408227854 58.0770253924 -0.4238573419504 43.37672327742 58.39486558328 -0.4292742133995 43.32264524735 58.44492830129 -0.4238573419504 43.3299082477637 58.4414125826203 -0.423937591897788 43.3345366435335 58.438745369595 -0.424005952964079 43.3423546604838 58.433050530082 -0.423894549744915 43.3480876954004 58.4274363678641 -0.423421362033557 43.3542449531583 58.4205082850803 -0.423142884287863 43.3579763793825 58.4164384445561 -0.423507386533864 43.3649052916554 58.4097577083765 -0.425446113929879 43.3717367944208 58.4028143955299 -0.427999954027288 40.51098588227 57.33383804062 -0.4238573419504 40.5835822670112 57.4852491920759 -0.4238573419504 40.6678534784147 57.6304867035273 -0.4238573419504 40.7632782220132 57.7686521482419 -0.4238573419504 40.8692662084612 57.8988908465336 -0.4238573419504 40.9851618050919 58.0203971528952 -0.4238573419504 41.1102480916046 58.132419439653 -0.4238573419504 41.2437512948733 58.2342647464719 -0.4238573419504 41.3848455754405 58.3253030669486 -0.4238573419504 41.5326581360909 58.4049712457781 -0.4238573419504 41.6862746208997 58.4727764623842 -0.4238573419504 41.8447447713614 58.5282992794656 -0.4238573419504 42.0070883046076 58.5711962375997 -0.4238573419504 42.1723009773535 58.601201979853 -0.4238573419504 42.3393607980615 58.6181308932568 -0.4238573419504 42.5072343488938 58.6218782569932 -0.4238573419504 42.6748831783473 58.6124208901887 -0.4238573419504 42.8412702250263 58.5898172953098 -0.4238573419504 43.005366232816 58.5542072962715 -0.4238573419504 43.1661561177731 58.5058111734981 -0.4238573419504 40.50390988618 57.25960895934 -0.4316379746316 40.5025367520999 57.2680078304765 -0.430081848095359 40.5029728522807 57.2740259396968 -0.427955782210453 40.5044000431237 57.2840711131372 -0.424402972425264 40.5048823536466 57.2920318513172 -0.422949520622777 40.5046820432098 57.2993009202349 -0.422913805620599 40.5044838932156 57.3051608532703 -0.423389999875483 40.505133172702 57.3148010339733 -0.424045404763719 40.5074706715604 57.3244046322759 -0.424011793250887 40.508201756359 57.2495625491109 -0.431316716601307 40.51296462153 57.2396944085662 -0.430458033212449 40.5198144497381 57.2267343169356 -0.4287495844007 40.540873343903 57.1879242896186 -0.423282409124533 40.5491899212918 57.169976594068 -0.422257794310933 40.5565165457013 57.1515774213035 -0.422292621724985 40.5628793838818 57.1326076968349 -0.423251560613212 40.5683310403652 57.1129739979374 -0.42498082907043 40.5760384589522 57.0823159709059 -0.428084382895819 40.5810767307245 57.0648849989525 -0.429356238102737 40.583267841171 57.0583790515282 -0.429615485178674 40.58564658256 57.05201693961 -0.4297076350299 40.87097920614 57.16605246002 -0.425813665449 43.0459363197483 58.1277319500588 -0.4238573419504 42.9141763103787 58.1681280102047 -0.4238573419504 42.7796303592862 58.1979596844621 -0.4238573419504 42.6431440849087 58.2170394813936 -0.4238573419504 42.5055753005747 58.2252474848815 -0.4238573419504 42.3677886231647 58.2225321077988 -0.4238573419504 42.2306500390125 58.2089104162326 -0.4238573419504 42.0950214611997 58.1844680222244 -0.4238573419504 41.96175531245 58.1493585457 -0.4238573419504 41.8316891676709 58.103802648972 -0.4238573419504 41.705640489813 58.0480866498813 -0.4238573419504 41.584401492133 57.982560722296 -0.4238573419504 41.4687341591498 57.9076366952756 -0.4238573419504 41.3593654575885 57.8237854647349 -0.4238573419504 41.2569827674099 57.7315340338724 -0.4238573419504 41.1622295616418 57.631462200967 -0.4238573419504 41.075701362165 57.5241989153577 -0.4238573419504 40.9979419968709 57.4104183245109 -0.4238573419504 40.9294401817148 57.2908355370174 -0.4238573419504 -1.54329337383812 0.458337429741123 -1.23824087792958 0.457247176695938 -1.54351208543987 0.236124470424546 -1.51161750872606 0.169690706065436 -1.5170801347764 0.175629659627032 -1.52040437448486 0.179811226687863 -1.52558231128312 0.187980777264751 -1.52885083003272 0.195309030258982 -1.53203099500823 0.204015160563772 -1.53400554851642 0.209171543210751 -1.53799426923924 0.21793123317006 -1.54179589609436 0.226899324191792 1.51161750572234 0.169690703037482 1.38845547586568 0.0555561935135049 1.25670457869158 -0.0485460297952962 1.1171798139118 -0.141971999510155 0.97074426985075 -0.224143790530926 0.818303784325539 -0.294553095149375 0.66080134121027 -0.352764367397426 0.499211237218037 -0.39841751729746 0.334533054984352 -0.43123013834828 0.167785479733998 -0.450999254467701 -2.21909878394831e-09 -0.45760257558533 -0.167785484158454 -0.450999254118531 -0.334533059367666 -0.431230137652099 -0.499211241533067 -0.398417516258576 -0.660801345430293 -0.352764366022265 -0.818303788424422 -0.294553093446443 -0.970744273803108 -0.224143788510757 -1.11717981769315 -0.141971997185247 -1.25670458227851 -0.0485460271800291 -1.38845547923597 0.0555561964029523 1.54547875026805 0.236124447069822 1.54366906011046 0.227808705665482 1.54105172216672 0.222372037196348 1.53603263869155 0.213554374001461 1.53265837518533 0.206328011043377 1.53017316085434 0.199494037314291 1.52820381866787 0.193971377633281 1.52405704754186 0.185244468841143 1.51835364868612 0.177172031615403 1.54517946543414 0.247045112649913 1.54437663020371 0.257973083094589 1.54276922886875 0.272543614399367 1.53744744825315 0.316377093554898 1.53630897476477 0.33612523557273 1.53625709973303 0.35592943443648 1.53731124953981 0.375910048148532 1.53945683552616 0.396173294472573 1.54355615285712 0.427518382128492 1.54527665397224 0.445581129472287 1.54562993071998 0.452437040237159 1.5457558455446 0.459228139125394 1.23875478303525 0.457768940779354 -1.13769850492987 0.362993407667981 -1.03000572104997 0.277000349549395 -0.915839373143628 0.199808466879535 -0.795916994276664 0.131902908997447 -0.670992294046927 0.0737104608886119 -0.541850421535526 0.0255968608503865 -0.409303030661571 -0.0121354981653996 -0.274183178954571 -0.0392494690857106 -0.137340091805599 -0.0555746411806095 0.000366174896207726 -0.0610084110910676 0.138070140196604 -0.0555166276888912 0.274906337605601 -0.0391338067158338 0.410014754535931 -0.0119629138528967 0.542546237463849 0.0258252824167862 0.671667828840949 0.073993284084227 0.796568002214617 0.132238356284515 0.916461762654513 0.200194429978998 1.03059558042899 0.277434402691392 1.13825212692342 0.363472822837755 8 5 4 8 6 5 8 7 6 9 8 4 10 9 4 3 11 10 3 12 11 2 1 3 2 10 4 2 3 10 55 2 4 55 4 32 56 55 32 56 32 31 57 56 31 57 31 30 58 57 30 58 30 29 59 58 29 59 29 28 60 28 27 60 59 28 61 60 27 61 27 26 62 26 25 62 61 26 63 25 24 63 62 25 64 23 22 64 24 23 64 63 24 65 22 21 65 64 22 66 21 20 66 65 21 67 20 19 67 66 20 68 19 18 68 67 19 69 68 18 17 69 18 70 69 17 16 70 17 71 70 16 15 71 16 72 71 15 14 72 15 73 72 14 13 73 14 54 73 13 39 41 40 38 13 41 38 41 39 37 13 38 33 35 34 42 36 35 42 35 33 43 36 42 44 37 36 44 13 37 44 36 43 45 54 13 45 13 44 46 54 45 47 54 46 48 54 47 49 54 48 50 54 49 51 54 50 52 54 51 53 54 52 

TShapes 6
Ve
0.0212955098964906
43.37672327742 58.39486558328 -0.4292742133995
0 0

0101101
*
Ve
0.0212955098964906
43.45818691218 58.18812341696 -0.4267765891201
0 0

0101101
*
Ed
 0.0212955098964906 1 1 0
1  1 0 0 1
2  1 1 0 0 1
4 C0 2 0 1 0
6  1 1 0
0

0101000
+6 0 -5 0 *
Ed
 0.0188173557065705 1 1 0
1  2 0 0 0.222227102870098
2  2 1 0 0 0.222227102870098
4 C0 3 0 1 0
6  2 2 0
0

0101000
+6 0 -5 0 *
Wi

0101100
-4 0 +3 0 *
Fa
0  1e-07 1 0

0111000
+2 0 *

+1 0 