DBRep_DrawableShape

CASCADE Topology V3, (c) Open Cascade
Locations 0
Curve2ds 3
7 0 0  1 2 2  0.31889538377022131 0.0043251650406546105  0.33195879707716741 0.074325165036391638 
 0 2 0.070003533093327422 2
7 0 0  1 2 2  6.3151499829476041 0.0043251650406546105  6.3267469865209209 0.074325165036391638 
 0 2 0.070003533093327422 2
7 0 0  1 2 2  0.31889538377022131 0.0043251650406546105  0.33195879713852028 0.074325165036334795 
 0 2 1 2
Curves 2
1 -30.114985626229998 -27.984944291630001 -1.2894951585979999 -0.71173960002710746 -0.70240258659800736 0.0075728524138480788 
7 0 0  3 4 2  -30.114985626229998 -27.984944291630001 -1.2894951585979999  -30.13148478446 -28.001443449859998 -1.2894951585979999  -30.148310754650002 -28.017615796120001 -1.288965032174  -30.164809912879999 -28.034114954340001 -1.288965032173 
 0 4 1 4
Polygon3D 0
PolygonOnTriangulations 2
3 3 8 9 
p 0.0166666666666667 1 0 0.0233345110311091 0.0700035330933274 
3 4 5 1 
p 0.0166666666666667 1 0 0.5 1 
Surfaces 3
2 -30.14543096928 -27.948382241520001 -1.3051387818860001 -0.70710678118654757 -0.70710678118654757 0 0.70710678118654757 -0.70710678118654757 0 0 0 1 0.049999999997419997
2 -30.14543096928 -27.948382241520001 -1.291010205144 -0.70710678118654757 -0.70710678118654757 0 0.70710678118654757 -0.70710678118654757 0 0 0 1 0.049999999997419997
1 -30.152024856720001 -27.997402535820001 -1.26 0.58834840544078626 -0.58834840538788624 0.55470019622568711 -0.39223227032619196 0.39223227022719187 0.83205029433753841 -0.70710678113708214 -0.707106781236013 -3.7497446744678548e-11 
Triangulations 2
13 11 1 0 0.00613058867735057
-30.12475387122 -27.97517604664 -1.327916992569 -30.17677359405 -28.02215127317 -1.331010205146 -30.11498562623 -27.98494429163 -1.289495158598 -30.1153030651396 -27.9846268527204 -1.29524109106408 -30.1153447680352 -27.9845851498248 -1.30829125811562 -30.1164836173166 -27.9834463005434 -1.31384120369312 -30.1212168444363 -27.9787130734237 -1.32225815073765 -30.1315937217781 -28.0013345125353 -1.28931844978981 -30.16480991288 -28.03411495434 -1.288965032173 -30.1683285585385 -28.0305963086907 -1.31918361534188 -30.1661812566296 -28.0327436105992 -1.31422507611862 -30.1651679849688 -28.0337568822551 -1.30294073285198 -30.1651233239975 -28.0338015432233 -1.29438189615531 5.45043204562045 0.00432516504066172 5.40310822329277 0.0743251650363348 6.3151499829476 0.00432516504065461 6.23547026927652 0.00432516504065527 6.03022644110041 0.00432516504065695 5.88279101428403 0.00432516504065816 5.61893796719955 0.00432516504066033 6.31901565080538 0.027658498372567 6.32674698653769 0.0743251650363348 5.81361434029051 0.0743251650363348 5.95044971262309 0.0743251650363348 6.13859834958039 0.0743251650363348 6.25311197203718 0.0743251650363348 7 2 1 10 7 6 10 2 7 11 6 5 11 10 6 12 5 4 12 11 5 8 4 3 13 12 4 13 4 8 9 13 8 
6 4 1 0 0.00164265338720065
-30.16480991288 -28.03411495434 -1.288965032173 -30.174893861885 -28.024031005335 -1.26578063004887 -30.18497781089 -28.01394705633 -1.242596227924 -30.11498562623 -27.98494429163 -1.289495158598 -30.139897769555 -28.0095296229888 -1.28923009538588 -30.13548033621 -27.96444958165 -1.242596227925 -0.0334854472027871 0.0350000000001055 -0.00628435816819705 0.034999999998239 0.0209167308661843 0.0349999999963725 -0.0341829114575122 -0.0349999999964436 -0.0338341793319452 4.94722984800688e-12 0.0209167308612822 -0.034999999999301 6 5 4 2 1 5 2 5 6 3 2 6 

TShapes 6
Ve
0.00724753242844349
-30.16480991288 -28.03411495434 -1.288965032173
0 0

0101101
*
Ve
0.00501962046137816
-30.11498562623 -27.98494429163 -1.289495158598
0 0

0101101
*
Ed
 0.00303627754894333 1 1 0
1  1 0 0 0.0700035330933274
2  1 1 0 0 0.0700035330933274
2  2 2 0 0 0.0700035330933274
4 C0 1 0 2 0
6  1 1 0
0

0101000
-6 0 +5 0 *
Ed
 0.00198930343391261 1 1 0
1  2 0 0 1
2  3 1 0 0 1
4 C0 3 0 1 0
6  2 2 0
0

0101000
+5 0 -6 0 *
Wi

0101100
-4 0 +3 0 *
Fa
0  1e-07 1 0

0111000
+2 0 *

-1 0 