DBRep_DrawableShape

CASCADE Topology V3, (c) Open Cascade
Locations 0
Curve2ds 2
7 0 0  3 4 2  6.5630806358241705 0.080577838867725418  6.563080635756176 0.080577842459811561  6.5629708184229631 0.086379894170104138  6.5626707920444742 0.10223138601999437 
 0.78867520000000002 4 0.999999999999997 4
7 0 0  3 25 23  6.5626707920444742 0.10223138601999437  6.5626199104855649 0.10492041310541504  6.5625291006017594 0.10972007573776481  6.5624233797484166 0.11530880317870519  6.5623457853403711 0.11941117221996428  6.5622939561414091 0.12215159096940194  6.5622655339237737 0.12365446753499561  6.5622581633331771 0.12404421002459358  6.562269491010861 0.12344522654610207  6.5622971650020911 0.12198192520745325  6.5623388341871021 0.11977871411654459  6.5623921477996294 0.11696000138125928  6.5624547550211352 0.11365019510952931  6.5625243046414496 0.10997370340923361  6.5625984448067607 0.10605493438828709  6.5626748228321992 0.10201829615459816  6.5627510850908957 0.097988196816066381  6.5628248769891995 0.094089044480589454  6.5628938429964654 0.090445247256082592  6.5629556267711582 0.087181213250434292  6.5630078713419184 0.084421350571580372  6.5630482194016579 0.082290067327379451  6.563074313549909 0.080911771625780518  6.5630806359022724 0.080577838258368298  6.5630806358241687 0.080577838867725404 
 0.999999999999997 4 1.0358488727272699 1 1.0716977454545427 1 1.1075466181818157 1 1.1433954909090884 1 1.1792443636363614 1 1.2150932363636342 1 1.2509421090909072 1 1.28679098181818 1 1.3226398545454527 1 1.3584887272727257 1 1.3943375999999985 1 1.4301864727272715 1 1.4660353454545443 1 1.5018842181818173 1 1.5377330909090901 1 1.573581963636363 1 1.6094308363636358 1 1.6452797090909086 1 1.6811285818181816 1 1.7169774545454544 1 1.7528263272727274 1 1.7886752000000001 4
Curves 1
7 0 1  3 3 2  49.645581292919999 56.894003488929997 -0.036217439122470003  49.645584129260001 56.969013576579997 -0.036201681681919999  49.645578456579997 56.818993401269999 -0.03623319656303 
 0 3 1 3
Polygon3D 0
PolygonOnTriangulations 0
Surfaces 2
2 49.637039291359997 56.791772102910002 -0.040000000000000001 0 1 0 0.76718739504262401 -0 0.64142302803041995 0.64142302803041995 0 -0.76718739504262401 0.0099999999994510001
1 49.431405623019998 58.237500305220003 -1.2388576498849999 0.98418332397358166 0 -0.1771529983158967 0.1771529983158967 0 0.98418332397358166 0 -1 0 
Triangulations 0

TShapes 6
Ve
0.223935485711044
49.6451315367222 56.7996771335595 -0.0341443868204987
0 0

0101101
*
Ve
0.121858367697736
49.64558129292 56.89400348893 -0.0362174391224696
0 0

0101101
*
Ed
 0.00226321914755474 1 1 0
1  1 0 0.7886752 0.999999999999997
2  1 1 0 0.7886752 0.999999999999997
4 C0 2 0 1 0
0

0101000
+6 0 -5 0 *
Ed
 0.00226321914755474 1 1 0
1  1 0 0.999999999999997 1.7886752
2  2 1 0 0.999999999999997 1.7886752
4 C0 2 0 1 0
0

0101000
+5 0 -6 0 *
Wi

0101100
+4 0 +3 0 *
Fa
0  1e-07 1 0

0111000
+2 0 *

+1 0 