DBRep_DrawableShape

CASCADE Topology V3, (c) Open Cascade
Locations 0
Curve2ds 2
7 0 0  1 2 2  -0.017155149562585237 0.22816998785000209  0.21973706602802157 0.0040504562799981159 
 0 2 0.22413050339638133 2
7 0 0  1 2 2  -0.017155149562585237 0.22816998785000209  0.21973706602802157 0.0040504562799981159 
 0 2 0.22413050339638133 2
Curves 2
1 -18.559524340980001 45.885557909239999 -0.78438625058910005 -0.00043064933792999417 0.99995104715238647 -0.0098852334314258657 
1 -18.559524340980001 45.885557909239999 -0.78438625058910005 -0.00043064933792999417 0.99995104715238647 -0.0098852334314258657 
Polygon3D 0
PolygonOnTriangulations 2
3 62 63 53 
p 0.0166666666666667 1 0 0.0747101677987938 0.224130503396381 
3 25 26 24 
p 0.0166666666666667 1 0 0.0747101677987938 0.224130503396381 
Surfaces 3
2 -18.553039291360001 46.113727897090001 -0.79000000000000004 0 -1 0 -0.76718739504002875 0 0.64142302803352402 -0.64142302803352402 -0 -0.76718739504002875 0.0099999999994759992
1 -17.015000000000001 46.345351226920002 -0.78000000000000003 0 0 1 1 0 -0 -0 1 0 
1 -18.347405623019998 44.668000374839998 -1.988857649893 0.98418332397358166 0 0.1771529983158967 -0.1771529983158967 0 0.98418332397358166 0 -1 0 
Triangulations 2
63 61 1 0 0.00512026932928167
-15.7765182789 45.88731344808 -0.781956323499 -15.8767755481654 45.9819023793312 -0.78 -15.9844633960543 46.0679602398262 -0.78 -16.0986315841843 46.1452147073671 -0.78 -16.2185621868642 46.2131799814176 -0.78 -16.3435010425166 46.2714286748293 -0.78 -16.4726624960849 46.3195945013875 -0.78 -16.6052343394807 46.3573745791344 -0.78 -16.7403829190051 46.384531334987 -0.78 -16.8772583776274 46.4008939986717 -0.78 -17.0149999991544 46.406359676582 -0.78 -17.1527416206868 46.4008939988057 -0.78 -17.2896170793249 46.3845313352541 -0.78 -17.4247656588758 46.357374579533 -0.78 -17.5573375023083 46.3195945019151 -0.78 -17.6864989559235 46.2714286754826 -0.78 -17.8114378116326 46.2131799821924 -0.78 -17.9313684143786 46.1452147082586 -0.78 -18.0455366025838 46.0679602408288 -0.78 -18.1532244505563 45.9819023804385 -0.78 -18.25348171869 45.88731344808 -0.781956323499 -15.47170513181 45.88702045502 -0.7829108888878 -15.47003660674 46.10967726181 -0.7860407639324 -15.50338249127 46.17566052086 -0.78 -15.4978986762628 46.16972800495 -0.780089492799001 -15.4945562829509 46.1655519954927 -0.780165727405558 -15.4894083899634 46.1573730020332 -0.780041493231924 -15.4862667106699 46.1500052999882 -0.779513805749058 -15.4831611269344 46.1412759734998 -0.779203254107211 -15.4810888582358 46.1361499273554 -0.779609738189687 -15.4765805597257 46.1275515935593 -0.78177176005758 -15.4720944856171 46.1187961173301 -0.784619740722144 -18.52661750594 46.17566052373 -0.78 -18.4034554760081 46.2897950332872 -0.78 -18.2717045788352 46.3938972566137 -0.78 -18.1321798140547 46.4873232263456 -0.78 -17.9857442699913 46.5694950173826 -0.78 -17.8333037844621 46.6399043220164 -0.78 -17.6758013413413 46.6981155942787 -0.78 -17.5142112373423 46.7437687441917 -0.78 -17.3495330551007 46.7765813652541 -0.78 -17.1827854798414 46.7963504813837 -0.78 -17.0149999978786 46.80295380251 -0.78 -16.8472145159289 46.7963504810503 -0.78 -16.6804669407089 46.7765813645893 -0.78 -16.5157887585325 46.7437687431996 -0.78 -16.3541986546242 46.6981155929655 -0.78 -16.1966962116192 46.6399043203902 -0.78 -16.0442557262299 46.5694950154535 -0.78 -15.8978201823297 46.4873232241254 -0.78 -15.7582954177349 46.3938972541162 -0.78 -15.6265445207689 46.2897950305279 -0.78 -18.55962086263 46.10967744081 -0.7866018329343 -18.5579827343976 46.117903051509 -0.785281466347432 -18.5555998068829 46.1232165773474 -0.783477508706114 -18.5509724440886 46.1318284604384 -0.780462965080895 -18.5477584325604 46.1389706399472 -0.779229717558325 -18.5452771546931 46.1458025466524 -0.779199413534571 -18.543255308791 46.151352788812 -0.779603462285345 -18.5390362799664 46.1601176588891 -0.780159570477807 -18.5333366000901 46.1681881463032 -0.780131051255605 -18.55952434098 45.88555790924 -0.7843862505891 -18.5595565148643 45.9602644197633 -0.785124778037492 1.2384817211 -0.458037778840001 1.13822445183456 -0.3634488475888 1.03053660394571 -0.277390987093771 0.916368415815705 -0.200136519552892 0.79643781313584 -0.132171245502406 0.671498957483412 -0.0739225520906628 0.542337503915087 -0.0257567255324998 0.409765660519314 0.012023352214374 0.274617080994865 0.0391801080669651 0.137741622372608 0.0555427717517116 8.45581604735912e-10 0.0610084496619992 -0.137741620686762 0.0555427718857136 -0.274617079324937 0.0391801083341261 -0.409765658875805 0.0120233526130144 -0.542337502308333 -0.0257567250048869 -0.671498955923516 -0.0739225514373951 -0.796437811632611 -0.132171244727592 -0.916368414378597 -0.200136518661403 -1.03053660258376 -0.277390986091213 -1.13822445055633 -0.363448846481478 -1.23848171869 -0.458037778840001 1.54329486819 -0.458330771900002 1.54496339326 -0.235673965110003 1.51161750872883 -0.169690706061167 1.51710132373716 -0.175623221969971 1.52044371704908 -0.179799231427266 1.52559161003664 -0.187978224886815 1.52873328933012 -0.195345926931806 1.53183887306555 -0.204075253420245 1.53391114176424 -0.209201299564561 1.53841944027426 -0.217799633360662 1.54290551438287 -0.226555109589916 -1.51161750594 -0.16969070319 -1.38845547600811 -0.0555561936328144 -1.25670457883517 0.0485460296936733 -1.11717981405472 0.141971999425599 -0.970744269991272 0.22414379046264 -0.818303784462058 0.294553095096402 -0.66080134134132 0.352764367358661 -0.499211237342304 0.398417517271668 -0.334533055100683 0.431230138334112 -0.16778547984141 0.450999254463712 2.12140816024942e-09 0.457602575589996 0.167785484071104 0.45099925413027 0.334533059291089 0.431230137669291 0.499211241467501 0.398417516279581 0.66080134537579 0.352764366045444 0.818303788380844 0.294553093470178 0.970744273770133 0.224143788533469 1.11717981767028 0.141971997205416 1.25670458226507 0.048546027196211 1.38845547923112 -0.0555561963921067 -1.5446208626329 -0.235673786109999 -1.54298273439756 -0.227448175410988 -1.54059980688291 -0.222134649572597 -1.53597244408861 -0.213522766481604 -1.53275843256035 -0.206380586972785 -1.53027715469311 -0.199548680267572 -1.528255308791 -0.193998438108009 -1.52403627996644 -0.185233568030887 -1.51833660009006 -0.177163080616814 -1.54452434098 -0.459793317680003 -1.5445565148643 -0.385086807156668 55 54 53 56 55 53 21 57 56 21 63 62 21 53 63 21 56 53 61 59 58 61 60 59 33 58 57 33 57 21 33 61 58 20 33 21 34 33 20 19 34 20 35 34 19 18 35 19 36 35 18 17 36 18 37 36 17 16 37 17 38 37 16 38 16 15 39 38 15 39 15 14 40 14 13 40 39 14 41 13 12 41 40 13 42 12 11 42 41 12 43 42 11 44 11 10 44 43 11 45 10 9 45 44 10 46 9 8 46 45 9 47 8 7 47 46 8 48 7 6 48 47 7 49 6 5 49 48 6 50 5 4 50 49 5 51 4 3 51 50 4 23 1 22 31 23 32 30 1 23 30 23 31 52 3 2 52 51 3 26 28 27 25 28 26 24 2 1 24 29 28 24 30 29 24 1 30 24 52 2 24 28 25 
132 130 1 0 0.0296442309547961
-18.5566468416253 43.2277594600345 -0.780684010731693 -18.5077687140624 43.4285412677016 -1.06904951262104 -18.4114848512249 43.6018853641651 -1.62602573851928 -18.3612120236077 43.7063202674434 -1.91318445945868 -18.2957185862471 43.8744659774932 -2.2778201948334 -18.2139591168252 44.1188051623426 -2.73001718360115 -18.1747385411826 44.2544758025557 -2.94815430806048 -18.162356092836 44.3038333916078 -3.0169597272426 -18.1495065848321 44.3624347156821 -3.08832957363355 -18.1410452017306 44.4075125439935 -3.13531929967817 -18.1352316833128 44.4429277026545 -3.16760607142088 -18.12981124639 44.48052655133 -3.197715297759 -18.1298112493 44.85547343618 -3.197715281597 -18.1349580744784 44.8912712387847 -3.16912338209406 -18.1404628103566 44.9250517979408 -3.13854541533185 -18.146285031693 44.9570090829624 -3.1062047330488 -18.1523843132456 44.987337063164 -3.07232468698334 -18.1608778004195 45.0255751515399 -3.02514276638738 -18.1741972020638 45.0791535992328 -2.95114129880536 -18.1989365293957 45.1679486595779 -2.81364012244045 -18.2266238652668 45.2580521560751 -2.65978175224856 -18.2956885669061 45.4562399333932 -2.27643727516872 -18.3918296376032 45.706745297161 -1.73473665976655 -18.55962086263 46.10967744081 -0.7866018329343 -18.55952434098 45.88555790924 -0.7843862505891 -18.5595565148643 45.9602644197633 -0.785124778037492 -18.27716777826 45.36044666815 -2.379067898566 -18.2744247478268 45.35503094125 -2.3943069565315 -18.2724090636543 45.350265131821 -2.40550520193677 -18.271396773236 45.3473841352262 -2.41112903759513 -18.2700670963735 45.3425751655475 -2.41851613127611 -18.2650993621423 45.3149579568919 -2.44611465477002 -18.2643434391496 45.3104642492816 -2.4503142269488 -18.2636703662549 45.3060445720597 -2.45405352080557 -18.2627980486998 45.2994873373401 -2.45889972944143 -18.2618679856743 45.2909517660697 -2.46406674624524 -18.2614633928808 45.2865009622459 -2.46631448398512 -18.2610912684671 45.2818667242735 -2.46838184183748 -18.2603705638471 45.2710975396694 -2.47238575639058 -18.259650280893 45.2579536845201 -2.47638732835705 -18.2591005786356 45.2449622511 -2.47944122978972 -18.2587747656179 45.2334208979614 -2.48125130211472 -18.2586334529112 45.2231694267868 -2.48203637271342 -18.2586320236409 45.2130429479224 -2.48204431310984 -18.2587801222909 45.2019250567433 -2.48122154283796 -18.2591107116747 45.1897202045545 -2.47938493515428 -18.259581643344 45.1782933078697 -2.47676864810278 -18.2601510931901 45.1681392113126 -2.473605037846 -18.2607933981139 45.1591165067603 -2.47003667715777 -18.2616124619669 45.1497231763878 -2.46548632241971 -18.2628094780608 45.1382925164718 -2.45883623301096 -18.2641858303368 45.1270221017161 -2.45118983147887 -18.2657339749739 45.1159051913689 -2.44258902793782 -18.2668984425662 45.1088792064969 -2.43611976353444 -18.2676883720955 45.1047838248703 -2.43173126614815 -18.2684917573381 45.101100568223 -2.42726801479843 -18.2698501313041 45.0957786771747 -2.41972149276305 -18.2712770700244 45.0911401124977 -2.41179405542593 -18.2777258264064 45.0729270128893 -2.37596763106527 -18.279373653456 45.0704035289126 -2.36681303634641 -18.2811005893105 45.0690336194537 -2.35721894827179 -18.2830902910295 45.0682721194735 -2.34616504984217 -18.28562767626 45.068 -2.332068465244 -18.50715431887 45.068 -1.101364895145 -18.521595159376 45.0137286279851 -1.02113800236333 -18.5327846583217 44.9644386206934 -0.958974119011586 -18.5405859322476 44.9242472675076 -0.915633708372087 -18.5466364193847 44.887899837411 -0.882019891154255 -18.5508604566665 44.8583534481998 -0.858553017593731 -18.5542295122831 44.8309235955849 -0.839836042165274 -18.5568146138282 44.8061858534959 -0.825474367094151 -18.5587780735327 44.7838868552622 -0.814566257751284 -18.5603966130706 44.7615601130335 -0.80557437150746 -18.5611597695632 44.7489083401636 -0.801334613231497 -18.56181191357 44.73625030814 -0.7977115909635 -18.5643579225743 44.6921629705111 -0.78300840484 -18.56499999385 44.668 -0.7799998975299 -18.5643561972018 44.6437817606601 -0.78301543037887 -18.56181191358 44.59974969186 -0.7977115909463 -18.5607034547473 44.5793082901926 -0.803869695566643 -18.5593056543507 44.5588847448513 -0.811635253263343 -18.5576191766186 44.5384830697358 -0.821004573890667 -18.5556446857794 44.5181072787456 -0.831973967302879 -18.5533828460617 44.4977613857804 -0.844539743354247 -18.5508343216938 44.4774494047399 -0.858698211899036 -18.5479997769043 44.4571753495237 -0.874445682791512 -18.5448798759215 44.4369432340313 -0.89177846588594 -18.5402772685819 44.4100392572164 -0.917348506518553 -18.5344963252961 44.3798817813285 -0.949464858044589 -18.5280790595459 44.3498532897038 -0.985116334518062 -18.5210277131022 44.3199673292536 -1.02429048169712 -18.5143326129282 44.2939192478044 -1.06148548308574 -18.50715431887 44.268 -1.101364895145 -18.28562767626 44.268 -2.332068465244 -18.2827180438454 44.2676312855104 -2.34823308975174 -18.2805356116089 44.2666127840832 -2.36035771327828 -18.2794120025174 44.2656377104195 -2.36659998600512 -18.2778762659698 44.2633796298105 -2.37513185571261 -18.2716078993105 44.2458316369524 -2.40995611494752 -18.2706177469984 44.2428198706528 -2.41545696112686 -18.2697136866838 44.2397311771782 -2.42047951843139 -18.2682784360359 44.2339646440849 -2.42845313314434 -18.2675908390402 44.2307373992941 -2.43227311645553 -18.2669378941078 44.2273375614287 -2.43590058830338 -18.2658102735365 44.2205931146472 -2.4421651470347 -18.2642520028947 44.2094852523527 -2.45082220615711 -18.2628681809765 44.1982215120673 -2.45851010570134 -18.2616624373304 44.1867986506222 -2.46520868151115 -18.2608353842163 44.1774124590233 -2.46980342103309 -18.2601533814816 44.1678966582129 -2.47359232511568 -18.2596087255964 44.1582581316503 -2.47661819114499 -18.2591502522043 44.1474175746347 -2.47916526554555 -18.2588040117155 44.1352267074309 -2.4810888238132 -18.2586428183477 44.1244265954917 -2.48198434251758 -18.2586248396098 44.1143091921236 -2.48208422438874 -18.258745278538 44.1040681061789 -2.48141511922633 -18.2590109345541 44.0936972620602 -2.47993925246584 -18.2594108237135 44.0832064744292 -2.4777176460219 -18.2599300699856 44.0726090357063 -2.47483294450933 -18.2605548542733 44.0619172938932 -2.47136192068954 -18.2612422962035 44.0521829114034 -2.46754279885768 -18.2617533770255 44.0462541642601 -2.46470346096012 -18.2622775360626 44.0410418578627 -2.46179146631199 -18.2628372145938 44.0361931419984 -2.45868214114138 -18.2638326989516 44.0288459341362 -2.45315167249121 -18.265041637414 44.0213725791968 -2.44643534770515 -18.2681179940635 44.0043282784942 -2.42934447744014 -18.2694818588437 43.9962134201434 -2.42176745088563 -18.2708547945155 43.9903891839292 -2.41414003048618 -18.2722953265879 43.9860370321405 -2.40613707452718 -18.2743455206043 43.9811401192522 -2.39474710776692 -18.27716777826 43.97555333185 -2.379067898566 1.26008901389141 1.35911643156795 0.93366863235563 1.23945910713837 0.368444943985732 1.06611501067493 0.076922137357408 0.961680107396586 -0.293548631521704 0.793534397346779 -0.753077302166788 0.549195212497375 -0.974712264969979 0.413524572284265 -1.04462299897912 0.364166983232175 -1.11714034050141 0.305565659157902 -1.16488580465895 0.260487830846529 -1.19769178921154 0.22507267218553 -1.22828503432284 0.187473823509997 -1.22828501790244 -0.18747306134 -1.19923357169876 -0.223270863944714 -1.1681640662646 -0.257051423100753 -1.13530348210911 -0.289008708122423 -1.1008787997414 -0.319336688324028 -1.0529384935788 -0.35757477669993 -0.977747911297942 -0.411153224392834 -0.838038900479687 -0.49994828473788 -0.681709163718127 -0.590051781235153 -0.292192903065591 -0.788239558553234 0.25797148813475 -1.03874492232097 1.22083469218676 -1.44167706597 1.22299813228515 -1.2175575343951 1.22227698558463 -1.29226404492334 -0.396481264382031 -0.692446293309999 -0.411965227170448 -0.687030566409963 -0.423343438050906 -0.682264756980992 -0.429057653605404 -0.679383760386181 -0.436563464261832 -0.67457479070752 -0.464605519864722 -0.646957582051911 -0.468872582795552 -0.642463874441622 -0.472671970334207 -0.638044197219663 -0.477596061728498 -0.631486962500057 -0.482846116955083 -0.62295139122969 -0.485129977781798 -0.618500587405941 -0.48723055986042 -0.613866349433508 -0.491298820778525 -0.603097164829445 -0.495364701462545 -0.589953309680079 -0.498467681728723 -0.576961876260041 -0.500306843479152 -0.565420523121416 -0.501104530840229 -0.555169051946831 -0.501112598845485 -0.545042573082373 -0.500276605944552 -0.533924681903267 -0.498410482389044 -0.521719829714461 -0.495752149345003 -0.510292933029751 -0.492537697139105 -0.500138836472583 -0.488911989812739 -0.491116131920303 -0.484288506944006 -0.48172280154776 -0.477531544854923 -0.470292141631748 -0.469762259046205 -0.459021726876079 -0.461023233164027 -0.44790481652887 -0.454450002094437 -0.440878831656867 -0.449990977764979 -0.436783450030285 -0.445455998111339 -0.43310019338304 -0.437788196949212 -0.427778302334668 -0.429733358847459 -0.42313973765768 -0.393331172905627 -0.404926638049331 -0.384029455943042 -0.402403154072645 -0.374281182586743 -0.401033244613716 -0.363049638462128 -0.400271744633461 -0.348726509574164 -0.39999962516 0.901755529817239 -0.39999962516 0.983271738021022 -0.345728253145139 1.04643464865712 -0.296438245853426 1.09047157712935 -0.256246892667614 1.12462559742785 -0.219899462570978 1.14846960392138 -0.19035307335977 1.16748737731726 -0.16292322074486 1.18207985691624 -0.138185478655859 1.19316326900131 -0.11588648042217 1.20229966262557 -0.0935597381934976 1.2066075574793 -0.0809079653236437 1.21028880484399 -0.0682499333000024 1.22217102455352 -0.0233591526187737 1.22828513614114 3.74839999039978e-07 1.22215674780057 0.0234132981866788 1.21028880486269 0.0682506829800005 1.20403173418234 0.0886920846473764 1.19614137726458 0.109115629988659 1.18662148355937 0.129517305104211 1.17547580251667 0.149893096094393 1.16270808358642 0.170238989059567 1.14832207621859 0.190550970100095 1.13232152986312 0.21082502531634 1.11471019396999 0.231057140808662 1.08872922069576 0.257961117623566 1.05609673166079 0.288118593511474 1.01987230517191 0.318147085136177 0.980068595622734 0.348033045586398 0.942275838451039 0.374081127035556 0.901755529817239 0.400000374839998 -0.34872650957318 0.400000374839998 -0.365150913559214 0.400369089329594 -0.377470390257814 0.401387590756771 -0.38381298169875 0.402362664420499 -0.392481965921219 0.404620745029473 -0.427865881078192 0.422168737887568 -0.433455130606509 0.425180504187177 -0.438558404744717 0.42826919766184 -0.446660162332607 0.434035730755129 -0.450541536074772 0.437262975545881 -0.454227304528116 0.440662813411282 -0.460592540128707 0.447407260192838 -0.469388725668014 0.458515122487293 -0.477200176397759 0.469778862772724 -0.484006404106256 0.48120172421783 -0.488674985060683 0.490587915816661 -0.492524780104233 0.500103716627131 -0.495599274413963 0.509742243189714 -0.49818728249998 0.520582800205328 -0.500141754010422 0.532773667409097 -0.501051664473985 0.543573779348275 -0.501153151533279 0.553691182716407 -0.500473293273198 0.563932268661104 -0.498973708059349 0.574303112779844 -0.496716398481203 0.584793900410847 -0.493785337323927 0.59539133913366 -0.490258531153502 0.606083080946823 -0.486378032735253 0.615817463436614 -0.483493064225352 0.621746210579879 -0.480534271308148 0.626958516977264 -0.477374976596534 0.631807232841642 -0.471755628538519 0.639154440703797 -0.464931366612292 0.646627795643231 -0.447565831300924 0.663672096345817 -0.439867035385558 0.671786954696616 -0.432117035752727 0.677611190910851 -0.423985465379601 0.68196334269946 -0.412412452016399 0.686860255587809 -0.396481264384035 0.692447042994978 33 21 32 31 32 21 34 21 33 35 21 34 30 31 21 36 21 35 37 21 36 38 21 37 39 21 38 40 21 39 22 27 28 22 28 29 22 29 30 22 30 21 41 21 40 42 21 41 43 21 42 44 21 43 12 13 14 45 21 44 46 21 45 47 21 46 48 21 47 49 21 48 11 14 15 11 12 14 50 21 49 50 20 21 51 20 50 52 20 51 53 20 52 10 15 16 10 11 15 54 20 53 55 20 54 55 19 20 56 19 55 57 19 56 9 16 17 9 10 16 8 9 17 8 17 18 8 18 19 7 8 19 26 23 24 103 104 7 105 6 7 105 7 104 102 103 7 106 6 105 101 19 57 101 7 19 101 102 7 100 101 57 100 57 58 107 6 106 99 100 58 99 58 59 108 6 107 109 6 108 25 23 26 110 6 109 98 99 59 98 59 60 111 6 110 97 98 60 112 6 111 96 60 61 96 97 60 113 6 112 95 96 61 95 61 62 114 6 113 94 62 63 94 95 62 115 6 114 116 6 115 117 6 116 118 6 117 119 6 118 120 6 119 121 6 120 122 6 121 123 6 122 124 6 123 125 6 124 126 6 125 127 6 126 128 6 127 129 6 128 5 6 129 5 129 130 5 130 131 5 131 132 64 94 63 78 75 76 78 76 77 79 75 78 79 74 75 80 74 79 80 73 74 93 94 64 81 73 80 81 72 73 82 72 81 82 71 72 92 93 64 92 64 65 83 70 71 83 71 82 91 92 65 84 69 70 84 70 83 90 65 66 90 91 65 85 69 84 86 68 69 86 69 85 89 66 67 89 90 66 87 67 68 87 68 86 88 89 67 88 67 87 25 27 22 25 22 23 132 1 2 132 2 5 5 2 3 5 3 4 

TShapes 6
Ve
0.00660189895260564
-18.55952434098 45.88555790924 -0.7843862505891
0 0

0101101
*
Ve
0.00773551624931763
-18.55962086263 46.10967744081 -0.7866018329343
0 0

0101101
*
Ed
 0.00660189895260564 1 1 0
1  1 0 0 0.224130503396381
2  1 1 0 0 0.224130503396381
4 C0 2 0 1 0
6  1 1 0
0

0101000
+6 0 -5 0 *
Ed
 0.0046120609736891 1 1 0
1  2 0 0 0.224130503396381
2  2 1 0 0 0.224130503396381
4 C0 1 0 3 0
6  2 2 0
0

0101000
+6 0 -5 0 *
Wi

0101100
+4 0 -3 0 *
Fa
0  1e-07 1 0

0111000
+2 0 *

+1 0 