DBRep_DrawableShape

CASCADE Topology V3, (c) Open Cascade
Locations 0
Curve2ds 8
7 0 0  1 2 2  6.1242386845838297 0.025614847071000924  6.9907697439068723 0.025614847071000924 
 0.093733632549534263 2 4.1018573454624025 2
1 2.8889123984445089 0.025614847071000924 1 0 
1 2.8889123984445035 0.025614847071000924 1 0 
1 2.8889123984445213 0.025614847071000924 1 0 
1 8.7171935239927922 1.3063572005999999 5.7129474959023928e-12 -1 
1 9.4247779607713689 1.3063572006022532 -1 1.4535517693059052e-12 
1 0 0 0 1 
7 0 0  1 2 2  9.4247779607693793 1.3063572006099999  9.2658313382102122 0.025614847070968061 
 0 2 1.2808444439068958 2
Curves 4
2 71.485000000049993 79.950000000039992 4.9875000000000007 0 0 1 -0.96824583655105678 0.25000000000308886 0 -0.25000000000308886 -0.96824583655105678 0 0.10000000000000001
1 71.409006579290008 80.015000000040004 6.2682423535289997 1.1373189965130002e-12 -1.7198482386300002e-12 -1 
2 71.485000000049993 79.950000000039992 6.2682423535370004 5.7471700232219999e-11 -5.4000137707960002e-12 -1 -1 -1.9539925233819754e-12 -5.7471700232209446e-11 -1.9539925230716276e-12 1 -5.4000137709082997e-12 0.099999999997839997
1 71.385000000049999 79.950000000039992 6.2682423535389997 -0.00060010871681458406 0.012611286588299664 -0.99992029448357322 
Polygon3D 0
PolygonOnTriangulations 7
52 1 2 3 4 5 6 7 8 9 10 11 12 13 14 15 16 17 18 19 20 21 22 23 24 25 26 27 28 29 30 31 32 33 34 35 36 37 38 39 40 41 42 43 44 45 46 47 48 49 50 51 52 
p 0.05 1 0.0937336325495343 0.172324293587041 0.250914954624549 0.329505615662056 0.408096276699563 0.48668693773707 0.565277598774578 0.643868259812085 0.722458920849592 0.801049581887099 0.879640242924607 0.958230903962114 1.03682156499962 1.11541222603713 1.19400288707464 1.27259354811214 1.35118420914965 1.42977487018716 1.50836553122466 1.58695619226217 1.66554685329968 1.74413751433719 1.82272817537469 1.9013188364122 1.97990949744971 2.05850015848721 2.13709081952472 2.21568148056223 2.29427214159973 2.37286280263724 2.45145346367475 2.53004412471226 2.60863478574976 2.68722544678727 2.76581610782478 2.84440676886228 2.92299742989979 3.0015880909373 3.08017875197481 3.15876941301231 3.23736007404982 3.31595073508733 3.39454139612483 3.47313205716234 3.55172271819985 3.63031337923736 3.70890404027486 3.78749470131237 3.86608536234988 3.94467602338738 4.02326668442489 4.1018573454624 
8 4 5 6 7 8 9 10 3 
p 0.05 1 4.1018573454624 4.17980755414486 4.25775776282732 4.33570797150978 4.41365818019224 4.49160838887469 4.56955859755715 4.64750880623961 
9 1 2 3 4 5 6 7 8 9 
p 0.05 1 4.64750880623961 4.72689891356224 4.80628902088487 4.8856791282075 4.96506923553013 5.04445934285276 5.12384945017539 5.20323955749802 5.28262966482064 
8 54 55 56 57 58 59 60 53 
p 0.05 1 5.28262966482064 5.36057987350331 5.43853008218598 5.51648029086865 5.59443049955132 5.672380708234 5.75033091691667 5.82828112559934 
2 1 2 
p 0.05 1 0 1.280742353529 
10 1 2 3 4 5 6 7 8 9 10 
p 0.05 1 0 0.0786204929753935 0.157240985950787 0.23586147892618 0.314481971901574 0.393102464876967 0.471722957852361 0.550343450827754 0.628963943803148 0.707584436778541 
2 3 2 
p 0.05 1 0 1.2808444439069 
Surfaces 5
2 71.485000000049993 79.950000000039992 4.9618851529289998 0 0 1 1 0 -0 -0 1 0 0.10000000000000001
1 71.275000000049999 79.800000000040001 4.9875000000000007 0 0 1 0 -1 0 1 0 -0 
1 71.48700328967 80.015000000040004 5.8375000816080007 0 1 0 0 0 -1 -1 0 0 
5 71.585000000050002 79.950000000039992 6.2682423535430001 2.300026835655e-11 1 -5.400013769474e-12 -1 2.3000268356240063e-11 -5.7395852881739998e-11 -5.7395852881615798e-11 5.4000137707941197e-12 1 0.099999999999979994 0.099999999997839997
1 71.385000000060003 79.800000000040001 5.6278711767710003 1 2.5381911701809999e-11 0 0 -0 1 2.5381911701809999e-11 -1 -0 
Triangulations 6
77 74 1 0 0.00102754775744245
71.38423135414 79.9661530964 4.9875 71.3853226803907 79.9580269512387 4.9875 71.3850001558642 79.9501765300004 4.9875 71.3852949617328 79.9423250189872 4.9875 71.3862052780672 79.9345208880387 4.9875 71.3877254851994 79.9268123145024 4.9875 71.3898461984141 79.9192468858199 4.9875 71.3925543258835 79.9118713057546 4.9875 71.3958331494877 79.9047311060752 4.9875 71.3996624280203 79.8978703654731 4.9875 71.4040185221443 79.8913314374514 4.9875 71.4088745403247 79.8851546888632 4.9875 71.4142005048385 79.8793782507144 4.9875 71.4199635368369 79.874037782769 4.9875 71.426128059316 79.8691662534102 4.9875 71.4326560167457 79.8647937361163 4.9875 71.4395071099978 79.8609472238076 4.9875 71.4466390451254 79.8576504622108 4.9875 71.4540077944565 79.8549238032689 4.9875 71.4615678683909 79.8527840795027 4.9875 71.4692725962216 79.8512445000979 4.9875 71.4770744142479 79.8503145693608 4.9875 71.4849251594004 79.8500000280456 4.9875 71.4927763665678 79.8503028179144 4.9875 71.5005795677862 79.8512210697504 4.9875 71.5082865914478 79.8527491148971 4.9875 71.5158498596787 79.8548775202527 4.9875 71.5232226820525 79.8575931465034 4.9875 71.5303595438249 79.8608792292369 4.9875 71.5372163869102 79.8647154824341 4.9875 71.543750881866 79.8690782237011 4.9875 71.5499226892059 79.873940520468 4.9875 71.5556937084279 79.8792723562521 4.9875 71.5610283132207 79.8850408159594 4.9875 71.5658935713962 79.8912102890791 4.9875 71.57025944819 79.8977426895193 4.9875 71.5740989916758 79.9045976907235 4.9875 71.5773884991476 79.91173297462 4.9875 71.5801076634443 79.9191044928637 4.9875 71.582239698312 79.9266667387611 4.9875 71.583771442031 79.9343730281969 4.9875 71.5846934386671 79.9421757878301 4.9875 71.5849999964457 79.9500268487786 4.9875 71.5846892228897 79.9578777439815 4.9875 71.5837630365017 79.9656800074008 4.9875 71.5822271549206 79.973385473218 4.9875 71.5800910596251 79.9809465731762 4.9875 71.5773679374013 79.9883166302346 4.9875 71.5740745989364 79.9954501467198 4.9875 71.5702313750416 80.0023030851979 4.9875 71.5658619911431 80.0088331403307 4.9875 71.5609934208177 80.0150000000401 4.9875 71.40900657929 80.01500000004 4.9875 71.4537750100581 80.04500000004 4.9875 71.4464720544787 80.0422799946762 4.9875 71.4394030852363 80.0389995582382 4.9875 71.4326110333046 80.0351786133378 4.9875 71.4261371478945 80.0308403651809 4.9875 71.420020745941 80.0260111606379 4.9875 71.4142989733254 80.0207203282356 4.9875 71.38000000005 80.04500000004 4.9875 71.404301169821 80.0090567422433 4.9875 71.4000594815929 80.0027741255584 4.9875 71.396305888692 79.9961882519057 4.9875 71.4058198008759 80.0110540815117 4.9875 71.402764066939 80.0068157904864 4.9875 71.3995039103653 80.0017474940866 4.9875 71.3915429552225 79.9866628450781 4.9875 71.3879065082631 79.9778436748454 4.9875 71.3859518299137 79.9721464034826 4.9875 71.38423135414 79.9661530964 4.9875 71.4041505911243 80.0088504297441 4.9875 71.3997910008376 80.0023395305424 4.9875 71.3959545753658 79.9955072779504 4.9875 71.3926648695311 79.9883956205203 4.9875 71.3899420814154 79.9810482222897 4.9875 71.3878029283485 79.9735101946936 4.9875 -0.166153096359804 0.109231354086239 -0.158026951198727 0.11032268034074 -0.150176529960377 0.11000015581425 -0.142325018947227 0.110294961682767 -0.134520887998752 0.111205278017223 -0.12681231446243 0.112725485149438 -0.11924688577987 0.114846198364095 -0.111871305714613 0.11755432583353 -0.104731106035155 0.12083314943769 -0.0978703654330624 0.124662427970328 -0.0913314374113877 0.129018522094321 -0.0851546888232133 0.133874540274704 -0.0793782506744108 0.139200504788554 -0.0740377827289844 0.144963536786868 -0.0691662533701665 0.151128059266015 -0.0647937360762493 0.157656016695726 -0.0609472237675741 0.164507109947823 -0.0576504621707691 0.171639045075372 -0.0549238032289335 0.179007794406475 -0.0527840794627111 0.186567868340901 -0.0512445000578616 0.194272596171648 -0.0503145693208156 0.202074414197853 -0.0500000280056102 0.209925159350433 -0.0503028178744145 0.21777636651781 -0.051221069710423 0.225579567736246 -0.0527491148571168 0.233286591397776 -0.0548775202126576 0.240849859628656 -0.0575931464633839 0.248222682002488 -0.0608792291969138 0.255359543774873 -0.0647154823941196 0.262216386860189 -0.0690782236610851 0.268750881815979 -0.0739405204279489 0.274922689155865 -0.0792723562121038 0.280693708377851 -0.0850408159193559 0.286028313170667 -0.0912102890391224 0.29089357134616 -0.0977426894792796 0.29525944814002 -0.104597690683552 0.299098991625793 -0.111732974579991 0.302388499097581 -0.119104492823699 0.305107663394273 -0.126666738721079 0.30723969826202 -0.13437302815692 0.308771441981043 -0.142175787790082 0.309693438617057 -0.150026848738646 0.309999996395719 -0.157877743941528 0.309689222839734 -0.165680007360842 0.308763036451713 -0.173385473177954 0.307227154870651 -0.180946573136179 0.305091059575153 -0.18831663019455 0.302367937351292 -0.195450146679823 0.299074598886442 -0.202303085157886 0.295231374991636 -0.208833140290645 0.290861991093091 -0.215000000000142 0.285993420767718 -0.215000000000003 0.134006579232151 -0.245000000000017 0.178775010008082 -0.24227999463617 0.171472054428672 -0.238999558198154 0.16440308518625 -0.23517861329784 0.157611033254548 -0.230840365140899 0.151137147844457 -0.226011160597899 0.145020745891017 -0.22072032819557 0.139298973275416 -0.245000000000005 0.105000000000004 -0.209056742203345 0.129301169771009 -0.202774125518413 0.125059481542865 -0.196188251865735 0.121305888641987 -0.211054081471665 0.130819800825882 -0.206815790446372 0.127764066889032 -0.201747494046642 0.124503910315328 -0.186662845038068 0.116542955172488 -0.177843674805435 0.112906508213082 -0.172146403442625 0.110951829863703 -0.165827819550325 0.111260544217202 -0.208850429704113 0.129150591074263 -0.202339530502443 0.12479100078757 -0.195507277910379 0.12095457531581 -0.188395620480257 0.117664869481132 -0.181048222249651 0.114942081365428 -0.173510194653633 0.112802928298487 35 67 34 34 67 33 33 67 32 32 67 31 31 67 30 30 67 29 29 67 28 28 67 27 27 67 26 26 67 25 25 67 24 24 67 23 23 67 22 22 67 21 21 67 20 20 67 19 19 67 18 18 67 17 17 67 16 16 67 15 15 67 14 14 67 13 13 67 12 12 67 11 11 67 10 10 67 9 9 67 8 8 67 7 7 67 6 6 67 5 5 67 4 4 67 3 3 67 2 68 64 61 61 64 63 68 61 69 69 61 70 70 61 71 71 61 2 2 61 1 71 2 67 35 36 67 53 36 37 53 37 38 53 38 39 53 39 40 53 40 41 53 41 42 53 42 43 53 43 44 53 44 45 53 45 46 53 46 47 53 47 48 53 48 49 53 49 50 53 50 51 53 51 52 67 63 64 67 64 71 71 64 68 71 68 69 71 69 70 55 54 61 55 61 56 56 61 57 57 61 58 58 61 59 59 61 60 60 61 53 53 61 65 65 66 53 53 66 67 53 67 36 
17 15 1 0 7.05551405377856e-13
71.58500000005 79.99499988806 4.9875 71.59000000005 80.04500000004 4.9875 71.5162249900419 80.04500000004 4.9875 71.5609934208177 80.0150000000401 4.9875 71.5557010267745 80.0207203282357 4.9875 71.5499792541589 80.026011160638 4.9875 71.5438628522054 80.030840365181 4.9875 71.5373889667954 80.0351786133379 4.9875 71.5305969148637 80.0389995582382 4.9875 71.5235279456213 80.0422799946762 4.9875 71.56500000005 80.01500000004 4.9875 71.584498579652 79.9994503251409 4.9875 71.5830194121131 80.0036776027563 4.9875 71.5806366695963 80.0074697460479 4.9875 71.5774698336091 80.0106365997666 4.9875 71.5736777036587 80.013019363516 4.9875 71.5694504343255 80.0144985547239 4.9875 -0.194999888017863 0.309999999999675 -0.24500000000004 0.314999999999998 -0.245000000000028 0.241224989991874 -0.215000000000142 0.285993420767718 -0.220720328195684 0.280701026724458 -0.22601116059799 0.274979254108864 -0.230840365140969 0.268862852155434 -0.235178613297891 0.262388966745357 -0.238999558198188 0.25559691481367 -0.242279994636191 0.248527945571264 -0.21499999999999 0.289999999999992 -0.199450325100921 0.309498579602002 -0.203677602716264 0.308019412063054 -0.207469746007871 0.305636669546251 -0.210636599726571 0.302469833559052 -0.213019363475951 0.298677703608734 -0.214498554683853 0.294450434275474 2 6 5 2 7 6 2 8 7 2 9 8 2 10 9 11 5 4 17 2 5 17 5 11 16 2 17 15 2 16 14 2 15 13 2 14 1 2 12 12 2 13 2 3 10 
9 7 1 0 1.4210854715202e-14
71.5162249900419 80.04500000004 4.9875 71.5085924994283 80.0471771268399 4.9875 71.5008113883508 80.0487420883307 4.9875 71.4929306737582 80.0496850260697 4.9875 71.48500000005 80.05000000004 4.9875 71.4770693263417 80.0496850260697 4.9875 71.4691886117492 80.0487420883307 4.9875 71.4614075006716 80.0471771268399 4.9875 71.4537750100581 80.04500000004 4.9875 -0.245000000000028 0.241224989991874 -0.247177126799891 0.233592499378317 -0.248742088290659 0.225811388300769 -0.249685026029649 0.217930673708227 -0.249999999999991 0.209999999999977 -0.249685026029646 0.202069326291727 -0.248742088290654 0.194188611699185 -0.247177126799883 0.186407500621638 -0.245000000000017 0.178775010008082 9 1 8 8 1 2 8 2 3 8 3 4 8 4 5 8 5 6 8 6 7 
9 7 1 0 3.10222718893122e-12
71.40900657929 80.01500000004 6.268242353529 71.40900657929 80.01500000004 4.9875 71.41224007413 80.01500000004 6.301823481382 71.4104461436009 80.0150000000441 6.29070644380147 71.4093668390911 80.0150000000441 6.27949743790441 71.48720802677 80.01500000004 6.687500163214 71.56500000005 80.01500000004 6.6875001632 71.56500000005 80.01500000004 4.9875 71.5609934208177 80.0150000000401 4.9875 -0.430742271920999 0.0779967103845046 0.850000081608 0.0779967103799919 -0.464323399774323 0.0747632155416711 -0.45320636219347 0.076557146069095 -0.44199735629641 0.0776364505788846 -0.850000081605999 -0.000204737100006009 -0.850000081591999 -0.0779967103799919 0.850000081608 -0.0779967103799919 0.850000081608 -0.0739901311477175 3 6 7 5 4 3 1 3 7 1 5 3 8 1 7 9 1 8 2 1 9 
40 54 1 0 0.000179586311564121
71.38500000005 79.95000000004 6.268242353539 71.3853088999848 79.9578539523805 6.26824235353123 71.3862336913996 79.9656593830143 6.26824235353124 71.3877686609362 79.973368070001 6.26824235353129 71.389904325555 79.9809323890831 6.26824235353137 71.3926274911229 79.9883056079072 6.26824235353148 71.3959213339266 79.9954421747375 6.26824235353164 71.3997655046097 80.0022979998737 6.26824235353182 71.4041362538909 80.0088307280373 6.26824235353204 71.40900657929 80.01500000004 6.268242353529 71.38867456336 79.95000000004 6.306404152618 71.3866359297438 79.9500000000447 6.29377068311407 71.3854094014988 79.9500000000447 6.2810327002588 71.3889777879343 79.9578539523805 6.30634521173211 71.389885588326 79.9656593830142 6.30616875321134 71.3913923561488 79.973368070001 6.30587586721613 71.3934887825933 79.980932389083 6.30546836319576 71.3961619159396 79.9883056079071 6.30494875870953 71.3993952415736 79.9954421747374 6.30432026387325 71.4031687840138 80.0022979998737 6.30358676152718 71.4074592303201 80.0088307280373 6.30275278324782 71.41224007413 80.01500000004 6.301823481382 71.4104461436009 80.0150000000441 6.29070644380147 71.4093668390911 80.0150000000441 6.27949743790441 71.3857176691113 79.957853952385 6.28101294557256 71.3866405674714 79.9656593830184 6.28095380355835 71.3869423029838 79.9578539523851 6.2937312546176 71.3881723949143 79.9733680700048 6.28085563959545 71.38785952993 79.9656593830184 6.29361321271747 71.3903036878122 79.9809323890865 6.28071906014071 71.3893819439555 79.9733680700049 6.29341728667638 71.3930212790404 79.9883056079102 6.28054490898179 71.3915001395885 79.9809323890865 6.29314468692515 71.396308379324 79.9954421747402 6.28033426202433 71.3942010306192 79.9883056079103 6.29279709758466 71.4001446809617 80.0022979998761 6.28008842064496 71.3974679309466 79.9954421747402 6.29237666606142 71.4045064832874 80.0088307280394 6.27980890365137 71.4012806576648 80.0022979998761 6.29188598978078 71.4056156557532 80.0088307280394 6.29132810014017 3.73848729751103e-11 0 1.03343106719443e-27 0.0786204929753935 1.03343106719443e-27 0.157240985950787 1.03343106719443e-27 0.23586147892618 1.03343106719443e-27 0.314481971901574 1.03343106719443e-27 0.393102464876967 1.03343106719443e-27 0.471722957852361 1.03343106719443e-27 0.550343450827754 1.03343106719443e-27 0.628963943803148 -2.18337292690052e-11 0.707584436737421 0.191986217777819 0 0.127990811866453 0 0.0639954059519191 0 0.19198621777784 0.0786204929718652 0.19198621777786 0.15724098594373 0.191986217777881 0.235861478915595 0.191986217777901 0.314481971887461 0.191986217777922 0.393102464859326 0.191986217777943 0.471722957831191 0.191986217777963 0.550343450803056 0.191986217777984 0.628963943774921 0.191986217984144 0.707584436737057 0.127990811982151 0.707584436737178 0.0639954059801588 0.7075844367373 0.0639954059519191 0.0786204929718652 0.0639954059519191 0.15724098594373 0.127990811866453 0.0786204929718652 0.0639954059519191 0.235861478915595 0.127990811866453 0.15724098594373 0.0639954059519191 0.314481971887461 0.127990811866453 0.235861478915595 0.0639954059519191 0.393102464859326 0.127990811866453 0.314481971887461 0.0639954059519191 0.471722957831191 0.127990811866453 0.393102464859326 0.0639954059519191 0.550343450803056 0.127990811866453 0.471722957831191 0.0639954059519191 0.628963943774921 0.127990811866453 0.550343450803056 0.127990811866453 0.628963943774921 24 10 9 22 23 21 25 2 1 25 1 13 26 3 2 26 2 25 27 12 11 27 13 12 27 11 14 27 25 13 28 4 3 28 3 26 29 14 15 29 25 27 29 26 25 29 27 14 30 5 4 30 4 28 31 15 16 31 28 26 31 26 29 31 29 15 32 6 5 32 5 30 33 16 17 33 28 31 33 31 16 33 30 28 34 7 6 34 6 32 35 17 18 35 33 17 35 30 33 35 32 30 36 8 7 36 7 34 37 18 19 37 35 18 37 34 32 37 32 35 38 9 8 38 24 9 38 8 36 39 19 20 39 34 37 39 36 34 39 37 19 40 20 21 40 23 24 40 21 23 40 39 20 40 24 38 40 38 36 40 36 39 
4 2 1 0 0.000256215311935648
71.38500000005 79.65000000004 4.9875 71.38423135414 79.9661530964 4.9875 71.38500000005 79.95000000004 6.268242353539 71.38500000006 79.65000000004 6.268242353542 -0.640371176771 0.149999999999775 -0.640371176771033 -0.166153096357149 0.640371176767962 -0.149999999999991 0.640371176771 0.150000000000006 3 1 2 4 1 3 

TShapes 16
Ve
0.202055115720381
71.38423135414 79.9661530964 4.9875
0 0

0101101
*
Ve
0.200001999999999
71.5609934208177 80.0150000000401 4.9875
0 0

0101101
*
Ed
 0.200001999999999 1 1 0
1  1 0 0.0937336325495343 4.1018573454624
2  1 1 0 0.0937336325495343 4.1018573454624
4 C0 2 0 1 0
6  1 1 0
0

0101000
+16 0 -15 0 *
Ve
1e-07
71.5162249900419 80.04500000004 4.9875
0 0

0101101
*
Ed
 1e-07 1 1 0
1  1 0 4.1018573454624 4.64750880623961
2  2 1 0 4.1018573454624 4.64750880623961
4 C0 2 0 1 0
6  2 2 0
0

0101000
+15 0 -13 0 *
Ve
1e-07
71.4537750100581 80.04500000004 4.9875
0 0

0101101
*
Ed
 1e-07 1 1 0
1  1 0 4.64750880623961 5.28262966482064
2  3 1 0 4.64750880623961 5.28262966482064
4 C0 2 0 1 0
6  3 3 0
0

0101000
+13 0 -11 0 *
Ve
0.200001999999999
71.40900657929 80.01500000004 4.9875
0 0

0101101
*
Ed
 1e-07 1 1 0
1  1 0 5.28262966482064 5.82828112559934
2  4 1 0 5.28262966482064 5.82828112559934
4 C0 2 0 1 0
6  4 1 0
0

0101000
+11 0 -9 0 *
Ve
1e-07
71.40900657929 80.01500000004 6.268242353529
0 0

0101101
*
Ed
 1e-07 1 1 0
1  2 0 0 1.280742353529
2  5 1 0 0 1.280742353529
4 C0 1 0 3 0
6  5 4 0
0

0101000
+7 0 -9 0 *
Ve
0.00205511607096863
71.38500000005 79.95000000004 6.268242353539
0 0

0101101
*
Ed
 1e-07 1 1 0
1  3 0 0 0.707584436778541
2  6 1 0 0 0.707584436778541
2  7 4 0 0 0.707584436778541
4 G1 1 0 4 0
6  6 5 0
0

0101000
+5 0 -7 0 *
Ed
 0.00205511607096863 1 1 0
1  4 0 0 1.2808444439069
2  8 1 0 0 1.2808444439069
4 C0 5 0 1 0
6  7 6 0
0

0101000
+5 0 -16 0 *
Wi

0101100
+14 0 +12 0 +10 0 +8 0 -6 0 -4 0 +3 0 *
Fa
0  1e-07 1 0

0111000
+2 0 *

+1 0 