DBRep_DrawableShape

CASCADE Topology V3, (c) Open Cascade
Locations 0
Curve2ds 2
7 0 0  1 2 2  1.051936874475496 0.0015753674867937661  0.87616013577908702 0.36274501240539792 
 0 2 0.36122561658603963 2
7 0 0  1 2 2  1.051936874475496 0.0015753674867937661  0.87616013577908702 0.36274501240539792 
 0 2 0.36122561658603963 2
Curves 2
1 -23.640089892039601 64.896663419189792 0.098259312996982998 0.0038463829128471644 0.99984505066954288 -0.017177892481530732 
1 -23.640089892039601 64.896663419189792 0.098259312996982998 0.0038463829128471644 0.99984505066954288 -0.017177892481530732 
Polygon3D 0
PolygonOnTriangulations 2
3 1 2 3 
p 0.0166666666666667 1 0 0.120408538862013 0.36122561658604 
3 21 22 20 
p 0.0166666666666667 1 0 0.120408538862013 0.36122561658604 
Surfaces 3
2 -23.612000000000037 64.895088051702999 0.11429999999999998 0 1 0 0 0 -1 -1 0 0 0.038100000000000002
1 -23.650100000000037 65.079999986958398 0.45720000050088794 1 0 0 0 -1 0 0 0 -1 
1 -22.850000000000041 64.877003199988593 0.076200000000000004 0 0 1 0 -1 0 1 0 -0 
Triangulations 2
7 5 1 0 0.00817992176895643
-23.6400898920396 64.8966634191898 0.098259312996983 -23.6396267546932 65.0170533008293 0.0961909480625531 -23.63870048 65.2578330641084 0.0920542181936592 -23.647433 65.2577999999886 0.239934038304421 -23.647433 65.2577999999886 0.675349646885254 -23.6501 65.2577999999886 0.8001 -23.6500995191222 64.9022000013094 0.800100000379222 0.183336567768606 0.358940687503905 0.0629466861290714 0.361009052438335 -0.177833077149998 0.365145782307229 -0.177800013030193 0.217265962196467 -0.177800013030193 -0.218149646384366 -0.177800013030519 -0.342899999581938 0.177799985628212 -0.342899999878171 7 5 6 4 5 7 2 3 4 2 4 7 1 2 7 
22 20 1 0 0.0220616963428259
-23.6375016 64.2420031999886 0.08255 -22.0624984 64.2420031999886 0.08255 -22.0599077281735 64.8910834964914 0.0982640796886688 -22.0616314774705 65.0133223309904 0.0954691755069058 -22.0650789760632 65.2577999999886 0.0898793671431414 -22.0624984 65.5120031999886 0.08255 -22.1608269615975 65.5120031999886 0.0846666666666582 -22.1701883692778 65.5120031999886 0.0841559573333257 -22.1826702461853 65.5120031999886 0.0824565029135756 -22.1951521230929 65.5120031999886 0.0806173673086405 -22.2017689813182 65.5120031999886 0.0799679796662691 -22.207634 65.5120031999886 0.079756 -23.492366 65.5120031999886 0.079756 -23.5017274076803 65.5120031999886 0.0802667093333351 -23.5142092845878 65.5120031999886 0.081966163753094 -23.5266911614954 65.5120031999886 0.0838052993580387 -23.5333080197207 65.5120031999886 0.0844546870004108 -23.5391730384025 65.5120031999886 0.0846666666666836 -23.6375016 65.5120031999886 0.08255 -23.63870048 65.2578330641084 0.0920542181936592 -23.6400898920396 64.8966634191898 0.098259312996983 -23.6396267546932 65.0170533008293 0.0961909480625531 0.634999999999991 -0.787501599999999 0.634999999999991 0.787501600000002 -0.0140802965027973 0.790092271826524 -0.13631913100186 0.788368522529491 -0.380796799999999 0.784921023936882 -0.635000000000005 0.787501600000002 -0.635000000000005 0.689173038402501 -0.635000000000005 0.679811630722245 -0.635000000000005 0.66732975381471 -0.635000000000005 0.654847876907104 -0.635000000000005 0.64823101868179 -0.635000000000005 0.642366000000003 -0.635000000000005 -0.642365999999999 -0.635000000000005 -0.651727407680256 -0.635000000000005 -0.664209284587791 -0.635000000000005 -0.676691161495398 -0.635000000000005 -0.683308019720673 -0.635000000000005 -0.689173038402497 -0.635000000000019 -0.787501600000038 -0.380829864119804 -0.788700480000241 -0.0196602192011994 -0.790089892039369 -0.140050100840734 -0.789626754693121 20 13 14 20 14 15 20 15 16 20 16 17 20 17 18 20 18 19 22 13 20 5 6 7 5 7 8 5 8 9 5 9 10 5 10 11 5 11 12 4 12 13 4 22 21 4 13 22 4 5 12 3 21 1 3 4 21 2 3 1 

TShapes 6
Ve
0.0283265986827258
-23.6400898920396 64.8966634191898 0.098259312996983
0 0

0101101
*
Ve
0.022059533590113
-23.63870048 65.2578330641084 0.0920542181936592
0 0

0101101
*
Ed
 0.0113996339949561 1 1 0
1  1 0 0 0.36122561658604
2  1 1 0 0 0.36122561658604
4 C0 2 0 1 0
6  1 1 0
0

0101000
+6 0 -5 0 *
Ed
 0.022059533590113 1 1 0
1  2 0 0 0.36122561658604
2  2 1 0 0 0.36122561658604
4 C0 3 0 1 0
6  2 2 0
0

0101000
+6 0 -5 0 *
Wi

0101100
+4 0 -3 0 *
Fa
0  1e-07 1 0

0111000
+2 0 *

+1 0 