DBRep_DrawableShape

CASCADE Topology V3, (c) Open Cascade
Locations 0
Curve2ds 3
7 0 0  1 2 2  6.3151499829480811 0.0043251650357079008  6.3267469865129193 0.074325165035634466 
 0 2 0.070003533097521969 2
7 0 0  1 2 2  0.31889538377466281 0.0043251650357079008  0.33195879707712489 0.074325165035634466 
 0 2 0.070003533097521969 2
7 0 0  1 2 2  0.31889538377466281 0.0043251650357079008  0.33195879709674558 0.074325165035624696 
 0 2 1 2
Curves 2
1 3.114985626233 2.4849442916290001 -1.2894951586059999 0.71173960003220915 0.702402586592909 0.0075728524072470969 
7 0 0  3 4 2  3.114985626233 2.4849442916290001 -1.2894951586059999  3.13148478446 2.5014434498560001 -1.2894951586050001  3.148310754653 2.5176157961190002 -1.288965032181  3.1648099128810001 2.5341149543469998 -1.288965032181 
 0 4 1 4
Polygon3D 0
PolygonOnTriangulations 2
3 3 8 9 
p 0.0166666666666667 1 0 0.0233345110325073 0.070003533097522 
3 3 4 5 
p 0.0166666666666667 1 0 0.5 1 
Surfaces 3
2 3.1454309692860001 2.4483822415229999 -1.3051387818939999 0.70710678118654757 0.70710678118654757 0 -0.70710678118654757 0.70710678118654757 0 0 -0 1 0.049999999999540003
2 3.1454309692860001 2.4483822415229999 -1.291010205152 0.70710678118654757 0.70710678118654757 0 -0.70710678118654757 0.70710678118654757 0 0 -0 1 0.049999999999540003
1 3.152024856718 2.4974025358260001 -1.260000000007 0.58834840541432087 -0.58834840541432087 -0.55470019622571975 0.39223227027671498 -0.39223227027671498 0.83205029433751665 -0.70710678118654757 -0.70710678118654757 8.1524687095804742e-18 
Triangulations 2
13 11 1 0 0.0061305886772139
3.124753871224 2.475176046637 -1.327916992577 3.17677359406 2.522151273167 -1.331010205152 3.114985626233 2.484944291629 -1.289495158606 3.11530306514259 2.48462685271879 -1.29524109107771 3.1153447680376 2.4845851498234 -1.30829125812574 3.11648361731863 2.48344630054237 -1.31384120370203 3.12121684440266 2.47871307345834 -1.32225815068407 3.13159372178222 2.50133451253511 -1.28931844979796 3.164809912881 2.534114954347 -1.288965032181 3.16832855854026 2.5305963086873 -1.31918361534778 3.16618125663166 2.53274361059575 -1.31422507612502 3.1651679849724 2.53375688225525 -1.30294073285896 3.16512332400056 2.53380154322737 -1.29438189616571 5.45043204557847 0.00432516503500047 5.40310822333641 0.0743251650349177 6.31514998294808 0.0043251650357079 6.23547026918914 0.00432516503564271 6.03022644105354 0.0043251650354748 5.88279101426328 0.00432516503535418 5.61893796883893 0.00432516503513832 6.31901565080303 0.0276584983690168 6.32674698653179 0.0743251650356247 5.81361434031213 0.0743251650352319 5.95044971263738 0.0743251650353367 6.13859834958459 0.0743251650354807 6.25311197199581 0.0743251650355683 7 2 1 10 7 6 10 2 7 11 6 5 11 10 6 12 5 4 12 11 5 8 4 3 13 12 4 13 4 8 9 13 8 
6 4 1 0 0.00164265339030642
3.135480336212 2.464449581649 -1.242596227932 3.184977810895 2.513947056332 -1.242596227932 3.114985626233 2.484944291629 -1.289495158606 3.13989776955663 2.50952962298763 -1.28923009539313 3.164809912881 2.534114954347 -1.288965032181 3.17489386188763 2.52403100533988 -1.2657806300565 0.020916730868048 0.0349999999999589 0.0209167308680482 -0.0349999999999585 -0.0341829114512127 0.0349999999992517 -0.0338341793279365 -1.76752779079692e-13 -0.0334854472052842 -0.0350000000006657 -0.00628435816891239 -0.0350000000003121 4 5 6 1 3 4 1 6 2 1 4 6 

TShapes 6
Ve
0.00724753242817363
3.164809912881 2.534114954347 -1.288965032181
0 0

0101101
*
Ve
0.00501962046144566
3.114985626233 2.484944291629 -1.289495158606
0 0

0101101
*
Ed
 0.00303627755231934 1 1 0
1  1 0 0 0.070003533097522
2  1 2 0 0 0.070003533097522
2  2 1 0 0 0.070003533097522
4 C0 2 0 1 0
6  1 1 0
0

0101000
-6 0 +5 0 *
Ed
 0.0019893034343379 1 1 0
1  2 0 0 1
2  3 1 0 0 1
4 C0 1 0 3 0
6  2 2 0
0

0101000
+5 0 -6 0 *
Wi

0101100
-4 0 +3 0 *
Fa
0  1e-07 1 0

0111000
+2 0 *

-1 0 