DBRep_DrawableShape

CASCADE Topology V3, (c) Open Cascade
Locations 0
Curve2ds 2
7 0 0  3 4 2  6.5625238436980569 0.080577838868777021  6.5625238436301068 0.080577842460252513  6.5624140731852885 0.086379894169903659  6.5621141749081726 0.10223138602003701 
 0.78867520000000002 4 1.0000000000000109 4
7 0 0  3 25 23  6.5621141749081717 0.10223138602003701  6.5620633150642762 0.10492041310580269  6.5619725439411383 0.10972007573879503  6.5618668682227019 0.11530880318057188  6.5617893069473343 0.11941117222255174  6.5617374998761244 0.12215159097261855  6.5617090897881312 0.12365446753859853  6.5617017223333143 0.12404421002857997  6.5617130451580685 0.12344522655034255  6.5617407073120742 0.12198192521187118  6.5617823586834936 0.11977871412097926  6.561835649511198 0.1169600013857055  6.5618982299820559 0.11365019511386992  6.5619677498935456 0.10997370341343092  6.5620418583963867 0.10605493439226781  6.5621182038107149 0.10201829615835235  6.562194433516864 0.0979881968195363  6.5622681939233294 0.09408904448371784  6.5623371305061919 0.090445247258900019  6.5623988879266504 0.087181213252876116  6.5624511102180767 0.084421350573661236  6.5624914410774071 0.082290067329105487  6.5625175241072542 0.080911771627155266  6.5625238437716877 0.080577838259523721  6.5625238436980542 0.080577838868777008 
 1.0880185641326534e-14 4 0.03584887272728312 1 0.071697745454555359 1 0.10754661818182759 1 0.14339549090909984 1 0.17924436363637208 1 0.2150932363636443 1 0.25094210909091658 1 0.28679098181818879 1 0.32263985454546101 1 0.35848872727273329 1 0.39433760000000551 1 0.43018647272727772 1 0.46603534545455 1 0.50188421818182227 1 0.53773309090909449 1 0.57358196363636671 1 0.60943083636363893 1 0.64527970909091115 1 0.68112858181818348 1 0.71697745454545569 1 0.75282632727272791 1 0.78867520000000013 4
Curves 1
7 0 1  3 3 2  18.645579615190002 99.894003488929997 -0.036212494815280001  18.645582451519999 99.969013576590001 -0.036196737374729997  18.64557677885 99.818993401270006 -0.036228252255839997 
 0 3 1 3
Polygon3D 0
PolygonOnTriangulations 0
Surfaces 2
2 18.637039291360001 99.791772102910002 -0.040000000000000001 0 1 0 0.76718739504248434 -0 0.64142302803058693 0.64142302803058693 0 -0.76718739504248434 0.0099999999994460007
1 18.431405623020002 101.2375003052 -1.2388576498849999 0.98418332397358166 0 -0.1771529983158967 0.1771529983158967 0 0.98418332397358166 0 -1 0 
Triangulations 0

TShapes 6
Ve
0.223934844514013
18.645131206742 99.7996772387605 -0.0341434137009895
0 0

0101101
*
Ve
0.121856481219502
18.6466945588859 99.89400348893 -0.0364131846805472
0 0

0101101
*
Ed
 0.00226574626660165 1 1 0
1  1 0 0.7886752 1.00000000000001
2  1 1 0 0.7886752 1.00000000000001
4 C0 2 0 1 0
0

0101000
+6 0 -5 0 *
Ed
 0.00226574626958343 1 1 0
1  1 0 1.08801856413265e-14 0.7886752
2  2 1 0 1.08801856413265e-14 0.7886752
4 C0 2 0 1 0
0

0101000
+5 0 -6 0 *
Wi

0101100
+4 0 +3 0 *
Fa
0  1e-07 1 0

0111000
+2 0 *

+1 0 