DBRep_DrawableShape

CASCADE Topology V3, (c) Open Cascade
Locations 0
Curve2ds 3
7 0 0  1 2 2  0.31889538373928894 0.004325165031701772  0.33195879706308101 0.074325165032337992 
 0 2 0.070003533098243587 2
7 0 0  1 2 2  6.3151499829442859 0.004325165031701772  6.3267469865218873 0.074325165032337992 
 0 2 0.070003533098243587 2
7 0 0  1 2 2  0.31889538373928894 0.004325165031701772  0.33195879707596954 0.074325165032323781 
 0 2 1 2
Curves 2
1 32.135014373769998 -1.7349442916290001 -1.2894951586059999 -0.71173960004651915 -0.70240258657831889 0.007572852415585204 
7 0 0  3 4 2  32.135014373769998 -1.7349442916290001 -1.2894951586059999  32.11851521554 -1.751443449857 -1.2894951586059999  32.101689245350002 -1.7676157961179999 -1.288965032181  32.085190087119997 -1.784114954346 -1.288965032181 
 0 4 1 4
Polygon3D 0
PolygonOnTriangulations 2
3 3 8 9 
p 0.0166666666666667 1 0 0.0233345110327479 0.0700035330982436 
3 3 4 5 
p 0.0166666666666667 1 0 0.5 1 
Surfaces 3
2 32.104569030710003 -1.698382241522 -1.3051387818939999 -0.70710678118304759 -0.70710678119004766 0 0.70710678119004766 -0.70710678118304759 0 0 0 1 0.05000000000325
2 32.104569030710003 -1.698382241522 -1.291010205152 -0.70710678118304759 -0.70710678119004766 0 0.70710678119004766 -0.70710678118304759 0 0 0 1 0.05000000000325
1 32.097975143280003 -1.747402535827 -1.260000000007 -0.58834840540551536 0.5883484054003153 -0.5547001962499144 -0.39223227031857322 0.39223227026907326 0.83205029432138689 0.7071067811706554 0.70710678120243975 2.7083586085122792e-11 
Triangulations 2
13 11 1 0 0.0061305886754448
32.12524612878 -1.725176046638 -1.327916992579 32.07322640595 -1.772151273169 -1.331010205155 32.13501437377 -1.734944291629 -1.289495158606 32.1346969348603 -1.73462685271958 -1.29524109107934 32.1346552319647 -1.73458514982578 -1.30829125812486 32.1335163826834 -1.73344630054478 -1.31384120370162 32.1287831555516 -1.72871307341131 -1.32225815076688 32.1184062782203 -1.75133451253494 -1.28931844979776 32.08519008712 -1.784114954346 -1.288965032181 32.0816714414615 -1.78059630869081 -1.31918361534492 32.0838187433704 -1.78274361059858 -1.31422507612256 32.0848320150312 -1.78375688225584 -1.30294073285756 32.0848766760025 -1.78380154322672 -1.29438189616338 5.45043204565597 0.00432516503092728 5.40310822341625 0.0743251650315422 6.31514998294429 0.00432516503170177 6.23547026917732 0.00432516503163041 6.03022644109636 0.00432516503144658 5.88279101430013 0.00432516503131453 5.61893796667422 0.0043251650310782 6.31901565080349 0.0276584983652472 6.32674698652886 0.0743251650323238 5.81361434035519 0.0743251650318896 5.95044971266817 0.0743251650320054 6.13859834959851 0.0743251650321646 6.25311197202196 0.0743251650322615 7 2 1 10 7 6 10 2 7 11 6 5 11 10 6 12 5 4 12 11 5 8 4 3 13 12 4 13 4 8 9 13 8 
6 4 1 0 0.00164265339005479
32.11451966379 -1.714449581649 -1.242596227932 32.06502218911 -1.763947056331 -1.242596227932 32.13501437377 -1.734944291629 -1.289495158606 32.110102230445 -1.7595296229875 -1.2892300953935 32.08519008712 -1.784114954346 -1.288965032181 32.075106138115 -1.77403100533812 -1.26578063005612 0.0209167308656237 0.0350000000035193 0.0209167308673122 -0.0349999999928633 -0.0341829114539488 0.0350000000023 -0.0338341793291714 2.00282485041115e-12 -0.0334854472043912 -0.0349999999982994 -0.00628435816808065 -0.0349999999953158 4 5 6 1 3 4 1 6 2 1 4 6 

TShapes 6
Ve
0.00724753242523317
32.08519008712 -1.784114954346 -1.288965032181
0 0

0101101
*
Ve
0.00501962046081921
32.13501437377 -1.734944291629 -1.289495158606
0 0

0101101
*
Ed
 0.00303627755215943 1 1 0
1  1 0 0 0.0700035330982436
2  1 1 0 0 0.0700035330982436
2  2 2 0 0 0.0700035330982436
4 C0 1 0 2 0
6  1 1 0
0

0101000
-6 0 +5 0 *
Ed
 0.0019893034348548 1 1 0
1  2 0 0 1
2  3 1 0 0 1
4 C0 3 0 1 0
6  2 2 0
0

0101000
+5 0 -6 0 *
Wi

0101100
-4 0 +3 0 *
Fa
0  1e-07 1 0

0111000
+2 0 *

-1 0 