DBRep_DrawableShape

CASCADE Topology V3, (c) Open Cascade
Locations 0
Curve2ds 3
7 0 0  1 2 2  0.31889538373926662 0.0043251650317053247  0.3319587970546562 0.074325165031631002 
 0 2 0.07000353309753371 2
7 0 0  1 2 2  6.3151499829442832 0.0043251650317053247  6.3267469865121146 0.074325165031631002 
 0 2 0.07000353309753371 2
7 0 0  1 2 2  0.31889538373926662 0.0043251650317053247  0.33195879706156084 0.074325165031620344 
 0 2 1 2
Curves 2
1 -32.885014373769998 2.4849442916290001 -1.2894951586059999 0.71173960004719972 0.70240258657769972 0.0075728524090639968 
7 0 0  3 4 2  -32.885014373769998 2.4849442916290001 -1.2894951586059999  -32.86851521554 2.5014434498560001 -1.2894951586059999  -32.851689245350002 2.517615796117 -1.2889650321820001  -32.835190087119997 2.5341149543450001 -1.2889650321820001 
 0 4 1 4
Polygon3D 0
PolygonOnTriangulations 2
3 3 8 9 
p 0.0166666666666667 1 0 0.0233345110325112 0.0700035330975337 
3 4 5 1 
p 0.0166666666666667 1 0 0.5 1 
Surfaces 3
2 -32.854569030710003 2.4483822415219998 -1.3051387818939999 0.70710678118304759 0.70710678119004766 0 -0.70710678119004766 0.70710678118304759 0 0 -0 1 0.050000000002889997
2 -32.854569030710003 2.4483822415219998 -1.291010205152 0.70710678118304759 0.70710678119004766 0 -0.70710678119004766 0.70710678118304759 0 0 -0 1 0.050000000002889997
1 -32.84797514329 2.497402535824 -1.2600000000089999 -0.58834840540551536 0.5883484054003153 0.5547001962499144 0.39223227031857322 -0.39223227026907326 0.83205029432138689 0.7071067811706554 0.70710678120243975 -2.7083586085122792e-11 
Triangulations 2
13 11 1 0 0.00613058867528592
-32.87524612878 2.475176046638 -1.327916992579 -32.82322640595 2.522151273169 -1.331010205155 -32.88501437377 2.484944291629 -1.289495158606 -32.8846969348603 2.48462685271898 -1.29524109107872 -32.8846552319646 2.48458514982479 -1.30829125812722 -32.8835163826834 2.48344630054428 -1.31384120370162 -32.8787831555693 2.47871307342891 -1.32225815073685 -32.8684062782204 2.50133451253476 -1.28931844979791 -32.83519008712 2.534114954345 -1.288965032182 -32.8316714414615 2.53059630868988 -1.31918361534492 -32.8338187433704 2.53274361059758 -1.31422507612256 -32.8348320150312 2.53375688225484 -1.30294073285762 -32.8348766760025 2.53380154322572 -1.29438189616383 5.45043204565602 0.00432516503092728 5.40310822341625 0.0743251650315422 6.31514998294428 0.00432516503170532 6.23547026918598 0.00432516503163363 6.03022644104838 0.00432516503144896 5.88279101430015 0.0043251650313163 5.61893796748527 0.0043251650310789 6.31901565080023 0.0276584983650139 6.32674698650824 0.0743251650316203 5.81361434034603 0.0743251650315769 5.95044971265595 0.0743251650315885 6.1385983495821 0.0743251650316044 6.25311197200287 0.0743251650316141 7 2 1 10 7 6 10 2 7 11 6 5 11 10 6 12 5 4 12 11 5 8 4 3 13 12 4 13 4 8 9 13 8 
6 4 1 0 0.0016426533938158
-32.83519008712 2.534114954345 -1.288965032182 -32.825106138115 2.5240310053385 -1.26578063005713 -32.81502218911 2.513947056332 -1.242596227933 -32.88501437377 2.484944291629 -1.289495158606 -32.860102230445 2.50952962298663 -1.289230095394 -32.86451966379 2.464449581649 -1.242596227932 -0.0334854472004234 0.0350000000067814 -0.00628435816465097 0.0350000000047718 0.0209167308702763 0.0350000000027588 -0.0341829114495199 -0.0349999999930592 -0.0338341793248354 6.56975307489195e-12 0.0209167308688316 -0.0349999999950339 6 5 4 2 1 5 2 5 6 3 2 6 

TShapes 6
Ve
0.00724753242485163
-32.83519008712 2.534114954345 -1.288965032182
0 0

0101101
*
Ve
0.00501962046098406
-32.88501437377 2.484944291629 -1.289495158606
0 0

0101101
*
Ed
 0.00303627755187761 1 1 0
1  1 0 0 0.0700035330975337
2  1 1 0 0 0.0700035330975337
2  2 2 0 0 0.0700035330975337
4 C0 1 0 2 0
6  1 1 0
0

0101000
-6 0 +5 0 *
Ed
 0.00198930343900594 1 1 0
1  2 0 0 1
2  3 1 0 0 1
4 C0 3 0 1 0
6  2 2 0
0

0101000
+5 0 -6 0 *
Wi

0101100
-4 0 +3 0 *
Fa
0  1e-07 1 0

0111000
+2 0 *

-1 0 