DBRep_DrawableShape

CASCADE Topology V3, (c) Open Cascade
Locations 0
Curve2ds 2
7 0 0  3 25 23  6.5621141749052203 0.10223138601999437  6.5620633150614331 0.10492041310541506  6.561972543938305 0.1097200757377645  6.5618668682196448 0.11530880317870633  6.5617893069439059 0.11941117221996013  6.5617374998733098 0.12215159096941761  6.5617090897851131 0.12365446753497988  6.5617017223304934 0.12404421002459802  6.5617130451546632 0.12344522654610005  6.5617407073092435 0.12198192520745686  6.5617823586805164 0.11977871411653218  6.5618356495082306 0.1169600013812626  6.5618982299791924 0.11365019510952849  6.5619677498905684 0.10997370340923381  6.5620418583934468 0.10605493438828707  6.5621182038077412 0.10201829615459812  6.5621944335139863 0.097988196816066478  6.5622681939205671 0.094089044480589246  6.5623371305027174 0.090445247256083244  6.5623988879237114 0.087181213250431863  6.5624511102151191 0.084421350571589435  6.5624914410744548 0.082290067327388208  6.562517524104301 0.0809117716257792  6.5625238437687345 0.080577838258365536  6.5625238436951001 0.080577838867725404 
 6.2172489379008766e-15 4 0.035848872727278665 1 0.071697745454551112 1 0.10754661818182357 1 0.14339549090909601 1 0.17924436363636845 1 0.21509323636364092 1 0.25094210909091336 1 0.2867909818181858 1 0.32263985454545824 1 0.35848872727273068 1 0.39433760000000312 1 0.43018647272727562 1 0.46603534545454806 1 0.5018842181818205 1 0.53773309090909294 1 0.57358196363636538 1 0.60943083636363782 1 0.64527970909091026 1 0.6811285818181827 1 0.71697745454545514 1 0.75282632727272758 1 0.78867520000000013 4
7 0 0  3 4 2  6.5625238436951019 0.080577838867725418  6.5625238436271385 0.080577842459811602  6.5624140731822767 0.086379894171974628  6.5621141749052203 0.10223138601999437 
 0.78867520000000002 4 1.0000000000000062 4
Curves 1
7 0 1  3 3 2  18.645579615190002 56.894003488929997 -0.036212494815249997  18.645582451519999 56.969013576579997 -0.0361967373747  18.64557677885 56.818993401269999 -0.036228252255810001 
 0 3 1 3
Polygon3D 0
PolygonOnTriangulations 0
Surfaces 2
1 18.431405623020002 58.23750030523 -1.2388576498849999 0.98418332397358166 0 -0.1771529983158967 0.1771529983158967 0 0.98418332397358166 0 -1 0 
2 18.637039291360001 56.791772102910002 -0.040000000000000001 0 1 0 0.76718739504248434 -0 0.64142302803058693 0.64142302803058693 0 -0.76718739504248434 0.0099999999994460007
Triangulations 0

TShapes 6
Ve
0.121856481228804
18.6466945588859 56.89400348893 -0.0364131846805176
0 0

0101101
*
Ve
0.223934844534518
18.645131206742 56.7996772387699 -0.0341434137010921
0 0

0101101
*
Ed
 0.00226574626958701 1 1 0
1  1 0 6.21724893790088e-15 0.7886752
2  1 2 0 6.21724893790088e-15 0.7886752
4 C0 1 0 2 0
0

0101000
+6 0 -5 0 *
Ed
 0.00226574626660527 1 1 0
1  1 0 0.7886752 1.00000000000001
2  2 2 0 0.7886752 1.00000000000001
4 C0 1 0 2 0
0

0101000
+5 0 -6 0 *
Wi

0101100
-4 0 -3 0 *
Fa
0  1e-07 1 0

0111000
+2 0 *

+1 0 