DBRep_DrawableShape

CASCADE Topology V3, (c) Open Cascade
Locations 0
Curve2ds 3
7 0 0  1 2 2  0.31889538377022131 0.0043251650406546105  0.33195879707726267 0.074325165036391638 
 0 2 0.070003533093327408 2
7 0 0  1 2 2  6.3151499829476041 0.0043251650406546105  6.3267469865210044 0.074325165036391638 
 0 2 0.070003533093327408 2
7 0 0  1 2 2  0.31889538377022131 0.0043251650406546105  0.33195879713852028 0.074325165036334795 
 0 2 1 2
Curves 2
1 -30.864985626229998 -28.734944291630001 -1.2894951585979999 -0.71173960002710712 -0.70240258659800703 0.0075728524139020746 
7 0 0  3 4 2  -30.864985626229998 -28.734944291630001 -1.2894951585979999  -30.88148478446 -28.751443449859998 -1.2894951585979999  -30.898310754650002 -28.767615796120001 -1.288965032174  -30.914809912879999 -28.784114954340001 -1.288965032173 
 0 4 1 4
Polygon3D 0
PolygonOnTriangulations 2
3 3 8 9 
p 0.0166666666666667 1 0 0.0233345110311091 0.0700035330933274 
3 4 5 1 
p 0.0166666666666667 1 0 0.5 1 
Surfaces 3
2 -30.89543096928 -28.698382241520001 -1.3051387818860001 -0.70710678118654757 -0.70710678118654757 0 0.70710678118654757 -0.70710678118654757 0 0 0 1 0.049999999997419997
2 -30.89543096928 -28.698382241520001 -1.291010205144 -0.70710678118654757 -0.70710678118654757 0 0.70710678118654757 -0.70710678118654757 0 0 0 1 0.049999999997419997
1 -30.902024856720001 -28.747402535820001 -1.26 0.58834840544078626 -0.58834840538788624 0.55470019622568711 -0.39223227032609187 0.3922322702272919 0.83205029433753841 -0.70710678113713765 -0.70710678123595749 -3.7379696278267594e-11 
Triangulations 2
13 11 1 0 0.00613058867762643
-30.87475387122 -28.72517604664 -1.327916992569 -30.92677359405 -28.77215127317 -1.331010205146 -30.86498562623 -28.73494429163 -1.289495158598 -30.8653030651396 -28.7346268527204 -1.29524109106408 -30.8653447680352 -28.7345851498248 -1.30829125811562 -30.8664836173166 -28.7334463005434 -1.31384120369312 -30.8712168444363 -28.7287130734237 -1.32225815073765 -30.8815937217781 -28.7513345125353 -1.28931844978981 -30.91480991288 -28.78411495434 -1.288965032173 -30.9183285585385 -28.7805963086907 -1.31918361534225 -30.9161812566296 -28.7827436105992 -1.3142250761192 -30.9151679849688 -28.7837568822551 -1.30294073285233 -30.9151233239975 -28.7838015432233 -1.29438189615538 5.4504320456204 0.00432516504066172 5.40310822329271 0.0743251650363348 6.3151499829476 0.00432516504065461 6.23547026927652 0.00432516504065527 6.0302264411004 0.00432516504065695 5.882791014284 0.00432516504065816 5.61893796719951 0.00432516504066033 6.3190156508054 0.027658498372567 6.32674698653769 0.0743251650363348 5.81361434029048 0.0743251650363348 5.95044971262307 0.0743251650363348 6.13859834958038 0.0743251650363348 6.25311197203719 0.0743251650363348 7 2 1 10 7 6 10 2 7 11 6 5 11 10 6 12 5 4 12 11 5 8 4 3 13 12 4 13 4 8 9 13 8 
6 4 1 0 0.00164265338720065
-30.91480991288 -28.78411495434 -1.288965032173 -30.924893861885 -28.774031005335 -1.26578063004887 -30.93497781089 -28.76394705633 -1.242596227924 -30.86498562623 -28.73494429163 -1.289495158598 -30.889897769555 -28.7595296229888 -1.28923009538588 -30.88548033621 -28.71444958165 -1.242596227925 -0.033485447202792 0.0350000000001007 -0.006284358168202 0.0349999999982381 0.0209167308661759 0.0349999999963754 -0.0341829114575072 -0.0349999999964434 -0.0338341793319452 4.94244839499557e-12 0.0209167308612872 -0.034999999999298 6 5 4 2 1 5 2 5 6 3 2 6 

TShapes 6
Ve
0.00724753242899573
-30.91480991288 -28.78411495434 -1.288965032173
0 0

0101101
*
Ve
0.00501962046137753
-30.86498562623 -28.73494429163 -1.289495158598
0 0

0101101
*
Ed
 0.00303627754894084 1 1 0
1  1 0 0 0.0700035330933274
2  1 1 0 0 0.0700035330933274
2  2 2 0 0 0.0700035330933274
4 C0 1 0 2 0
6  1 1 0
0

0101000
-6 0 +5 0 *
Ed
 0.00198930343391261 1 1 0
1  2 0 0 1
2  3 1 0 0 1
4 C0 3 0 1 0
6  2 2 0
0

0101000
+5 0 -6 0 *
Wi

0101100
-4 0 +3 0 *
Fa
0  1e-07 1 0

0111000
+2 0 *

-1 0 