DBRep_DrawableShape

CASCADE Topology V3, (c) Open Cascade
Locations 0
Curve2ds 1
7 0 0  3 25 23  6.3456458076500395 0.0022505479599956857  6.294775417856064 0.017504552217729164  6.1994915178026098 0.046910544543117168  6.0746391979531156 0.087365734865922889  5.966239709346989 0.12381965547459797  5.8738049201477054 0.15592386165864042  5.7977334125106745 0.18333352330782532  5.7393919839951906 0.20569032507229698  5.7007039199885714 0.22268627796091486  5.6849460489363102 0.23382557278679608  5.6910182029648402 0.23972542007182038  5.7155354441473047 0.24152903062706801  5.7556738359935835 0.24025308402930157  5.8085020908491085 0.2369458926638649  5.8711259578683492 0.2326557689161361  5.9407641866983871 0.22839939236286122  6.0146170369098684 0.22531997381510924  6.0911341335469293 0.22403472379482162  6.1709297004691122 0.22404783311492277  6.2545605624070175 0.22505131278442644  6.3429326616123962 0.22668684745326634  6.4371708857858536 0.2286096070112659  6.5386086016466356 0.23047114674789768  6.6119687164000247 0.23143971232545446  6.650313029734658 0.23179792162000012 
 0 4 0.045454545454545456 1 0.090909090909090912 1 0.13636363636363635 1 0.18181818181818182 1 0.22727272727272729 1 0.27272727272727271 1 0.31818181818181818 1 0.36363636363636365 1 0.40909090909090912 1 0.45454545454545459 1 0.5 1 0.54545454545454541 1 0.59090909090909094 1 0.63636363636363635 1 0.68181818181818188 1 0.72727272727272729 1 0.77272727272727271 1 0.81818181818181823 1 0.86363636363636365 1 0.90909090909090917 1 0.95454545454545459 1 1 4
Curves 1
7 0 0  3 6 4  18.645096580560001 56.794022650869998 -0.034077155187740002  18.642884952429998 56.905885348760002 -0.031068511869680002  18.63782335166 57.070346347410002 -0.029940907591730001  18.642564588060001 57.002129930690003 -0.03107400628481  18.64559324563 57.020943156370002 -0.034106412788640003  18.64650222661 57.023570024530002 -0.036766912247270002 
 0 4 0.33333333333330001 1 0.66666666666670005 1 1 4
Polygon3D 0
PolygonOnTriangulations 0
Surfaces 1
2 18.637039291360001 56.791772102910002 -0.040000000000000001 0 1 0 0.76718739504248434 -0 0.64142302803058693 0.64142302803058693 0 -0.76718739504248434 0.0099999999994460007
Triangulations 0

TShapes 4
Ve
0.223934844534518
18.645131206742 56.7996772387699 -0.0341434137010921
0 0

0101101
*
Ed
 6.56618838839787e-05 1 1 0
1  1 0 0 1
2  1 1 0 0 1
0

0101000
-4 0 +4 0 *
Wi

0101100
-3 0 *
Fa
0  1e-07 1 0

0111000
+2 0 *

+1 0 