DBRep_DrawableShape

CASCADE Topology V3, (c) Open Cascade
Locations 0
Curve2ds 2
7 0 0  3 4 2  6.5630806358241705 0.080577838867725418  6.5630806357561786 0.080577842459811616  6.5629708184228752 0.086379894172217406  6.5626707920442922 0.10223138601999437 
 0.78867520000000002 4 1.0000000000000002 4
7 0 0  3 25 23  6.5626707920442922 0.10223138601999437  6.5626199104854592 0.10492041310542849  6.5625291006016768 0.10972007573778396  6.5624233797482443 0.11530880317870328  6.562345785340522 0.11941117221995287  6.5622939561419207 0.12215159096940707  6.5622655339234548 0.12365446753498663  6.5622581633326922 0.12404421002458153  6.5622694910109276 0.12344522654611671  6.562297165001838 0.12198192520744934  6.5623388341869484 0.11977871411654561  6.5623921477993994 0.116960001381259  6.5624547550211139 0.11365019510952942  6.5625243046416113 0.10997370340923363  6.5625984448067642 0.10605493438828692  6.5626748228318705 0.1020182961545988  6.5627510850912723 0.097988196816063994  6.5628248769892821 0.094089044480598502  6.5628938429963863 0.090445247256091418  6.5629556267707709 0.087181213250432557  6.5630078713416777 0.084421350571578513  6.5630482194015949 0.082290067327388597  6.5630743135497838 0.080911771625788567  6.5630806359021943 0.080577838258371851  6.5630806358241687 0.080577838867725404 
 2.2204460492503131e-16 4 0.035848872727272947 1 0.071697745454545672 1 0.1075466181818184 1 0.14339549090909112 1 0.17924436363636384 1 0.21509323636363659 1 0.2509421090909093 1 0.28679098181818202 1 0.32263985454545474 1 0.35848872727272746 1 0.39433760000000018 1 0.43018647272727295 1 0.46603534545454567 1 0.50188421818181839 1 0.53773309090909105 1 0.57358196363636382 1 0.6094308363636366 1 0.64527970909090926 1 0.68112858181818203 1 0.7169774545454547 1 0.75282632727272747 1 0.78867520000000013 4
Curves 1
7 0 1  3 3 2  18.645581292919999 56.894003488929997 -0.036217439122470003  18.645584129260001 56.969013576579997 -0.036201681681919999  18.645578456580001 56.818993401269999 -0.03623319656303 
 0 3 1 3
Polygon3D 0
PolygonOnTriangulations 0
Surfaces 2
2 18.637039291360001 56.791772102910002 -0.040000000000000001 0 1 0 0.76718739504248434 -0 0.64142302803058693 0.64142302803058693 0 -0.76718739504248434 0.0099999999994460007
1 18.431405623020002 58.237500305220003 -1.2388576498849999 0.98418332397358166 0 -0.1771529983158967 0.1771529983158967 0 0.98418332397358166 0 -1 0 
Triangulations 0

TShapes 6
Ve
0.223935485711045
18.6451315367222 56.7996771335595 -0.0341443868205085
0 0

0101101
*
Ve
0.12185836769773
18.6466949930547 56.89400348893 -0.0364179051467102
0 0

0101101
*
Ed
 0.00226321914755836 1 1 0
1  1 0 0.7886752 1
2  1 1 0 0.7886752 1
4 C0 2 0 1 0
0

0101000
+6 0 -5 0 *
Ed
 0.00226321914755836 1 1 0
1  1 0 2.22044604925031e-16 0.7886752
2  2 1 0 2.22044604925031e-16 0.7886752
4 C0 2 0 1 0
0

0101000
+5 0 -6 0 *
Wi

0101100
+4 0 +3 0 *
Fa
0  1e-07 1 0

0111000
+2 0 *

+1 0 