DBRep_DrawableShape

CASCADE Topology V3, (c) Open Cascade
Locations 0
Curve2ds 2
7 0 0  1 2 2  2.9050959341416807 0.019273990830892995  6.2823817595280858 0.24148067446470378 
 0 2 1 2
7 0 0  1 2 2  6.2823817595280858 0.24148067446470378  2.9050959341416807 0.019273990830892995 
 0 2 0.22222092032961005 2
Curves 2
7 0 0  3 10 8  18.42369939864 59.691096037039998 -3.2417137278210002  18.422082789840001 59.700902568490001 -3.2417226998039999  18.426005965569999 59.718443469859999 -3.254637924841  18.417429674049998 59.753943495910001 -3.2494903296580002  18.41231681603 59.789132421959998 -3.2508182919889999  18.406477555319999 59.824534447570002 -3.2507115063350001  18.400367565060002 59.857721095850003 -3.2498056620460001  18.397972733850001 59.888050280930003 -3.2534704307240001  18.38899781305 59.903141207529998 -3.2442275360889998  18.387806345809999 59.91038476496 -3.2442197202209999 
 0 4 0.14285714285709999 1 0.28571428571430002 1 0.42857142857140001 1 0.57142857142860004 1 0.71428571428569998 1 0.85714285714289995 1 1 4
1 18.387806345809999 59.91038476496 -3.2442197202209999 0.16151968399120398 -0.98680505685552433 0.011277031867790277 
Polygon3D 0
PolygonOnTriangulations 2
15 2 129 130 131 132 133 134 135 136 137 138 139 140 141 121 
p 0.05 1 0 0.0271631985138552 0.0594646666107589 0.129103644808686 0.160654203696105 0.195693844947581 0.325572060352318 0.686215470392102 0.764661602794077 0.800469460659299 0.829407216543638 0.855869008970338 0.882330801397038 0.958758425794249 1 
2 3 2 
p 0.05 1 0 0.22222092032961 
Surfaces 3
2 18.421645590339999 59.671224205649999 -3.2488028394319999 -0.16249457979920243 0.98670943622521456 0 0.75699104215222401 0.12466379340291407 0.64142302789632177 0.63289815423744977 0.10422776539154491 -0.76718739515473966 0.01000000000147
1 18.41369715734 58.454008993000002 -4.4476604893170002 0.97110297274049817 0.15992445567139973 -0.17715299831719969 0.17479853509542165 0.028786402020197093 0.98418332397334707 0.16249457979594858 -0.98670943622575036 -9.7688996200470993e-13 
1 16.826439523040001 59.892558283470002 -3.2388028394320001 0 0 1 0.9867094362256259 0.16249457979670426 -0 -0.16249457979670426 0.9867094362256259 0 
Triangulations 2
141 139 1 0 0.00534263623984348
18.23187403236 59.12583908431 -4.837870737997 18.42369939864 59.69109603704 -3.241713727821 18.287742492 58.83865388482 -4.790871304676 18.2848116161292 58.8385448993971 -4.80703592918192 18.2824926886888 58.8391952309549 -4.81916055270741 18.2812255688113 58.8399747649517 -4.82540282543386 18.279343317209 58.8419532855298 -4.83393469514099 18.27030680695 58.858249480056 -4.86875895436663 18.2688404186205 58.8610603239001 -4.87425980054791 18.2674464778283 58.8639610619969 -4.87928235785421 18.2650932720985 58.869417734163 -4.88725597256693 18.2638904038682 58.8724903562658 -4.89107595587787 18.2626936817165 58.8757389083566 -4.89470342772565 18.2604851118123 58.882210485407 -4.9009679864569 18.2571425840498 58.8929175074166 -4.90962504557993 18.2539468571618 58.903806682682 -4.9173129451245 18.2509009854599 58.9148818010504 -4.92401152093478 18.2485597190896 58.9240088532219 -4.92860626045726 18.2463405145023 58.933287361926 -4.93239516454051 18.2442368890776 58.9427092834066 -4.9354210305705 18.2420229772981 58.9533312638662 -4.93796810497174 18.2397003886965 58.9653038453695 -4.93989166323995 18.2377863780278 58.975934224683 -4.94078718194467 18.2361246150285 58.9859142406086 -4.94088706381642 18.2345793322987 58.9960387874199 -4.94021795865492 18.2331562516403 59.0063149648354 -4.93874209189568 18.2318461299208 59.016731303804 -4.93652048545317 18.2306364487663 59.0272722712946 -4.93363578394211 18.2295155792261 59.0379234378891 -4.93016476012392 18.2286121002732 59.0476401505321 -4.92634563829453 18.2281529992667 59.0535731491446 -4.92350630039917 18.2278232203962 59.0588013540543 -4.92059430575195 18.2275875704364 59.0636765724794 -4.91748498058217 18.2273759427903 59.0710878926199 -4.9119545119331 18.2273544341069 59.078658368407 -4.90523818714764 18.2276202977595 59.0959760320307 -4.88814731687772 18.2276474155099 59.1042046599793 -4.88057029032157 18.2280556972764 59.110174583419 -4.87294286992331 18.2287698827896 59.1147029713116 -4.86493991396461 18.2299971067701 59.119867946882 -4.85354994720324 18.50632492064 58.87465076353 -3.560167734576 18.61416361188 58.55619177499 -3.256514430378 18.6097482681435 58.5761813801758 -3.26267253499742 18.6050503299009 58.5961063499886 -3.27043809269419 18.600071104791 58.6159628317999 -3.27980741332238 18.5948119004529 58.6357469729812 -3.29077680673609 18.5892740245254 58.6554549209038 -3.3033425827894 18.5834587846474 58.6750828229392 -3.3175010513364 18.577367488458 58.6946268264589 -3.33324852223116 18.571001443596 58.7140830788343 -3.35058130532777 18.5620882570726 58.739881588024 -3.37615134596283 18.5514837193885 58.76869888224 -3.40826769749048 18.5402722755768 58.7972855074601 -3.44391917396378 18.5284583389191 58.8256284610628 -3.48309332114026 18.5176195483685 58.8502424312326 -3.52028832252417 18.6238192520683 58.5132082143297 -3.2418246241172 18.6283996259 58.48936659768 -3.238802736969 18.631692330102 58.4654212577574 -3.2418111403159 18.63634422216 58.42150532886 -3.256514430396 18.63632058448 58.08528321455 -3.560167734577 18.6417506943345 58.1411798473973 -3.47994084180936 18.6447821194978 58.1916329956807 -3.41777695846071 18.6459488330181 58.2325578480334 -3.37443654781921 18.6460126453581 58.2694053718579 -3.34082273059755 18.6453794146812 58.2992454562094 -3.31735585703333 18.6442464912611 58.3268582039904 -3.29863888160156 18.6427774863403 58.3516872325604 -3.28427720652796 18.6410913842178 58.3740089160632 -3.27336909718357 18.639060437875 58.3963019271 -3.26437721093916 18.637757607088 58.4089095594751 -3.26013745266338 18.41773815583 58.04928633584 -4.790871304676 18.4569116931 57.75935176122 -4.837870737997 18.4533250928229 57.7642497824826 -4.85310979595281 18.4505617800298 57.7686247138608 -4.86430804135557 18.4490947971909 57.7713029286788 -4.86993187701349 18.4470013609762 57.7758319191545 -4.87731897069535 18.4376120040175 57.8022748496483 -4.90491749418714 18.43613592454 57.8065859999544 -4.90911706636003 18.4347536235726 57.81083756647 -4.91285636021254 18.4328273845098 57.8171659049657 -4.9177025688495 18.4305226984796 57.8254369034798 -4.92286958565647 18.4294002514556 57.8297628094743 -4.92511732339763 18.4282800342335 57.8342749876095 -4.92718468125099 18.4258189740574 57.8447839330842 -4.93118859580695 18.4229724588508 57.857636056911 -4.93519016777552 18.4203190249315 57.8703655032175 -4.9382440692107 18.4181221348233 57.8817005224158 -4.94005414153833 18.4163168917401 57.8917927832105 -4.94083921213957 18.4146699835364 57.9017844432145 -4.94084715253839 18.4130095168149 57.912778636582 -4.94002438226896 18.4113524901499 57.9248749983898 -4.93818777458768 18.4099603540965 57.9362265490132 -4.93557148754063 18.4088722499796 57.94633822441 -4.93240787728926 18.4080398777237 57.9553453831947 -4.92883951660722 18.4073216904837 57.9647469643466 -4.92428916187354 18.4066453772783 57.9762202129734 -4.91763907246975 18.4061720557463 57.9875644873466 -4.90999267094202 18.4058931869925 57.9987852128011 -4.90139186740651 18.4059004936938 58.00590703805 -4.89492260300657 18.4060144472975 58.0100763490173 -4.89053410562122 18.4062086458559 58.0138411988586 -4.8860708542723 18.4066841878164 58.0193130873868 -4.87852433223764 18.407338420099 58.0241218727361 -4.87059689490016 18.4107419389123 58.0431407979544 -4.83477047051687 18.4119578129416 58.0458985063748 -4.82561587579848 18.4134391939813 58.0475308266841 -4.81602178772136 18.4152787118215 58.0486055216481 -4.80496788928587 18.82215028402 57.28674340138 -3.244653132512 18.85813001218 57.06655985668 -3.246583472114 18.22945820152 58.23366896422 -5.656518137126 18.2403839183892 58.1990845702262 -5.62784943940214 18.2513371088122 58.1665438795153 -5.59718819062145 18.2623085833326 58.1358530150189 -5.56475819004023 18.273289152494 58.1068180996683 -5.53078323691477 18.2879281755841 58.0703457039269 -5.48346685343026 18.3098387451345 58.0195053954029 -5.40924887449848 18.3654010997563 57.9018382970854 -5.2107782072424 18.4298330433105 57.7774728925993 -4.97006953067602 18.588629696575 57.5009449321745 -4.34945398194487 18.16853136698 58.60363259625 -5.656518124013 18.38780634581 59.91038476496 -3.244219720221 18.2714195895247 59.4060324452935 -4.36224390985548 18.2013744017231 59.034049663981 -5.0889195414858 18.1827820316702 58.8957936764139 -5.31476809646617 18.1725788719003 58.7908635677174 -5.4652062901865 18.1690229670386 58.7286787803671 -5.54086560661678 18.1678057744099 58.6809592504469 -5.59065566004373 18.167756682076 58.6434695322368 -5.62479221713188 18.4231241741416 59.6965952235067 -3.24234585586364 18.4231086912613 59.7029886446007 -3.24431708912614 18.4236636780108 59.7170397789474 -3.24976218610312 18.4233216932841 59.7238933715221 -3.25125698168638 18.4222601018633 59.7319539710207 -3.25176608230916 18.4162168828934 59.7637426999727 -3.2502601483862 18.4018890012294 59.8509503346782 -3.25037782200469 18.3996101780494 59.8682306862235 -3.25117653795187 18.3985564416349 59.8757070248311 -3.25142265424684 18.3974769174074 59.8814874403874 -3.25123561719698 18.3961984028153 59.8865316977844 -3.25059369248896 18.3945863519647 59.8913232762927 -3.24941857620543 18.3895386487959 59.9040122457678 -3.24519872667674 -0.396481264390881 -0.692446362916539 1.22423235437465 -1.219020149791 -0.348726509582544 -0.399999694772251 -0.365150913566516 -0.400368409270102 -0.377470390263664 -0.401386910694869 -0.383812981704089 -0.402361984357376 -0.392481965926167 -0.404620064964731 -0.427865881074387 -0.422168057815617 -0.433455130604695 -0.42517982411579 -0.438558404744731 -0.428268517591222 -0.446660162332458 -0.434035050684094 -0.450541536074423 -0.437262295474563 -0.454227304527744 -0.440662133339826 -0.460592540128326 -0.447406580121154 -0.46938872566825 -0.458514442416195 -0.477200176398125 -0.469778182701035 -0.484006404106788 -0.481201044144763 -0.488674985061547 -0.4905872357423 -0.492524780105649 -0.50010303655163 -0.49559927441603 -0.509741563113387 -0.498187282502762 -0.520582120128607 -0.500141754013849 -0.532772987332762 -0.501051664477833 -0.543573099271368 -0.501153151537721 -0.553690502639095 -0.500473293278503 -0.563931588583213 -0.498973708065741 -0.574302432700972 -0.496716398488817 -0.584793220330512 -0.493785337332879 -0.595390659051318 -0.490258531163977 -0.606082400861855 -0.486378032748273 -0.615816783348635 -0.483493064240684 -0.621745530489825 -0.480534271324495 -0.626957836887782 -0.477374976613829 -0.631806552752661 -0.471755628557123 -0.639153760615581 -0.464931366631743 -0.646627115555909 -0.447565831315761 -0.663671416264339 -0.439867035398638 -0.671786274620947 -0.432117035766883 -0.677610510838373 -0.423985465393969 -0.681962662628055 -0.412412452029603 -0.686859575516202 0.90175552981023 -0.399999694778649 1.21028880485561 -0.0682500029168326 1.20403173417592 -0.0886914044051851 1.1961413772579 -0.109114949636653 1.18662148355168 -0.129516624702049 1.1754758025074 -0.149892415692182 1.16270808357517 -0.170238308697865 1.14832207620513 -0.19055028980991 1.1323215298474 -0.210824345119126 1.11471019395212 -0.231056460716326 1.08872922067553 -0.25796043767308 1.05609673163902 -0.288117913697387 1.01987230515038 -0.318146405402904 0.980068595603782 -0.34803236584612 0.942275838436736 -0.374080447191619 1.22214383498019 -0.023461718479365 1.22828513612525 3.05228538764186e-07 1.22217123584239 0.0233590293491898 1.21028880483739 0.0682506133584141 0.901755529810598 0.400000305221283 0.983271737999408 0.34572893355662 1.04643464863203 0.296438926216116 1.09047157710622 0.25624757284669 1.12462559740869 0.219900142546817 1.14846960390613 0.190353753186708 1.16748737730559 0.162923900475921 1.18207985690734 0.138186158356285 1.19316326899423 0.115887160155676 1.2022996626194 0.0935604180312538 1.20660755747312 0.0809086452569993 -0.348726509582651 0.400000305216188 -0.396481264388987 0.692446973369757 -0.411965227167345 0.687031246465972 -0.423343438045284 0.682265437041106 -0.429057653599362 0.679384440448081 -0.436563464256749 0.674575470771052 -0.464605519857748 0.646958262117812 -0.468872582782585 0.642464554515358 -0.472671970316889 0.638044877300878 -0.477596061712245 0.631487642584377 -0.482846116941961 0.622952071315547 -0.485129977769936 0.618501267492995 -0.487230559849514 0.61386702952232 -0.491298820770435 0.603097844918447 -0.495364701456533 0.589953989770621 -0.498467681725276 0.576962556352388 -0.500306843478458 0.565421203214577 -0.501104530842236 0.555169732039411 -0.501112598850066 0.545043253173334 -0.500276605951761 0.533925361991822 -0.498410482398829 0.521720509800396 -0.49575214935939 0.510293613121462 -0.492537697159034 0.500139516570102 -0.488911989838998 0.491116812023728 -0.48428850697476 0.481723481651946 -0.477531544890752 0.470292821737534 -0.469762259086447 0.459022406982906 -0.461023233209783 0.447905496634731 -0.45445000214356 0.440879511757841 -0.449990977814958 0.436784130126758 -0.445455998162028 0.433100873475539 -0.437788197000468 0.427778982421781 -0.429733358898181 0.423140417740744 -0.393331172932485 0.404927318120261 -0.384029455970489 0.402403834139029 -0.374281182611947 0.401033924676426 -0.363049638481808 0.400272424692885 1.2217754108918 1.21812338227065 1.21982651449247 1.44122708508378 -1.22828503426571 0.187473753868647 -1.19915554101138 0.223373871540067 -1.16800137903349 0.257261912200982 -1.13504999515474 0.289327682947476 -1.10052883619786 0.319760990875635 -1.05245186987676 0.358127409821101 -0.977041346772579 0.411852370774463 -0.775384819963669 0.536984188484189 -0.530800777735639 0.670166548223665 0.0997958732541856 0.9688228915997 -1.22828502094124 -0.187473133292581 1.22180447887018 -1.44122683342481 0.0866009924961943 -0.962489857482825 -0.651532888197823 -0.606832900406103 -0.881039081241988 -0.473435572217865 -1.0339019004643 -0.371558001982097 -1.11077618124716 -0.310777500780096 -1.16136515859062 -0.263889977520274 -1.19604956418273 -0.22690649603907 1.2236679778892 -1.22453971983238 1.2219092601897 -1.23085068463976 1.21705177902049 -1.24462488915064 1.21571813797659 -1.25144296428064 1.21526356066589 -1.2595689367194 1.21660441302799 -1.29191716586902 1.21649450192098 -1.38029396505421 1.21580752319819 -1.39771494740034 1.2155963249521 -1.40526314770879 1.21575810181002 -1.41114215511925 1.21631159694641 -1.41632712318298 1.21732427497446 -1.42131696843717 1.22096031916732 -1.43465751875957 36 35 123 36 123 37 34 123 35 38 37 123 33 123 34 32 123 33 39 38 123 31 123 32 30 123 31 40 39 123 29 123 30 28 123 29 27 123 28 26 123 27 25 123 26 24 123 25 23 123 24 22 123 23 21 123 22 20 123 21 19 123 20 18 124 123 18 123 19 111 110 120 111 120 128 17 124 18 16 124 17 15 124 16 112 111 128 112 128 127 14 124 15 13 124 14 12 124 13 11 124 12 122 1 40 122 40 123 10 124 11 10 125 124 113 112 127 113 127 126 114 113 126 115 126 125 115 114 126 116 115 125 116 125 10 140 122 121 140 121 141 139 122 140 138 122 139 137 122 138 136 122 137 135 122 136 134 122 135 133 122 134 132 122 133 131 122 132 99 117 116 100 99 116 98 117 99 101 100 116 97 117 98 102 10 9 102 116 10 102 101 116 96 117 97 103 9 8 103 102 9 95 117 96 94 117 95 2 130 129 2 131 130 2 122 131 93 117 94 104 8 7 104 103 8 92 117 93 105 6 5 105 7 6 105 104 7 91 117 92 106 105 5 106 5 4 90 117 91 107 4 3 107 106 4 89 117 90 71 107 3 88 117 89 87 117 88 118 117 87 118 83 82 118 84 83 118 85 84 118 86 85 118 87 86 81 118 82 80 118 81 79 118 80 78 118 79 77 118 78 76 118 77 75 118 76 74 118 75 73 118 74 72 118 73 119 118 72 58 56 57 59 42 56 59 56 58 70 43 42 70 42 59 69 44 43 69 43 70 60 3 41 60 41 55 60 71 3 68 44 69 68 45 44 67 46 45 67 45 68 61 60 55 61 54 53 61 55 54 66 46 67 66 47 46 65 47 66 65 48 47 65 49 48 62 61 53 62 53 52 64 49 65 64 50 49 63 62 52 63 50 64 63 51 50 63 52 51 109 119 108 2 1 122 72 108 119 
69 67 1 0 0.00638797148524395
18.12288975363 59.64185464741 -3.240759162931 18.42369939864 59.69109603704 -3.241713727821 18.38780634581 59.91038476496 -3.244219720221 18.34554060283 59.97075251445 -3.238802839432 18.3518956743346 59.9657801456416 -3.23888308951778 18.3558552142048 59.9621943296568 -3.23895145070196 18.3622918422968 59.9549747359279 -3.2388400472907 18.3667077275236 59.9482749632074 -3.23836685876336 18.3712603285612 59.9402012824773 -3.23808838053737 18.3740465191011 59.9354343106614 -3.23845288341181 18.3794056069029 59.9274393222909 -3.24039161415068 18.3846139442568 59.9192083436808 -3.24294545865161 15.36248608567 59.47949321414 -3.238802839432 15.4654649835395 59.6121239739779 -3.238802839432 15.5785487899799 59.7362514267223 -3.238802839432 15.7010379782843 59.8511077306521 -3.238802839432 15.832174840755 59.9559823944429 -3.238802839432 15.9711481759177 60.0502266723469 -3.238802839432 16.1170983065445 60.1332575772793 -3.238802839432 16.2691223975447 60.2045614871262 -3.238802839432 16.4262800408252 60.2636973219678 -3.238802839432 16.5875990725754 60.3102992725608 -3.238802839432 16.7520815869895 60.3440790632037 -3.238802839432 16.9187101092274 60.3648277349855 -3.238802839432 17.0864538894268 60.3724169383879 -3.238802839432 17.2542752788349 60.3667997272442 -3.238802839432 17.4211361486146 60.3480108491447 -3.238802839432 17.5860043116218 60.3161665304907 -3.238802839432 17.7478599074267 60.2714637575284 -3.238802839432 17.905701711084 60.2141790578078 -3.238802839432 18.0585533266254 60.1446667896079 -3.238802839432 18.2054692269612 60.0633569499057 -3.238802839432 15.33986822065 59.40844048699 -3.246574032522 15.3403029518607 59.4169397036168 -3.24501979390405 15.3420025608118 59.4227293250185 -3.24289630739721 15.3455229276094 59.4322452134289 -3.23934780793926 15.3476784327297 59.4399237692793 -3.23789611948841 15.3490201416385 59.447070747925 -3.23786044781628 15.3500657990261 59.4528400368099 -3.23833606434447 15.3527392320112 59.4621248168452 -3.23899067408464 15.3570551098718 59.4710167367438 -3.23895710334971 15.37584870558 59.18825791212 -3.244648703286 15.3813598359952 59.2050522244208 -3.23846233004665 15.3809842651625 59.2109609607619 -3.2380157431805 15.3782298707949 59.2209302408373 -3.238847345413 15.377133935556 59.2262157000673 -3.23901589186745 15.3668703833449 59.2902883395459 -3.23880093187995 15.3483901833774 59.3980883318888 -3.23954916152242 15.3432072552229 59.4034590558154 -3.24397860632569 15.67884660117 59.23936152179 -3.24075916293 18.0085947832578 59.7188951890107 -3.238802839432 17.8883542325119 59.7863105984819 -3.238802839432 17.763149972746 59.8439865970802 -3.238802839432 17.6337693279429 59.8915604998858 -3.238802839432 17.5010258845151 59.928733147152 -3.238802839432 17.3657543752167 59.9552707855165 -3.238802839432 17.2288054300792 59.9710065379165 -3.238802839432 17.0910402273816 59.9758414529641 -3.238802839432 16.9533250782881 59.9697451271846 -3.238802839432 16.8165259792104 59.9527558962024 -3.238802839432 16.6815031661478 59.9249805936751 -3.238802839432 16.5491057052513 59.8865938794891 -3.238802839432 16.4201661536273 59.8378371414435 -3.238802839432 16.2954953239551 59.779016977327 -3.238802839432 16.1758771858402 59.7105032669342 -3.238802839432 16.0620639359659 59.6327268461443 -3.238802839432 15.9547712680421 59.546176797689 -3.238802839432 15.8546738722972 59.4513973756453 -3.238802839432 15.7624011928127 59.3489845829942 -3.238802839432 1.23875477093644 -0.457768928500284 1.54329486827839 -0.458330771907454 1.54351208405575 -0.236124088273644 1.51161750871671 -0.169690706061071 1.51708013475635 -0.175629653960156 1.52040437444764 -0.179811216196316 1.5255823112742 -0.187980774631496 1.52885083014385 -0.195309061009754 1.53203099518943 -0.204015210963793 1.53400554860415 -0.209171567897749 1.53799426883196 -0.217931121085927 1.54179589503549 -0.226899031939639 -1.5116175057174 -0.169690703035727 -1.38845547586952 -0.0555561935071191 -1.25670457869547 0.0485460298011223 -1.1171798139158 0.141971999515454 -0.97074426985493 0.224143790535734 -0.818303784329942 0.294553095153735 -0.66080134121494 0.352764367401386 -0.499211237223013 0.398417517301072 -0.334533054989666 0.431230138351598 -0.167785479739677 0.450999254470785 2.21303753100699e-09 0.457602575588239 0.167785484151998 0.450999254121325 0.334533059360813 0.431230137654841 0.499211241525818 0.398417516261327 0.66080134542266 0.352764366025086 0.818303788416421 0.294553093449392 0.970744273794763 0.224143788513891 1.11717981768449 0.141971997188619 1.25670458226957 0.0485460271836889 1.3884554792268 -0.0555561963989601 -1.54548044960156 -0.23612381891187 -1.54367041957938 -0.227808203131065 -1.54105261729258 -0.222371706304191 -1.53603275786576 -0.21355432993908 -1.53265817691736 -0.206328084323704 -1.53017295478458 -0.199494113478765 -1.52820371660005 -0.193971415353564 -1.52405708861619 -0.185244453648954 -1.518353682418 -0.177172019138296 -1.54575664058321 -0.459226677008138 -1.53758977147801 -0.443551099407042 -1.53700021313365 -0.437659865278445 -1.53809804607058 -0.427375508400331 -1.53832055723572 -0.421982212367219 -1.53803624442304 -0.357093362786017 -1.53875391765643 -0.247723160787962 -1.54299524824613 -0.24158161907763 -1.23875477298744 -0.45776893056265 1.13822443878034 -0.36344883629069 1.03053659137625 -0.277390977850486 0.916368403966182 -0.200136512210356 0.796437802219615 -0.132171239882879 0.671498947689794 -0.0739225479952683 0.542337495407385 -0.0257567227439475 0.409765653433171 0.0120233539288932 0.274617075436892 0.0391801089527413 0.137741618419317 0.0555427720633633 -1.45735223888721e-09 0.0610084496602344 -0.137741621324922 0.0555427718340407 -0.274617078315255 0.0391801084955383 -0.409765656266322 0.0120233532466849 -0.542337498177637 -0.0257567236468714 -0.671498950379855 -0.0739225491132296 -0.7964378048127 -0.132171241208848 -0.916368406446113 -0.200136513735994 -1.03053659372756 -0.2773909795662 -1.13822444098838 -0.363448838185691 46 45 44 34 49 48 34 33 49 35 34 48 36 35 48 37 36 48 50 43 42 50 44 43 50 47 46 50 48 47 50 46 44 41 39 38 41 40 39 13 41 38 13 38 37 13 37 48 13 48 50 69 13 50 14 13 69 68 14 69 15 14 68 67 15 68 16 15 67 66 16 67 17 16 66 65 17 66 18 17 65 18 65 64 19 18 64 19 64 63 20 19 63 20 63 62 21 20 62 21 62 61 22 21 61 22 61 60 23 22 60 24 23 60 24 60 59 25 59 58 25 24 59 26 58 57 26 25 58 27 57 56 27 26 57 28 56 55 28 27 56 29 28 55 29 55 54 30 54 53 30 29 54 31 30 53 31 53 52 3 1 2 11 3 12 10 1 3 10 3 11 32 52 51 32 31 52 6 8 7 5 8 6 4 9 8 4 10 9 4 51 1 4 8 5 4 1 10 4 32 51 

TShapes 6
Ve
0.0203737292321982
18.42369939864 59.69109603704 -3.241713727821
0 0

0101101
*
Ve
0.0203737292321982
18.38780634581 59.91038476496 -3.244219720221
0 0

0101101
*
Ed
 0.0203737292321982 1 1 0
1  1 0 0 1
2  1 1 0 0 1
4 C0 1 0 2 0
6  1 1 0
0

0101000
+6 0 -5 0 *
Ed
 0.0188249597584346 1 1 0
1  2 0 0 0.22222092032961
2  2 1 0 0 0.22222092032961
4 C0 3 0 1 0
6  2 2 0
0

0101000
+5 0 -6 0 *
Wi

0101100
+4 0 +3 0 *
Fa
0  1e-07 1 0

0111000
+2 0 *

+1 0 