DBRep_DrawableShape

CASCADE Topology V3, (c) Open Cascade
Locations 0
Curve2ds 2
7 0 0  1 2 2  0.070068820614236083 0.046063268099342025  0.013863972605152522 2.5830663651370998 
 -0 2 2.5370070080815137 2
7 0 0  1 2 2  0.070068820614236083 0.046063268099342025  0.013863972605152522 2.5830663651370998 
 -0 2 2.5370070080815137 2
Curves 2
1 -19.73231417697674 69.2269554041562 1.0198339103250518 -0.99999845840246249 -0.00062885224464137622 -0.0016394320824749382 
1 -19.73231417697674 69.2269554041562 1.0198339103250518 -0.99999845840246249 -0.00062885224464137622 -0.0016394320824749382 
Polygon3D 0
PolygonOnTriangulations 2
3 3 4 5 
p 0.0166666666666667 1 0 0.845669002693838 2.53700700808151 
3 4 5 3 
p 0.0166666666666667 1 0 0.845669002693838 2.53700700808151 
Surfaces 3
2 -19.686250908877398 69.301199999989791 1.0146231486114681 -1 0 0 0 -1 0 0 0 1 0.076200000000000004
1 -20.999999999999819 69.276070208491802 1.1683735092272258 0 0.93969262077468829 -0.34202014335649572 0 0.34202014335649572 0.93969262077468829 1 -0 0 
1 -21.000000084404022 69.224999999989791 0.8943413138939319 0 1 0 1 0 0 0 0 -1 
Triangulations 2
5 3 1 0 0.00309196152789538
-19.9406697379889 69.322544994714 1.29606193492657 -22.0593302620107 69.322544994714 1.29606193492098 -19.7323141769767 69.2269554041562 1.01983391032505 -20.5779818759893 69.2264236033056 1.01844749343088 -22.2693172740145 69.2253600016066 1.0156746596423 0.135883184432358 1.05933026200827 0.135883184429641 -1.05933026201178 -0.156379817400992 1.26768582302308 -0.157864509729587 0.422018123624622 -0.160833894384256 -1.26931727401468 4 5 2 1 3 4 1 4 2 
5 3 1 0 0.00112632648868782
-19.7262259180662 69.2249999719736 0.774059621219292 -22.2737759085211 69.2249997250602 0.774061252067694 -22.2693172740145 69.2253600016066 1.0156746596423 -19.7323141769767 69.2269554041562 1.01983391032505 -20.5779818759893 69.2264236033056 1.01844749343088 1.27377416633713 0.120281692674579 -1.27377582411819 0.120280061826193 -1.26931718961048 -0.121333345748607 1.26768590742728 -0.12549259643112 0.422018208414696 -0.124106179536949 5 2 3 1 5 4 1 2 5 

TShapes 6
Ve
0.0195152298975576
-19.7323141769767 69.2269554041562 1.01983391032505
0 0

0101101
*
Ve
0.0267522705418
-22.2693172740145 69.2253600016066 1.0156746596423
0 0

0101101
*
Ed
 0.00465076221283226 1 1 0
1  1 0 0 2.53700700808151
2  1 1 0 0 2.53700700808151
4 C0 2 0 1 0
6  1 1 0
0

0101000
+6 0 -5 0 *
Ed
 0.00195542372045104 1 1 0
1  2 0 0 2.53700700808151
2  2 1 0 0 2.53700700808151
4 C0 1 0 3 0
6  2 2 0
0

0101000
+6 0 -5 0 *
Wi

0101100
-4 0 +3 0 *
Fa
0  1e-07 1 0

0111000
+2 0 *

+1 0 