DBRep_DrawableShape

CASCADE Topology V3, (c) Open Cascade
Locations 0
Curve2ds 3
7 0 0  1 2 2  6.3151499829480811 0.0043251650357074567  6.3267469865138857 0.074325165035634022 
 0 2 0.070003533097522275 2
7 0 0  1 2 2  0.3188953837746607 0.0043251650357074567  0.3319587970783866 0.074325165035634022 
 0 2 0.070003533097522275 2
7 0 0  1 2 2  0.3188953837746607 0.0043251650357074567  0.33195879709674597 0.07432516503562514 
 0 2 1 2
Curves 2
1 -4.6149856262329996 -2.4849442916290001 -1.2894951586059999 -0.71173960003290115 -0.70240258659220112 0.0075728524078530115 
7 0 0  3 4 2  -4.6149856262329996 -2.4849442916290001 -1.2894951586059999  -4.6314847844599996 -2.5014434498560001 -1.2894951586050001  -4.648310754653 -2.5176157961199999 -1.288965032181  -4.6648099128810001 -2.5341149543469998 -1.288965032181 
 0 4 1 4
Polygon3D 0
PolygonOnTriangulations 2
3 3 8 9 
p 0.0166666666666667 1 0 0.0233345110325074 0.0700035330975223 
3 3 4 5 
p 0.0166666666666667 1 0 0.5 1 
Surfaces 3
2 -4.6454309692860001 -2.4483822415229999 -1.3051387818939999 -0.70710678118654757 -0.70710678118654757 0 0.70710678118654757 -0.70710678118654757 0 0 0 1 0.04999999999989
2 -4.6454309692860001 -2.4483822415229999 -1.291010205152 -0.70710678118654757 -0.70710678118654757 0 0.70710678118654757 -0.70710678118654757 0 0 0 1 0.04999999999989
1 -4.6520248567189997 -2.4974025358260001 -1.2600000000080001 -0.58834840541432087 0.58834840541432087 -0.55470019622571975 -0.39223227027671498 0.39223227027671498 0.83205029433751665 0.70710678118654757 0.70710678118654757 8.1524687095804742e-18 
Triangulations 2
13 11 1 0 0.00613058867735788
-4.624753871224 -2.475176046637 -1.327916992577 -4.67677359406 -2.522151273167 -1.331010205152 -4.614985626233 -2.484944291629 -1.289495158606 -4.61530306514268 -2.4846268527188 -1.29524109107735 -4.61534476803832 -2.48458514982342 -1.30829125812533 -4.61648361731956 -2.48344630054237 -1.31384120370203 -4.62121684442434 -2.47871307343702 -1.32225815072035 -4.63159372178224 -2.5013345125351 -1.28931844979794 -4.664809912881 -2.534114954347 -1.288965032181 -4.66832855854026 -2.53059630868821 -1.31918361534833 -4.66618125663166 -2.53274361059663 -1.31422507612532 -4.6651679849724 -2.53375688225564 -1.302940732859 -4.66512332400056 -2.53380154322744 -1.29438189616586 5.45043204557848 0.00432516503500047 5.4031082233364 0.0743251650349182 6.31514998294808 0.00432516503570746 6.23547026919407 0.00432516503564231 6.03022644106186 0.0043251650354745 5.88279101426328 0.00432516503535396 5.61893796785908 0.00432516503513824 6.31901565080335 0.0276584983690163 6.32674698653179 0.0743251650356251 5.81361434031213 0.0743251650352324 5.95044971263738 0.0743251650353371 6.13859834958459 0.0743251650354811 6.25311197199392 0.0743251650355688 7 2 1 10 7 6 10 2 7 11 6 5 11 10 6 12 5 4 12 11 5 8 4 3 13 12 4 13 4 8 9 13 8 
6 4 1 0 0.00164265338920865
-4.635480336212 -2.464449581649 -1.242596227932 -4.684977810895 -2.513947056333 -1.242596227932 -4.614985626233 -2.484944291629 -1.289495158606 -4.63989776955663 -2.509529622988 -1.28923009539313 -4.664809912881 -2.534114954347 -1.288965032181 -4.674893861888 -2.52403100534 -1.26578063005688 0.0209167308684677 0.0349999999999592 0.0209167308680957 -0.0349999999999589 -0.0341829114507729 0.0349999999999592 -0.0338341793276436 2.65110988717511e-13 -0.0334854472048444 -0.0349999999999589 -0.00628435816868627 -0.0349999999999589 4 5 6 1 3 4 1 6 2 1 4 6 

TShapes 6
Ve
0.00724753242825683
-4.664809912881 -2.534114954347 -1.288965032181
0 0

0101101
*
Ve
0.00501962046163797
-4.614985626233 -2.484944291629 -1.289495158606
0 0

0101101
*
Ed
 0.00303627755273625 1 1 0
1  1 0 0 0.0700035330975223
2  1 2 0 0 0.0700035330975223
2  2 1 0 0 0.0700035330975223
4 C0 2 0 1 0
6  1 1 0
0

0101000
-6 0 +5 0 *
Ed
 0.00198930343319509 1 1 0
1  2 0 0 1
2  3 1 0 0 1
4 C0 1 0 3 0
6  2 2 0
0

0101000
+5 0 -6 0 *
Wi

0101100
-4 0 +3 0 *
Fa
0  1e-07 1 0

0111000
+2 0 *

-1 0 