DBRep_DrawableShape

CASCADE Topology V3, (c) Open Cascade
Locations 0
Curve2ds 3
7 0 0  1 2 2  2.8096338564981664 0.0043251650350553117  2.805243788675575 0.074325165035040497 
 0 2 0.070000413603697895 2
7 0 0  1 2 2  2.8096338564981664 0.0043251650350553117  2.805243788675575 0.074325165035040497 
 0 2 0.070000413603697895 2
7 0 0  1 2 2  6.3267469865314414 0.074325165035254992  6.3318127351734637 0.0043251650352702509 
 0 2 0.070000413603697895 2
Curves 2
1 -0.2284557256609 2.8283856435220001 -1.288965032181 0.70735035937795476 0.70685484698765477 0.0034197043640487815 
1 -0.2284557256609 2.8283856435220001 -1.288965032181 0.70735035937795476 0.70685484698765477 0.0034197043640487815 
Polygon3D 0
PolygonOnTriangulations 2
3 1 4 5 
p 0.0166666666666667 1 0 0.0233334712012326 0.0700004136036979 
3 7 8 3 
p 0.0166666666666667 1 0 0.0233334712012326 0.0700004136036979 
Surfaces 3
2 -0.26469096380200002 2.8585041746109998 -1.3051387818939999 0.70710678118629755 0.70710678118679759 0 -0.70710678118679759 0.70710678118629755 0 0 -0 1 0.050000000000189997
1 -0.21567066949880001 2.8650980620430002 -1.2600000000080001 0.5883484054148862 -0.58834840541378619 0.55470019622568711 0.39223227027669194 -0.39223227027669194 -0.83205029433753841 0.70710678118608994 0.70710678118700521 -4.3147052544327362e-13 
2 -0.20907678206640001 2.914118356346 -1.291010205152 -0.70710678118679759 -0.70710678118629755 0 0.70710678118629755 -0.70710678118679759 0 0 0 1 0.04999999999976
Triangulations 2
6 4 1 0 0.00164071494734063
-0.2284557256609 2.828385643522 -1.288965032181 -0.23853967466815 2.8384695925295 -1.26578063005688 -0.2486236236754 2.848553541537 -1.242596227932 -0.211950786421173 2.84487902073764 -1.2888852386077 -0.1789409079418 2.877865775169 -1.288725651462 -0.1991261489923 2.89805101622 -1.242596227932 0.0334854472048053 -0.0350000000000281 0.00628435816835315 -0.034999999999852 -0.0209167308687232 -0.0349999999996759 0.0334235899376162 -0.0116666666666999 0.0332998754039199 0.0350000000001049 -0.020916730868581 0.0350000000003124 6 3 2 4 2 1 4 6 2 5 6 4 
12 10 1 0 0.00634153961753626
-0.2404194068402 2.840349324702 -1.331010205152 -0.1883996840046 2.887324551232 -1.327916992577 -0.1789409079418 2.877865775169 -1.288725651462 -0.179172070704372 2.87809693793151 -1.29828668899081 -0.17910473319484 2.87802960042233 -1.30984925248016 -0.181000467308578 2.87992533453605 -1.31575188409014 -0.2284557256609 2.828385643522 -1.288965032181 -0.211950786421173 2.84487902073764 -1.2888852386077 -0.231974371320614 2.83190428918207 -1.31918361534778 -0.229827069412176 2.82975698727383 -1.31422507612502 -0.228813797752653 2.8287437156141 -1.30294073285896 -0.228769136780528 2.8286990546417 -1.29438189616559 5.40310822333135 0.0743251650352603 5.4504320455764 0.00432516503513014 6.33181273517346 0.00432516503527025 6.19960563171801 0.00432516503524621 6.008005122695 0.00432516503521653 5.82501883864721 0.00432516503518818 6.32674698653144 0.074325165035255 6.32843556941212 0.0509918317019267 5.81361434030917 0.0743251650352579 5.95044971263511 0.0743251650352572 6.13859834958327 0.0743251650352561 6.25311197199674 0.0743251650352554 9 1 2 9 2 6 10 6 5 10 9 6 11 5 4 11 10 5 12 11 4 8 4 3 8 12 4 7 12 8 

TShapes 6
Ve
0.0072475324282034
-0.2284557256609 2.828385643522 -1.288965032181
0 0

0101101
*
Ve
0.00556240310518931
-0.1789409079418 2.877865775169 -1.288725651462
0 0

0101101
*
Ed
 0.0019893034332792 1 1 0
1  1 0 0 0.0700004136036979
2  1 1 0 0 0.0700004136036979
4 C0 2 0 1 0
6  1 1 0
0

0101000
+6 0 -5 0 *
Ed
 0.0030362775525955 1 1 0
1  2 0 0 0.0700004136036979
2  2 1 0 0 0.0700004136036979
2  3 3 0 0 0.0700004136036979
4 C0 1 0 3 0
6  2 2 0
0

0101000
+6 0 -5 0 *
Wi

0101100
-4 0 +3 0 *
Fa
0  1e-07 1 0

0111000
+2 0 *

-1 0 