DBRep_DrawableShape

CASCADE Topology V3, (c) Open Cascade
Locations 0
Curve2ds 3
7 0 0  1 2 2  2.8096338564976913 0.0043251650350011328  2.8052437886767869 0.07432516503491593 
 0 2 0.070000413603627243 2
7 0 0  1 2 2  2.8096338564976913 0.0043251650350011328  2.8052437886767909 0.07432516503491593 
 0 2 0.070000413603627243 2
7 0 0  1 2 2  6.3267469865304831 0.07432516503562514  6.3318127351698728 0.0043251650357103433 
 0 2 0.070000413603627243 2
Curves 2
1 1.728455725661 -2.8283856435220001 -1.288965032181 -0.70735035937730906 -0.70685484698830914 0.0034197043623320437 
1 1.728455725661 -2.8283856435220001 -1.288965032181 -0.70735035937730906 -0.70685484698830914 0.0034197043623290439 
Polygon3D 0
PolygonOnTriangulations 2
3 4 5 3 
p 0.0166666666666667 1 0 0.0233334712012091 0.0700004136036272 
3 7 8 3 
p 0.0166666666666667 1 0 0.0233334712012091 0.0700004136036272 
Surfaces 3
2 1.7646909638020001 -2.8585041746109998 -1.3051387818939999 -0.70710678118654757 -0.70710678118654757 0 0.70710678118654757 -0.70710678118654757 0 0 0 1 0.050000000000239998
1 1.715670669499 -2.8650980620439999 -1.2600000000080001 0.58834840541432087 -0.58834840541432087 -0.55470019622571975 -0.39223227027671498 0.39223227027671498 -0.83205029433751665 0.70710678118654757 0.70710678118654757 -8.1524687095804742e-18 
2 1.7090767820670001 -2.9141183563470001 -1.291010205152 0.70710678118654757 0.70710678118654757 0 -0.70710678118654757 0.70710678118654757 0 0 -0 1 0.04999999999989
Triangulations 2
6 4 1 0 0.0016407149467112
1.748623623675 -2.848553541537 -1.242596227932 1.699126148993 -2.89805101622 -1.242596227932 1.678940907942 -2.877865775169 -1.288725651462 1.728455725661 -2.828385643522 -1.288965032181 1.7119507864213 -2.84487902073764 -1.28888523860774 1.738539674668 -2.83846959252987 -1.26578063005688 -0.0209167308680958 0.0349999999999584 -0.0209167308684678 -0.034999999999959 0.0332998754037335 -0.0349999999992492 0.0334854472052366 0.0350000000006659 0.0334235899380689 0.0116666666673609 0.00628435816873538 0.035000000000047 6 1 2 5 2 3 5 6 2 4 6 5 
12 10 1 0 0.00634153961738725
1.740419406841 -2.840349324702 -1.331010205152 1.688399684005 -2.887324551232 -1.327916992577 1.678940907942 -2.877865775169 -1.288725651462 1.67917207070427 -2.87809693793212 -1.29828668899081 1.67910473319451 -2.87802960042273 -1.30984925248019 1.68100046730815 -2.87992533453662 -1.31575188409014 1.728455725661 -2.828385643522 -1.288965032181 1.7119507864213 -2.84487902073764 -1.28888523860774 1.73197437132063 -2.83190428918262 -1.31918361534778 1.72982706941225 -2.82975698727413 -1.31422507612502 1.72881379775275 -2.82874371561414 -1.30294073285896 1.72876913678063 -2.8286990546417 -1.29438189616552 5.40310822333641 0.0743251650349182 5.45043204558896 0.00432516503570779 6.33181273516987 0.00432516503571034 6.19960563171902 0.0043251650357076 6.00800512269835 0.00432516503570765 5.82501883865399 0.0043251650357077 6.32674698653048 0.0743251650356251 6.32843556941028 0.0509918317023202 5.81361434031155 0.0743251650352324 5.9504497126366 0.0743251650353371 6.13859834958354 0.0743251650354811 6.25311197199714 0.0743251650355688 9 1 2 9 2 6 10 6 5 10 9 6 11 5 4 11 10 5 12 11 4 8 4 3 8 12 4 7 12 8 

TShapes 6
Ve
0.00724753242801082
1.728455725661 -2.828385643522 -1.288965032181
0 0

0101101
*
Ve
0.00556240310503862
1.678940907942 -2.877865775169 -1.288725651462
0 0

0101101
*
Ed
 0.0019893034326063 1 1 0
1  1 0 0 0.0700004136036272
2  1 1 0 0 0.0700004136036272
4 C0 2 0 1 0
6  1 1 0
0

0101000
+6 0 -5 0 *
Ed
 0.00303627755169192 1 1 0
1  2 0 0 0.0700004136036272
2  2 1 0 0 0.0700004136036272
2  3 3 0 0 0.0700004136036272
4 C0 1 0 3 0
6  2 2 0
0

0101000
+6 0 -5 0 *
Wi

0101100
-4 0 +3 0 *
Fa
0  1e-07 1 0

0111000
+2 0 *

-1 0 