DBRep_DrawableShape

CASCADE Topology V3, (c) Open Cascade
Locations 0
Curve2ds 6
1 0 0.67479999999999984 1 0 
1 3.1432736401874832 -4.0350000000000001 1 0 
1 1.4600235444291658 0.67479999999999984 1 0 
1 1.783798694697023 0.67479999999999984 -1 0 
1 0 0.67479999999999984 1 0 
1 1.8656883698697502 0.67479999999999984 -1 0 
Curves 6
2 -0.96445295591799995 0.52899007157199995 2.0699999999999998 0 0 1 0.39075426458108947 0.92049503242097508 -0 -0.92049503242097508 0.39075426458108947 0 0.29999999999999999
2 0 0 2.0699999999999998 0 0 -1 -0.87677541446571494 0.48090006507430821 0 0.48090006507430821 0.87677541446571494 0 1.3999999999999999
2 0.94702493241800001 0.55959251011699995 2.0699999999999998 0 0 1 0.86093175677922062 0.50872046368221224 -0 -0.50872046368221224 0.86093175677922062 0 0.29999999999999999
2 0.69112088195300003 1.2111392213800001 2.0699999999999998 0 0 -1 0.3655772141563926 -0.93078101639948119 0 -0.93078101639948119 -0.3655772141563926 -0 0.40000000000000002
2 0.00264416635036 1.09914968014 2.0699999999999998 0 0 1 0.98702728422552655 0.1605526088059043 -0 -0.1605526088059043 0.98702728422552655 0 0.297525515859
2 -0.69092497013300003 1.17333659402 2.0699999999999998 0 0 -1 0.99432797903036851 -0.10635727580839663 0 -0.1063572758083966 -0.99432797903036829 -0 0.40000000000000002
Polygon3D 0
PolygonOnTriangulations 6
20 5 6 7 8 9 10 11 12 13 14 15 16 17 18 19 20 21 22 23 4 
p 0.05 1 0 0.07739822117819 0.15479644235638 0.23219466353457 0.30959288471276 0.38699110589095 0.46438932706914 0.54178754824733 0.61918576942552 0.69658399060371 0.7739822117819 0.85138043296009 0.92877865413828 1.00617687531647 1.08357509649466 1.16097331767285 1.23837153885104 1.31576976002923 1.39316798120742 1.47056620238561 
28 1 2 3 4 5 6 7 8 9 10 11 12 13 14 15 16 17 18 19 20 21 22 23 24 25 26 27 28 
p 0.05 1 0 0.0780079167808368 0.156015833561674 0.23402375034251 0.312031667123347 0.390039583904184 0.468047500685021 0.546055417465857 0.624063334246694 0.702071251027531 0.780079167808368 0.858087084589204 0.936095001370041 1.01410291815088 1.09211083493171 1.17011875171255 1.24812666849339 1.32613458527422 1.40414250205506 1.4821504188359 1.56015833561674 1.63816625239757 1.71617416917841 1.79418208595925 1.87219000274008 1.95019791952092 2.02820583630176 2.10621375308259 
19 20 87 88 89 90 91 92 93 94 95 96 97 98 99 100 101 102 103 86 
p 0.05 1 0 0.0784084045625802 0.15681680912516 0.235225213687741 0.313633618250321 0.392042022812901 0.470450427375481 0.548858831938062 0.627267236500642 0.705675641063222 0.784084045625802 0.862492450188383 0.940900854750963 1.01930925931354 1.09771766387612 1.1761260684387 1.25453447300128 1.33294287756386 1.41135128212644 
24 30 31 32 33 34 35 36 37 38 39 40 41 42 43 44 45 46 47 48 49 50 51 52 53 
p 0.05 1 0 0.0775564649886565 0.155112929977313 0.23266939496597 0.310225859954626 0.387782324943283 0.465338789931939 0.542895254920596 0.620451719909252 0.698008184897909 0.775564649886565 0.853121114875222 0.930677579863878 1.00823404485253 1.08579050984119 1.16334697482985 1.2409034398185 1.31845990480716 1.39601636979582 1.47357283478447 1.55112929977313 1.62868576476179 1.70624222975044 1.7837986947391 
37 1 2 3 4 5 6 7 8 9 10 11 12 13 14 15 16 17 18 19 20 21 22 23 24 25 26 27 28 29 30 31 32 33 34 35 36 37 
p 0.05 1 0 0.0798273148191507 0.159654629638301 0.239481944457452 0.319309259276603 0.399136574095754 0.478963888914904 0.558791203734055 0.638618518553206 0.718445833372356 0.798273148191507 0.878100463010658 0.957927777829809 1.03775509264896 1.11758240746811 1.19740972228726 1.27723703710641 1.35706435192556 1.43689166674471 1.51671898156386 1.59654629638301 1.67637361120216 1.75620092602131 1.83602824084047 1.91585555565962 1.99568287047877 2.07551018529792 2.15533750011707 2.23516481493622 2.31499212975537 2.39481944457452 2.47464675939367 2.55447407421282 2.63430138903197 2.71412870385112 2.79395601867027 2.87378333348943 
25 29 30 31 32 33 34 35 36 37 38 39 40 41 42 43 44 45 46 47 48 49 50 51 52 53 
p 0.05 1 0 0.0777370154393914 0.155474030878783 0.233211046318174 0.310948061757566 0.388685077196957 0.466422092636349 0.54415910807574 0.621896123515132 0.699633138954523 0.777370154393915 0.855107169833306 0.932844185272698 1.01058120071209 1.08831821615148 1.16605523159087 1.24379224703026 1.32152926246965 1.39926627790905 1.47700329334844 1.55474030878783 1.63247732422722 1.71021433966661 1.787951355106 1.86568837054539 
Surfaces 7
1 1.3999999999999999 0 2.0699999999999998 0 0 -1 1 0 0 0 -1 0 
2 -0.96445295591799995 0.52899007157199995 1.3952 0 0 1 0.39075426540591418 0.92049503207083327 -0 -0.92049503207083327 0.39075426540591418 0 0.29999999999999999
2 0 0 -1.9650000000000001 0 0 -1 0.87758256189038031 -0.47942553860418924 0 -0.47942553860418924 -0.87758256189038031 -0 1.3999999999999999
2 0.94702493241800001 0.55959251011699995 1.3952 0 0 1 0.60077538779010464 -0.79941787159510613 0 0.79941787159510613 0.60077538779010464 -0 0.29999999999999999
2 0.69112088195300003 1.2111392213800001 1.3952 0 0 1 -0.98702728423478314 -0.16055260874899724 0 0.16055260874899727 -0.98702728423478325 0 0.40000000000000002
2 0.00264416635036 1.09914968014 1.3952 0 0 1 0.98702728423478314 0.16055260874899724 -0 -0.16055260874899727 0.98702728423478325 0 0.297525515859
2 -0.69092497013300003 1.17333659402 1.3952 0 0 1 -0.39075426540591418 -0.92049503207083327 0 0.92049503207083327 -0.39075426540591418 0 0.40000000000000002
Triangulations 6
85 83 1 0 0.00039941715688004
-1.228609200599 0.6711923162666 2.07 -1.22823646320559 0.671882553120398 2.07 -1.22786192223649 0.672571812970496 2.07 -1.227485580252 0.6732600911041 2.07 -0.8472266765437 0.8051385812983 2.07 -0.868929692726733 0.813375911917985 2.07 -0.891204653946313 0.819910483812641 2.07 -0.913918188989136 0.824703171267372 2.07 -0.936934300683458 0.827725278091222 2.07 -0.960115180181426 0.828958709435459 2.07 -0.983322032088828 0.82839608013639 2.07 -1.00641590550179 0.826040758933986 2.07 -1.02925852597457 0.821906848301574 2.07 -1.05171312343709 0.816019100007348 2.07 -1.07364525110503 0.808412766913287 2.07 -1.09492359047917 0.799133391898831 2.07 -1.11542073761432 0.788236535173132 2.07 -1.13501396594967 0.775787441608585 2.07 -1.15358596113352 0.761860650087507 2.07 -1.17102552344225 0.746539547200965 2.07 -1.18722823358818 0.729915867972003 2.07 -1.20209707792941 0.71208914659267 2.07 -1.21554302933858 0.693166120463571 2.07 -0.847226676303 0.8051385811955 1.215841944122 -0.868990294185821 0.813326385370529 1.2236518768306 -0.89074950726441 0.819635908097275 1.23102207783939 -0.912127233332316 0.824245306291302 1.23790130546697 -0.932746527760366 0.827332702536052 1.24423834761435 -0.952440709497806 0.829023748576441 1.25002720394049 -0.971677127390385 0.829285875315855 1.25539820587608 -0.991042161693474 0.828056809617066 1.26050727948557 -1.01112076627451 0.8252744454437 1.26551000090463 -1.03215294859052 0.820917087113665 1.27047732225438 -1.05358706758565 0.815055780298013 1.27528598440096 -1.0747608677914 0.807774529108501 1.27978559171804 -1.09501520802936 0.799157293855949 1.28382653060186 -1.11396409988713 0.789284193094117 1.28732777824141 -1.13170382630503 0.778228562471348 1.29032941392865 -1.14837989376746 0.766063045331452 1.29288387737185 -1.16413595666187 0.752859024436022 1.29504298266312 -1.17903432678905 0.738632518804084 1.29683106734075 -1.19302590235472 0.723323716652526 1.29823483476203 -1.20605352807361 0.70686732479645 1.29923826791121 -1.21805889741814 0.689202226772609 1.29982538045722 -1.22895382062669 0.670375722866395 1.2999809825625 -1.23861820112724 0.650550871672128 1.29969073481839 -1.24693038584544 0.629896378794193 1.29894033930253 -1.25376893059567 0.608575576277839 1.29771499561011 -1.25856612146197 0.588879188648643 1.29618705013262 -1.26171208354937 0.570739465980202 1.2944485597282 -1.2636848809102 0.552205466219348 1.29234899453501 -1.26442346129959 0.53327425913947 1.28987209819604 -1.26389215011446 0.513993917254432 1.2870143129654 -1.26215874085604 0.494620458201825 1.28382385506551 -1.25931739283631 0.475462888333181 1.2803621337956 -1.25546226537392 0.456830214013448 1.27669055845828 -1.25068741522482 0.439031015348901 1.2728704519657 -1.24505515790677 0.422241953372481 1.26893640101302 -1.2385513050537 0.40632173298055 1.26485855169513 -1.23115037424984 0.391082120113792 1.26059753692532 -1.22282688307941 0.37633488071289 1.25611398961686 -1.21355576435561 0.361894179789394 1.25136899001785 -1.2033338772846 0.347700866603088 1.2463472401361 -1.19219045224879 0.333882821546961 1.24106831612166 -1.18015732371489 0.320582970647264 1.23555459955883 -1.17076803675842 0.311224730114143 1.23136701681263 -1.160928302953 0.3022800408993 1.227073652328 -1.160928302954 0.3022800408994 2.07 -1.264452955918 0.528990071572 2.07 -1.26354353142969 0.505648528347847 2.07 -1.26082077165077 0.48244850093038 2.07 -1.25630118421068 0.459530647140019 2.07 -1.25001217059941 0.437033914026472 2.07 -1.24199186003684 0.41509469545641 2.07 -1.23228887830185 0.393846005180645 2.07 -1.22096205292243 0.373416670394386 2.07 -1.20808005651441 0.353930550679862 2.07 -1.19372099043108 0.335505787066744 2.07 -1.17797191124792 0.318254085763171 2.07 -1.23797588686423 0.652218340433428 2.07 -1.24598181083166 0.632631298171289 2.07 -1.2525871379952 0.612528644211835 2.07 -1.25775900706924 0.592010388598064 2.07 -1.26147168817504 0.57117860897755 2.07 -1.26370671084608 0.5501369427695 2.07 1.47841065727767 0.6748 1.47579586411244 0.6748 1.47318103369706 0.6748 1.47056620238561 0.6748 0 0.6748 0.07739822117819 0.6748 0.15479644235638 0.6748 0.23219466353457 0.6748 0.30959288471276 0.6748 0.38699110589095 0.6748 0.46438932706914 0.6748 0.54178754824733 0.6748 0.61918576942552 0.6748 0.69658399060371 0.6748 0.7739822117819 0.6748 0.85138043296009 0.6748 0.92877865413828 0.6748 1.00617687531647 0.6748 1.08357509649466 0.6748 1.16097331767285 0.6748 1.23837153885104 0.6748 1.31576976002923 0.6748 1.39316798120742 0.6748 0 -0.179358055878 0.0775383051032181 -0.171548113519605 0.153099374218171 -0.164178003304302 0.226057253438447 -0.157298239189166 0.295550778225054 -0.150963111234801 0.361440656641348 -0.145172471077501 0.425503242955156 -0.139801772354775 0.490122474171313 -0.134692901819796 0.557676741136605 -0.129690056907599 0.629331667581731 -0.124722546455811 0.703501379862469 -0.119914131148289 0.778226915382191 -0.115414023613261 0.851611784960843 -0.111374230767782 0.922830925722572 -0.10787206959815 0.992480094495907 -0.104870577360087 1.06127543370487 -0.102316196382263 1.12980817253833 -0.100157048470507 1.19849086785709 -0.0983688964378416 1.26763458212507 -0.0969651786376793 1.33760733745442 -0.0959617284850385 1.40881834635803 -0.0953746195869665 1.48135288938584 -0.0952190205638855 1.55490740361518 -0.0955092548689146 1.62915641769111 -0.0962596806058181 1.70380539001899 -0.0974850121871615 1.77136738567672 -0.0990129511622006 1.83271215000031 -0.100751447505842 1.89481779890859 -0.102850912461608 1.9579717234708 -0.105328341646657 2.02228384330584 -0.108185477630011 2.08718816876273 -0.111376246210486 2.15182099310843 -0.114837729975468 2.21531507084287 -0.118509829887577 2.27674419706806 -0.122328794009539 2.33576887175544 -0.126263789687928 2.39304826029377 -0.130341429602485 2.44947661788504 -0.134602424334209 2.50589733114168 -0.139086023346999 2.563102576325 -0.143831184221701 2.62142468108269 -0.148852652643114 2.68063052291053 -0.154131729422577 2.74043973361047 -0.159645384337595 2.78464109696208 -0.163832988433338 2.8289696436386 -0.168126347672 2.82896964363553 0.6748 1.97224718991718 0.6748 2.05013104934612 0.6748 2.12801490877506 0.6748 2.205898768204 0.6748 2.28378262763294 0.6748 2.36166648706188 0.6748 2.43955034649082 0.6748 2.51743420591977 0.6748 2.59531806534871 0.6748 2.67320192477765 0.6748 2.75108578420659 0.6748 1.54895873336903 0.6748 1.61950680946039 0.6748 1.69005488555174 0.6748 1.7606029616431 0.6748 1.83115103773446 0.6748 1.90169911382582 0.6748 5 24 25 6 25 26 6 5 25 7 26 27 7 6 26 8 7 27 8 27 28 9 8 28 9 28 29 10 9 29 10 29 30 11 10 30 11 30 31 12 11 31 12 31 32 13 12 32 13 32 33 14 13 33 14 33 34 15 14 34 15 34 35 16 35 36 16 15 35 16 36 37 17 37 38 17 16 37 18 38 39 18 17 38 19 39 40 19 18 39 20 40 41 20 19 40 21 41 42 21 20 41 22 42 43 22 21 42 23 43 44 23 22 43 4 44 45 4 23 44 3 4 45 2 3 45 1 2 45 80 45 46 80 1 45 81 46 47 81 80 46 82 47 48 82 81 47 83 48 49 83 82 48 84 49 50 84 50 51 84 83 49 85 51 52 85 84 51 69 85 52 69 52 53 70 69 53 70 53 54 71 70 54 71 54 55 72 71 55 72 55 56 73 72 56 73 56 57 73 57 58 74 73 58 74 58 59 75 74 59 75 59 60 76 75 60 76 60 61 76 61 62 77 76 62 77 62 63 78 77 63 78 63 64 78 64 65 79 78 65 79 65 66 68 79 66 68 66 67 
85 83 1 0 0.00107934926291014
-1.227485580252 0.6732600911041 2.07 -1.17128633696309 0.766869165401499 2.07 -1.10796315463694 0.855814026507492 2.07 -1.03790117435844 0.939553698446965 2.07 -0.961526523591548 1.01757886398547 2.07 -0.879303724408178 1.08941496237288 2.07 -0.791732868195353 1.15462507569304 2.07 -0.699346574024441 1.21281258626396 2.07 -0.60270674918214 1.26362358892603 2.07 -0.502401171566152 1.30674904354622 2.07 -0.399039914731917 1.3419266546465 2.07 -0.293251637333825 1.36894246672423 2.07 -0.185679759529061 1.38763216556162 2.07 -0.0769785495997853 1.39788207760938 2.07 0.0321908554046121 1.39962986136633 2.07 0.141164470802129 1.39286488654972 2.07 0.249279502732493 1.37762829875023 2.07 0.355878379368752 1.35401276917829 2.07 0.460312750367673 1.32216193102394 2.07 0.561947430233694 1.28226950585817 2.07 0.660164261612302 1.23457812538935 2.07 0.754365875015702 1.17937785574081 2.07 0.84397932211357 1.11700443322519 2.07 0.928459560490662 1.04783722234586 2.07 1.00729276867646 0.972296908445206 2.07 1.07999947128438 0.890842939033281 2.07 1.14613745525291 0.803970729359217 2.07 1.205304459452 0.7122086492216 2.07 -1.228609200599 0.6711923162666 2.07 -1.22823646320559 0.671882553120398 2.07 -1.22786192223649 0.672571812970496 2.07 -1.228615586647 0.6711957540445 2.2 1.228615586647 -0.6711957540446 2.2 1.27748958674202 -0.572730613609662 2.2 1.31848743872616 -0.470734398489565 2.2 1.35135637720899 -0.365835949267709 2.2 1.37589375425472 -0.258681999765818 2.2 1.39194828877438 -0.149933189714878 2.2 1.39942099922397 -0.0402599916915004 2.2 1.39826581385863 0.0696614225684609 2.2 1.38848985478029 0.179153350993514 2.2 1.3701533940275 0.287540739435158 2.2 1.34336948197829 0.394155343601185 2.2 1.30830325035701 0.498339849003959 2.2 1.26517089414229 0.599451923522807 2.2 1.21423833865317 0.696868177595146 2.2 1.15581960003104 0.789988007620425 2.2 1.09027484922569 0.878237298881055 2.2 1.01800819142169 0.961071965150546 2.2 0.939465174595504 1.03798130316602 2.2 0.855130042564061 1.10849114128368 2.2 0.765522749460616 1.1721667629046 2.2 0.6711957540446 1.22861558664722 2.2 0.572730613609662 1.27748958674202 2.2 0.470734398489565 1.31848743872616 2.2 0.365835949267709 1.35135637720899 2.2 0.258681999765818 1.37589375425472 2.2 0.149933189714878 1.39194828877438 2.2 0.0402599916915004 1.39942099922397 2.2 -0.0696614225684609 1.39826581385863 2.2 -0.179153350993514 1.38848985478029 2.2 -0.287540739435158 1.3701533940275 2.2 -0.394155343601185 1.34336948197829 2.2 -0.498339849003959 1.30830325035701 2.2 -0.599451923522807 1.26517089414229 2.2 -0.696868177595145 1.21423833865317 2.2 -0.789988007620425 1.15581960003104 2.2 -0.878237298881055 1.09027484922569 2.2 -0.961071965150546 1.01800819142169 2.2 -1.03798130316602 0.939465174595504 2.2 -1.10849114128368 0.855130042564061 2.2 -1.1721667629046 0.765522749460616 2.2 1.228615586647 -0.6711957540454 2.07 1.25806786723192 0.614219212853632 2.07 1.30288111613788 0.512348316295959 2.07 1.33946101599693 0.407239716413391 2.07 1.36757640597643 0.299557630209265 2.07 1.3870496153615 0.18998253742255 2.07 1.39775758631675 0.0792068803448617 2.07 1.39963265153059 -0.0320693119579662 2.07 1.39266296182797 -0.143142847367717 2.07 1.37689256104941 -0.253311814424033 2.07 1.35242110772292 -0.361880017941736 2.07 1.3194032452879 -0.468161378505073 2.07 1.2780476248506 -0.571484268036959 2.07 3.14327364018753 -4.035 3.22128155696832 -4.035 3.29928947374916 -4.035 3.37729739052999 -4.035 3.45530530731083 -4.035 3.53331322409167 -4.035 3.6113211408725 -4.035 3.68932905765334 -4.035 3.76733697443418 -4.035 3.84534489121501 -4.035 3.92335280799585 -4.035 4.00136072477669 -4.035 4.07936864155752 -4.035 4.15737655833836 -4.035 4.2353844751192 -4.035 4.31339239190003 -4.035 4.39140030868087 -4.035 4.46940822546171 -4.035 4.54741614224254 -4.035 4.62542405902338 -4.035 4.70343197580422 -4.035 4.78143989258506 -4.035 4.85944780936589 -4.035 4.93745572614673 -4.035 5.01546364292756 -4.035 5.0934715597084 -4.035 5.17147947648924 -4.035 5.24948739326136 -4.035 3.14159267055132 -4.03499999987672 3.14215300374121 -4.035 3.14271332196437 -4.035 3.14159265358979 -4.165 6.28318530717959 -4.165 6.20464549083984 -4.165 6.1261056745001 -4.165 6.04756585816035 -4.165 5.96902604182061 -4.165 5.89048622548086 -4.165 5.81194640914112 -4.165 5.73340659280137 -4.165 5.65486677646163 -4.165 5.57632696012188 -4.165 5.49778714378214 -4.165 5.41924732744239 -4.165 5.34070751110265 -4.165 5.2621676947629 -4.165 5.18362787842316 -4.165 5.10508806208341 -4.165 5.02654824574367 -4.165 4.94800842940392 -4.165 4.86946861306418 -4.165 4.79092879672443 -4.165 4.71238898038469 -4.165 4.63384916404494 -4.165 4.5553093477052 -4.165 4.47676953136546 -4.165 4.39822971502571 -4.165 4.31968989868597 -4.165 4.24115008234622 -4.165 4.16261026600648 -4.165 4.08407044966673 -4.165 4.00553063332699 -4.165 3.92699081698724 -4.165 3.8484510006475 -4.165 3.76991118430775 -4.165 3.69137136796801 -4.165 3.61283155162826 -4.165 3.53429173528852 -4.165 3.45575191894877 -4.165 3.37721210260903 -4.165 3.29867228626928 -4.165 3.22013246992954 -4.165 6.28318530717913 -4.035 5.32900261740888 -4.035 5.4085178415564 -4.035 5.48803306570393 -4.035 5.56754828985145 -4.035 5.64706351399897 -4.035 5.72657873814649 -4.035 5.80609396229401 -4.035 5.88560918644153 -4.035 5.96512441058905 -4.035 6.04463963473657 -4.035 6.12415485888409 -4.035 6.20367008303161 -4.035 30 29 32 31 30 32 1 32 72 1 31 32 2 72 71 2 1 72 3 2 71 3 71 70 4 3 70 5 4 70 5 70 69 6 5 69 6 69 68 7 6 68 7 68 67 8 7 67 8 67 66 9 8 66 9 66 65 10 9 65 10 65 64 11 10 64 11 64 63 12 11 63 12 63 62 13 12 62 13 62 61 14 13 61 14 61 60 15 14 60 15 60 59 16 15 59 16 59 58 17 58 57 17 16 58 18 57 56 18 17 57 19 56 55 19 18 56 20 55 54 20 19 55 21 54 53 21 20 54 22 53 52 22 21 53 23 52 51 23 22 52 24 51 50 24 23 51 25 50 49 25 24 50 26 49 48 26 25 49 27 48 47 27 26 48 28 27 47 28 47 46 74 28 46 74 46 45 75 74 45 75 45 44 76 75 44 76 44 43 77 76 43 77 43 42 78 77 42 78 42 41 79 78 41 79 41 40 80 79 40 80 40 39 81 80 39 81 39 38 82 81 38 82 38 37 83 37 36 83 82 37 84 36 35 84 83 36 85 35 34 85 84 35 73 34 33 73 85 34 
103 101 1 0 0.000221406496574542
1.127257548817 0.3197671486854 2.07 1.14513653418536 0.33431092355216 2.07 1.16184626596887 0.350184309104177 2.07 1.17728812342289 0.367293620707198 2.07 1.19137096878965 0.385537879298212 2.07 1.20401168519321 0.404809407363328 2.07 1.21513566719486 0.424994464449864 2.07 1.22467726111399 0.445973918461877 2.07 1.23258015251575 0.467623948777137 2.07 1.23879769857854 0.489816777035762 2.07 1.24329320337969 0.51242142128739 2.07 1.24604013447457 0.535304469045932 2.07 1.24702227949096 0.558330864689335 2.07 1.24623384181438 0.581364706557116 2.07 1.24367947479967 0.604270049041215 2.07 1.23937425430688 0.62691170493623 2.07 1.23334358972372 0.649156043313559 2.07 1.22562307399938 0.670871778210402 2.07 1.21625827357522 0.691930743478796 2.07 1.205304459452 0.7122086492216 2.07 1.127257548763 0.3197671486446 1.216917977317 1.14632341843739 0.335361062316006 1.22515749412446 1.15764927286107 0.345963808663114 1.23020489471343 1.16838245660517 0.357105453530966 1.23511765471844 1.17741732175886 0.367447643603886 1.23937046749014 1.18595273895591 0.378170933628767 1.2435074250696 1.19397561005385 0.389254184386799 1.24752463086327 1.20147259360493 0.400672942787266 1.25141765760061 1.20842991577175 0.412396866495011 1.25518113491902 1.21483375821723 0.424395007079775 1.25880959539699 1.22067149004522 0.436637487073859 1.26229805385192 1.22593668973986 0.449100029299993 1.26564404683075 1.23062495868794 0.46176018105319 1.2688459324138 1.23473191073278 0.474595374394556 1.27190204608941 1.23825337796483 0.487580806966836 1.27481028041516 1.24118538927005 0.500689661616343 1.27756812855371 1.24352398496301 0.513895046989092 1.28017306992273 1.24526665537249 0.527169395575787 1.28262276893947 1.24641442980184 0.540483489609949 1.2849153415399 1.24696886732528 0.553807864287954 1.28704897125061 1.24693164899801 0.567114078575923 1.28902198473226 1.2463053668241 0.580381336908944 1.29083377756462 1.24509302481822 0.593592301670707 1.29248422878597 1.2432977036359 0.606729470744233 1.29397320518724 1.24092499362193 0.619769237596808 1.29530008172117 1.23798353556378 0.632680575984049 1.2964636355278 1.23448215423465 0.64543201244381 1.29746260771386 1.23042912231154 0.657995644128815 1.29829602271443 1.22583083277209 0.670355724919098 1.29896386960108 1.22069327891589 0.682499093563857 1.29946634255485 1.21502292160978 0.694411810171068 1.29980360851193 1.20883135743656 0.706071382324721 1.29997553515431 1.20213335934894 0.717450027989912 1.29998180507931 1.19494373726735 0.728519947367946 1.29982210176361 1.18727658183619 0.739257644143561 1.29949636569062 1.17914480006577 0.749646703774982 1.29900496027163 1.17056118866551 0.759671371659178 1.29834828832992 1.16153871170214 0.769315696151033 1.29752668943929 1.15209113606271 0.778562780386182 1.29654019976317 1.14223246907602 0.787395444410517 1.29538876459469 1.13197701635049 0.79579645893947 1.29407238090334 1.12134416215393 0.803747755530981 1.29259192594474 1.11035754155943 0.811230563373549 1.29094901376833 1.09904090914848 0.818226099908667 1.28914527907214 1.08741547274241 0.824717773293898 1.28718190055415 1.07549670480681 0.830693925224072 1.28505902999095 1.06329929346391 0.836143572084038 1.28277667872162 1.05083954524961 0.841055485696513 1.28033519988376 1.03814480403525 0.845416770007665 1.27773727762872 1.02524702097948 0.849213832746124 1.27498656913711 1.01217792863376 0.852433191352498 1.27208668625128 0.998962502365288 0.855064598781579 1.26903983771509 0.985618094237886 0.85710145822253 1.26584664932824 0.972161650078069 0.858537368381976 1.26250766265245 0.958614091821723 0.859366291316754 1.25902450629136 0.945008784138762 0.859583326142484 1.25540221060951 0.931381519063419 0.859183793795483 1.25164646959671 0.917767305406601 0.858163299856333 1.24776281856193 0.904193367536158 0.856520278980065 1.24375521568769 0.890682470930458 0.854254786301195 1.2396267157865 0.877257371258725 0.851366915974419 1.23538037984426 0.863943285252571 0.847857903925927 1.23102023612433 0.850769182270288 0.843730727054496 1.22655178779427 0.844035930803755 0.84136043013467 1.22420563360321 0.8373517679088 0.8388268149346 1.22183291584 0.8373517676161 0.8388268148189 2.07 1.19255680019022 0.731970298443349 2.07 1.17830041417689 0.750672732895798 2.07 1.16262290303821 0.76820103119044 2.07 1.1456206008292 0.784447486687033 2.07 1.12739798208677 0.799312269321758 2.07 1.10806701986207 0.81270403903589 2.07 1.08774649767638 0.824540507035699 2.07 1.06656127962867 0.83474894143477 2.07 1.04464154313948 0.843266614171726 2.07 1.02212197904603 0.850041186457154 2.07 0.999140963963527 0.855031030381277 2.07 0.975839709998375 0.858205484706172 2.07 0.952361397038083 0.859545043270762 2.07 0.928850292949677 0.859041474850887 2.07 0.905450867092772 0.856697873737944 2.07 0.882306902594534 0.85252864072531 2.07 0.859560612841345 0.846559394619363 2.07 0 0.6748 0.0768433444299046 0.6748 0.153686688859809 0.6748 0.230530033289714 0.6748 0.307373377719618 0.6748 0.384216722149523 0.6748 0.461060066579427 0.6748 0.537903411009332 0.6748 0.614746755439236 0.6748 0.691590099869141 0.6748 0.768433444299046 0.6748 0.84527678872895 0.6748 0.922120133158855 0.6748 0.998963477588759 0.6748 1.07580682201866 0.6748 1.15265016644857 0.6748 1.22949351087847 0.6748 1.30633685530838 0.6748 1.38318019973828 0.6748 1.46002354442917 0.6748 0 -0.178282022683 0.0821259069371213 -0.170042506404723 0.133846056084453 -0.164995105102889 0.185420247358508 -0.160082342435855 0.231200146710902 -0.155829532734443 0.276889214627996 -0.151692576281554 0.322500861826481 -0.147675365749425 0.368037874802744 -0.143782342361848 0.413484873280273 -0.140018864246334 0.45882272178431 -0.136390408247586 0.504036869365467 -0.132901946725547 0.549137705372705 -0.129555952638353 0.594142571998189 -0.126354068254984 0.639067170936299 -0.123297955179781 0.683919176436303 -0.120389719266681 0.72869879353591 -0.117631871424606 0.773405420795251 -0.115026931329649 0.818036695615576 -0.112577230828398 0.862585476497796 -0.110284658156615 0.907042171963781 -0.108151032596042 0.951400079989382 -0.106178014767352 0.99567694605578 -0.104366222036373 1.03990185162215 -0.102715773066155 1.08410310989761 -0.101226794860193 1.12828657081632 -0.0998999178360744 1.17243100061062 -0.0987363646834832 1.21651276248396 -0.0977373927423214 1.26052021996722 -0.0969039771230401 1.30448253424324 -0.096236130329296 1.34843744299166 -0.0957336564958931 1.39241886412217 -0.095396392118637 1.4364279363645 -0.0952244648419985 1.48044399552399 -0.0952181940672073 1.52444670412164 -0.0953778996231073 1.56843046175926 -0.0957036344152894 1.61241100411838 -0.0961950397422476 1.6564059805361 -0.0968517115158079 1.70043201495227 -0.0976733104363058 1.74450184868749 -0.0986598008514176 1.78862759347742 -0.0998112352197691 1.83282159559132 -0.101127616372455 1.87708235553534 -0.102608074584099 1.92139549685787 -0.104250986677504 1.96574667972906 -0.106054717249393 2.0101340380736 -0.108018099659495 2.0545810972714 -0.110140969279216 2.09911631165972 -0.112423327650039 2.14376333659575 -0.1148647999426 2.1885107709592 -0.117462721177798 2.23333189979399 -0.120213435425157 2.27820155433057 -0.123113315932986 2.32312123127245 -0.126160160846626 2.36812132555807 -0.129353351542565 2.41323455009711 -0.132692342153278 2.45848150341694 -0.136175492588947 2.50384255468209 -0.139797789301108 2.54929033686537 -0.143553524842505 2.59480239511281 -0.147437183764632 2.64038287167895 -0.151444784608683 2.68605173628138 -0.155573280464247 2.731829756587 -0.159819623725945 2.77772962874348 -0.164179764550604 2.82375195799608 -0.168648212029376 2.84754682678246 -0.170994366443873 2.87137482550645 -0.17336708416 2.87137482655561 0.6748 1.53843194899175 0.6748 1.61684035355433 0.6748 1.69524875811691 0.6748 1.77365716267949 0.6748 1.85206556724207 0.6748 1.93047397180465 0.6748 2.00888237636723 0.6748 2.08729078092981 0.6748 2.16569918549239 0.6748 2.24410759005497 0.6748 2.32251599461755 0.6748 2.40092439918013 0.6748 2.47933280374271 0.6748 2.55774120830529 0.6748 2.63614961286787 0.6748 2.71455801743045 0.6748 2.79296642199303 0.6748 2 1 21 2 21 22 2 22 23 3 2 23 3 23 24 4 3 24 4 24 25 4 25 26 5 4 26 5 26 27 5 27 28 6 28 29 6 5 28 7 29 30 7 30 31 7 6 29 8 31 32 8 32 33 8 7 31 9 33 34 9 8 33 10 34 35 10 35 36 10 9 34 11 36 37 11 37 38 11 10 36 12 38 39 12 11 38 13 39 40 13 40 41 13 12 39 14 41 42 14 42 43 14 13 41 15 43 44 15 44 45 15 14 43 16 45 46 16 15 45 17 46 47 17 47 48 17 16 46 18 48 49 18 49 50 18 17 48 19 18 50 19 50 51 19 51 52 20 19 52 20 52 53 87 20 53 87 53 54 87 54 55 88 87 55 88 55 56 88 56 57 89 88 57 89 57 58 89 58 59 90 89 59 90 59 60 90 60 61 91 90 61 91 61 62 92 91 62 92 62 63 92 63 64 93 92 64 93 64 65 93 65 66 94 93 66 94 66 67 94 67 68 95 94 68 95 68 69 96 95 69 96 69 70 96 70 71 97 96 71 97 71 72 97 72 73 98 73 74 98 74 75 98 97 73 99 75 76 99 98 75 100 76 77 100 77 78 100 99 76 101 78 79 101 79 80 101 100 78 102 80 81 102 101 80 103 81 82 103 82 83 103 102 81 86 103 83 86 83 84 86 84 85 
53 51 1 0 0.00030071257705231
0.2963099682594 1.146918177881 1.221592169085 0.302436565651842 1.11668042309686 1.2115229906494 0.310440547902276 1.08832011636599 1.20235784558509 0.320013773589525 1.06186825617492 1.19409971356428 0.33097501154697 1.03708713852522 1.18666715575541 0.34318798887101 1.01380068553723 1.18000375426356 0.3565550367775 0.991895797138482 1.17407871945513 0.371051064264408 0.971233187648894 1.16886099922764 0.386663419173485 0.951706892138517 1.16433233074168 0.403353546221397 0.93330694546955 1.16050392831971 0.421097980439444 0.916032354422262 1.15739126589372 0.439884029234435 0.899885407492378 1.15501073619891 0.45963934214101 0.884923849505268 1.15338377023275 0.480276311844073 0.871219491854214 1.15253049072227 0.5017425353401 0.858811281799829 1.15246007841099 0.523949523196878 0.847748192688013 1.1531724823353 0.546759029163488 0.838096882802147 1.15465775473559 0.570098669772178 0.829886507889354 1.15690097780081 0.593931175462993 0.823126805869216 1.1598836294362 0.618193540330671 0.817842960685826 1.16358308203869 0.642849970938943 0.814062328159552 1.16798136092366 0.667925441372793 0.811811098900031 1.17307142999671 0.693483922063633 0.811145995401309 1.17886420473758 0.719610944880061 0.812155582112018 1.18538492371378 0.746368254417169 0.814971678473893 1.19266489732852 0.773837575790808 0.819781059083316 1.20075498424138 0.802155106185294 0.826861430834602 1.20974319756787 0.81965599704196 0.832355136561814 1.21562554945372 0.8373517679088 0.8388268149346 1.22183291584 0.8373517676161 0.8388268148189 2.07 0.808065902861478 0.828616199739843 2.07 0.778076965712684 0.820705309562419 2.07 0.747565249384674 0.815141704487232 2.07 0.716714190036585 0.811958832857043 2.07 0.685709263954681 0.811175830066945 2.07 0.654736872470624 0.812797403522539 2.07 0.623983221318369 0.816813804339063 2.07 0.593633201166999 0.823200885951588 2.07 0.563869276059719 0.831920249283955 2.07 0.534870386441694 0.84291947360366 2.07 0.506810873371735 0.856132431674826 2.07 0.479859430385448 0.871479687314532 2.07 0.454178089311244 0.888868972962424 2.07 0.429921246136471 0.90819574439244 2.07 0.40723473278015 0.929343809231735 2.07 0.386254940352816 0.952186025508173 2.07 0.367107999174407 0.976585066026688 2.07 0.34990902047994 1.00239424397913 2.07 0.334761404371817 1.02945839482401 2.07 0.321756218179359 1.05761480913431 2.07 0.31097164896285 1.08669421080504 2.07 0.302472533453657 1.11652177473968 2.07 0.2963099682563 1.146918177897 2.07 0 -0.173607830915 0.0771497754818155 -0.183677003780023 0.150836733075285 -0.192842144251636 0.221178062092286 -0.201100278030904 0.288933613328726 -0.208532838910815 0.354682485367357 -0.215196245514805 0.418846626846155 -0.221121283814856 0.481957962485627 -0.226339002342265 0.544469317854079 -0.230867668253918 0.606583940213904 -0.234696071550749 0.668504843454539 -0.237808736292516 0.730444102741344 -0.240189263870858 0.792407752893112 -0.241816231221972 0.854349657826237 -0.242669509454481 0.91634559215523 -0.242739921584576 0.978381043754248 -0.242027518633402 1.04030924057496 -0.240542245536788 1.10217316788056 -0.23829901978016 1.16411456944577 -0.235316371697675 1.22620224055368 -0.231616916268953 1.2885738028039 -0.227218630645627 1.35152485814215 -0.222128569047295 1.41545350869409 -0.216335800417203 1.48083141893614 -0.209815078593867 1.54810683564813 -0.202535088963199 1.61783825416578 -0.194445025151139 1.69082762530365 -0.185456799993599 1.73668904073227 -0.179574452169575 1.78379869548396 -0.17336708416 1.78379869469702 0.6748 1.70624222970837 0.6748 1.62868576471971 0.6748 1.55112929973105 0.6748 1.4735728347424 0.6748 1.39601636975374 0.6748 1.31845990476508 0.6748 1.24090343977643 0.6748 1.16334697478777 0.6748 1.08579050979911 0.6748 1.00823404481046 0.6748 0.930677579821801 0.6748 0.853121114833145 0.6748 0.775564649844488 0.6748 0.698008184855832 0.6748 0.620451719867175 0.6748 0.542895254878519 0.6748 0.465338789889862 0.6748 0.387782324901206 0.6748 0.31022585991255 0.6748 0.232669394923893 0.6748 0.155112929935237 0.6748 0.0775564649465803 0.6748 0 0.6748 52 1 2 52 2 3 52 53 1 51 3 4 51 52 3 50 4 5 50 51 4 49 5 6 49 50 5 48 6 7 48 49 6 47 7 8 47 48 7 46 8 9 46 9 10 46 47 8 45 10 11 45 46 10 44 11 12 44 45 11 43 44 12 43 12 13 42 43 13 42 13 14 42 14 15 41 42 15 41 15 16 40 16 17 40 41 16 39 40 17 39 17 18 38 18 19 38 19 20 38 39 18 37 20 21 37 38 20 36 21 22 36 37 21 35 22 23 35 36 22 34 23 24 34 35 23 33 24 25 33 25 26 33 34 24 32 26 27 32 33 26 31 27 28 31 32 27 30 28 29 30 31 28 
81 79 1 0 0.000251754448853626
0.2963099682563 1.146918177897 2.07 0.291565604727501 1.17018372150925 2.07 0.284981095659445 1.19299684810729 2.07 0.276598377902179 1.21521226050157 2.07 0.266470841127211 1.23668846835392 2.07 0.254662987787954 1.25728868933245 2.07 0.241250022302501 1.27688172028052 2.07 0.22631737207542 1.29534277285185 2.07 0.209960143409158 1.31255426828965 2.07 0.192282515770395 1.32840658628769 2.07 0.173397078269249 1.34279876316389 2.07 0.153424112577328 1.35563913489976 2.07 0.132490826851725 1.36684592095 2.07 0.110730545544107 1.3763477451043 2.07 0.0882818602550224 1.38408409008351 2.07 0.0652877470416489 1.39000568297532 2.07 0.04189465580086 1.3940748090542 2.07 0.0182515775273499 1.39626555198719 2.07 -0.00549090461253786 1.3965639588954 2.07 -0.0291815743475496 1.39496812922016 2.07 -0.0526695454005167 1.39148822682775 2.07 -0.0758052224856127 1.38614641527548 2.07 -0.0984412540832649 1.3789767166517 2.07 -0.120433470924481 1.37002479488849 2.07 -0.141641804207366 1.35934766492731 2.07 -0.161931177697698 1.34701332958991 2.07 -0.181172368031754 1.33310034646714 2.07 -0.199242827742099 1.31769732758439 2.07 -0.216027465764493 1.30090237503003 2.07 -0.231419380454821 1.28282245614162 2.07 -0.245320540447483 1.26357272222907 2.07 -0.25764240901882 1.243275775174 2.07 -0.268306507979009 1.22206088657629 2.07 -0.277244917500985 1.20006317442109 2.07 -0.28440070870297 1.17742274251003 2.07 -0.289728306229488 1.15428378813777 2.07 -0.2931937785216 1.130793683697 2.07 0.2963099682594 1.146918177881 1.221592169085 0.291388564247771 1.17090154072171 1.22961303809758 0.284577944555694 1.19421050314252 1.2372688669743 0.275961194941962 1.21671689240469 1.24453736279941 0.265621766844713 1.23829268385226 1.25139628075298 0.253664919838867 1.25881868409093 1.25782624432135 0.240229640072395 1.27818935738977 1.26381231286458 0.225457806034809 1.29630033927906 1.26933992615677 0.209484838892857 1.31305198339182 1.27439570862445 0.192371551017321 1.32839915696934 1.27897997233131 0.174130836462057 1.34233173921531 1.28310182037606 0.15477480030857 1.35484018580341 1.28677050060127 0.134342292920466 1.36589829931524 1.28998967652691 0.112978336961829 1.37541377358503 1.29274084326302 0.0930960212922458 1.38256889638513 1.2947969052607 0.0747787915970839 1.38779936891129 1.29629215344629 0.0561528204769059 1.39183451452763 1.29744005983483 0.0372990926241873 1.39466058830576 1.29823834759362 0.0182969581451878 1.39627098076886 1.29868643845 -0.000774232853832813 1.39665908244014 1.2987837541313 -0.0198347214295921 1.3958190290973 1.29852984349199 -0.0387966191544152 1.39375977546716 1.29792678323506 -0.0575645584885794 1.39050390968488 1.29697897567996 -0.0760428934133799 1.38607452751511 1.29569090973865 -0.0941359779114224 1.38049472472411 1.29406707432349 -0.111753646890058 1.37379431900642 1.29211355859209 -0.128827251973964 1.36602951663836 1.28984273385826 -0.145293424103513 1.35726299856675 1.28726851281804 -0.161088794219081 1.34755744573836 1.28440480816745 -0.176151011709046 1.33697456393845 1.2812652109706 -0.190443438268662 1.3255514394794 1.277855192192 -0.203956487154827 1.31329925686751 1.274171679752 -0.216681858139887 1.30022796877355 1.27021119528171 -0.228611250996188 1.28634752786833 1.26597026041223 -0.239728824981399 1.27167506156979 1.26144735506927 -0.249984194676973 1.25626056631453 1.25664993053601 -0.259317088173327 1.24016344546646 1.25158800564742 -0.267667232762589 1.22344310314904 1.24627159944578 -0.2749747412717 1.20615900008477 1.24071076137505 -0.281192424979565 1.18837246121129 1.23491654222622 -0.28628837671049 1.1701470548963 1.22890119782928 -0.290231597001242 1.15154648276557 1.22267705559263 -0.291893172071221 1.14121165013429 1.21918022245465 -0.2931937785333 1.130793683586 1.21562635735 0 0.6748 0.0798273148191507 0.6748 0.159654629638301 0.6748 0.239481944457452 0.6748 0.319309259276603 0.6748 0.399136574095754 0.6748 0.478963888914904 0.6748 0.558791203734055 0.6748 0.638618518553206 0.6748 0.718445833372356 0.6748 0.798273148191507 0.6748 0.878100463010658 0.6748 0.957927777829809 0.6748 1.03775509264896 0.6748 1.11758240746811 0.6748 1.19740972228726 0.6748 1.27723703710641 0.6748 1.35706435192556 0.6748 1.43689166674471 0.6748 1.51671898156386 0.6748 1.59654629638301 0.6748 1.67637361120216 0.6748 1.75620092602131 0.6748 1.83602824084047 0.6748 1.91585555565962 0.6748 1.99568287047877 0.6748 2.07551018529792 0.6748 2.15533750011707 0.6748 2.23516481493622 0.6748 2.31499212975537 0.6748 2.39481944457452 0.6748 2.47464675939367 0.6748 2.55447407421282 0.6748 2.63430138903197 0.6748 2.71412870385112 0.6748 2.79395601867027 0.6748 2.87378333379258 0.6748 0 -0.173607830915 0.0823123716913591 -0.165586961397737 0.16395291932155 -0.157931136998586 0.244973764872574 -0.15066261849031 0.325409874082965 -0.143803740580515 0.405276024228335 -0.13737375572384 0.484538121222931 -0.131387677430018 0.563114584927833 -0.1258601396466 0.640930595060825 -0.120804253726777 0.71819919353 -0.116220036109226 0.795353048865338 -0.112098179919039 0.872827539264171 -0.1084294179079 0.950937259552656 -0.105210352241306 1.02957464055246 -0.10245916185429 1.1006187744943 -0.100403053390476 1.1646569357181 -0.0989079688221973 1.22872301743312 -0.0977598993399514 1.29280772268364 -0.0969616640516783 1.35691303196981 -0.0965135583052477 1.42103529953562 -0.0964162465835719 1.48517225642876 -0.0966701570264352 1.54929213420081 -0.0972732140247283 1.61332853791418 -0.0982210343984792 1.67720806385669 -0.0995090542701717 1.74085676200091 -0.101133028284264 1.80422104011276 -0.103086409201844 1.86727515297696 -0.105357269367778 1.92998882631223 -0.107931504797095 1.99231145192626 -0.110795124944704 2.05419456677627 -0.113934848131019 2.1156941041324 -0.117344791158032 2.17700449144264 -0.121028329492688 2.23832166004425 -0.124988786284484 2.29984510396898 -0.129229789494397 2.36172855579842 -0.133752630493584 2.42397146918609 -0.138550073034134 2.48652595212321 -0.143611992648349 2.54935551870215 -0.148928403018159 2.61243798715203 -0.15448923758555 2.67577677993263 -0.160283457594268 2.73939292872437 -0.166298802352031 2.80331046846242 -0.172522944325094 2.83849462664799 -0.176019777692865 2.87378333392305 -0.17957364265 1 38 39 2 1 39 3 39 40 3 2 39 4 40 41 4 3 40 5 41 42 5 4 41 6 5 42 6 42 43 7 6 43 7 43 44 8 7 44 8 44 45 9 8 45 9 45 46 10 9 46 10 46 47 10 47 48 11 10 48 11 48 49 12 11 49 12 49 50 13 12 50 13 50 51 14 13 51 14 51 52 15 14 52 15 52 53 16 15 53 16 53 54 17 16 54 17 54 55 18 17 55 18 55 56 18 56 57 19 57 58 19 18 57 20 58 59 20 19 58 21 59 60 21 20 59 22 60 61 22 61 62 22 21 60 23 62 63 23 22 62 24 63 64 24 23 63 25 64 65 25 24 64 26 65 66 26 66 67 26 25 65 27 67 68 27 26 67 28 68 69 28 27 68 29 28 69 29 69 70 29 70 71 30 29 71 30 71 72 31 30 72 31 72 73 32 31 73 32 73 74 33 32 74 33 74 75 33 75 76 34 33 76 34 76 77 35 34 77 35 77 78 36 35 78 36 78 79 36 79 80 37 36 80 37 80 81 
53 51 1 0 0.000302114138553311
-0.847226676303 0.8051385811955 1.215841944122 -0.816603008928028 0.793594998353995 1.20489397950368 -0.786756229151627 0.784982632852429 1.194953765591 -0.757835356977233 0.77897268044784 1.18600094630147 -0.729735562081537 0.775224197867827 1.17794382434612 -0.702386850513752 0.773499176454616 1.1707248692248 -0.675671203907308 0.773627728114666 1.16429270470419 -0.649454294394559 0.775492648852848 1.15860617461102 -0.623708633230905 0.779023302057204 1.15366302769209 -0.598387783828078 0.784187957021787 1.14946816875863 -0.573460142081472 0.790973329041205 1.14603439312939 -0.549027247470428 0.799351221954924 1.14339779548654 -0.525191310849271 0.809286532829015 1.14158723751668 -0.502024237544303 0.820750730886428 1.14062189760572 -0.481614996828807 0.832471496959219 1.14048994251259 -0.4618564500136 0.8454225609432 1.141073807304 -0.440000631004635 0.861829532552644 1.14263839423847 -0.41944791278322 0.879567164147838 1.14511658441379 -0.400247092369017 0.898552367073433 1.14846594542567 -0.382397328840388 0.918755668833947 1.15264955821263 -0.365896629482335 0.940193315076809 1.15764496160657 -0.350783140567983 0.9628525428899 1.163423946646 -0.337119534695992 0.986726420160478 1.16996295717017 -0.32491024394506 1.0119898345923 1.17729435369027 -0.314217774036833 1.03883124687952 1.1854631079045 -0.305195224558628 1.06743415118993 1.19452396151217 -0.298070390478335 1.09807923428365 1.20457270459681 -0.2931937785333 1.130793683586 1.21562635735 -0.2931937785216 1.130793683697 2.07 -0.29769875591402 1.10003485835836 2.07 -0.304578820028161 1.06971877557563 2.07 -0.313792415269255 1.04002854451831 2.07 -0.325283891512974 1.01114349421121 2.07 -0.338983840231495 0.983238090386616 2.07 -0.354809513721071 0.9564808817111 2.07 -0.372665324898247 0.931033481751401 2.07 -0.392443424645935 0.907049592828328 2.07 -0.41402435322219 0.884674077654586 2.07 -0.437277761797167 0.864042084363849 2.07 -0.462063199760183 0.845278230215905 2.07 -0.488230963041541 0.828495848908278 2.07 -0.515622998325264 0.813796306040586 2.07 -0.544073857691272 0.801268386866222 2.07 -0.573411697920989 0.790987760029329 2.07 -0.603459318430546 0.783016520526124 2.07 -0.634035231562487 0.777402814651052 2.07 -0.664954758771396 0.774180549193126 2.07 -0.696031146082494 0.773369186638883 2.07 -0.727076692085831 0.774973627618949 2.07 -0.757903881652985 0.778984181308225 2.07 -0.788326518528624 0.785376623958481 2.07 -0.818160849956071 0.794112345209815 2.07 -0.8472266765437 0.8051385812983 2.07 0 -0.179358055878 0.0818407591943029 -0.190306019249478 0.159521433800529 -0.200246236612022 0.233384772333929 -0.209199057830574 0.304271413767119 -0.217256175461817 0.3727923616057 -0.224475130498698 0.439594627541357 -0.230907306965619 0.505314312470515 -0.236593825118677 0.570292233305075 -0.241536971941872 0.6349090148073 -0.245731840296858 0.699506775907447 -0.249165607914462 0.764091409745866 -0.251802204098141 0.828661780770276 -0.25361276151425 0.893294048988034 -0.2545781033592 0.952141005190785 -0.254710057177902 1.01121156113662 -0.254126192696 1.07954698662536 -0.252561605840693 1.14743112649619 -0.250083415665405 1.21494899504515 -0.246734054574333 1.28235917422207 -0.242550441375596 1.35000369366797 -0.237555037981668 1.41810961623141 -0.231776053354 1.48689146199273 -0.225237042765039 1.55705319349979 -0.21790564624518 1.62930079530269 -0.2097368920955 1.70429859713158 -0.200676034563074 1.78297481319825 -0.190627291478684 1.86568836959079 -0.17957364265 1.86568836986975 0.6748 1.78795135443036 0.6748 1.71021433899097 0.6748 1.63247732355158 0.6748 1.55474030811218 0.6748 1.47700329267279 0.6748 1.3992662772334 0.6748 1.32152926179401 0.6748 1.24379224635462 0.6748 1.16605523091523 0.6748 1.08831821547584 0.6748 1.01058120003644 0.6748 0.932844184597053 0.6748 0.855107169157661 0.6748 0.77737015371827 0.6748 0.699633138278878 0.6748 0.621896122839487 0.6748 0.544159107400095 0.6748 0.466422091960704 0.6748 0.388685076521312 0.6748 0.310948061081921 0.6748 0.233211045642529 0.6748 0.155474030203138 0.6748 0.0777370147637464 0.6748 0 0.6748 52 1 2 52 53 1 51 2 3 51 52 2 50 3 4 50 4 5 50 51 3 49 5 6 49 50 5 48 6 7 48 49 6 47 7 8 47 48 7 46 8 9 46 47 8 45 9 10 45 46 9 44 10 11 44 11 12 44 45 10 43 12 13 43 44 12 42 43 13 42 13 14 41 42 14 41 14 15 40 15 16 40 41 15 40 16 17 39 17 18 39 40 17 38 39 18 38 18 19 37 19 20 37 38 19 36 20 21 36 37 20 35 21 22 35 36 21 34 22 23 34 35 22 33 23 24 33 24 25 33 34 23 32 25 26 32 33 25 31 32 26 31 26 27 30 27 28 30 31 27 29 30 28 

TShapes 14
Ve
1e-07
-0.8472266765437 0.8051385812983 2.07
0 0

0101101
*
Ve
7.25251590403884e-06
-1.227485580252 0.6732600911041 2.07
0 0

0101101
*
Ed
 1e-07 1 1 0
1  1 0 0 1.47056620238561
2  1 2 0 0 1.47056620238561
4 C0 1 0 2 0
6  1 1 0
0

0101000
+14 0 -13 0 *
Ve
1e-07
1.205304459452 0.7122086492216 2.07
0 0

0101101
*
Ed
 1e-07 1 1 0
1  2 0 0 2.10621375308259
2  2 3 0 0 2.10621375308259
4 C0 3 0 1 0
6  2 2 0
0

0101000
+13 0 -11 0 *
Ve
1e-07
0.8373517676161 0.8388268148189 2.07
0 0

0101101
*
Ed
 1e-07 1 1 0
1  3 0 0 1.41135128212644
2  3 4 0 0 1.41135128212644
4 C0 1 0 4 0
6  3 3 0
0

0101000
+11 0 -9 0 *
Ve
1e-07
0.2963099682563 1.146918177897 2.07
0 0

0101101
*
Ed
 1e-07 1 1 0
1  4 0 0 1.7837986947391
2  4 5 0 0 1.7837986947391
4 C0 1 0 5 0
6  4 4 0
0

0101000
+9 0 -7 0 *
Ve
1e-07
-0.2931937785216 1.130793683697 2.07
0 0

0101101
*
Ed
 1e-07 1 1 0
1  5 0 0 2.87378333348943
2  5 6 0 0 2.87378333348943
4 C0 1 0 6 0
6  5 5 0
0

0101000
+7 0 -5 0 *
Ed
 1e-07 1 1 0
1  6 0 0 1.86568837054539
2  6 7 0 0 1.86568837054539
4 C0 1 0 7 0
6  6 6 0
0

0101000
+5 0 -14 0 *
Wi

0101100
+12 0 +10 0 +8 0 +6 0 +4 0 +3 0 *
Fa
0  1e-07 1 0

0111000
+2 0 *

-1 0 