DBRep_DrawableShape

CASCADE Topology V3, (c) Open Cascade
Locations 0
Curve2ds 3
7 0 0  1 2 2  2.8096338564597785 0.0043251650332507552  2.8052437886920227 0.074325165035993734 
 0 2 0.070000413606453413 2
7 0 0  1 2 2  2.8096338564597785 0.0043251650332507552  2.8052437886920405 0.074325165035993734 
 0 2 0.070000413606453413 2
7 0 0  1 2 2  6.3267469865736849 0.074325165029264895  6.3318127351696747 0.0043251650265148101 
 0 2 0.070000413606453413 2
Curves 2
1 -31.271544274339998 -28.328385643520001 -1.288965032171 -0.70735035939667013 -0.70685484696907008 0.0034197043343248555 
1 -31.271544274339998 -28.328385643520001 -1.288965032171 -0.70735035939672009 -0.70685484696902012 0.0034197043343250971 
Polygon3D 0
PolygonOnTriangulations 2
3 4 5 3 
p 0.0166666666666667 1 0 0.0233334712021511 0.0700004136064534 
3 7 8 3 
p 0.0166666666666667 1 0 0.0233334712021511 0.0700004136064534 
Surfaces 3
2 -31.2353090362 -28.358504174610001 -1.3051387818860001 -0.70710678118154768 -0.70710678119154757 0 0.70710678119154757 -0.70710678118154768 0 0 0 1 0.050000000004729997
1 -31.2843293305 -28.365098062049999 -1.2599999999980001 0.58834840544078626 -0.58834840538788624 -0.55470019622568711 -0.39223227022719193 0.3922322703261919 -0.83205029433753841 0.70710678119199755 0.70710678118109771 7.8995581996583868e-11 
2 -31.290923217930001 -28.414118356340001 -1.291010205144 0.70710678118654757 0.70710678118654757 0 -0.70710678118654757 0.70710678118654757 0 0 -0 1 0.049999999997419997
Triangulations 2
6 4 1 0 0.00164071494265318
-31.25137637632 -28.34855354154 -1.242596227922 -31.30087385101 -28.39805101622 -1.242596227923 -31.32105909206 -28.37786577517 -1.288725651453 -31.27154427434 -28.32838564352 -1.288965032171 -31.2880492135808 -28.3448790207359 -1.2888852385984 -31.26146032533 -28.33846959253 -1.26578063004612 -0.0209167308660374 0.0350000000063727 -0.0209167308662016 -0.0349999999963725 0.0332998754078876 -0.0350000000002357 0.0334854472116079 0.0350000000024915 0.0334235899437012 0.0116666666682491 0.00628435817247342 0.0350000000044302 6 1 2 5 2 3 5 6 2 4 6 5 
12 10 1 0 0.00634153961955139
-31.25958059316 -28.3403493247 -1.331010205149 -31.311600316 -28.38732455123 -1.327916992569 -31.32105909206 -28.37786577517 -1.288725651453 -31.320827929297 -28.3780969379307 -1.29828668898226 -31.3208952668044 -28.3780296004174 -1.30984925247194 -31.3189995326896 -28.3799253345314 -1.31575188408246 -31.27154427434 -28.32838564352 -1.288965032171 -31.2880492135808 -28.3448790207359 -1.2888852385984 -31.2680256286807 -28.3319042891793 -1.31918361534561 -31.2701729305892 -28.3297569872708 -1.31422507612202 -31.2711862022456 -28.3287437156144 -1.30294073285287 -31.2712308632174 -28.3286990546426 -1.29438189616424 5.40310822317071 0.0743251650292649 5.45043204562037 0.00432516502651481 6.33181273516967 0.00432516502651481 6.19960563174366 0.00432516502651481 6.00800512273994 0.00432516502651481 5.82501883868202 0.00432516502651481 6.32674698657368 0.0743251650292649 6.32843556943901 0.0509918316950149 5.8136143402387 0.0743251650292649 5.9504497125947 0.0743251650292649 6.13859834958419 0.0743251650292649 6.2531119719278 0.0743251650292649 9 1 2 9 2 6 10 6 5 10 9 6 11 5 4 11 10 5 12 11 4 8 4 3 8 12 4 7 12 8 

TShapes 6
Ve
0.00724753243051392
-31.27154427434 -28.32838564352 -1.288965032171
0 0

0101101
*
Ve
0.00556240310634501
-31.32105909206 -28.37786577517 -1.288725651453
0 0

0101101
*
Ed
 0.00198930342803341 1 1 0
1  1 0 0 0.0700004136064534
2  1 1 0 0 0.0700004136064534
4 C0 2 0 1 0
6  1 1 0
0

0101000
+6 0 -5 0 *
Ed
 0.00303627754984299 1 1 0
1  2 0 0 0.0700004136064534
2  2 1 0 0 0.0700004136064534
2  3 3 0 0 0.0700004136064534
4 C0 1 0 3 0
6  2 2 0
0

0101000
+6 0 -5 0 *
Wi

0101100
-4 0 +3 0 *
Fa
0  1e-07 1 0

0111000
+2 0 *

-1 0 