DBRep_DrawableShape

CASCADE Topology V3, (c) Open Cascade
Locations 0
Curve2ds 8
7 0 0  1 2 2  6.1242386845839523 0.025614847071000924  6.9907697439064069 0.025614847071000924 
 0.093733632549718851 2 4.1018573454619816 2
1 2.8889123984444218 0.025614847071000924 1 0 
1 2.8889123984444893 0.025614847071000924 1 0 
1 2.8889123984445462 0.025614847071000924 1 0 
1 8.717193523992993 1.3063572006010009 1.647586873118997e-11 -1 
1 9.4247779607706583 1.3063572006037525 -1 1.064431692895385e-12 
1 0 0 0 1 
7 0 0  1 2 2  9.4247779607693793 1.3063572006099999  9.2658313382100275 0.025614847070965396 
 0 2 1.2808444439068956 2
Curves 4
2 71.485000000070002 72.750000000040004 4.9875000000000007 0 0 1 -0.96824583655105045 0.25000000000311307 0 -0.25000000000311307 -0.96824583655105045 0 0.10000000000000001
1 71.409006579310002 72.815000000040001 6.2682423535300007 -1.941764140388e-13 -1.9972431158279995e-12 -1 
2 71.485000000070002 72.750000000040004 6.2682423535380005 5.2484145164930002e-11 -7.799982883329e-12 -1 -1 -1.3322676295960305e-12 -5.2484145164919611e-11 -1.3322676291866551e-12 1 -7.7999828833989226e-12 0.099999999996520011
1 71.385000000070008 72.750000000040004 6.2682423535389997 -0.00060010871596158518 0.012611286588179688 -0.99992029448357522 
Polygon3D 0
PolygonOnTriangulations 7
52 1 2 3 4 5 6 7 8 9 10 11 12 13 14 15 16 17 18 19 20 21 22 23 24 25 26 27 28 29 30 31 32 33 34 35 36 37 38 39 40 41 42 43 44 45 46 47 48 49 50 51 52 
p 0.05 1 0.0937336325497189 0.172324293587214 0.25091495462471 0.329505615662205 0.4080962766997 0.486686937737196 0.565277598774691 0.643868259812186 0.722458920849682 0.801049581887177 0.879640242924672 0.958230903962168 1.03682156499966 1.11541222603716 1.19400288707465 1.27259354811215 1.35118420914964 1.42977487018714 1.50836553122464 1.58695619226213 1.66554685329963 1.74413751433712 1.82272817537462 1.90131883641211 1.97990949744961 2.0585001584871 2.1370908195246 2.21568148056209 2.29427214159959 2.37286280263708 2.45145346367458 2.53004412471207 2.60863478574957 2.68722544678706 2.76581610782456 2.84440676886205 2.92299742989955 3.00158809093704 3.08017875197454 3.15876941301203 3.23736007404953 3.31595073508702 3.39454139612452 3.47313205716202 3.55172271819951 3.63031337923701 3.7089040402745 3.787494701312 3.86608536234949 3.94467602338699 4.02326668442448 4.10185734546198 
8 4 5 6 7 8 9 10 3 
p 0.05 1 4.10185734546198 4.1798075541445 4.25775776282702 4.33570797150954 4.41365818019206 4.49160838887458 4.5695585975571 4.64750880623963 
9 1 2 3 4 5 6 7 8 9 
p 0.05 1 4.64750880623963 4.72689891356229 4.80628902088495 4.88567912820762 4.96506923553028 5.04445934285294 5.1238494501756 5.20323955749827 5.28262966482093 
8 54 55 56 57 58 59 60 53 
p 0.05 1 5.28262966482093 5.3605798735036 5.43853008218626 5.51648029086892 5.59443049955159 5.67238070823425 5.75033091691691 5.82828112559958 
2 1 2 
p 0.05 1 0 1.28074235353 
10 1 2 3 4 5 6 7 8 9 10 
p 0.05 1 0 0.0786204929753021 0.157240985950604 0.235861478925906 0.314481971901208 0.393102464876511 0.471722957851813 0.550343450827115 0.628963943802417 0.707584436777719 
2 3 2 
p 0.05 1 0 1.2808444439069 
Surfaces 5
2 71.485000000070002 72.750000000040004 4.9618851529289998 0 0 1 1 0 -0 -0 1 0 0.10000000000000001
1 71.275000000070008 72.600000000039998 4.9875000000000007 0 0 1 0 -1 0 1 0 -0 
1 71.487003289690009 72.815000000040001 5.8375000816080007 0 1 0 0 0 -1 -1 0 0 
5 71.585000000069996 72.750000000040004 6.2682423535430001 2.8999913581630001e-11 1 -7.7999828818060006e-12 -1 2.89999135812199e-11 -5.2577243703119999e-11 -5.2577243702893797e-11 7.7999828833307368e-12 1 0.099999999999979994 0.099999999996520011
1 71.385000000070008 72.600000000039998 5.6278711767710003 1 0 0 0 0 1 0 -1 0 
Triangulations 6
77 74 1 0 0.0010275477574447
71.38423135416 72.7661530964 4.9875 71.3853226804108 72.7580269512387 4.9875 71.3850001558843 72.7501765300004 4.9875 71.3852949617528 72.7423250189872 4.9875 71.3862052780872 72.7345208880388 4.9875 71.3877254852194 72.7268123145024 4.9875 71.3898461984341 72.7192468858199 4.9875 71.3925543259035 72.7118713057546 4.9875 71.3958331495077 72.7047311060752 4.9875 71.3996624280403 72.6978703654731 4.9875 71.4040185221643 72.6913314374514 4.9875 71.4088745403447 72.6851546888632 4.9875 71.4142005048586 72.6793782507144 4.9875 71.4199635368569 72.674037782769 4.9875 71.426128059336 72.6691662534102 4.9875 71.4326560167657 72.6647937361163 4.9875 71.4395071100178 72.6609472238076 4.9875 71.4466390451454 72.6576504622108 4.9875 71.4540077944765 72.6549238032689 4.9875 71.4615678684109 72.6527840795027 4.9875 71.4692725962417 72.6512445000979 4.9875 71.4770744142678 72.6503145693608 4.9875 71.4849251594204 72.6500000280456 4.9875 71.4927763665878 72.6503028179144 4.9875 71.5005795678062 72.6512210697504 4.9875 71.5082865914678 72.6527491148971 4.9875 71.5158498596986 72.6548775202527 4.9875 71.5232226820725 72.6575931465034 4.9875 71.5303595438449 72.6608792292369 4.9875 71.5372163869302 72.6647154824341 4.9875 71.543750881886 72.6690782237011 4.9875 71.5499226892259 72.673940520468 4.9875 71.5556937084478 72.6792723562521 4.9875 71.5610283132407 72.6850408159594 4.9875 71.5658935714162 72.6912102890791 4.9875 71.57025944821 72.6977426895193 4.9875 71.5740989916958 72.7045976907235 4.9875 71.5773884991676 72.71173297462 4.9875 71.5801076634643 72.7191044928637 4.9875 71.582239698332 72.7266667387611 4.9875 71.583771442051 72.7343730281969 4.9875 71.5846934386871 72.7421757878301 4.9875 71.5849999964657 72.7500268487786 4.9875 71.5846892229097 72.7578777439815 4.9875 71.5837630365217 72.7656800074008 4.9875 71.5822271549407 72.7733854732179 4.9875 71.5800910596452 72.7809465731762 4.9875 71.5773679374213 72.7883166302345 4.9875 71.5740745989565 72.7954501467198 4.9875 71.5702313750617 72.8023030851979 4.9875 71.5658619911631 72.8088331403306 4.9875 71.5609934208378 72.8150000000401 4.9875 71.40900657931 72.81500000004 4.9875 71.4537750100781 72.84500000004 4.9875 71.4464720544987 72.8422799946762 4.9875 71.4394030852562 72.8389995582382 4.9875 71.4326110333245 72.8351786133378 4.9875 71.4261371479144 72.8308403651809 4.9875 71.420020745961 72.8260111606379 4.9875 71.4142989733454 72.8207203282356 4.9875 71.38000000007 72.84500000004 4.9875 71.404301169841 72.8090567422433 4.9875 71.4000594816129 72.8027741255584 4.9875 71.396305888712 72.7961882519057 4.9875 71.4058198008949 72.8110540815104 4.9875 71.402764066959 72.8068157904864 4.9875 71.3995039103776 72.8017474940739 4.9875 71.3915429552425 72.7866628450781 4.9875 71.3879065082831 72.7778436748454 4.9875 71.3859518299337 72.7721464034826 4.9875 71.38423135416 72.7661530964 4.9875 71.4041505911436 72.8088504297432 4.9875 71.399791000857 72.8023395305416 4.9875 71.3959545753854 72.7955072779497 4.9875 71.3926648695509 72.7883956205197 4.9875 71.3899420814353 72.7810482222893 4.9875 71.3878029283684 72.7735101946934 4.9875 -0.166153096359796 0.109231354086084 -0.158026951198727 0.110322680340736 -0.150176529960378 0.110000155814247 -0.142325018947229 0.110294961682765 -0.134520887998755 0.111205278017221 -0.126812314462433 0.112725485149437 -0.119246885779874 0.114846198364094 -0.111871305714618 0.11755432583353 -0.104731106035162 0.12083314943769 -0.0978703654330702 0.124662427970328 -0.0913314374113965 0.129018522094321 -0.085154688823223 0.133874540274703 -0.0793782506744213 0.139200504788552 -0.0740377827289956 0.144963536786867 -0.0691662533701782 0.151128059266012 -0.0647937360762615 0.157656016695722 -0.0609472237675865 0.164507109947819 -0.0576504621707816 0.171639045075366 -0.054923803228946 0.179007794406469 -0.0527840794627234 0.186567868340894 -0.0512445000578735 0.19427259617164 -0.0503145693208269 0.202074414197844 -0.0500000280056208 0.209925159350423 -0.0503028178744243 0.217776366517799 -0.0512210697104318 0.225579567736234 -0.0527491148571244 0.233286591397764 -0.0548775202126639 0.240849859628643 -0.0575931464633887 0.248222682002475 -0.0608792291969171 0.255359543774859 -0.0647154823941213 0.262216386860176 -0.0690782236610849 0.268750881815965 -0.073940520427947 0.274922689155852 -0.0792723562121 0.280693708377838 -0.0850408159193502 0.286028313170655 -0.0912102890391148 0.290893571346149 -0.0977426894792701 0.295259448140009 -0.104597690683541 0.299098991625784 -0.111732974579978 0.302388499097574 -0.119104492823684 0.305107663394267 -0.126666738721063 0.307239698262016 -0.134373028156903 0.308771441981041 -0.142175787790063 0.309693438617058 -0.150026848738626 0.309999996395723 -0.157877743941507 0.309689222839741 -0.165680007360821 0.308763036451722 -0.173385473177932 0.307227154870663 -0.180946573136158 0.305091059575168 -0.188316630194529 0.30236793735131 -0.195450146679802 0.299074598886464 -0.202303085157866 0.295231374991661 -0.208833140290626 0.29086199109312 -0.215000000000125 0.285993420767749 -0.215000000000003 0.134006579232135 -0.245000000000026 0.178775010008055 -0.242279994636178 0.171472054428647 -0.23899955819816 0.164403085186226 -0.235178613297844 0.157611033254525 -0.230840365140903 0.151137147844436 -0.226011160597901 0.145020745890997 -0.220720328195571 0.139298973275398 -0.245000000000005 0.10499999999999 -0.209056742203339 0.12930116977099 -0.202774125518401 0.125059481542845 -0.196188251865718 0.121305888641966 -0.211054081470391 0.130819800824896 -0.206815790446366 0.127764066889015 -0.201747494033893 0.124503910307569 -0.186662845038054 0.116542955172471 -0.177843674805426 0.112906508213066 -0.17214640344262 0.110951829863688 -0.165827819550324 0.111260544217196 -0.208850429703157 0.129150591073552 -0.202339530501603 0.124791000787041 -0.195507277909676 0.12095457531544 -0.18839562047971 0.117664869480894 -0.181048222249275 0.114942081365297 -0.17351019465344 0.112802928298434 35 67 34 34 67 33 33 67 32 32 67 31 31 67 30 30 67 29 29 67 28 28 67 27 27 67 26 26 67 25 25 67 24 24 67 23 23 67 22 22 67 21 21 67 20 20 67 19 19 67 18 18 67 17 17 67 16 16 67 15 15 67 14 14 67 13 13 67 12 12 67 11 11 67 10 10 67 9 9 67 8 8 67 7 7 67 6 6 67 5 5 67 4 4 67 3 3 67 2 68 64 61 61 64 63 68 61 69 69 61 70 70 61 71 71 61 2 2 61 1 71 2 67 35 36 67 53 36 37 53 37 38 53 38 39 53 39 40 53 40 41 53 41 42 53 42 43 53 43 44 53 44 45 53 45 46 53 46 47 53 47 48 53 48 49 53 49 50 53 50 51 53 51 52 67 63 64 67 64 71 71 64 68 71 68 69 71 69 70 55 54 61 55 61 56 56 61 57 57 61 58 58 61 59 59 61 60 60 61 53 53 61 65 65 66 53 53 66 67 53 67 36 
17 15 1 0 7.19580208463649e-13
71.58500000007 72.79499988806 4.9875 71.59000000007 72.84500000004 4.9875 71.5162249900619 72.84500000004 4.9875 71.5609934208378 72.8150000000401 4.9875 71.5557010267945 72.8207203282357 4.9875 71.5499792541789 72.826011160638 4.9875 71.5438628522255 72.830840365181 4.9875 71.5373889668154 72.8351786133379 4.9875 71.5305969148837 72.8389995582382 4.9875 71.5235279456413 72.8422799946762 4.9875 71.56500000007 72.81500000004 4.9875 71.584498579672 72.7994503251409 4.9875 71.5830194121331 72.8036776027563 4.9875 71.5806366696163 72.8074697460479 4.9875 71.5774698336291 72.8106365997666 4.9875 71.5736777036788 72.813019363516 4.9875 71.5694504343455 72.8144985547239 4.9875 -0.194999888017851 0.309999999999675 -0.245000000000067 0.314999999999998 -0.245000000000045 0.241224989991876 -0.215000000000125 0.285993420767749 -0.220720328195674 0.280701026724487 -0.226011160597986 0.274979254108891 -0.230840365140971 0.268862852155458 -0.235178613297898 0.262388966745376 -0.2389995581982 0.255596914813683 -0.242279994636206 0.248527945571273 -0.215000000000004 0.289999999999992 -0.199450325100913 0.309498579602007 -0.203677602716261 0.308019412063063 -0.207469746007873 0.30563666954626 -0.210636599726578 0.302469833559061 -0.213019363475962 0.298677703608741 -0.214498554683867 0.294450434275478 2 6 5 2 7 6 2 8 7 2 9 8 2 10 9 11 5 4 17 2 5 17 5 11 16 2 17 15 2 16 14 2 15 13 2 14 1 2 12 12 2 13 2 3 10 
9 7 1 0 1.4210854715202e-14
71.5162249900619 72.84500000004 4.9875 71.5085924994483 72.8471771268399 4.9875 71.5008113883708 72.8487420883307 4.9875 71.4929306737782 72.8496850260697 4.9875 71.48500000007 72.85000000004 4.9875 71.4770693263617 72.8496850260697 4.9875 71.4691886117692 72.8487420883307 4.9875 71.4614075006916 72.8471771268399 4.9875 71.4537750100781 72.84500000004 4.9875 -0.245000000000045 0.241224989991876 -0.247177126799909 0.233592499378315 -0.248742088290678 0.225811388300764 -0.249685026029667 0.217930673708218 -0.250000000000009 0.209999999999964 -0.249685026029662 0.202069326291711 -0.248742088290668 0.194188611699165 -0.247177126799895 0.186407500621615 -0.245000000000026 0.178775010008055 9 1 2 9 2 3 9 3 4 9 4 5 9 5 6 9 6 7 9 7 8 
9 7 1 0 3.49485963038055e-12
71.40900657931 72.81500000004 6.26824235353 71.40900657931 72.81500000004 4.9875 71.41224007415 72.81500000004 6.301823481381 71.4104461436233 72.8150000000452 6.29070644380089 71.4093668391135 72.8150000000452 6.27949743790462 71.48720802679 72.81500000004 6.687500163214 71.56500000007 72.81500000004 6.6875001632 71.56500000007 72.81500000004 4.9875 71.5609934208378 72.8150000000401 4.9875 -0.430742271922 0.0779967103822167 0.850000081608 0.0779967103800061 -0.464323399773163 0.0747632155408435 -0.453206362192885 0.0765571460667346 -0.441997356296618 0.0776364505765146 -0.850000081605999 -0.000204737099991805 -0.850000081591999 -0.0779967103799919 0.850000081608 -0.0779967103799919 0.850000081608 -0.0739901311477491 3 6 7 5 4 3 1 3 7 1 5 3 8 1 7 9 1 8 2 1 9 
40 54 1 0 0.000179586314574665
71.38500000007 72.75000000004 6.268242353539 71.3853089000062 72.7578539523805 6.26824235353271 71.3862336914209 72.7656593830141 6.26824235353269 71.3877686609575 72.7733680700008 6.26824235353271 71.3899043255763 72.7809323890827 6.26824235353277 71.3926274911441 72.7883056079068 6.26824235353285 71.3959213339478 72.7954421747369 6.26824235353297 71.3997655046308 72.802297999873 6.26824235353312 71.404136253912 72.8088307280365 6.2682423535333 71.40900657931 72.81500000004 6.26824235353 71.38867456339 72.75000000004 6.306404152618 71.3866359297651 72.750000000046 6.29377068311408 71.3854094015201 72.7500000000459 6.2810327002588 71.3889777879591 72.7578539523801 6.30634521173118 71.3898855883508 72.7656593830135 6.30616875321041 71.3913923561735 72.7733680699999 6.30587586721521 71.3934887826179 72.7809323890815 6.30546836319487 71.3961619159641 72.7883056079053 6.30494875870866 71.3993952415979 72.7954421747353 6.30432026387241 71.4031687840379 72.8022979998712 6.30358676152637 71.407459230344 72.8088307280346 6.30275278324705 71.41224007415 72.81500000004 6.301823481381 71.4104461436233 72.8150000000452 6.29070644380089 71.4093668391135 72.8150000000452 6.27949743790462 71.3857176691326 72.7578539523862 6.28101294557254 71.3866405674928 72.7656593830194 6.28095380355832 71.3869423030052 72.7578539523862 6.29373125461759 71.3881723949358 72.7733680700058 6.2808556395954 71.3878595299514 72.7656593830195 6.29361321271744 71.3903036878337 72.7809323890873 6.28071906014064 71.3893819439769 72.7733680700058 6.29341728667633 71.3930212790619 72.788305607911 6.28054490898171 71.3915001396099 72.7809323890874 6.29314468692508 71.3963083793455 72.7954421747409 6.28033426202423 71.3942010306407 72.7883056079111 6.29279709758459 71.4001446809832 72.8022979998766 6.28008842064484 71.3974679309681 72.7954421747409 6.29237666606132 71.4045064833089 72.8088307280398 6.27980890365123 71.4012806576863 72.8022979998767 6.29188598978067 71.4056156557747 72.8088307280399 6.29132810014004 3.25768301223661e-11 0 1.85203397548162e-27 0.0786204929753021 1.85203397548162e-27 0.157240985950604 1.85203397548162e-27 0.235861478925906 1.85203397548162e-27 0.314481971901208 1.85203397548162e-27 0.393102464876511 1.85203397548162e-27 0.471722957851813 1.85203397548162e-27 0.550343450827115 1.85203397548162e-27 0.628963943802417 -2.04150030214123e-11 0.707584436749583 0.191986217773015 0 0.127990811862534 0 0.0639954059475555 0 0.191986217773086 0.0786204929719991 0.191986217773156 0.157240985943998 0.191986217773226 0.235861478915997 0.191986217773297 0.314481971887996 0.191986217773367 0.393102464859995 0.191986217773438 0.471722957831994 0.191986217773508 0.550343450803993 0.191986217773578 0.628963943775992 0.191986217974604 0.707584436750348 0.127990811976264 0.707584436750093 0.0639954059779247 0.707584436749838 0.0639954059475555 0.0786204929719991 0.0639954059475555 0.157240985943998 0.127990811862534 0.0786204929719991 0.0639954059475555 0.235861478915997 0.127990811862534 0.157240985943998 0.0639954059475555 0.314481971887996 0.127990811862534 0.235861478915997 0.0639954059475555 0.393102464859995 0.127990811862534 0.314481971887996 0.0639954059475555 0.471722957831994 0.127990811862534 0.393102464859995 0.0639954059475555 0.550343450803993 0.127990811862534 0.471722957831994 0.0639954059475555 0.628963943775992 0.127990811862534 0.550343450803993 0.127990811862534 0.628963943775992 22 23 21 25 2 1 25 1 13 26 3 2 26 2 25 27 12 11 27 13 12 27 11 14 27 25 13 28 4 3 28 3 26 29 14 15 29 25 27 29 26 25 29 27 14 30 5 4 30 4 28 31 15 16 31 28 26 31 26 29 31 29 15 32 6 5 32 5 30 33 16 17 33 28 31 33 31 16 33 30 28 34 7 6 34 6 32 35 17 18 35 33 17 35 30 33 35 32 30 36 8 7 36 7 34 37 18 19 37 35 18 37 34 32 37 32 35 38 9 8 38 10 9 38 24 10 38 8 36 39 19 20 39 34 37 39 36 34 39 37 19 40 20 21 40 23 24 40 21 23 40 39 20 40 24 38 40 38 36 40 36 39 
4 2 1 0 0.000256215303338081
71.38500000007 72.45000000004 4.9875 71.38423135416 72.7661530964 4.9875 71.38500000007 72.75000000004 6.268242353539 71.38500000007 72.45000000004 6.268242353542 -0.640371176771 0.149999999995583 -0.640371176771035 -0.166153096356993 0.640371176768146 -0.150000000000006 0.640371176771 0.150000000000006 3 1 2 4 1 3 

TShapes 16
Ve
0.202055115720391
71.38423135416 72.7661530964 4.9875
0 0

0101101
*
Ve
0.200001999999994
71.5609934208378 72.8150000000401 4.9875
0 0

0101101
*
Ed
 0.200001999999994 1 1 0
1  1 0 0.0937336325497189 4.10185734546198
2  1 1 0 0.0937336325497189 4.10185734546198
4 C0 2 0 1 0
6  1 1 0
0

0101000
+16 0 -15 0 *
Ve
1e-07
71.5162249900619 72.84500000004 4.9875
0 0

0101101
*
Ed
 1e-07 1 1 0
1  1 0 4.10185734546198 4.64750880623963
2  2 1 0 4.10185734546198 4.64750880623963
4 C0 2 0 1 0
6  2 2 0
0

0101000
+15 0 -13 0 *
Ve
1e-07
71.4537750100781 72.84500000004 4.9875
0 0

0101101
*
Ed
 1e-07 1 1 0
1  1 0 4.64750880623963 5.28262966482093
2  3 1 0 4.64750880623963 5.28262966482093
4 C0 2 0 1 0
6  3 3 0
0

0101000
+13 0 -11 0 *
Ve
0.200001999999994
71.40900657931 72.81500000004 4.9875
0 0

0101101
*
Ed
 1e-07 1 1 0
1  1 0 5.28262966482093 5.82828112559958
2  4 1 0 5.28262966482093 5.82828112559958
4 C0 2 0 1 0
6  4 1 0
0

0101000
+11 0 -9 0 *
Ve
1e-07
71.40900657931 72.81500000004 6.26824235353
0 0

0101101
*
Ed
 1e-07 1 1 0
1  2 0 0 1.28074235353
2  5 1 0 0 1.28074235353
4 C0 1 0 3 0
6  5 4 0
0

0101000
+7 0 -9 0 *
Ve
0.00205511606986119
71.38500000007 72.75000000004 6.268242353539
0 0

0101101
*
Ed
 1e-07 1 1 0
1  3 0 0 0.707584436777719
2  6 1 0 0 0.707584436777719
2  7 4 0 0 0.707584436777719
4 G1 1 0 4 0
6  6 5 0
0

0101000
+5 0 -7 0 *
Ed
 0.00205511606986119 1 1 0
1  4 0 0 1.2808444439069
2  8 1 0 0 1.2808444439069
4 C0 5 0 1 0
6  7 6 0
0

0101000
+5 0 -16 0 *
Wi

0101100
+14 0 +12 0 +10 0 +8 0 -6 0 -4 0 +3 0 *
Fa
0  1e-07 1 0

0111000
+2 0 *

+1 0 