DBRep_DrawableShape

CASCADE Topology V3, (c) Open Cascade
Locations 0
Curve2ds 3
7 0 0  1 2 2  2.8096338564939876 0.0043251650344185988  2.8052437886764303 0.07432516503447506 
 0 2 0.070000413603768602 2
7 0 0  1 2 2  6.3267469865313863 0.074325165035191043  6.3318127351677047 0.0043251650351344706 
 0 2 0.070000413603768602 2
7 0 0  1 2 2  2.8096338564939876 0.0043251650344185988  2.8052437886764348 0.07432516503447506 
 0 2 0.070000413603768616 2
Curves 2
1 0.97845572566079997 -2.0783856435220001 -1.288965032181 -0.70735035937796398 -0.70685484698766399 0.0034197043602218263 
1 0.97845572566079997 -2.0783856435220001 -1.288965032181 -0.70735035937796409 -0.7068548469876641 0.0034197043602188265 
Polygon3D 0
PolygonOnTriangulations 2
3 7 8 3 
p 0.0166666666666667 1 0 0.0233334712012562 0.0700004136037686 
3 1 4 5 
p 0.0166666666666667 1 0 0.0233334712012562 0.0700004136037686 
Surfaces 3
2 1.014690963801 -2.1085041746109998 -1.3051387818939999 -0.70710678118629755 -0.70710678118679759 0 0.70710678118679759 -0.70710678118629755 0 0 0 1 0.050000000000429999
2 0.95907678206640001 -2.164118356346 -1.291010205152 0.70710678118669756 0.70710678118639758 0 -0.70710678118639758 0.70710678118669756 0 0 -0 1 0.04999999999976
1 0.96567066949879998 -2.1150980620439999 -1.2600000000080001 -0.58834840541292388 0.58834840541392386 0.55470019622762246 -0.39223227028001045 0.39223227027611052 -0.83205029433624822 -0.70710678118588199 -0.70710678118721326 2.686744713495132e-12 
Triangulations 2
12 10 1 0 0.00634153961746327
0.9904194068401 -2.090349324701 -1.331010205152 0.9383996840045 -2.137324551232 -1.327916992577 0.9289409079416 -2.127865775169 -1.288725651462 0.929172070704241 -2.1280969379321 -1.29828668899021 0.92910473319488 -2.12802960042253 -1.30984925248014 0.9310004673086 -2.12992533453605 -1.31575188409013 0.9784557256608 -2.078385643522 -1.288965032181 0.961950786421056 -2.09487902073765 -1.28888523860779 0.981974371320275 -2.08190428918262 -1.31918361534778 0.979827069411859 -2.07975698727413 -1.31422507612502 0.978813797752417 -2.07874371561414 -1.30294073285896 0.978769136780362 -2.0786990546417 -1.29438189616548 5.40310822333119 0.074325165035265 5.45043204557744 0.0043251650350643 6.3318127351677 0.00432516503513447 6.19960563171804 0.00432516503512196 6.00800512269161 0.00432516503510722 5.82501883864774 0.00432516503509313 6.32674698653139 0.074325165035191 6.32843556941016 0.0509918317018389 5.81361434030905 0.0743251650352321 5.95044971263501 0.0743251650352212 6.1385983495832 0.0743251650352061 6.25311197199802 0.0743251650351969 9 1 2 9 2 6 10 6 5 10 9 6 11 5 4 11 10 5 12 11 4 8 4 3 8 12 4 7 12 8 
6 4 1 0 0.00164071494672354
0.9784557256608 -2.078385643522 -1.288965032181 0.988539674668013 -2.08846959252987 -1.2657806300565 0.9986236236753 -2.098553541537 -1.242596227932 0.961950786421056 -2.09487902073765 -1.28888523860779 0.9289409079416 -2.127865775169 -1.288725651462 0.9491261489921 -2.14805101622 -1.242596227932 0.0334854472051357 -0.0350000000007596 0.00628435816824124 -0.0350000000002153 -0.0209167308683885 -0.0350000000002545 0.0334235899380853 -0.0116666666674071 0.0332998754044728 0.0349999999995431 -0.0209167308680691 0.0349999999998045 6 3 2 4 2 1 4 6 2 5 6 4 

TShapes 6
Ve
0.00724753242819772
0.9784557256608 -2.078385643522 -1.288965032181
0 0

0101101
*
Ve
0.00556240310499446
0.9289409079416 -2.127865775169 -1.288725651462
0 0

0101101
*
Ed
 0.00303627755253505 1 1 0
1  1 0 0 0.0700004136037686
2  1 1 0 0 0.0700004136037686
2  2 2 0 0 0.0700004136037686
4 C0 2 0 1 0
6  1 1 0
0

0101000
+6 0 -5 0 *
Ed
 0.00198930343265812 1 1 0
1  2 0 0 0.0700004136037686
2  3 1 0 0 0.0700004136037686
4 C0 1 0 3 0
6  2 2 0
0

0101000
+6 0 -5 0 *
Wi

0101100
-4 0 +3 0 *
Fa
0  1e-07 1 0

0111000
+2 0 *

+1 0 