DBRep_DrawableShape

CASCADE Topology V3, (c) Open Cascade
Locations 0
Curve2ds 2
7 0 0  1 2 2  6.6896187548473982 0.016418065768419865  3.3445416896874436 0.23952175782417129 
 0 2 1 2
7 0 0  1 2 2  6.6896187548473982 0.016418065768419865  3.3445416896874436 0.23952175782417129 
 0 2 0.22311221481953 2
Curves 2
7 0 0  3 6 4  40.503909886179997 57.25960895934 -0.43163797463159997  40.512967619530002 57.236687994569998 -0.43163797463159997  40.540352155539999 57.194279762720001 -0.42100641910980002  40.567275078820003 57.126602583550003 -0.42216462287079998  40.576683547439998 57.07469826661 -0.4297076350299  40.585646582560003 57.052016939609999 -0.4297076350299 
 0 4 0.33333333333330001 1 0.66666666666670005 1 1 4
1 40.503909886179997 57.25960895934 -0.43163797463159997 0.36634792247179737 -0.93043771672929332 0.0086518777255129384 
Polygon3D 0
PolygonOnTriangulations 2
13 33 42 43 44 45 46 47 48 49 50 51 52 53 
p 0.05 1 0 0.0492075 0.098415 0.164025 0.3620851875 0.45176585625 0.541446525 0.63112719375 0.7208078625 0.858381815662086 0.938447898778124 0.969223949389062 1 
2 34 35 
p 0.05 1 0 0.22311221481953 
Surfaces 3
2 40.504794789679998 57.277612163999997 -0.43385734195039999 0.367517000228401 -0.93001680336600245 0 -0.71349716842080813 -0.28195440992078247 0.64142302841550092 -0.59653419449232459 -0.23573386728068127 -0.76718739472066899 0.0099999999931910007
1 41.85445134471 58.047198377009998 -0.42385734195039998 0 0 1 -0.93001680336755155 -0.36751700022448092 0 0.36751700022448092 -0.93001680336755155 0 
1 41.231746929819998 55.997551549299999 -1.6327149918349999 0.91530702888926152 0.3617041028987848 0.17715299831529255 -0.16475526519954553 -0.065106738523177971 0.98418332397369046 0.36751700022575845 -0.93001680336704662 -1.4670583437953421e-12 
Triangulations 2
73 71 1 0 0.00644614919738673
43.45818691218 58.18812341696 -0.4267765891201 43.17408227854 58.0770253924 -0.4238573419504 43.37672327742 58.39486558328 -0.4292742133995 43.32264524735 58.44492830129 -0.4238573419504 43.3299082477637 58.4414125826203 -0.423937591897788 43.3345366435335 58.438745369595 -0.424005952964079 43.3423546604838 58.433050530082 -0.423894549744915 43.3480876954004 58.4274363678641 -0.423421362033557 43.3542449531583 58.4205082850803 -0.423142884287863 43.3579763793825 58.4164384445561 -0.423507386533864 43.3649052916554 58.4097577083765 -0.425446113929879 43.3717367944208 58.4028143955299 -0.427999954027288 40.51098588227 57.33383804062 -0.4238573419504 40.5835822670112 57.4852491920759 -0.4238573419504 40.6678534784147 57.6304867035273 -0.4238573419504 40.7632782220132 57.7686521482419 -0.4238573419504 40.8692662084612 57.8988908465336 -0.4238573419504 40.9851618050919 58.0203971528952 -0.4238573419504 41.1102480916046 58.132419439653 -0.4238573419504 41.2437512948733 58.2342647464719 -0.4238573419504 41.3848455754405 58.3253030669486 -0.4238573419504 41.5326581360909 58.4049712457781 -0.4238573419504 41.6862746208997 58.4727764623842 -0.4238573419504 41.8447447713614 58.5282992794656 -0.4238573419504 42.0070883046076 58.5711962375997 -0.4238573419504 42.1723009773535 58.601201979853 -0.4238573419504 42.3393607980615 58.6181308932568 -0.4238573419504 42.5072343488938 58.6218782569932 -0.4238573419504 42.6748831783473 58.6124208901887 -0.4238573419504 42.8412702250263 58.5898172953098 -0.4238573419504 43.005366232816 58.5542072962715 -0.4238573419504 43.1661561177731 58.5058111734981 -0.4238573419504 40.50390988618 57.25960895934 -0.4316379746316 40.5025367520999 57.2680078304765 -0.430081848095359 40.5029728522807 57.2740259396968 -0.427955782210453 40.5044000431237 57.2840711131372 -0.424402972425264 40.5048823536466 57.2920318513172 -0.422949520622777 40.5046820432098 57.2993009202349 -0.422913805620599 40.5044838932156 57.3051608532703 -0.423389999875483 40.505133172702 57.3148010339733 -0.424045404763719 40.5074706715604 57.3244046322759 -0.424011793250887 40.508201756359 57.2495625491109 -0.431316716601307 40.51296462153 57.2396944085662 -0.430458033212449 40.5198144497381 57.2267343169356 -0.4287495844007 40.540873343903 57.1879242896186 -0.423282409124533 40.5491899212918 57.169976594068 -0.422257794310933 40.5565165457013 57.1515774213035 -0.422292621724985 40.5628793838818 57.1326076968349 -0.423251560613212 40.5683310403652 57.1129739979374 -0.42498082907043 40.5760384589522 57.0823159709059 -0.428084382895819 40.5810767307245 57.0648849989525 -0.429356238102737 40.583267841171 57.0583790515282 -0.429615485178674 40.58564658256 57.05201693961 -0.4297076350299 40.87097920614 57.16605246002 -0.425813665449 43.0459363197483 58.1277319500588 -0.4238573419504 42.9141763103787 58.1681280102047 -0.4238573419504 42.7796303592862 58.1979596844621 -0.4238573419504 42.6431440849087 58.2170394813936 -0.4238573419504 42.5055753005747 58.2252474848815 -0.4238573419504 42.3677886231647 58.2225321077988 -0.4238573419504 42.2306500390125 58.2089104162326 -0.4238573419504 42.0950214611997 58.1844680222244 -0.4238573419504 41.96175531245 58.1493585457 -0.4238573419504 41.8316891676709 58.103802648972 -0.4238573419504 41.705640489813 58.0480866498813 -0.4238573419504 41.584401492133 57.982560722296 -0.4238573419504 41.4687341591498 57.9076366952756 -0.4238573419504 41.3593654575885 57.8237854647349 -0.4238573419504 41.2569827674099 57.7315340338724 -0.4238573419504 41.1622295616418 57.631462200967 -0.4238573419504 41.075701362165 57.5241989153577 -0.4238573419504 40.9979419968709 57.4104183245109 -0.4238573419504 40.9294401817148 57.2908355370174 -0.4238573419504 -1.54329337383812 0.458337429741123 -1.23824087792958 0.457247176695938 -1.54351208543987 0.236124470424546 -1.51161750872606 0.169690706065436 -1.5170801347764 0.175629659627032 -1.52040437448486 0.179811226687863 -1.52558231128312 0.187980777264751 -1.52885083003272 0.195309030258982 -1.53203099500823 0.204015160563772 -1.53400554851642 0.209171543210751 -1.53799426923924 0.21793123317006 -1.54179589609436 0.226899324191792 1.51161750572234 0.169690703037482 1.38845547586568 0.0555561935135049 1.25670457869158 -0.0485460297952962 1.1171798139118 -0.141971999510155 0.97074426985075 -0.224143790530926 0.818303784325539 -0.294553095149375 0.66080134121027 -0.352764367397426 0.499211237218037 -0.39841751729746 0.334533054984352 -0.43123013834828 0.167785479733998 -0.450999254467701 -2.21909878394831e-09 -0.45760257558533 -0.167785484158454 -0.450999254118531 -0.334533059367666 -0.431230137652099 -0.499211241533067 -0.398417516258576 -0.660801345430293 -0.352764366022265 -0.818303788424422 -0.294553093446443 -0.970744273803108 -0.224143788510757 -1.11717981769315 -0.141971997185247 -1.25670458227851 -0.0485460271800291 -1.38845547923597 0.0555561964029523 1.54547875026805 0.236124447069822 1.54366906011046 0.227808705665482 1.54105172216672 0.222372037196348 1.53603263869155 0.213554374001461 1.53265837518533 0.206328011043377 1.53017316085434 0.199494037314291 1.52820381866787 0.193971377633281 1.52405704754186 0.185244468841143 1.51835364868612 0.177172031615403 1.54517946543414 0.247045112649913 1.54437663020371 0.257973083094589 1.54276922886875 0.272543614399367 1.53744744825315 0.316377093554898 1.53630897476477 0.33612523557273 1.53625709973303 0.35592943443648 1.53731124953981 0.375910048148532 1.53945683552616 0.396173294472573 1.54355615285712 0.427518382128492 1.54527665397224 0.445581129472287 1.54562993071998 0.452437040237159 1.5457558455446 0.459228139125394 1.23875478303525 0.457768940779354 -1.13769850492987 0.362993407667981 -1.03000572104997 0.277000349549395 -0.915839373143628 0.199808466879535 -0.795916994276664 0.131902908997447 -0.670992294046927 0.0737104608886119 -0.541850421535526 0.0255968608503865 -0.409303030661571 -0.0121354981653996 -0.274183178954571 -0.0392494690857106 -0.137340091805599 -0.0555746411806095 0.000366174896207726 -0.0610084110910676 0.138070140196604 -0.0555166276888912 0.274906337605601 -0.0391338067158338 0.410014754535931 -0.0119629138528967 0.542546237463849 0.0258252824167862 0.671667828840949 0.073993284084227 0.796568002214617 0.132238356284515 0.916461762654513 0.200194429978998 1.03059558042899 0.277434402691392 1.13825212692342 0.363472822837755 8 5 4 8 6 5 8 7 6 9 8 4 10 9 4 3 11 10 3 12 11 2 1 3 2 10 4 2 3 10 55 2 4 55 4 32 56 55 32 56 32 31 57 56 31 57 31 30 58 57 30 58 30 29 59 58 29 59 29 28 60 28 27 60 59 28 61 60 27 61 27 26 62 26 25 62 61 26 63 25 24 63 62 25 64 23 22 64 24 23 64 63 24 65 22 21 65 64 22 66 21 20 66 65 21 67 20 19 67 66 20 68 19 18 68 67 19 69 68 18 17 69 18 70 69 17 16 70 17 71 70 16 15 71 16 72 71 15 14 72 15 73 72 14 13 73 14 54 73 13 39 41 40 38 13 41 38 41 39 37 13 38 33 35 34 42 36 35 42 35 33 43 36 42 44 37 36 44 13 37 44 36 43 45 54 13 45 13 44 46 54 45 47 54 46 48 54 47 49 54 48 50 54 49 51 54 50 52 54 51 53 54 52 
141 139 1 0 0.00534264542416951
41.48362701673 54.78633694355 -0.4267682303389 41.4853483897648 54.7810939249872 -0.427400290554489 41.4867118629889 54.7748582990739 -0.429371534554632 41.489137784184 54.7610121561927 -0.434819834583702 41.4909199476594 54.7543935576305 -0.436312247978609 41.4936604868148 54.7467459823416 -0.436820449809586 41.5062967313711 54.7169392977199 -0.435314376246892 41.5388067945195 54.634576886389 -0.435434051492368 41.5446788676438 54.6181913896267 -0.436234764893592 41.5472842583718 54.6111287751951 -0.43647721605041 41.5495595764608 54.6057195930712 -0.436286991110172 41.5518755581973 54.6010677542513 -0.435641607597233 41.5544629443474 54.5967344559171 -0.434464019212194 41.562057354653 54.5854436155712 -0.430252006754971 41.56508973621 54.57960116346 -0.4292742227387 41.5721678846338 55.0971598936656 -1.54729841237327 41.561950356853 55.4755421343338 -2.27397404400313 41.5508795942121 55.6146026698421 -2.49982259898372 41.5386581698765 55.7193168950766 -2.65026079270443 41.528980933421 55.7808469148351 -2.72592010913487 41.5200774397876 55.8277442803768 -2.77571016256185 41.5121959785581 55.8643962100728 -2.80984671964998 41.50301291776 55.90316801684 -2.841572626531 41.36521356475 56.25187492314 -2.841572639644 41.3472200943083 56.2833659793074 -2.81290394191982 41.329632035156 56.3128537582623 -2.78224269313864 41.3124173619457 56.3405296944345 -2.74981269255676 41.2955440493298 56.3665852222536 -2.7158377394305 41.2735219520918 56.3991361651197 -2.66852135594478 41.241353866367 56.4441919559772 -2.5943033770109 41.162160816616 56.5474449566558 -2.39583270975255 41.0728820871959 56.6553687151903 -2.15512403318818 40.8591896947898 56.8920534240589 -1.53450848445958 40.50390988618 57.25960895934 -0.4316379746316 40.58564658256 57.05201693961 -0.4297076350299 41.04258327121 56.66735247199 -2.022925240516 41.0471247073086 56.6633238652774 -2.03816429847424 41.0507508434442 56.6596323806274 -2.04936254387752 41.0527511057694 56.6573250393216 -2.05498637953544 41.0557551057056 56.6533412955646 -2.0623734732173 41.0705249756991 56.6294825542268 -2.08997199671886 41.0728795107207 56.6255811451973 -2.09417156889062 41.075129786333 56.6217181368533 -2.09791086274186 41.0783509515497 56.6159403899134 -2.10275707137811 41.0823528933388 56.6083439791799 -2.10792408818343 41.0843649175044 56.6043533515659 -2.11017182592383 41.0864141606993 56.6001801944301 -2.11223918377661 41.0910422865257 56.5904295429914 -2.11624309833062 41.0965427519921 56.5784702530745 -2.12024467029777 41.1018285569689 56.566590026621 -2.12329857173139 41.1063732120359 56.5559761160928 -2.12510864405748 41.1102722251636 56.5464940104638 -2.12589371465726 41.1139952075459 56.5370767402418 -2.12590165505475 41.1179434873295 56.5266824858551 -2.12507888478396 41.1221215243137 56.5152102710179 -2.12324227710133 41.1258831287394 56.5044099896987 -2.12062599005148 41.1290853339202 56.4947572267806 -2.11746237979666 41.1318039768587 56.4861299019583 -2.11389401911068 41.1344944423131 56.4770929269819 -2.1093436643744 41.1375821590744 56.4660222974222 -2.10269357496778 41.1404441973517 56.4550347894586 -2.09504717343762 41.1430900503663 56.4441269065612 -2.08644636989889 41.1445892448218 56.4371646609326 -2.07997710549697 41.1453597194561 56.4330655746716 -2.07558860811116 41.1459662171148 56.4293448263631 -2.07112535676188 41.1466587919348 56.423896152736 -2.06357883472702 41.1470364663232 56.4190577854038 -2.05565139739006 41.1477326382582 56.3997492691178 -2.01982497302249 41.147127554675 56.3967967821611 -2.01067037830409 41.1460249403282 56.3948880650608 -2.00107629022888 41.144454348486 56.393448608078 -1.99002239179752 41.14219454612 56.39226300018 -1.975925807195 40.93617104609 56.31084819302 -0.7452222370945 40.9426864736121 56.2550676507126 -0.664995344313311 40.9503949671942 56.2051147846079 -0.6028314609619 40.9579106569128 56.164869050008 -0.559491050322597 40.9656419006806 56.1288416723809 -0.525877233104892 40.9725722753597 56.0998106284281 -0.502410359544436 40.9795199341735 56.0730622193703 -0.483693384116017 40.9862072870624 56.0491056347851 -0.469331709044908 40.992576497483 56.0276455869074 -0.458423599702038 40.9992766858447 56.0062865006712 -0.449431713458196 41.003216679096 55.9942396663222 -0.445191955182218 41.00726221617 55.98222780983 -0.4415689329142 41.0210984776125 55.9402866803405 -0.426865286583025 41.02938039645 55.91758220273 -0.4238572394864 41.0389081597514 55.8952295769071 -0.426881741024001 41.05742851319 55.85527994302 -0.4415689328959 41.0659719611528 55.8366764734474 -0.447727037516325 41.074777939128 55.8181959485029 -0.455492595213122 41.0838443541955 55.7998418570654 -0.464861915840552 41.0931691134356 55.7816176880134 -0.475831309252876 41.1027501239283 55.7635269302256 -0.488397085304354 41.1125852927537 55.7455730725808 -0.502555553849248 41.122672526992 55.7277596039575 -0.518303024741818 41.1330097337233 55.7100900132346 -0.535635807836325 41.1471779047395 55.6867603991651 -0.561205848469008 41.163637664205 55.6608380347799 -0.593322199995065 41.1806418103457 55.6352694872489 -0.628973676468479 41.198183279557 55.6100665315377 -0.668147823647381 41.2139829479745 55.5883019412244 -0.705342825035767 41.23018464627 55.56683475033 -0.7452222370947 41.4362081463 55.64824955749 -1.975925807195 41.4390496621772 55.6489759861915 -1.9920904317033 41.4414536774172 55.648830843696 -2.00421505522952 41.4428570089003 55.6483369542457 -2.01045732795622 41.4451151527077 55.6468013106238 -2.01898919766449 41.457394024731 55.6327851137126 -2.05381345690361 41.4594217583361 55.6303480182522 -2.05931430308605 41.4613976969815 55.6278077389535 -2.06433686039302 41.4648518031463 55.6229722452911 -2.07231047510596 41.4666773472311 55.6202235569923 -2.07613045841624 41.4685340952039 55.6173016190115 -2.07975793026338 41.4720615001338 55.611443589904 -2.08602248899429 41.4775930462455 55.6016857822734 -2.09467954811511 41.4830196399242 55.5917188926208 -2.10236744765809 41.4883390975485 55.5815385708237 -2.10906602346651 41.4925578558221 55.573113210998 -2.11366076298729 41.4966893483941 55.5645140039471 -2.11744966706883 41.5007382098881 55.5557501825818 -2.12047553309724 41.5051486868413 55.5458367791647 -2.1230226074969 41.5099510472571 55.534626317081 -2.12494616576349 41.5140701845395 55.5246412727944 -2.12584168446695 41.5178052228034 55.5152385251397 -2.1259415663365 41.5214569857618 55.5056698797654 -2.12527246117172 41.5250213827237 55.4959271873613 -2.12379659440834 41.5285050218872 55.4860236125142 -2.1215749879612 41.5319168530202 55.4759769845928 -2.11869028644518 41.5352651900144 55.4658038661988 -2.11521926262151 41.5382034085214 55.456498080314 -2.11140014078324 41.539907010135 55.4507964149554 -2.1085608028799 41.5413351446329 55.4457562450696 -2.10564880822968 41.5425966197025 55.4410411664707 -2.10253948305727 41.5443710263136 55.433842282283 -2.09700901440503 41.545993278216 55.4264476311815 -2.09029268961855 41.5493962850996 55.4094655317748 -2.07320181936958 41.5511102163325 55.4014173336626 -2.06562479282017 41.5519738689081 55.3954961189184 -2.05799737241882 41.5522336396443 55.3909191246007 -2.04999441646089 41.5521266234945 55.38561143218 -2.03860444970656 41.5515551158 55.37937839836 -2.022925240517 1.22423235437892 1.21902014978795 1.22366804182307 1.22452887900491 1.22190931822388 1.23082921547298 1.21704898610553 1.24459792829476 1.21571747227976 1.25140831154666 1.21526369894184 1.25952787979978 1.21660467962581 1.29189263204405 1.21649304114792 1.38043905943308 1.21580434365956 1.39783593345334 1.2155962992249 1.40536180893512 1.21576081900988 1.41122865728151 1.21631729056937 1.41640610821092 1.21733209485069 1.42138705687207 1.22096137797764 1.43467880301184 1.22180447887523 1.44122683342151 0.0866009924991168 0.962489857478519 -0.651532888194829 0.606832900402765 -0.88103908123965 0.473435572219179 -1.03390190046277 0.371558001989417 -1.11077618124597 0.310777500790042 -1.16136515858954 0.263889977530966 -1.19604956418162 0.22690649604944 -1.22828502093959 0.1874731333017 -1.2282850342658 -0.187473753858727 -1.19915554101084 -0.223373871530657 -1.16800137903225 -0.257261912192163 -1.13504999515277 -0.289327682939325 -1.10052883619509 -0.319760990868223 -1.05245186987287 -0.358127409814775 -0.977041346766884 -0.41185237076995 -0.775384819956509 -0.536984188482663 -0.530800777731143 -0.670166548223078 0.0997958732555694 -0.968822891599935 1.2198265144899 -1.44122708508461 1.22177541079493 -1.21812339302887 -0.396481264387617 -0.692446973366658 -0.411965227171759 -0.687031246467358 -0.423343438050227 -0.682265437038549 -0.429057653604295 -0.679384440443638 -0.436563464261628 -0.674575470764081 -0.464605519872118 -0.646958262098909 -0.468872582795751 -0.6424645544966 -0.472671970328703 -0.638044877282443 -0.477596061723242 -0.63148764256505 -0.482846116951169 -0.622952071296147 -0.485129977778327 -0.618501267473475 -0.487230559857282 -0.613867029502325 -0.491298820776224 -0.603097844900201 -0.495364701461064 -0.589953989753094 -0.498467681728527 -0.576962556334702 -0.500306843480402 -0.565421203196721 -0.501104530842871 -0.555169732021863 -0.501112598849438 -0.545043253156565 -0.500276605949814 -0.53392536197634 -0.498410482395532 -0.521720509786682 -0.495752149353252 -0.510293613104177 -0.492537697149364 -0.500139516549217 -0.488911989825255 -0.491116811998908 -0.484288506958257 -0.481723481626323 -0.477531544871164 -0.47029282171026 -0.469762259064165 -0.459022406954774 -0.461023233184029 -0.447905496608088 -0.454450002115701 -0.44087951173532 -0.449990977786613 -0.436784130107756 -0.445455998133321 -0.433100873459642 -0.437788196971614 -0.427778982410042 -0.429733358869969 -0.423140417732019 -0.393331172920471 -0.404927318116759 -0.384029455958379 -0.402403834138711 -0.374281182601749 -0.401033924679736 -0.363049638475823 -0.400272424700421 -0.34872650958353 -0.400000305223921 0.901755529810731 -0.400000305226925 0.983271738013592 -0.34572893320215 1.04643464864906 -0.296438925910925 1.09047157712095 -0.256247572729224 1.12462559741928 -0.219900142637254 1.14846960391278 -0.190353753429404 1.16748737730872 -0.162923900816502 1.18207985690782 -0.138186158727855 1.19316326899307 -0.115887160492905 1.20229966261758 -0.0935604182611151 1.20660755747147 -0.0809086453885441 1.21028880483635 -0.068250613361419 1.22217195979304 -0.0233562765688283 1.2282851361277 -3.0522761752722e-07 1.22213852217128 0.023481919831127 1.21028880485523 0.0682500029167071 1.20403173417478 0.0886914045870971 1.19614137725693 0.109114949929959 1.18662148355164 0.129516625045859 1.17547580250888 0.149892416035364 1.1627080835786 0.170238308999042 1.14832207621075 0.190550290037459 1.13232152985531 0.210824345251182 1.11471019396222 0.231056460740778 1.08872922068811 0.257960437552082 1.05609673165335 0.288117913436546 1.01987230516479 0.318146405059113 0.980068595616027 0.348032365509197 0.942275838444794 0.374080446960423 0.901755529811553 0.399999694771022 -0.34872650958251 0.399999694776622 -0.365150913567326 0.400368409269061 -0.377470390265192 0.40138691069833 -0.383812981705875 0.402361984363085 -0.392481965929155 0.404620064973609 -0.427865881091186 0.42216805783256 -0.433455130622654 0.425179824133926 -0.438558404763352 0.428268517610572 -0.446660162351312 0.434035050705332 -0.450541536092615 0.437262295496264 -0.45422730454532 0.440662133361994 -0.460592540145673 0.447406580144954 -0.469388725683674 0.458514442439061 -0.47720017641242 0.469778182723543 -0.484006404119723 0.481201044167387 -0.488674985073116 0.49058723576515 -0.492524780115713 0.500103036574677 -0.495599274424569 0.509741563136699 -0.498187282509548 0.520582120152501 -0.500141754018514 0.532772987357925 -0.501051664480611 0.543573099304333 -0.501153151537734 0.553690502679533 -0.50047329327481 0.563931588631101 -0.49897370805776 0.574302432756036 -0.496716398476284 0.584793220392434 -0.493785337315582 0.595390659119821 -0.490258531141434 0.606082400936757 -0.486378032716955 0.615816783429759 -0.483493064201365 0.621745530575057 -0.480534271282184 0.62695783696729 -0.477374976568865 0.631806552826893 -0.471755628508881 0.639153760681858 -0.464931366582315 0.646627115613982 -0.447565831287012 0.663671416300319 -0.439867035376509 0.671786274646787 -0.432117035741603 0.67761051085901 -0.423985465369604 0.681962662645109 -0.41241245201263 0.686859575529061 -0.396481264390271 0.692446362924142 42 32 41 40 41 32 43 32 42 44 32 43 39 40 32 45 32 44 38 39 32 46 32 45 47 32 46 37 38 32 48 32 47 36 37 32 49 32 48 50 32 49 51 31 32 51 32 50 52 31 51 53 31 52 23 24 25 54 31 53 55 31 54 56 31 55 57 31 56 58 31 57 22 25 26 22 23 25 59 31 58 60 31 59 61 31 60 62 31 61 21 26 27 21 22 26 63 31 62 63 30 31 64 30 63 65 30 64 33 36 32 66 30 65 20 27 28 20 28 29 20 21 27 19 29 30 19 20 29 112 113 18 114 18 113 111 112 18 115 18 114 110 18 19 110 30 66 110 19 30 110 111 18 109 110 66 109 66 67 116 18 115 108 109 67 108 67 68 117 18 116 118 17 18 118 18 117 35 33 34 119 17 118 107 108 68 107 68 69 120 17 119 106 107 69 121 17 120 105 106 69 105 69 70 122 17 121 104 105 70 104 70 71 123 17 122 103 71 72 103 104 71 124 17 123 125 17 124 126 17 125 127 17 126 128 17 127 129 17 128 130 17 129 131 17 130 132 17 131 133 17 132 134 17 133 135 17 134 136 17 135 137 17 136 138 17 137 139 17 138 140 17 139 16 140 141 87 84 85 87 85 86 88 84 87 88 83 84 89 83 88 89 82 83 102 72 73 102 103 72 90 82 89 90 81 82 91 81 90 91 80 81 101 102 73 101 73 74 92 80 91 92 79 80 100 101 74 93 78 79 93 79 92 99 74 75 99 100 74 94 78 93 95 77 78 95 78 94 98 75 76 98 99 75 96 76 77 96 77 95 97 98 76 97 76 96 3 1 2 4 16 1 4 1 3 5 16 4 6 16 5 7 16 6 8 16 7 9 16 8 10 16 9 11 16 10 12 16 11 13 16 12 15 13 14 15 16 13 16 17 140 35 36 33 141 1 16 

TShapes 6
Ve
0.0187617671399262
40.50390988618 57.25960895934 -0.4316379746316
0 0

0101101
*
Ve
0.0187617671399262
40.58564658256 57.05201693961 -0.4297076350299
0 0

0101101
*
Ed
 0.0187617671372886 1 1 0
1  1 0 0 1
2  1 1 0 0 1
4 C0 2 0 1 0
6  1 1 0
0

0101000
+6 0 -5 0 *
Ed
 0.0187617671399262 1 1 0
1  2 0 0 0.22311221481953
2  2 1 0 0 0.22311221481953
4 C0 3 0 1 0
6  2 2 0
0

0101000
+6 0 -5 0 *
Wi

0101100
-4 0 +3 0 *
Fa
0  1e-07 1 0

0111000
+2 0 *

+1 0 