DBRep_DrawableShape

CASCADE Topology V3, (c) Open Cascade
Locations 0
Curve2ds 3
7 0 0  1 2 2  2.8096338564550787 0.0043251650340572212  2.8052437886743022 0.074325165034682783 
 0 2 0.070000413604332651 2
7 0 0  1 2 2  6.3267469865715302 0.074325165031254414  6.3318127351799358 0.0043251650306288525 
 0 2 0.070000413604332651 2
7 0 0  1 2 2  2.8096338564550787 0.0043251650340572212  2.8052437886743689 0.074325165034682783 
 0 2 0.070000413604332651 2
Curves 2
1 31.728455725660002 -1.328385643521 -1.288965032179 -0.7073503593952003 -0.70685484697050038 0.0034197043427090018 
1 31.728455725660002 -1.328385643521 -1.288965032179 -0.70735035939530033 -0.70685484697040035 0.0034197043427120015 
Polygon3D 0
PolygonOnTriangulations 2
3 1 4 5 
p 0.0166666666666667 1 0 0.0233334712014442 0.0700004136043327 
3 7 8 3 
p 0.0166666666666667 1 0 0.0233334712014442 0.0700004136043327 
Surfaces 3
2 31.7646909638 -1.3585041746099999 -1.3051387818939999 -0.70710678118304759 -0.70710678119004766 0 0.70710678119004766 -0.70710678118304759 0 0 0 1 0.050000000003599998
1 31.7156706695 -1.365098062043 -1.2600000000060001 -0.58834840540551736 0.58834840540021727 0.55470019625001632 -0.39223227031864527 0.39223227026914531 -0.83205029432131894 -0.70710678117061376 -0.70710678120248138 2.7044350992617538e-11 
2 31.709076782069999 -1.4141183563440001 -1.291010205152 0.70710678118849757 0.70710678118459758 0 -0.70710678118459758 0.70710678118849757 0 0 -0 1 0.049999999997869998
Triangulations 2
6 4 1 0 0.00164071494633706
31.72845572566 -1.328385643521 -1.288965032179 31.7385396746662 -1.33846959252938 -1.2657806300555 31.74862362368 -1.348553541537 -1.242596227932 31.7119507864197 -1.34487902073639 -1.2888852386062 31.67894090794 -1.377865775168 -1.288725651461 31.69912614899 -1.398051016218 -1.242596227931 0.0334854472047375 -0.035000000000417 0.00628435816888339 -0.0349999999979663 -0.0209167308696177 -0.0350000000013476 0.033423589939095 -0.0116666666668745 0.0332998754075186 0.0350000000013719 -0.0209167308657205 0.0350000000021053 6 3 2 4 2 1 4 6 2 5 6 4 
12 10 1 0 0.00634153961741189
31.74041940684 -1.340349324701 -1.331010205153 31.688399684 -1.387324551231 -1.327916992577 31.67894090794 -1.377865775168 -1.288725651461 31.679172070703 -1.37809693793041 -1.29828668899026 31.6791047331956 -1.37802960041921 -1.30984925247995 31.6810004673104 -1.37992533453292 -1.31575188409046 31.72845572566 -1.328385643521 -1.288965032179 31.7119507864197 -1.34487902073638 -1.2888852386062 31.7319743713193 -1.33190428917854 -1.31918361534373 31.7298270694108 -1.32975698727077 -1.31422507612185 31.7288137977544 -1.32874371561228 -1.30294073285681 31.7287691367825 -1.32869905464065 -1.29438189616748 5.40310822339232 0.0743251650291725 5.45043204565201 0.00432516502854341 6.33181273517994 0.00432516503062885 6.19960563174467 0.00432516503031604 6.00800512274856 0.00432516502986269 5.82501883869834 0.00432516502942972 6.32674698657153 0.0743251650312544 6.328435569441 0.0509918316977126 5.81361434036086 0.0743251650300978 5.9504497126837 0.0743251650304062 6.13859834962762 0.0743251650308303 6.25311197198671 0.0743251650310884 9 1 2 9 2 6 10 6 5 10 9 6 11 5 4 11 10 5 12 11 4 8 4 3 8 12 4 7 12 8 

TShapes 6
Ve
0.00724753242622922
31.72845572566 -1.328385643521 -1.288965032179
0 0

0101101
*
Ve
0.00556240310618821
31.67894090794 -1.377865775168 -1.288725651461
0 0

0101101
*
Ed
 0.00198930343253982 1 1 0
1  1 0 0 0.0700004136043327
2  1 1 0 0 0.0700004136043327
4 C0 1 0 2 0
6  1 1 0
0

0101000
+6 0 -5 0 *
Ed
 0.00303627754796905 1 1 0
1  2 0 0 0.0700004136043327
2  2 3 0 0 0.0700004136043327
2  3 1 0 0 0.0700004136043327
4 C0 3 0 1 0
6  2 2 0
0

0101000
+6 0 -5 0 *
Wi

0101100
-4 0 +3 0 *
Fa
0  1e-07 1 0

0111000
+2 0 *

-1 0 