DBRep_DrawableShape

CASCADE Topology V3, (c) Open Cascade
Locations 0
Curve2ds 3
7 0 0  1 2 2  2.8096338564741492 0.0043251650340607739  2.8052437886827857 0.074325165035389773 
 0 2 0.070000413605037948 2
7 0 0  1 2 2  2.8096338564741492 0.0043251650340607739  2.8052437886827857 0.074325165035389773 
 0 2 0.070000413605037948 2
7 0 0  1 2 2  6.3267469865502459 0.074325165031247309  6.331812735165804 0.0043251650299183098 
 0 2 0.070000413605037948 2
Curves 2
1 32.771544274340002 2.828385643521 -1.2889650321720001 0.70735035938779256 0.70685484697789247 0.0034197043469559639 
1 32.771544274340002 2.828385643521 -1.2889650321720001 0.70735035938779256 0.70685484697789247 0.0034197043469559639 
Polygon3D 0
PolygonOnTriangulations 2
3 1 4 5 
p 0.0166666666666667 1 0 0.0233334712016793 0.0700004136050379 
3 7 8 3 
p 0.0166666666666667 1 0 0.0233334712016793 0.0700004136050379 
Surfaces 3
2 32.7353090362 2.8585041746100002 -1.3051387818860001 0.70710678118304759 0.70710678119004766 0 -0.70710678119004766 0.70710678118304759 0 0 -0 1 0.050000000003240001
1 32.7843293305 2.8650980620430002 -1.26 0.58834840545482636 -0.58834840539662636 0.55470019620152489 0.39223227023500667 -0.39223227028420671 -0.83205029435364652 0.70710678117598047 0.70710678119711456 -5.1774673050509292e-11 
2 32.790923217930001 2.9141183563439998 -1.291010205144 -0.70710678118854764 -0.70710678118454762 0 0.70710678118454762 -0.70710678118854764 0 0 0 1 0.049999999997869998
Triangulations 2
6 4 1 0 0.00164071494571412
32.77154427434 2.828385643521 -1.288965032172 32.76146032533 2.8384695925285 -1.265780630047 32.75137637632 2.848553541536 -1.242596227922 32.7880492135803 2.84487902073673 -1.2888852385991 32.82105909206 2.877865775169 -1.288725651453 32.80087385101 2.898051016219 -1.242596227923 0.0334854472064656 -0.0349999999980032 0.00628435816817615 -0.0350000000007615 -0.0209167308701087 -0.0350000000035108 0.0334235899389731 -0.0116666666642319 0.0332998754031153 0.0350000000033123 -0.0209167308697803 0.0350000000013565 6 3 2 4 2 1 4 6 2 5 6 4 
12 10 1 0 0.0063415396189259
32.75958059316 2.8403493247 -1.331010205148 32.811600316 2.887324551231 -1.327916992569 32.82105909206 2.877865775169 -1.288725651453 32.820827929297 2.87809693793058 -1.29828668898226 32.8208952668044 2.87802960041921 -1.30984925247195 32.8189995326896 2.87992533453292 -1.31575188408246 32.77154427434 2.828385643521 -1.288965032172 32.7880492135803 2.84487902073673 -1.2888852385991 32.7680256286807 2.83190428918189 -1.31918361534316 32.7701729305892 2.82975698727296 -1.31422507611996 32.7711862022456 2.82874371561338 -1.30294073285211 32.7712308632175 2.82869905464122 -1.29438189616137 5.40310822326135 0.0743251650348284 5.45043204565207 0.00432516502853986 6.3318127351658 0.00432516502991831 6.1996056317453 0.00432516502971154 6.00800512274921 0.00432516502941188 5.82501883869868 0.0043251650291257 6.32674698655025 0.0743251650312473 6.3284355694221 0.050991831697471 5.81361434027864 0.0743251650332368 5.95044971261773 0.0743251650327063 6.13859834958399 0.0743251650319768 6.25311197195544 0.0743251650315328 9 1 2 9 2 6 10 6 5 10 9 6 11 5 4 11 10 5 12 11 4 8 4 3 8 12 4 7 12 8 

TShapes 6
Ve
0.00724753242923704
32.77154427434 2.828385643521 -1.288965032172
0 0

0101101
*
Ve
0.00556240310621364
32.82105909206 2.877865775169 -1.288725651453
0 0

0101101
*
Ed
 0.00198930343134043 1 1 0
1  1 0 0 0.0700004136050379
2  1 1 0 0 0.0700004136050379
4 C0 2 0 1 0
6  1 1 0
0

0101000
+6 0 -5 0 *
Ed
 0.00303627754800301 1 1 0
1  2 0 0 0.0700004136050379
2  2 1 0 0 0.0700004136050379
2  3 3 0 0 0.0700004136050379
4 C0 1 0 3 0
6  2 2 0
0

0101000
+6 0 -5 0 *
Wi

0101100
-4 0 +3 0 *
Fa
0  1e-07 1 0

0111000
+2 0 *

-1 0 