DBRep_DrawableShape

CASCADE Topology V3, (c) Open Cascade
Locations 0
Curve2ds 3
7 0 0  1 2 2  2.8096338564597581 0.0043251650332578606  2.8052437886885091 0.074325165036007945 
 0 2 0.070000413606453413 2
7 0 0  1 2 2  6.3267469865736894 0.074325165029257789  6.3318127351736964 0.0043251650265148101 
 0 2 0.070000413606453413 2
7 0 0  1 2 2  2.8096338564597581 0.0043251650332578606  2.805243788688546 0.07432516503600084 
 0 2 0.070000413606453413 2
Curves 2
1 26.771544274339998 32.828385643520001 -1.288965032171 0.70735035939686342 0.70685484696886347 0.0034197043370408232 
1 26.771544274339998 32.828385643520001 -1.288965032171 0.70735035939691349 0.7068548469688134 0.0034197043370440649 
Polygon3D 0
PolygonOnTriangulations 2
3 1 4 5 
p 0.0166666666666667 1 0 0.0233334712021511 0.0700004136064534 
3 7 8 3 
p 0.0166666666666667 1 0 0.0233334712021511 0.0700004136064534 
Surfaces 3
2 26.7353090362 32.858504174609998 -1.3051387818860001 0.70710678118154768 0.70710678119154757 0 -0.70710678119154757 0.70710678118154768 0 0 -0 1 0.050000000004740003
1 26.7843293305 32.865098062050002 -1.2599999999980001 0.58834840544072087 -0.58834840538792088 0.55470019622571975 0.39223227022726498 -0.39223227032616498 -0.83205029433751665 0.70710678119201142 0.70710678118108383 -7.8897527177259578e-11 
2 26.790923217930001 32.914118356339998 -1.291010205144 -0.70710678118654757 -0.70710678118654757 0 0.70710678118654757 -0.70710678118654757 0 0 0 1 0.049999999997419997
Triangulations 2
6 4 1 0 0.00164071494337174
26.77154427434 32.82838564352 -1.288965032171 26.76146032533 32.8384695925337 -1.26578063004612 26.75137637632 32.84855354154 -1.242596227922 26.7880492135808 32.8448790207359 -1.28888523859833 26.82105909206 32.87786577517 -1.288725651453 26.80087385101 32.89805101622 -1.242596227923 0.0334854472116069 -0.0350000000024938 0.00628435817100221 -0.0350000000017819 -0.0209167308660389 -0.0350000000063737 0.0334235899436532 -0.0116666666682515 0.033299875405875 0.0349999999999896 -0.0209167308671248 0.034999999996374 6 3 2 4 2 1 4 6 2 5 6 4 
12 10 1 0 0.00634153961956472
26.75958059316 32.8403493247 -1.331010205149 26.811600316 32.88732455123 -1.327916992569 26.82105909206 32.87786577517 -1.288725651453 26.820827929297 32.8780969379307 -1.29828668898226 26.8208952668045 32.8780296004174 -1.30984925247177 26.8189995326896 32.8799253345314 -1.31575188408246 26.77154427434 32.82838564352 -1.288965032171 26.7880492135808 32.8448790207358 -1.28888523859833 26.7680256286807 32.8319042891793 -1.31918361534561 26.7701729305892 32.8297569872708 -1.31422507612202 26.7711862022456 32.8287437156144 -1.30294073285287 26.7712308632174 32.8286990546426 -1.29438189616424 5.40310822317061 0.0743251650292578 5.45043204562038 0.00432516502651481 6.3318127351737 0.00432516502651481 6.19960563174366 0.00432516502651481 6.00800512274396 0.00432516502651481 5.82501883868202 0.00432516502651481 6.32674698657369 0.0743251650292578 6.32843556944036 0.0509918316950101 5.81361434023864 0.0743251650292578 5.95044971259466 0.0743251650292578 6.13859834958417 0.0743251650292578 6.25311197192776 0.0743251650292578 9 1 2 9 2 6 10 6 5 10 9 6 11 5 4 11 10 5 12 11 4 8 4 3 8 12 4 7 12 8 

TShapes 6
Ve
0.00724753243051439
26.77154427434 32.82838564352 -1.288965032171
0 0

0101101
*
Ve
0.00556240310634442
26.82105909206 32.87786577517 -1.288725651453
0 0

0101101
*
Ed
 0.00198930342803021 1 1 0
1  1 0 0 0.0700004136064534
2  1 1 0 0 0.0700004136064534
4 C0 1 0 2 0
6  1 1 0
0

0101000
+6 0 -5 0 *
Ed
 0.003036277549843 1 1 0
1  2 0 0 0.0700004136064534
2  2 3 0 0 0.0700004136064534
2  3 1 0 0 0.0700004136064534
4 C0 3 0 1 0
6  2 2 0
0

0101000
+6 0 -5 0 *
Wi

0101100
-4 0 +3 0 *
Fa
0  1e-07 1 0

0111000
+2 0 *

-1 0 