DBRep_DrawableShape

CASCADE Topology V3, (c) Open Cascade
Locations 0
Curve2ds 3
7 0 0  1 2 2  2.8096338564597767 0.0043251650332507552  2.8052437886884194 0.07432516503600084 
 0 2 0.070000413606453413 2
7 0 0  1 2 2  6.3267469865736858 0.074325165029257789  6.3318127351737985 0.0043251650265148101 
 0 2 0.070000413606453413 2
7 0 0  1 2 2  2.8096338564597767 0.0043251650332507552  2.8052437886884589 0.07432516503600084 
 0 2 0.070000413606453413 2
Curves 2
1 28.271544274339998 29.828385643520001 -1.288965032171 0.70735035939681334 0.70685484696891321 0.0034197043371080641 
1 28.271544274339998 29.828385643520001 -1.288965032171 0.7073503593968633 0.70685484696886325 0.0034197043371078221 
Polygon3D 0
PolygonOnTriangulations 2
3 1 4 5 
p 0.0166666666666667 1 0 0.0233334712021511 0.0700004136064534 
3 7 8 3 
p 0.0166666666666667 1 0 0.0233334712021511 0.0700004136064534 
Surfaces 3
2 28.2353090362 29.858504174610001 -1.3051387818860001 0.70710678118154768 0.70710678119154757 0 -0.70710678119154757 0.70710678118154768 0 0 -0 1 0.050000000004729997
1 28.2843293305 29.865098062049999 -1.2599999999980001 0.58834840544078626 -0.58834840538788624 0.55470019622568711 0.39223227022719193 -0.3922322703261919 -0.83205029433753841 0.70710678119199755 0.70710678118109771 -7.8995581996583868e-11 
2 28.290923217930001 29.914118356340001 -1.291010205144 -0.70710678118654757 -0.70710678118654757 0 0.70710678118654757 -0.70710678118654757 0 0 0 1 0.049999999997419997
Triangulations 2
6 4 1 0 0.00164071494337715
28.27154427434 29.82838564352 -1.288965032171 28.26146032533 29.8384695925338 -1.26578063004612 28.25137637632 29.84855354154 -1.242596227922 28.2880492135808 29.8448790207358 -1.28888523859833 28.32105909206 29.87786577517 -1.288725651453 28.30087385101 29.89805101622 -1.242596227923 0.0334854472116079 -0.0350000000024915 0.00628435817100251 -0.0350000000017792 -0.0209167308660374 -0.0350000000063727 0.0334235899436498 -0.0116666666682491 0.0332998754058702 0.0349999999999844 -0.0209167308671354 0.0349999999963725 6 3 2 4 2 1 4 6 2 5 6 4 
12 10 1 0 0.00634153961955182
28.25958059316 29.8403493247 -1.331010205149 28.311600316 29.88732455123 -1.327916992569 28.32105909206 29.87786577517 -1.288725651453 28.320827929297 29.8780969379307 -1.29828668898226 28.3208952668044 29.8780296004174 -1.30984925247194 28.3189995326896 29.8799253345314 -1.31575188408246 28.27154427434 29.82838564352 -1.288965032171 28.2880492135808 29.8448790207358 -1.28888523859833 28.2680256286807 29.8319042891793 -1.31918361534561 28.2701729305892 29.8297569872708 -1.31422507612202 28.2711862022456 29.8287437156144 -1.30294073285287 28.2712308632174 29.8286990546426 -1.29438189616424 5.40310822317071 0.0743251650292578 5.45043204562042 0.00432516502651481 6.3318127351738 0.00432516502651481 6.19960563174367 0.00432516502651481 6.00800512273995 0.00432516502651481 5.82501883868205 0.00432516502651481 6.32674698657369 0.0743251650292578 6.32843556944039 0.0509918316950101 5.8136143402387 0.0743251650292578 5.9504497125947 0.0743251650292578 6.13859834958419 0.0743251650292578 6.2531119719278 0.0743251650292578 9 1 2 9 2 6 10 6 5 10 9 6 11 5 4 11 10 5 12 11 4 8 4 3 8 12 4 7 12 8 

TShapes 6
Ve
0.00724753243051471
28.27154427434 29.82838564352 -1.288965032171
0 0

0101101
*
Ve
0.00556240310634564
28.32105909206 29.87786577517 -1.288725651453
0 0

0101101
*
Ed
 0.00198930342803341 1 1 0
1  1 0 0 0.0700004136064534
2  1 1 0 0 0.0700004136064534
4 C0 1 0 2 0
6  1 1 0
0

0101000
+6 0 -5 0 *
Ed
 0.003036277549843 1 1 0
1  2 0 0 0.0700004136064534
2  2 3 0 0 0.0700004136064534
2  3 1 0 0 0.0700004136064534
4 C0 3 0 1 0
6  2 2 0
0

0101000
+6 0 -5 0 *
Wi

0101100
-4 0 +3 0 *
Fa
0  1e-07 1 0

0111000
+2 0 *

-1 0 