DBRep_DrawableShape

CASCADE Topology V3, (c) Open Cascade
Locations 0
Curve2ds 3
7 0 0  1 2 2  2.8096338564598011 0.0043251650332507552  2.8052437886883248 0.074325165035993734 
 0 2 0.070000413606453399 2
7 0 0  1 2 2  6.3267469865736858 0.074325165029257789  6.3318127351738482 0.0043251650265148101 
 0 2 0.070000413606453399 2
7 0 0  1 2 2  2.8096338564598011 0.0043251650332507552  2.8052437886883776 0.074325165035993734 
 0 2 0.070000413606453399 2
Curves 2
1 29.021544274339998 29.078385643520001 -1.288965032171 0.70735035939671331 0.70685484696901324 0.003419704337139064 
1 29.021544274339998 29.078385643520001 -1.288965032171 0.70735035939681323 0.70685484696891321 0.0034197043371420638 
Polygon3D 0
PolygonOnTriangulations 2
3 1 4 5 
p 0.0166666666666667 1 0 0.0233334712021511 0.0700004136064534 
3 7 8 3 
p 0.0166666666666667 1 0 0.0233334712021511 0.0700004136064534 
Surfaces 3
2 28.9853090362 29.108504174610001 -1.3051387818860001 0.70710678118154768 0.70710678119154757 0 -0.70710678119154757 0.70710678118154768 0 0 -0 1 0.050000000004729997
1 29.0343293305 29.115098062049999 -1.2599999999980001 0.58834840544078626 -0.58834840538788624 0.55470019622568711 0.3922322702271418 -0.39223227032624186 -0.8320502943375383 0.70710678119202519 0.70710678118106984 -7.9054452325467653e-11 
2 29.040923217930001 29.164118356340001 -1.291010205144 -0.70710678118654757 -0.70710678118654757 0 0.70710678118654757 -0.70710678118654757 0 0 0 1 0.049999999997409998
Triangulations 2
6 4 1 0 0.00164071494337715
29.02154427434 29.07838564352 -1.288965032171 29.01146032533 29.0884695925338 -1.26578063004612 29.00137637632 29.09855354154 -1.242596227922 29.0380492135808 29.0948790207359 -1.28888523859833 29.07105909206 29.12786577517 -1.288725651453 29.05087385101 29.14805101622 -1.242596227923 0.0334854472116104 -0.0350000000024891 0.00628435817100498 -0.0350000000017788 -0.020916730866035 -0.0350000000063741 0.0334235899436485 -0.0116666666682459 0.0332998754058677 0.0349999999999868 -0.0209167308671377 0.034999999996371 6 3 2 4 2 1 4 6 2 5 6 4 
12 10 1 0 0.00634153961955184
29.00958059316 29.0903493247 -1.331010205149 29.061600316 29.13732455123 -1.327916992569 29.07105909206 29.12786577517 -1.288725651453 29.070827929297 29.1280969379307 -1.29828668898226 29.0708952668044 29.1280296004174 -1.30984925247194 29.0689995326896 29.1299253345314 -1.31575188408246 29.02154427434 29.07838564352 -1.288965032171 29.0380492135808 29.0948790207358 -1.28888523859833 29.0180256286807 29.0819042891793 -1.31918361534561 29.0201729305892 29.0797569872708 -1.31422507612202 29.0211862022456 29.0787437156144 -1.30294073285287 29.0212308632174 29.0786990546426 -1.29438189616424 5.40310822317071 0.0743251650292578 5.45043204562043 0.00432516502651481 6.33181273517385 0.00432516502651481 6.19960563174367 0.00432516502651481 6.00800512273996 0.00432516502651481 5.82501883868205 0.00432516502651481 6.32674698657369 0.0743251650292578 6.32843556944041 0.0509918316950101 5.8136143402387 0.0743251650292578 5.9504497125947 0.0743251650292578 6.13859834958419 0.0743251650292578 6.2531119719278 0.0743251650292578 9 1 2 9 2 6 10 6 5 10 9 6 11 5 4 11 10 5 12 11 4 8 4 3 8 12 4 7 12 8 

TShapes 6
Ve
0.0072475324305145
29.02154427434 29.07838564352 -1.288965032171
0 0

0101101
*
Ve
0.00556240310634476
29.07105909206 29.12786577517 -1.288725651453
0 0

0101101
*
Ed
 0.00198930342803341 1 1 0
1  1 0 0 0.0700004136064534
2  1 1 0 0 0.0700004136064534
4 C0 1 0 2 0
6  1 1 0
0

0101000
+6 0 -5 0 *
Ed
 0.00303627754983294 1 1 0
1  2 0 0 0.0700004136064534
2  2 3 0 0 0.0700004136064534
2  3 1 0 0 0.0700004136064534
4 C0 3 0 1 0
6  2 2 0
0

0101000
+6 0 -5 0 *
Wi

0101100
-4 0 +3 0 *
Fa
0  1e-07 1 0

0111000
+2 0 *

-1 0 