DBRep_DrawableShape

CASCADE Topology V3, (c) Open Cascade
Locations 0
Curve2ds 2
7 0 0  1 2 2  6.6896187545228862 0.016418065763787126  3.3445416894607911 0.23952175782943996 
 0 2 1 2
7 0 0  1 2 2  6.6896187545228862 0.016418065763787126  3.3445416894607911 0.23952175782943996 
 0 2 0.22311221482945071 2
Curves 2
7 0 0  3 6 4  18.858130012179998 57.066559856680001 -3.2465834721140001  18.85412521085 57.090878054100003 -3.2465834721140001  18.836329982700001 57.138118934669997 -3.235951916591  18.82433055377 57.209959439149998 -3.2371101203519999  18.826113215319999 57.262679449730001 -3.244653132512  18.822150284020001 57.286743401380001 -3.244653132512 
 0 4 0.33333333333330001 1 0.66666666666670005 1 1 4
1 18.858130012179998 57.066559856680001 -3.2465834721140001 -0.16126292409970297 0.98687355538721822 0.0086518777270941597 
Polygon3D 0
PolygonOnTriangulations 2
13 33 42 43 44 45 46 47 48 49 50 51 52 53 
p 0.05 1 0 0.0492075 0.098415 0.164025 0.3620851875 0.45176585625 0.541446525 0.63112719375 0.7208078625 0.858381815684512 0.938447898778124 0.969223949389062 1 
2 109 108 
p 0.05 1 0 0.223112214829451 
Surfaces 3
2 18.853457274589999 57.049151124520002 -3.2488028394319999 -0.16249457979920243 0.98670943622521456 0 0.75699104186960831 0.124663793356372 0.64142302823890318 0.63289815457547804 0.10422776544721253 -0.76718739486831722 0.0099999999955039994
1 17.371560488610001 56.582441716529999 -3.2388028394320001 0 0 1 0.98670943622567675 0.16249457979639617 -0 -0.16249457979639617 0.98670943622567675 0 
1 18.41369715734 58.454008993000002 -4.4476604893170002 0.97110297274049817 0.15992445567139973 -0.17715299831719969 0.17479853509542165 0.028786402020197093 0.98418332397334707 0.16249457979594858 -0.98670943622575036 -9.7688996200470993e-13 
Triangulations 2
73 71 1 0 0.0064461491980774
15.77430100573 56.78391077515 -3.241722086601 16.07547640339 56.83240434473 -3.238802839432 15.81019360237 56.56461561188 -3.244219710881 15.85245940881 56.50424748555 -3.238802839432 15.846104336381 56.5092198599418 -3.23888308937945 15.8421447957103 56.5128056806831 -3.23895145044583 15.8357081689202 56.520025266663 -3.23884004722679 15.831292289234 56.5267250064647 -3.2383668595154 15.8267396914568 56.5347986678212 -3.23808838176958 15.8239534966462 56.539565664995 -3.2384528840155 15.818594386132 56.547560788241 -3.24039161141142 15.8133860188582 56.5557919445174 -3.24294545150879 18.83551392598 56.99550678586 -3.238802839432 18.7325350281041 56.8628760260263 -3.238802839432 18.6194512216638 56.7387485732814 -3.238802839432 18.4969620333594 56.6238922693511 -3.238802839432 18.3658251708887 56.5190176055599 -3.238802839432 18.226851835726 56.4247733276554 -3.238802839432 18.0809017050991 56.3417424227226 -3.238802839432 17.9288776140988 56.2704385128753 -3.238802839432 17.7717199708181 56.2113026780333 -3.238802839432 17.6104009390677 56.16470072744 -3.238802839432 17.4459184246533 56.1309209367968 -3.238802839432 17.2792899024152 56.1101722650147 -3.238802839432 17.1115461222155 56.1025830616122 -3.238802839432 16.9437247328071 56.1082002727557 -3.238802839432 16.7768638630271 56.1269891508551 -3.238802839432 16.6119957000196 56.1588334695089 -3.238802839432 16.4501401042144 56.2035362424713 -3.238802839432 16.2922983005568 56.2608209421919 -3.238802839432 16.1394466850152 56.3303332103918 -3.238802839432 15.992530784679 56.4116430500941 -3.238802839432 18.85813001218 57.06655985668 -3.246583472114 18.8576956367325 57.0580605713247 -3.24502734557764 18.8559965138447 57.0522708560148 -3.24290127969256 18.8524769592939 57.042754810674 -3.23934846990708 18.850321786463 57.0350761906223 -3.23789501810447 18.8489800857192 57.0279292103977 -3.23785930310227 18.8479343194631 57.0221599425459 -3.23833549735717 18.845260736637 57.0128751914601 -3.23899090224541 18.8409448664605 57.0039832700778 -3.23895729073252 18.8560601560491 57.0772867482954 -3.24626221408367 18.8534922549879 57.0879390234794 -3.24540353069472 18.8495385845615 57.1020547102054 -3.24369508188277 18.8371648306306 57.144440857209 -3.23822790660596 18.8328325220575 57.1637415395157 -3.23720329179222 18.8295632615019 57.1832741000003 -3.23723811920626 18.8273566596343 57.2031604537209 -3.23819705809457 18.8261810618754 57.2235030361691 -3.23992632655198 18.8251324901194 57.2550976467894 -3.24302988037818 18.823895026268 57.2731999021408 -3.24430173558479 18.8231295594318 57.2800220995452 -3.24456098266076 18.82215028402 57.28674340138 -3.244653132512 18.51915341048 57.23563847821 -3.24075916293 16.1899982376681 56.7557408594299 -3.238802839432 16.3102331283272 56.6883901981665 -3.238802839432 16.4354254016938 56.6307756583891 -3.238802839432 16.5647882270465 56.5832593462298 -3.238802839432 16.6975085618354 56.5461399006795 -3.238802839432 16.8327522616367 56.5196506166478 -3.238802839432 16.969669322732 56.50395797871 -3.238802839432 17.1073992243639 56.4991606147549 -3.238802839432 17.2450763370896 56.505288676111 -3.238802839432 17.3818353632433 56.5223036480456 -3.238802839432 17.5168167753136 56.5500985918294 -3.238802839432 17.6491722180551 56.5884988168438 -3.238802839432 17.7780698403824 56.637262978508 -3.238802839432 17.9026995235365 56.6960845951242 -3.238802839432 18.0222779726636 56.7645939741085 -3.238802839432 18.1360536398058 56.8423605355008 -3.238802839432 18.2433114473644 56.9288955181504 -3.238802839432 18.3433772823466 57.0236550515694 -3.238802839432 18.435622233151 57.1260435741465 -3.238802839432 -1.54329337384365 0.45833742974426 -1.23824082478887 0.457247122761474 -1.54351208544782 0.236124470418277 -1.51161750872664 0.169690706062221 -1.51708013477106 0.175629659620729 -1.52040437447942 0.179811226680275 -1.52558231128054 0.187980777257891 -1.52885083003234 0.195309030254443 -1.53203099500894 0.20401516056257 -1.53400554851704 0.209171543211447 -1.53799426923884 0.217931233173111 -1.54179589609487 0.226899324193691 1.51161750571734 0.169690703036199 1.38845547586382 0.0555561935127604 1.25670457868984 -0.0485460297960336 1.11717981391018 -0.141971999510902 0.970744269849264 -0.224143790531698 0.818303784324183 -0.29455309515019 0.660801341209041 -0.352764367398301 0.499211237216934 -0.398417517298413 0.334533054983368 -0.431230138349327 0.167785479733128 -0.450999254468861 -2.21986468579428e-09 -0.457602575586618 -0.167785484159126 -0.450999254119962 -0.334533059368258 -0.431230137653688 -0.499211241533591 -0.398417516260337 -0.660801345430766 -0.35276436602421 -0.818303788424862 -0.294553093448583 -0.970744273803532 -0.224143788513101 -1.11717981769358 -0.141971997187802 -1.25670458227896 -0.0485460271828015 -1.38845547923647 0.0555561963999598 1.54547875026751 0.236124447063396 1.54366906011222 0.227808705657984 1.54105172216906 0.22237203718833 1.5360326386935 0.213554373992748 1.53265837518591 0.2063280110341 1.53017316085299 0.199494037304577 1.52820381866465 0.193971377623437 1.52405704753546 0.185244468831916 1.51835364867814 0.177172031608625 1.54517946543711 0.247045112643855 1.54437663020857 0.25797308308916 1.5427692288742 0.272543614395059 1.53744744825566 0.316377093554237 1.53630897476715 0.336125235573034 1.53625709973575 0.35592943443706 1.53731124954244 0.375910048148585 1.53945683552747 0.396173294471255 1.54355615285781 0.427518382131079 1.54527665397531 0.445581129471819 1.54562993072544 0.452437040238363 1.54575584555334 0.459228139124396 1.23875477298147 0.45776893056877 -1.13769845108786 0.362993361059287 -1.0300056673119 0.277000310020091 -0.91583932026988 0.199808434103462 -0.795916942975353 0.13190288257433 -0.670992244967076 0.0737104403503817 -0.541850375260939 0.0255968456681128 -0.40930298770543 -0.0121355085740513 -0.274183139754814 -0.0392494753485602 -0.137340056721115 -0.0555746439626583 0.000366205588545438 -0.0610084110858924 0.138070166304028 -0.0555166256098147 0.274906359020665 -0.0391338032869615 0.410014771236825 -0.0119629098000944 0.54254624951383 0.0258252863748796 0.671667836386883 0.0739932872450735 0.796568005484663 0.132238357970352 0.91646176195495 0.20019442954523 1.03059557614024 0.277434399534632 1.1382521194953 0.363472816403421 8 5 4 8 6 5 8 7 6 9 8 4 10 9 4 3 11 10 3 12 11 2 1 3 2 10 4 2 3 10 55 2 4 55 4 32 56 55 32 56 32 31 57 56 31 57 31 30 58 57 30 58 30 29 59 58 29 59 29 28 60 59 28 60 28 27 61 60 27 61 27 26 62 26 25 62 61 26 63 62 25 63 25 24 64 23 22 64 24 23 64 63 24 65 64 22 65 22 21 66 21 20 66 65 21 67 20 19 67 66 20 68 19 18 68 67 19 69 68 18 17 69 18 70 69 17 16 70 17 71 70 16 15 71 16 72 71 15 14 72 15 73 72 14 13 73 14 54 73 13 39 41 40 38 13 41 38 41 39 37 13 38 33 35 34 42 36 35 42 35 33 43 36 42 44 37 36 44 36 43 44 13 37 45 54 13 45 13 44 46 54 45 47 54 46 48 54 47 49 54 48 50 54 49 51 54 50 52 54 51 53 54 52 
141 139 1 0 0.00534263623984348
18.23187403236 59.12583908431 -4.837870737997 18.42369939864 59.69109603704 -3.241713727821 18.287742492 58.83865388482 -4.790871304676 18.2848116161292 58.8385448993971 -4.80703592918192 18.2824926886888 58.8391952309549 -4.81916055270741 18.2812255688113 58.8399747649517 -4.82540282543386 18.279343317209 58.8419532855298 -4.83393469514099 18.27030680695 58.858249480056 -4.86875895436663 18.2688404186205 58.8610603239001 -4.87425980054791 18.2674464778283 58.8639610619969 -4.87928235785421 18.2650932720985 58.869417734163 -4.88725597256693 18.2638904038682 58.8724903562658 -4.89107595587787 18.2626936817165 58.8757389083566 -4.89470342772565 18.2604851118123 58.882210485407 -4.9009679864569 18.2571425840498 58.8929175074166 -4.90962504557993 18.2539468571618 58.903806682682 -4.9173129451245 18.2509009854599 58.9148818010504 -4.92401152093478 18.2485597190896 58.9240088532219 -4.92860626045726 18.2463405145023 58.933287361926 -4.93239516454051 18.2442368890776 58.9427092834066 -4.9354210305705 18.2420229772981 58.9533312638662 -4.93796810497174 18.2397003886965 58.9653038453695 -4.93989166323995 18.2377863780278 58.975934224683 -4.94078718194467 18.2361246150285 58.9859142406086 -4.94088706381642 18.2345793322987 58.9960387874199 -4.94021795865492 18.2331562516403 59.0063149648354 -4.93874209189568 18.2318461299208 59.016731303804 -4.93652048545317 18.2306364487663 59.0272722712946 -4.93363578394211 18.2295155792261 59.0379234378891 -4.93016476012392 18.2286121002732 59.0476401505321 -4.92634563829453 18.2281529992667 59.0535731491446 -4.92350630039917 18.2278232203962 59.0588013540543 -4.92059430575195 18.2275875704364 59.0636765724794 -4.91748498058217 18.2273759427903 59.0710878926199 -4.9119545119331 18.2273544341069 59.078658368407 -4.90523818714764 18.2276202977595 59.0959760320307 -4.88814731687772 18.2276474155099 59.1042046599793 -4.88057029032157 18.2280556972764 59.110174583419 -4.87294286992331 18.2287698827896 59.1147029713116 -4.86493991396461 18.2299971067701 59.119867946882 -4.85354994720324 18.50632492064 58.87465076353 -3.560167734576 18.61416361188 58.55619177499 -3.256514430378 18.6097482681435 58.5761813801758 -3.26267253499742 18.6050503299009 58.5961063499886 -3.27043809269419 18.600071104791 58.6159628317999 -3.27980741332238 18.5948119004529 58.6357469729812 -3.29077680673609 18.5892740245254 58.6554549209038 -3.3033425827894 18.5834587846474 58.6750828229392 -3.3175010513364 18.577367488458 58.6946268264589 -3.33324852223116 18.571001443596 58.7140830788343 -3.35058130532777 18.5620882570726 58.739881588024 -3.37615134596283 18.5514837193885 58.76869888224 -3.40826769749048 18.5402722755768 58.7972855074601 -3.44391917396378 18.5284583389191 58.8256284610628 -3.48309332114026 18.5176195483685 58.8502424312326 -3.52028832252417 18.6238192520683 58.5132082143297 -3.2418246241172 18.6283996259 58.48936659768 -3.238802736969 18.631692330102 58.4654212577574 -3.2418111403159 18.63634422216 58.42150532886 -3.256514430396 18.63632058448 58.08528321455 -3.560167734577 18.6417506943345 58.1411798473973 -3.47994084180936 18.6447821194978 58.1916329956807 -3.41777695846071 18.6459488330181 58.2325578480334 -3.37443654781921 18.6460126453581 58.2694053718579 -3.34082273059755 18.6453794146812 58.2992454562094 -3.31735585703333 18.6442464912611 58.3268582039904 -3.29863888160156 18.6427774863403 58.3516872325604 -3.28427720652796 18.6410913842178 58.3740089160632 -3.27336909718357 18.639060437875 58.3963019271 -3.26437721093916 18.637757607088 58.4089095594751 -3.26013745266338 18.41773815583 58.04928633584 -4.790871304676 18.4569116931 57.75935176122 -4.837870737997 18.4533250928229 57.7642497824826 -4.85310979595281 18.4505617800298 57.7686247138608 -4.86430804135557 18.4490947971909 57.7713029286788 -4.86993187701349 18.4470013609762 57.7758319191545 -4.87731897069535 18.4376120040175 57.8022748496483 -4.90491749418714 18.43613592454 57.8065859999544 -4.90911706636003 18.4347536235726 57.81083756647 -4.91285636021254 18.4328273845098 57.8171659049657 -4.9177025688495 18.4305226984796 57.8254369034798 -4.92286958565647 18.4294002514556 57.8297628094743 -4.92511732339763 18.4282800342335 57.8342749876095 -4.92718468125099 18.4258189740574 57.8447839330842 -4.93118859580695 18.4229724588508 57.857636056911 -4.93519016777552 18.4203190249315 57.8703655032175 -4.9382440692107 18.4181221348233 57.8817005224158 -4.94005414153833 18.4163168917401 57.8917927832105 -4.94083921213957 18.4146699835364 57.9017844432145 -4.94084715253839 18.4130095168149 57.912778636582 -4.94002438226896 18.4113524901499 57.9248749983898 -4.93818777458768 18.4099603540965 57.9362265490132 -4.93557148754063 18.4088722499796 57.94633822441 -4.93240787728926 18.4080398777237 57.9553453831947 -4.92883951660722 18.4073216904837 57.9647469643466 -4.92428916187354 18.4066453772783 57.9762202129734 -4.91763907246975 18.4061720557463 57.9875644873466 -4.90999267094202 18.4058931869925 57.9987852128011 -4.90139186740651 18.4059004936938 58.00590703805 -4.89492260300657 18.4060144472975 58.0100763490173 -4.89053410562122 18.4062086458559 58.0138411988586 -4.8860708542723 18.4066841878164 58.0193130873868 -4.87852433223764 18.407338420099 58.0241218727361 -4.87059689490016 18.4107419389123 58.0431407979544 -4.83477047051687 18.4119578129416 58.0458985063748 -4.82561587579848 18.4134391939813 58.0475308266841 -4.81602178772136 18.4152787118215 58.0486055216481 -4.80496788928587 18.82215028402 57.28674340138 -3.244653132512 18.85813001218 57.06655985668 -3.246583472114 18.22945820152 58.23366896422 -5.656518137126 18.2403839183892 58.1990845702262 -5.62784943940214 18.2513371088122 58.1665438795153 -5.59718819062145 18.2623085833326 58.1358530150189 -5.56475819004023 18.273289152494 58.1068180996683 -5.53078323691477 18.2879281755841 58.0703457039269 -5.48346685343026 18.3098387451345 58.0195053954029 -5.40924887449848 18.3654010997563 57.9018382970854 -5.2107782072424 18.4298330433105 57.7774728925993 -4.97006953067602 18.588629696575 57.5009449321745 -4.34945398194487 18.16853136698 58.60363259625 -5.656518124013 18.38780634581 59.91038476496 -3.244219720221 18.2714195895247 59.4060324452935 -4.36224390985548 18.2013744017231 59.034049663981 -5.0889195414858 18.1827820316702 58.8957936764139 -5.31476809646617 18.1725788719003 58.7908635677174 -5.4652062901865 18.1690229670386 58.7286787803671 -5.54086560661678 18.1678057744099 58.6809592504469 -5.59065566004373 18.167756682076 58.6434695322368 -5.62479221713188 18.4231241741416 59.6965952235067 -3.24234585586364 18.4231086912613 59.7029886446007 -3.24431708912614 18.4236636780108 59.7170397789474 -3.24976218610312 18.4233216932841 59.7238933715221 -3.25125698168638 18.4222601018633 59.7319539710207 -3.25176608230916 18.4162168828934 59.7637426999727 -3.2502601483862 18.4018890012294 59.8509503346782 -3.25037782200469 18.3996101780494 59.8682306862235 -3.25117653795187 18.3985564416349 59.8757070248311 -3.25142265424684 18.3974769174074 59.8814874403874 -3.25123561719698 18.3961984028153 59.8865316977844 -3.25059369248896 18.3945863519647 59.8913232762927 -3.24941857620543 18.3895386487959 59.9040122457678 -3.24519872667674 -0.396481264390881 -0.692446362916539 1.22423235437465 -1.219020149791 -0.348726509582544 -0.399999694772251 -0.365150913566516 -0.400368409270102 -0.377470390263664 -0.401386910694869 -0.383812981704089 -0.402361984357376 -0.392481965926167 -0.404620064964731 -0.427865881074387 -0.422168057815617 -0.433455130604695 -0.42517982411579 -0.438558404744731 -0.428268517591222 -0.446660162332458 -0.434035050684094 -0.450541536074423 -0.437262295474563 -0.454227304527744 -0.440662133339826 -0.460592540128326 -0.447406580121154 -0.46938872566825 -0.458514442416195 -0.477200176398125 -0.469778182701035 -0.484006404106788 -0.481201044144763 -0.488674985061547 -0.4905872357423 -0.492524780105649 -0.50010303655163 -0.49559927441603 -0.509741563113387 -0.498187282502762 -0.520582120128607 -0.500141754013849 -0.532772987332762 -0.501051664477833 -0.543573099271368 -0.501153151537721 -0.553690502639095 -0.500473293278503 -0.563931588583213 -0.498973708065741 -0.574302432700972 -0.496716398488817 -0.584793220330512 -0.493785337332879 -0.595390659051318 -0.490258531163977 -0.606082400861855 -0.486378032748273 -0.615816783348635 -0.483493064240684 -0.621745530489825 -0.480534271324495 -0.626957836887782 -0.477374976613829 -0.631806552752661 -0.471755628557123 -0.639153760615581 -0.464931366631743 -0.646627115555909 -0.447565831315761 -0.663671416264339 -0.439867035398638 -0.671786274620947 -0.432117035766883 -0.677610510838373 -0.423985465393969 -0.681962662628055 -0.412412452029603 -0.686859575516202 0.90175552981023 -0.399999694778649 1.21028880485561 -0.0682500029168326 1.20403173417592 -0.0886914044051851 1.1961413772579 -0.109114949636653 1.18662148355168 -0.129516624702049 1.1754758025074 -0.149892415692182 1.16270808357517 -0.170238308697865 1.14832207620513 -0.19055028980991 1.1323215298474 -0.210824345119126 1.11471019395212 -0.231056460716326 1.08872922067553 -0.25796043767308 1.05609673163902 -0.288117913697387 1.01987230515038 -0.318146405402904 0.980068595603782 -0.34803236584612 0.942275838436736 -0.374080447191619 1.22214383498019 -0.023461718479365 1.22828513612525 3.05228538764186e-07 1.22217123584239 0.0233590293491898 1.21028880483739 0.0682506133584141 0.901755529810598 0.400000305221283 0.983271737999408 0.34572893355662 1.04643464863203 0.296438926216116 1.09047157710622 0.25624757284669 1.12462559740869 0.219900142546817 1.14846960390613 0.190353753186708 1.16748737730559 0.162923900475921 1.18207985690734 0.138186158356285 1.19316326899423 0.115887160155676 1.2022996626194 0.0935604180312538 1.20660755747312 0.0809086452569993 -0.348726509582651 0.400000305216188 -0.396481264388987 0.692446973369757 -0.411965227167345 0.687031246465972 -0.423343438045284 0.682265437041106 -0.429057653599362 0.679384440448081 -0.436563464256749 0.674575470771052 -0.464605519857748 0.646958262117812 -0.468872582782585 0.642464554515358 -0.472671970316889 0.638044877300878 -0.477596061712245 0.631487642584377 -0.482846116941961 0.622952071315547 -0.485129977769936 0.618501267492995 -0.487230559849514 0.61386702952232 -0.491298820770435 0.603097844918447 -0.495364701456533 0.589953989770621 -0.498467681725276 0.576962556352388 -0.500306843478458 0.565421203214577 -0.501104530842236 0.555169732039411 -0.501112598850066 0.545043253173334 -0.500276605951761 0.533925361991822 -0.498410482398829 0.521720509800396 -0.49575214935939 0.510293613121462 -0.492537697159034 0.500139516570102 -0.488911989838998 0.491116812023728 -0.48428850697476 0.481723481651946 -0.477531544890752 0.470292821737534 -0.469762259086447 0.459022406982906 -0.461023233209783 0.447905496634731 -0.45445000214356 0.440879511757841 -0.449990977814958 0.436784130126758 -0.445455998162028 0.433100873475539 -0.437788197000468 0.427778982421781 -0.429733358898181 0.423140417740744 -0.393331172932485 0.404927318120261 -0.384029455970489 0.402403834139029 -0.374281182611947 0.401033924676426 -0.363049638481808 0.400272424692885 1.2217754108918 1.21812338227065 1.21982651449247 1.44122708508378 -1.22828503426571 0.187473753868647 -1.19915554101138 0.223373871540067 -1.16800137903349 0.257261912200982 -1.13504999515474 0.289327682947476 -1.10052883619786 0.319760990875635 -1.05245186987676 0.358127409821101 -0.977041346772579 0.411852370774463 -0.775384819963669 0.536984188484189 -0.530800777735639 0.670166548223665 0.0997958732541856 0.9688228915997 -1.22828502094124 -0.187473133292581 1.22180447887018 -1.44122683342481 0.0866009924961943 -0.962489857482825 -0.651532888197823 -0.606832900406103 -0.881039081241988 -0.473435572217865 -1.0339019004643 -0.371558001982097 -1.11077618124716 -0.310777500780096 -1.16136515859062 -0.263889977520274 -1.19604956418273 -0.22690649603907 1.2236679778892 -1.22453971983238 1.2219092601897 -1.23085068463976 1.21705177902049 -1.24462488915064 1.21571813797659 -1.25144296428064 1.21526356066589 -1.2595689367194 1.21660441302799 -1.29191716586902 1.21649450192098 -1.38029396505421 1.21580752319819 -1.39771494740034 1.2155963249521 -1.40526314770879 1.21575810181002 -1.41114215511925 1.21631159694641 -1.41632712318298 1.21732427497446 -1.42131696843717 1.22096031916732 -1.43465751875957 36 35 123 36 123 37 34 123 35 38 37 123 33 123 34 32 123 33 39 38 123 31 123 32 30 123 31 40 39 123 29 123 30 28 123 29 27 123 28 26 123 27 25 123 26 24 123 25 23 123 24 22 123 23 21 123 22 20 123 21 19 123 20 18 124 123 18 123 19 111 110 120 111 120 128 17 124 18 16 124 17 15 124 16 112 111 128 112 128 127 14 124 15 13 124 14 12 124 13 11 124 12 122 1 40 122 40 123 10 124 11 10 125 124 113 112 127 113 127 126 114 113 126 115 126 125 115 114 126 116 115 125 116 125 10 140 122 121 140 121 141 139 122 140 138 122 139 137 122 138 136 122 137 135 122 136 134 122 135 133 122 134 132 122 133 131 122 132 99 117 116 100 99 116 98 117 99 101 100 116 97 117 98 102 10 9 102 116 10 102 101 116 96 117 97 103 9 8 103 102 9 95 117 96 94 117 95 2 130 129 2 131 130 2 122 131 93 117 94 104 8 7 104 103 8 92 117 93 105 6 5 105 7 6 105 104 7 91 117 92 106 105 5 106 5 4 90 117 91 107 4 3 107 106 4 89 117 90 71 107 3 88 117 89 87 117 88 118 117 87 118 83 82 118 84 83 118 85 84 118 86 85 118 87 86 81 118 82 80 118 81 79 118 80 78 118 79 77 118 78 76 118 77 75 118 76 74 118 75 73 118 74 72 118 73 119 118 72 58 56 57 59 42 56 59 56 58 70 43 42 70 42 59 69 44 43 69 43 70 60 3 41 60 41 55 60 71 3 68 44 69 68 45 44 67 46 45 67 45 68 61 60 55 61 54 53 61 55 54 66 46 67 66 47 46 65 47 66 65 48 47 65 49 48 62 61 53 62 53 52 64 49 65 64 50 49 63 62 52 63 50 64 63 51 50 63 52 51 109 119 108 2 1 122 72 108 119 

TShapes 6
Ve
0.0187617671426043
18.85813001218 57.06655985668 -3.246583472114
0 0

0101101
*
Ve
0.0187617671426043
18.82215028402 57.28674340138 -3.244653132512
0 0

0101101
*
Ed
 0.0187617671426043 1 1 0
1  1 0 0 1
2  1 1 0 0 1
4 C0 2 0 1 0
6  1 1 0
0

0101000
+6 0 -5 0 *
Ed
 0.0187617671375208 1 1 0
1  2 0 0 0.223112214829451
2  2 1 0 0 0.223112214829451
4 C0 3 0 1 0
6  2 2 0
0

0101000
+6 0 -5 0 *
Wi

0101100
-4 0 +3 0 *
Fa
0  1e-07 1 0

0111000
+2 0 *

+1 0 