DBRep_DrawableShape

CASCADE Topology V3, (c) Open Cascade
Locations 0
Curve2ds 3
7 0 0  1 2 2  6.3151499829428399 0.0043251650335847103  6.3267469865143386 0.074325165029321738 
 0 2 0.070003533093327422 2
7 0 0  1 2 2  0.3188953837258186 0.0043251650335847103  0.33195879703075432 0.074325165029321738 
 0 2 0.070003533093327422 2
7 0 0  1 2 2  0.3188953837258186 0.0043251650335847103  0.3319587970921149 0.074325165029264895 
 0 2 1 2
Curves 2
1 -32.364985626230002 -28.734944291630001 -1.2894951585979999 -0.71173960002710757 -0.70240258659800747 0.0075728524138250798 
7 0 0  3 4 2  -32.364985626230002 -28.734944291630001 -1.2894951585979999  -32.38148478446 -28.751443449859998 -1.2894951585979999  -32.398310754649998 -28.767615796120001 -1.288965032174  -32.414809912880003 -28.784114954340001 -1.288965032173 
 0 4 1 4
Polygon3D 0
PolygonOnTriangulations 2
3 3 8 9 
p 0.0166666666666667 1 0 0.0233345110311091 0.0700035330933274 
3 4 5 1 
p 0.0166666666666667 1 0 0.5 1 
Surfaces 3
2 -32.395430969289997 -28.698382241520001 -1.3051387818860001 -0.70710678118654757 -0.70710678118654757 0 0.70710678118654757 -0.70710678118654757 0 0 0 1 0.049999999997419997
2 -32.395430969289997 -28.698382241520001 -1.291010205144 -0.70710678118654757 -0.70710678118654757 0 0.70710678118654757 -0.70710678118654757 0 0 0 1 0.049999999997419997
1 -32.402024856719997 -28.747402535820001 -1.26 0.58834840544078626 -0.58834840538788624 0.55470019622568711 -0.39223227032629182 0.39223227022709189 0.8320502943375383 -0.70710678113702674 -0.7071067812360684 -3.7615025773314119e-11 
Triangulations 2
13 11 1 0 0.00613058867687313
-32.37475387122 -28.72517604664 -1.327916992569 -32.42677359405 -28.77215127317 -1.331010205146 -32.36498562623 -28.73494429163 -1.289495158598 -32.3653030651399 -28.7346268527201 -1.29524109108125 -32.3653447680353 -28.7345851498247 -1.3082912581172 -32.3664836173166 -28.7334463005434 -1.31384120369312 -32.3712168444364 -28.7287130734236 -1.32225815073782 -32.3815937217781 -28.7513345125353 -1.28931844978981 -32.41480991288 -28.78411495434 -1.288965032173 -32.4183285585385 -28.7805963086907 -1.31918361534188 -32.4161812566296 -28.7827436105992 -1.31422507611862 -32.4151679849688 -28.7837568822551 -1.30294073285198 -32.4151233239975 -28.7838015432233 -1.29438189615515 5.45043204572523 0.00432516503358471 5.40310822340193 0.0743251650292578 6.31514998294284 0.00432516503358471 6.23547026904363 0.00432516503358471 6.03022644109943 0.00432516503358471 5.88279101433404 0.00432516503358471 5.61893796727846 0.00432516503358471 6.31901565080001 0.0276584983654971 6.32674698653114 0.0743251650292649 5.81361434034825 0.074325165029261 5.95044971266369 0.074325165029262 6.13859834959741 0.0743251650292635 6.25311197204188 0.0743251650292643 7 2 1 10 7 6 10 2 7 11 6 5 11 10 6 12 5 4 12 11 5 8 4 3 13 12 4 13 4 8 9 13 8 
6 4 1 0 0.00164265338720581
-32.41480991288 -28.78411495434 -1.288965032173 -32.424893861885 -28.774031005335 -1.26578063004887 -32.43497781089 -28.76394705633 -1.242596227924 -32.36498562623 -28.73494429163 -1.289495158598 -32.389897769555 -28.7595296229888 -1.28923009538588 -32.38548033621 -28.71444958165 -1.242596227925 -0.0334854472027789 0.0350000000001177 -0.00628435816819048 0.0349999999982436 0.0209167308661877 0.034999999996372 -0.0341829114575128 -0.0349999999964313 -0.033834179331944 4.953271681707e-12 0.020916730861281 -0.0349999999992989 6 5 4 2 1 5 2 5 6 3 2 6 

TShapes 6
Ve
0.00724753242825877
-32.41480991288 -28.78411495434 -1.288965032173
0 0

0101101
*
Ve
0.0050196204605985
-32.36498562623 -28.73494429163 -1.289495158598
0 0

0101101
*
Ed
 0.00303627754188159 1 1 0
1  1 0 0 0.0700035330933274
2  1 2 0 0 0.0700035330933274
2  2 1 0 0 0.0700035330933274
4 C0 2 0 1 0
6  1 1 0
0

0101000
-6 0 +5 0 *
Ed
 0.00198930343391618 1 1 0
1  2 0 0 1
2  3 1 0 0 1
4 C0 1 0 3 0
6  2 2 0
0

0101000
+5 0 -6 0 *
Wi

0101100
-4 0 +3 0 *
Fa
0  1e-07 1 0

0111000
+2 0 *

-1 0 