DBRep_DrawableShape

CASCADE Topology V3, (c) Open Cascade
Locations 0
Curve2ds 8
7 0 0  1 2 2  6.1242386845839754 0.025614847071000924  6.9907697439060144 0.025614847071000924 
 0.093733632549500179 2 4.1018573454613687 2
1 2.8889123984447256 0.025614847071000924 1 0 
1 2.8889123984446776 0.025614847071000924 1 0 
1 2.8889123984447025 0.025614847071000924 1 0 
1 8.7171935239930853 1.3063572006010009 5.4646790808054948e-12 -1 
1 9.4247779607713689 1.3063572006037871 -1 7.9455809151205842e-13 
1 0 0 0 1 
7 0 0  1 2 2  9.4247779607693793 1.3063572006099999  9.2658313382223287 0.02561484707095385 
 0 2 1.2808444439068956 2
Curves 4
2 71.485000000080007 68.750000000040004 4.9875000000000007 0 0 1 -0.96824583655110508 0.25000000000290135 0 -0.25000000000290135 -0.96824583655110508 0 0.10000000000000001
1 71.409006579319993 68.815000000040001 6.2682423535300007 5.9639898597639994e-13 -1.2274723316030001e-12 -1 
2 71.485000000080007 68.750000000040004 6.2682423535380005 5.2140279153539999e-11 -1.05999653534e-11 -1 -1 -2.0428103653930445e-12 -5.2140279153518343e-11 -2.0428103648403594e-12 1 -1.0599965353506513e-11 0.099999999995960001
1 71.385000000079998 68.750000000040004 6.2682423535389997 -0.00060010871715429073 0.012611286587379804 -0.99992029448358455 
Polygon3D 0
PolygonOnTriangulations 7
52 1 2 3 4 5 6 7 8 9 10 11 12 13 14 15 16 17 18 19 20 21 22 23 24 25 26 27 28 29 30 31 32 33 34 35 36 37 38 39 40 41 42 43 44 45 46 47 48 49 50 51 52 
p 0.05 1 0.0937336325495002 0.172324293586988 0.250914954624475 0.329505615661963 0.408096276699451 0.486686937736938 0.565277598774426 0.643868259811914 0.722458920849401 0.801049581886889 0.879640242924376 0.958230903961864 1.03682156499935 1.11541222603684 1.19400288707433 1.27259354811181 1.3511842091493 1.42977487018679 1.50836553122428 1.58695619226176 1.66554685329925 1.74413751433674 1.82272817537423 1.90131883641171 1.9799094974492 2.05850015848669 2.13709081952418 2.21568148056167 2.29427214159915 2.37286280263664 2.45145346367413 2.53004412471162 2.6086347857491 2.68722544678659 2.76581610782408 2.84440676886157 2.92299742989905 3.00158809093654 3.08017875197403 3.15876941301152 3.237360074049 3.31595073508649 3.39454139612398 3.47313205716147 3.55172271819895 3.63031337923644 3.70890404027393 3.78749470131142 3.8660853623489 3.94467602338639 4.02326668442388 4.10185734546137 
8 4 5 6 7 8 9 10 3 
p 0.05 1 4.10185734546137 4.17980755414395 4.25775776282653 4.33570797150911 4.4136581801917 4.49160838887428 4.56955859755686 4.64750880623944 
9 1 2 3 4 5 6 7 8 9 
p 0.05 1 4.64750880623944 4.72689891356208 4.80628902088473 4.88567912820737 4.96506923553002 5.04445934285266 5.12384945017531 5.20323955749795 5.2826296648206 
8 54 55 56 57 58 59 60 53 
p 0.05 1 5.2826296648206 5.36057987350326 5.43853008218593 5.5164802908686 5.59443049955126 5.67238070823393 5.7503309169166 5.82828112559926 
2 1 2 
p 0.05 1 0 1.28074235353 
10 1 2 3 4 5 6 7 8 9 10 
p 0.05 1 0 0.0786204929753708 0.157240985950742 0.235861478926112 0.314481971901483 0.393102464876854 0.471722957852225 0.550343450827596 0.628963943802966 0.707584436778337 
2 3 2 
p 0.05 1 0 1.2808444439069 
Surfaces 5
2 71.485000000080007 68.750000000040004 4.9618851529289998 0 0 1 1 0 -0 -0 1 0 0.10000000000000001
1 71.275000000079999 68.600000000039998 4.9875000000000007 0 0 1 0 -1 0 1 0 -0 
1 71.487003289699999 68.815000000040001 5.8375000816080007 0 1 0 0 0 -1 -1 0 0 
5 71.585000000080001 68.750000000029999 6.2682423535430001 6.6999739090079994e-11 1 -1.0599965349910001e-11 -1 6.699973908952639e-11 -5.2227505940280001e-11 -5.2227505939569808e-11 1.059996535340923e-11 1 0.10000000000000001 0.099999999995960001
1 71.385000000090002 68.600000000039998 5.6278711767710003 1 2.5381911701809999e-11 0 0 -0 1 2.5381911701809999e-11 -1 -0 
Triangulations 6
77 74 1 0 0.0010275477574447
71.38423135417 68.7661530964 4.9875 71.3853226804208 68.7580269512387 4.9875 71.3850001558943 68.7501765300004 4.9875 71.3852949617628 68.7423250189872 4.9875 71.3862052780972 68.7345208880388 4.9875 71.3877254852295 68.7268123145024 4.9875 71.3898461984441 68.7192468858199 4.9875 71.3925543259135 68.7118713057546 4.9875 71.3958331495177 68.7047311060752 4.9875 71.3996624280503 68.6978703654731 4.9875 71.4040185221743 68.6913314374514 4.9875 71.4088745403547 68.6851546888632 4.9875 71.4142005048686 68.6793782507144 4.9875 71.4199635368669 68.674037782769 4.9875 71.426128059346 68.6691662534102 4.9875 71.4326560167757 68.6647937361163 4.9875 71.4395071100278 68.6609472238076 4.9875 71.4466390451554 68.6576504622108 4.9875 71.4540077944865 68.654923803269 4.9875 71.4615678684209 68.6527840795027 4.9875 71.4692725962516 68.6512445000979 4.9875 71.4770744142778 68.6503145693608 4.9875 71.4849251594304 68.6500000280456 4.9875 71.4927763665978 68.6503028179144 4.9875 71.5005795678162 68.6512210697504 4.9875 71.5082865914778 68.6527491148971 4.9875 71.5158498597086 68.6548775202527 4.9875 71.5232226820825 68.6575931465034 4.9875 71.5303595438549 68.6608792292369 4.9875 71.5372163869402 68.6647154824341 4.9875 71.543750881896 68.6690782237011 4.9875 71.5499226892358 68.6739405204679 4.9875 71.5556937084578 68.6792723562521 4.9875 71.5610283132506 68.6850408159593 4.9875 71.5658935714261 68.6912102890791 4.9875 71.57025944822 68.6977426895192 4.9875 71.5740989917058 68.7045976907235 4.9875 71.5773884991776 68.7117329746199 4.9875 71.5801076634743 68.7191044928637 4.9875 71.582239698342 68.726666738761 4.9875 71.583771442061 68.7343730281969 4.9875 71.5846934386971 68.74217578783 4.9875 71.5849999964757 68.7500268487786 4.9875 71.5846892229197 68.7578777439815 4.9875 71.5837630365317 68.7656800074008 4.9875 71.5822271549507 68.7733854732179 4.9875 71.5800910596552 68.7809465731761 4.9875 71.5773679374313 68.7883166302345 4.9875 71.5740745989665 68.7954501467198 4.9875 71.5702313750717 68.8023030851978 4.9875 71.5658619911732 68.8088331403306 4.9875 71.5609934208478 68.8150000000401 4.9875 71.40900657932 68.81500000004 4.9875 71.4537750100881 68.84500000004 4.9875 71.4464720545087 68.8422799946762 4.9875 71.4394030852662 68.8389995582382 4.9875 71.4326110333346 68.8351786133378 4.9875 71.4261371479245 68.8308403651809 4.9875 71.420020745971 68.8260111606379 4.9875 71.4142989733554 68.8207203282356 4.9875 71.38000000008 68.84500000004 4.9875 71.404301169851 68.8090567422434 4.9875 71.4000594816229 68.8027741255585 4.9875 71.3963058887221 68.7961882519059 4.9875 71.4058198009126 68.8110540815205 4.9875 71.4027640669691 68.8068157904864 4.9875 71.3995039103959 68.8017474940875 4.9875 71.3915429552525 68.7866628450782 4.9875 71.3879065082931 68.7778436748455 4.9875 71.3859518299437 68.7721464034827 4.9875 71.38423135417 68.7661530964 4.9875 71.4041505911543 68.8088504297441 4.9875 71.3997910008676 68.8023395305425 4.9875 71.3959545753958 68.7955072779504 4.9875 71.3926648695611 68.7883956205203 4.9875 71.3899420814454 68.7810482222897 4.9875 71.3878029283785 68.7735101946936 4.9875 -0.166153096359803 0.109231354086218 -0.158026951198727 0.110322680340757 -0.150176529960379 0.110000155814268 -0.142325018947232 0.110294961682786 -0.134520887998759 0.111205278017242 -0.126812314462439 0.112725485149457 -0.119246885779881 0.114846198364114 -0.111871305714626 0.117554325833548 -0.10473110603517 0.120833149437707 -0.0978703654330799 0.124662427970345 -0.0913314374114069 0.129018522094336 -0.0851546888232341 0.133874540274717 -0.0793782506744329 0.139200504788565 -0.0740377827290076 0.144963536786878 -0.0691662533701903 0.151128059266022 -0.0647937360762736 0.15765601669573 -0.0609472237675985 0.164507109947825 -0.0576504621707932 0.171639045075371 -0.0549238032289571 0.179007794406472 -0.0527840794627338 0.186567868340895 -0.051244500057883 0.19427259617164 -0.0503145693208353 0.202074414197843 -0.0500000280056279 0.20992515935042 -0.05030281787443 0.217776366517795 -0.0512210697104359 0.225579567736229 -0.0527491148571268 0.233286591397757 -0.0548775202126644 0.240849859628635 -0.0575931464633873 0.248222682002467 -0.0608792291969136 0.255359543774851 -0.0647154823941156 0.262216386860167 -0.0690782236610771 0.268750881815957 -0.0739405204279368 0.274922689155843 -0.0792723562120875 0.28069370837783 -0.0850408159193355 0.286028313170647 -0.0912102890390978 0.290893571346142 -0.0977426894792509 0.295259448140003 -0.10459769068352 0.299098991625779 -0.111732974579954 0.30238849909757 -0.119104492823659 0.305107663394266 -0.126666738721035 0.307239698262016 -0.134373028156873 0.308771441981044 -0.142175787790033 0.309693438617063 -0.150026848738594 0.30999999639573 -0.157877743941474 0.30968922283975 -0.165680007360786 0.308763036451734 -0.173385473177897 0.307227154870678 -0.180946573136122 0.305091059575187 -0.188316630194492 0.302367937351332 -0.195450146679766 0.299074598886489 -0.20230308515783 0.295231374991689 -0.208833140290591 0.290861991093151 -0.21500000000009 0.285993420767784 -0.215000000000006 0.134006579232161 -0.245000000000023 0.178775010008083 -0.242279994636176 0.171472054428675 -0.238999558198158 0.164403085186253 -0.235178613297844 0.157611033254552 -0.230840365140903 0.151137147844463 -0.226011160597902 0.145020745891024 -0.220720328195573 0.139298973275424 -0.245000000000005 0.105000000000004 -0.209056742203389 0.12930116977105 -0.202774125518504 0.125059481542931 -0.196188251865876 0.121305888642071 -0.211054081480474 0.130819800832597 -0.206815790446422 0.127764066889068 -0.201747494047543 0.124503910315881 -0.186662845038167 0.116542955172538 -0.177843674805495 0.112906508213106 -0.172146403442656 0.110951829863714 -0.165827819550323 0.111260544217217 -0.208850429704124 0.129150591074278 -0.202339530502452 0.124791000787585 -0.195507277910386 0.120954575315825 -0.188395620480261 0.117664869481146 -0.181048222249653 0.114942081365442 -0.173510194653633 0.112802928298502 35 67 34 34 67 33 33 67 32 32 67 31 31 67 30 30 67 29 29 67 28 28 67 27 27 67 26 26 67 25 25 67 24 24 67 23 23 67 22 22 67 21 21 67 20 20 67 19 19 67 18 18 67 17 17 67 16 16 67 15 15 67 14 14 67 13 13 67 12 12 67 11 11 67 10 10 67 9 9 67 8 8 67 7 7 67 6 6 67 5 5 67 4 4 67 3 3 67 2 68 64 61 61 64 63 68 61 69 69 61 70 70 61 71 71 61 2 2 61 1 71 2 67 35 36 67 53 36 37 53 37 38 53 38 39 53 39 40 53 40 41 53 41 42 53 42 43 53 43 44 53 44 45 53 45 46 53 46 47 53 47 48 53 48 49 53 49 50 53 50 51 53 51 52 67 63 64 67 64 71 71 64 68 71 68 69 71 69 70 55 54 61 55 61 56 56 61 57 57 61 58 58 61 59 59 61 60 60 61 53 53 61 65 65 66 53 53 66 67 53 67 36 
17 15 1 0 7.17472264646195e-13
71.58500000008 68.79499988806 4.9875 71.59000000008 68.84500000004 4.9875 71.5162249900719 68.84500000004 4.9875 71.5609934208478 68.8150000000401 4.9875 71.5557010268045 68.8207203282357 4.9875 71.5499792541889 68.826011160638 4.9875 71.5438628522355 68.8308403651809 4.9875 71.5373889668254 68.8351786133379 4.9875 71.5305969148937 68.8389995582382 4.9875 71.5235279456513 68.8422799946762 4.9875 71.56500000008 68.81500000004 4.9875 71.584498579682 68.7994503251409 4.9875 71.5830194121431 68.8036776027563 4.9875 71.5806366696263 68.8074697460479 4.9875 71.5774698336391 68.8106365997666 4.9875 71.5736777036887 68.8130193635159 4.9875 71.5694504343555 68.8144985547239 4.9875 -0.194999888017854 0.30999999999969 -0.245000000000058 0.314999999999998 -0.245000000000039 0.241224989991885 -0.21500000000009 0.285993420767784 -0.220720328195645 0.28070102672452 -0.226011160597963 0.274979254108921 -0.230840365140953 0.268862852155485 -0.235178613297884 0.262388966745399 -0.238999558198189 0.255596914813702 -0.242279994636198 0.248527945571286 -0.21499999999999 0.290000000000006 -0.199450325100913 0.309498579602018 -0.203677602716259 0.308019412063071 -0.207469746007867 0.305636669546268 -0.210636599726568 0.30246983355907 -0.21301936347595 0.298677703608751 -0.214498554683853 0.294450434275489 2 6 5 2 7 6 2 8 7 2 9 8 2 10 9 11 5 4 17 2 5 17 5 11 16 2 17 15 2 16 14 2 15 13 2 14 1 2 12 12 2 13 2 3 10 
9 7 1 0 2.00971834711523e-14
71.5162249900719 68.84500000004 4.9875 71.5085924994583 68.8471771268399 4.9875 71.5008113883808 68.8487420883307 4.9875 71.4929306737882 68.8496850260697 4.9875 71.48500000008 68.85000000004 4.9875 71.4770693263717 68.8496850260697 4.9875 71.4691886117792 68.8487420883307 4.9875 71.4614075007016 68.8471771268399 4.9875 71.4537750100881 68.84500000004 4.9875 -0.245000000000039 0.241224989991885 -0.247177126799902 0.233592499378326 -0.248742088290671 0.225811388300778 -0.24968502602966 0.217930673708234 -0.250000000000001 0.209999999999983 -0.249685026029656 0.202069326291732 -0.248742088290663 0.194188611699188 -0.247177126799891 0.18640750062164 -0.245000000000023 0.178775010008083 9 1 2 9 2 3 9 3 4 9 4 5 9 5 6 9 6 7 9 7 8 
9 7 1 0 3.82435766242932e-12
71.40900657932 68.81500000004 6.26824235353 71.40900657932 68.81500000004 4.9875 71.41224007416 68.81500000004 6.301823481382 71.410446143629 68.8150000000419 6.29070644380124 71.4093668391192 68.8150000000419 6.2794974379048 71.4872080268 68.81500000004 6.687500163214 71.56500000008 68.81500000004 6.6875001632 71.56500000008 68.81500000004 4.9875 71.5609934208478 68.8150000000401 4.9875 -0.430742271922 0.0779967103865042 0.850000081608 0.0779967103800061 -0.464323399774223 0.0747632155411569 -0.453206362193245 0.0765571460710113 -0.441997356296798 0.0776364505807994 -0.850000081605999 -0.000204737100006011 -0.850000081591999 -0.0779967103800061 0.850000081608 -0.0779967103800061 0.850000081608 -0.0739901311477835 3 6 7 5 4 3 1 3 7 1 5 3 8 1 7 9 1 8 2 1 9 
40 54 1 0 0.000179586311521841
71.38500000008 68.75000000004 6.268242353539 71.3853089000167 68.7578539523804 6.26824235353272 71.3862336914314 68.765659383014 6.26824235353268 71.387768660968 68.7733680700006 6.26824235353268 71.3899043255868 68.7809323890825 6.26824235353271 71.3926274911546 68.7883056079065 6.26824235353278 71.3959213339583 68.7954421747367 6.26824235353287 71.3997655046413 68.8022979998727 6.268242353533 71.4041362539224 68.8088307280362 6.26824235353316 71.40900657932 68.81500000004 6.26824235353 71.3886745634 68.75000000004 6.306404152619 71.3866359297757 68.7500000000436 6.29377068311413 71.3854094015307 68.7500000000435 6.28103270025882 71.3889777879643 68.7578539523805 6.30634521173211 71.389885588356 68.7656593830142 6.30616875321134 71.3913923561788 68.773368070001 6.30587586721613 71.3934887826233 68.780932389083 6.30546836319576 71.3961619159696 68.7883056079071 6.30494875870953 71.3993952416036 68.7954421747374 6.30432026387326 71.4031687840438 68.8022979998737 6.30358676152718 71.4074592303501 68.8088307280373 6.30275278324782 71.41224007416 68.81500000004 6.301823481382 71.410446143629 68.8150000000419 6.29070644380124 71.4093668391192 68.8150000000419 6.2794974379048 71.3857176691435 68.7578539523837 6.28101294557254 71.3866405675039 68.7656593830169 6.28095380355829 71.386942303016 68.7578539523838 6.29373125461761 71.3881723949472 68.7733680700031 6.28085563959536 71.3878595299625 68.7656593830169 6.29361321271744 71.3903036878454 68.7809323890845 6.28071906014057 71.3893819439883 68.7733680700031 6.29341728667631 71.3930212790738 68.788305607908 6.28054490898162 71.3915001396216 68.7809323890846 6.29314468692503 71.3963083793576 68.7954421747377 6.28033426202413 71.3942010306527 68.7883056079081 6.29279709758452 71.4001446809956 68.8022979998733 6.28008842064471 71.3974679309803 68.7954421747378 6.29237666606124 71.4045064833215 68.8088307280363 6.27980890365109 71.4012806576987 68.8022979998733 6.29188598978057 71.4056156557873 68.8088307280363 6.29132810013993 3.22164239729972e-11 0 5.44219487608274e-28 0.0786204929753708 5.44219487608274e-28 0.157240985950742 5.44219487608274e-28 0.235861478926112 5.44219487608274e-28 0.314481971901483 5.44219487608274e-28 0.393102464876854 5.44219487608274e-28 0.471722957852225 5.44219487608274e-28 0.550343450827596 5.44219487608274e-28 0.628963943802967 -2.24149032668208e-11 0.707584436705853 0.191986217772665 0 0.12799081186271 0 0.0639954059474632 0 0.191986217772551 0.0786204929718526 0.191986217772438 0.157240985943705 0.191986217772325 0.235861478915558 0.191986217772212 0.31448197188741 0.191986217772099 0.393102464859263 0.191986217771986 0.471722957831116 0.191986217771873 0.550343450802968 0.191986217771759 0.628963943774821 0.191986217970976 0.707584436706696 0.127990811973179 0.707584436706415 0.0639954059753822 0.707584436706134 0.0639954059474632 0.0786204929718526 0.0639954059474632 0.157240985943705 0.12799081186271 0.0786204929718526 0.0639954059474632 0.235861478915558 0.12799081186271 0.157240985943705 0.0639954059474632 0.31448197188741 0.12799081186271 0.235861478915558 0.0639954059474632 0.393102464859263 0.12799081186271 0.31448197188741 0.0639954059474632 0.471722957831116 0.12799081186271 0.393102464859263 0.0639954059474632 0.550343450802968 0.12799081186271 0.471722957831116 0.0639954059474632 0.628963943774821 0.12799081186271 0.550343450802968 0.12799081186271 0.628963943774821 14 12 11 24 10 9 22 23 21 25 2 1 25 1 13 26 3 2 26 2 25 27 13 12 27 14 15 27 12 14 27 25 13 28 4 3 28 3 26 29 15 16 29 25 27 29 26 25 29 27 15 30 5 4 30 4 28 31 16 17 31 29 16 31 28 26 31 26 29 32 6 5 32 5 30 33 17 18 33 28 31 33 30 28 33 31 17 34 7 6 34 6 32 35 18 19 35 33 18 35 32 30 35 30 33 36 8 7 36 7 34 37 19 20 37 34 32 37 35 19 37 32 35 38 9 8 38 8 36 38 24 9 39 20 21 39 34 37 39 36 34 39 37 20 40 23 24 40 21 23 40 39 21 40 24 38 40 38 36 40 36 39 
4 2 1 0 0.000256215308596097
71.38500000009 68.45000000004 4.9875 71.38423135417 68.7661530964 4.9875 71.38500000008 68.75000000004 6.268242353539 71.38500000009 68.45000000004 6.268242353542 -0.640371176771 0.149999999995693 -0.640371176771047 -0.166153096355984 0.64037117676814 -0.150000000000006 0.640371176771 0.149999999999991 3 1 2 4 1 3 

TShapes 16
Ve
0.202055115720391
71.38423135417 68.7661530964 4.9875
0 0

0101101
*
Ve
0.200001999999994
71.5609934208478 68.8150000000401 4.9875
0 0

0101101
*
Ed
 0.200001999999994 1 1 0
1  1 0 0.0937336325495002 4.10185734546137
2  1 1 0 0.0937336325495002 4.10185734546137
4 C0 2 0 1 0
6  1 1 0
0

0101000
+16 0 -15 0 *
Ve
1e-07
71.5162249900719 68.84500000004 4.9875
0 0

0101101
*
Ed
 1e-07 1 1 0
1  1 0 4.10185734546137 4.64750880623944
2  2 1 0 4.10185734546137 4.64750880623944
4 C0 2 0 1 0
6  2 2 0
0

0101000
+15 0 -13 0 *
Ve
1e-07
71.4537750100881 68.84500000004 4.9875
0 0

0101101
*
Ed
 1e-07 1 1 0
1  1 0 4.64750880623944 5.2826296648206
2  3 1 0 4.64750880623944 5.2826296648206
4 C0 2 0 1 0
6  3 3 0
0

0101000
+13 0 -11 0 *
Ve
0.200001999999994
71.40900657932 68.81500000004 4.9875
0 0

0101101
*
Ed
 1e-07 1 1 0
1  1 0 5.2826296648206 5.82828112559926
2  4 1 0 5.2826296648206 5.82828112559926
4 C0 2 0 1 0
6  4 1 0
0

0101000
+11 0 -9 0 *
Ve
1e-07
71.40900657932 68.81500000004 6.26824235353
0 0

0101101
*
Ed
 1e-07 1 1 0
1  2 0 0 1.28074235353
2  5 1 0 0 1.28074235353
4 C0 1 0 3 0
6  5 4 0
0

0101000
+7 0 -9 0 *
Ve
0.00205511607123973
71.38500000008 68.75000000004 6.268242353539
0 0

0101101
*
Ed
 1e-07 1 1 0
1  3 0 0 0.707584436778337
2  6 1 0 0 0.707584436778337
2  7 4 0 0 0.707584436778337
4 G1 1 0 4 0
6  6 5 0
0

0101000
+5 0 -7 0 *
Ed
 0.00205511607123973 1 1 0
1  4 0 0 1.2808444439069
2  8 1 0 0 1.2808444439069
4 C0 5 0 1 0
6  7 6 0
0

0101000
+5 0 -16 0 *
Wi

0101100
+14 0 +12 0 +10 0 +8 0 -6 0 -4 0 +3 0 *
Fa
0  1e-07 1 0

0111000
+2 0 *

+1 0 