DBRep_DrawableShape

CASCADE Topology V3, (c) Open Cascade
Locations 0
Curve2ds 6
7 0 0  3 25 23  0.89197605815057723 3.4387259965356147  0.90317081602006943 3.4399576422758122  0.92548257650191457 3.4424189951469817  0.95871971872517903 3.4461484736642101  0.99173025445468055 3.4499586664300601  1.024514139127773 3.4538928384826963  1.0570689706457503 3.457994254860262  1.0893898077803361 3.4623061806009208  1.1214694769067102 3.4668718807428256  1.1532987633550651 3.4717346203241242  1.1848666425560892 3.4769376643829819  1.2161605213414628 3.4825242779575434  1.2471664382497003 3.4885377260859682  1.277869440871146 3.495021273806409  1.3082511417970277 3.5019767627140195  1.3382908176992736 3.5094060344039653  1.3679658482249968 3.5173109304713885  1.3972519734123519 3.5256932925114497  1.426123592754275 3.5345549621193117  1.4545540397846701 3.5438977808901191  1.4825158443101711 3.5537235904190352  1.5099809702906566 3.564034232301216  1.5369210361683634 3.5748315481318125  1.5545119952536963 3.5823554357145926  1.5632104512345026 3.5861991056957709 
 0 4 0.045454545454545456 1 0.090909090909090912 1 0.13636363636363635 1 0.18181818181818182 1 0.22727272727272729 1 0.27272727272727271 1 0.31818181818181818 1 0.36363636363636365 1 0.40909090909090912 1 0.45454545454545459 1 0.5 1 0.54545454545454541 1 0.59090909090909094 1 0.63636363636363635 1 0.68181818181818188 1 0.72727272727272729 1 0.77272727272727271 1 0.81818181818181823 1 0.86363636363636365 1 0.90909090909090917 1 0.95454545454545459 1 1 4
7 0 0  3 25 23  0.85657818739826785 0.47373307007149129  0.85269351599031196 0.4693680049657088  0.84487113258698632 0.46086810806899764  0.8329931743479958 0.44881534647300192  0.82098593145322751 0.43746639927422459  0.80886324290596823 0.42682678316808476  0.79663778973941557 0.416901117815899  0.784320747999668 0.40769286602831456  0.77192157267155814 0.39920417358247789  0.7594477538091865 0.39143564519358542  0.74690459218666594 0.38438611209964124  0.73429495761578556 0.37805240254166378  0.72161912528430061 0.37242907779138368  0.7088743420782786 0.36750833068261113  0.69607112576097374 0.36327036597457424  0.68321939038770541 0.35969169551026026  0.67032799396495868 0.35674591441054776  0.65740458468936991 0.35440423746189059  0.64445540003583712 0.35263603487031026  0.63148510583103556 0.35140930254415731  0.61849667949430631 0.35069108246911446  0.60549123426025586 0.35044784477408869  0.59246818733857487 0.35064578753114151  0.58377223037380532 0.35104942346489854  0.57942035142836945 0.35131354208907983 
 0 4 0.045454545454545456 1 0.090909090909090912 1 0.13636363636363635 1 0.18181818181818182 1 0.22727272727272729 1 0.27272727272727271 1 0.31818181818181818 1 0.36363636363636365 1 0.40909090909090912 1 0.45454545454545459 1 0.5 1 0.54545454545454541 1 0.59090909090909094 1 0.63636363636363635 1 0.68181818181818188 1 0.72727272727272729 1 0.77272727272727271 1 0.81818181818181823 1 0.86363636363636365 1 0.90909090909090917 1 0.95454545454545459 1 1 4
7 0 0  1 2 2  0.93637650990466825 4.1029368775083999  1.5184364492932758 4.099686154195 
 0 2 1 2
7 0 0  1 2 2  0.57942035142836434 0.35131354208907956  0.85657732340923631 0.34823701744011315 
 0 2 1 2
7 0 0  1 2 2  0.8565773234092281 0.34823701744011304  0.85657818739826785 0.47373307007149129 
 0 2 1 2
7 0 0  1 2 2  1.5698829389370661 7.989202102589374  1.3129872151178479 7.9919095814096437 
 0 2 1 2
Curves 3
7 0 0  3 5 3  -0.042860415840269998 0.70513389738520005 105.31697683420001  -0.030247595242919999 0.66779600079949997 105.2677678057  -0.0080445221945710001 0.61421093252140002 105.158593973  0.048307025684370002 0.60341314254680001 105.045777974  0.086122628407259996 0.60672157908940005 104.9943688858 
 0 4 0.5 1 1 4
7 0 0  3 5 3  0.086122628407259996 0.60672157908940005 104.9943688858  0.051622826130440003 0.60570572187149996 105.0412489694  -0.0036181651845420002 0.60252272391320005 105.14511829999999  -0.0267534325803 0.60313223448550002 105.2604712313  -0.02979974767936 0.60347085577600001 105.31859838610001 
 0 4 0.5 1 1 4
7 0 0  3 5 3  -0.02979974767936 0.60347085577600001 105.31859838610001  -0.029779387142169999 0.6206209281185 105.3181544107  -0.031942753772779997 0.65490190126040004 105.3174325777  -0.038514343003249997 0.68858172599110001 105.3170682403  -0.042860415840269998 0.70513389738520005 105.31697683420001 
 0 4 0.5 1 1 4
Polygon3D 0
PolygonOnTriangulations 3
13 3 4 5 6 7 8 9 10 11 12 13 14 1 
p 0.05 1 0 0.0833333333333333 0.166666666666667 0.25 0.333333333333333 0.416666666666667 0.5 0.583333333333333 0.666666666666667 0.75 0.833333333333334 0.916666666666667 1 
9 34 35 36 37 38 39 40 41 33 
p 0.05 1 0 0.135 0.27 0.405 0.54 0.675 0.81 0.905 1 
5 45 46 47 48 23 
p 0.05 1 0 0.3 0.6 0.8 1 
Surfaces 4
9 0 1 0 0 3 3 4 6 2 4 0.71955502501869995 0.51129710439310005 104.7700661642  1.3129661652769999 0.72130468952649995 0.53047352763160005 104.770118833  1.3129661652769999 0.73114275068470003 0.68100727960959995 104.7705338932  1.3129661652769999 0.70915465942309996 0.84182198866040003 104.7707408798  1.3129661652769999 0.66442953675149996 0.97502934514149997 104.77074544049999  1.3129661652769999 0.66157693044800003 0.98320875278999997 104.7707462159  1.3129661652769999 
0.2381369804621 0.54990928528969996 104.6419270483  0.89567794490749997 0.23928682453290001 0.56104277374300004 104.64180552569999  0.89567794490749997 0.24599023538859999 0.64849256835390001 104.64094217349999  0.89567794490749997 0.2337082555377 0.74228415580460005 104.640477799  0.89567794490749997 0.20765845847959999 0.81984907995419998 104.6404911891  0.89567794490749997 0.20599540971499999 0.82461122674459997 104.64049498280001  0.89567794490749997 
-0.1226205366056 0.57884384848649995 104.9864415671  0.89567794490749997 -0.1220781389115 0.58396292776100001 104.9861915179  0.89567794490749997 -0.1188943195037 0.62417156891600001 104.9843646539  0.89567794490749997 -0.1244846237618 0.66729407491509996 104.9834020837  0.89567794490749997 -0.13645733936490001 0.70294152435890001 104.9834168573  0.89567794490749997 -0.137221867567 0.70513005973190002 104.9834216802  0.89567794490749997 
-0.018748581065919999 0.57051275850430005 105.4751278734  1.3129661652769999 -0.018242078042610001 0.57738047083550004 105.4749175075  1.3129661652769999 -0.01560699100122 0.63123345442470002 105.4733607055  1.3129661652769999 -0.023900320581560001 0.68835201361630005 105.472548116  1.3129661652769999 -0.039816175227969999 0.73577370723799995 105.4725555083  1.3129661652769999 -0.040829925956540003 0.73868612390169996 105.4725583898  1.3129661652769999 

0 4
1 4

0.30916663743060002 4
0.333627336118 1
0.50067817491050004 1
0.51165406422269999 4

2 -3.5165859757589999 0.79424851157849996 105.30575148840001 0.99243250913896719 0.086826593864247126 -0.086826593864247126 0.08715574274765775 -5.4047683759262453e-16 0.99619469809174566 0.08649619246092824 -0.99622344009661468 -0.0075674362784882172 0.5
2 0.56937874002889999 -3.496215298419 105.34999999999999 0 1 0 0 0 -1 -1 0 0 0.59999999999999998
2 -0.84730981868620003 0.46423108081769998 113.2747054235 0.052328007051378259 0.017428495790919419 -0.99847785514376675 -6.2786990119228689e-17 0.99984769515639127 0.017452406437281045 0.9986299513223259 -0.00091324964711349916 0.052320037242447943 0.40000000000000002
Triangulations 3
61 59 1 0 0.000677059681155378
0.08612262840726 0.6067215790894 104.9943688858 -2.722294030566 0.361830430227 105.2400883253 -0.04286041584027 0.7051338973852 105.3169768342 -0.0366334254977817 0.687344430486651 105.291944844788 -0.0303791935346887 0.671316731138355 105.266140633686 -0.0238185976515237 0.657055006482791 105.239688293847 -0.0166725155488193 0.644563463662437 105.212711918222 -0.00866182492710813 0.633846309819772 105.185335599764 0.000492596513077016 0.624907752097275 105.157683431425 0.0110284558271986 0.617742085854205 105.129886182576 0.0230177990946997 0.612303959316948 105.102101328267 0.0364912571510182 0.608538108928672 105.074493019966 0.0514794608315924 0.606389271132543 105.047225409142 0.0680130409718603 0.60580218237173 105.020462647264 -0.4413229938515 0.9993891375212 105.534996288 -0.408861560493715 0.998214864632786 105.531680952534 -0.377319612286107 0.99459827193975 105.52809142629 -0.349649981019725 0.989278432667687 105.524512971942 -0.325277491963826 0.982835623111893 105.520924707621 -0.301361909166462 0.974840484080458 105.516912489414 -0.277887544673879 0.965323694190623 105.512404165992 -0.254975094178454 0.954392293604315 105.507331453374 -0.232786629220957 0.942176488924496 105.501627240845 -0.211484230668817 0.928806491976144 105.495224417957 -0.191229979389459 0.914412514584238 105.488055874263 -0.172185175833891 0.899124681461569 105.480054470489 -0.154445654497469 0.883065809834277 105.471150649482 -0.137993298971024 0.866345997421 105.461270645483 -0.122798571541359 0.849074067063596 105.450340270908 -0.108831934495273 0.831358841603922 105.438285338172 -0.096063850119567 0.813309143883836 105.425031659691 -0.0844646147586817 0.795035364926883 105.410506230841 -0.0740024369569892 0.776667625799063 105.394650930396 -0.0646440988814088 0.758349527060012 105.377417805416 -0.0563563550894089 0.740224930183066 105.358759099778 -0.0491063978687144 0.722438837287786 105.338628413145 -1.19860877613 0.9966891681129 105.6048561968 -2.722292829588 0.859945184861 105.7381697035 -2.72557746816595 0.826780243152019 105.737372919628 -2.72861758270699 0.793844534237271 105.734408863706 -2.73140341566937 0.761272618162173 105.729306859713 -2.73392520951137 0.729199054972145 105.722096231627 -2.73617321170484 0.697758379953038 105.712806349566 -2.73813873260302 0.66707987936315 105.701476365245 -2.73981545398785 0.637281128187026 105.688167254408 -2.74119737851115 0.608478116797117 105.672942945733 -2.74227850882471 0.580786835565877 105.655867367899 -2.74305291443078 0.554323044215213 105.637004759194 -2.74351726364198 0.529193535927132 105.616431393932 -2.74367160071752 0.505493456031165 105.594239181654 -2.74351619553684 0.483317171411254 105.570521076828 -2.74305131797935 0.462759048951344 105.545370033923 -2.74227741272511 0.443912390423232 105.518880077435 -2.74119753998963 0.426854560365132 105.491161242644 -2.7398167734328 0.411650654801281 105.462335889962 -2.73814023850728 0.398365454167135 105.432526696845 -2.73617306066573 0.38706373889815 105.401856340751 -2.73392100013862 0.37780684346661 105.37044845978 -2.73139450856111 0.370630634523254 105.338433791775 -2.72860614026982 0.365559563965824 105.305946256706 -2.72556845951977 0.362618029848884 105.273119789555 1.5632104512345 3.58619910569577 1.56316862932137 0.756437067822022 0.891976058150577 3.43872599653561 0.953158160831317 3.44553470774644 1.01357346722256 3.45259047208173 1.07321948999655 3.46015989030901 1.13206526085449 3.46850956319581 1.19005563931829 3.47790609150962 1.24711595253524 3.48861607601797 1.30315428853342 3.50086357535672 1.35805271528381 3.51470247963508 1.41166995645504 3.5301441368306 1.46384843253648 3.54719989492086 1.51441991171773 3.5658811018834 0.120084084319406 3.04989807410007 0.128144962262287 3.08229976302399 0.140967525501705 3.11360061471083 0.156577704898051 3.14090990649665 0.173926581933883 3.16484917837656 0.194417901769262 3.18824091722801 0.218017963489474 3.21109972230202 0.24455636117426 3.2333311279105 0.273801148856694 3.25478602430942 0.305541900294123 3.27532235543262 0.339579610376597 3.29479595335552 0.375732960258757 3.3130639849338 0.413860628648354 3.33004801234602 0.453876566017424 3.34578198869693 0.495715112931712 3.36031111177162 0.539328152027306 3.37368060096906 0.58468793572999 3.38593561456141 0.631780379997072 3.39712164740057 0.680567090555172 3.40728649265525 0.730995133438647 3.41647981004951 0.783036840351898 3.4247512106339 0.8366872709964 3.43214987706905 -0.00688676974380353 2.29204291798212 -3.50606184662536e-05 0.756441157673711 0.0655358938895719 0.750370959006389 0.131007715009858 0.744751511318942 0.196387622725222 0.739601654451122 0.261679394040397 0.734940124656243 0.326886592585843 0.73078600250797 0.392020678892884 0.727155253544342 0.457096800249996 0.72405953073514 0.52212622109476 0.721509039462256 0.587117385831586 0.71951442457754 0.652081028589535 0.718085819633511 0.717030945013588 0.717229427781465 0.781978179581311 0.716945330860723 0.846929856401494 0.717233435451724 0.911893474176741 0.718093547236043 0.976881133780812 0.719525308084751 1.04190061285684 0.721522610391221 1.10695077088346 0.724075667675076 1.17202670789115 0.727174170434115 1.23712527611529 0.730808367673285 1.30225010160263 0.734966472822581 1.36741023073977 0.739630563004184 1.43261269022441 0.744778289786893 1.49786284359001 0.75038779361304 37 38 39 15 39 40 15 37 39 16 15 40 17 16 40 18 40 41 18 17 40 19 18 41 20 19 41 21 41 42 21 20 41 22 21 42 23 22 42 24 42 43 24 23 42 25 43 44 25 24 43 26 25 44 27 26 44 27 44 45 28 27 45 29 28 45 29 45 46 30 29 46 30 46 47 31 30 47 32 31 47 32 47 48 33 32 48 33 48 49 34 33 49 34 49 50 35 34 50 36 35 50 36 50 51 3 36 51 3 51 52 4 3 52 4 52 53 5 4 53 5 53 54 6 5 54 6 54 55 7 6 55 7 55 56 8 7 56 8 56 57 9 57 58 9 8 57 10 9 58 11 58 59 11 10 58 12 59 60 12 11 59 13 60 61 13 12 60 14 13 61 14 61 2 1 14 2 
52 50 1 0 0.0081924027598034
0.5693334784812 -0.1840732887419 104.7474231269 0.5693787399879 0.6034708548148 104.7500030197 0.55999929451858 -0.1845621052772 104.747926158495 0.547528528351914 -0.185214689229415 104.749606736348 0.536480973739252 -0.185793266178896 104.751272075954 0.529055465081677 -0.186182888493135 104.75208246471 0.522283862707036 -0.186539029985458 104.752352874389 0.513407393163381 -0.187007518517617 104.751674421182 0.506461528555891 -0.187375321510699 104.750360637838 0.491709398370493 -0.188157625682196 104.746844580478 0.484370148699527 -0.188546157330996 104.745540246605 0.476849818183868 -0.188943031615431 104.745021335579 0.4690717337387 -0.1893517053387 104.7456674172 0.440345651951363 -0.190856032739669 104.751743801997 0.413405895677591 -0.192264904307076 104.759643126711 0.387928948362478 -0.193595945363741 104.769105356055 0.36359129345112 -0.19486678123248 104.779870454741 0.332354155114818 -0.196498040063836 104.795801161597 0.235636689978369 -0.201563260765476 104.853411471272 0.191632657701853 -0.203871159102833 104.884810623636 0.16146611487528 -0.205450638728788 104.910079177337 0.135443068262824 -0.206809478518895 104.935579126074 0.111285366881081 -0.208069263034968 104.962906202212 0.0888637744401076 -0.209240374047304 104.991670516827 0.0680484998899951 -0.210333227663519 105.021481480632 0.0425705011846831 -0.211686529903968 105.062186103996 0.0170161015087487 -0.213067216511696 105.109200956685 0.000874492445928635 -0.213946020406104 105.14537916501 -0.0118763425359955 -0.214637686009063 105.181170255612 -0.0172973316485817 -0.214928553437098 105.199826736319 -0.02210947860488 -0.2151831958801 105.2192748272 -0.02979898082382 -0.2154737686801 105.3185984263 -0.02979974767936 0.603470855776 105.3185983861 0.08612262840726 0.6067215790894 104.9943688858 0.0597048717694703 0.605802834232854 105.03340420913 0.0364315969396988 0.60481225772877 105.074392518076 0.0164382770106689 0.603929803635978 105.117075924215 -0.000139948870107192 0.603334177741939 105.161196418024 -0.0131945704245614 0.603104548382398 105.20648633319 -0.0226626687228537 0.603149665594546 105.252661469987 -0.0271438837028225 0.603287780245765 105.285531317726 0.52260793300979 0.603491804034623 104.751836755395 0.476121390322813 0.603526721883118 104.757308567022 0.430201314759963 0.603533704413202 104.766374361394 0.385129909154232 0.603470847677792 104.778990045325 0.34118487176151 0.603324183637287 104.795097278629 0.298625882529275 0.603191487882022 104.814580733125 0.257708116827903 0.603198471909815 104.837310833634 0.218686750027768 0.603470847218483 104.863158004975 0.181808423892373 0.604087342303832 104.8919808437 0.147285645757731 0.60493875365361 104.923590633278 0.11532238935298 0.605868894753554 104.957786828911 7.51133168819481e-05 3.3121420096771 0 4.0996861532338 0.0148715808850924 3.31166695218339 0.034600204309373 3.31103354219177 0.0522051336991998 3.31046831582309 0.0641931394457938 3.31008342720435 0.0752904901219517 3.30972713408406 0.0901554598548298 3.3092498772501 0.102010742432705 3.30886924986031 0.127317884187025 3.3080567351652 0.139705358964423 3.3076590211369 0.152092833741822 3.3072613071086 0.16448030851922 3.3068635930803 0.209060382098213 3.305894912185 0.253640455677206 3.30492623128969 0.298220529256199 3.30395755039439 0.342800602835192 3.30298886949909 0.402240700940515 3.30169729497202 0.591706013651235 3.29758040116698 0.681980662648695 3.295618822354 0.747790881767844 3.29418883139933 0.80872626984113 3.29286476570056 0.869661657914416 3.2915407000018 0.930597045987701 3.29021663430303 0.991532434060987 3.28889256860426 1.0727796181587 3.28712714767257 1.16418270026863 3.28514104912442 1.23081554712677 3.28369318328282 1.29251262755097 3.28235256676282 1.32289744908833 3.28169233465086 1.3532822706257 3.2810321025389 1.51843644931125 3.2807415297389 1.51843644929328 4.099686154195 0.936376509904668 4.1029368775084 1.01495460172213 4.10249802986109 1.09353269353959 4.10205918221378 1.17211078535705 4.10162033456647 1.25068887717452 4.10118148691916 1.32926696899198 4.10074263927186 1.40784506080944 4.10030379162455 1.46314075505136 4.09999497290977 0.078031375825389 4.09995704692335 0.156062751650778 4.1002279406129 0.234094127476167 4.10049883430245 0.312125503301556 4.100769727992 0.390156879126945 4.10104062168155 0.468188254952334 4.1013115153711 0.546219630777723 4.10158240906065 0.624251006603112 4.1018533027502 0.702282382428501 4.10212419643975 0.78031375825389 4.1023950901293 0.858345134079279 4.10266598381885 2 1 3 2 3 4 42 4 5 42 5 6 42 6 7 42 7 8 42 8 9 42 9 10 42 2 4 43 10 11 43 11 12 43 12 13 43 13 14 43 42 10 44 14 15 44 43 14 45 15 16 45 16 17 45 44 15 46 17 18 46 45 17 47 18 19 47 46 18 48 47 19 49 48 19 49 19 20 50 49 20 50 20 21 51 50 21 51 21 22 52 22 23 52 51 22 34 23 24 34 52 23 34 24 25 35 25 26 35 34 25 36 26 27 36 35 26 37 27 28 37 36 27 38 28 29 38 37 28 39 29 30 39 30 31 39 38 29 40 39 31 41 31 32 41 40 31 33 41 32 
48 46 1 0 0.000372489352181213
-0.4413229938515 0.9993891375212 105.534996288 -0.408861560493715 0.998214864632786 105.531680952534 -0.377319612286107 0.99459827193975 105.52809142629 -0.349649981019725 0.989278432667687 105.524512971942 -0.325277491963826 0.982835623111893 105.520924707621 -0.301361909166462 0.974840484080458 105.516912489414 -0.277887544673879 0.965323694190623 105.512404165992 -0.254975094178454 0.954392293604315 105.507331453374 -0.232786629220957 0.942176488924496 105.501627240845 -0.211484230668817 0.928806491976144 105.495224417957 -0.191229979389459 0.914412514584238 105.488055874263 -0.172185175833891 0.899124681461569 105.480054470489 -0.154445654497469 0.883065809834277 105.471150649482 -0.137993298971024 0.866345997421 105.461270645483 -0.122798571541359 0.849074067063596 105.450340270908 -0.108831934495273 0.831358841603922 105.438285338172 -0.096063850119567 0.813309143883836 105.425031659691 -0.0844646147586817 0.795035364926883 105.410506230841 -0.0740024369569892 0.776667625799063 105.394650930396 -0.0646440988814088 0.758349527060012 105.377417805416 -0.0563563550894089 0.740224930183066 105.358759099778 -0.0491063978687144 0.722438837287786 105.338628413145 -0.04286041584027 0.7051338973852 105.3169768342 -0.8068006920299 0.877661895581 112.5087261974 -0.775478237390738 0.876402138527087 112.510345748602 -0.744348671696135 0.872686915713296 112.511912330555 -0.71360369605027 0.866539439583954 112.513416301858 -0.683432643185993 0.857997567331375 112.514848400802 -0.654021311523105 0.847113901242055 112.516199808282 -0.625550820990425 0.833955464762942 112.517462202103 -0.598196497658796 0.818603289759775 112.518627808231 -0.572126794053643 0.801151917509217 112.519689448668 -0.547502251795978 0.78170881649777 112.520640585653 -0.52447451296009 0.760393720612753 112.521475361925 -0.503185386236133 0.737337891800877 112.52218863679 -0.483765973648355 0.712683311735097 112.522776017783 -0.466335863206778 0.686581807467575 112.523233887712 -0.451002392464106 0.659194116453153 112.523559426938 -0.437859987513019 0.630688896701062 112.523750630734 -0.426989581494409 0.60124168815052 112.523806321636 -0.418458116197478 0.571033831666257 112.52372615669 -0.412318129820937 0.540251352310958 112.523510629565 -0.408607433433943 0.509083813771627 112.523161067513 -0.4073488781274 0.4777231509962 112.5226796231 -0.02979974767936 0.603470855776 105.3185983861 -0.0309533086213661 0.634300241871676 105.317890298032 -0.0344869652604774 0.664926599755206 105.317369762018 -0.0381567357377063 0.685141973093661 105.317129998691 0 7.75849965842211 0.0806847407437966 7.76348812421961 0.159505275389219 7.76865967823042 0.229418272541045 7.77358788414698 0.29194388923156 7.77833369238537 0.354489871825573 7.78345213671188 0.417298659896261 7.78901587277782 0.480257117111172 7.79508938650573 0.543055430594891 7.80173307061926 0.605385100535745 7.80900784613746 0.666927013240688 7.81697447614411 0.727377284279472 7.82569383328232 0.786582284935339 7.83523249447969 0.844613218538926 7.84566697290917 0.901532780755901 7.8570748110297 0.957373190900877 7.86953344203843 1.01213903311795 7.88312064842024 1.06580347085066 7.8979122683555 1.118277287495 7.91397085629687 1.16941321749499 7.93134817871295 1.21904024283779 7.95009628337414 1.26696500930016 7.97026571851036 1.31298721511785 7.99190958140964 0 0.774138533787223 0.0784941469145495 0.774138533787223 0.156988293829099 0.774138533787223 0.235482440743648 0.774138533787223 0.313976587658198 0.774138533787223 0.392470734572747 0.774138533787223 0.470964881487297 0.774138533787223 0.549459028401846 0.774138533787223 0.627953175316396 0.774138533787223 0.706447322230945 0.774138533787223 0.784941469145495 0.774138533787223 0.863435616060044 0.774138533787223 0.941929762974594 0.774138533787223 1.02042390988914 0.774138533787223 1.09891805680369 0.774138533787223 1.17741220371824 0.774138533787223 1.25590635063279 0.774138533787223 1.33440049754734 0.774138533787223 1.41289464446189 0.774138533787223 1.49138879137644 0.774138533787223 1.56988293829049 0.774138533884368 1.56988293893707 7.98920210258937 1.4928142217913 7.99001434623545 1.41574550464554 7.99082658988154 1.36436635988169 7.99136808564559 1 24 25 2 25 26 2 1 25 3 2 26 4 26 27 4 3 26 5 27 28 5 4 27 6 28 29 6 5 28 7 29 30 7 6 29 8 30 31 8 7 30 9 8 31 10 31 32 10 9 31 11 32 33 11 10 32 12 33 34 12 11 33 13 12 34 14 13 34 14 34 35 15 14 35 15 35 36 16 15 36 16 36 37 17 16 37 18 17 37 18 37 38 19 18 38 19 38 39 20 19 39 21 20 39 21 39 40 22 21 40 23 22 40 23 40 41 48 23 41 48 41 42 47 48 42 47 42 43 46 43 44 46 47 43 45 46 44 

TShapes 8
Ve
0.00211072222898608
-0.04286041584027 0.7051338973852 105.3169768342
0 0

0101101
*
Ve
0.0121715840081904
0.08612262840726 0.6067215790894 104.9943688858
0 0

0101101
*
Ed
 0.00211072222898608 1 1 0
1  1 0 0 1
2  1 2 0 0 1
2  2 1 0 0 1
4 C0 2 0 1 0
6  1 1 0
0

0101000
+8 0 -7 0 *
Ve
0.00633651693622508
-0.02979974767936 0.603470855776 105.3185983861
0 0

0101101
*
Ed
 0.00633651693622508 1 1 0
1  2 0 0 1
2  3 3 0 0 1
2  4 1 0 0 1
4 C0 3 0 1 0
6  2 2 0
0

0101000
+7 0 -5 0 *
Ed
 0.000445421545577176 1 1 0
1  3 0 0 1
2  5 1 0 0 1
2  6 4 0 0 1
4 C0 1 0 4 0
6  3 3 0
0

0101000
+5 0 -8 0 *
Wi

0101100
+6 0 +4 0 +3 0 *
Fa
0  1e-07 1 0

0111000
+2 0 *

-1 0 