DBRep_DrawableShape

CASCADE Topology V3, (c) Open Cascade
Locations 0
Curve2ds 3
7 0 0  1 2 2  6.3151499829476041 0.0043251650406546105  6.3267469865209929 0.074325165036384533 
 0 2 0.070003533093324924 2
7 0 0  1 2 2  0.31889538377022131 0.0043251650406546105  0.33195879707723819 0.074325165036384533 
 0 2 0.070003533093324924 2
7 0 0  1 2 2  0.31889538377022131 0.0043251650406546105  0.33195879713854359 0.074325165036327689 
 0 2 1 2
Curves 2
1 27.864985626229998 33.234944291630001 -1.2894951585979999 0.71173960002710723 0.70240258659800714 0.007572852413896076 
7 0 0  3 4 2  27.864985626229998 33.234944291630001 -1.2894951585979999  27.88148478446 33.251443449859998 -1.2894951585979999  27.898310754650002 33.267615796119998 -1.288965032174  27.914809912879999 33.284114954339998 -1.288965032173 
 0 4 1 4
Polygon3D 0
PolygonOnTriangulations 2
3 3 8 9 
p 0.0166666666666667 1 0 0.0233345110311083 0.0700035330933249 
3 3 4 5 
p 0.0166666666666667 1 0 0.5 1 
Surfaces 3
2 27.89543096928 33.198382241520001 -1.3051387818860001 0.70710678118654757 0.70710678118654757 0 -0.70710678118654757 0.70710678118654757 0 0 -0 1 0.049999999997419997
2 27.89543096928 33.198382241520001 -1.291010205144 0.70710678118654757 0.70710678118654757 0 -0.70710678118654757 0.70710678118654757 0 0 -0 1 0.049999999997419997
1 27.902024856720001 33.247402535820001 -1.26 0.58834840544072087 -0.58834840538792088 -0.55470019622571975 0.39223227032611496 -0.39223227022731499 0.83205029433751665 -0.70710678113717929 -0.70710678123591586 3.7418931375531172e-11 
Triangulations 2
13 11 1 0 0.00613058867778722
27.87475387122 33.22517604664 -1.327916992568 27.92677359406 33.27215127316 -1.331010205143 27.86498562623 33.23494429163 -1.289495158598 27.8653030651395 33.2346268527205 -1.29524109106296 27.8653447680353 33.2345851498247 -1.3082912581168 27.8664836173166 33.2334463005434 -1.31384120369356 27.8712168443703 33.2287130734897 -1.32225815062493 27.8815937217781 33.2513345125353 -1.28931844978981 27.91480991288 33.28411495434 -1.288965032173 27.9183285585385 33.2805963086907 -1.31918361534236 27.9161812566296 33.2827436105992 -1.31422507611891 27.9151679849688 33.283756882255 -1.30294073285202 27.9151233239975 33.2838015432233 -1.29438189615522 5.45043204563389 0.00432516504065461 5.40310822330549 0.0743251650363348 6.3151499829476 0.00432516504065461 6.23547026929337 0.00432516504065461 6.03022644108403 0.00432516504065461 5.88279101429075 0.00432516504065461 5.61893797024681 0.00432516504065461 6.3190156508054 0.0276584983725646 6.3267469865377 0.0743251650363277 5.81361434029758 0.0743251650363316 5.95044971262828 0.0743251650363306 6.13859834958299 0.0743251650363291 6.25311197203941 0.0743251650363283 7 2 1 10 7 6 10 2 7 11 6 5 11 10 6 12 5 4 12 11 5 8 4 3 13 12 4 13 4 8 9 13 8 
6 4 1 0 0.00164265338719868
27.88548033621 33.21444958165 -1.242596227925 27.93497781089 33.26394705633 -1.242596227924 27.86498562623 33.23494429163 -1.289495158598 27.889897769555 33.2595296229888 -1.28923009538588 27.91480991288 33.28411495434 -1.288965032173 27.924893861885 33.274031005335 -1.26578063004887 0.0209167308612893 0.0349999999993005 0.0209167308670125 -0.0349999999963729 -0.0341829114575345 0.0349999999955215 -0.0338341793319442 -4.94025043096256e-12 -0.0334854472027903 -0.0350000000000982 -0.00628435816820285 -0.0349999999982375 4 5 6 1 3 4 1 6 2 1 4 6 

TShapes 6
Ve
0.00724753242898549
27.91480991288 33.28411495434 -1.288965032173
0 0

0101101
*
Ve
0.00501962046172895
27.86498562623 33.23494429163 -1.289495158598
0 0

0101101
*
Ed
 0.00303627754893832 1 1 0
1  1 0 0 0.0700035330933249
2  1 2 0 0 0.0700035330933249
2  2 1 0 0 0.0700035330933249
4 C0 2 0 1 0
6  1 1 0
0

0101000
-6 0 +5 0 *
Ed
 0.00198930343391311 1 1 0
1  2 0 0 1
2  3 1 0 0 1
4 C0 1 0 3 0
6  2 2 0
0

0101000
+5 0 -6 0 *
Wi

0101100
-4 0 +3 0 *
Fa
0  1e-07 1 0

0111000
+2 0 *

-1 0 