DBRep_DrawableShape

CASCADE Topology V3, (c) Open Cascade
Locations 0
Curve2ds 3
7 0 0  1 2 2  2.8096338564976899 0.0043251650350013549  2.8052437886768291 0.074325165034915486 
 0 2 0.070000413603627229 2
7 0 0  1 2 2  6.3267469865311234 0.074325165036322804  6.3318127351705931 0.0043251650364082295 
 0 2 0.070000413603627229 2
7 0 0  1 2 2  2.8096338564976899 0.0043251650350013549  2.8052437886768291 0.074325165034915486 
 0 2 0.070000413603627229 2
Curves 2
1 -1.271544274339 -2.8283856435220001 -1.288965032181 -0.70735035937735902 -0.70685484698825907 0.0034197043623258021 
1 -1.271544274339 -2.8283856435220001 -1.288965032181 -0.70735035937735902 -0.70685484698825907 0.0034197043623258021 
Polygon3D 0
PolygonOnTriangulations 2
3 4 5 3 
p 0.0166666666666667 1 0 0.0233334712012091 0.0700004136036272 
3 7 8 3 
p 0.0166666666666667 1 0 0.0233334712012091 0.0700004136036272 
Surfaces 3
2 -1.2353090361979999 -2.8585041746109998 -1.3051387818939999 -0.70710678118654757 -0.70710678118654757 0 0.70710678118654757 -0.70710678118654757 0 0 0 1 0.050000000000239998
1 -1.284329330501 -2.8650980620439999 -1.2600000000080001 0.58834840541432087 -0.58834840541432087 -0.55470019622571975 -0.39223227027671498 0.39223227027671498 -0.83205029433751665 0.70710678118654757 0.70710678118654757 -8.1524687095804742e-18 
2 -1.290923217934 -2.9141183563470001 -1.291010205152 0.70710678118669756 0.70710678118639758 0 -0.70710678118639758 0.70710678118669756 0 0 -0 1 0.049999999999899999
Triangulations 2
6 4 1 0 0.00164071494671108
-1.251376376325 -2.848553541537 -1.242596227932 -1.300873851007 -2.89805101622 -1.242596227932 -1.321059092058 -2.877865775169 -1.288725651462 -1.271544274339 -2.828385643522 -1.288965032181 -1.2880492135787 -2.84487902073764 -1.28888523860774 -1.261460325332 -2.83846959252987 -1.26578063005688 -0.0209167308680958 0.0349999999999584 -0.0209167308684678 -0.034999999999959 0.0332998754037367 -0.034999999999249 0.0334854472052366 0.0350000000006659 0.03342358993807 0.0116666666673609 0.00628435816873538 0.035000000000047 6 1 2 5 2 3 5 6 2 4 6 5 
12 10 1 0 0.00634153961740842
-1.259580593159 -2.840349324702 -1.331010205152 -1.311600315995 -2.887324551232 -1.327916992577 -1.321059092058 -2.877865775169 -1.288725651462 -1.32082792929573 -2.87809693793212 -1.29828668899081 -1.32089526680549 -2.87802960042273 -1.30984925248019 -1.31899953269185 -2.87992533453662 -1.31575188409014 -1.271544274339 -2.828385643522 -1.288965032181 -1.2880492135787 -2.84487902073764 -1.28888523860774 -1.26802562867937 -2.83190428918262 -1.31918361534778 -1.27017293058775 -2.82975698727413 -1.31422507612502 -1.27118620224725 -2.82874371561414 -1.30294073285896 -1.27123086321937 -2.8286990546417 -1.29438189616552 5.40310822332573 0.0743251650356189 5.4504320455785 0.00432516503640779 6.33181273517059 0.00432516503640823 6.19960563171807 0.00432516503640552 6.00800512269497 0.0043251650364061 5.82501883864829 0.00432516503640665 6.32674698653112 0.0743251650363228 6.32843556941095 0.050991831703018 5.8136143403059 0.0743251650359318 5.95044971263263 0.074325165036036 6.13859834958188 0.0743251650361794 6.25311197199688 0.0743251650362667 9 1 2 9 2 6 10 6 5 10 9 6 11 5 4 11 10 5 12 11 4 8 4 3 8 12 4 7 12 8 

TShapes 6
Ve
0.00724753242802874
-1.271544274339 -2.828385643522 -1.288965032181
0 0

0101101
*
Ve
0.00556240310512317
-1.321059092058 -2.877865775169 -1.288725651462
0 0

0101101
*
Ed
 0.0019893034326063 1 1 0
1  1 0 0 0.0700004136036272
2  1 1 0 0 0.0700004136036272
4 C0 1 0 2 0
6  1 1 0
0

0101000
+6 0 -5 0 *
Ed
 0.00303627755239262 1 1 0
1  2 0 0 0.0700004136036272
2  2 3 0 0 0.0700004136036272
2  3 1 0 0 0.0700004136036272
4 C0 3 0 1 0
6  2 2 0
0

0101000
+6 0 -5 0 *
Wi

0101100
-4 0 +3 0 *
Fa
0  1e-07 1 0

0111000
+2 0 *

-1 0 