DBRep_DrawableShape

CASCADE Topology V3, (c) Open Cascade
Locations 0
Curve2ds 3
7 0 0  1 2 2  6.3151499829690199 0.0043251650355127236  6.3267469865308765 0.074325165035290075 
 0 2 0.070003533097371964 2
7 0 0  1 2 2  0.31889538379236776 0.0043251650355127236  0.33195879709270165 0.074325165035290075 
 0 2 0.070003533097371964 2
7 0 0  1 2 2  0.31889538379236776 0.0043251650355127236  0.3319587970945953 0.074325165035288521 
 0 2 1 2
Curves 2
1 -0.1149856262329 -2.4849442916290001 -1.2894951586050001 -0.71173960003321401 -0.70240258659191379 0.007572852405093148 
7 0 0  3 4 2  -0.1149856262329 -2.4849442916290001 -1.2894951586050001  -0.1314847844606 -2.5014434498560001 -1.2894951586050001  -0.148310754653 -2.5176157961190002 -1.288965032181  -0.16480991288069999 -2.5341149543469998 -1.288965032181 
 0 4 1 4
Polygon3D 0
PolygonOnTriangulations 2
3 3 8 9 
p 0.0166666666666667 1 0 0.0233345110324573 0.070003533097372 
3 4 5 1 
p 0.0166666666666667 1 0 0.5 1 
Surfaces 3
2 -0.1454309692862 -2.4483822415229999 -1.3051387818939999 -0.70710678118629755 -0.70710678118679759 0 0.70710678118679759 -0.70710678118629755 0 0 0 1 0.050000000000189997
2 -0.1454309692862 -2.4483822415229999 -1.291010205152 -0.70710678118629755 -0.70710678118679759 0 0.70710678118679759 -0.70710678118629755 0 0 0 1 0.050000000000189997
1 -0.1520248567186 -2.4974025358260001 -1.2600000000080001 0.5883484054148862 -0.58834840541378619 0.55470019622568711 -0.39223227027669194 0.39223227027669194 0.83205029433753841 -0.70710678118608994 -0.70710678118700521 4.3147052544327362e-13 
Triangulations 2
13 11 1 0 0.00613058867775422
-0.1247538712244 -2.475176046637 -1.327916992577 -0.1767735940601 -2.522151273167 -1.331010205152 -0.1149856262329 -2.484944291629 -1.289495158605 -0.115303065142744 -2.48462685271879 -1.29524109107782 -0.115344768038323 -2.48458514982341 -1.30829125812573 -0.116483617319544 -2.48344630054237 -1.31384120370206 -0.121216844409649 -2.47871307345213 -1.32225815069463 -0.131593721782112 -2.50133451253506 -1.28931844979701 -0.1648099128807 -2.534114954347 -1.288965032181 -0.168328558540285 -2.53059630868766 -1.31918361534833 -0.166181256631818 -2.53274361059633 -1.31422507612532 -0.165167984972324 -2.5337568822556 -1.302940732859 -0.165123324000267 -2.53380154322744 -1.29438189616568 5.45043204557636 0.0043251650351539 5.40310822332945 0.0743251650353538 6.31514998296902 0.00432516503551272 6.23547026920836 0.00432516503547966 6.03022644107232 0.00432516503539449 5.88279101427269 0.00432516503533331 5.61893796855611 0.00432516503522382 6.31901565082297 0.0276584983687718 6.32674698653149 0.0743251650352885 5.81361434030813 0.0743251650353248 5.95044971263436 0.0743251650353151 6.13859834958293 0.0743251650353018 6.25311197199543 0.0743251650352937 7 2 1 10 7 6 10 2 7 11 6 5 11 10 6 12 5 4 12 11 5 8 4 3 13 12 4 13 4 8 9 13 8 
6 4 1 0 0.0016426533894595
-0.1648099128807 -2.534114954347 -1.288965032181 -0.174893861887862 -2.52403100534 -1.26578063005688 -0.1849778108951 -2.513947056333 -1.242596227932 -0.1149856262329 -2.484944291629 -1.289495158605 -0.1398977695568 -2.50952962298763 -1.289230095393 -0.1354803362118 -2.464449581649 -1.242596227932 -0.0334854472048052 0.0350000000000277 -0.00628435816858345 0.0350000000001435 0.020916730868348 0.0350000000003121 -0.0341829114498242 -0.0349999999997117 -0.0338341793271672 -1.25248700300063e-13 0.0209167308683312 -0.0350000000005245 6 5 4 2 1 5 2 5 6 3 2 6 

TShapes 6
Ve
0.00724753242816616
-0.1648099128807 -2.534114954347 -1.288965032181
0 0

0101101
*
Ve
0.00501962046256636
-0.1149856262329 -2.484944291629 -1.289495158605
0 0

0101101
*
Ed
 0.00303627755284448 1 1 0
1  1 0 0 0.070003533097372
2  1 2 0 0 0.070003533097372
2  2 1 0 0 0.070003533097372
4 C0 1 0 2 0
6  1 1 0
0

0101000
-6 0 +5 0 *
Ed
 0.00198930343327936 1 1 0
1  2 0 0 1
2  3 1 0 0 1
4 C0 3 0 1 0
6  2 2 0
0

0101000
+5 0 -6 0 *
Wi

0101100
-4 0 +3 0 *
Fa
0  1e-07 1 0

0111000
+2 0 *

-1 0 