DBRep_DrawableShape

CASCADE Topology V3, (c) Open Cascade
Locations 0
Curve2ds 3
7 0 0  1 2 2  0.31889538372578791 0.0043251650335898728  0.33195879703082887 0.074325165029323043 
 0 2 0.070003533093324924 2
7 0 0  1 2 2  6.3151499829428372 0.0043251650335898728  6.3267469865144275 0.074325165029323043 
 0 2 0.070003533093324924 2
7 0 0  1 2 2  0.31889538372578791 0.0043251650335898728  0.33195879709214116 0.074325165029264562 
 0 2 1 2
Curves 2
1 32.885014373769998 -32.484944291630001 -1.2894951585979999 -0.71173960002710723 -0.70240258659800714 0.007572852413884076 
7 0 0  3 4 2  32.885014373769998 -32.484944291630001 -1.2894951585979999  32.86851521554 -32.501443449859998 -1.2894951585979999  32.851689245350002 -32.517615796119998 -1.288965032174  32.835190087119997 -32.534114954339998 -1.288965032173 
 0 4 1 4
Polygon3D 0
PolygonOnTriangulations 2
3 3 8 9 
p 0.0166666666666667 1 0 0.0233345110311083 0.0700035330933249 
3 4 5 1 
p 0.0166666666666667 1 0 0.5 1 
Surfaces 3
2 32.854569030710003 -32.448382241520001 -1.3051387818860001 -0.70710678118654757 -0.70710678118654757 0 0.70710678118654757 -0.70710678118654757 0 0 0 1 0.049999999997409998
2 32.854569030710003 -32.448382241520001 -1.291010205144 -0.70710678118654757 -0.70710678118654757 0 0.70710678118654757 -0.70710678118654757 0 0 0 1 0.049999999997409998
1 32.847975143280003 -32.497402535820001 -1.26 0.58834840544072087 -0.58834840538792088 0.55470019622571975 -0.39223227032616498 0.39223227022726498 0.83205029433751665 -0.70710678113715153 -0.70710678123594362 -3.7477806608736646e-11 
Triangulations 2
13 11 1 0 0.00613058867690851
32.87524612878 -32.47517604664 -1.327916992569 32.82322640595 -32.52215127317 -1.331010205146 32.88501437377 -32.48494429163 -1.289495158598 32.8846969348606 -32.4846268527207 -1.29524109105246 32.8846552319648 -32.4845851498248 -1.30829125811551 32.8835163826834 -32.4834463005434 -1.31384120369312 32.8787831555628 -32.4787130734228 -1.32225815073916 32.8684062782219 -32.5013345125353 -1.28931844978981 32.83519008712 -32.53411495434 -1.288965032173 32.8316714414615 -32.5305963086907 -1.31918361534188 32.8338187433704 -32.5327436105992 -1.31422507611862 32.8348320150312 -32.533756882255 -1.30294073285198 32.8348766760025 -32.5338015432233 -1.29438189615506 5.4504320457253 0.00432516503358937 5.40310822340201 0.0743251650292632 6.31514998294284 0.00432516503358987 6.23547026944321 0.00432516503358983 6.03022644113392 0.00432516503358971 5.88279101433407 0.00432516503358962 5.61893796724229 0.00432516503358947 6.31901565080003 0.0276584983655009 6.32674698653114 0.0743251650292646 5.81361434034829 0.0743251650292638 5.95044971266372 0.074325165029264 6.13859834959743 0.0743251650292643 6.25311197204309 0.0743251650292645 7 2 1 10 7 6 10 2 7 11 6 5 11 10 6 12 5 4 12 11 5 8 4 3 13 12 4 13 4 8 9 13 8 
6 4 1 0 0.00164265338720581
32.83519008712 -32.53411495434 -1.288965032173 32.825106138115 -32.524031005335 -1.26578063004887 32.81502218911 -32.51394705633 -1.242596227924 32.88501437377 -32.48494429163 -1.289495158598 32.860102230445 -32.5095296229888 -1.28923009538588 32.86451966379 -32.46444958165 -1.242596227925 -0.0334854472027858 0.0350000000001106 -0.00628435816819832 0.034999999998241 0.0209167308661739 0.0349999999963714 -0.0341829114575074 -0.0349999999964285 -0.0338341793319425 4.94547347518179e-12 0.020916730861285 -0.034999999999297 6 5 4 2 1 5 2 5 6 3 2 6 

TShapes 6
Ve
0.00724753242826125
32.83519008712 -32.53411495434 -1.288965032173
0 0

0101101
*
Ve
0.00501962046059923
32.88501437377 -32.48494429163 -1.289495158598
0 0

0101101
*
Ed
 0.00303627754187405 1 1 0
1  1 0 0 0.0700035330933249
2  1 1 0 0 0.0700035330933249
2  2 2 0 0 0.0700035330933249
4 C0 1 0 2 0
6  1 1 0
0

0101000
-6 0 +5 0 *
Ed
 0.00198930343391815 1 1 0
1  2 0 0 1
2  3 1 0 0 1
4 C0 3 0 1 0
6  2 2 0
0

0101000
+5 0 -6 0 *
Wi

0101100
-4 0 +3 0 *
Fa
0  1e-07 1 0

0111000
+2 0 *

-1 0 