DBRep_DrawableShape

CASCADE Topology V3, (c) Open Cascade
Locations 0
Curve2ds 1
7 0 0  3 25 23  6.3456458076500395 0.0022505479600027911  6.2953400086344065 0.017504128640910704  6.2010901480396852 0.046909311013844941  6.0775917428212027 0.087363383579844273  5.9704513715191005 0.12381626918340045  5.8792340203003448 0.15591950865346649  5.8043560348213674 0.18332825756921664  5.7471696524104789 0.205684185710691  5.7095630878619072 0.22267929130509723  5.6947563614120602 0.2338177445892545  5.7016256001070156 0.23971678169947919  5.7267857038370371 0.24151966089004967  5.7674022893479888 0.24024310393014273  5.82052741460212 0.23693546671008378  5.8832457787764856 0.23264510512027819  5.9527587906970467 0.22838874092991923  6.0262515368020129 0.22530963239330973  6.1021876731072471 0.22402501564639596  6.1812298926415234 0.22403906092455411  6.2639598529404621 0.22504376645397142  6.3512929259729454 0.2266808020131357  6.4443437382630728 0.22860532318018048  6.5444176694474372 0.23046887078269648  6.6167192713683969 0.23143892949453793  6.6544899967376141 0.23179792159000101 
 0 4 0.045454545454545456 1 0.090909090909090912 1 0.13636363636363635 1 0.18181818181818182 1 0.22727272727272729 1 0.27272727272727271 1 0.31818181818181818 1 0.36363636363636365 1 0.40909090909090912 1 0.45454545454545459 1 0.5 1 0.54545454545454541 1 0.59090909090909094 1 0.63636363636363635 1 0.68181818181818188 1 0.72727272727272729 1 0.77272727272727271 1 0.81818181818181823 1 0.86363636363636365 1 0.90909090909090917 1 0.95454545454545459 1 1 4
Curves 1
7 0 0  3 6 4  18.645096580560001 99.794022650870005 -0.034077155187740002  18.642909566210001 99.905882242529998 -0.03110199582894  18.637928686519999 100.0703390293 -0.029950026357309999  18.64268578027 100.0021166062 -0.031150506892659999  18.645631238610001 100.02093741580001 -0.034182105716770002  18.646515648520001 100.0235700245 -0.036806466705030003 
 0 4 0.33333333333330001 1 0.66666666666670005 1 1 4
Polygon3D 0
PolygonOnTriangulations 0
Surfaces 1
2 18.637039291360001 99.791772102910002 -0.040000000000000001 0 1 0 0.76718739504248434 -0 0.64142302803058693 0.64142302803058693 0 -0.76718739504248434 0.0099999999994460007
Triangulations 0

TShapes 4
Ve
0.22393548569054
18.6451315367221 99.79967713355 -0.0341443868204043
0 0

0101101
*
Ed
 6.62255949938333e-05 1 1 0
1  1 0 0 1
2  1 1 0 0 1
0

0101000
-4 0 +4 0 *
Wi

0101100
-3 0 *
Fa
0  1e-07 1 0

0111000
+2 0 *

+1 0 