DBRep_DrawableShape

CASCADE Topology V3, (c) Open Cascade
Locations 0
Curve2ds 1
7 0 0  3 25 23  6.3456458076495634 0.0022505479600027911  6.2947754178566484 0.017504552217722846  6.1994915178046917 0.046910544542921456  6.0746391979561079 0.087365734865082603  5.9662397093502886 0.12381965547282575  5.8738049201507883 0.15592386165591152  5.7977334125133382 0.18333352330422747  5.7393919839979528 0.20569032506810095  5.7007039199907075 0.22268627795656984  5.6849460489382508 0.23382557278287802  5.6910182029674461 0.23972542006898684  5.7155354441494204 0.24152903062582151  5.7556738359967596 0.24025308403017201  5.8085020908525822 0.2369458926672571  5.8711259578733204 0.23265576892237369  5.9407641867040688 0.22839939237224841  6.0146170369145535 0.22531997382789604  6.0911341335550997 0.22403472381098324  6.1709297004762238 0.2240478331331143  6.2545605624153602 0.22505131280233592  6.3429326616188781 0.22668684746741768  6.4371708857914438 0.22860960701711347  6.5386086016497531 0.23047114673985775  6.6119687164011243 0.23143971230365185  6.650313029734658 0.23179792159000101 
 0 4 0.045454545454545456 1 0.090909090909090912 1 0.13636363636363635 1 0.18181818181818182 1 0.22727272727272729 1 0.27272727272727271 1 0.31818181818181818 1 0.36363636363636365 1 0.40909090909090912 1 0.45454545454545459 1 0.5 1 0.54545454545454541 1 0.59090909090909094 1 0.63636363636363635 1 0.68181818181818188 1 0.72727272727272729 1 0.77272727272727271 1 0.81818181818181823 1 0.86363636363636365 1 0.90909090909090917 1 0.95454545454545459 1 1 4
Curves 1
7 0 0  3 6 4  49.645096580560001 99.794022650870005 -0.034077155187730003  49.642884952430002 99.905885348759995 -0.03106851186976  49.637823351660003 100.0703463474 -0.029940907591749999  49.642564588059997 100.00212993069999 -0.031074006284949999  49.645593245630003 100.02094315639999 -0.034106412788730001  49.646502226609996 100.0235700245 -0.036766912247270002 
 0 4 0.33333333333330001 1 0.66666666666670005 1 1 4
Polygon3D 0
PolygonOnTriangulations 0
Surfaces 1
2 49.637039291359997 99.791772102910002 -0.040000000000000001 0 1 0 0.76718739504262401 -0 0.64142302803041995 0.64142302803041995 0 -0.76718739504262401 0.0099999999994510001
Triangulations 0

TShapes 4
Ve
0.223934844514013
49.645131206742 99.7996772387604 -0.0341434137009797
0 0

0101101
*
Ed
 6.56618838341586e-05 1 1 0
1  1 0 0 1
2  1 1 0 0 1
0

0101000
-4 0 +4 0 *
Wi

0101100
-3 0 *
Fa
0  1e-07 1 0

0111000
+2 0 *

+1 0 