DBRep_DrawableShape

CASCADE Topology V3, (c) Open Cascade
Locations 0
Curve2ds 3
7 0 0  1 2 2  6.3151499829480811 0.0043251650357080118  6.3267469865138661 0.074325165035634355 
 0 2 0.070003533097521969 2
7 0 0  1 2 2  0.31889538377466209 0.0043251650357080118  0.33195879707836967 0.074325165035634355 
 0 2 0.070003533097521969 2
7 0 0  1 2 2  0.31889538377466209 0.0043251650357080118  0.33195879709674453 0.074325165035625251 
 0 2 1 2
Curves 2
1 1.385014373767 -2.4849442916290001 -1.2894951586059999 -0.71173960003290127 -0.70240258659220123 0.0075728524078400141 
7 0 0  3 4 2  1.385014373767 -2.4849442916290001 -1.2894951586059999  1.36851521554 -2.5014434498560001 -1.2894951586050001  1.351689245347 -2.5176157961199999 -1.288965032181  1.3351900871189999 -2.5341149543469998 -1.288965032181 
 0 4 1 4
Polygon3D 0
PolygonOnTriangulations 2
3 3 8 9 
p 0.0166666666666667 1 0 0.0233345110325073 0.070003533097522 
3 4 5 1 
p 0.0166666666666667 1 0 0.5 1 
Surfaces 3
2 1.3545690307139999 -2.4483822415229999 -1.3051387818939999 -0.70710678118654757 -0.70710678118654757 0 0.70710678118654757 -0.70710678118654757 0 0 0 1 0.04999999999989
2 1.3545690307139999 -2.4483822415229999 -1.291010205152 -0.70710678118654757 -0.70710678118654757 0 0.70710678118654757 -0.70710678118654757 0 0 0 1 0.04999999999989
1 1.3479751432810001 -2.4974025358260001 -1.2600000000080001 0.58834840541432087 -0.58834840541432087 0.55470019622571975 -0.39223227027671498 0.39223227027671498 0.83205029433751665 -0.70710678118654757 -0.70710678118654757 -8.1524687095804742e-18 
Triangulations 2
13 11 1 0 0.00613058867735511
1.375246128776 -2.475176046637 -1.327916992577 1.32322640594 -2.522151273167 -1.331010205152 1.385014373767 -2.484944291629 -1.289495158606 1.3846969348573 -2.48462685271878 -1.2952410910782 1.38465523196167 -2.48458514982341 -1.30829125812545 1.38351638268044 -2.48344630054237 -1.31384120370203 1.37878315557566 -2.47871307343703 -1.32225815072035 1.36840627821776 -2.5013345125351 -1.28931844979794 1.335190087119 -2.534114954347 -1.288965032181 1.33167144145974 -2.53059630868821 -1.31918361534833 1.33381874336834 -2.53274361059663 -1.31422507612532 1.3348320150276 -2.53375688225564 -1.302940732859 1.33487667599944 -2.53380154322744 -1.29438189616586 5.45043204557848 0.00432516503500047 5.40310822333641 0.0743251650349182 6.31514998294808 0.00432516503570801 6.2354702691823 0.00432516503564281 6.0302264410594 0.00432516503547488 5.88279101426328 0.00432516503535424 5.6189379678591 0.00432516503513834 6.31901565080334 0.0276584983690168 6.32674698653179 0.0743251650356253 5.81361434031214 0.0743251650352324 5.95044971263738 0.0743251650353372 6.13859834958459 0.0743251650354812 6.2531119719939 0.0743251650355689 7 2 1 10 7 6 10 2 7 11 6 5 11 10 6 12 5 4 12 11 5 8 4 3 13 12 4 13 4 8 9 13 8 
6 4 1 0 0.00164265338920825
1.335190087119 -2.534114954347 -1.288965032181 1.325106138112 -2.52403100534 -1.26578063005688 1.315022189105 -2.513947056333 -1.242596227932 1.385014373767 -2.484944291629 -1.289495158606 1.36010223044337 -2.509529622988 -1.28923009539313 1.364519663788 -2.464449581649 -1.242596227932 -0.0334854472048442 0.0349999999999585 -0.00628435816868635 0.0349999999999586 0.0209167308680956 0.0349999999999589 -0.0341829114507953 -0.0350000000003095 -0.0338341793276436 -2.65136246291319e-13 0.0209167308680958 -0.0350000000006656 6 5 4 2 1 5 2 5 6 3 2 6 

TShapes 6
Ve
0.00724753242825678
1.335190087119 -2.534114954347 -1.288965032181
0 0

0101101
*
Ve
0.00501962046163813
1.385014373767 -2.484944291629 -1.289495158606
0 0

0101101
*
Ed
 0.00303627755273641 1 1 0
1  1 0 0 0.070003533097522
2  1 2 0 0 0.070003533097522
2  2 1 0 0 0.070003533097522
4 C0 2 0 1 0
6  1 1 0
0

0101000
-6 0 +5 0 *
Ed
 0.0019893034331947 1 1 0
1  2 0 0 1
2  3 1 0 0 1
4 C0 1 0 3 0
6  2 2 0
0

0101000
+5 0 -6 0 *
Wi

0101100
-4 0 +3 0 *
Fa
0  1e-07 1 0

0111000
+2 0 *

-1 0 