DBRep_DrawableShape

CASCADE Topology V3, (c) Open Cascade
Locations 0
Curve2ds 2
7 0 0  3 4 2  6.5630806358271236 0.080577838868777021  6.5630806357591434 0.08057784246025243  6.5629708184258817 0.086379894170104859  6.5626707920472436 0.10223138601999437 
 0.78867520000000002 4 0.99999999999999978 4
7 0 0  3 25 23  6.5626707920472445 0.10223138601999437  6.5626199104886247 0.10492041310579323  6.5625291006048485 0.10972007573881934  6.5624233797508928 0.1153088031805862  6.5623457853433749 0.11941117222255554  6.5622939561451057 0.122151590972589  6.5622655339263547 0.12365446753862766  6.5622581633356161 0.12404421002857831  6.5622694910135717 0.12344522655032014  6.562297165004952 0.12198192521187719  6.5623388341895605 0.11977871412097772  6.5623921478024521 0.11696000138570546  6.5624547550240031 0.11365019511387157  6.5625243046444011 0.1099737034134244  6.562598444809649 0.10605493439229226  6.5626748228349454 0.10201829615834623  6.5627510850942743 0.097988196819536272  6.5628248769919191 0.094089044483723974  6.5628938429991477 0.090445247258875483  6.5629556267737152 0.087181213252882708  6.563007871344551 0.084421350573659473  6.5630482194045703 0.082290067329105959  6.5630743135527352 0.080911771627155113  6.563080635905143 0.080577838259523721  6.5630806358271228 0.080577838868777008 
 0.99999999999999978 4 1.0358488727272726 1 1.0716977454545453 1 1.1075466181818181 1 1.1433954909090907 1 1.1792443636363634 1 1.2150932363636362 1 1.250942109090909 1 1.2867909818181817 1 1.3226398545454545 1 1.3584887272727273 1 1.3943376000000001 1 1.4301864727272728 1 1.4660353454545454 1 1.5018842181818182 1 1.5377330909090909 1 1.5735819636363637 1 1.6094308363636365 1 1.6452797090909093 1 1.681128581818182 1 1.7169774545454546 1 1.7528263272727274 1 1.7886752000000001 4
Curves 1
7 0 1  3 3 2  18.645581292919999 99.894003488929997 -0.0362174391225  18.645584129260001 99.969013576590001 -0.036201681681950003  18.645578456580001 99.818993401270006 -0.036233196563059997 
 0 3 1 3
Polygon3D 0
PolygonOnTriangulations 0
Surfaces 2
2 18.637039291360001 99.791772102910002 -0.040000000000000001 0 1 0 0.76718739504248434 -0 0.64142302803058693 0.64142302803058693 0 -0.76718739504248434 0.0099999999994460007
1 18.431405623020002 101.2375003052 -1.2388576498849999 0.98418332397358166 0 -0.1771529983158967 0.1771529983158967 0 0.98418332397358166 0 -1 0 
Triangulations 0

TShapes 6
Ve
0.22393548569054
18.6451315367221 99.79967713355 -0.0341443868204043
0 0

0101101
*
Ve
0.121858367688428
18.6466949930547 99.89400348893 -0.0364179051467397
0 0

0101101
*
Ed
 0.0022632191475512 1 1 0
1  1 0 0.7886752 1
2  1 1 0 0.7886752 1
4 C0 2 0 1 0
0

0101000
+6 0 -5 0 *
Ed
 0.0022632191475512 1 1 0
1  1 0 1 1.7886752
2  2 1 0 1 1.7886752
4 C0 2 0 1 0
0

0101000
+5 0 -6 0 *
Wi

0101100
+4 0 +3 0 *
Fa
0  1e-07 1 0

0111000
+2 0 *

+1 0 