DBRep_DrawableShape

CASCADE Topology V3, (c) Open Cascade
Locations 0
Curve2ds 3
7 0 0  1 2 2  6.3151499829444271 0.0043251650314921619  6.3267469865240722 0.074325165032263385 
 0 2 0.070003533098384113 2
7 0 0  1 2 2  0.318895383740606 0.0043251650314921619  0.33195879706640374 0.074325165032263385 
 0 2 0.070003533098384113 2
7 0 0  1 2 2  0.318895383740606 0.0043251650314921619  0.33195879707643616 0.07432516503225628 
 0 2 1 2
Curves 2
1 -33.114985626230002 -0.98494429162880004 -1.2894951586059999 -0.71173960004681014 -0.70240258657801002 0.0075728524168911073 
7 0 0  3 4 2  -33.114985626230002 -0.98494429162880004 -1.2894951586059999  -33.13148478446 -1.001443449857 -1.2894951586059999  -33.148310754649998 -1.017615796117 -1.288965032181  -33.164809912880003 -1.034114954346 -1.288965032181 
 0 4 1 4
Polygon3D 0
PolygonOnTriangulations 2
3 3 8 9 
p 0.0166666666666667 1 0 0.0233345110327947 0.0700035330983841 
3 3 4 5 
p 0.0166666666666667 1 0 0.5 1 
Surfaces 3
2 -33.145430969289997 -0.94838224152210004 -1.3051387818939999 -0.70710678118304759 -0.70710678119004766 0 0.70710678119004766 -0.70710678118304759 0 0 0 1 0.050000000003349997
2 -33.145430969289997 -0.94838224152210004 -1.291010205152 -0.70710678118304759 -0.70710678119004766 0 0.70710678119004766 -0.70710678118304759 0 0 0 1 0.050000000003349997
1 -33.152024856719997 -0.99740253582670002 -1.260000000007 -0.58834840540639255 0.58834840540219258 -0.55470019624699296 -0.3922322703194574 0.39223227026405744 0.83205029432333455 0.70710678116943515 0.70710678120366011 3.0947125714041267e-11 
Triangulations 2
13 11 1 0 0.00613058867559138
-33.12475387122 -0.9751760466386 -1.327916992579 -33.17677359405 -1.022151273169 -1.331010205155 -33.11498562623 -0.9849442916288 -1.289495158606 -33.1153030651398 -0.984626852719241 -1.29524109108194 -33.1153447680353 -0.984585149825646 -1.30829125812462 -33.1164836173166 -0.983446300544775 -1.31384120370162 -33.1212168444395 -0.978713073420391 -1.32225815075173 -33.1315937217798 -1.00133451253477 -1.28931844979773 -33.16480991288 -1.034114954346 -1.288965032181 -33.1683285585385 -1.03059630869044 -1.31918361534492 -33.1661812566296 -1.03274361059799 -1.31422507612256 -33.1651679849688 -1.03375688225549 -1.30294073285756 -33.1651233239975 -1.03380154322664 -1.29438189616336 5.45043204566123 0.00432516503128255 5.40310822341515 0.0743251650314711 6.31514998294443 0.00432516503149216 6.23547026914189 0.00432516503147285 6.03022644110301 0.0043251650314231 5.88279101430283 0.00432516503138736 5.61893796708756 0.0043251650313234 6.31901565080431 0.0276584983650826 6.32674698652893 0.0743251650322563 5.81361434035461 0.0743251650318201 5.95044971266776 0.0743251650319364 6.13859834959834 0.0743251650320963 6.25311197202221 0.0743251650321937 7 2 1 10 7 6 10 2 7 11 6 5 11 10 6 12 5 4 12 11 5 8 4 3 13 12 4 13 4 8 9 13 8 
6 4 1 0 0.001642653389851
-33.13548033621 -0.9644495816497 -1.242596227932 -33.18497781089 -1.013947056331 -1.242596227932 -33.11498562623 -0.9849442916288 -1.289495158606 -33.139897769555 -1.0095296229871 -1.2892300953935 -33.16480991288 -1.034114954346 -1.288965032181 -33.174893861885 -1.02403100533812 -1.26578063005612 0.0209167308651017 0.0350000000033195 0.020916730867339 -0.0349999999929852 -0.0341829114541422 0.035000000002088 -0.0338341793291389 1.93090821110076e-12 -0.0334854472043702 -0.0349999999986519 -0.00628435816805681 -0.034999999995553 4 5 6 1 3 4 1 6 2 1 4 6 

TShapes 6
Ve
0.00724753242536365
-33.16480991288 -1.034114954346 -1.288965032181
0 0

0101101
*
Ve
0.00501962046097493
-33.11498562623 -0.9849442916288 -1.289495158606
0 0

0101101
*
Ed
 0.00303627755249384 1 1 0
1  1 0 0 0.0700035330983841
2  1 2 0 0 0.0700035330983841
2  2 1 0 0 0.0700035330983841
4 C0 2 0 1 0
6  1 1 0
0

0101000
-6 0 +5 0 *
Ed
 0.00198930343453618 1 1 0
1  2 0 0 1
2  3 1 0 0 1
4 C0 1 0 3 0
6  2 2 0
0

0101000
+5 0 -6 0 *
Wi

0101100
-4 0 +3 0 *
Fa
0  1e-07 1 0

0111000
+2 0 *

-1 0 