DBRep_DrawableShape

CASCADE Topology V3, (c) Open Cascade
Locations 0
Curve2ds 3
7 0 0  1 2 2  0.31889538381462124 0.0043251650335918157  0.33195879712357063 0.074325165029321738 
 0 2 0.070003533093327436 2
7 0 0  1 2 2  6.3151499829523683 0.0043251650335918157  6.3267469865274526 0.074325165029321738 
 0 2 0.070003533093327436 2
7 0 0  1 2 2  0.31889538381462124 0.0043251650335918157  0.33195879718494609 0.074325165029264895 
 0 2 1 2
Curves 2
1 -27.864985626229998 -31.734944291630001 -1.2894951585979999 -0.71173960002710757 -0.70240258659800747 0.0075728524138320803 
7 0 0  3 4 2  -27.864985626229998 -31.734944291630001 -1.2894951585979999  -27.88148478446 -31.751443449859998 -1.2894951585979999  -27.898310754650002 -31.767615796120001 -1.288965032174  -27.914809912879999 -31.784114954340001 -1.288965032173 
 0 4 1 4
Polygon3D 0
PolygonOnTriangulations 2
3 3 8 9 
p 0.0166666666666667 1 0 0.0233345110311091 0.0700035330933274 
3 4 5 1 
p 0.0166666666666667 1 0 0.5 1 
Surfaces 3
2 -27.89543096928 -31.698382241529998 -1.3051387818860001 -0.70710678118654757 -0.70710678118654757 0 0.70710678118654757 -0.70710678118654757 0 0 0 1 0.049999999997409998
2 -27.89543096928 -31.698382241529998 -1.291010205144 -0.70710678118654757 -0.70710678118654757 0 0.70710678118654757 -0.70710678118654757 0 0 0 1 0.049999999997409998
1 -27.902024856720001 -31.747402535820001 -1.26 0.58834840544078626 -0.58834840538788624 0.55470019622568711 -0.39223227032619196 0.39223227022719187 0.83205029433753841 -0.70710678113708214 -0.707106781236013 -3.7497446744678548e-11 
Triangulations 2
13 11 1 0 0.00613058867779408
-27.87475387122 -31.72517604664 -1.327916992569 -27.92677359405 -31.77215127317 -1.331010205146 -27.86498562623 -31.73494429163 -1.289495158598 -27.8653030651396 -31.7346268527204 -1.29524109106408 -27.8653447680352 -31.7345851498248 -1.30829125811562 -27.8664836173166 -31.7334463005434 -1.31384120369312 -27.8712168444363 -31.7287130734237 -1.32225815073765 -27.8815937217781 -31.7513345125353 -1.28931844978981 -27.91480991288 -31.78411495434 -1.288965032173 -27.9183285585385 -31.7805963086907 -1.31918361534188 -27.9161812566296 -31.7827436105992 -1.31422507611862 -27.9151679849688 -31.7837568822551 -1.30294073285198 -27.9151233239975 -31.7838015432233 -1.29438189615531 5.45043204551562 0.00432516503359182 5.40310822318354 0.0743251650292649 6.31514998295237 0.00432516503359182 6.23547026927119 0.00432516503359182 6.03022644106907 0.00432516503359182 5.88279101423399 0.00432516503359182 5.61893796711608 0.00432516503359182 6.31901565081073 0.0276584983655018 6.32674698654425 0.0743251650292649 5.81361434023274 0.0743251650292649 5.95044971258248 0.0743251650292649 6.13859834956336 0.0743251650292649 6.25311197203451 0.0743251650292649 7 2 1 10 7 6 10 2 7 11 6 5 11 10 6 12 5 4 12 11 5 8 4 3 13 12 4 13 4 8 9 13 8 
6 4 1 0 0.00164265338720065
-27.91480991288 -31.78411495434 -1.288965032173 -27.924893861885 -31.774031005335 -1.26578063004887 -27.93497781089 -31.76394705633 -1.242596227924 -27.86498562623 -31.73494429163 -1.289495158598 -27.889897769555 -31.7595296229888 -1.28923009538588 -27.88548033621 -31.71444958165 -1.242596227925 -0.0334854472027871 0.0350000000001055 -0.00628435816819705 0.034999999998239 0.0209167308661869 0.0349999999963725 -0.0341829114575122 -0.0349999999964436 -0.0338341793319452 4.94722984800688e-12 0.0209167308612822 -0.034999999999301 6 5 4 2 1 5 2 5 6 3 2 6 

TShapes 6
Ve
0.00724753242862637
-27.91480991288 -31.78411495434 -1.288965032173
0 0

0101101
*
Ve
0.00501962046215625
-27.86498562623 -31.73494429163 -1.289495158598
0 0

0101101
*
Ed
 0.00303627755599503 1 1 0
1  1 0 0 0.0700035330933274
2  1 1 0 0 0.0700035330933274
2  2 2 0 0 0.0700035330933274
4 C0 1 0 2 0
6  1 1 0
0

0101000
-6 0 +5 0 *
Ed
 0.00198930343391261 1 1 0
1  2 0 0 1
2  3 1 0 0 1
4 C0 3 0 1 0
6  2 2 0
0

0101000
+5 0 -6 0 *
Wi

0101100
-4 0 +3 0 *
Fa
0  1e-07 1 0

0111000
+2 0 *

-1 0 