DBRep_DrawableShape

CASCADE Topology V3, (c) Open Cascade
Locations 0
Curve2ds 3
7 0 0  1 2 2  2.8096338564976913 0.0043251650335866532  2.805243788676798 0.07432516503350145 
 0 2 0.070000413603627076 2
7 0 0  1 2 2  6.3267469865304831 0.07432516503562514  6.3318127351698674 0.0043251650357103433 
 0 2 0.070000413603627076 2
7 0 0  1 2 2  2.8096338564976913 0.0043251650335866532  2.8052437886768025 0.07432516503350145 
 0 2 0.070000413603627076 2
Curves 2
1 3.228455725661 -2.8283856435220001 -1.288965032181 -0.70735035937730906 -0.70685484698830914 0.0034197043623260433 
1 3.228455725661 -2.8283856435220001 -1.288965032181 -0.70735035937730906 -0.70685484698830914 0.0034197043623220439 
Polygon3D 0
PolygonOnTriangulations 2
3 7 8 3 
p 0.0166666666666667 1 0 0.023333471201209 0.0700004136036271 
3 4 5 3 
p 0.0166666666666667 1 0 0.023333471201209 0.0700004136036271 
Surfaces 3
2 3.2646909638010002 -2.8585041746119999 -1.3051387818939999 -0.70710678118654757 -0.70710678118654757 0 0.70710678118654757 -0.70710678118654757 0 0 0 1 0.050000000000239998
2 3.2090767820670001 -2.9141183563470001 -1.291010205152 0.70710678118654757 0.70710678118654757 0 -0.70710678118654757 0.70710678118654757 0 0 -0 1 0.04999999999989
1 3.215670669499 -2.8650980620439999 -1.2600000000080001 0.58834840541432087 -0.58834840541432087 -0.55470019622571975 -0.39223227027671498 0.39223227027671498 -0.83205029433751665 0.70710678118654757 0.70710678118654757 -8.1524687095804742e-18 
Triangulations 2
12 10 1 0 0.00634153961738646
3.240419406841 -2.840349324702 -1.331010205152 3.188399684005 -2.887324551232 -1.327916992577 3.178940907942 -2.877865775169 -1.288725651462 3.17917207070427 -2.87809693793212 -1.29828668899081 3.17910473319451 -2.87802960042274 -1.3098492524802 3.18100046730815 -2.87992533453662 -1.31575188409014 3.228455725661 -2.828385643522 -1.288965032181 3.2119507864213 -2.84487902073764 -1.28888523860774 3.23197437132063 -2.83190428918262 -1.31918361534778 3.22982706941225 -2.82975698727413 -1.31422507612502 3.22881379775275 -2.82874371561414 -1.30294073285896 3.22876913678063 -2.8286990546417 -1.29438189616551 5.40310822333641 0.0743251650349182 5.45043204558895 0.0043251650357079 6.33181273516987 0.00432516503571034 6.19960563171902 0.00432516503570778 6.0080051226981 0.00432516503570781 5.82501883865399 0.00432516503570784 6.32674698653048 0.0743251650356251 6.32843556941028 0.0509918317023202 5.81361434031155 0.0743251650352324 5.9504497126366 0.0743251650353371 6.13859834958354 0.0743251650354811 6.25311197199729 0.0743251650355688 9 1 2 9 2 6 10 6 5 10 9 6 11 5 4 11 10 5 12 11 4 8 4 3 8 12 4 7 12 8 
6 4 1 0 0.00164071494671171
3.248623623675 -2.848553541537 -1.242596227932 3.199126148993 -2.89805101622 -1.242596227932 3.178940907942 -2.877865775169 -1.288725651462 3.228455725661 -2.828385643522 -1.288965032181 3.2119507864213 -2.84487902073764 -1.28888523860775 3.238539674668 -2.83846959252987 -1.26578063005688 -0.0209167308680959 0.0349999999999585 -0.020916730868468 -0.0349999999999589 0.0332998754037344 -0.0349999999992492 0.0334854472052367 0.0350000000006657 0.0334235899380693 0.0116666666673607 0.00628435816873541 0.0350000000000469 6 1 2 5 2 3 5 6 2 4 6 5 

TShapes 6
Ve
0.00724753242801092
3.228455725661 -2.828385643522 -1.288965032181
0 0

0101101
*
Ve
0.00556240310503846
3.178940907942 -2.877865775169 -1.288725651462
0 0

0101101
*
Ed
 0.00303627755169208 1 1 0
1  1 0 0 0.0700004136036271
2  1 1 0 0 0.0700004136036271
2  2 2 0 0 0.0700004136036271
4 C0 2 0 1 0
6  1 1 0
0

0101000
+6 0 -5 0 *
Ed
 0.00198930343260631 1 1 0
1  2 0 0 0.0700004136036271
2  3 1 0 0 0.0700004136036271
4 C0 1 0 3 0
6  2 2 0
0

0101000
+6 0 -5 0 *
Wi

0101100
-4 0 +3 0 *
Fa
0  1e-07 1 0

0111000
+2 0 *

+1 0 