DBRep_DrawableShape

CASCADE Topology V3, (c) Open Cascade
Locations 0
Curve2ds 3
7 0 0  1 2 2  2.8096338564930456 0.0043251650342934767  2.8052437886721071 0.074325165034208496 
 0 2 0.070000413603627396 2
7 0 0  1 2 2  2.8096338564930456 0.0043251650342934767  2.8052437886721071 0.074325165034208496 
 0 2 0.070000413603627396 2
7 0 0  1 2 2  6.3267469865311439 0.074325165034921703  6.3318127351705948 0.0043251650350066839 
 0 2 0.070000413603627396 2
Curves 2
1 -5.771544274339 -1.3283856435220001 -1.288965032181 -0.70735035937730906 -0.70685484698830914 0.0034197043623220439 
1 -5.771544274339 -1.3283856435220001 -1.288965032181 -0.70735035937730906 -0.70685484698830914 0.0034197043623220439 
Polygon3D 0
PolygonOnTriangulations 2
3 4 5 3 
p 0.0166666666666667 1 0 0.0233334712012091 0.0700004136036274 
3 7 8 3 
p 0.0166666666666667 1 0 0.0233334712012091 0.0700004136036274 
Surfaces 3
2 -5.7353090361990002 -1.358504174611 -1.3051387818939999 -0.70710678118654757 -0.70710678118654757 0 0.70710678118654757 -0.70710678118654757 0 0 0 1 0.050000000000239998
1 -5.7843293305010004 -1.3650980620440001 -1.2600000000080001 0.58834840541432087 -0.58834840541432087 -0.55470019622571975 -0.39223227027671498 0.39223227027671498 -0.83205029433751665 0.70710678118654757 0.70710678118654757 -8.1524687095804742e-18 
2 -5.7909232179329999 -1.414118356346 -1.291010205152 0.70710678118649761 0.70710678118659753 0 -0.70710678118659753 0.70710678118649761 0 0 -0 1 0.04999999999989
Triangulations 2
6 4 1 0 0.00164071494671145
-5.751376376325 -1.348553541537 -1.242596227932 -5.800873851007 -1.39805101622 -1.242596227932 -5.821059092058 -1.377865775169 -1.288725651462 -5.771544274339 -1.328385643522 -1.288965032181 -5.7880492135787 -1.34487902073764 -1.28888523860775 -5.761460325332 -1.33846959252988 -1.26578063005688 -0.0209167308680957 0.0349999999999589 -0.0209167308684678 -0.034999999999959 0.0332998754037343 -0.0349999999992495 0.0334854472052366 0.0350000000006662 0.0334235899380692 0.011666666667361 0.00628435816873526 0.0350000000000477 6 1 2 5 2 3 5 6 2 4 6 5 
12 10 1 0 0.00634153961740663
-5.759580593159 -1.340349324702 -1.331010205152 -5.811600315995 -1.387324551232 -1.327916992577 -5.821059092058 -1.377865775169 -1.288725651462 -5.82082792929573 -1.37809693793212 -1.29828668899081 -5.82089526680549 -1.37802960042274 -1.30984925248021 -5.81899953269185 -1.37992533453662 -1.31575188409014 -5.771544274339 -1.328385643522 -1.288965032181 -5.7880492135787 -1.34487902073764 -1.28888523860775 -5.76802562867937 -1.33190428918262 -1.31918361534778 -5.77017293058775 -1.32975698727413 -1.31422507612502 -5.77118620224725 -1.32874371561414 -1.30294073285896 -5.77123086321937 -1.3286990546417 -1.29438189616551 5.4031082233254 0.0743251650342138 5.45043204557847 0.00432516503500313 6.33181273517059 0.00432516503500668 6.19960563171807 0.00432516503500389 6.00800512269443 0.00432516503500369 5.82501883864827 0.00432516503500351 6.32674698653114 0.0743251650349217 6.32843556941096 0.0509918317016167 5.81361434030573 0.0743251650345284 5.95044971263251 0.0743251650346333 6.13859834958182 0.0743251650347775 6.25311197199699 0.0743251650348653 9 1 2 9 2 6 10 6 5 10 9 6 11 5 4 11 10 5 12 11 4 8 4 3 8 12 4 7 12 8 

TShapes 6
Ve
0.00724753242802897
-5.771544274339 -1.328385643522 -1.288965032181
0 0

0101101
*
Ve
0.00556240310512217
-5.821059092058 -1.377865775169 -1.288725651462
0 0

0101101
*
Ed
 0.00198930343260643 1 1 0
1  1 0 0 0.0700004136036274
2  1 1 0 0 0.0700004136036274
4 C0 2 0 1 0
6  1 1 0
0

0101000
+6 0 -5 0 *
Ed
 0.00303627755240347 1 1 0
1  2 0 0 0.0700004136036274
2  2 1 0 0 0.0700004136036274
2  3 3 0 0 0.0700004136036274
4 C0 1 0 3 0
6  2 2 0
0

0101000
+6 0 -5 0 *
Wi

0101100
-4 0 +3 0 *
Fa
0  1e-07 1 0

0111000
+2 0 *

-1 0 