DBRep_DrawableShape

CASCADE Topology V3, (c) Open Cascade
Locations 0
Curve2ds 3
7 0 0  1 2 2  0.3188953837258186 0.0043251650335847103  0.3319587970307078 0.074325165029321738 
 0 2 0.070003533093327422 2
7 0 0  1 2 2  6.3151499829428399 0.0043251650335847103  6.3267469865142862 0.074325165029321738 
 0 2 0.070003533093327422 2
7 0 0  1 2 2  0.3188953837258186 0.0043251650335847103  0.3319587970921149 0.074325165029264895 
 0 2 1 2
Curves 2
1 32.364985626230002 28.734944291630001 -1.2894951585979999 0.71173960002710779 0.70240258659800769 0.0075728524137900818 
7 0 0  3 4 2  32.364985626230002 28.734944291630001 -1.2894951585979999  32.38148478446 28.751443449859998 -1.2894951585979999  32.398310754649998 28.767615796120001 -1.288965032174  32.414809912880003 28.784114954340001 -1.288965032173 
 0 4 1 4
Polygon3D 0
PolygonOnTriangulations 2
3 3 8 9 
p 0.0166666666666667 1 0 0.0233345110311091 0.0700035330933274 
3 3 4 5 
p 0.0166666666666667 1 0 0.5 1 
Surfaces 3
2 32.395430969289997 28.698382241520001 -1.3051387818860001 0.70710678118654757 0.70710678118654757 0 -0.70710678118654757 0.70710678118654757 0 0 -0 1 0.049999999997419997
2 32.395430969289997 28.698382241520001 -1.291010205144 0.70710678118654757 0.70710678118654757 0 -0.70710678118654757 0.70710678118654757 0 0 -0 1 0.049999999997419997
1 32.402024856719997 28.747402535820001 -1.26 0.58834840544078626 -0.58834840538788624 -0.55470019622568711 0.39223227032629182 -0.39223227022709189 0.8320502943375383 -0.70710678113702674 -0.7071067812360684 3.7615025773314119e-11 
Triangulations 2
13 11 1 0 0.00613058867736656
32.37475387122 28.72517604664 -1.327916992568 32.42677359406 28.77215127316 -1.331010205143 32.36498562623 28.73494429163 -1.289495158598 32.3653030651396 28.7346268527204 -1.29524109106679 32.3653447680352 28.7345851498248 -1.30829125811558 32.3664836173166 28.7334463005434 -1.31384120369356 32.3712168443697 28.7287130734903 -1.32225815062391 32.3815937217781 28.7513345125353 -1.28931844978981 32.41480991288 28.78411495434 -1.288965032173 32.4183285585385 28.7805963086907 -1.31918361534236 32.4161812566296 28.7827436105992 -1.31422507611891 32.4151679849688 28.7837568822551 -1.30294073285202 32.4151233239975 28.7838015432233 -1.29438189615516 5.45043204573872 0.00432516503358471 5.4031082234147 0.0743251650292578 6.31514998294284 0.00432516503358471 6.2354702692456 0.00432516503358471 6.0302264411401 0.00432516503358471 5.88279101434078 0.00432516503358471 5.6189379703577 0.00432516503358471 6.31901565079999 0.0276584983654971 6.32674698653114 0.0743251650292649 5.81361434035534 0.074325165029261 5.95044971266889 0.074325165029262 6.13859834960001 0.0743251650292635 6.25311197204291 0.0743251650292643 7 2 1 10 7 6 10 2 7 11 6 5 11 10 6 12 5 4 12 11 5 8 4 3 13 12 4 13 4 8 9 13 8 
6 4 1 0 0.00164265338720581
32.38548033621 28.71444958165 -1.242596227925 32.43497781089 28.76394705633 -1.242596227924 32.36498562623 28.73494429163 -1.289495158598 32.389897769555 28.7595296229888 -1.28923009538588 32.41480991288 28.78411495434 -1.288965032173 32.424893861885 28.774031005335 -1.26578063004887 0.020916730861281 0.0349999999992989 0.0209167308670216 -0.0349999999963695 -0.0341829114575401 0.0349999999955093 -0.033834179331944 -4.95327584504324e-12 -0.0334854472027789 -0.0350000000001177 -0.00628435816819048 -0.0349999999982436 4 5 6 1 3 4 1 6 2 1 4 6 

TShapes 6
Ve
0.00724753242880082
32.41480991288 28.78411495434 -1.288965032173
0 0

0101101
*
Ve
0.00501962046094912
32.36498562623 28.73494429163 -1.289495158598
0 0

0101101
*
Ed
 0.00303627754188159 1 1 0
1  1 0 0 0.0700035330933274
2  1 1 0 0 0.0700035330933274
2  2 2 0 0 0.0700035330933274
4 C0 2 0 1 0
6  1 1 0
0

0101000
-6 0 +5 0 *
Ed
 0.00198930343391618 1 1 0
1  2 0 0 1
2  3 1 0 0 1
4 C0 1 0 3 0
6  2 2 0
0

0101000
+5 0 -6 0 *
Wi

0101100
-4 0 +3 0 *
Fa
0  1e-07 1 0

0111000
+2 0 *

-1 0 