DBRep_DrawableShape

CASCADE Topology V3, (c) Open Cascade
Locations 0
Curve2ds 3
7 0 0  1 2 2  0.31889538377022131 0.0043251650406546105  0.33195879707725512 0.074325165036384533 
 0 2 0.07000353309332491 2
7 0 0  1 2 2  6.3151499829476041 0.0043251650406546105  6.3267469865210115 0.074325165036384533 
 0 2 0.07000353309332491 2
7 0 0  1 2 2  0.31889538377022131 0.0043251650406546105  0.33195879713854359 0.074325165036327689 
 0 2 1 2
Curves 2
1 -27.864985626229998 -33.234944291630001 -1.2894951585979999 -0.71173960002710712 -0.70240258659800703 0.0075728524139060767 
7 0 0  3 4 2  -27.864985626229998 -33.234944291630001 -1.2894951585979999  -27.88148478446 -33.251443449859998 -1.2894951585979999  -27.898310754650002 -33.267615796119998 -1.288965032174  -27.914809912879999 -33.284114954339998 -1.288965032173 
 0 4 1 4
Polygon3D 0
PolygonOnTriangulations 2
3 3 8 9 
p 0.0166666666666667 1 0 0.0233345110311083 0.0700035330933249 
3 4 5 1 
p 0.0166666666666667 1 0 0.5 1 
Surfaces 3
2 -27.89543096928 -33.198382241520001 -1.3051387818860001 -0.70710678118654757 -0.70710678118654757 0 0.70710678118654757 -0.70710678118654757 0 0 0 1 0.049999999997419997
2 -27.89543096928 -33.198382241520001 -1.291010205144 -0.70710678118654757 -0.70710678118654757 0 0.70710678118654757 -0.70710678118654757 0 0 0 1 0.049999999997419997
1 -27.902024856720001 -33.247402535820001 -1.26 0.58834840544072087 -0.58834840538792088 0.55470019622571975 -0.39223227032611496 0.39223227022731499 0.83205029433751665 -0.70710678113717929 -0.70710678123591586 -3.7418931375531172e-11 
Triangulations 2
13 11 1 0 0.00613058867764546
-27.87475387122 -33.22517604664 -1.327916992569 -27.92677359405 -33.27215127317 -1.331010205146 -27.86498562623 -33.23494429163 -1.289495158598 -27.8653030651396 -33.2346268527204 -1.2952410910676 -27.8653447680352 -33.2345851498248 -1.30829125811527 -27.8664836173166 -33.2334463005434 -1.31384120369359 -27.8712168444545 -33.2287130734055 -1.32225815076862 -27.8815937217781 -33.2513345125353 -1.28931844978981 -27.91480991288 -33.28411495434 -1.288965032173 -27.9183285585385 -33.2805963086907 -1.31918361534188 -27.9161812566296 -33.2827436105992 -1.31422507611862 -27.9151679849688 -33.283756882255 -1.30294073285198 -27.9151233239975 -33.2838015432233 -1.29438189615522 5.45043204562041 0.00432516504065461 5.40310822329271 0.0743251650363348 6.3151499829476 0.00432516504065461 6.23547026922905 0.00432516504065461 6.03022644111933 0.00432516504065461 5.882791014284 0.00432516504065461 5.61893796636388 0.00432516504065461 6.31901565080541 0.0276584983725646 6.3267469865377 0.0743251650363277 5.81361434029048 0.0743251650363316 5.95044971262307 0.0743251650363306 6.13859834958039 0.0743251650363291 6.25311197203838 0.0743251650363283 7 2 1 10 7 6 10 2 7 11 6 5 11 10 6 12 5 4 12 11 5 8 4 3 13 12 4 13 4 8 9 13 8 
6 4 1 0 0.00164265338720286
-27.91480991288 -33.28411495434 -1.288965032173 -27.924893861885 -33.274031005335 -1.26578063004887 -27.93497781089 -33.26394705633 -1.242596227924 -27.86498562623 -33.23494429163 -1.289495158598 -27.889897769555 -33.2595296229888 -1.28923009538588 -27.88548033621 -33.21444958165 -1.242596227925 -0.0334854472027903 0.0350000000000982 -0.00628435816820285 0.0349999999982375 0.0209167308661833 0.0349999999963704 -0.0341829114575067 -0.0349999999964384 -0.0338341793319442 4.94024876562803e-12 0.0209167308612893 -0.0349999999993005 6 5 4 2 1 5 2 5 6 3 2 6 

TShapes 6
Ve
0.00724753242844186
-27.91480991288 -33.28411495434 -1.288965032173
0 0

0101101
*
Ve
0.00501962046191667
-27.86498562623 -33.23494429163 -1.289495158598
0 0

0101101
*
Ed
 0.00303627754893833 1 1 0
1  1 0 0 0.0700035330933249
2  1 1 0 0 0.0700035330933249
2  2 2 0 0 0.0700035330933249
4 C0 1 0 2 0
6  1 1 0
0

0101000
-6 0 +5 0 *
Ed
 0.00198930343391311 1 1 0
1  2 0 0 1
2  3 1 0 0 1
4 C0 3 0 1 0
6  2 2 0
0

0101000
+5 0 -6 0 *
Wi

0101100
-4 0 +3 0 *
Fa
0  1e-07 1 0

0111000
+2 0 *

-1 0 