DBRep_DrawableShape

CASCADE Topology V3, (c) Open Cascade
Locations 0
Curve2ds 3
7 0 0  1 2 2  8.9446614479807369 0.025614847071000924  9.265831338173804 0.025614847071000924 
 0.50000000039461656 2 1 2
7 0 0  1 2 2  8.717193523983827 0.025614847071000924  6.1242386845839478 0.025614847071000924 
 5.828281125535983 2 6.3769189397259813 2
7 0 0  1 2 2  8.9446614479807351 0.025614847071000924  8.717193523983827 0.025614847071000924 
 5.828281125535983 2 6.0557490495329676 2
Curves 2
7 0 0  3 5 3  72.430993420830006 75.585000000039997 4.9875000000000007  72.435112241409996 75.589815434889999 4.9875000000000007  72.443463231210004 75.601661647659995 4.9875000000000007  72.452737741839996 75.622108262410009 4.9875000000000007  72.455768645980001 75.633846903679995 4.9875000000000007 
 0 4 0.5 1 1 4
2 72.355000000069992 75.650000000039995 4.9875000000000007 0 0 1 0.96824583655188134 -0.24999999999989517 0 0.24999999999989517 0.96824583655188134 -0 0.10000000000000001
Polygon3D 0
PolygonOnTriangulations 3
5 64 68 69 70 71 
p 0.05 1 0.500000000394617 0.680000000252555 0.825800000137484 0.912900000068742 1 
8 53 72 73 74 75 76 77 71 
p 0.05 1 5.82828112553598 5.90665795613455 5.98503478673312 6.0634116173317 6.14178844793027 6.22016527852884 6.29854210912741 6.37691893972598 
4 53 62 63 64 
p 0.05 1 5.82828112553598 5.90410376686831 5.97992640820064 6.05574904953297 
Surfaces 2
2 72.355000000069992 75.650000000039995 4.9618851529289998 0 0 1 -1 0 0 0 -1 0 0.10000000000000001
1 72.56500000007 75.800000000040001 4.9875000000000007 0 0 1 0 -1 0 1 0 -0 
Triangulations 1
77 69 1 0 0.00102754775743066
72.45576864598 75.63384690368 4.9875 72.4546773197292 75.6419730488413 4.9875 72.4549998442557 75.6498234700796 4.9875 72.4547050383872 75.6576749810928 4.9875 72.4537947220528 75.6654791120412 4.9875 72.4522745149205 75.6731876855776 4.9875 72.4501538017059 75.6807531142601 4.9875 72.4474456742365 75.6881286943254 4.9875 72.4441668506323 75.6952688940048 4.9875 72.4403375720997 75.7021296346069 4.9875 72.4359814779757 75.7086685626286 4.9875 72.4311254597953 75.7148453112168 4.9875 72.4257994952814 75.7206217493656 4.9875 72.4200364632831 75.725962217311 4.9875 72.413871940804 75.7308337466698 4.9875 72.4073439833743 75.7352062639637 4.9875 72.4004928901222 75.7390527762724 4.9875 72.3933609549946 75.7423495378692 4.9875 72.3859922056635 75.745076196811 4.9875 72.3784321317291 75.7472159205773 4.9875 72.3707274038984 75.7487554999821 4.9875 72.3629255858722 75.7496854307192 4.9875 72.3550748407196 75.7499999720344 4.9875 72.3472236335522 75.7496971821656 4.9875 72.3394204323338 75.7487789303296 4.9875 72.3317134086723 75.7472508851829 4.9875 72.3241501404414 75.7451224798273 4.9875 72.3167773180676 75.7424068535766 4.9875 72.3096404562952 75.7391207708431 4.9875 72.3027836132098 75.7352845176459 4.9875 72.2962491182541 75.7309217763789 4.9875 72.2900773109142 75.7260594796121 4.9875 72.2843062916922 75.7207276438279 4.9875 72.2789716868994 75.7149591841207 4.9875 72.2741064287239 75.7087897110009 4.9875 72.26974055193 75.7022573105608 4.9875 72.2659010084442 75.6954023093565 4.9875 72.2626115009724 75.6882670254601 4.9875 72.2598923366757 75.6808955072164 4.9875 72.257760301808 75.673333261319 4.9875 72.2562285580889 75.6656269718832 4.9875 72.2553065614529 75.65782421225 4.9875 72.2550000036743 75.6499731513014 4.9875 72.2553107772302 75.6421222560985 4.9875 72.2562369636183 75.6343199926792 4.9875 72.2577728451993 75.6266145268621 4.9875 72.2599089404948 75.6190534269039 4.9875 72.2626320627187 75.6116833698455 4.9875 72.2659254011835 75.6045498533603 4.9875 72.2697686250783 75.5976969148822 4.9875 72.2741380089768 75.5911668597494 4.9875 72.2790065793022 75.5850000000399 4.9875 72.43099342083 75.58500000004 4.9875 72.3862246116228 75.5549998756539 4.9875 72.3935276305523 75.5577198738512 4.9875 72.4005966616437 75.5610003121005 4.9875 72.4073887729212 75.5648212674881 4.9875 72.4138627142113 75.569159534406 4.9875 72.4199791676659 75.5739887654852 4.9875 72.425700986549 75.5792796316098 4.9875 72.46000000007 75.55499983115 4.9875 72.435698830299 75.5909432578366 4.9875 72.4399405185271 75.5972258745215 4.9875 72.4436941114279 75.6038117481741 4.9875 72.4341801992418 75.5889459185653 4.9875 72.4372359331809 75.5931842095936 4.9875 72.4404960897578 75.5982525059985 4.9875 72.4484570448975 75.6133371550018 4.9875 72.4520934918569 75.6221563252345 4.9875 72.4540481702063 75.6278535965973 4.9875 72.45576864598 75.63384690368 4.9875 72.4358494089949 75.5911495703347 4.9875 72.4402089992818 75.5976604695365 4.9875 72.4440454247538 75.6044927221288 4.9875 72.4473351305886 75.6116043795591 4.9875 72.4500579187044 75.6189517777899 4.9875 72.4521970717715 75.6264898053861 4.9875 0.166153096359814 -0.10923135408642 0.158026951198728 -0.110322680340749 0.15017652996038 -0.11000015581426 0.142325018947233 -0.110294961682778 0.13452088799876 -0.111205278017234 0.12681231446244 -0.112725485149448 0.119246885779882 -0.114846198364105 0.111871305714627 -0.117554325833539 0.104731106035171 -0.120833149437698 0.0978703654330802 -0.124662427970335 0.091331437411407 -0.129018522094326 0.0851546888232338 -0.133874540274707 0.0793782506744322 -0.139200504788555 0.0740377827290064 -0.144963536786867 0.0691662533701887 -0.151128059266011 0.0647937360762714 -0.157656016695719 0.0609472237675956 -0.164507109947814 0.0576504621707896 -0.171639045075359 0.0549238032289528 -0.179007794406459 0.0527840794627286 -0.186567868340883 0.051244500057877 -0.194272596171627 0.0503145693208283 -0.20207441419783 0.05000002800562 -0.209925159350407 0.050302817874421 -0.217776366517782 0.0512210697104259 -0.225579567736216 0.0527491148571157 -0.233286591397745 0.0548775202126522 -0.240849859628624 0.057593146463374 -0.248222682002456 0.0608792291968991 -0.25535954377484 0.0647154823941 -0.262216386860157 0.0690782236610604 -0.268750881815947 0.0739405204279191 -0.274922689155835 0.0792723562120688 -0.280693708377822 0.0850408159193158 -0.286028313170641 0.0912102890390772 -0.290893571346137 0.0977426894792294 -0.29525944814 0.104597690683497 -0.299098991625777 0.111732974579932 -0.30238849909757 0.119104492823635 -0.305107663394267 0.126666738721011 -0.307239698262019 0.134373028156849 -0.308771441981048 0.142175787790008 -0.309693438617069 0.15002684873857 -0.309999996395738 0.157877743941449 -0.30968922283976 0.165680007360762 -0.308763036451746 0.173385473177874 -0.307227154870692 0.180946573136099 -0.305091059575202 0.18831663019447 -0.30236793735135 0.195450146679745 -0.299074598886508 0.20230308515781 -0.29523137499171 0.208833140290572 -0.290861991093174 0.215000000000073 -0.285993420767809 0.215000000000003 -0.134006579232148 0.245000124386132 -0.178775388447238 0.242280126188791 -0.171472369517682 0.238999687939509 -0.16440333842625 0.235178732551904 -0.157611227148824 0.230840465633992 -0.151137285858703 0.226011234554781 -0.14502083240408 0.220720368430177 -0.139299013521023 0.245000168890002 -0.105000000000004 0.20905674220339 -0.12930116977104 0.202774125518509 -0.125059481542925 0.196188251865886 -0.121305888642067 0.211054081474662 -0.130819800828161 0.206815790446432 -0.127764066889069 0.201747494041531 -0.124503910312219 0.186662845038177 -0.116542955172539 0.177843674805496 -0.112906508213107 0.172146403442655 -0.110951829863715 0.165827819550324 -0.111260544217209 0.20885042970526 -0.129150591075095 0.202339530503449 -0.124791000788189 0.19550727791122 -0.120954575316242 0.188395620480911 -0.117664869481407 0.181048222250099 -0.11494208136558 0.173510194653862 -0.112802928298549 1 2 71 70 1 71 61 55 54 61 56 55 61 57 56 61 58 57 61 59 58 61 60 59 62 53 65 52 53 51 51 53 50 50 53 49 49 53 48 48 53 47 47 53 46 46 53 45 45 53 44 44 53 43 43 53 42 42 53 41 41 53 40 40 53 39 39 53 38 38 53 37 37 53 36 36 53 35 35 53 72 35 72 73 35 73 64 35 64 34 34 64 33 33 64 32 32 64 31 31 64 30 30 64 29 29 64 28 28 64 27 27 64 26 26 64 25 25 64 24 24 64 23 23 64 22 22 64 21 21 64 20 20 64 19 19 64 18 18 64 17 15 68 14 14 68 13 13 68 12 12 68 11 11 68 10 10 68 9 9 68 8 8 68 7 7 68 6 6 68 5 5 68 4 4 68 3 3 68 2 2 68 71 53 60 61 61 1 70 61 70 69 61 69 68 68 64 61 15 16 17 15 17 68 68 17 64 

TShapes 8
Ve
0.200001999999994
72.4436941114279 75.6038117481741 4.9875
0 0

0101101
*
Ve
0.202055115720391
72.45576864598 75.63384690368 4.9875
0 0

0101101
*
Ed
 0.00205511606584229 1 1 0
1  1 0 0.500000000394617 1
2  1 1 0 0.500000000394617 1
4 C0 2 0 1 0
6  1 1 0
0

0101000
+8 0 -7 0 *
Ve
0.200001999999994
72.43099342083 75.58500000004 4.9875
0 0

0101101
*
Ed
 0.200001999999994 1 1 0
1  2 0 5.82828112553598 6.37691893972598
2  2 1 0 5.82828112553598 6.37691893972598
4 C0 2 0 1 0
6  2 1 0
0

0101000
+5 0 -7 0 *
Ed
 0.200001999999994 1 1 0
1  2 0 5.82828112553598 6.05574904953297
2  3 1 0 5.82828112553598 6.05574904953297
4 C0 2 0 1 0
6  3 1 0
0

0101000
+8 0 -5 0 *
Wi

0101100
+6 0 -4 0 -3 0 *
Fa
0  1e-07 1 0

0111000
+2 0 *

+1 0 