DBRep_DrawableShape

CASCADE Topology V3, (c) Open Cascade
Locations 0
Curve2ds 2
7 0 0  1 2 2  3.3441395632719702 0.23952029570217448  6.6885167847717781 0.01641743760470149 
 0 2 1 2
7 0 0  1 2 2  3.3441395632719702 0.23952029570217448  6.6885167849738636 0.016417437604694385 
 0 2 0.2231113364788633 2
Curves 2
7 0 0  3 15 13  10.843442086470001 87.880639315259998 -0.42970320580499999  10.84028922623 87.881636227520005 -0.42970320580499999  10.83349293076 87.895635531089994 -0.42114425971899999  10.815964199450001 87.89641501973 -0.42458433397829998  10.799848739270001 87.902786963040001 -0.42366245607000003  10.781587086269999 87.908218750239996 -0.42390989344399999  10.76133125384 87.914716830689997 -0.42384202185629999  10.739385985589999 87.921624875190005 -0.42386607083310002  10.716879026459999 87.928771669400007 -0.42383774651380002  10.69582645903 87.935338230880006 -0.42392699481399998  10.677308762559999 87.941523594130004 -0.4235983259326  10.66066488021 87.945555594179993 -0.42482375315780002  10.645825464550001 87.954840229780004 -0.42025071313849999  10.634416089209999 87.947021535440001 -0.43162853503999998  10.630802996510001 87.948163969969997 -0.43162853503999998 
 0 4 0.083333333333329998 1 0.16666666666669999 1 0.25 1 0.33333333333330001 1 0.41666666666669999 1 0.5 1 0.58333333333329995 1 0.66666666666670005 1 0.75 1 0.83333333333329995 1 0.91666666666670005 1 1 4
1 10.843442086470001 87.880639315259998 -0.42970320580499999 -0.95306268752423062 0.30265003908100979 -0.0086294549859252789 
Polygon3D 0
PolygonOnTriangulations 2
9 62 63 64 65 66 67 68 69 53 
p 0.05 1 0 0.090362003909608 0.119590941735829 0.169811689695219 0.195854837470603 0.465408323664499 0.925309192711194 0.962654596355597 1 
2 1 2 
p 0.05 1 0 0.223111336478863 
Surfaces 3
2 10.61739279659 87.960208455490005 -0.43385734195039999 0.95347212563670369 -0.30148118620210118 0 -0.23129256591177849 -0.73149179636050476 0.64142302797079853 -0.1933769753299798 -0.61157897791164806 -0.76718739509247169 0.009999999999067
1 10.87159879617 89.492923388389997 -0.42385734195039998 0 0 1 0.30148118620270414 0.95347212563651307 -0 -0.95347212563651307 0.30148118620270414 0 
1 12.069210849999999 87.716822042499999 -1.6327149918420001 0.29671275595359647 0.93839136592468864 0.17715299831619785 -0.053408296071610649 -0.1689104458674654 0.98418332397352737 0.95347212563616601 -0.3014811862038016 -3.3752964246476078e-13 
Triangulations 2
69 67 1 0 0.0063894622899584
11.68170398916 90.53569141468 -0.4258136654495 11.5612903993547 90.4686156862378 -0.4238573419504 11.4467707680594 90.39188315087 -0.4238573419504 11.3386912258941 90.3063177343672 -0.4238573419504 11.2377314112176 90.2124574991423 -0.4238573419504 11.1445261912898 90.1108926680532 -0.4238573419504 11.0596616700248 90.0022619128941 -0.4238573419504 10.9836715023846 89.8872483382258 -0.4238573419504 10.9170335385878 89.7665751857975 -0.4238573419504 10.8601668192357 89.6410012865744 -0.4238573419504 10.8134289402531 89.511316288968 -0.4238573419504 10.7771138042115 89.3783356932773 -0.4238573419504 10.7514497721769 89.2428957235649 -0.4238573419504 10.7365982277032 89.1058480692154 -0.4238573419504 10.7326525620013 88.9680545292429 -0.4238573419504 10.7396375866656 88.8303815930267 -0.4238573419504 10.7575093776507 88.6936949915511 -0.4238573419504 10.7861555514802 88.5588542534157 -0.4238573419504 10.825395971949 88.4267072998473 -0.4238573419504 10.8749838828769 88.2980851127031 -0.4238573419504 10.93494611316 88.17397581862 -0.4258136654489 11.77387877906 90.82623392215 -0.4267682303387 11.56207638656 90.8934321659 -0.429274222738 11.489118394 90.88304999224 -0.4238573419504 11.4964278942636 90.8864679728255 -0.423937592036145 11.501417093027 90.888376880365 -0.424005953220299 11.5107675898158 90.8908509306296 -0.423894549809093 11.5187403035538 90.8917580317952 -0.423421361281968 11.5280001347862 90.892165490108 -0.423142883056168 11.5335118680969 90.8924936271461 -0.423507385930548 11.5430663819976 90.8936559202172 -0.425446116668857 11.5527631537944 90.8945770084342 -0.427999961169005 10.5776699128 88.00047967763 -0.4238573419504 10.5059768742451 88.1523206473445 -0.4238573419504 10.4464387228664 88.309326317097 -0.4238573419504 10.3994237565229 88.4705254633223 -0.4238573419504 10.3652228057965 88.6349209218163 -0.4238573419504 10.3440474348586 88.8014957562591 -0.4238573419504 10.3360286327522 88.969219548897 -0.4238573419504 10.341216003105 89.1370547746181 -0.4238573419504 10.3595774572853 89.3039632189953 -0.4238573419504 10.3909994128996 89.4689124005919 -0.4238573419504 10.435287496404 89.6308819578042 -0.4238573419504 10.4921677454817 89.7888699607313 -0.4238573419504 10.5612883037512 89.9418991090284 -0.4238573419504 10.6422215973198 90.0890227774037 -0.4238573419504 10.734466979719 90.2293308713614 -0.4238573419504 10.8374538288615 90.3619554569696 -0.4238573419504 10.9505450768603 90.4860761298251 -0.4238573419504 11.0730411508769 90.6009250900056 -0.4238573419504 11.2041843006192 90.7057918916146 -0.4238573419504 11.3431632857203 90.8000278375392 -0.4238573419504 10.63080299651 87.94816396997 -0.43162853504 10.6234199786557 87.9523967848505 -0.430074296422086 10.6190256486107 87.9565317878728 -0.427950809915306 10.6121319192025 87.9639763569956 -0.424402310457425 10.6062592681036 87.9693725029643 -0.422950622006585 10.6004925151123 87.9738024066297 -0.422914950334431 10.5958204646553 87.9773450099291 -0.423390566862602 10.5887496802519 87.9839297188962 -0.424045176602831 10.5827723086262 87.9918014448626 -0.424011605868031 10.84344208647 87.88063931526 -0.429703205805 10.8310761940604 87.893114722469 -0.423516832563826 10.8256653684303 87.8954439402474 -0.423070227704595 10.8155658486878 87.8974859682373 -0.423901803792281 10.8103688691015 87.898895777667 -0.424070400550525 10.7484565971878 87.9187701944948 -0.423855437232091 10.643779927215 87.95110795114 -0.424611212106956 10.6366983822427 87.9489018740731 -0.429037581258989 1.23848172110412 -0.45803777884919 1.13822445183823 -0.363448847598157 1.03053660394925 -0.277390987102981 0.916368415819096 -0.200136519561979 0.796437813139065 -0.132171245511394 0.671498957486457 -0.0739225520995796 0.542337503917943 -0.0257567255413742 0.409765660521973 0.0120233522055122 0.274617080997324 0.0391801080580847 0.137741622374867 0.0555427717427824 8.47644772453701e-10 0.0610084496529895 -0.137741620684887 0.0555427718765933 -0.27461707932324 0.0391801083248653 -0.40976565887427 0.0120233526035846 -0.542337502306943 -0.0257567250145127 -0.671498955922248 -0.0739225514472426 -0.796437811631442 -0.132171244737683 -0.916368414377499 -0.20013651867176 -1.0305366025827 -0.277390986101852 -1.13822445055528 -0.363448846492413 -1.23848171868281 -0.45803777885726 1.54329486828778 -0.458330771910878 1.54351208406221 -0.236124088282517 1.5116175087302 -0.169690706068264 1.51708013475823 -0.175629653976913 1.52040437444888 -0.17981121621768 1.52558231127713 -0.187980774658135 1.52885083014867 -0.195309061037616 1.53203099519617 -0.204015210990297 1.53400554861196 -0.209171567922577 1.5379942688415 -0.217931121107073 1.54179589504528 -0.226899031955712 -1.51161750570881 -0.169690703047929 -1.38845547586246 -0.055556193519922 -1.25670457868848 0.0485460297891094 -1.11717981390878 0.141971999504204 -0.970744269847805 0.224143790525211 -0.818303784322643 0.294553095143898 -0.660801341207401 0.352764367392186 -0.499211237215175 0.398417517292454 -0.334533054981479 0.431230138343503 -0.167785479731095 0.450999254463148 2.2220491405467e-09 0.457602575580993 0.167785484161469 0.450999254114401 0.334533059370761 0.431230137648166 0.499211241536256 0.398417516254829 0.66080134543359 0.352764366018692 0.818303788427838 0.294553093443031 0.970744273806653 0.224143788507492 1.11717981769683 0.141971997182114 1.25670458228234 0.0485460271770133 1.38845547923995 -0.0555561964058655 -1.54548044959207 -0.236123818916898 -1.54367041957102 -0.227808203138646 -1.5410526172844 -0.222371706313691 -1.53603275785776 -0.2135543299514 -1.53265817691015 -0.206328084337433 -1.53017295477828 -0.199494113492995 -1.52820371659391 -0.193971415367746 -1.52405708860763 -0.185244453662531 -1.51835368240612 -0.177172019151074 -1.54575664057708 -0.459226677014371 -1.53758977145942 -0.443675042729467 -1.53700018936245 -0.437813755975682 -1.53809798778642 -0.427568512398333 -1.53832056536311 -0.422188306206111 -1.5380362480815 -0.357164917941231 -1.53876114514586 -0.247609405685155 -1.54299953071454 -0.2415224406786 66 65 64 54 69 68 54 53 69 55 54 68 56 55 68 57 56 68 21 63 62 21 64 63 21 67 66 21 68 67 21 66 64 61 59 58 61 60 59 33 61 58 33 58 57 33 57 68 33 68 21 20 33 21 34 33 20 19 34 20 35 34 19 18 35 19 36 35 18 17 36 18 37 36 17 16 37 17 38 16 15 38 37 16 39 15 14 39 38 15 40 14 13 40 39 14 41 13 12 41 40 13 42 12 11 42 41 12 43 42 11 44 11 10 44 43 11 45 10 9 45 44 10 46 9 8 46 45 9 47 8 7 47 46 8 48 7 6 48 47 7 49 6 5 49 48 6 50 5 4 50 49 5 51 4 3 51 50 4 23 1 22 31 23 32 30 1 23 30 23 31 52 3 2 52 51 3 26 28 27 25 28 26 24 2 1 24 28 25 24 29 28 24 30 29 24 1 30 24 52 2 
138 136 1 0 0.00582009011134201
10.84344208647 87.88063931526 -0.429703205805 10.63080299651 87.94816396997 -0.43162853504 11.4301580004 87.99255139927 -2.022925240517 11.4361487171075 87.9935340625586 -2.03816429847823 11.4413004744096 87.9940191593524 -2.04936254388226 11.4443526108732 87.9941157837792 -2.05498637954055 11.449338701974 87.9939337797218 -2.06237347322305 11.4771686190279 87.9903443070134 -2.0899719967235 11.4816811405291 87.9897102902155 -2.09417156889758 11.4860980983732 87.989019596928 -2.09791086275073 11.4926132262292 87.9878744444998 -2.10275707138738 11.5010320520141 87.9861879195181 -2.10792408819203 11.5053977465112 87.9852318538527 -2.11017182593235 11.5099285517502 87.9841895285476 -2.11223918378502 11.5204139479707 87.9816299937649 -2.11624309833961 11.5331633992393 87.9783541384431 -2.1202446703073 11.545716093767 87.9749615914662 -2.12329857174145 11.5568186787734 87.9717927442632 -2.12510864406797 11.5666357739097 87.9688368563008 -2.12589371466808 11.5762915201383 87.9657852762105 -2.1259016550658 11.5868474705191 87.9622922332552 -2.12507888479517 11.5983847904004 87.958297492177 -2.12324227711259 11.6091380408294 87.9544034775909 -2.12062599006321 11.6186480104386 87.9507992539616 -2.11746237980903 11.6270572648735 87.9474666584505 -2.11389401912384 11.6357666112092 87.9438537915148 -2.10934366438776 11.6463045489861 87.9392663411254 -2.10269357498125 11.6566356309841 87.9345562095857 -2.0950471734511 11.6667685586418 87.9297285575083 -2.08644636991263 11.6731165743028 87.9265000678627 -2.07997710551084 11.6767832576377 87.9245122115632 -2.07558860812491 11.6800529346481 87.9226357735437 -2.07112535677547 11.6847176852263 87.9197361518031 -2.06357883474023 11.6887102321733 87.9169771655258 -2.05565139740267 11.704131736254 87.905337549193 -2.01982497302875 11.7060410190336 87.9030056090916 -2.01067037830968 11.7068265508497 87.9009460219638 -2.00107629023334 11.7069527622228 87.8988193189199 -1.99002239180023 11.70644724664 87.89631795393 -1.975925807195 11.63966113165 87.68509847511 -0.7452222370953 11.6870537303655 87.6549677386043 -0.664995344314992 11.7306769549727 87.6294388533944 -0.602831460964019 11.7666463526052 87.609883619329 -0.559491050324844 11.7994785059971 87.593156582157 -0.52587723310709 11.8263766967499 87.580221399884 -0.502410359546491 11.8515145897432 87.5687395147598 -0.483693384117861 11.8743219777958 87.5588167286649 -0.469331709046501 11.8949915048818 87.5502218961269 -0.458423599703357 11.9157914720364 87.5419475710603 -0.449431713459201 11.9276245074856 87.5374056511234 -0.445191955183026 11.93949697904 87.53296769148 -0.4415689329148 11.9807724312452 87.5172461944064 -0.426864822194763 12.00361059919 87.50935176195 -0.4238572394803 12.0269114423681 87.5026599274738 -0.426874764783562 12.06964651179 87.49181532376 -0.4415689328951 12.0894709979773 87.4867095103364 -0.447727037515513 12.1093656896916 87.4818849593754 -0.45549259521231 12.1293265595391 87.4773422476691 -0.46486191583975 12.1493495801265 87.4730819520091 -0.475831309252093 12.1694307240601 87.4691046491874 -0.488397085303598 12.1895659639463 87.4654109159959 -0.502555553848525 12.2097512723916 87.4620013292263 -0.518303024741131 12.2299826220024 87.4588764656705 -0.535635807835678 12.2570224134806 87.4551538806307 -0.561205848468417 12.2875195717543 87.4515739373101 -0.593322199994533 12.318085586381 87.4486395960503 -0.628973676468002 12.3487068649074 87.4463528035238 -0.668147823646947 12.3755614312392 87.4448833884224 -0.705342825035358 12.40243883215 87.44391352614 -0.7452222370943 12.46922494715 87.65513300497 -1.975925807195 12.4704537055699 87.6577960978859 -1.99209043170563 12.4720827805503 87.6595699271676 -2.00421505523248 12.473351233111 87.6603472907503 -2.01045732795934 12.4759672457058 87.6611308039194 -2.01898919766727 12.4945885623724 87.6618171271031 -2.05381345690423 12.4977587098852 87.6618532188561 -2.05931430308927 12.5009762501979 87.661784032193 -2.0643368603984 12.5069071798344 87.6614140024413 -2.07231047511135 12.5101915653435 87.6610966534227 -2.07613045842134 12.5136300665934 87.6606942310626 -2.07975793026831 12.5204006649925 87.6597360620294 -2.08602248899923 12.531461491348 87.6578730181502 -2.09467954811983 12.5426183500137 87.655796647994 -2.10236744766261 12.5538732390206 87.6535025131331 -2.10906602347068 12.5630720520292 87.6514613250468 -2.11366076299112 12.5723507138482 87.6492427607281 -2.11744966707231 12.5817049837602 87.6468562405113 -2.12047553310041 12.5921793738034 87.6440251581225 -2.12302260749974 12.6039074108638 87.6406799716705 -2.12494616576601 12.6142536133264 87.6375776344912 -2.12584168446922 12.6239056956798 87.6345445699439 -2.12594156633831 12.6336339756002 87.6313422400401 -2.12527246117282 12.6434421961026 87.6279623300426 -2.12379659440853 12.6533243106329 87.6244182717728 -2.12157498796034 12.6632721300819 87.620728256526 -2.11869028644315 12.6732780471719 87.6169091831165 -2.11521926261811 12.6823522587317 87.6133189932162 -2.11140014077767 12.6878510726228 87.6110442861757 -2.10856080287244 12.6926628373885 87.6089731028311 -2.10564880822145 12.6971172202571 87.6069776683442 -2.10253948304837 12.7038224583412 87.6038134568193 -2.09700901439532 12.7105836217505 87.6004076917855 -2.09029268960855 12.7259074237016 87.5923359354899 -2.07320181936401 12.7332335353665 87.5885890513211 -2.06562479281587 12.7383728679732 87.5855240977857 -2.05799737241376 12.7420882300699 87.5828384987257 -2.04999441645607 12.7461392050826 87.5794073687748 -2.0386044497035 12.75061519355 87.57503211348 -2.022925240517 13.16792819532 87.14823661161 -0.4267765891201 13.37973612056 87.08103504963 -0.4292742134006 13.3622773412504 87.0860980134983 -0.429903482897942 13.3447171493376 87.0905205037627 -0.431439374557373 13.2951954543681 87.1025714029505 -0.43655749062909 13.2695823602074 87.1101072386192 -0.437524677700875 13.249328677893 87.1169421512273 -0.436887127677063 13.2310608119053 87.123842251174 -0.434961971568348 13.185004549473 87.1423507876556 -0.427718655323204 13.1765774673131 87.1453733350732 -0.427036644466639 12.9823940962867 87.4120092309592 -1.54840559716631 12.7631485840619 87.5845456484108 -2.09486234618504 12.5930235039096 87.7060952586567 -2.45311631618339 12.5348870243375 87.7444097592875 -2.5588197884476 12.4842550977892 87.7761761579823 -2.64231796573314 12.4345864879668 87.8053359196656 -2.71358047337925 12.3891605174345 87.8301399283851 -2.76886681719539 12.3528141394168 87.8487660609879 -2.80664231962301 12.3135625266 87.86777238435 -2.84157263971 11.95606112242 87.98081181319 -2.841572623549 11.9203776778173 87.9866968183612 -2.81298102418785 11.8865096540298 87.9916325231853 -2.78240328875684 11.8542843098065 87.9957158957917 -2.75006282233978 11.8235289038961 87.9990439043098 -2.71618303002047 11.7845097015992 88.0024738374325 -2.66900159887932 11.7294091929836 88.005926881628 -2.59500144617037 11.6372863627599 88.0091062788044 -2.4575017867757 11.5430314071334 88.0098700988107 -2.30365092575083 11.3333886378793 88.003790384882 -1.92057645154335 11.065458833922 87.9873267960754 -1.37896564078703 1.22177991081524 -1.21812417421795 1.21983610582911 -1.4412270323116 -0.396481264382442 -0.692446292452062 -0.411965227167745 -0.687030565552785 -0.423343438047152 -0.682264756123987 -0.429057653601732 -0.67938375952909 -0.436563464259952 -0.674574789849482 -0.464605519869431 -0.646957581189854 -0.468872582795326 -0.64246387358583 -0.472671970330166 -0.638044196369732 -0.477596061725099 -0.631486961651622 -0.482846116952388 -0.622951390383112 -0.485129977779522 -0.618500586560136 -0.487230559858431 -0.613866348588732 -0.491298820778077 -0.603097163983802 -0.495364701463467 -0.589953308833788 -0.498467681731348 -0.576961875413084 -0.500306843483532 -0.565420522273327 -0.501104530846243 -0.555169051096993 -0.501112598852978 -0.545042572230394 -0.50027660595341 -0.533924681049088 -0.498410482398983 -0.52171982885889 -0.495752149356936 -0.510292932178344 -0.492537697153522 -0.500138835625231 -0.488911989830161 -0.491116131076364 -0.484288506963469 -0.481722800703314 -0.477531544876742 -0.470292140786301 -0.469762259069996 -0.459021726029799 -0.461023233190187 -0.447904815682288 -0.454450002121949 -0.440878830808406 -0.44999097779269 -0.436783449179834 -0.445455998139194 -0.433100192530701 -0.437788196977037 -0.427778301479365 -0.42973335887474 -0.42313973679949 -0.393331172919646 -0.404926637184292 -0.384029455957107 -0.402403153206024 -0.374281182599396 -0.40103324374519 -0.363049638471649 -0.400271743762609 -0.348726509576552 -0.399999624294603 0.901755529816496 -0.399999624294535 0.983271738018781 -0.345728252274977 1.04643464865412 -0.296438244986078 1.09047157712612 -0.256246891805026 1.12462559742466 -0.219899461712966 1.1484696039184 -0.190353072504733 1.16748737731461 -0.162923219891341 1.18207985691397 -0.13818547780222 1.19316326899945 -0.115886479566876 1.2022996626242 -0.093559737334774 1.20660755747822 -0.0809079644620815 1.21028880484323 -0.0682499324348863 1.22217290350498 -0.0233520072225598 1.22828513614009 3.7569976695045e-07 1.22215269885365 0.0234286950402948 1.21028880486401 0.0682506838421298 1.20403173418346 0.0886920855143088 1.19614137726551 0.10911563085856 1.18662148356012 0.129517305975491 1.17547580251726 0.149893096965711 1.16270808358688 0.170238989929828 1.14832207621895 0.190550970968452 1.13232152986342 0.21082502618219 1.11471019397026 0.231057141671652 1.08872922069606 0.257961118482618 1.05609673166122 0.288118594366595 1.01987230517261 0.318147085988699 0.980068595623824 0.348033046438483 0.942275838452599 0.374081127889693 0.9017555298194 0.400000375701294 -0.348726509577842 0.400000375704474 -0.365150913563809 0.400369090195743 -0.377470390262145 0.401387591624146 -0.383812981702889 0.402362665288469 -0.392481965925663 0.404620745898314 -0.427865881085152 0.422168738754986 -0.433455130619256 0.42518050505812 -0.43855840476214 0.428269198536639 -0.446660162350077 0.434035731632598 -0.450541536091076 0.437262976423955 -0.454227304543576 0.440662814290175 -0.460592540143862 0.447407261074303 -0.469388725681494 0.458515123369438 -0.477200176409853 0.469778863654574 -0.484006404116633 0.481201725098919 -0.488674985069564 0.490587916697135 -0.492524780111741 0.500103717507229 -0.495599274420274 0.50974224406978 -0.498187282505029 0.520582801085885 -0.500141754013926 0.532773668291008 -0.501051664476083 0.543573780238119 -0.501153151533011 0.553691183613968 -0.500473293269542 0.5639322695665 -0.498973708051592 0.5743031136929 -0.496716398468959 0.584793901331065 -0.493785337306904 0.595391340060244 -0.490258531131204 0.606083081878735 -0.486378032704415 0.615817464372962 -0.483493064186858 0.621746211518984 -0.480534271266886 0.626958517909738 -0.477374976552899 0.63180723376796 -0.471755628492155 0.639154441620837 -0.464931366565415 0.646627796550842 -0.447565831275258 0.663672097232657 -0.439867035366567 0.671786955578268 -0.4321170357311 0.677611191790601 -0.423985465359288 0.681963343576767 -0.412412452003812 0.686860256460585 -0.396481264381861 0.692447043848538 1.22422386306567 1.21901417287809 1.22180448831476 1.44122713220374 1.2212624279392 1.42305428443174 1.21994168410691 1.40497783331115 1.21551386621095 1.35412715816151 1.21465704717719 1.32743387415151 1.21521173980432 1.30606195506257 1.2169166029793 1.28656380373161 1.22337885538852 1.23707046575802 1.22398961536737 1.22812423663733 0.0856904070122731 0.962590098925716 -0.469556886615603 0.701529130552095 -0.833589377846952 0.502674688075827 -0.940987721606679 0.435692074222227 -1.02582674691667 0.37783897203125 -1.09823479109496 0.321690217504855 -1.15441022121086 0.270899878851029 -1.19279319099927 0.230629191991769 -1.22828503432347 0.187473824372164 -1.22828501790485 -0.187473060483738 -1.19923388948107 -0.223270448598946 -1.1681646508457 -0.257050687375804 -1.1353043266708 -0.289007714848899 -1.10087994162843 -0.319335469052814 -1.0529401663224 -0.357573251113901 -0.977750881011598 -0.411151078047325 -0.838042919186434 -0.499946157232564 -0.681720487988291 -0.590045907487105 -0.292481388353318 -0.788101524945194 0.257653486098884 -1.03860166236321 9 136 8 7 8 136 10 136 9 11 136 10 6 7 136 12 136 11 13 136 12 14 136 13 15 136 14 16 136 15 137 3 4 137 4 5 137 5 6 137 6 136 17 136 16 18 136 17 19 136 18 20 136 19 127 128 129 21 136 20 22 136 21 23 136 22 24 136 23 25 136 24 26 136 25 26 135 136 126 129 130 126 127 129 27 135 26 28 135 27 29 135 28 30 135 29 31 135 30 31 134 135 125 130 131 125 126 130 32 134 31 33 134 32 124 131 132 124 132 133 124 125 131 123 124 133 123 133 134 122 123 134 79 121 122 79 80 121 81 121 80 78 79 122 82 121 81 77 122 134 77 134 33 77 78 122 76 33 34 76 77 33 83 121 82 75 34 35 75 76 34 84 121 83 85 121 84 1 138 2 86 121 85 74 35 36 74 75 35 87 121 86 73 74 36 88 121 87 72 36 37 72 73 36 89 121 88 71 37 38 71 72 37 90 121 89 70 38 39 70 71 38 91 121 90 92 121 91 93 121 92 94 121 93 95 121 94 96 121 95 97 121 96 120 101 102 120 102 103 120 103 104 120 121 97 120 97 98 120 98 99 120 99 100 120 100 101 105 120 104 106 120 105 107 120 106 108 120 107 119 120 108 54 51 52 54 52 53 55 50 51 55 51 54 56 49 50 56 50 55 69 39 40 69 70 39 57 49 56 57 48 49 58 47 48 58 48 57 68 40 41 68 69 40 59 46 47 59 47 58 67 68 41 60 45 46 60 46 59 66 41 42 66 67 41 61 45 60 62 44 45 62 45 61 65 42 43 65 66 42 63 43 44 63 44 62 64 65 43 64 43 63 117 109 118 116 119 109 116 109 117 115 119 116 114 119 115 113 119 114 112 119 113 110 112 111 110 119 112 1 3 137 1 137 138 108 109 119 

TShapes 6
Ve
0.018764565889592
10.84344208647 87.88063931526 -0.429703205805
0 0

0101101
*
Ve
0.018764565889592
10.63080299651 87.94816396997 -0.43162853504
0 0

0101101
*
Ed
 0.018764565889592 1 1 0
1  1 0 0 1
2  1 1 0 0 1
4 C0 2 0 1 0
6  1 1 0
0

0101000
+6 0 -5 0 *
Ed
 0.018764565889592 1 1 0
1  2 0 0 0.223111336478863
2  2 1 0 0 0.223111336478863
4 C0 1 0 3 0
6  2 2 0
0

0101000
+6 0 -5 0 *
Wi

0101100
+4 0 -3 0 *
Fa
0  1e-07 1 0

0111000
+2 0 *

+1 0 