DBRep_DrawableShape

CASCADE Topology V3, (c) Open Cascade
Locations 0
Curve2ds 7
1 0 0.089800000000000324 1 0 
1 6.2831853071795862 3.1415926535897931 1 -2.9685177027210069e-15 
7 0 0  1 2 2  6.2831853071795862 -2.5261129453705742  9.4247779607463897 3.7570723624937883 
 0 2 1 2
1 10.995574287552781 0 0 1 
1 4.7123889803731949 0 0 1 
1 4.7123889803731949 0 1 0 
1 4.7123889803731949 6.2831853071795862 1 0 
Curves 4
2 48.099000005820002 101.2375 6.2024999999999997 0 0 -1 0.99220794234416798 -0.12459293378499599 0 -0.12459293378499599 -0.99220794234416798 -0 1.400000000008
7 0 0  3 13 11  49.491237984900003 101.0626747372 6.2073284271249998  49.470526581229997 100.9098025867 6.2073284271249998  49.398974883279998 100.62567886559999 6.214900203679  49.139081824119998 100.2523604542 6.211856646437  48.791205820729999 99.983206848649999 6.2126732105749998  48.374091349090001 99.830939065950005 6.2124505112639996  47.925905978389999 99.814579081920002 6.2125247443680003  47.495410483169998 99.937664600969995 6.2124505112639996  47.126158958860003 100.1855004862 6.2126732105749998  46.850386996589997 100.53391938439999 6.211856646437  46.688111106569998 100.96461029709999 6.214900203679  46.688765195370003 101.25869913930001 6.2073284271249998  46.706762026729997 101.4123252628 6.2073284271249998 
 0 4 0.10000000000000001 1 0.20000000000000001 1 0.29999999999999999 1 0.40000000000000002 1 0.5 1 0.59999999999999998 1 0.69999999999999996 1 0.80000000000000004 1 0.90000000000000002 1 1 4
7 0 0  8 9 2  48.275921971741454 102.6464352781354 6.2024999999999997  48.275921971741525 102.64643527813561 6.1946460183660363  48.275038819517476 102.63940220952973 6.1869520920635255  48.273319744015481 102.62571218461883 6.185553093578207  48.271679265128803 102.61264807149654 6.2024999999998052  48.273319744015261 102.62571218461896 6.2194469064221067  48.275038819517633 102.63940220952951 6.2180479079363202  48.275921971741518 102.64643527813575 6.2103539816340021  48.275921971741454 102.6464352781354 6.2024999999999997 
 0 9 6.2831853071795862 9
7 0 0  11 12 2  48.27592197174144 102.6464352781354 6.2024999999999997  49.080703920680477 102.54537768750993 6.2024999999997359  49.821984931759715 101.93877173528315 6.2025000000010122  50.146824102457593 100.86987135551946 6.2024999999979267  49.736431779577153 99.665411512156311 6.2025000000028463  48.55924476297578 98.876729284830844 6.2024999999971211  47.069357515409145 99.06381650258966 6.2025000000022592  46.123715490466985 100.11906532992379 6.2024999999985626  46.023860241888549 101.38759767206342 6.2025000000007529  46.602893612274919 102.34299751732782 6.2024999999996933  47.471140022801187 102.74749286875733 6.2025000000000805  48.275921971741447 102.6464352781354 6.2024999999999997 
 0 12 6.2831853071795862 12
Polygon3D 0
PolygonOnTriangulations 2
131 43 44 45 46 47 48 49 50 51 52 53 54 55 56 57 58 59 60 61 62 63 64 65 66 67 68 69 70 71 72 73 74 75 76 77 78 79 80 81 82 83 84 85 86 87 88 89 90 91 92 93 94 95 96 97 98 99 100 101 102 103 104 105 106 107 108 109 110 111 112 113 114 115 116 117 118 119 120 121 122 123 124 125 126 127 128 129 130 131 132 133 134 135 136 137 138 139 140 141 142 143 144 145 146 147 148 149 150 151 152 153 154 155 156 157 158 159 160 161 162 163 164 165 166 167 168 169 170 171 172 1 
p 0.000205761316872428 1 0 0.024166097334927 0.048332194669854 0.072498292004781 0.096664389339708 0.120830486674635 0.144996584009562 0.169162681344489 0.193328778679416 0.217494876014343 0.24166097334927 0.265827070684197 0.289993168019124 0.314159265354051 0.338325362688978 0.362491460023905 0.386657557358832 0.410823654693759 0.434989752028686 0.459155849363613 0.48332194669854 0.507488044033467 0.531654141368394 0.555820238703321 0.579986336038248 0.604152433373175 0.628318530708102 0.652484628043029 0.676650725377956 0.700816822712883 0.724982920047811 0.749149017382738 0.773315114717665 0.797481212052592 0.821647309387519 0.845813406722446 0.869979504057373 0.8941456013923 0.918311698727227 0.942477796062154 0.966643893397081 0.990809990732008 1.01497608806693 1.03914218540186 1.06330828273679 1.08747438007172 1.11164047740664 1.13580657474157 1.1599726720765 1.18413876941142 1.20830486674635 1.23247096408128 1.2566370614162 1.28080315875113 1.30496925608606 1.32913535342098 1.35330145075591 1.37746754809084 1.40163364542577 1.42579974276069 1.44996584009562 1.47413193743055 1.49829803476547 1.5224641321004 1.54663022943533 1.57079632677025 1.59496242410518 1.61912852144011 1.64329461877503 1.66746071610996 1.69162681344489 1.71579291077982 1.73995900811474 1.76412510544967 1.7882912027846 1.81245730011952 1.83662339745445 1.86078949478938 1.8849555921243 1.90912168945923 1.93328778679416 1.95745388412908 1.98161998146401 2.00578607879894 2.02995217613387 2.05411827346879 2.07828437080372 2.10245046813865 2.12661656547357 2.1507826628085 2.17494876014343 2.19911485747835 2.22328095481328 2.24744705214821 2.27161314948313 2.29577924681806 2.31994534415299 2.34411144148792 2.36827753882284 2.39244363615777 2.4166097334927 2.44077583082762 2.46494192816255 2.48910802549748 2.5132741228324 2.53744022016733 2.56160631750226 2.58577241483718 2.60993851217211 2.63410460950704 2.65827070684197 2.68243680417689 2.70660290151182 2.73076899884675 2.75493509618167 2.7791011935166 2.80326729085153 2.82743338818645 2.85159948552138 2.87576558285631 2.89993168019123 2.92409777752616 2.94826387486109 2.97242997219602 2.99659606953094 3.02076216686587 3.0449282642008 3.06909436153572 3.09326045887065 3.11742655620558 3.14159265354051 
277 132 133 134 135 136 137 138 139 140 141 142 143 144 145 146 147 148 149 150 151 152 153 154 155 156 157 158 159 160 161 162 163 164 165 166 167 168 169 170 171 172 173 174 175 176 177 178 179 180 181 182 183 184 185 186 187 188 189 190 191 192 193 194 195 196 197 198 199 200 201 202 203 204 205 206 207 208 209 210 211 212 213 214 215 216 217 218 219 220 221 222 223 224 225 226 227 228 229 230 231 232 233 234 235 236 237 238 239 240 241 242 243 244 245 246 247 248 249 250 251 252 253 254 255 256 257 258 259 260 261 262 263 264 265 266 267 268 269 270 271 272 273 274 275 276 277 278 279 280 281 282 283 284 285 286 287 288 289 290 291 292 293 294 295 296 297 298 299 300 301 302 303 304 305 306 307 308 309 310 311 312 313 314 315 316 317 318 319 320 321 322 323 324 325 326 327 328 329 330 331 332 333 334 335 336 337 338 339 340 341 342 343 344 345 346 347 348 349 350 351 352 353 354 355 356 357 358 359 360 361 362 363 364 365 366 367 368 369 370 371 372 373 374 375 376 377 378 379 380 381 382 383 384 385 386 387 388 389 390 391 392 393 394 395 396 397 398 399 400 401 402 403 404 405 406 407 81 
p 0.000205761316872428 1 0 0.00406489079460796 0.00812978158921592 0.0121946723838239 0.0162595631784318 0.0201332853862565 0.0240070075940812 0.0277970351158262 0.0315870626375712 0.0352998774717037 0.0390126923058361 0.0426543215695461 0.0462959508332561 0.0498719865093958 0.0534480221855356 0.0569636507634087 0.0604792793412818 0.0639393153286726 0.0673993513160634 0.0708082711656186 0.0742171910151737 0.0775791655739055 0.0809411401326372 0.0842600646657923 0.0875789891989474 0.090858510597229 0.0941380319955107 0.0973815730965856 0.10062511419766 0.10419909801948 0.1077730818413 0.111381676359084 0.114990270876869 0.118632649018757 0.122275027160646 0.125950144170303 0.12962526117996 0.133331846109888 0.137038431039817 0.140774980103012 0.144511529166207 0.148276301412893 0.152041073659578 0.155832089457967 0.159623105256355 0.163438148046215 0.167253190836075 0.171089812586407 0.174926434336739 0.178781965070339 0.182637495803939 0.186509057450197 0.190380619096455 0.194265143800221 0.198149668503988 0.20204392135684 0.205938174209693 0.209834516042791 0.213730857875889 0.217627462745349 0.221524067614809 0.225420833634707 0.229317599654606 0.232824741408964 0.236331883163323 0.239838992206112 0.243346101248901 0.246853101703992 0.250360102159082 0.253866918132054 0.257373734105026 0.260880289913286 0.264386845721546 0.26789306612479 0.271399286528033 0.274905096957744 0.278410907387455 0.281916234174127 0.285421560960798 0.288926331557575 0.292431102154352 0.295935245355818 0.299439388557284 0.303332106507148 0.307224824457012 0.311120172892482 0.315015521327951 0.318912651043302 0.322809780758653 0.32631774490808 0.329825709057506 0.333333262074183 0.33684081509086 0.340347103979897 0.343853392868935 0.347357571718185 0.350861750567435 0.354362984320068 0.357864218072701 0.36136168619345 0.364859154314199 0.368352054317032 0.371844954319864 0.375332505127257 0.378820055934649 0.382301501041529 0.385782946148409 0.389257556567112 0.392732166985815 0.396199243951945 0.399666320918074 0.403509518054574 0.407352715191074 0.411202222953537 0.415051730715999 0.418906995394705 0.422762260073411 0.426621902968817 0.430481545864223 0.434344162806522 0.43820677974882 0.442070949435442 0.445935119122064 0.449412982416103 0.452890845710141 0.456367708143804 0.459844570577467 0.463319395244833 0.4667942199122 0.470265980471273 0.473737741030346 0.477205426651113 0.480673112271881 0.484135732425385 0.48759835257889 0.491054941620956 0.494511530663022 0.49796115217033 0.501410773677639 0.50523853958262 0.509066305487601 0.51290280351909 0.516739301550579 0.520583423812946 0.524427546075313 0.528278140811444 0.532128735547575 0.535984612966113 0.539840490384651 0.543700428932287 0.547560367479923 0.551423120496647 0.555285873513372 0.559150176199974 0.563014478886577 0.566492597844436 0.569970716802294 0.573448073170689 0.576925429539084 0.580401092922211 0.583876756305337 0.58734980298776 0.590822849670182 0.594292366930577 0.597761884190971 0.601611984556097 0.605462084921222 0.6093157654201 0.613169445918978 0.617029960402787 0.620890474886596 0.624756924760856 0.628623374635115 0.632494829975976 0.636366285316837 0.640241789319686 0.644117293322535 0.647995867034608 0.65187444074668 0.655755088039567 0.659635735332453 0.6635174480656 0.667399160798747 0.670892747788898 0.674386334779049 0.677879180739879 0.681372026700709 0.684863393311282 0.688354759921856 0.691843914567436 0.695333069213016 0.69881928811903 0.702305507025043 0.705789286183365 0.709273065341686 0.712756461074321 0.716239856806957 0.719722641669804 0.723205426532651 0.726687374956242 0.730169323379833 0.733650212415718 0.737131101451603 0.740610711503089 0.744090321554576 0.747568437087316 0.751046552620056 0.754522962848175 0.757999373076294 0.761473872620017 0.764948372163741 0.768420761674763 0.771893151185785 0.775363237936954 0.778833324688122 0.78230092312438 0.785768521560637 0.789233453808525 0.792698386056414 0.796160482389876 0.799622578723337 0.803081677983927 0.806540777244516 0.809996411999544 0.813452046754572 0.816901748718556 0.820351450682541 0.823792772573187 0.827234094463833 0.830664675931434 0.834095257399035 0.837512841809278 0.840930426219521 0.844332875348226 0.847735324476931 0.851120630952297 0.854505937427664 0.85787223483623 0.861238532244796 0.864584102893695 0.867929673542594 0.871252953939141 0.874576234335687 0.877875818503135 0.881175402670583 0.884450043464565 0.887724684258546 0.890973292881631 0.894221901504716 0.89744354543715 0.900665189369584 0.904220620751657 0.90777605213373 0.911370093180507 0.914964134227283 0.918601001006617 0.922237867785951 0.925922053356155 0.92960623892636 0.933342544538015 0.93707885014967 0.94087242062746 0.944665991105251 0.94852235445871 0.952378717812169 0.956303828722103 0.960228939632037 0.964229225734234 0.96822951183643 0.972311920457707 0.976394329078984 0.980566369913636 0.984738410748288 0.988553808061216 0.992369205374144 0.996184602687072 1 
Surfaces 3
5 48.099000005820002 101.2375 6.2024999999999997 0 0 -1 0.99220794234744414 -0.12459293375890555 0 -0.12459293375890555 -0.99220794234744414 -0 1.4099999999999999 0.01
2 48.099000005820002 101.2375 6.2923 0 0 -1 0.99220794234416798 -0.12459293378499599 0 -0.12459293378499599 -0.99220794234416798 -0 1.400000000008
1 48.099000005820002 101.2375 6.2125000000000004 0 0 1 0.99220794234824783 -0.124592933752506 0 0.124592933752506 0.99220794234824783 -0 
Triangulations 2
172 170 1 0 0.00187729881827308
46.70676202673 101.4123252628 6.207328427125 46.70990888653 101.4119301073 1.7125 49.48809112511 101.0630698927 1.7125 49.4701233922883 100.954620769405 1.7125 49.4437022278444 100.847915690633 1.7125 49.4089905270428 100.743612528678 1.7125 49.3662022990619 100.642354347218 1.7125 49.3156013475556 100.544765436614 1.7125 49.2574996442166 100.451447464951 1.7125 49.1922554053666 100.362975768555 1.7125 49.120270883434 100.279895804855 1.7125 49.041989886934 100.202719789453 1.7125 48.9578950442409 100.131923538149 1.7125 48.8685048280244 100.067943533374 1.7125 48.7743703586926 100.011174233133 1.7125 48.676072006552 99.9619656390385 1.7125 48.574215813631 99.9206211384379 1.7125 48.4694297572295 99.8873956339256 1.7125 48.3623598782301 99.8624939717854 1.7125 48.2536662980414 99.846069679045 1.7125 48.1440191487293 99.8382240169309 1.7125 48.0340944414308 99.8390053565588 1.7125 47.92456989852 99.8484088807102 1.7125 47.8161207752247 99.8663766135317 1.7125 47.7094156964528 99.8927977779756 1.7125 47.6051125344981 99.9275094787772 1.7125 47.5038543530384 99.9702977067581 1.7125 47.4062654424341 100.020898658264 1.7125 47.3129474707707 100.079000361603 1.7125 47.2244757743749 100.144244600453 1.7125 47.1413958106747 100.216229122386 1.7125 47.0642197952733 100.294510118886 1.7125 46.9934235439693 100.378604961579 1.7125 46.929443539194 100.467995177796 1.7125 46.8726742389525 100.562129647127 1.7125 46.8234656448585 100.660427999268 1.7125 46.7821211442579 100.762284192189 1.7125 46.7488956397456 100.867070248591 1.7125 46.7239939776054 100.97414012759 1.7125 46.707569684865 101.082833707779 1.7125 46.6997240227509 101.192480857091 1.7125 46.7005053623788 101.302405564389 1.7125 49.4912379849 101.0626747372 6.207328427125 49.4834706453874 101.02955517992 6.2025 49.4780416737987 100.996161901058 6.2025 49.4718073807104 100.962909556851 6.2025 49.4647714067739 100.929817565729 6.2025 49.4569378607999 100.896905252485 6.2025 49.4483113173587 100.864191836982 6.2025 49.4388968141087 100.831696422933 6.2025 49.4286998488547 100.799437986746 6.2025 49.4177263763372 100.767435366439 6.2025 49.4059828047553 100.735707250641 6.2025 49.3934759920239 100.704272167677 6.2025 49.3802132417695 100.673148474752 6.2025 49.3662022990649 100.642354347225 6.2025 49.3514513459059 100.611907767999 6.2025 49.3359689964338 100.581826517021 6.2025 49.3197642919048 100.552128160892 6.2025 49.3028466954099 100.522830042617 6.2025 49.2852260863491 100.493949271472 6.2025 49.2669127546618 100.465502713013 6.2025 49.2479173948182 100.43750697923 6.2025 49.2282510995733 100.409978418844 6.2025 49.2079253534899 100.382933107757 6.2025 49.1869520262312 100.356386839671 6.2025 49.1653433656297 100.330355116857 6.2025 49.1431119905348 100.30485314111 6.2025 49.1202708834435 100.279895804865 6.2025 49.096833382919 100.255497682503 6.2025 49.0728131758016 100.231673021841 6.2025 49.048224289216 100.20843573581 6.2025 49.0230810823794 100.18579939433 6.2025 48.9973982382166 100.163777216387 6.2025 48.9711907547853 100.142382062314 6.2025 48.9444739365179 100.121626426277 6.2025 48.9172633852838 100.101522428984 6.2025 48.8895749912788 100.082081810603 6.2025 48.8614249237451 100.063315923907 6.2025 48.8328296215296 100.045235727647 6.2025 48.8038057834835 100.027851780147 6.2025 48.7743703587108 100.011174233143 6.2025 48.7445405366707 99.9952128258525 6.2025 48.7143337371393 99.9799768792889 6.2025 48.6837676000368 99.9654752908154 6.2025 48.6528599751266 99.9517165289513 6.2025 48.6216289115913 99.9387086284261 6.2025 48.5900926474924 99.9264591854875 6.2025 48.5582695991202 99.9149753534651 6.2025 48.5261783502387 99.9042638385934 6.2025 48.4938376412335 99.8943308960956 6.2025 48.4612663581681 99.8851823265302 6.2025 48.4284835217545 99.8768234724043 6.2025 48.3955082762459 99.8692592150533 6.2025 48.3623598782572 99.8624939717906 6.2025 48.3290576855194 99.8565316933276 6.2025 48.2956211455751 99.851375861467 6.2025 48.2620697844221 99.8470294870695 6.2025 48.2284231951105 99.8434951082954 6.2025 48.194701026301 99.8407747891223 6.2025 48.1609229707905 99.83887011814 6.2025 48.1271087540123 99.8377822076227 6.2025 48.0932781225166 99.8375116928796 6.2025 48.0594508324397 99.8380587318836 6.2025 48.0256466379663 99.8394230051793 6.2025 47.991885279794 99.8416037160696 6.2025 47.9581864736054 99.8445995910807 6.2025 47.9245698985542 99.8484088807059 6.2025 47.8910551857737 99.8530293604275 6.2025 47.8576619069122 99.8584583320153 6.2025 47.8244095627043 99.8646926251029 6.2025 47.7913175715827 99.8717285990385 6.2025 47.7584052583381 99.8795621450117 6.2025 47.7256918428348 99.8881886884521 6.2025 47.6931964287862 99.8976031917013 6.2025 47.660937992599 99.9078001569545 6.2025 47.6289353722915 99.9187736294712 6.2025 47.5972072564927 99.9305172010524 6.2025 47.5657721735289 99.943024013783 6.2025 47.5346484806032 99.9562867640366 6.2025 47.5038543530759 99.9702977067405 6.2025 47.4734077738502 99.9850486598987 6.2025 47.4433265228711 100.00053100937 6.2025 47.413628166742 100.016735713898 6.2025 47.3843300484666 100.033653310393 6.2025 47.3554492773209 100.051273919453 6.2025 47.3270027188619 100.069587251139 6.2025 47.2990069850787 100.088582610982 6.2025 47.2714784246916 100.108248906226 6.2025 47.2444331136045 100.128574652309 6.2025 47.2178868455174 100.149547979567 6.2025 47.1918551227035 100.171156640168 6.2025 47.1663531469558 100.193388015262 6.2025 47.1413958107099 100.216229122353 6.2025 47.1169976883475 100.239666622877 6.2025 47.0931730276849 100.263686829994 6.2025 47.069935741653 100.288275716579 6.2025 47.0472994001725 100.313418923415 6.2025 47.0252772222294 100.339101767577 6.2025 47.0038820681554 100.365309251008 6.2025 46.9831264321181 100.392026069275 6.2025 46.9630224348244 100.419236620508 6.2025 46.9435818164426 100.446925014513 6.2025 46.9248159297463 100.475075082046 6.2025 46.9067357334849 100.503670384261 6.2025 46.8893517859839 100.532694222307 6.2025 46.8726742389792 100.562129647079 6.2025 46.8567128316884 100.591959469119 6.2025 46.841476885124 100.62216626865 6.2025 46.8269752966498 100.652732405752 6.2025 46.8132165347849 100.683640030662 6.2025 46.800208634259 100.714871094197 6.2025 46.7879591913196 100.746407358295 6.2025 46.7764753592964 100.778230406667 6.2025 46.765763844424 100.810321655548 6.2025 46.7558309019253 100.842662364553 6.2025 46.7466823323591 100.875233647619 6.2025 46.7383234782324 100.908016484032 6.2025 46.7307592208807 100.94099172954 6.2025 46.7239939776171 100.974140127529 6.2025 46.7180316991532 101.007442320267 6.2025 46.7128758672919 101.040878860211 6.2025 46.7085294928936 101.074430221364 6.2025 46.7049951141186 101.108076810675 6.2025 46.7022747949447 101.141798979485 6.2025 46.7003701239615 101.175577034995 6.2025 46.6992822134434 101.209391251773 6.2025 46.6990116986995 101.243221883269 6.2025 46.6995587377026 101.277049173346 6.2025 46.7009230109975 101.310853367819 6.2025 46.7031037218869 101.344614725992 6.2025 46.7060995968972 101.37831353218 6.2025 3.14159265354051 0.0898000000000003 3.14159265358979 4.5798 0 4.5798 0.0785398163397448 4.5798 0.15707963267949 4.5798 0.235619449019234 4.5798 0.314159265358979 4.5798 0.392699081698724 4.5798 0.471238898038469 4.5798 0.549778714378214 4.5798 0.628318530717959 4.5798 0.706858347057703 4.5798 0.785398163397448 4.5798 0.863937979737193 4.5798 0.942477796076938 4.5798 1.02101761241668 4.5798 1.09955742875643 4.5798 1.17809724509617 4.5798 1.25663706143592 4.5798 1.33517687777566 4.5798 1.41371669411541 4.5798 1.49225651045515 4.5798 1.5707963267949 4.5798 1.64933614313464 4.5798 1.72787595947439 4.5798 1.80641577581413 4.5798 1.88495559215388 4.5798 1.96349540849362 4.5798 2.04203522483337 4.5798 2.12057504117311 4.5798 2.19911485751286 4.5798 2.2776546738526 4.5798 2.35619449019234 4.5798 2.43473430653209 4.5798 2.51327412287183 4.5798 2.59181393921158 4.5798 2.67035375555132 4.5798 2.74889357189107 4.5798 2.82743338823081 4.5798 2.90597320457056 4.5798 2.9845130209103 4.5798 3.06305283725005 4.5798 0 0.0898000000000003 0.024166097334927 0.0898000000000003 0.048332194669854 0.0898000000000003 0.072498292004781 0.0898000000000003 0.096664389339708 0.0898000000000003 0.120830486674635 0.0898000000000003 0.144996584009562 0.0898000000000003 0.169162681344489 0.0898000000000003 0.193328778679416 0.0898000000000003 0.217494876014343 0.0898000000000003 0.24166097334927 0.0898000000000003 0.265827070684197 0.0898000000000003 0.289993168019124 0.0898000000000003 0.314159265354051 0.0898000000000003 0.338325362688978 0.0898000000000003 0.362491460023905 0.0898000000000003 0.386657557358832 0.0898000000000003 0.410823654693759 0.0898000000000003 0.434989752028686 0.0898000000000003 0.459155849363613 0.0898000000000003 0.48332194669854 0.0898000000000003 0.507488044033467 0.0898000000000003 0.531654141368394 0.0898000000000003 0.555820238703321 0.0898000000000003 0.579986336038248 0.0898000000000003 0.604152433373175 0.0898000000000003 0.628318530708102 0.0898000000000003 0.652484628043029 0.0898000000000003 0.676650725377956 0.0898000000000003 0.700816822712883 0.0898000000000003 0.724982920047811 0.0898000000000003 0.749149017382737 0.0898000000000003 0.773315114717665 0.0898000000000003 0.797481212052592 0.0898000000000003 0.821647309387519 0.0898000000000003 0.845813406722446 0.0898000000000003 0.869979504057373 0.0898000000000003 0.8941456013923 0.0898000000000003 0.918311698727227 0.0898000000000003 0.942477796062154 0.0898000000000003 0.966643893397081 0.0898000000000003 0.990809990732008 0.0898000000000003 1.01497608806693 0.0898000000000003 1.03914218540186 0.0898000000000003 1.06330828273679 0.0898000000000003 1.08747438007172 0.0898000000000003 1.11164047740664 0.0898000000000003 1.13580657474157 0.0898000000000003 1.1599726720765 0.0898000000000003 1.18413876941142 0.0898000000000003 1.20830486674635 0.0898000000000003 1.23247096408128 0.0898000000000003 1.2566370614162 0.0898000000000003 1.28080315875113 0.0898000000000003 1.30496925608606 0.0898000000000003 1.32913535342098 0.0898000000000003 1.35330145075591 0.0898000000000003 1.37746754809084 0.0898000000000003 1.40163364542577 0.0898000000000003 1.42579974276069 0.0898000000000003 1.44996584009562 0.0898000000000003 1.47413193743055 0.0898000000000003 1.49829803476547 0.0898000000000003 1.5224641321004 0.0898000000000003 1.54663022943533 0.0898000000000003 1.57079632677025 0.0898000000000003 1.59496242410518 0.0898000000000003 1.61912852144011 0.0898000000000003 1.64329461877503 0.0898000000000003 1.66746071610996 0.0898000000000003 1.69162681344489 0.0898000000000003 1.71579291077982 0.0898000000000003 1.73995900811474 0.0898000000000003 1.76412510544967 0.0898000000000003 1.7882912027846 0.0898000000000003 1.81245730011952 0.0898000000000003 1.83662339745445 0.0898000000000003 1.86078949478938 0.0898000000000003 1.8849555921243 0.0898000000000003 1.90912168945923 0.0898000000000003 1.93328778679416 0.0898000000000003 1.95745388412908 0.0898000000000003 1.98161998146401 0.0898000000000003 2.00578607879894 0.0898000000000003 2.02995217613387 0.0898000000000003 2.05411827346879 0.0898000000000003 2.07828437080372 0.0898000000000003 2.10245046813865 0.0898000000000003 2.12661656547357 0.0898000000000003 2.1507826628085 0.0898000000000003 2.17494876014343 0.0898000000000003 2.19911485747835 0.0898000000000003 2.22328095481328 0.0898000000000003 2.24744705214821 0.0898000000000003 2.27161314948313 0.0898000000000003 2.29577924681806 0.0898000000000003 2.31994534415299 0.0898000000000003 2.34411144148792 0.0898000000000003 2.36827753882284 0.0898000000000003 2.39244363615777 0.0898000000000003 2.4166097334927 0.0898000000000003 2.44077583082762 0.0898000000000003 2.46494192816255 0.0898000000000003 2.48910802549748 0.0898000000000003 2.5132741228324 0.0898000000000003 2.53744022016733 0.0898000000000003 2.56160631750226 0.0898000000000003 2.58577241483718 0.0898000000000003 2.60993851217211 0.0898000000000003 2.63410460950704 0.0898000000000003 2.65827070684197 0.0898000000000003 2.68243680417689 0.0898000000000003 2.70660290151182 0.0898000000000003 2.73076899884675 0.0898000000000003 2.75493509618167 0.0898000000000003 2.7791011935166 0.0898000000000003 2.80326729085153 0.0898000000000003 2.82743338818645 0.0898000000000003 2.85159948552138 0.0898000000000003 2.87576558285631 0.0898000000000003 2.89993168019123 0.0898000000000003 2.92409777752616 0.0898000000000003 2.94826387486109 0.0898000000000003 2.97242997219602 0.0898000000000003 2.99659606953094 0.0898000000000003 3.02076216686587 0.0898000000000003 3.0449282642008 0.0898000000000003 3.06909436153572 0.0898000000000003 3.09326045887065 0.0898000000000003 3.11742655620558 0.0898000000000003 3 43 44 3 44 45 4 45 46 4 46 47 4 47 48 4 3 45 5 48 49 5 49 50 5 50 51 5 4 48 6 51 52 6 52 53 6 53 54 6 5 51 7 6 54 7 54 55 7 55 56 7 56 57 7 57 58 8 58 59 8 59 60 8 60 61 8 7 58 9 8 61 9 61 62 9 62 63 9 63 64 10 9 64 10 64 65 10 65 66 10 66 67 11 10 67 11 67 68 11 68 69 11 69 70 11 70 71 12 11 71 12 71 72 12 72 73 12 73 74 13 12 74 13 74 75 13 75 76 13 76 77 14 13 77 14 77 78 14 78 79 14 79 80 15 14 80 15 80 81 15 81 82 15 82 83 15 83 84 16 15 84 16 84 85 16 85 86 16 86 87 17 87 88 17 88 89 17 89 90 17 16 87 18 17 90 18 90 91 18 91 92 18 92 93 19 18 93 19 93 94 19 94 95 19 95 96 19 96 97 20 19 97 20 97 98 20 98 99 20 99 100 21 101 102 21 102 103 21 20 100 21 100 101 22 103 104 22 104 105 22 105 106 22 21 103 23 106 107 23 107 108 23 108 109 23 109 110 23 22 106 24 110 111 24 111 112 24 112 113 24 23 110 25 113 114 25 114 115 25 115 116 25 24 113 26 116 117 26 117 118 26 118 119 26 25 116 27 119 120 27 120 121 27 121 122 27 122 123 27 26 119 28 123 124 28 124 125 28 125 126 28 27 123 29 126 127 29 127 128 29 128 129 29 28 126 30 129 130 30 130 131 30 131 132 30 29 129 31 30 132 31 132 133 31 133 134 31 134 135 31 135 136 32 31 136 32 136 137 32 137 138 32 138 139 33 32 139 33 139 140 33 140 141 33 141 142 34 33 142 34 142 143 34 143 144 34 144 145 35 34 145 35 145 146 35 146 147 35 147 148 35 148 149 36 35 149 36 149 150 36 150 151 36 151 152 37 152 153 37 153 154 37 154 155 37 36 152 38 155 156 38 156 157 38 157 158 38 37 155 39 158 159 39 159 160 39 160 161 39 161 162 39 38 158 40 162 163 40 163 164 40 164 165 40 39 162 41 165 166 41 166 167 41 167 168 41 40 165 42 41 168 42 168 169 42 169 170 42 170 171 2 42 171 2 171 172 2 172 1 
550 552 1 0 0.00344231856415167
45.02315538455 101.6237380946 6.2125 45.0023332953608 101.381219463918 6.2125 45.0006031861914 101.137814754901 6.2125 45.0179757237367 100.895024638568 6.2125 45.0543438005258 100.654345996723 6.2125 45.1094831952716 100.417262693226 6.2125 45.1830539552698 100.185236425483 6.2125 45.2746024923204 99.9596977125892 6.2125 45.3835643792493 99.7420370757101 6.2125 45.5092678297901 99.5335964650512 6.2125 45.6509378403697 99.3356609862909 6.2125 45.8077009682627 99.1494509774758 6.2125 45.9785907166567 98.9761144852314 6.2125 46.1625534934261 98.8167201866728 6.2125 46.3584551068783 98.6722508006544 6.2125 46.5650877584225 98.5435970289821 6.2125 46.7811774890496 98.4315520649399 6.2125 47.0053920337132 98.3368067029898 6.2125 47.2363490351864 98.2599450797945 6.2125 47.4726245667541 98.2014410728198 6.2125 47.7127619111948 98.1616553787235 6.2125 47.955280541926 98.1408332895397 6.2125 48.1986852509436 98.1391031803722 6.2125 48.4414753672764 98.1564757179194 6.2125 48.6821540091212 98.1928437947103 6.2125 48.9192373126172 98.247983189458 6.2125 49.1512635803602 98.321553949458 6.2125 49.3768022932529 98.4131024865104 6.2125 49.5944629301311 98.522064373441 6.2125 49.802903540789 98.6477678239835 6.2125 50.0008390195483 98.7894378345646 6.2125 50.1870490283621 98.946200962459 6.2125 50.3603855206051 99.1170907108543 6.2125 50.5197798191624 99.301053487625 6.2125 50.6642492051792 99.4969551010784 6.2125 50.7929029768499 99.7035877526236 6.2125 50.9049479408904 99.9196774832516 6.2125 50.9996933028387 100.143892027916 6.2125 51.0765549260323 100.37484902939 6.2125 51.135058933005 100.611124560958 6.2125 51.17484462709 100.8512619054 6.2125 51.1956667162792 101.093780536082 6.2125 51.1973968254486 101.337185245099 6.2125 51.1800242879033 101.579975361432 6.2125 51.1436562111142 101.820654003277 6.2125 51.0885168163684 102.057737306774 6.2125 51.0149460563702 102.289763574517 6.2125 50.9233975193196 102.515302287411 6.2125 50.8144356323907 102.73296292429 6.2125 50.6887321818499 102.941403534949 6.2125 50.5470621712703 103.139339013709 6.2125 50.3902990433773 103.325549022524 6.2125 50.2194092949833 103.498885514769 6.2125 50.0354465182139 103.658279813327 6.2125 49.8395449047617 103.802749199346 6.2125 49.6329122532175 103.931402971018 6.2125 49.4168225225904 104.04344793506 6.2125 49.1926079779268 104.13819329701 6.2125 48.9616509764536 104.215054920206 6.2125 48.7253754448859 104.27355892718 6.2125 48.4852381004452 104.313344621276 6.2125 48.242719469714 104.33416671046 6.2125 47.9993147606964 104.335896819628 6.2125 47.7565246443636 104.318524282081 6.2125 47.5158460025188 104.28215620529 6.2125 47.2787626990228 104.227016810542 6.2125 47.0467364312798 104.153446050542 6.2125 46.8211977183871 104.06189751349 6.2125 46.6035370815089 103.952935626559 6.2125 46.395096470851 103.827232176017 6.2125 46.1971609920917 103.685562165435 6.2125 46.0109509832779 103.528799037541 6.2125 45.8376144910349 103.357909289146 6.2125 45.6782201924776 103.173946512375 6.2125 45.5337508064608 102.978044898922 6.2125 45.4050970347901 102.771412247376 6.2125 45.2930520707496 102.555322516748 6.2125 45.1983067088013 102.331107972084 6.2125 45.1214450856077 102.10015097061 6.2125 45.062941078635 101.863875439042 6.2125 46.70676202673 101.4123252628 6.207328427125 46.7311624794313 101.553581726367 6.20826126549101 46.7588460053907 101.663558284115 6.20987212457763 46.7917043754681 101.761992303877 6.2114678649795 46.8278670307632 101.847897149303 6.21257466905453 46.8660603589059 101.923032369357 6.21308335583241 46.9093375976006 101.995840394112 6.21320535011193 46.9573318528403 102.066014524605 6.21306844292726 47.009676230618 102.133248061873 6.21280042531259 47.0660038369267 102.197234306953 6.21252908830211 47.1259583109256 102.257679032808 6.21236450250536 47.1892459708207 102.314362228289 6.21231129071843 47.2555962259878 102.367091223635 6.21233522841177 47.3247385219843 102.415673391921 6.21240203018597 47.3964023043675 102.459916106226 6.21247741064161 47.4703188514971 102.49963338475 6.2125289979741 47.5462428801113 102.534724225366 6.21254889195283 47.62394530657 102.565146360319 6.21254610607011 47.7031973700729 102.590858692365 6.21252999088942 47.7837703098197 102.611820124259 6.21250989697424 47.8654349070007 102.627989626736 6.21249502883753 47.9479454035825 102.639328625374 6.21248931694759 48.0310352614306 102.645801630051 6.21249006539281 48.1144366223481 102.647373346574 6.21249415731869 48.197881628138 102.64400848075 6.2124984758707 48.2811023700481 102.635671852149 6.21249991072887 48.363817780194 102.622357891847 6.21249705245993 48.4457161303671 102.604130024706 6.21249245463796 48.5264813344665 102.58106148199 6.21248923411747 48.6057973063908 102.553225494966 6.21249050775296 48.6833479600389 102.520695294899 6.21249939239894 48.7588272376851 102.483557310049 6.21251718662579 48.8319747952418 102.441958126244 6.21253690048446 48.9025433071651 102.396061461263 6.21254918358265 48.970285448855 102.34603103413 6.21254468535689 49.0349538957116 102.292030563865 6.21251405524367 49.0963073062133 102.234221800551 6.21245075311752 49.1541603465897 102.17274806294 6.21237454743595 49.2083582776123 102.107742601576 6.21231957786446 49.2587466703018 102.039338564903 6.21232012980246 49.3051710956794 101.967669101365 6.21241048864936 49.3474730584229 101.892875441891 6.21262155751638 49.3854006605992 101.815284469548 6.21290654943031 49.4186086701041 101.735408583505 6.21314104425992 49.4467478021781 101.65376823821 6.21319725097101 49.4694687720616 101.570883888112 6.21294737852939 49.4864248160274 101.487273535603 6.21226493820707 49.4975165179504 101.403214603129 6.21115121524299 49.5030965747614 101.318544770302 6.20984104587172 49.503565888523 101.233054830537 6.20859416796761 49.4994667181089 101.148454845732 6.20768535257064 49.4912379849 101.0626747372 6.207328427125 49.4886369265575 101.04408593163 6.20734677828521 49.4858823429929 101.025603493677 6.20740016979649 49.4829700579293 101.00722661772 6.20748610870482 49.4798958950902 100.988954498136 6.20760210205617 49.4768118450101 100.971638446208 6.20773832437527 49.4735733780567 100.95441610028 6.20789741924137 49.4702519592983 100.937655877171 6.20807314030626 49.4667758792449 100.920984034212 6.20826667028226 49.4632173887878 100.904736908736 6.20847157990591 49.4595040435995 100.888573358469 6.20868974136461 49.4557083927994 100.87280030541 6.2089147595938 49.4517577040382 100.857106483679 6.20914890637317 49.4477243967976 100.841771884658 6.20938598518841 49.4435358473412 100.826512581321 6.20962844081828 49.4392639646785 100.811583908014 6.2098703969081 49.4348365902633 100.796726956728 6.21011429641203 49.4303247787171 100.782174461797 6.21035467026428 49.4256571614612 100.767690436857 6.21059382689148 49.420903623796 100.753486865382 6.21082676382963 49.4159938866856 100.739348798351 6.21105555651295 49.4109963739951 100.725469125305 6.21127570588461 49.4058421757966 100.711652247011 6.21148898380865 49.4005979804831 100.698073442207 6.21169141313703 49.3951965108253 100.684554951579 6.21188441439326 49.3897024601674 100.671255771288 6.21206453585733 49.3840504346928 100.658014630312 6.21223281769775 49.3783028848486 100.644975433642 6.21238632478638 49.37239654558 100.631992189184 6.21252570570044 49.3657036132694 100.617751324306 6.21266208768673 49.3588192675212 100.603580740001 6.21278105394934 49.35167705134 100.589346615215 6.21288435130842 49.3443457369349 100.575188936725 6.21297160200601 49.3367571119778 100.560978689488 6.21304426975769 49.3289820442697 100.546851261359 6.21310234568998 49.3209513002669 100.532683310329 6.21314705154285 49.3127371297657 100.518604743841 6.21317870692052 49.304270093247 100.504498752964 6.21319833552671 49.2956230253045 100.490488886255 6.21320654119705 49.2867271716105 100.476465707481 6.21320419516066 49.2776550753604 100.462545544124 6.21319213846567 49.2683396267265 100.448627136809 6.21317113566844 49.2588521294866 100.434818760963 6.21314221651106 49.2491281351767 100.421028086423 6.21310608336202 49.2392366982996 100.407354553142 6.2130639061055 49.2291170926632 100.393715443418 6.21301636639237 49.2188350647423 100.380200643303 6.2129647272967 49.2083346991509 100.366737643945 6.2129096864177 49.1976773425972 100.353406142084 6.21285255642466 49.1868129875161 100.340144329697 6.21279408091048 49.1757974748612 100.327021179801 6.21273558372764 49.1645877888689 100.313985956141 6.21267787612243 49.1532331657306 100.301096491818 6.21262226172067 49.1416986291114 100.288313357376 6.21256963107194 49.1300257416091 100.275682963645 6.21252124489674 49.1181884879812 100.263177219916 6.21247804033905 49.1062183390275 100.250829797829 6.21244051341697 49.0941099232124 100.238634994084 6.21240838341468 49.0818707348664 100.226600227208 6.2123813821574 49.0695010434121 100.214725453526 6.21235921849624 49.0570027796994 100.203012243527 6.21234160455561 49.0443765279526 100.191460875503 6.21232824999909 49.0316239115463 100.180072589939 6.21231886574298 49.0200392580721 100.169963040691 6.21231357485574 49.008353953198 100.159986750661 6.21231105382875 48.9965689159079 100.150144359785 6.21231109130075 48.9846848462559 100.140436323135 6.2123134758919 48.9727029253286 100.130863483765 6.21231799608765 48.9606235951997 100.121426087703 6.21232444060247 48.9484483073993 100.112125169347 6.21233259764182 48.9361772374355 100.102960777292 6.21234225620519 48.9238121146004 100.093934124766 6.21235320414693 48.9113528402608 100.085045075294 6.21236523088678 48.8988014277172 100.076295007765 6.21237812391292 48.886157497681 100.067683613673 6.21239167314437 48.87342335259 100.059212423815 6.21240566574393 48.8605983270925 100.050880971298 6.21241989215258 48.8476850167406 100.042690924568 6.21243413930369 48.8346824658555 100.034641672518 6.2124481981269 48.8215935658988 100.026735006564 6.21246185547602 48.8084170677745 100.018970185995 6.21247490268101 48.7951561604469 100.011349110186 6.21248712671807 48.7818092995093 100.003870923788 6.2124983191757 48.7668827251588 99.9957317204423 6.21250932539979 48.7518531597422 99.9877705977892 6.21251882445234 48.7367125963079 99.9799834799454 6.21252689995726 48.7214734124159 99.9723769312692 6.21253362397339 48.7061308296392 99.9649487225594 6.2125390776931 48.6906940532901 99.9577034994332 6.21254333682541 48.676720099878 99.9513392003828 6.21254621441915 48.6626733039014 99.9451248993146 6.21254824585681 48.6485569717243 99.9390621191458 6.21254948871804 48.6343711083523 99.9331509436154 6.21255000095047 48.6201225099408 99.9273942414885 6.21254984038742 48.6058077215801 99.9217906749809 6.21254906494041 48.5914370609199 99.9163442971095 6.21254773316629 48.5770035755459 99.9110525080795 6.21254590227236 48.5625211150734 99.9059203777884 6.21254363183276 48.5479792131545 99.9009442101454 6.21254097786022 48.5333952406313 99.8961299203978 6.21253800106464 48.518755221983 99.8914728864715 6.21253475595254 48.5040800175861 99.8869796949108 6.21253130431625 48.4893521684934 99.8826449709373 6.21252769902127 48.4745959724481 99.8784757974547 6.21252400272345 48.4597905333812 99.8744662215896 6.21252026668465 48.4449635144504 99.870623648397 6.21251655404842 48.4300906486845 99.8669417212293 6.21251291467528 48.4152028738066 99.8634279953805 6.21250941167472 48.4002726372359 99.8600758828864 6.21250609386346 48.385334042579 99.8568929211641 6.21250302366227 48.3703563549875 99.853872460013 6.21250024934495 48.35371015553 99.8507150771503 6.21249757442851 48.3370205914812 99.8477586156235 6.21249531498734 48.3202629274542 99.8449989175139 6.21249344298725 48.3034673147731 99.8424412044978 6.21249193706542 48.2866113397054 99.8400823072187 6.21249077031398 48.2697228863099 99.8379264047455 6.21248991973105 48.2527855197964 99.8359715977986 6.21248935931446 48.2358212051124 99.8342206535604 6.21248906459622 48.2188196467898 99.8326726622244 6.21248901001136 48.2017967167064 99.8313292554863 6.21248917021802 48.1847483710086 99.8301902207115 6.21248951972312 48.1676842621327 99.829256343213 6.21249003280466 48.1523149231419 99.8285914131475 6.21249061321565 48.1369371454046 99.828092985212 6.21249128657799 48.1215574081027 99.8277612797178 6.21249203393126 48.106173336361 99.8275962779595 6.21249283673652 48.0907959977217 99.8275980786476 6.2124936757744 48.0754184225791 99.8277666846671 6.21249453281364 48.0600562137499 99.8281018749613 6.21249538841757 48.0446978514781 99.8286038727431 6.21249622469878 48.0293633917258 99.8292719429497 6.21249702211183 48.0140368383862 99.8301067245033 6.21249776308089 47.9987425904119 99.8311067799969 6.21249842812447 47.9834602774257 99.8322733540986 6.21249899987952 47.9682185045315 99.8336041264945 6.21249945916163 47.9529926561759 99.8351011303918 6.21249978865844 47.9378153817279 99.8367609915295 6.21249996977118 47.9226579725611 99.8385866968971 6.21249998543395 47.9058645845661 99.8408064119541 6.21249980695888 47.8891004583592 99.843229311749 6.21249944514034 47.8723299037288 99.8458607917408 6.21249892360923 47.8555936578023 99.8486947268309 6.21249826814177 47.8388610315569 99.8517365199365 6.21249750227849 47.8221677938444 99.8549799057354 6.21249665249814 47.8054884190157 99.858430017304 6.21249574253717 47.7888535345658 99.862080724423 6.2124947991919 47.7722429033678 99.8659366074323 6.21249384659261 47.7556818750567 99.8699919530264 6.21249291155034 47.7391555871485 99.8742505035755 6.21249201869133 47.7226840136001 99.878707247754 6.21249119462889 47.7062577121755 99.8833648057694 6.21249046448641 47.6898912236335 99.8882191532361 6.21248985456379 47.673580530133 99.8932715084868 6.21248939037839 47.6573347230865 99.8985191154919 6.21248909790248 47.6427700214828 99.9034085533339 6.2124890027276 47.6282617539884 99.9084548622457 6.21248908621901 47.6138149148725 99.9136562661565 6.21248936703266 47.5994281482678 99.9190132364115 6.21248986389481 47.5851102443882 99.9245224339739 6.2124905951173 47.5708560128281 99.9301858121343 6.21249157958885 47.5566779393693 99.9359983169181 6.21249283495741 47.5425670929104 99.9419635385501 6.21249438052524 47.5285395320798 99.9480745678013 6.2124962329034 47.5145827015615 99.9543367755726 6.21249841211391 47.4991798920432 99.9614621178262 6.21250123427203 47.483868615251 99.9687717857759 6.21250446132398 47.4686366252728 99.9762714698354 6.21250802378083 47.4535000475173 99.9839530753523 6.21251184234888 47.4384341441085 99.9918293212191 6.21251584776158 47.4234676977196 99.999885355844 6.21251995657344 47.4085797874292 100.008132585504 6.2125240982447 47.3937953638704 100.016557365521 6.21252818928432 47.3790973560078 100.025169547242 6.21253215747296 47.3645068415834 100.03395693647 6.21253591993078 47.3500106050075 100.042927592728 6.21253940258678 47.3356258376095 100.052071011132 6.21254252360745 47.3213431570801 100.061393230532 6.21254520714448 47.3071758825744 100.070885666814 6.21254737260959 47.293118415168 100.080552119928 6.21254894270591 47.2791802439254 100.090386148038 6.21254983804253 47.2653594760315 100.100389107056 6.21254998046034 47.251661840119 100.110556906462 6.21254929146527 47.2394406453259 100.119847818136 6.21254789589579 47.2273220917772 100.129270078542 6.21254570658445 47.2153100912834 100.138820617233 6.21254266729525 47.2034034360737 100.148500389054 6.21253872071118 47.1916084747193 100.158304183134 6.21253381218547 47.1799215138109 100.168235043408 6.21252788337617 47.1683512253464 100.178285530089 6.21252088220843 47.1568915399767 100.188460868212 6.21251274849656 47.1455533273958 100.198751313832 6.21250343384217 47.1343282397395 100.209164364015 6.21249288800608 47.123225057659 100.219691733618 6.21248122658408 47.1122367354982 100.230339891395 6.21246864808255 47.1013653098335 100.241106871403 6.21245536114952 47.0906104110029 100.251993064988 6.21244157153291 47.0799747401812 100.262995758005 6.21242748880224 47.0694572466888 100.274116075542 6.21241331755402 47.0590612591129 100.285350531312 6.21239926810915 47.0487850823072 100.296701008925 6.21238554389419 47.0386326326656 100.30816322947 6.21237235564862 47.0286016096096 100.319739856447 6.21235990577577 47.0186964755841 100.33142580143 6.21234840494294 47.0089143658311 100.343224525618 6.21233805483864 46.9992602452244 100.355130117886 6.21232906541575 46.989730728015 100.367146851271 6.21232163811241 46.9803312363123 100.37926798254 6.21231598138162 46.9710579082081 100.391498606959 6.21231229702451 46.9619165765866 100.403831143609 6.21231079107522 46.9529029495526 100.416271516563 6.21231166645127 46.9440232233459 100.428811305488 6.21231512572661 46.9352727232895 100.441457266015 6.21232137381831 46.9266579609107 100.454200140503 6.21233060868893 46.9181739266802 100.467047515061 6.21234303825626 46.9098273990055 100.479989300654 6.21235885462396 46.9016130818474 100.493033908992 6.21237826981691 46.8935379720544 100.506170429291 6.2124014687506 46.8855965355261 100.519408090249 6.2124286687546 46.8777959393798 100.532735172632 6.21246004616045 46.8701304597083 100.546161709853 6.21249582487663 46.8626075313665 100.559674930007 6.21253605823431 46.8552222403707 100.573283942567 6.21258023680362 46.8479838323749 100.586972006334 6.21262755618021 46.8408868947379 100.600749740102 6.21267730520685 46.833945294626 100.614590304096 6.21272864103116 46.8271487687086 100.62851432774 6.21278089751544 46.8205153327724 100.642484746992 6.21283319801707 46.8140303279603 100.656532359006 6.21288492443387 46.8077153163196 100.670610049285 6.21293517803033 46.8015518351374 100.684758642038 6.21298338423972 46.7955643703877 100.698921251706 6.21302863987349 46.789731270267 100.713148482274 6.21307040295647 46.7840793138205 100.727374053691 6.21310778866758 46.778584286564 100.741658003727 6.21314027090228 46.7732746322245 100.75592512147 6.21316701033 46.7681242006274 100.770244443443 6.21318747502278 46.7631624844748 100.78453236721 6.21320090161207 46.7583620151151 100.798866414973 6.21320672658078 46.7537527403944 100.81315519566 6.2132042953523 46.7493064712274 100.827484137913 6.21319298394218 46.7450530466437 100.841754715984 6.21317228076478 46.7409641277601 100.856059631837 6.21314147035618 46.7370689173867 100.870293917667 6.21310021873415 46.7333394631077 100.884556874078 6.21304768677283 46.7298038460062 100.898737810493 6.21298375222384 46.7264349963963 100.912941921863 6.21290741986586 46.7232594340275 100.927053529507 6.2128188120184 46.720251423896 100.941183000149 6.21271674553162 46.7174355334475 100.955210406698 6.21260161811164 46.7147877617172 100.969250562187 6.21247203093059 46.7120614832993 100.984758549717 6.21231218471507 46.7095385257418 101.000281287318 6.21213611407069 46.7071921911888 101.015988914612 6.21194334334333 46.705048331341 101.031714296658 6.21173742163892 46.7030823181135 101.047646510134 6.2115174202668 46.7013181592474 101.063599682194 6.21128750253536 46.6997340384991 101.07978321914 6.21104631099609 46.6983513710973 101.095991150091 6.21079863166006 46.6971519544999 101.1124547787 6.21054272686512 46.6961538021634 101.128946505464 6.21028399430979 46.6953431964199 101.145721299806 6.21002039396809 46.6947338690506 101.162528207938 6.20975790061166 46.6943175386936 101.179647861461 6.20949428535692 46.6941026933683 101.196804005365 6.20923603664954 46.694087531906 101.214305185414 6.20898089392072 46.6942742412448 101.231847650881 6.20873576051119 46.6946686496574 101.249770394183 6.20849855508006 46.6952654763117 101.267739703455 6.20827645333206 46.6960794459382 101.286127847533 6.20806783038387 46.6970965196869 101.304568402069 6.20787993746343 46.6983417130403 101.323470038235 6.20771196515229 46.6997908032279 101.342430585032 6.20757097591696 46.7012909809444 101.359823670885 6.20746795309605 46.702955030176 101.377269403552 6.20739181301238 46.7047797718091 101.394769396401 6.20734461718302 46.21668994583 102.5114191473 6.2125 46.3112777589608 102.645412775514 6.2125 46.409846446659 102.766059429286 6.2125 46.4810055973094 102.843743400257 6.2125 46.5574707976693 102.919845235314 6.2125 46.6344545460187 102.989703988374 6.2125 46.7372033757154 103.07371799293 6.2125 46.8518047689731 103.156438503025 6.2125 46.9641096657233 103.22747895501 6.2125 47.073310751994 103.287891031526 6.2125 47.1788253744247 103.338765861712 6.2125 47.2803526418836 103.381141691242 6.2125 47.3777250608289 103.416003788432 6.2125 47.4709511510744 103.444244326136 6.2125 47.5601959313732 103.466732320993 6.2125 47.6736570841255 103.489215596988 6.2125 47.7950240219937 103.506050990801 6.2125 47.9105972407989 103.515461077575 6.2125 48.0198613420236 103.518567732391 6.2125 48.1226149945973 103.51642968591 6.2125 48.2188205095592 103.509998789899 6.2125 48.3370467054754 103.496176323291 6.2125 48.4568894769993 103.475352246562 6.2125 48.5637563555135 103.450767822284 6.2125 48.6588548517391 103.423863014719 6.2125 48.743505479793 103.395669133784 6.2125 48.8424720904512 103.357210950501 6.2125 48.9384698315597 103.313646764464 6.2125 49.0223907295151 103.269829403427 6.2125 49.098026853242 103.225000440245 6.2125 49.1659500926531 103.179573005057 6.2125 49.2257848364822 103.134487884608 6.2125 49.2774342633546 103.090495575218 6.2125 49.3208808641752 103.04816051808 6.2125 49.3499745307822 103.015322986681 6.2125 49.36809838931 102.991465302458 6.2125 49.3782986330022 102.975772357586 6.2125 49.3848085590676 102.963949256424 6.2125 49.3889270127878 102.954933912329 6.2125 49.3910734306595 102.949197858079 6.2125 49.392688130596 102.943859492022 6.2125 49.3943248209305 102.934472689061 6.2125 49.3940112823371 102.927678909565 6.2125 49.392344117165 102.922516630505 6.2125 49.3894770999423 102.918120912124 6.2125 49.3853894515949 102.914320933294 6.2125 49.3802538927315 102.911404485175 6.2125 49.374332370111 102.909571155623 6.2125 49.3669028595382 102.908615312425 6.2125 49.357123614745 102.90856103289 6.2125 49.3469084804984 102.909303917239 6.2125 49.3303648982392 102.911759726861 6.2125 49.2942911809335 102.920196789042 6.2125 49.2053611940394 102.947764424893 6.2125 48.9885787080386 103.017052505897 6.2125 48.8099693987277 103.06351493408 6.2125 48.6300422803329 103.097531203303 6.2125 48.4593619183405 103.117272151976 6.2125 48.2944549942988 103.124409924986 6.2125 48.1363759714137 103.119843762246 6.2125 47.9755658089828 103.103145095818 6.2125 47.8316700116597 103.077150134183 6.2125 47.6879348351008 103.039805348647 6.2125 47.5643345054444 102.997547841657 6.2125 47.4439804267112 102.946447710409 6.2125 47.3181125507248 102.881646084793 6.21249999999985 47.2009118033661 102.809912184682 6.21249999999953 47.0931750994815 102.733099039052 6.21250000000003 46.9847102547026 102.643825509845 6.21250000000026 46.8773842542117 102.541590975957 6.21249999999814 46.7722645160064 102.424767963472 6.21250000000217 46.6999796234477 102.332378482017 6.21250000001098 46.63039608091 102.2312564079 6.212500000016 46.5543538154815 102.102052667716 6.21250000000913 46.5140777020833 102.022479560039 6.21250000000238 46.4792898169153 101.944897110261 6.21249999999852 46.4444558534536 101.85530483926 6.2124999999984 46.4200735399824 101.781888402548 6.21249999999974 46.3936330573038 101.686092806395 6.21250000000042 46.3713663715252 101.581443840459 6.21249999999982 46.3560040339029 101.480099473905 6.21249999999953 46.3466662773494 101.382292968276 6.21249999999976 46.3425714899509 101.288367276166 6.21249999999996 46.3430016088731 101.198558252101 6.2125 46.3494546470905 101.08548672061 6.2125 46.3631504782421 100.967465349028 6.2125 46.3820926753806 100.858706454752 6.2125 46.4050467225837 100.758307545459 6.2125 46.4310159564071 100.665679920917 6.2125 46.468855092669 100.553562643361 6.2125 46.5139837720936 100.441736614568 6.2125 46.5602466636869 100.343319353179 6.2125 46.6066624529205 100.25630789283 6.2125 46.6676345529923 100.155266033842 6.2125 46.7332555024719 100.059307351932 6.2125 46.7943463633316 99.979006294044 6.2125 47.0710219386031 99.6670210767212 6.2125 47.0913849414789 99.6406055661043 6.2125 47.0987168192726 99.6295477222914 6.2125 47.1050918790554 99.6184034297502 6.2125 47.1090430715573 99.6100156997785 6.2125 47.1121223742029 99.600419071927 6.2125 47.1129592895982 99.5929126957251 6.2125 47.112241196931 99.586425187774 6.2125 47.1102115345099 99.5809365875769 6.2125 47.1070688782493 99.5765595063472 6.2125 47.102931989133 99.5731687358582 6.2125 47.0972041250008 99.5702034980497 6.2125 47.0896809279161 99.5677897060709 6.2125 47.0803264740967 99.5661430807543 6.2125 47.0703509685012 99.5655107440169 6.2125 47.0570520648334 99.5658257668285 6.2125 47.0386802860144 99.5676754260711 6.2125 47.0143020039272 99.5719844615084 6.2125 46.9751538815923 99.5820079375706 6.2125 46.9229523811245 99.5997245270075 6.2125 46.8708389280798 99.6213473521225 6.2125 46.8161324249202 99.6477290554586 6.2125 46.7568133331324 99.6803239277148 6.2125 46.6915385806613 99.7209104406563 6.2125 46.6194809587763 99.7716084470717 6.2125 46.5403946430017 99.8348878703954 6.2125 46.4548445645463 99.9134671512841 6.2125 46.3640097155094 100.010403158605 6.2125 46.2799419233722 100.114965273564 6.2125 46.2042173973006 100.224405619945 6.2125 46.1294689352668 100.351025912961 6.2125 46.0575377871583 100.497451283279 6.2125 45.9975750479332 100.648151643499 6.2125 45.9500182718412 100.799926231622 6.2125 45.9109250224358 100.969350950929 6.2125 45.8856445960169 101.139737955725 6.2125 45.8740425621906 101.308862811462 6.2125 45.8756596565405 101.474153674072 6.2125 45.8895290914181 101.633163375812 6.2125 45.9142295324803 101.783742787523 6.2125 45.9484223170403 101.925252361316 6.2125 45.9761065326813 102.015557839095 6.2125 46.0171152587567 102.127927083905 6.2125 46.0572615944504 102.22208591893 6.2125 46.0991437149242 102.308851528176 6.2125 46.1463917938361 102.396346259294 6.2125 46.1802826815838 102.453779737741 6.2125 -3.099999999996 1.71487490874256e-11 -3.09044373456996 -0.243223196740117 -3.06183385584328 -0.484946841609545 -3.01434675323206 -0.723680627939232 -2.94827520051497 -0.957952682549401 -2.86402655078554 -1.18631864032 -2.76212022498486 -1.40737054918198 -2.6431845094988 -1.61974555060996 -2.50795268256348 -1.82213428209828 -2.35725849336111 -2.01328894981622 -2.19203102167903 -2.19203102167191 -2.01328894982388 -2.35725849335457 -1.82213428210643 -2.50795268255757 -1.61974555061854 -2.64318450949354 -1.40737054919094 -2.76212022498029 -1.1863186403293 -2.86402655078169 -0.957952682558972 -2.94827520051186 -0.723680627949018 -3.01434675322971 -0.484946841619486 -3.0618338558417 -0.243223196750151 -3.09044373456917 7.08426650675164e-12 -3.099999999996 0.243223196764275 -3.09044373456806 0.48494684163348 -3.06183385583949 0.723680627962795 -3.0143467532264 0.957952682572447 -2.94827520050748 1.18631864034239 -2.86402655077626 1.40737054920357 -2.76212022497386 1.61974555063062 -2.64318450948614 1.82213428211789 -2.50795268254924 2.01328894983465 -2.35725849334537 2.19203102168904 -2.19203102166189 2.35725849337031 -2.01328894980545 2.50795268257181 -1.82213428208682 2.6431845095062 -1.61974555059788 2.76212022499129 -1.40737054916935 2.86402655079096 -1.18631864030691 2.94827520051935 -0.957952682535928 3.01434675323537 -0.723680627925458 3.06183385584549 -0.484946841595554 3.09044373457107 -0.243223196725996 3.099999999996 3.13178594169017e-11 3.09044373456996 0.243223196740117 3.06183385584328 0.484946841609545 3.01434675323206 0.723680627939232 2.94827520051497 0.9579526825494 2.86402655078554 1.18631864032 2.76212022498486 1.40737054918198 2.6431845094988 1.61974555060996 2.50795268256348 1.82213428209828 2.35725849336111 2.01328894981622 2.19203102167903 2.19203102167191 2.01328894982388 2.35725849335457 1.82213428210643 2.50795268255757 1.61974555061854 2.64318450949354 1.40737054919094 2.76212022498029 1.1863186403293 2.86402655078169 0.957952682558972 2.94827520051186 0.723680627949019 3.01434675322971 0.484946841619486 3.0618338558417 0.243223196750151 3.09044373456917 -7.08395564430474e-12 3.099999999996 -0.243223196764275 3.09044373456806 -0.48494684163348 3.06183385583949 -0.723680627962795 3.0143467532264 -0.957952682572447 2.94827520050748 -1.18631864034239 2.86402655077626 -1.40737054920357 2.76212022497386 -1.61974555063062 2.64318450948614 -1.82213428211789 2.50795268254924 -2.01328894983465 2.35725849334537 -2.19203102168904 2.19203102166189 -2.35725849337031 2.01328894980545 -2.50795268257181 1.82213428208682 -2.6431845095062 1.61974555059788 -2.76212022499129 1.40737054916935 -2.86402655079096 1.18631864030691 -2.94827520051935 0.957952682535928 -3.01434675323537 0.723680627925458 -3.06183385584549 0.484946841595554 -3.09044373457107 0.243223196725996 -1.40317157287828 -2.32056374116496e-11 -1.39656080711841 0.143195909022545 -1.38279529476322 0.255764694808484 -1.36245714230296 0.357525631740142 -1.33727940521796 0.447266712973267 -1.3087449991847 0.526575093863857 -1.27487634463386 0.604207832425989 -1.2359992641896 0.679814907112073 -1.19243958047608 0.753046296374519 -1.14452311611747 0.823551978665734 -1.09256679656052 0.890995619538404 -1.0368346033795 0.955122331509787 -0.977571013449758 1.01570723243009 -0.915020473084705 1.07252548716488 -0.849427428597766 1.12535226057973 -0.781035335716824 1.17396953923972 -0.710074982290869 1.21824654746976 -0.636768400663702 1.25811280466584 -0.5613374486919 1.29349903183595 -0.484003984232039 1.32433594998802 -0.404990328051272 1.35055429051587 -0.324535517121915 1.37208515985791 -0.242899590879322 1.3888601356636 -0.160343922946947 1.4008108255162 -0.0771298869482438 1.40786883699899 0.0064810791580389 1.40996588427251 0.0902107914332918 1.40706142273337 0.173742048383539 1.39917954390119 0.25675210277056 1.38635352632447 0.338918207356138 1.36861664855171 0.419917614902051 1.3460021891314 0.499435884151368 1.31855777023997 0.577196436074576 1.28639639846593 0.652933474223951 1.24964970087576 0.726381202933811 1.20844930588644 0.797273826538472 1.16292684191494 0.865351731146419 1.11321272922682 0.930413170614569 1.0594260785508 0.992288009375197 1.00167982271904 1.05080643241356 0.940086831915542 1.10579862471492 0.874759976324334 1.15708972958582 0.805819638998745 1.20438908457626 0.733558771211077 1.24729030633477 0.658442766005585 1.2853819868022 0.580944504006426 1.3182527179194 0.501536865837759 1.34549389852426 0.420690613278454 1.36697232227139 0.338668620535584 1.38305816183035 0.25535377557558 1.39417526107379 0.170588451527949 1.40064859193403 0.0861369470145473 1.40317157286835 2.19586793193116e-11 1.40290681594337 -0.0187680339932952 1.40247647742008 -0.0374496573715153 1.40187651393839 -0.0560461897918041 1.40110288213818 -0.074558950933264 1.40020032086484 -0.0921243260341738 1.39913287083789 -0.109615964547727 1.39792553813346 -0.126659416339599 1.39655373772143 -0.143634446348504 1.3950472522553 -0.160198336052162 1.39337670581451 -0.176698595575355 1.391575841899 -0.192821655363608 1.38961127642365 -0.208885417833725 1.38751997962555 -0.224603050357401 1.38526526895788 -0.240265315988461 1.3828866802555 -0.255609910605753 1.38034487534423 -0.270902715237829 1.37768135813059 -0.285903956126085 1.37485471837725 -0.300856672836386 1.37190788519155 -0.315541826467449 1.36879790828465 -0.330181447415149 1.3655686456855 -0.344575624016601 1.36217609469846 -0.358927017072826 1.35866458558451 -0.373053404725983 1.35498951289708 -0.387139543447518 1.35119525608749 -0.40101961564823 1.34723702412168 -0.414861783325874 1.34315885128422 -0.428515481921141 1.33891615506826 -0.44213344832686 1.33404968560638 -0.457097239635901 1.32898453774865 -0.472015146764944 1.32367144549423 -0.487028228097583 1.31816120381179 -0.501989019110403 1.31240220625051 -0.51703402832857 1.30644790003516 -0.532020093218741 1.30024495863676 -0.547078220712985 1.2938488833275 -0.562070513801136 1.28720532923229 -0.577121522903875 1.2803711701365 -0.592099587487012 1.27329182243131 -0.607121857353389 1.26602477046909 -0.622063873081723 1.25851604354865 -0.637034466439362 1.25082289949116 -0.651917321739732 1.24289289570491 -0.666812079527792 1.23478215910045 -0.681611470987985 1.22644074270892 -0.696405135337771 1.21792268153769 -0.711095695374545 1.20918152998749 -0.725762061620004 1.2002682270986 -0.740317514968704 1.1911408558109 -0.754829612421973 1.18184622841125 -0.769222961016098 1.1723479856964 -0.783553261126189 1.16268777461074 -0.797756995808732 1.15283580398852 -0.811877645086984 1.14282753010794 -0.825863981360582 1.13264064034279 -0.839747117771263 1.122302165022 -0.853489724009273 1.11180748505598 -0.867098128189323 1.10116311208338 -0.880564035851087 1.09036931886869 -0.893887456759851 1.07942782554476 -0.907066592093361 1.06833917711051 -0.920101092939951 1.05710482973525 -0.932989526217124 1.04687002294859 -0.944463667237669 1.03651874588654 -0.95581812785643 1.02605183064072 -0.967052158625363 1.01546991511185 -0.97816522079725 1.00477406614467 -0.989156330731443 0.993964691714872 -1.00002518923747 0.983043103163521 -1.01077058912777 0.972009468576501 -1.02139246031914 0.960865352611499 -1.03188938357784 0.949610674407961 -1.04226150660666 0.938247259778414 -1.05250721041606 0.926774770827576 -1.06262684836614 0.915195301326138 -1.0726186147207 0.903508249278148 -1.0824830556311 0.89171598213473 -1.09221819226639 0.879817627803066 -1.10182475004103 0.867815832016891 -1.11130059124378 0.855709447700419 -1.1206466064414 0.843501402320548 -1.12986051373553 0.831190270075404 -1.13894335423516 0.817394091675945 -1.14887888212822 0.803473537126889 -1.15865054890292 0.789421169693446 -1.16826339629246 0.775248452616114 -1.17770936893201 0.76095092244462 -1.18699127401076 0.746537133951791 -1.19610335519366 0.733465013080343 -1.20415911911071 0.720301928549108 -1.21207512950727 0.707050971214025 -1.21984946338318 0.693712135608529 -1.22748203702846 0.680291807504094 -1.23496915727842 0.666786725590195 -1.24231258195061 0.653206622143684 -1.2495070041033 0.639544922839917 -1.25655586949514 0.625814737703707 -1.26345242216936 0.61200614244835 -1.27020163344963 0.598135635563501 -1.27679546989634 0.584189926303945 -1.28324025881936 0.570188891864274 -1.28952686594167 0.556115878997635 -1.2956627994224 0.54199411363815 -1.30163800422117 0.527803604226121 -1.30746099032874 0.513570875748851 -1.31312096375696 0.499272642318185 -1.31862725511493 0.484938659252367 -1.32396851335845 0.470542409475629 -1.32915470797465 0.456116791748509 -1.33417411121018 0.44163213927839 -1.33903715079175 0.425509035560597 -1.34424392997133 0.409317871772142 -1.34925675632743 0.393034623313098 -1.35408283723418 0.376688555982642 -1.35871323506111 0.360257825576939 -1.36315388706155 0.343769578197994 -1.36739717257347 0.327207743753233 -1.37144702373593 0.310593771266732 -1.37529795825125 0.293917558848775 -1.37895216157926 0.277194651404692 -1.38240603721476 0.2604210630836 -1.38566029997106 0.24360627326523 -1.388712968029 0.228439538637434 -1.39128762795575 0.213243686029647 -1.39369813455493 0.198025116688117 -1.39594346197166 0.182781476573444 -1.39802392465802 0.167523734690334 -1.39993804573542 0.152244975381245 -1.40168669070478 0.136960707426694 -1.40326813489957 0.121659473022832 -1.4046835921265 0.106361263437953 -1.40593129288956 0.0910501276027858 -1.4070125962468 0.0757504534425998 -1.40792588846793 0.0604418742304566 -1.40867247258834 0.0451530612723806 -1.40925108684821 0.0298593374975852 -1.40966278080699 0.01459351827834 -1.40990683455289 -0.00067325347034004 -1.40998386126295 -0.0176123472289048 -1.40987377983151 -0.0345477225916227 -1.40955845107748 -0.0515154639057529 -1.40903696833155 -0.0684743883260566 -1.408310333407 -0.0854556189099476 -1.407377009122 -0.1024228849038 -1.40623875543262 -0.119402152604305 -1.40489365957537 -0.136362269385778 -1.40334398803297 -0.153323885364208 -1.4015877175588 -0.170261136592932 -1.39962735855454 -0.187189236019428 -1.39746104957144 -0.204087740949246 -1.39509127427243 -0.220966346503433 -1.39251660930271 -0.23781012381548 -1.38973923601408 -0.254623211214898 -1.38675844616148 -0.271396244748289 -1.38357584157383 -0.286456646762537 -1.38053916141544 -0.301480599432141 -1.37733980124435 -0.316462926117623 -1.37397890104158 -0.331405030847653 -1.37045616206613 -0.346297775881673 -1.36677380213833 -0.361146554547636 -1.36293052987557 -0.375938348664108 -1.35892980423126 -0.390682467057496 -1.35476917570821 -0.40536211538801 -1.35045349890653 -0.419990420316351 -1.34597900907932 -0.436160977550178 -1.34082826912926 -0.452263680965564 -1.33548323542868 -0.468311390038892 -1.32993978765803 -0.484287096475097 -1.32420394828373 -0.500216930075496 -1.31826617968415 -0.516070482039582 -1.31213763160888 -0.531869931413314 -1.30580959325872 -0.547588821949992 -1.29929249431771 -0.563245319074567 -1.29257868713377 -0.578816989973319 -1.28567764474608 -0.594317951419053 -1.27858301700174 -0.60972983720352 -1.27130308501338 -0.625062708926995 -1.2638330259534 -0.640302281697838 -1.25617969757575 -0.655454584260303 -1.24834002712641 -0.670509398881716 -1.24031922397737 -0.68546877256568 -1.23211617861153 -0.700326511667338 -1.22373423592772 -0.713610060148702 -1.21603839408638 -0.726808132296065 -1.20819943861676 -0.739916464223944 -1.20021992865497 -0.75293637325905 -1.1920990672782 -0.76586091106089 -1.18384123376543 -0.778694121512251 -1.17544386807392 -0.79142647324333 -1.16691327154822 -0.804064639312652 -1.15824501606627 -0.816596620696746 -1.14944741536153 -0.829031634294539 -1.1405140708682 -0.841359935603656 -1.13145210916583 -0.853589321341163 -1.1222559897433 -0.865717525857332 -1.11292740948115 -0.877744964692193 -1.10346602614236 -0.88966861955603 -1.09387419617297 -0.901489673118913 -1.08415093416172 -0.913204388363717 -1.07429928451005 -0.924814681912671 -1.06431758948878 -0.936316134766415 -1.05420960671258 -0.94771136143045 -1.04397298007178 -0.958995300249692 -1.03361220235308 -0.970171224900627 -1.02312419625644 -0.981233472711718 -1.01251420825925 -0.992185935440165 -1.00177842046005 -1.00302239306684 -0.990922847991297 -1.01374731224186 -0.979942916457236 -1.02435396100208 -0.968845420969031 -1.03484733589796 -0.957625018353768 -1.045220239857 -0.946289291326086 -1.05547815283454 -0.934832119326714 -1.06561346060517 -0.923261876569865 -1.07563207883903 -0.911571660209731 -1.08552602492392 -0.899770636125967 -1.09530160167156 -0.88785111800221 -1.10495050734695 -0.875823059845296 -1.11447938275882 -0.863677994379902 -1.12387965650258 -0.851426656550614 -1.13315825797702 -0.839059804282848 -1.14230621897093 -0.826589183631893 -1.15132955015379 -0.814006368353907 -1.1602169920794 -0.801326817256355 -1.1689752382398 -0.788540668665258 -1.17758718547624 -0.775672825466788 -1.18606558742722 -0.762704097721097 -1.19438795076855 -0.749669016025728 -1.20257265724233 -0.7365388495891 -1.21059244268053 -0.723357659311622 -1.21847071234165 -0.710087239411646 -1.22617608350898 -0.696780981413407 -1.23373634417289 -0.683391373302909 -1.24111666592605 -0.669980842193406 -1.24834855485394 -0.656492835086953 -1.2553944181165 -0.642998432959094 -1.26228880358766 -0.629432395351035 -1.26899203210121 -0.61587399868207 -1.2755410169903 -0.602249747206186 -1.28189465708222 -0.588646588582196 -1.28809156561641 -0.574983271992857 -1.29408986045869 -0.561353837737038 -1.29992920968382 -0.547669837012186 -1.30556755978485 -0.534031781246166 -1.3110450175244 -0.520344626263244 -1.3163199293648 -0.506714701430486 -1.32143226061127 -0.493041004171156 -1.32634128541142 -0.479435007619189 -1.33108628915427 -0.465790411433665 -1.3356279537569 -0.452223147297497 -1.34000439805988 -0.438622287157753 -1.34464161882219 -0.423574813786296 -1.34907894076651 -0.408487372935834 -1.35336405191224 -0.393194477084655 -1.35745047816396 -0.37785873791065 -1.36138621332118 -0.362295620516096 -1.36512427826945 -0.346686558220837 -1.36871240980403 -0.330826494579363 -1.37210369704901 -0.314917127348856 -1.37534501951168 -0.298731223115817 -1.37839014680779 -0.282492363565571 -1.38128445710478 -0.265949275135996 -1.38398305855156 -0.249349245285724 -1.38652913269576 -0.232414860910022 -1.38887983823472 -0.215419166878385 -1.39107540492447 -0.198056246044202 -1.39307581767343 -0.180627209814833 -1.39491752968272 -0.162794981061096 -1.39656420249584 -0.144891329299138 -1.39804760818463 -0.126545051835548 -1.39933602232284 -0.108121466961541 -1.4004555418905 -0.0892119711412198 -1.40138009324814 -0.0702186196204402 -1.40205866059632 -0.0527741501523617 -1.40258119274671 -0.0352570268646028 -1.40295104505535 -0.017666045055454 -2.02636431540969 1.02947016325456 -1.94920819521523 1.17420467852747 -1.86643928095517 1.30619220859436 -1.80551348035788 1.39213678892813 -1.73912585214131 1.47717265774176 -1.67144587258926 1.55607869842811 -1.57996521900116 1.65223983914892 -1.47656319744091 1.74859431005815 -1.37398452524868 1.83307360730644 -1.27316125798508 1.90662063314714 -1.1748074559225 1.97024542008553 -1.07935102370623 2.02494063481796 -0.987080907228668 2.07166299987906 -0.898099811496339 2.11129879777188 -0.812352276924113 2.14473083387509 -0.702576477331927 2.18117537677646 -0.584252808746696 2.21300105107973 -0.4707525734434 2.2367374203091 -0.362726931632489 2.25343340281742 -0.260507555959874 2.26411439514539 -0.16425043571636 2.2697201363993 -0.0452232834683317 2.27073552384376 0.0762801990831622 2.2650052720138 0.185377410264322 2.25392726890226 0.283087042431272 2.23908070578959 0.370590826250707 2.22165338329274 0.473577901255068 2.19582540875674 0.574255412175337 2.16456131756716 0.662981727216594 2.1315413348128 0.743613861946746 2.09648540804924 0.816667776983325 2.05987470172404 0.881653572464346 2.02259587340624 0.938381674914248 1.98538150824801 0.98676438628586 1.94878946777426 1.01972267773956 1.91983267358878 1.04067781298671 1.89841899452191 1.05275380583279 1.88411920826772 1.06068608103882 1.87319932417849 1.06589569169983 1.86476735839604 1.06874005638687 1.85934342831102 1.07100729717693 1.85424783931187 1.07380076364544 1.84513809891115 1.07433612508153 1.83835819224383 1.07332513404947 1.83302842096017 1.0710281322393 1.82830974418295 1.0674457855941 1.82403008290738 1.06271361212868 1.82049650557521 1.05706665026128 1.81793968155721 1.04981412217143 1.81606562182593 1.04011784066404 1.81479334044111 1.02988974519193 1.81425770264775 1.01316909495389 1.81463316301124 0.976325267803721 1.81850995284724 0.884653495867265 1.8347827321243 0.660927386208884 1.87652135048968 0.477920920696644 1.9003682829113 0.295157618003596 1.91170184786133 0.123347624521639 1.91002340688958 -0.0411636513405094 1.89655932449783 -0.197442001754021 1.87233321233543 -0.354918586288186 1.8357288529641 -0.494454350729754 1.79200804602571 -0.632416638116181 1.73704586588131 -0.749788880109037 1.67971790413647 -0.862838437654766 1.61402068029891 -0.979651719247665 1.53404174475179 -1.08700169456166 1.44826441437413 -1.18432853267374 1.35862656919416 -1.28082536221846 1.25653471125295 -1.37457737181815 1.14172473347853 -1.46432268910769 1.01271483606335 -1.52453325707387 0.912039071943843 -1.58097550475513 0.803035329152872 -1.64032737142613 0.665364023022482 -1.6703754040934 0.581392834459246 -1.69522599502906 0.500080586930288 -1.7186259663537 0.406846358368908 -1.73367112219702 0.330964122797063 -1.74797012474496 0.232620674145124 -1.75702478554409 0.1260128672785 -1.75964062699774 0.0235441431576529 -1.75671962373753 -0.0746636670235363 -1.74908002678183 -0.168367666301081 -1.73746368958539 -0.257423303494529 -1.71697301998138 -0.368809772130138 -1.6886792786048 -0.484205110597625 -1.65633409044894 -0.589756485386107 -1.62104990785055 -0.686513168507469 -1.58374228030614 -0.775183450229092 -1.53222896824042 -0.881712614497252 -1.47351920109046 -0.987044573860681 -1.41535469728721 -1.07893093288796 -1.35845956944438 -1.15948131556781 -1.28537346584831 -1.25213915774076 -1.20830806489197 -1.33917421745833 -1.13768828315642 -1.41123807529333 -0.824297426404613 -1.68632046419552 -0.800801907256854 -1.70999305736246 -0.792149430676021 -1.7200512376547 -0.784435545624248 -1.73031440582473 -0.779470089157402 -1.73814448745531 -0.775219108597468 -1.74728267847873 -0.773453473062319 -1.75462629082015 -0.773357672661676 -1.76115271700742 -0.774687679035408 -1.76685143131088 -0.777260494145543 -1.77158595883456 -0.780942682340442 -1.77546573539605 -0.786256466947272 -1.77912151929695 -0.793420301422484 -1.7824538400655 -0.802496706919452 -1.78525313362769 -0.812315698110971 -1.78712342066859 -0.825550225571033 -1.78846780195655 -0.84400930490177 -1.78892154918678 -0.868734505376258 -1.78768345168705 -0.908826437573994 -1.78261565854082 -0.962828542794648 -1.77154105587983 -1.0172299760259 -1.75657968506747 -1.07479717677498 -1.73721959320878 -1.13771514153939 -1.71226944174971 -1.20753806209421 -1.68013195416723 -1.28535082018989 -1.63880686005054 -1.37170505983064 -1.58587410974363 -1.4663789502806 -1.51856605839933 -1.56858355047544 -1.43370276236415 -1.66502398219174 -1.34042965429035 -1.7537939522171 -1.24127681425756 -1.84373596370478 -1.12495628404276 -1.93335018662393 -0.988633981423368 -2.01162189272548 -0.846578820693794 -2.07771814487966 -0.701912107165341 -2.13761590026068 -0.538678297671225 -2.1839283569403 -0.37276872073372 -2.21651174899685 -0.20640722705522 -2.23550132863433 -0.0422028418472668 -2.2415514504278 0.117295880710336 -2.23580460729429 0.269779469381581 -2.21950934783575 0.414446571758714 -2.20329227360953 0.50749764169445 -2.17660350376639 0.624100696361794 -2.14850151612933 0.722527790058896 -2.11775612535766 0.813835532937208 -2.08177743143832 0.90653527683135 -2.05530642901727 0.967743795435875 532 9 10 531 10 11 531 532 10 533 9 532 530 11 12 530 531 11 534 8 9 534 9 533 529 12 13 529 530 12 528 529 13 535 7 8 535 8 534 527 13 14 527 528 13 536 6 7 536 7 535 526 527 14 525 14 15 525 526 14 537 5 6 537 6 536 524 525 15 523 15 16 523 524 15 522 523 16 538 4 5 538 5 537 521 522 16 520 16 17 520 521 16 519 520 17 518 519 17 517 518 17 517 17 18 516 517 18 515 18 19 515 516 18 539 3 4 539 4 538 514 515 19 514 19 20 513 20 21 513 514 20 540 2 3 540 3 539 541 1 2 541 2 540 542 80 1 542 1 541 339 501 338 337 338 501 340 501 339 336 337 501 336 501 502 341 501 340 335 336 502 342 501 341 342 500 501 334 335 502 343 500 342 333 334 502 344 500 343 332 333 502 345 500 344 331 332 502 346 500 345 330 331 502 330 502 503 347 500 346 329 330 503 348 500 347 348 499 500 328 329 503 349 499 348 327 328 503 350 499 349 326 327 503 351 499 350 325 326 503 352 499 351 324 325 503 353 499 352 353 498 499 323 324 503 543 79 80 543 80 542 354 498 353 322 323 503 355 498 354 321 322 503 356 498 355 320 321 503 357 498 356 319 320 503 358 498 357 318 319 503 359 498 358 359 497 498 317 318 503 317 503 504 360 497 359 316 317 504 361 497 360 315 316 504 362 497 361 314 315 504 363 497 362 313 314 504 364 497 363 365 497 364 365 496 497 312 313 504 366 496 365 311 312 504 367 496 366 310 311 504 368 496 367 309 310 504 369 496 368 308 309 504 370 496 369 307 308 504 371 496 370 371 495 496 306 307 504 372 495 371 305 306 504 373 495 372 374 495 373 304 305 504 304 504 505 375 495 374 303 304 505 376 495 375 376 494 495 302 505 506 302 303 505 377 494 376 301 302 506 378 494 377 300 506 507 300 301 506 379 494 378 544 78 79 544 79 543 299 507 508 299 300 507 380 494 379 381 494 380 298 299 508 382 494 381 382 493 494 297 298 508 383 493 382 296 508 509 296 297 508 384 493 383 295 296 509 385 493 384 294 295 509 386 493 385 293 294 509 293 509 510 292 293 510 387 493 386 291 292 510 388 492 493 388 493 387 290 291 510 389 492 388 545 78 544 289 290 510 390 492 389 288 510 511 288 289 510 391 492 390 287 288 511 392 492 391 286 287 511 393 492 392 285 286 511 394 492 393 394 491 492 284 285 511 395 491 394 283 511 512 283 284 511 396 491 395 282 283 512 397 491 396 281 282 512 398 491 397 398 490 491 280 281 512 399 490 398 279 280 512 546 78 545 546 77 78 400 490 399 278 279 512 401 490 400 277 278 512 276 512 513 276 277 512 402 490 401 275 276 513 403 490 402 403 489 490 274 275 513 404 489 403 273 513 21 273 274 513 405 489 404 272 273 21 406 489 405 271 272 21 547 77 546 407 489 406 407 488 489 270 271 21 81 488 407 81 487 488 269 270 21 268 269 21 267 268 21 266 21 22 266 267 21 265 266 22 264 265 22 548 77 547 548 76 77 263 264 22 262 263 22 261 262 22 82 487 81 82 486 487 260 261 22 259 22 23 259 260 22 258 259 23 257 258 23 256 257 23 549 76 548 255 256 23 254 255 23 83 486 82 83 484 485 83 485 486 253 254 23 252 23 24 252 253 23 550 76 549 550 75 76 251 252 24 250 251 24 249 250 24 248 249 24 84 484 83 84 483 484 247 248 24 408 75 550 246 24 25 246 247 24 245 246 25 244 245 25 243 244 25 242 243 25 85 482 483 85 483 84 241 242 25 240 241 25 239 25 26 239 240 25 238 239 26 237 238 26 86 481 482 86 482 85 236 237 26 409 75 408 409 74 75 235 236 26 234 235 26 233 234 26 232 233 26 232 26 27 231 232 27 87 480 481 87 481 86 230 231 27 229 230 27 228 229 27 227 228 27 226 227 27 410 74 409 410 73 74 88 479 480 88 480 87 225 226 27 224 27 28 224 225 27 223 224 28 222 223 28 221 222 28 220 221 28 89 479 88 89 478 479 219 220 28 411 73 410 218 219 28 217 28 29 217 218 28 216 217 29 72 73 411 215 216 29 90 478 89 214 215 29 213 214 29 212 213 29 412 72 411 211 29 30 211 212 29 477 478 90 210 211 30 91 477 90 209 210 30 208 209 30 207 208 30 206 207 30 413 72 412 205 206 30 204 205 30 92 477 91 203 204 30 476 477 92 71 72 413 31 202 203 31 203 30 31 200 201 31 201 202 199 200 31 198 199 31 93 476 92 197 198 31 414 71 413 196 197 31 475 476 93 475 93 94 95 475 94 70 414 415 70 71 414 32 196 31 32 189 190 32 190 191 32 191 192 32 192 193 32 193 194 32 194 195 32 195 196 474 475 95 96 474 95 416 70 415 473 474 96 473 96 97 69 416 417 69 70 416 33 189 32 33 183 184 33 184 185 33 185 186 33 186 187 33 187 188 33 188 189 472 473 97 472 97 98 471 472 98 471 98 99 471 99 100 68 417 418 68 418 419 68 69 417 34 183 33 34 176 177 34 177 178 34 178 179 34 179 180 34 180 181 34 181 182 34 182 183 470 471 100 470 100 101 469 101 102 469 470 101 67 419 420 67 68 419 35 170 171 35 171 172 35 172 173 35 173 174 35 174 175 35 175 176 35 176 34 468 102 103 468 103 104 468 469 102 467 104 105 467 468 104 66 67 420 66 420 421 66 421 422 36 163 164 36 164 165 36 165 166 36 166 167 36 167 168 36 168 169 36 169 170 36 170 35 466 105 106 466 106 107 466 467 105 65 422 423 65 423 424 65 66 422 37 163 36 37 156 157 37 157 158 37 158 159 37 159 160 37 160 161 37 161 162 37 162 163 465 107 108 465 466 107 464 108 109 464 109 110 464 465 108 64 424 425 64 65 424 38 156 37 38 149 150 38 150 151 38 151 152 38 152 153 38 153 154 38 154 155 38 155 156 463 110 111 463 464 110 462 111 112 462 112 113 462 463 111 63 64 425 63 425 426 63 426 427 39 149 38 39 142 143 39 143 144 39 144 145 39 145 146 39 146 147 39 147 148 39 148 149 461 113 114 461 114 115 461 462 113 460 115 116 460 461 115 459 460 116 458 116 117 458 459 116 62 63 427 62 427 428 62 428 429 40 142 39 40 135 136 40 136 137 40 137 138 40 138 139 40 139 140 40 140 141 40 141 142 457 458 117 456 457 117 455 117 118 455 456 117 454 118 119 454 455 118 453 119 120 453 454 119 452 453 120 452 120 121 61 429 430 61 62 429 41 131 132 41 132 133 41 135 40 41 133 134 41 134 135 42 130 131 42 131 41 60 430 431 60 431 432 60 61 430 43 129 130 43 130 42 59 432 433 59 60 432 44 127 128 44 128 129 44 129 43 58 59 433 58 433 434 58 434 435 45 127 44 45 126 127 57 58 435 57 435 436 57 436 437 46 125 126 46 126 45 56 437 438 56 438 439 56 57 437 47 124 125 47 125 46 55 56 439 55 439 440 55 440 441 48 124 47 48 122 123 48 123 124 54 441 442 54 442 443 54 443 444 54 55 441 49 121 122 49 122 48 49 452 121 53 54 444 53 444 445 53 445 446 53 446 447 53 447 448 50 452 49 50 451 452 52 53 448 52 448 449 52 449 450 51 52 450 51 451 50 51 450 451 

TShapes 10
Ve
0.0261644292589452
49.4912379849 101.0626747372 6.207328427125
0 0

0101101
*
Ve
0.0261644292589452
46.70676202673 101.4123252628 6.207328427125
0 0

0101101
*
Ed
 0.0212898253885091 1 1 0
1  1 0 0 3.14159265354051
2  1 2 0 0 3.14159265354051
2  2 1 0 0 3.14159265354051
4 G1 1 0 2 0
6  1 1 0
0

0101000
+10 0 -9 0 *
Ed
 0.0261644292589452 1 1 0
1  2 0 0 1
2  3 1 0 0 1
4 C0 3 0 1 0
6  2 2 0
0

0101000
-9 0 +10 0 *
Wi

0101100
+8 0 -7 0 *
Ve
1e-05
48.2759219717415 102.646435278135 6.2025
0 0

0101101
*
Ed
 1e-05 1 1 0
1  3 0 0 6.28318530717959
3  4 5CN 1 0 0 6.28318530717959
0

0101000
+5 0 -5 0 *
Ed
 1e-05 1 1 0
1  4 0 0 6.28318530717959
3  6 7CN 1 0 0 6.28318530717959
0

0101000
+5 0 -5 0 *
Wi

0101100
-4 0 +3 0 +4 0 -3 0 *
Fa
0  1e-07 1 0

0111000
+6 0 +2 0 *

-1 0 