DBRep_DrawableShape

CASCADE Topology V3, (c) Open Cascade
Locations 0
Curve2ds 3
7 0 0  1 2 2  6.3151499829428408 0.0043251650335847103  6.326746986514487 0.074325165029321738 
 0 2 0.070003533093327408 2
7 0 0  1 2 2  0.31889538372582138 0.0043251650335847103  0.33195879703086928 0.074325165029321738 
 0 2 0.070003533093327408 2
7 0 0  1 2 2  0.31889538372582138 0.0043251650335847103  0.3319587970921149 0.074325165029264895 
 0 2 1 2
Curves 2
1 33.114985626230002 27.984944291630001 -1.2894951585979999 0.7117396000271069 0.70240258659800692 0.0075728524139270737 
7 0 0  3 4 2  33.114985626230002 27.984944291630001 -1.2894951585979999  33.13148478446 28.001443449859998 -1.2894951585979999  33.148310754649998 28.017615796120001 -1.288965032174  33.164809912880003 28.034114954340001 -1.288965032173 
 0 4 1 4
Polygon3D 0
PolygonOnTriangulations 2
3 3 8 9 
p 0.0166666666666667 1 0 0.0233345110311091 0.0700035330933274 
3 3 4 5 
p 0.0166666666666667 1 0 0.5 1 
Surfaces 3
2 33.145430969289997 27.948382241520001 -1.3051387818860001 0.70710678118654757 0.70710678118654757 0 -0.70710678118654757 0.70710678118654757 0 0 -0 1 0.049999999997419997
2 33.145430969289997 27.948382241520001 -1.291010205144 0.70710678118654757 0.70710678118654757 0 -0.70710678118654757 0.70710678118654757 0 0 -0 1 0.049999999997419997
1 33.152024856719997 27.997402535820001 -1.26 0.58834840544078626 -0.58834840538788624 -0.55470019622568711 0.39223227032609187 -0.3922322702272919 0.83205029433753841 -0.70710678113713765 -0.70710678123595749 3.7379696278267594e-11 
Triangulations 2
13 11 1 0 0.00613058867736661
33.12475387122 27.97517604664 -1.327916992568 33.17677359406 28.02215127316 -1.331010205143 33.11498562623 27.98494429163 -1.289495158598 33.1153030651396 27.9846268527204 -1.29524109106679 33.1153447680352 27.9845851498248 -1.30829125811558 33.1164836173166 27.9834463005434 -1.31384120369356 33.1212168443697 27.9787130734903 -1.32225815062391 33.1315937217781 28.0013345125353 -1.28931844978981 33.16480991288 28.03411495434 -1.288965032173 33.1683285585385 28.0305963086907 -1.31918361534236 33.1661812566296 28.0327436105992 -1.31422507611891 33.1651679849688 28.0337568822551 -1.30294073285202 33.1651233239975 28.0338015432233 -1.29438189615516 5.45043204573876 0.00432516503359182 5.40310822341476 0.0743251650292649 6.31514998294284 0.00432516503358471 6.2354702692456 0.00432516503358537 6.03022644114012 0.00432516503358705 5.8827910143408 0.00432516503358826 5.61893797035773 0.00432516503359043 6.31901565080006 0.0276584983654971 6.32674698653114 0.0743251650292649 5.81361434035537 0.0743251650292649 5.95044971266891 0.0743251650292649 6.13859834960002 0.0743251650292649 6.25311197204291 0.0743251650292649 7 2 1 10 7 6 10 2 7 11 6 5 11 10 6 12 5 4 12 11 5 8 4 3 13 12 4 13 4 8 9 13 8 
6 4 1 0 0.00164265338720581
33.13548033621 27.96444958165 -1.242596227925 33.18497781089 28.01394705633 -1.242596227924 33.11498562623 27.98494429163 -1.289495158598 33.139897769555 28.0095296229888 -1.28923009538588 33.16480991288 28.03411495434 -1.288965032173 33.174893861885 28.024031005335 -1.26578063004887 0.0209167308612909 0.034999999999293 0.0209167308670117 -0.0349999999963754 -0.0341829114575302 0.034999999995519 -0.033834179331944 -4.94370516745967e-12 -0.0334854472027888 -0.0350000000001083 -0.00628435816820038 -0.0349999999982418 4 5 6 1 3 4 1 6 2 1 4 6 

TShapes 6
Ve
0.00724753242880267
33.16480991288 28.03411495434 -1.288965032173
0 0

0101101
*
Ve
0.00501962046094975
33.11498562623 27.98494429163 -1.289495158598
0 0

0101101
*
Ed
 0.00303627754188161 1 1 0
1  1 0 0 0.0700035330933274
2  1 2 0 0 0.0700035330933274
2  2 1 0 0 0.0700035330933274
4 C0 2 0 1 0
6  1 1 0
0

0101000
-6 0 +5 0 *
Ed
 0.00198930343391618 1 1 0
1  2 0 0 1
2  3 1 0 0 1
4 C0 1 0 3 0
6  2 2 0
0

0101000
+5 0 -6 0 *
Wi

0101100
-4 0 +3 0 *
Fa
0  1e-07 1 0

0111000
+2 0 *

-1 0 