DBRep_DrawableShape

CASCADE Topology V3, (c) Open Cascade
Locations 0
Curve2ds 3
7 0 0  1 2 2  6.3151499829480819 0.0043251650357077898  6.3267469865138715 0.074325165035634189 
 0 2 0.070003533097522122 2
7 0 0  1 2 2  0.31889538377466486 0.0043251650357077898  0.33195879707837683 0.074325165035634189 
 0 2 0.070003533097522122 2
7 0 0  1 2 2  0.31889538377466486 0.0043251650357077898  0.33195879709674742 0.074325165035625307 
 0 2 1 2
Curves 2
1 2.135014373767 -1.7349442916290001 -1.2894951586059999 -0.71173960003290127 -0.70240258659220123 0.0075728524078430134 
7 0 0  3 4 2  2.135014373767 -1.7349442916290001 -1.2894951586059999  2.11851521554 -1.7514434498560001 -1.2894951586050001  2.101689245347 -1.7676157961200001 -1.288965032181  2.0851900871189999 -1.7841149543470001 -1.288965032181 
 0 4 1 4
Polygon3D 0
PolygonOnTriangulations 2
3 3 8 9 
p 0.0166666666666667 1 0 0.0233345110325074 0.0700035330975221 
3 4 5 1 
p 0.0166666666666667 1 0 0.5 1 
Surfaces 3
2 2.1045690307139999 -1.6983822415230001 -1.3051387818939999 -0.70710678118654757 -0.70710678118654757 0 0.70710678118654757 -0.70710678118654757 0 0 0 1 0.04999999999989
2 2.1045690307139999 -1.6983822415230001 -1.291010205152 -0.70710678118654757 -0.70710678118654757 0 0.70710678118654757 -0.70710678118654757 0 0 0 1 0.04999999999989
1 2.0979751432809999 -1.7474025358259999 -1.2600000000080001 0.58834840541432087 -0.58834840541432087 0.55470019622571975 -0.39223227027671498 0.39223227027671498 0.83205029433751665 -0.70710678118654757 -0.70710678118654757 -8.1524687095804742e-18 
Triangulations 2
13 11 1 0 0.00613058867735617
2.125246128776 -1.725176046637 -1.327916992577 2.07322640594 -1.772151273167 -1.331010205152 2.135014373767 -1.734944291629 -1.289495158606 2.13469693485733 -1.7346268527188 -1.29524109107695 2.13465523196168 -1.73458514982342 -1.3082912581254 2.13351638268044 -1.73344630054238 -1.31384120370203 2.12878315557562 -1.72871307343699 -1.32225815072042 2.11840627821776 -1.7513345125351 -1.28931844979794 2.085190087119 -1.784114954347 -1.288965032181 2.08167144145974 -1.78059630868821 -1.31918361534833 2.08381874336834 -1.78274361059663 -1.31422507612532 2.0848320150276 -1.78375688225564 -1.302940732859 2.08487667599944 -1.78380154322744 -1.29438189616586 5.45043204557847 0.00432516503500069 5.4031082233364 0.074325165034918 6.31514998294808 0.00432516503570779 6.23547026919961 0.00432516503564263 6.03022644106049 0.0043251650354748 5.88279101426328 0.00432516503535424 5.61893796785728 0.00432516503513848 6.31901565080334 0.0276584983690166 6.32674698653179 0.0743251650356253 5.81361434031213 0.0743251650352323 5.95044971263737 0.0743251650353371 6.13859834958459 0.0743251650354812 6.25311197199386 0.0743251650355689 7 2 1 10 7 6 10 2 7 11 6 5 11 10 6 12 5 4 12 11 5 8 4 3 13 12 4 13 4 8 9 13 8 
6 4 1 0 0.001642653389208
2.085190087119 -1.784114954347 -1.288965032181 2.075106138112 -1.77403100534 -1.26578063005688 2.065022189105 -1.763947056333 -1.242596227932 2.135014373767 -1.734944291629 -1.289495158606 2.11010223044337 -1.759529622988 -1.28923009539313 2.114519663788 -1.714449581649 -1.242596227932 -0.0334854472048446 0.0349999999999589 -0.00628435816868654 0.0349999999999588 0.0209167308680957 0.0349999999999587 -0.0341829114507955 -0.0350000000003135 -0.0338341793276438 -2.64995525522949e-13 0.0209167308680955 -0.035000000000666 6 5 4 2 1 5 2 5 6 3 2 6 

TShapes 6
Ve
0.00724753242825657
2.085190087119 -1.784114954347 -1.288965032181
0 0

0101101
*
Ve
0.00501962046163803
2.135014373767 -1.734944291629 -1.289495158606
0 0

0101101
*
Ed
 0.00303627755273657 1 1 0
1  1 0 0 0.0700035330975221
2  1 2 0 0 0.0700035330975221
2  2 1 0 0 0.0700035330975221
4 C0 1 0 2 0
6  1 1 0
0

0101000
-6 0 +5 0 *
Ed
 0.00198930343319444 1 1 0
1  2 0 0 1
2  3 1 0 0 1
4 C0 3 0 1 0
6  2 2 0
0

0101000
+5 0 -6 0 *
Wi

0101100
-4 0 +3 0 *
Fa
0  1e-07 1 0

0111000
+2 0 *

-1 0 