DBRep_DrawableShape

CASCADE Topology V3, (c) Open Cascade
Locations 0
Curve2ds 2
7 0 0  3 4 2  6.088017171475923 0.15408534670648782  6.088017171475923 0.15408534317711919  6.0880171714759195 0.14838264101752649  6.0880171714759213 0.13280257731999967 
 0.78867520000000002 4 1.0000000000000018 4
7 0 0  3 25 23  6.0880171714759213 0.13280257731999967  6.0880171714759221 0.13015959495079621  6.0880171714759221 0.1254421178438079  6.0880171714759195 0.11994908723311028  6.0880171714759221 0.11591696382770821  6.0880171714759213 0.11322346978317684  6.0880171714759213 0.11174632725497854  6.0880171714759221 0.11136325839870738  6.0880171714759204 0.11195198536984161  6.0880171714759221 0.11339023032393529  6.0880171714759204 0.11555571541652546  6.0880171714759221 0.11832616280309903  6.0880171714759204 0.12157929463923248  6.088017171475923 0.12519283308040707  6.0880171714759204 0.12904450028218251  6.0880171714759195 0.13301201840011284  6.0880171714759213 0.13697310958965389  6.0880171714759213 0.14080549600640432  6.0880171714759213 0.14438689980583036  6.0880171714759213 0.14759504314352961  6.0880171714759213 0.15030764817496239  6.0880171714759221 0.15240243705570822  6.0880171714759204 0.15375713194126286  6.0880171714759221 0.15408534730519938  6.0880171714759213 0.15408534670648066 
 1.7763568394002505e-15 4 0.035848872727274432 1 0.071697745454547088 1 0.10754661818181974 1 0.1433954909090924 1 0.17924436363636506 1 0.2150932363636377 1 0.25094210909091036 1 0.28679098181818302 1 0.32263985454545568 1 0.35848872727272835 1 0.39433760000000101 1 0.43018647272727362 1 0.46603534545454628 1 0.50188421818181894 1 0.5377330909090916 1 0.57358196363636427 1 0.60943083636363693 1 0.64527970909090959 1 0.68112858181818225 1 0.71697745454545492 1 0.75282632727272758 1 0.78867520000000013 4
Curves 1
7 0 1  3 3 2  -18.55831256818 43.323534010129997 -0.78346934679470004  -18.55831256818 43.397259685949997 -0.78346934679470004  -18.55831256818 43.249808334320001 -0.78346934679470004 
 0 3 1 3
Polygon3D 0
PolygonOnTriangulations 2
3 1 9 8 
p 0.0248541481785597 1 0.7886752 0.859116800000001 1 
3 8 10 1 
p 0.0248541481785621 1 1.77635683940025e-15 0.262891733333335 0.7886752 
Surfaces 2
1 -17.015000000000001 42.990648773079997 -0.78000000000000003 0 0 1 1 0 -0 -0 1 0 
2 -18.553039291360001 43.456336587449997 -0.79000000000000004 0 -1 0 -0.76718739504002875 0 0.64142302803352402 -0.64142302803352402 -0 -0.76718739504002875 0.0099999999994759992
Triangulations 1
10 5 1 0 0.0319416180943537
-18.5566468416253 43.2277594600345 -0.780684010731693 -18.5611113999901 43.2295875364005 -0.783953970535024 -18.5625143374568 43.22393839702 -0.786816982807103 -18.5632420938969 43.2121130036855 -0.789563377438169 -18.5631552658596 43.2176090800327 -0.789459117819503 -18.5628680262965 43.2321583585795 -0.788480764229482 -18.5593010827846 43.3404452832367 -0.782131329891977 -18.5566468416253 43.2277594600345 -0.780684010731693 -18.55831256818 43.3043067609615 -0.7834693467947 -18.55831256818 43.3438587464535 -0.7834693467947 6.08801717147592 0.154085346706488 6.33667352752227 0.226748835979513 6.65542950178111 0.232395673483188 6.93676308459624 0.244223111753946 6.92619461727804 0.238731205503874 6.82621822581849 0.224180370506544 6.08092036472985 0.115891332874022 6.08801717147592 0.13280257732 6.08801717147592 0.152029826488981 6.08801717147592 0.112477840996528 4 6 5 4 3 6 7 6 3 8 7 2 2 7 3 

TShapes 6
Ve
0.220533888006559
-18.5566468416253 43.2277594600345 -0.780684010731693
0 0

0101101
*
Ve
0.132311622302895
-18.55831256818 43.32353401013 -0.7834693467947
0 0

0101101
*
Ed
 0.00346938148816796 1 1 0
1  1 0 0.7886752 1
2  1 2 0 0.7886752 1
4 C0 1 0 2 0
6  1 1 0
0

0101000
+6 0 -5 0 *
Ed
 0.00346938148816796 1 1 0
1  1 0 1.77635683940025e-15 0.7886752
2  2 2 0 1.77635683940025e-15 0.7886752
4 C0 1 0 2 0
6  2 1 0
0

0101000
+5 0 -6 0 *
Wi

0101100
+4 0 +3 0 *
Fa
0  1e-07 1 0

0111000
+2 0 *

+1 0 