DBRep_DrawableShape

CASCADE Topology V3, (c) Open Cascade
Locations 0
Curve2ds 3
7 0 0  1 2 2  6.3267469865314423 0.074325165035255214  6.3318127351734681 0.0043251650352704729 
 0 2 0.070000413603697922 2
7 0 0  1 2 2  2.8096338564981607 0.004325165035061751  2.8052437886755253 0.074325165035046936 
 0 2 0.070000413603697922 2
7 0 0  1 2 2  2.8096338564981607 0.004325165035061751  2.8052437886755297 0.074325165035046936 
 0 2 0.070000413603697936 2
Curves 2
1 0.5215442743391 3.5783856435220001 -1.288965032181 0.70735035937800461 0.7068548469876047 0.0034197043640550226 
1 0.5215442743391 3.5783856435220001 -1.288965032181 0.70735035937800472 0.70685484698760481 0.0034197043640520233 
Polygon3D 0
PolygonOnTriangulations 2
3 7 8 3 
p 0.0166666666666667 1 0 0.0233334712012326 0.0700004136036979 
3 1 4 5 
p 0.0166666666666667 1 0 0.0233334712012326 0.0700004136036979 
Surfaces 3
2 0.48530903619799998 3.6085041746109998 -1.3051387818939999 0.70710678118639758 0.70710678118669756 0 -0.70710678118669756 0.70710678118639758 0 0 -0 1 0.050000000000179998
2 0.54092321793359999 3.664118356346 -1.291010205152 -0.70710678118679759 -0.70710678118629755 0 0.70710678118629755 -0.70710678118679759 0 0 0 1 0.04999999999976
1 0.53432933050120002 3.6150980620430002 -1.2600000000080001 0.5883484054148862 -0.58834840541378619 0.55470019622568711 0.39223227027669194 -0.39223227027669194 -0.83205029433753841 0.70710678118608994 0.70710678118700521 -4.3147052544327362e-13 
Triangulations 2
12 10 1 0 0.00634153961753657
0.5095805931598 3.590349324702 -1.331010205152 0.5616003159954 3.637324551232 -1.327916992577 0.5710590920582 3.627865775169 -1.288725651462 0.570827929295628 3.62809693793151 -1.29828668899081 0.57089526680516 3.62802960042233 -1.30984925248016 0.568999532691422 3.62992533453605 -1.31575188409014 0.5215442743391 3.578385643522 -1.288965032181 0.538049213578828 3.59487902073764 -1.2888852386077 0.518025628679386 3.58190428918207 -1.31918361534778 0.520172930587824 3.57975698727383 -1.31422507612502 0.521186202247346 3.5787437156141 -1.30294073285896 0.521230863219472 3.5786990546417 -1.29438189616559 5.40310822333134 0.0743251650352605 5.4504320455764 0.00432516503513058 6.33181273517347 0.00432516503527047 6.19960563171801 0.00432516503524647 6.00800512269506 0.00432516503521683 5.82501883864721 0.00432516503518853 6.32674698653144 0.0743251650352552 6.32843556941212 0.050991831701927 5.81361434030917 0.0743251650352582 5.95044971263511 0.0743251650352574 6.13859834958327 0.0743251650352563 6.25311197199674 0.0743251650352556 9 1 2 9 2 6 10 6 5 10 9 6 11 5 4 11 10 5 12 11 4 8 4 3 8 12 4 7 12 8 
6 4 1 0 0.00164071494734018
0.5215442743391 3.578385643522 -1.288965032181 0.51146032533185 3.5884695925295 -1.26578063005688 0.5013763763246 3.598553541537 -1.242596227932 0.538049213578828 3.59487902073764 -1.2888852386077 0.5710590920582 3.627865775169 -1.288725651462 0.5508738510077 3.64805101622 -1.242596227932 0.0334854472048053 -0.0350000000000281 0.00628435816835319 -0.034999999999852 -0.0209167308687231 -0.0349999999996762 0.033423589937617 -0.0116666666666996 0.0332998754039199 0.0350000000001049 -0.0209167308685808 0.0350000000003121 6 3 2 4 2 1 4 6 2 5 6 4 

TShapes 6
Ve
0.00724753242820322
0.5215442743391 3.578385643522 -1.288965032181
0 0

0101101
*
Ve
0.00556240310518925
0.5710590920582 3.627865775169 -1.288725651462
0 0

0101101
*
Ed
 0.0030362775525954 1 1 0
1  1 0 0 0.0700004136036979
2  1 2 0 0 0.0700004136036979
2  2 1 0 0 0.0700004136036979
4 C0 1 0 2 0
6  1 1 0
0

0101000
+6 0 -5 0 *
Ed
 0.00198930343327921 1 1 0
1  2 0 0 0.0700004136036979
2  3 1 0 0 0.0700004136036979
4 C0 3 0 1 0
6  2 2 0
0

0101000
+6 0 -5 0 *
Wi

0101100
-4 0 +3 0 *
Fa
0  1e-07 1 0

0111000
+2 0 *

+1 0 