DBRep_DrawableShape

CASCADE Topology V3, (c) Open Cascade
Locations 0
Curve2ds 3
7 0 0  1 2 2  8.9446614479824511 0.025614847071000924  9.2658313381736441 0.025614847071000924 
 0.50000000039766901 2 1 2
7 0 0  1 2 2  8.7171935240001091 0.025614847071000924  6.1242386845838297 0.025614847071000924 
 5.8282811255556046 2 6.3769189397291202 2
7 0 0  1 2 2  8.944661447982325 0.025614847071000924  8.7171935240001091 0.025614847071000924 
 5.8282811255556046 2 6.0557490495377895 2
Curves 2
7 0 0  3 5 3  71.409006579290008 80.015000000040004 4.9875000000000007  71.404887758710004 80.010184565190002 4.9875000000000007  71.396536768909996 79.998338352419992 4.9875000000000007  71.387262258280003 79.977891737670006 4.9875000000000007  71.384231354139999 79.966153096400006 4.9875000000000007 
 0 4 0.5 1 1 4
2 71.485000000049993 79.950000000039992 4.9875000000000007 0 0 1 -0.96824583655105678 0.25000000000308886 0 -0.25000000000308886 -0.96824583655105678 0 0.10000000000000001
Polygon3D 0
PolygonOnTriangulations 3
5 64 68 69 70 71 
p 0.05 1 0.500000000397669 0.680000000254508 0.825800000138548 0.912900000069274 1 
8 53 72 73 74 75 76 77 71 
p 0.05 1 5.8282811255556 5.90665795615182 5.98503478674804 6.06341161734425 6.14178844794047 6.22016527853669 6.2985421091329 6.37691893972912 
4 53 62 63 64 
p 0.05 1 5.8282811255556 5.904103766883 5.9799264082104 6.05574904953779 
Surfaces 2
2 71.485000000049993 79.950000000039992 4.9618851529289998 0 0 1 1 0 -0 -0 1 0 0.10000000000000001
1 71.275000000049999 79.800000000040001 4.9875000000000007 0 0 1 0 -1 0 1 0 -0 
Triangulations 1
77 74 1 0 0.00102754775744245
71.38423135414 79.9661530964 4.9875 71.3853226803907 79.9580269512387 4.9875 71.3850001558642 79.9501765300004 4.9875 71.3852949617328 79.9423250189872 4.9875 71.3862052780672 79.9345208880387 4.9875 71.3877254851994 79.9268123145024 4.9875 71.3898461984141 79.9192468858199 4.9875 71.3925543258835 79.9118713057546 4.9875 71.3958331494877 79.9047311060752 4.9875 71.3996624280203 79.8978703654731 4.9875 71.4040185221443 79.8913314374514 4.9875 71.4088745403247 79.8851546888632 4.9875 71.4142005048385 79.8793782507144 4.9875 71.4199635368369 79.874037782769 4.9875 71.426128059316 79.8691662534102 4.9875 71.4326560167457 79.8647937361163 4.9875 71.4395071099978 79.8609472238076 4.9875 71.4466390451254 79.8576504622108 4.9875 71.4540077944565 79.8549238032689 4.9875 71.4615678683909 79.8527840795027 4.9875 71.4692725962216 79.8512445000979 4.9875 71.4770744142479 79.8503145693608 4.9875 71.4849251594004 79.8500000280456 4.9875 71.4927763665678 79.8503028179144 4.9875 71.5005795677862 79.8512210697504 4.9875 71.5082865914478 79.8527491148971 4.9875 71.5158498596787 79.8548775202527 4.9875 71.5232226820525 79.8575931465034 4.9875 71.5303595438249 79.8608792292369 4.9875 71.5372163869102 79.8647154824341 4.9875 71.543750881866 79.8690782237011 4.9875 71.5499226892059 79.873940520468 4.9875 71.5556937084279 79.8792723562521 4.9875 71.5610283132207 79.8850408159594 4.9875 71.5658935713962 79.8912102890791 4.9875 71.57025944819 79.8977426895193 4.9875 71.5740989916758 79.9045976907235 4.9875 71.5773884991476 79.91173297462 4.9875 71.5801076634443 79.9191044928637 4.9875 71.582239698312 79.9266667387611 4.9875 71.583771442031 79.9343730281969 4.9875 71.5846934386671 79.9421757878301 4.9875 71.5849999964457 79.9500268487786 4.9875 71.5846892228897 79.9578777439815 4.9875 71.5837630365017 79.9656800074008 4.9875 71.5822271549206 79.973385473218 4.9875 71.5800910596251 79.9809465731762 4.9875 71.5773679374013 79.9883166302346 4.9875 71.5740745989364 79.9954501467198 4.9875 71.5702313750416 80.0023030851979 4.9875 71.5658619911431 80.0088331403307 4.9875 71.5609934208177 80.0150000000401 4.9875 71.40900657929 80.01500000004 4.9875 71.4537750100581 80.04500000004 4.9875 71.4464720544787 80.0422799946762 4.9875 71.4394030852363 80.0389995582382 4.9875 71.4326110333046 80.0351786133378 4.9875 71.4261371478945 80.0308403651809 4.9875 71.420020745941 80.0260111606379 4.9875 71.4142989733254 80.0207203282356 4.9875 71.38000000005 80.04500000004 4.9875 71.404301169821 80.0090567422433 4.9875 71.4000594815929 80.0027741255584 4.9875 71.396305888692 79.9961882519057 4.9875 71.4058198008759 80.0110540815117 4.9875 71.402764066939 80.0068157904864 4.9875 71.3995039103653 80.0017474940866 4.9875 71.3915429552225 79.9866628450781 4.9875 71.3879065082631 79.9778436748454 4.9875 71.3859518299137 79.9721464034826 4.9875 71.38423135414 79.9661530964 4.9875 71.4041505911243 80.0088504297441 4.9875 71.3997910008376 80.0023395305424 4.9875 71.3959545753658 79.9955072779504 4.9875 71.3926648695311 79.9883956205203 4.9875 71.3899420814154 79.9810482222897 4.9875 71.3878029283485 79.9735101946936 4.9875 -0.166153096359804 0.109231354086239 -0.158026951198727 0.11032268034074 -0.150176529960377 0.11000015581425 -0.142325018947227 0.110294961682767 -0.134520887998752 0.111205278017223 -0.12681231446243 0.112725485149438 -0.11924688577987 0.114846198364095 -0.111871305714613 0.11755432583353 -0.104731106035155 0.12083314943769 -0.0978703654330624 0.124662427970328 -0.0913314374113877 0.129018522094321 -0.0851546888232133 0.133874540274704 -0.0793782506744108 0.139200504788554 -0.0740377827289844 0.144963536786868 -0.0691662533701665 0.151128059266015 -0.0647937360762493 0.157656016695726 -0.0609472237675741 0.164507109947823 -0.0576504621707691 0.171639045075372 -0.0549238032289335 0.179007794406475 -0.0527840794627111 0.186567868340901 -0.0512445000578616 0.194272596171648 -0.0503145693208156 0.202074414197853 -0.0500000280056102 0.209925159350433 -0.0503028178744145 0.21777636651781 -0.051221069710423 0.225579567736246 -0.0527491148571168 0.233286591397776 -0.0548775202126576 0.240849859628656 -0.0575931464633839 0.248222682002488 -0.0608792291969138 0.255359543774873 -0.0647154823941196 0.262216386860189 -0.0690782236610851 0.268750881815979 -0.0739405204279489 0.274922689155865 -0.0792723562121038 0.280693708377851 -0.0850408159193559 0.286028313170667 -0.0912102890391224 0.29089357134616 -0.0977426894792796 0.29525944814002 -0.104597690683552 0.299098991625793 -0.111732974579991 0.302388499097581 -0.119104492823699 0.305107663394273 -0.126666738721079 0.30723969826202 -0.13437302815692 0.308771441981043 -0.142175787790082 0.309693438617057 -0.150026848738646 0.309999996395719 -0.157877743941528 0.309689222839734 -0.165680007360842 0.308763036451713 -0.173385473177954 0.307227154870651 -0.180946573136179 0.305091059575153 -0.18831663019455 0.302367937351292 -0.195450146679823 0.299074598886442 -0.202303085157886 0.295231374991636 -0.208833140290645 0.290861991093091 -0.215000000000142 0.285993420767718 -0.215000000000003 0.134006579232151 -0.245000000000017 0.178775010008082 -0.24227999463617 0.171472054428672 -0.238999558198154 0.16440308518625 -0.23517861329784 0.157611033254548 -0.230840365140899 0.151137147844457 -0.226011160597899 0.145020745891017 -0.22072032819557 0.139298973275416 -0.245000000000005 0.105000000000004 -0.209056742203345 0.129301169771009 -0.202774125518413 0.125059481542865 -0.196188251865735 0.121305888641987 -0.211054081471665 0.130819800825882 -0.206815790446372 0.127764066889032 -0.201747494046642 0.124503910315328 -0.186662845038068 0.116542955172488 -0.177843674805435 0.112906508213082 -0.172146403442625 0.110951829863703 -0.165827819550325 0.111260544217202 -0.208850429704113 0.129150591074263 -0.202339530502443 0.12479100078757 -0.195507277910379 0.12095457531581 -0.188395620480257 0.117664869481132 -0.181048222249651 0.114942081365428 -0.173510194653633 0.112802928298487 35 67 34 34 67 33 33 67 32 32 67 31 31 67 30 30 67 29 29 67 28 28 67 27 27 67 26 26 67 25 25 67 24 24 67 23 23 67 22 22 67 21 21 67 20 20 67 19 19 67 18 18 67 17 17 67 16 16 67 15 15 67 14 14 67 13 13 67 12 12 67 11 11 67 10 10 67 9 9 67 8 8 67 7 7 67 6 6 67 5 5 67 4 4 67 3 3 67 2 68 64 61 61 64 63 68 61 69 69 61 70 70 61 71 71 61 2 2 61 1 71 2 67 35 36 67 53 36 37 53 37 38 53 38 39 53 39 40 53 40 41 53 41 42 53 42 43 53 43 44 53 44 45 53 45 46 53 46 47 53 47 48 53 48 49 53 49 50 53 50 51 53 51 52 67 63 64 67 64 71 71 64 68 71 68 69 71 69 70 55 54 61 55 61 56 56 61 57 57 61 58 58 61 59 59 61 60 60 61 53 53 61 65 65 66 53 53 66 67 53 67 36 

TShapes 8
Ve
0.200001999999999
71.396305888692 79.9961882519057 4.9875
0 0

0101101
*
Ve
0.202055115720381
71.38423135414 79.9661530964 4.9875
0 0

0101101
*
Ed
 0.00205511606582826 1 1 0
1  1 0 0.500000000397669 1
2  1 1 0 0.500000000397669 1
4 C0 2 0 1 0
6  1 1 0
0

0101000
+8 0 -7 0 *
Ve
0.200001999999999
71.40900657929 80.01500000004 4.9875
0 0

0101101
*
Ed
 0.200001999999999 1 1 0
1  2 0 5.8282811255556 6.37691893972912
2  2 1 0 5.8282811255556 6.37691893972912
4 C0 2 0 1 0
6  2 1 0
0

0101000
+5 0 -7 0 *
Ed
 0.200001999999999 1 1 0
1  2 0 5.8282811255556 6.05574904953779
2  3 1 0 5.8282811255556 6.05574904953779
4 C0 2 0 1 0
6  3 1 0
0

0101000
+8 0 -5 0 *
Wi

0101100
+6 0 -4 0 -3 0 *
Fa
0  1e-07 1 0

0111000
+2 0 *

+1 0 