DBRep_DrawableShape

CASCADE Topology V3, (c) Open Cascade
Locations 0
Curve2ds 3
7 0 0  1 2 2  6.3151499829514117 0.0043251650348672399  6.3267469865071542 0.074325165035517671 
 0 2 0.070003533098236009 2
7 0 0  1 2 2  0.31889538380570331 0.0043251650348672399  0.33195879709515519 0.074325165035517671 
 0 2 0.070003533098236009 2
7 0 0  1 2 2  0.31889538380570331 0.0043251650348672399  0.33195879712275844 0.074325165035492802 
 0 2 1 2
Curves 2
1 32.364985626230002 1.7349442916290001 -1.2894951585979999 0.71173960002519054 0.70240258660009069 0.0075728524007818987 
7 0 0  3 4 2  32.364985626230002 1.7349442916290001 -1.2894951585979999  32.38148478446 1.7514434498560001 -1.2894951585979999  32.398310754649998 1.767615796119 -1.288965032174  32.414809912880003 1.784114954346 -1.288965032174 
 0 4 1 4
Polygon3D 0
PolygonOnTriangulations 2
3 3 8 9 
p 0.0166666666666667 1 0 0.0233345110327453 0.070003533098236 
3 4 5 1 
p 0.0166666666666667 1 0 0.5 1 
Surfaces 3
2 32.39543096928 1.698382241527 -1.3051387818860001 0.70710678118854764 0.70710678118454762 0 -0.70710678118454762 0.70710678118854764 0 0 -0 1 0.04999999999555
2 32.39543096928 1.698382241527 -1.291010205144 0.70710678118854764 0.70710678118454762 0 -0.70710678118454762 0.70710678118854764 0 0 -0 1 0.04999999999555
1 32.402024856719997 1.747402535824 -1.2600000000010001 -0.58834840540551536 0.5883484054003153 0.5547001962499144 0.39223227031857322 -0.39223227026907326 0.83205029432138689 0.7071067811706554 0.70710678120243975 -2.7083586085122792e-11 
Triangulations 2
13 11 1 0 0.0061305886768611
32.37475387122 1.725176046637 -1.327916992569 32.42677359406 1.772151273168 -1.331010205144 32.36498562623 1.734944291629 -1.289495158598 32.3653030651397 1.73462685271901 -1.29524109106878 32.3653447680353 1.7345851498249 -1.30829125811706 32.3664836173166 1.73344630054425 -1.31384120369359 32.3712168443452 1.72871307351386 -1.32225815058278 32.3815937217792 1.75133451253545 -1.2893184497901 32.41480991288 1.784114954346 -1.288965032174 32.4183285585385 1.78059630868729 -1.31918361533888 32.4161812566296 1.78274361059563 -1.31422507611626 32.4151679849688 1.78375688225464 -1.30294073285119 32.4151233239975 1.7838015432265 -1.29438189615631 5.45043204551578 0.00432516503349234 5.40310822327597 0.0743251650341179 6.31514998295141 0.00432516503486724 6.23547026920523 0.00432516503474055 6.03022644104228 0.00432516503441421 5.88279101423359 0.00432516503417979 5.61893797130823 0.00432516503376026 6.31901565080333 0.0276584983684174 6.32674698651688 0.0743251650354928 5.81361434027193 0.074325165034729 5.95044971260392 0.0743251650349327 6.1385983495604 0.0743251650352127 6.25311197200716 0.0743251650353832 7 2 1 10 7 6 10 2 7 11 6 5 11 10 6 12 5 4 12 11 5 8 4 3 13 12 4 13 4 8 9 13 8 
6 4 1 0 0.00164265338753675
32.41480991288 1.784114954346 -1.288965032174 32.424893861885 1.774031005339 -1.2657806300495 32.43497781089 1.763947056332 -1.242596227925 32.36498562623 1.734944291629 -1.289495158598 32.389897769555 1.7595296229875 -1.289230095386 32.38548033621 1.714449581649 -1.242596227924 -0.033485447204736 0.0350000000004203 -0.00628435816908003 0.0349999999980565 0.0209167308663543 0.0349999999956895 -0.0341829114534432 -0.0350000000002072 -0.0338341793291001 1.18299814388879e-13 0.0209167308649102 -0.0350000000021036 6 5 4 2 1 5 2 5 6 3 2 6 

TShapes 6
Ve
0.00724753242755338
32.41480991288 1.784114954346 -1.288965032174
0 0

0101101
*
Ve
0.00501962046138625
32.36498562623 1.734944291629 -1.289495158598
0 0

0101101
*
Ed
 0.0030362775523896 1 1 0
1  1 0 0 0.070003533098236
2  1 2 0 0 0.070003533098236
2  2 1 0 0 0.070003533098236
4 C0 2 0 1 0
6  1 1 0
0

0101000
-6 0 +5 0 *
Ed
 0.00198930343253507 1 1 0
1  2 0 0 1
2  3 1 0 0 1
4 C0 1 0 3 0
6  2 2 0
0

0101000
+5 0 -6 0 *
Wi

0101100
-4 0 +3 0 *
Fa
0  1e-07 1 0

0111000
+2 0 *

-1 0 