DBRep_DrawableShape

CASCADE Topology V3, (c) Open Cascade
Locations 0
Curve2ds 3
7 0 0  1 2 2  0.31889538377022131 0.0043251650406546105  0.33195879707720433 0.074325165036384533 
 0 2 0.07000353309332491 2
7 0 0  1 2 2  6.3151499829476041 0.0043251650406546105  6.3267469865209556 0.074325165036384533 
 0 2 0.07000353309332491 2
7 0 0  1 2 2  0.31889538377022131 0.0043251650406546105  0.33195879713854359 0.074325165036334795 
 0 2 1 2
Curves 2
1 27.114985626229998 32.484944291630001 -1.2894951585979999 0.71173960002710723 0.70240258659800714 0.0075728524138710769 
7 0 0  3 4 2  27.114985626229998 32.484944291630001 -1.2894951585979999  27.13148478446 32.501443449859998 -1.2894951585979999  27.148310754650002 32.517615796119998 -1.288965032174  27.164809912879999 32.534114954339998 -1.288965032173 
 0 4 1 4
Polygon3D 0
PolygonOnTriangulations 2
3 3 8 9 
p 0.0166666666666667 1 0 0.0233345110311083 0.0700035330933249 
3 3 4 5 
p 0.0166666666666667 1 0 0.5 1 
Surfaces 3
2 27.14543096928 32.448382241520001 -1.3051387818860001 0.70710678118654757 0.70710678118654757 0 -0.70710678118654757 0.70710678118654757 0 0 -0 1 0.049999999997419997
2 27.14543096928 32.448382241520001 -1.291010205144 0.70710678118654757 0.70710678118654757 0 -0.70710678118654757 0.70710678118654757 0 0 -0 1 0.049999999997419997
1 27.152024856720001 32.497402535820001 -1.26 0.58834840544072087 -0.58834840538792088 -0.55470019622571975 0.39223227032616498 -0.39223227022726498 0.83205029433751665 -0.70710678113715153 -0.70710678123594362 3.7477806608736646e-11 
Triangulations 2
13 11 1 0 0.00613058867778701
27.12475387122 32.47517604664 -1.327916992568 27.17677359406 32.52215127316 -1.331010205143 27.11498562623 32.48494429163 -1.289495158598 27.1153030651395 32.4846268527205 -1.29524109106296 27.1153447680353 32.4845851498247 -1.3082912581168 27.1164836173166 32.4834463005434 -1.31384120369356 27.1212168443703 32.4787130734897 -1.32225815062493 27.1315937217781 32.5013345125353 -1.28931844978981 27.16480991288 32.53411495434 -1.288965032173 27.1683285585385 32.5305963086907 -1.31918361534236 27.1661812566296 32.5327436105992 -1.31422507611891 27.1651679849688 32.533756882255 -1.30294073285202 27.1651233239975 32.5338015432233 -1.29438189615522 5.45043204563388 0.00432516504066172 5.40310822330548 0.0743251650363348 6.3151499829476 0.00432516504065461 6.23547026929337 0.00432516504065527 6.03022644108403 0.00432516504065695 5.88279101429074 0.00432516504065816 5.6189379702468 0.00432516504066033 6.31901565080539 0.0276584983725646 6.3267469865377 0.0743251650363348 5.81361434029758 0.0743251650363348 5.95044971262827 0.0743251650363348 6.13859834958298 0.0743251650363348 6.25311197203941 0.0743251650363348 7 2 1 10 7 6 10 2 7 11 6 5 11 10 6 12 5 4 12 11 5 8 4 3 13 12 4 13 4 8 9 13 8 
6 4 1 0 0.00164265338719868
27.13548033621 32.46444958165 -1.242596227925 27.18497781089 32.51394705633 -1.242596227924 27.11498562623 32.48494429163 -1.289495158598 27.139897769555 32.5095296229888 -1.28923009538588 27.16480991288 32.53411495434 -1.288965032173 27.174893861885 32.524031005335 -1.26578063004887 0.0209167308612868 0.034999999999302 0.020916730867015 -0.0349999999963714 -0.034182911457537 0.0349999999955191 -0.0338341793319442 -4.942637965577e-12 -0.0334854472027878 -0.0350000000001006 -0.00628435816820037 -0.0349999999982379 4 5 6 1 3 4 1 6 2 1 4 6 

TShapes 6
Ve
0.00724753242898449
27.16480991288 32.53411495434 -1.288965032173
0 0

0101101
*
Ve
0.00501962046172814
27.11498562623 32.48494429163 -1.289495158598
0 0

0101101
*
Ed
 0.00303627754893832 1 1 0
1  1 0 0 0.0700035330933249
2  1 1 0 0 0.0700035330933249
2  2 2 0 0 0.0700035330933249
4 C0 1 0 2 0
6  1 1 0
0

0101000
-6 0 +5 0 *
Ed
 0.00198930343391311 1 1 0
1  2 0 0 1
2  3 1 0 0 1
4 C0 3 0 1 0
6  2 2 0
0

0101000
+5 0 -6 0 *
Wi

0101100
-4 0 +3 0 *
Fa
0  1e-07 1 0

0111000
+2 0 *

-1 0 