DBRep_DrawableShape

CASCADE Topology V3, (c) Open Cascade
Locations 0
Curve2ds 3
7 0 0  1 2 2  6.3151499829514117 0.0043251650348707926  6.3267469865072092 0.074325165035521223 
 0 2 0.070003533098236176 2
7 0 0  1 2 2  0.31889538380570331 0.0043251650348707926  0.33195879709522502 0.074325165035521223 
 0 2 0.070003533098236176 2
7 0 0  1 2 2  0.31889538380570331 0.0043251650348707926  0.33195879712275844 0.074325165035496354 
 0 2 1 2
Curves 2
1 33.114985626230002 2.4849442916290001 -1.2894951585979999 0.71173960002519032 0.70240258660009047 0.0075728524008158975 
7 0 0  3 4 2  33.114985626230002 2.4849442916290001 -1.2894951585979999  33.13148478446 2.5014434498560001 -1.2894951585979999  33.148310754649998 2.5176157961190002 -1.288965032174  33.164809912880003 2.5341149543460002 -1.288965032174 
 0 4 1 4
Polygon3D 0
PolygonOnTriangulations 2
3 3 8 9 
p 0.0166666666666667 1 0 0.0233345110327454 0.0700035330982362 
3 4 5 1 
p 0.0166666666666667 1 0 0.5 1 
Surfaces 3
2 33.14543096928 2.4483822415269998 -1.3051387818860001 0.70710678118854764 0.70710678118454762 0 -0.70710678118454762 0.70710678118854764 0 0 -0 1 0.04999999999555
2 33.14543096928 2.4483822415269998 -1.291010205144 0.70710678118854764 0.70710678118454762 0 -0.70710678118454762 0.70710678118854764 0 0 -0 1 0.04999999999555
1 33.152024856719997 2.497402535824 -1.2600000000010001 -0.58834840540551536 0.5883484054003153 0.5547001962499144 0.39223227031857322 -0.39223227026907326 0.83205029432138689 0.7071067811706554 0.70710678120243975 -2.7083586085122792e-11 
Triangulations 2
13 11 1 0 0.00613058867686124
33.12475387122 2.475176046637 -1.327916992569 33.17677359406 2.522151273168 -1.331010205144 33.11498562623 2.484944291629 -1.289495158598 33.1153030651397 2.48462685271893 -1.29524109107327 33.1153447680353 2.4845851498249 -1.30829125811701 33.1164836173166 2.48344630054425 -1.31384120369359 33.1212168443457 2.47871307351334 -1.32225815058366 33.1315937217792 2.50133451253545 -1.2893184497901 33.16480991288 2.534114954346 -1.288965032174 33.1683285585385 2.53059630868729 -1.31918361533888 33.1661812566296 2.53274361059563 -1.31422507611626 33.1651679849688 2.53375688225464 -1.30294073285119 33.1651233239975 2.5338015432265 -1.29438189615631 5.45043204551572 0.00432516503349234 5.40310822327597 0.0743251650341215 6.31514998295141 0.00432516503487079 6.23547026914286 0.00432516503474377 6.03022644104332 0.00432516503441659 5.88279101423357 0.00432516503418157 5.6189379712843 0.00432516503376096 6.31901565080334 0.0276584983684209 6.32674698651688 0.0743251650354964 5.81361434027193 0.0743251650347325 5.95044971260392 0.0743251650349362 6.1385983495604 0.0743251650352163 6.25311197200712 0.0743251650353867 7 2 1 10 7 6 10 2 7 11 6 5 11 10 6 12 5 4 12 11 5 8 4 3 13 12 4 13 4 8 9 13 8 
6 4 1 0 0.00164265338753649
33.16480991288 2.534114954346 -1.288965032174 33.174893861885 2.524031005339 -1.2657806300495 33.18497781089 2.513947056332 -1.242596227925 33.11498562623 2.484944291629 -1.289495158598 33.139897769555 2.5095296229875 -1.289230095386 33.13548033621 2.464449581649 -1.242596227924 -0.033485447204736 0.0350000000004203 -0.00628435816908003 0.0349999999980565 0.0209167308663551 0.0349999999956893 -0.0341829114534416 -0.0350000000002094 -0.0338341793291002 1.18363929768602e-13 0.0209167308649103 -0.0350000000021034 6 5 4 2 1 5 2 5 6 3 2 6 

TShapes 6
Ve
0.00724753242755383
33.16480991288 2.534114954346 -1.288965032174
0 0

0101101
*
Ve
0.00501962046138576
33.11498562623 2.484944291629 -1.289495158598
0 0

0101101
*
Ed
 0.00303627755239087 1 1 0
1  1 0 0 0.0700035330982362
2  1 2 0 0 0.0700035330982362
2  2 1 0 0 0.0700035330982362
4 C0 2 0 1 0
6  1 1 0
0

0101000
-6 0 +5 0 *
Ed
 0.00198930343253494 1 1 0
1  2 0 0 1
2  3 1 0 0 1
4 C0 1 0 3 0
6  2 2 0
0

0101000
+5 0 -6 0 *
Wi

0101100
-4 0 +3 0 *
Fa
0  1e-07 1 0

0111000
+2 0 *

-1 0 