DBRep_DrawableShape

CASCADE Topology V3, (c) Open Cascade
Locations 0
Curve2ds 1
7 0 0  3 25 23  6.3456458076495634 0.0022505479600027911  6.2953400086340459 0.017504128640910704  6.2010901480396567 0.046909311013844941  6.0775917428217907 0.087363383579844273  5.970451371517882 0.12381626918340045  5.8792340203005589 0.15591950865346649  5.8043560348221117 0.18332825756921664  5.7471696524092843 0.205684185710691  5.7095630878624446 0.22267929130509723  5.6947563614124359 0.2338177445892545  5.701625600107028 0.23971678169947919  5.7267857038371632 0.24151966089004967  5.7674022893481203 0.24024310393014273  5.8205274146027568 0.23693546671008378  5.8832457787771348 0.23264510512027819  5.9527587906963095 0.22838874092991923  6.0262515368030058 0.22530963239330973  6.1021876731061733 0.22402501564639596  6.181229892640836 0.22403906092455411  6.2639598529411193 0.22504376645397142  6.3512929259732251 0.2266808020131357  6.4443437382630515 0.22860532318018048  6.5444176694474354 0.23046887078269648  6.6167192713683649 0.23143892949453793  6.6544899967375217 0.23179792159000101 
 0 4 0.045454545454545456 1 0.090909090909090912 1 0.13636363636363635 1 0.18181818181818182 1 0.22727272727272729 1 0.27272727272727271 1 0.31818181818181818 1 0.36363636363636365 1 0.40909090909090912 1 0.45454545454545459 1 0.5 1 0.54545454545454541 1 0.59090909090909094 1 0.63636363636363635 1 0.68181818181818188 1 0.72727272727272729 1 0.77272727272727271 1 0.81818181818181823 1 0.86363636363636365 1 0.90909090909090917 1 0.95454545454545459 1 1 4
Curves 1
7 0 0  3 6 4  49.645096580560001 99.794022650870005 -0.034077155187730003  49.642909566210001 99.905882242529998 -0.031101995828930001  49.637928686519999 100.0703390293 -0.0299500263573  49.64268578027 100.0021166062 -0.03115050689265  49.645631238610001 100.02093741580001 -0.034182105716770002  49.646515648520001 100.0235700245 -0.036806466705030003 
 0 4 0.33333333333330001 1 0.66666666666670005 1 1 4
Polygon3D 0
PolygonOnTriangulations 0
Surfaces 1
2 49.637039291359997 99.791772102910002 -0.040000000000000001 0 1 0 0.76718739504262401 -0 0.64142302803041995 0.64142302803041995 0 -0.76718739504262401 0.0099999999994510001
Triangulations 0

TShapes 4
Ve
0.22393548569054
49.6451315367221 99.79967713355 -0.0341443868203946
0 0

0101101
*
Ed
 6.62255949999109e-05 1 1 0
1  1 0 0 1
2  1 1 0 0 1
0

0101000
-4 0 +4 0 *
Wi

0101100
-3 0 *
Fa
0  1e-07 1 0

0111000
+2 0 *

+1 0 