DBRep_DrawableShape

CASCADE Topology V3, (c) Open Cascade
Locations 0
Curve2ds 3
7 0 0  1 2 2  6.3151499829476041 0.0043251650406546105  6.3267469865207779 0.074325165036384533 
 0 2 0.070003533093327422 2
7 0 0  1 2 2  0.31889538377022131 0.0043251650406546105  0.33195879707706111 0.074325165036384533 
 0 2 0.070003533093327422 2
7 0 0  1 2 2  0.31889538377022131 0.0043251650406546105  0.33195879713854359 0.074325165036327689 
 0 2 1 2
Curves 2
1 -27.114985626229998 -30.984944291630001 -1.2894951585979999 -0.7117396000271079 -0.70240258659800781 0.0075728524137500834 
7 0 0  3 4 2  -27.114985626229998 -30.984944291630001 -1.2894951585979999  -27.13148478446 -31.001443449859998 -1.2894951585979999  -27.148310754650002 -31.017615796120001 -1.288965032174  -27.164809912879999 -31.034114954340001 -1.288965032173 
 0 4 1 4
Polygon3D 0
PolygonOnTriangulations 2
3 3 8 9 
p 0.0166666666666667 1 0 0.0233345110311091 0.0700035330933274 
3 4 5 1 
p 0.0166666666666667 1 0 0.5 1 
Surfaces 3
2 -27.14543096928 -30.948382241520001 -1.3051387818860001 -0.70710678118654757 -0.70710678118654757 0 0.70710678118654757 -0.70710678118654757 0 0 0 1 0.049999999997409998
2 -27.14543096928 -30.948382241520001 -1.291010205144 -0.70710678118654757 -0.70710678118654757 0 0.70710678118654757 -0.70710678118654757 0 0 0 1 0.049999999997409998
1 -27.152024856720001 -30.997402535820001 -1.26 0.58834840544078626 -0.58834840538788624 0.55470019622568711 -0.39223227032619196 0.39223227022719187 0.83205029433753841 -0.70710678113708214 -0.707106781236013 -3.7497446744678548e-11 
Triangulations 2
13 11 1 0 0.0061305886776276
-27.12475387122 -30.97517604664 -1.327916992569 -27.17677359405 -31.02215127317 -1.331010205146 -27.11498562623 -30.98494429163 -1.289495158598 -27.1153030651397 -30.9846268527203 -1.29524109107039 -27.1153447680352 -30.9845851498248 -1.30829125811606 -27.1164836173166 -30.9834463005434 -1.31384120369359 -27.1212168444551 -30.978713073405 -1.32225815076952 -27.1315937217781 -31.0013345125353 -1.28931844978981 -27.16480991288 -31.03411495434 -1.288965032173 -27.1683285585385 -31.0305963086907 -1.31918361534188 -27.1661812566296 -31.0327436105992 -1.31422507611862 -27.1651679849688 -31.0337568822551 -1.30294073285198 -27.1651233239975 -31.0338015432233 -1.29438189615531 5.4504320456204 0.00432516504065461 5.40310822329271 0.0743251650363277 6.3151499829476 0.00432516504065461 6.23547026919027 0.00432516504065461 6.03022644110312 0.00432516504065461 5.882791014284 0.00432516504065461 5.61893796633959 0.00432516504065461 6.31901565080533 0.0276584983725646 6.3267469865377 0.0743251650363277 5.81361434029048 0.0743251650363277 5.95044971262307 0.0743251650363277 6.13859834958038 0.0743251650363277 6.25311197203718 0.0743251650363277 7 2 1 10 7 6 10 2 7 11 6 5 11 10 6 12 5 4 12 11 5 8 4 3 13 12 4 13 4 8 9 13 8 
6 4 1 0 0.00164265338720065
-27.16480991288 -31.03411495434 -1.288965032173 -27.174893861885 -31.024031005335 -1.26578063004887 -27.18497781089 -31.01394705633 -1.242596227924 -27.11498562623 -30.98494429163 -1.289495158598 -27.139897769555 -31.0095296229888 -1.28923009538588 -27.13548033621 -30.96444958165 -1.242596227925 -0.0334854472027871 0.0350000000001055 -0.00628435816819705 0.034999999998239 0.0209167308661878 0.0349999999963725 -0.0341829114575108 -0.0349999999964461 -0.0338341793319452 4.94722929289542e-12 0.0209167308612822 -0.034999999999301 6 5 4 2 1 5 2 5 6 3 2 6 

TShapes 6
Ve
0.00724753242844186
-27.16480991288 -31.03411495434 -1.288965032173
0 0

0101101
*
Ve
0.00501962046191575
-27.11498562623 -30.98494429163 -1.289495158598
0 0

0101101
*
Ed
 0.00303627754893075 1 1 0
1  1 0 0 0.0700035330933274
2  1 2 0 0 0.0700035330933274
2  2 1 0 0 0.0700035330933274
4 C0 2 0 1 0
6  1 1 0
0

0101000
-6 0 +5 0 *
Ed
 0.00198930343391261 1 1 0
1  2 0 0 1
2  3 1 0 0 1
4 C0 1 0 3 0
6  2 2 0
0

0101000
+5 0 -6 0 *
Wi

0101100
-4 0 +3 0 *
Fa
0  1e-07 1 0

0111000
+2 0 *

-1 0 