DBRep_DrawableShape

CASCADE Topology V3, (c) Open Cascade
Locations 0
Curve2ds 3
7 0 0  1 2 2  2.8096338564741492 0.0043251650340607739  2.8052437886827497 0.074325165035393326 
 0 2 0.070000413605037962 2
7 0 0  1 2 2  2.8096338564741492 0.0043251650340607739  2.8052437886827497 0.074325165035393326 
 0 2 0.070000413605037975 2
7 0 0  1 2 2  6.3267469865502459 0.074325165031250862  6.3318127351658218 0.0043251650299183098 
 0 2 0.070000413605037975 2
Curves 2
1 32.021544274340002 2.078385643521 -1.2889650321720001 0.70735035938779256 0.70685484697789258 0.003419704346962964 
1 32.021544274340002 2.078385643521 -1.2889650321720001 0.70735035938779267 0.70685484697789269 0.0034197043469629644 
Polygon3D 0
PolygonOnTriangulations 2
3 1 4 5 
p 0.0166666666666667 1 0 0.0233334712016793 0.070000413605038 
3 7 8 3 
p 0.0166666666666667 1 0 0.0233334712016793 0.070000413605038 
Surfaces 3
2 31.9853090362 2.1085041746100002 -1.3051387818860001 0.70710678118304759 0.70710678119004766 0 -0.70710678119004766 0.70710678118304759 0 0 -0 1 0.050000000003240001
1 32.0343293305 2.1150980620430002 -1.26 0.58834840545489175 -0.58834840539659183 0.55470019620149225 0.39223227023478352 -0.39223227028438357 -0.83205029435366828 0.70710678117604986 0.70710678119704518 -5.2049204982928295e-11 
2 32.040923217930001 2.1641183563439998 -1.291010205144 -0.70710678118854764 -0.70710678118454762 0 0.70710678118454762 -0.70710678118854764 0 0 0 1 0.049999999997869998
Triangulations 2
6 4 1 0 0.00164071494571424
32.02154427434 2.078385643521 -1.288965032172 32.01146032533 2.0884695925285 -1.265780630047 32.00137637632 2.098553541536 -1.242596227922 32.0380492135803 2.09487902073673 -1.2888852385991 32.07105909206 2.127865775169 -1.288725651453 32.05087385101 2.148051016219 -1.242596227923 0.0334854472064753 -0.0349999999979944 0.00628435816818757 -0.0350000000007569 -0.0209167308700996 -0.035000000003518 0.0334235899389762 -0.0116666666642219 0.0332998754031036 0.0350000000033167 -0.0209167308697925 0.0350000000013493 6 3 2 4 2 1 4 6 2 5 6 4 
12 10 1 0 0.00634153961892554
32.00958059316 2.0903493247 -1.331010205148 32.061600316 2.137324551231 -1.327916992569 32.07105909206 2.127865775169 -1.288725651453 32.070827929297 2.12809693793058 -1.29828668898226 32.0708952668044 2.12802960041921 -1.30984925247195 32.0689995326896 2.12992533453292 -1.31575188408246 32.02154427434 2.078385643521 -1.288965032172 32.0380492135803 2.09487902073673 -1.2888852385991 32.0180256286807 2.08190428918189 -1.31918361534316 32.0201729305892 2.07975698727296 -1.31422507611996 32.0211862022456 2.07874371561338 -1.30294073285211 32.0212308632175 2.07869905464122 -1.29438189616137 5.4031082232613 0.0743251650348284 5.45043204565207 0.00432516502853986 6.33181273516582 0.00432516502991831 6.1996056317453 0.00432516502971456 6.00800512274921 0.00432516502941413 5.82501883869868 0.00432516502912721 6.32674698655025 0.0743251650312509 6.3284355694221 0.0509918316974733 5.81361434027861 0.0743251650332384 5.95044971261771 0.0743251650327084 6.13859834958398 0.0743251650319796 6.25311197195544 0.0743251650315361 9 1 2 9 2 6 10 6 5 10 9 6 11 5 4 11 10 5 12 11 4 8 4 3 8 12 4 7 12 8 

TShapes 6
Ve
0.00724753242923628
32.02154427434 2.078385643521 -1.288965032172
0 0

0101101
*
Ve
0.00556240310621404
32.07105909206 2.127865775169 -1.288725651453
0 0

0101101
*
Ed
 0.0019893034313417 1 1 0
1  1 0 0 0.070000413605038
2  1 1 0 0 0.070000413605038
4 C0 2 0 1 0
6  1 1 0
0

0101000
+6 0 -5 0 *
Ed
 0.00303627754800458 1 1 0
1  2 0 0 0.070000413605038
2  2 1 0 0 0.070000413605038
2  3 3 0 0 0.070000413605038
4 C0 1 0 3 0
6  2 2 0
0

0101000
+6 0 -5 0 *
Wi

0101100
-4 0 +3 0 *
Fa
0  1e-07 1 0

0111000
+2 0 *

-1 0 