DBRep_DrawableShape

CASCADE Topology V3, (c) Open Cascade
Locations 0
Curve2ds 2
7 0 0  1 2 2  6.6896187545447212 0.016418065773697421  3.3445416893636288 0.23952175782093921 
 0 2 1 2
7 0 0  1 2 2  6.6896187545447212 0.016418065773697421  3.3445416893636288 0.23952175782093921 
 0 2 0.223112214811031 2
Curves 2
7 0 0  3 6 4  14.31100876414 90.026301700779996 -0.43163797463230003  14.287509725290001 90.033731931749998 -0.43163797463230003  14.23732908339 90.039234124009994 -0.42100641910949999  14.167832297269999 90.061034149189993 -0.42216462287079998  14.121622509010001 90.086474920940006 -0.42970763503010001  14.09836915166 90.093827469130005 -0.42970763503010001 
 0 4 0.33333333333330001 1 0.66666666666670005 1 1 4
1 14.31100876414 90.026301700779996 -0.43163797463230003 -0.95306127752958314 0.30265383903969462 0.0086518777276218452 
Polygon3D 0
PolygonOnTriangulations 2
13 33 42 43 44 45 46 47 48 49 50 51 52 53 
p 0.05 1 0 0.0492075 0.098415 0.164025 0.3620851875 0.45176585625 0.541446525 0.63112719375 0.7208078625 0.858381815669298 0.938447898778124 0.969223949389062 1 
2 109 108 
p 0.05 1 0 0.223112214811031 
Surfaces 3
2 14.324420075320001 90.014258646149997 -0.43385734195039999 -0.95347212563759043 0.30148118619929698 0 0.23129256586387528 0.73149179621648919 0.64142302815231034 0.19337697538290352 0.61157897808528328 -0.76718739494071497 0.0099999999959899995
1 14.070214075719999 88.481543713250005 -0.42385734195039998 0 0 1 0.30148118620189063 0.95347212563677031 -0 -0.95347212563677031 0.30148118620189063 0 
1 12.872601372649999 90.257645264429996 -1.632714991834 0.29671275595430685 0.93839136592482153 -0.17715299831430409 0.053408296071604092 0.16891044586548137 0.98418332397386832 0.95347212563594541 -0.30148118620449965 -1.3210933162276242e-13 
Triangulations 2
73 71 1 0 0.00644614919796915
13.16792819532 87.14823661161 -0.4267765891201 13.26093530954 87.43876697254 -0.4238573419504 13.37973612056 87.08103504963 -0.4292742134006 13.4526944779 87.0914171094 -0.4238573419504 13.4453849722416 87.0879991304953 -0.423937591897811 13.44039576888 87.0860902243919 -0.424005952964126 13.4310452795999 87.0836161717852 -0.423894549744955 13.4230725977287 87.0827090606705 -0.423421362033503 13.4138127852478 87.0823015965022 -0.423142884287744 13.4083010273889 87.0819734671282 -0.423507386533812 13.3987463829273 87.0808112148214 -0.425446113930211 13.3890494391451 87.0798901803026 -0.427999954028132 14.36414295911 89.97398742401 -0.4238573419504 14.4358359976566 89.8221464542915 -0.4238573419504 14.4953741490349 89.6651407845391 -0.4238573419504 14.542389115378 89.5039416383139 -0.4238573419504 14.5765900661041 89.3395461798201 -0.4238573419504 14.5977654370417 89.1729713453774 -0.4238573419504 14.6057842391478 89.0052475527398 -0.4238573419504 14.6005968687948 88.8374123270189 -0.4238573419504 14.5822354146143 88.670503882642 -0.4238573419504 14.5508134589998 88.5055547010456 -0.4238573419504 14.5065253754954 88.3435851438336 -0.4238573419504 14.4496451264176 88.1855971409068 -0.4238573419504 14.380524568148 88.0325679926099 -0.4238573419504 14.2995912745794 87.885444324235 -0.4238573419504 14.2073458921802 87.7451362302775 -0.4238573419504 14.1043590430378 87.6125116446695 -0.4238573419504 13.9912677950391 87.4883909718142 -0.4238573419504 13.8687717210226 87.3735420116339 -0.4238573419504 13.7376285712805 87.2686752100251 -0.4238573419504 13.5986495861795 87.1744392641007 -0.4238573419504 14.31100876414 90.02630170078 -0.4316379746323 14.3183920042452 90.0220691720764 -0.430081848095922 14.3227866379418 90.0179345600446 -0.42795578221083 14.3296808747738 90.0104906442953 -0.424402972425329 14.3355537334597 90.0050947656213 -0.422949520622713 14.3413204915526 90.0006648685243 -0.422913805620529 14.3459924739987 89.9971221776517 -0.423389999875453 14.3530631647965 89.9905373481551 -0.424045404763742 14.359040541224 89.9826656283722 -0.424011793250902 14.3005059851726 90.0293087162496 -0.431316716601977 14.2898444302485 90.0318378127302 -0.430458033213039 14.2754672335343 90.0346979414249 -0.428749584401132 14.2320688162573 90.0428387412387 -0.423282409124487 14.2128962849719 90.0477069317825 -0.42225779431082 14.1939978940382 90.0536280637511 -0.422292621724889 14.1752647421444 90.0606569453307 -0.42325156061318 14.1565911554075 90.0688116892984 -0.424980829070479 14.1279403551023 90.0821702283134 -0.428084382896117 14.1112367277174 90.0892562566631 -0.429356238102927 14.1048063142009 90.0916600243051 -0.429615485178871 14.09836915166 90.09382746913 -0.4297076350301 14.00686675875 89.80049128302 -0.4258136654491 13.3811152849207 87.5062155845475 -0.4238573419504 13.4955746170641 87.5829723629427 -0.4238573419504 13.6035939315059 87.6685548930047 -0.4238573419504 13.7044943291549 87.7624252903544 -0.4238573419504 13.79764165316 87.8639935815432 -0.4238573419504 13.8824504745732 87.9726214120233 -0.4238573419504 13.9583877717576 88.0876260581931 -0.4238573419504 14.0249762804171 88.2082847183001 -0.4238573419504 14.0817974931928 88.3338390552344 -0.4238573419504 14.128494289972 88.4634999626617 -0.4238573419504 14.1647731823812 88.5964525245395 -0.4238573419504 14.1904061583542 88.7318611368472 -0.4238573419504 14.2052321151826 88.8688747593393 -0.4238573419504 14.2091578720435 89.006632264316 -0.4238573419504 14.2021587556385 89.1442678487913 -0.4238573419504 14.1842787552654 89.2809164760474 -0.4238573419504 14.1556302463457 89.4157193123713 -0.4238573419504 14.1163932841479 89.5478291248071 -0.4238573419504 14.0668144721442 89.6764156059962 -0.4238573419504 -1.54329337383948 0.458337429743194 -1.23824087792751 0.457247176687399 -1.54351208544237 0.236124470417552 -1.51161750872705 0.169690706060012 -1.51708013477886 0.175629659619157 -1.52040437448661 0.179811226677143 -1.5255823112842 0.187980777252206 -1.52885083003464 0.195309030248133 -1.53203099501198 0.204015160556464 -1.53400554852112 0.209171543205244 -1.53799426924462 0.217931233165729 -1.54179589609901 0.226899324186591 1.51161750571498 0.16969070302757 1.3884554758622 0.0555561935063682 1.2567045786881 -0.0485460298021465 1.11717981390834 -0.141971999516732 0.970744269847348 -0.224143790537243 0.818303784322217 -0.29455309515545 0.66080134120705 -0.352764367403279 0.499211237214941 -0.398417517303112 0.334533054981398 -0.431230138353755 0.167785479731201 -0.450999254473025 -2.22172675914058e-09 -0.457602575590529 -0.167785484160904 -0.450999254123632 -0.334533059369934 -0.43123013765713 -0.499211241535149 -0.398417516263565 -0.660801345432191 -0.352764366027239 -0.81830378842614 -0.294553093451431 -0.970744273804652 -0.224143788515785 -1.11717981769453 -0.14197199719034 -1.25670458227974 -0.048546027185211 -1.38845547923706 0.0555561963976589 1.54547875026058 0.236124447065525 1.54366906010562 0.227808705654139 1.54105172216281 0.222372037182236 1.53603263868833 0.213554373985325 1.53265837518234 0.206328011027211 1.53017316085128 0.199494037298781 1.52820381866431 0.193971377618332 1.52405704753623 0.185244468826115 1.51835364867811 0.177172031600478 1.54517946543073 0.247045112643376 1.54437663020277 0.257973083086415 1.54276922886917 0.272543614389803 1.53744744825207 0.316377093544676 1.53630897476352 0.336125235562971 1.53625709973179 0.355929434427223 1.5373112495381 0.375910048139561 1.53945683552287 0.396173294463435 1.54355615285124 0.427518382119724 1.5452766539663 0.445581129460647 1.54562993071474 0.452437040224959 1.54575584554054 0.45922813911142 1.23875478303342 0.457768940773517 -1.13769850492775 0.362993407659895 -1.03000572104786 0.277000349541747 -0.915839373141569 0.199808466872304 -0.795916994274702 0.13190290899061 -0.670992294045103 0.0737104608821387 -0.541850421533876 0.0255968608442443 -0.409303030660126 -0.0121354981712467 -0.274183178953359 -0.0392494690913012 -0.137340091804641 -0.0555746411859852 0.00036617489689421 -0.0610084110962712 0.138070140197007 -0.0555166276939663 0.274906337605713 -0.0391338067208256 0.410014754535752 -0.0119629138578501 0.542546237463382 0.0258252824118266 0.671667828840203 0.073993284079218 0.796568002213606 0.132238356279415 0.916461762653258 0.200194429973766 1.03059558042751 0.277434402685991 1.13825212692175 0.363472822832151 8 5 4 8 6 5 8 7 6 9 8 4 10 9 4 3 11 10 3 12 11 2 1 3 2 10 4 2 3 10 55 2 4 55 4 32 56 55 32 56 32 31 57 56 31 57 31 30 58 57 30 58 30 29 59 58 29 59 29 28 60 28 27 60 59 28 61 60 27 61 27 26 62 26 25 62 61 26 63 25 24 63 62 25 64 23 22 64 24 23 64 63 24 65 22 21 65 64 22 66 21 20 66 65 21 67 66 20 67 20 19 68 19 18 68 67 19 69 68 18 17 69 18 70 69 17 16 70 17 71 70 16 15 71 16 72 71 15 14 72 15 73 72 14 13 73 14 54 73 13 39 41 40 38 13 41 38 41 39 37 13 38 33 35 34 42 36 35 42 35 33 43 36 42 44 37 36 44 13 37 44 36 43 45 54 13 45 13 44 46 54 45 47 54 46 48 54 47 49 54 48 50 54 49 51 54 50 52 54 51 53 54 52 
141 139 1 0 0.00534264552847004
12.19119767835 90.39943498816 -2.022925240518 11.77387877906 90.82623392215 -0.4267682303387 12.47258792476 90.31933409667 -1.975925807195 12.4713591663401 90.3166710037541 -1.99209043170544 12.4697300913597 90.3148971744724 -2.00421505523285 12.4684616387989 90.3141198108897 -2.01045732795998 12.465845626204 90.3133362977206 -2.01898919766779 12.447224309537 90.312649974537 -2.05381345689691 12.444054162022 90.3126138827839 -2.05931430308483 12.4408366217073 90.3126830694468 -2.06433686039649 12.4349056920704 90.3130530991983 -2.07231047510956 12.4316213065606 90.313370448217 -2.07613045842038 12.4281828053101 90.313772870577 -2.07975793026806 12.4214122069104 90.3147310396102 -2.08602248899984 12.4103513805549 90.3165940834893 -2.09467954812092 12.3991945218892 90.3186704536455 -2.10236744766415 12.3879396328824 90.3209645885063 -2.10906602347276 12.3787408198737 90.3230057765926 -2.11366076299361 12.3694621580547 90.3252243409111 -2.11744966707516 12.3601078881428 90.3276108611279 -2.12047553310356 12.3496334980996 90.3304419435167 -2.12302260750322 12.3379054610393 90.3337871299686 -2.1249461657699 12.3275592585766 90.3368894671479 -2.12584168447354 12.3179071762232 90.3399225316951 -2.125941566343 12.3081788963028 90.3431248615989 -2.12527246117781 12.2983706758004 90.3465047715963 -2.1237965944137 12.2884885612698 90.3500488298661 -2.1215749879656 12.27854074182 90.3537388451129 -2.11869028644848 12.2685348247284 90.3575579185224 -2.11521926262361 12.2594606131667 90.3611481084226 -2.11140014078356 12.2539617992744 90.3634228154631 -2.10856080287865 12.2491500345074 90.3654939988077 -2.10564880822784 12.2446956516378 90.3674894332947 -2.10253948305491 12.2379904135522 90.3706536448196 -2.09700901440198 12.2312292501418 90.3740594098535 -2.09029268961516 12.2159054481914 90.3821311661495 -2.07320181936919 12.2085793365291 90.3858780503185 -2.06562479282032 12.2034400039247 90.388943003854 -2.05799737241793 12.1997246418291 90.391628602914 -2.04999441645989 12.1956736668173 90.395059732865 -2.03860444970664 12.53937403975 90.53055357549 -0.7452222370954 12.87216636011 90.48265177788 -0.4415689328953 12.8523418739244 90.4877575913036 -0.447727037515476 12.8324471822116 90.4925821422645 -0.455492595212071 12.8124863123653 90.4971248539709 -0.464861915839346 12.792463291779 90.5013851496307 -0.475831309251561 12.7723821478463 90.5053624524523 -0.488397085302974 12.7522469079607 90.5090561856436 -0.502555553847846 12.7320615995158 90.512465772413 -0.518303024740436 12.7118302499051 90.5155906359684 -0.535635807835005 12.6847904584268 90.5193132210075 -0.561205848467833 12.6542933001525 90.5228931643271 -0.593322199994134 12.6237272855246 90.5258275055855 -0.628973676467876 12.5931060069966 90.5281142981102 -0.668147823647186 12.566251440663 90.5295837132098 -0.705342825035991 12.9148492192338 90.4718219266997 -0.426881548714523 12.93820227271 90.46511533969 -0.4238572394864 12.9610480757676 90.4572182315102 -0.426865833800306 13.00231589286 90.44149941016 -0.4415689329146 13.30215174026 90.28936862653 -0.7452222370949 13.2547591415403 90.3194993630357 -0.664995344313621 13.2111359169305 90.3450282482456 -0.602831460962325 13.1751665192965 90.364583482311 -0.559491050323178 13.1423343659038 90.381310519483 -0.525877233105612 13.1154361751506 90.394245701756 -0.502410359545239 13.0902982821571 90.4057275868802 -0.483693384116855 13.0674908941043 90.4156503729751 -0.469331709045726 13.0468213670182 90.4242452055131 -0.458423599702788 13.0260213998637 90.4325195305797 -0.44943171345882 13.0141883644144 90.4370614505166 -0.445191955182741 13.23536562526 90.07814914771 -1.975925807195 13.5116548715 89.98191570237 -2.022925240516 13.5056641547882 89.980933039082 -2.0381642984719 13.5005123974901 89.980447942289 -2.0493625438739 13.4974602610283 89.9803513178628 -2.05498637953174 13.4924741699297 89.9805333219215 -2.06237347321433 13.4646442528758 89.9841227946295 -2.08997199671108 13.4601317313793 89.9847568114255 -2.09417156888095 13.45571477354 89.985447504711 -2.0979108627311 13.4491996456863 89.9865926571374 -2.10275707136844 13.4407808199018 89.988279182118 -2.10792408817635 13.4364151254059 89.9892352477829 -2.11017182591765 13.4318843201687 89.9902775730877 -2.11223918377111 13.4213989239497 89.9928371078711 -2.1162430983277 13.4086494726823 89.9961129631946 -2.12024467029671 13.3960967781547 89.9995055101734 -2.12329857173241 13.384994193148 90.0026743573772 -2.12510864406058 13.3751770980114 90.0056302453389 -2.12589371466233 13.3655213517824 90.0086818254277 -2.12590165506162 13.3549654014013 90.0121748683808 -2.12507888479266 13.3434280815197 90.016169609457 -2.12324227711185 13.3326748310973 90.0200636240396 -2.12062599006632 13.3231648614941 90.023667847666 -2.11746237981691 13.3147556070649 90.0270004431746 -2.11389401913718 13.30604626073 90.0306133101099 -2.10934366440469 13.2955083229544 90.0352007604989 -2.10269357500212 13.2851772409569 90.0399108920381 -2.09504717347533 13.2750443132976 90.044738544115 -2.08644636994114 13.2686962976321 90.0479670337612 -2.079977105542 13.2650296142934 90.0499548900616 -2.07558860815674 13.2617599372797 90.0518313280819 -2.07112535680789 13.2570951866971 90.0547309498238 -2.06357883477316 13.2531026397471 90.0574899361025 -2.05565139743528 13.237681135655 90.0691295524426 -2.01982497304254 13.2357718528724 90.0714614925449 -2.01067037832399 13.2349863210557 90.0735210796735 -2.00107629024589 13.2348601096838 90.0756477827185 -1.99002239180839 14.09836915166 90.09382746913 -0.4297076350301 14.31100876414 90.02630170078 -0.4316379746323 12.98575176048 89.99365528193 -2.841572639643 13.0215373854002 89.9877526853726 -2.81290394191972 13.0555128427534 89.9827991785281 -2.78224269313953 13.0878468768322 89.9786988545283 -2.74981269255873 13.1187082319298 89.9753558065046 -2.71583773943363 13.1578575282247 89.9719106290339 -2.66852135594953 13.2131099941129 89.9684501316473 -2.59430337701829 13.3431836682309 89.964767662525 -2.3958327097651 13.4832436410901 89.9659648194911 -2.15512403320536 13.8016952234081 89.982477835742 -1.53450848446364 12.6282503557 90.10669471649 -2.84157262653 11.56207638656 90.8934321659 -0.429274222738 11.9592089307564 90.5614639720481 -1.54729841237268 12.2592581939208 90.3307087822859 -2.27397404400302 12.3741450444491 90.2515797364296 -2.49982259898342 12.4631068625169 90.1950091866135 -2.65026079270366 12.5169552115792 90.1637050728179 -2.72592010913388 12.5589613396338 90.1410308517809 -2.77571016256079 12.5923728686213 90.1240264078822 -2.80984671964891 11.7687246734872 90.8282055107875 -0.427400309968133 11.7630261222836 90.8310809462509 -0.42937157605624 11.750752018628 90.8379326996658 -0.434819932069101 11.7444921531299 90.8407248441688 -0.436312358796945 11.7368292965403 90.8434224227103 -0.436820569939872 11.7057302536546 90.8524193421005 -0.435314546024723 11.6213135098302 90.8791477066556 -0.435434201111856 11.6048952410552 90.8849272487152 -0.436234891259085 11.5977716279138 90.8873606723288 -0.436477311673862 11.5921391545563 90.8890072443661 -0.436287060574378 11.5870686667899 90.8901445372712 -0.435641650692209 11.5820741487758 90.8908703022424 -0.434464039814599 11.5685226274606 90.8920997089184 -0.430252024350209 -0.396481264396523 -0.692446362922084 1.22423235437449 -1.2190201497865 -0.348726509584722 -0.399999694761884 -0.365150913571486 -0.400368409253149 -0.377470390270377 -0.401386910681577 -0.383812981711384 -0.402361984345949 -0.392481965934043 -0.404620064955824 -0.427865881085839 -0.422168057812994 -0.433455130622921 -0.425179824118145 -0.438558404768423 -0.428268517598539 -0.446660162356531 -0.434035050694811 -0.450541536098392 -0.437262295486802 -0.454227304551632 -0.440662133353565 -0.460592540152806 -0.447406580138263 -0.469388725690931 -0.458514442433397 -0.477200176419758 -0.46977818271849 -0.484006404127069 -0.481201044162785 -0.488674985080425 -0.490587235760957 -0.49252478012297 -0.500103036571008 -0.495599274431816 -0.509741563133519 -0.498187282516904 -0.520582120149586 -0.50014175402622 -0.532772987354668 -0.501051664488809 -0.543573099301784 -0.501153151546124 -0.553690502677634 -0.500473293282969 -0.563931588630166 -0.498973708065205 -0.57430243275661 -0.49671639848268 -0.584793220395061 -0.493785337320753 -0.595390659124994 -0.490258531145307 -0.606082400944923 -0.48637803271902 -0.615816783440963 -0.483493064201867 -0.621745530588156 -0.480534271282134 -0.626957836980144 -0.477374976568339 -0.631806552839432 -0.471755628507787 -0.639153760693689 -0.464931366581041 -0.646627115624707 -0.447565831289384 -0.663671416306103 -0.439867035379804 -0.671786274649196 -0.432117035743947 -0.677610510859454 -0.42398546537171 -0.681962662644471 -0.41241245201551 -0.686859575527574 0.901755529808228 -0.399999694763716 1.21028880485561 -0.068250002909994 1.20403173417537 -0.0886914045805372 1.19614137725768 -0.109114949923358 1.18662148355251 -0.129516625039061 1.17547580250981 -0.149892416028251 1.16270808357953 -0.170238308991532 1.14832207621164 -0.19055029002951 1.13232152985608 -0.210824345242788 1.11471019396283 -0.23105646073197 1.0887292206884 -0.25796043754284 1.05609673165316 -0.288117913427075 1.01987230516397 -0.318146405049811 0.980068595614434 -0.348032365500588 0.942275838442395 -0.374080446952953 1.22213891297364 -0.0234804338535815 1.22828513612592 3.05232359537903e-07 1.22217084777203 0.0233605049317906 1.2102888048353 0.0682506133670225 0.901755529809498 0.400000305236387 0.983271738012482 0.345728933212763 1.04643464864797 0.296438925921352 1.09047157711984 0.256247572738922 1.12462559741813 0.219900142646035 1.14846960391161 0.190353753437364 1.16748737730754 0.162923900823715 1.18207985690665 0.138186158734458 1.19316326899192 0.115887160499048 1.20229966261647 0.0935604182669184 1.20660755747039 0.0809086453942201 -0.348726509584481 0.400000305228688 -0.396481264389588 0.692446973383247 -0.411965227169402 0.687031246481603 -0.423343438046465 0.682265437056326 -0.429057653600399 0.679384440462992 -0.436563464258383 0.674575470785132 -0.464605519864299 0.646958262125611 -0.468872582786137 0.642464554526688 -0.472671970318095 0.638044877315776 -0.477596061713894 0.631487642600443 -0.482846116944567 0.622952071332541 -0.485129977772671 0.618501267510982 -0.487230559852328 0.61386702954132 -0.491298820773752 0.60309784493762 -0.495364701460084 0.589953989788158 -0.498467681729178 0.576962556367074 -0.500306843482885 0.565421203226805 -0.501104530847336 0.555169732050312 -0.501112598855907 0.54504325318387 -0.500276605958368 0.533925362002894 -0.498410482406048 0.521720509812968 -0.495752149368046 0.510293613139774 -0.492537697169493 0.500139516593275 -0.488911989851626 0.491116812050589 -0.484288506988502 0.481723481678502 -0.477531544905669 0.470292821762887 -0.469762259102271 0.459022407006952 -0.461023233226848 0.44790549665802 -0.454450002161363 0.440879511779666 -0.449990977832824 0.43678413014716 -0.445455998179937 0.433100873494595 -0.437788197018305 0.427778982438713 -0.429733358915635 0.423140417755577 -0.393331172941395 0.404927318127236 -0.384029455979395 0.40240383414585 -0.37428118261984 0.401033924684182 -0.363049638487515 0.400272424702445 1.22177541088948 1.21812338228954 1.21982651449024 1.44122708508425 -1.22828503426615 0.187473753871162 -1.19915554101229 0.223373871542887 -1.16800137903482 0.257261912204154 -1.13504999515646 0.289327682951031 -1.10052883619994 0.319760990879587 -1.05245186987929 0.358127409825575 -0.977041346775771 0.411852370779621 -0.775384819970117 0.536984188489296 -0.53080077774905 0.67016654822565 0.0997958732518668 0.968822891603308 -1.22828502094114 -0.18747313328129 1.22180447887097 -1.44122683341487 0.0866009924965542 -0.962489857475979 -0.651532888197565 -0.606832900398608 -0.881039081241622 -0.473435572209789 -1.03390190046369 -0.371558001973434 -1.11077618124653 -0.310777500770834 -1.1613651585901 -0.26388997751037 -1.19604956418238 -0.226906496028546 1.2236680220632 -1.22452884266386 1.22190927602848 -1.23082914208743 1.21704888865976 -1.24459783253729 1.215717360785 -1.25140821883677 1.21526357693379 -1.2595278081763 1.21660450733221 -1.29189228063171 1.21649289031751 -1.38043939185659 1.2158042176934 -1.39783617668055 1.21559620219158 -1.40536197468229 1.21576074656333 -1.41122879151806 1.21631724274633 -1.41640623268074 1.21733206832225 -1.42138717087258 1.22096135966978 -1.4346788116896 36 35 123 36 123 37 34 123 35 38 37 123 33 123 34 32 123 33 39 38 123 31 123 32 30 123 31 40 39 123 29 123 30 28 123 29 27 123 28 26 123 27 25 123 26 24 123 25 23 123 24 22 123 23 21 123 22 20 123 21 19 123 20 18 124 123 18 123 19 111 110 120 111 120 128 17 124 18 16 124 17 15 124 16 112 111 128 112 128 127 14 124 15 13 124 14 12 124 13 11 124 12 122 1 40 122 40 123 10 124 11 10 125 124 113 112 127 113 127 126 114 113 126 115 126 125 115 114 126 116 115 125 116 125 10 140 122 121 140 121 141 139 122 140 138 122 139 137 122 138 136 122 137 135 122 136 134 122 135 133 122 134 132 122 133 131 122 132 99 117 116 100 99 116 98 117 99 101 100 116 97 117 98 102 10 9 102 116 10 102 101 116 96 117 97 103 9 8 103 102 9 95 117 96 94 117 95 2 130 129 2 131 130 2 122 131 93 117 94 104 8 7 104 103 8 92 117 93 105 6 5 105 7 6 105 104 7 91 117 92 106 105 5 106 5 4 90 117 91 107 4 3 107 106 4 89 117 90 71 107 3 88 117 89 87 117 88 118 117 87 118 83 82 118 84 83 118 85 84 118 86 85 118 87 86 81 118 82 80 118 81 79 118 80 78 118 79 77 118 78 76 118 77 75 118 76 74 118 75 73 118 74 72 118 73 41 71 3 119 118 72 58 56 57 59 42 56 59 56 58 70 43 42 70 42 59 69 44 43 69 43 70 60 41 55 60 71 41 68 44 69 68 45 44 67 46 45 67 45 68 61 54 53 61 55 54 61 60 55 66 47 46 66 46 67 65 48 47 65 49 48 65 47 66 62 61 53 62 53 52 64 49 65 64 50 49 63 62 52 63 50 64 63 51 50 63 52 51 109 119 108 2 1 122 72 108 119 

TShapes 6
Ve
0.0187617671415585
14.31100876414 90.02630170078 -0.4316379746323
0 0

0101101
*
Ve
0.0187617671415585
14.09836915166 90.09382746913 -0.4297076350301
0 0

0101101
*
Ed
 0.0187617671415585 1 1 0
1  1 0 0 1
2  1 1 0 0 1
4 C0 2 0 1 0
6  1 1 0
0

0101000
+6 0 -5 0 *
Ed
 0.0187617671407674 1 1 0
1  2 0 0 0.223112214811031
2  2 1 0 0 0.223112214811031
4 C0 3 0 1 0
6  2 2 0
0

0101000
+6 0 -5 0 *
Wi

0101100
-4 0 +3 0 *
Fa
0  1e-07 1 0

0111000
+2 0 *

+1 0 