DBRep_DrawableShape

CASCADE Topology V3, (c) Open Cascade
Locations 0
Curve2ds 3
7 0 0  1 2 2  2.8096338564551022 0.0043251650340643266  2.8052437886744044 0.074325165034682783 
 0 2 0.070000413604327641 2
7 0 0  1 2 2  2.8096338564551022 0.0043251650340643266  2.8052437886744084 0.074325165034682783 
 0 2 0.070000413604327641 2
7 0 0  1 2 2  6.326746986571524 0.074325165031254414  6.3318127351798683 0.0043251650306324052 
 0 2 0.070000413604327641 2
Curves 2
1 -32.771544274340002 -1.328385643521 -1.288965032179 -0.70735035939520041 -0.70685484697050049 0.0034197043426680016 
1 -32.771544274340002 -1.328385643521 -1.288965032179 -0.70735035939520041 -0.70685484697050049 0.0034197043426650018 
Polygon3D 0
PolygonOnTriangulations 2
3 1 4 5 
p 0.0166666666666667 1 0 0.0233334712014425 0.0700004136043276 
3 7 8 3 
p 0.0166666666666667 1 0 0.0233334712014425 0.0700004136043276 
Surfaces 3
2 -32.7353090362 -1.3585041746099999 -1.3051387818939999 -0.70710678118304759 -0.70710678119004766 0 0.70710678119004766 -0.70710678118304759 0 0 0 1 0.050000000003599998
1 -32.7843293305 -1.365098062043 -1.2600000000060001 -0.58834840540551736 0.58834840540021727 0.55470019625001632 -0.39223227031874536 0.39223227026904522 -0.83205029432131894 -0.70710678117055825 -0.70710678120253689 2.7162134118922271e-11 
2 -32.790923217930001 -1.4141183563440001 -1.291010205152 0.70710678118849757 0.70710678118459758 0 -0.70710678118459758 0.70710678118849757 0 0 -0 1 0.049999999997869998
Triangulations 2
6 4 1 0 0.00164071494633236
-32.77154427434 -1.328385643521 -1.288965032179 -32.7614603253338 -1.33846959252938 -1.2657806300555 -32.75137637632 -1.348553541537 -1.242596227932 -32.7880492135803 -1.34487902073639 -1.2888852386062 -32.82105909206 -1.377865775168 -1.288725651461 -32.80087385101 -1.398051016218 -1.242596227931 0.0334854472047331 -0.0350000000004209 0.00628435816887888 -0.0349999999979663 -0.0209167308696208 -0.0350000000013414 0.0334235899390948 -0.0116666666668791 0.0332998754075226 0.0350000000013716 -0.0209167308657144 0.0350000000021116 6 3 2 4 2 1 4 6 2 5 6 4 
12 10 1 0 0.00634153961739791
-32.75958059316 -1.340349324701 -1.331010205153 -32.811600316 -1.387324551231 -1.327916992577 -32.82105909206 -1.377865775168 -1.288725651461 -32.820827929297 -1.37809693793041 -1.29828668899026 -32.8208952668044 -1.37802960041923 -1.30984925248016 -32.8189995326896 -1.37992533453292 -1.31575188409046 -32.77154427434 -1.328385643521 -1.288965032179 -32.7880492135803 -1.34487902073639 -1.2888852386062 -32.7680256286807 -1.33190428917854 -1.31918361534373 -32.7701729305892 -1.32975698727077 -1.31422507612185 -32.7711862022456 -1.32874371561228 -1.30294073285681 -32.7712308632175 -1.32869905464065 -1.29438189616752 5.40310822339232 0.0743251650291761 5.45043204565212 0.00432516502854341 6.33181273517987 0.00432516503063241 6.19960563174469 0.00432516503031906 6.00800512274396 0.00432516502986494 5.8250188386984 0.00432516502943123 6.32674698657152 0.0743251650312544 6.32843556944097 0.0509918316977137 5.81361434036086 0.0743251650300998 5.9504497126837 0.0743251650304077 6.13859834962761 0.074325165030831 6.25311197198613 0.0743251650310887 9 1 2 9 2 6 10 6 5 10 9 6 11 5 4 11 10 5 12 11 4 8 4 3 8 12 4 7 12 8 

TShapes 6
Ve
0.00724753242622926
-32.77154427434 -1.328385643521 -1.288965032179
0 0

0101101
*
Ve
0.00556240310618934
-32.82105909206 -1.377865775168 -1.288725651461
0 0

0101101
*
Ed
 0.00198930343253722 1 1 0
1  1 0 0 0.0700004136043276
2  1 1 0 0 0.0700004136043276
4 C0 2 0 1 0
6  1 1 0
0

0101000
+6 0 -5 0 *
Ed
 0.00303627754796668 1 1 0
1  2 0 0 0.0700004136043276
2  2 1 0 0 0.0700004136043276
2  3 3 0 0 0.0700004136043276
4 C0 1 0 3 0
6  2 2 0
0

0101000
+6 0 -5 0 *
Wi

0101100
-4 0 +3 0 *
Fa
0  1e-07 1 0

0111000
+2 0 *

-1 0 