DBRep_DrawableShape

CASCADE Topology V3, (c) Open Cascade
Locations 0
Curve2ds 2
7 0 0  1 2 2  0.7537324431883784 0.0071119991364128055  1.0521013238120032 0.37382850263361433 
 0 2 1 2
7 0 0  1 2 2  1.0521013238120032 0.37382850263361433  0.75373244316153865 0.0071119991364270163 
 0 2 0.36684879602694653 2
Curves 2
7 0 0  3 4 2  -22.065078976063159 65.257799999988592 0.089879367143141389  -22.065078976063159 65.139266666037187 0.089879367143141389  -22.059907728173517 65.009616830417386 0.098264079688668793  -22.059907728173517 64.89108349649139 0.098264079688668793 
 0 4 1 4
1 -22.059907728173517 64.89108349649139 0.098264079688668793 -0.014096401425069864 0.99963938131679042 -0.022856044877609786 
Polygon3D 0
PolygonOnTriangulations 2
3 2 7 6 
p 0.0166666666666667 1 0 0.5 1 
3 3 4 5 
p 0.0166666666666667 1 0 0.122282932008982 0.366848796026947 
Surfaces 3
2 -22.08800000000004 65.264911999125005 0.11429999999999998 0 -1 0 0 0 -1 1 0 0 0.038100000000000002
1 -22.049900000000036 65.079999999074204 0.45719999994437399 1 0 0 -0 1 0 0 -0 1 
1 -22.850000000000041 64.877003199988593 0.076200000000000004 0 0 1 0 -1 0 1 0 -0 
Triangulations 2
7 5 1 0 0.00994390475105078
-22.0519593860718 65.2577999999886 0.242534354739033 -22.0650789760632 65.2577999999886 0.0898793671431414 -22.052567 65.2577999999886 0.675230267354646 -22.0499 65.2577999999886 0.8000999999873 -22.0499005054854 64.902200096661 0.800099999928118 -22.0599077281735 64.8910834964914 0.0982640796886688 -22.0624933521183 65.0744417482305 0.0940717234159051 0.177800000914402 -0.21466564520534 0.177800000914388 -0.367320632801233 0.177800000914402 0.218030267410272 0.177800000914747 0.3429000000268 -0.177799902413199 0.342899999983744 -0.188916502582813 -0.358935920255705 -0.00555825084374107 -0.363128276528469 1 7 2 1 6 7 5 6 1 3 5 1 4 5 3 
22 20 1 0 0.0220616963428259
-23.6375016 64.2420031999886 0.08255 -22.0624984 64.2420031999886 0.08255 -22.0599077281735 64.8910834964914 0.0982640796886688 -22.0616314774705 65.0133223309904 0.0954691755069058 -22.0650789760632 65.2577999999886 0.0898793671431414 -22.0624984 65.5120031999886 0.08255 -22.1608269615975 65.5120031999886 0.0846666666666582 -22.1701883692778 65.5120031999886 0.0841559573333257 -22.1826702461853 65.5120031999886 0.0824565029135756 -22.1951521230929 65.5120031999886 0.0806173673086405 -22.2017689813182 65.5120031999886 0.0799679796662691 -22.207634 65.5120031999886 0.079756 -23.492366 65.5120031999886 0.079756 -23.5017274076803 65.5120031999886 0.0802667093333351 -23.5142092845878 65.5120031999886 0.081966163753094 -23.5266911614954 65.5120031999886 0.0838052993580387 -23.5333080197207 65.5120031999886 0.0844546870004108 -23.5391730384025 65.5120031999886 0.0846666666666836 -23.6375016 65.5120031999886 0.08255 -23.63870048 65.2578330641084 0.0920542181936592 -23.6400898920396 64.8966634191898 0.098259312996983 -23.6396267546932 65.0170533008293 0.0961909480625531 0.634999999999991 -0.787501599999999 0.634999999999991 0.787501600000002 -0.0140802965027973 0.790092271826524 -0.13631913100186 0.788368522529491 -0.380796799999999 0.784921023936882 -0.635000000000005 0.787501600000002 -0.635000000000005 0.689173038402501 -0.635000000000005 0.679811630722245 -0.635000000000005 0.66732975381471 -0.635000000000005 0.654847876907104 -0.635000000000005 0.64823101868179 -0.635000000000005 0.642366000000003 -0.635000000000005 -0.642365999999999 -0.635000000000005 -0.651727407680256 -0.635000000000005 -0.664209284587791 -0.635000000000005 -0.676691161495398 -0.635000000000005 -0.683308019720673 -0.635000000000005 -0.689173038402497 -0.635000000000019 -0.787501600000038 -0.380829864119804 -0.788700480000241 -0.0196602192011994 -0.790089892039369 -0.140050100840734 -0.789626754693121 20 13 14 20 14 15 20 15 16 20 16 17 20 17 18 20 18 19 22 13 20 5 6 7 5 7 8 5 8 9 5 9 10 5 10 11 5 11 12 4 12 13 4 22 21 4 13 22 4 5 12 3 21 1 3 4 21 2 3 1 

TShapes 6
Ve
0.0220643003294657
-22.0650789760632 65.2577999999886 0.0898793671431414
0 0

0101101
*
Ve
0.023198078935424
-22.0599077281735 64.8910834964914 0.0982640796886688
0 0

0101101
*
Ed
 0.0151791278528831 1 1 0
1  1 0 0 1
2  1 1 0 0 1
4 C0 2 0 1 0
6  1 1 0
0

0101000
+6 0 -5 0 *
Ed
 0.0220643003294657 1 1 0
1  2 0 0 0.366848796026947
2  2 1 0 0 0.366848796026947
4 C0 3 0 1 0
6  2 2 0
0

0101000
+5 0 -6 0 *
Wi

0101100
+4 0 +3 0 *
Fa
0  1e-07 1 0

0111000
+2 0 *

+1 0 