DBRep_DrawableShape

CASCADE Topology V3, (c) Open Cascade
Locations 0
Curve2ds 3
7 0 0  1 2 2  2.8096338564597869 0.0043251650332590819  2.8052437886919179 0.074325165036002172 
 0 2 0.070000413606448389 2
7 0 0  1 2 2  2.8096338564597869 0.0043251650332590819  2.805243788691957 0.074325165036000063 
 0 2 0.070000413606448375 2
7 0 0  1 2 2  6.3267469865736814 0.074325165029256013  6.3318127351698399 0.0043251650265160313 
 0 2 0.070000413606448375 2
Curves 2
1 32.478455725659998 -33.578385643520001 -1.288965032171 -0.70735035939666979 -0.70685484696906986 0.0034197043344388542 
1 32.478455725659998 -33.578385643520001 -1.288965032171 -0.70735035939676971 -0.70685484696896972 0.0034197043344448533 
Polygon3D 0
PolygonOnTriangulations 2
3 4 5 3 
p 0.0166666666666667 1 0 0.0233334712021495 0.0700004136064484 
3 7 8 3 
p 0.0166666666666667 1 0 0.0233334712021495 0.0700004136064484 
Surfaces 3
2 32.5146909638 -33.608504174609998 -1.3051387818860001 -0.70710678118154768 -0.70710678119154757 0 0.70710678119154757 -0.70710678118154768 0 0 0 1 0.050000000004729997
1 32.4656706695 -33.615098062050002 -1.2599999999980001 0.58834840544072087 -0.58834840538792088 -0.55470019622571975 -0.39223227022741497 0.39223227032601499 -0.83205029433751665 0.70710678119192816 0.70710678118116699 7.8721017404267321e-11 
2 32.459076782069999 -33.664118356339998 -1.291010205144 0.70710678118654757 0.70710678118654757 0 -0.70710678118654757 0.70710678118654757 0 0 -0 1 0.049999999997409998
Triangulations 2
6 4 1 0 0.00164071494265133
32.49862362368 -33.59855354154 -1.242596227922 32.44912614899 -33.64805101622 -1.242596227923 32.42894090794 -33.62786577517 -1.288725651453 32.47845572566 -33.57838564352 -1.288965032171 32.4619507864192 -33.5948790207359 -1.28888523859839 32.48853967467 -33.58846959253 -1.26578063004612 -0.020916730866044 0.0350000000063667 -0.0209167308661932 -0.0349999999963809 0.0332998754078957 -0.0350000000002262 0.0334854472116018 0.0350000000024984 0.0334235899436998 0.0116666666682569 0.006284358172465 0.0350000000044345 6 1 2 5 2 3 5 6 2 4 6 5 
12 10 1 0 0.0063415396195747
32.49041940684 -33.5903493247 -1.331010205149 32.438399684 -33.63732455123 -1.327916992569 32.42894090794 -33.62786577517 -1.288725651453 32.429172070703 -33.6280969379307 -1.29828668898226 32.4291047331955 -33.6280296004173 -1.30984925247164 32.4310004673104 -33.6299253345314 -1.31575188408246 32.47845572566 -33.57838564352 -1.288965032171 32.4619507864192 -33.5948790207359 -1.28888523859839 32.4819743713193 -33.5819042891793 -1.31918361534561 32.4798270694108 -33.5797569872708 -1.31422507612202 32.4788137977544 -33.5787437156144 -1.30294073285287 32.4787691367826 -33.5786990546426 -1.29438189616425 5.40310822317067 0.0743251650292589 5.45043204562046 0.00432516502651092 6.33181273516984 0.00432516502651603 6.19960563174368 0.00432516502651498 6.00800512274705 0.00432516502651394 5.82501883868207 0.00432516502651295 6.32674698657368 0.074325165029256 6.32843556943907 0.0509918316950094 5.81361434023868 0.0743251650292576 5.95044971259468 0.0743251650292572 6.13859834958418 0.0743251650292566 6.25311197192764 0.0743251650292562 9 1 2 9 2 6 10 6 5 10 9 6 11 5 4 11 10 5 12 11 4 8 4 3 8 12 4 7 12 8 

TShapes 6
Ve
0.00724753243051544
32.47845572566 -33.57838564352 -1.288965032171
0 0

0101101
*
Ve
0.00556240310634539
32.42894090794 -33.62786577517 -1.288725651453
0 0

0101101
*
Ed
 0.0019893034280291 1 1 0
1  1 0 0 0.0700004136064484
2  1 1 0 0 0.0700004136064484
4 C0 2 0 1 0
6  1 1 0
0

0101000
+6 0 -5 0 *
Ed
 0.00303627754983293 1 1 0
1  2 0 0 0.0700004136064484
2  2 1 0 0 0.0700004136064484
2  3 3 0 0 0.0700004136064484
4 C0 1 0 3 0
6  2 2 0
0

0101000
+6 0 -5 0 *
Wi

0101100
-4 0 +3 0 *
Fa
0  1e-07 1 0

0111000
+2 0 *

-1 0 