DBRep_DrawableShape

CASCADE Topology V3, (c) Open Cascade
Locations 0
Curve2ds 2
7 0 0  3 4 2  6.5630806358267844 0.080577838868777021  6.5630806357588005 0.080577842460252347  6.5629708184256925 0.08637989417010887  6.5626707920474532 0.10223138601999437 
 0.78867520000000002 4 0.99999999999997802 4
7 0 0  3 25 23  6.5626707920474532 0.10223138601999437  6.5626199104891452 0.10492041310577588  6.5625291006053779 0.10972007573879762  6.5624233797504434 0.11530880318060305  6.5623457853446432 0.11941117222250996  6.562293956144547 0.12215159097258388  6.5622655339270066 0.12365446753860837  6.562258163336228 0.1240442100285753  6.5622694910132866 0.12344522655035155  6.5622971650050053 0.12198192521183995  6.562338834189946 0.11977871412101017  6.5623921478022682 0.11696000138569831  6.5624547550246675 0.11365019511386767  6.5625243046438069 0.10997370341344706  6.5625984448107344 0.1060549343922908  6.562674822834011 0.10201829615832943  6.5627510850944173 0.097988196819519605  6.5628248769924324 0.094089044483722337  6.562893842999145 0.09044524725889877  6.562955626774146 0.087181213252876491  6.5630078713442277 0.084421350573661139  6.5630482194051165 0.082290067329105515  6.5630743135519722 0.080911771627155266  6.563080635904365 0.080577838259523721  6.5630806358267826 0.080577838868777008 
 0.99999999999997802 4 1.0358488727272517 1 1.0716977454545256 1 1.1075466181817992 1 1.1433954909090729 1 1.1792443636363468 1 1.2150932363636204 1 1.2509421090908941 1 1.286790981818168 1 1.3226398545454416 1 1.3584887272727153 1 1.394337599999989 1 1.4301864727272628 1 1.4660353454545365 1 1.5018842181818102 1 1.5377330909090841 1 1.5735819636363577 1 1.6094308363636314 1 1.6452797090909053 1 1.6811285818181789 1 1.7169774545454526 1 1.7528263272727265 1 1.7886752000000001 4
Curves 1
7 0 1  3 3 2  49.645581292919999 99.894003488929997 -0.0362174391225  49.645584129260001 99.969013576590001 -0.036201681681950003  49.645578456579997 99.818993401270006 -0.036233196563059997 
 0 3 1 3
Polygon3D 0
PolygonOnTriangulations 0
Surfaces 2
2 49.637039291359997 99.791772102910002 -0.040000000000000001 0 1 0 0.76718739504262401 -0 0.64142302803041995 0.64142302803041995 0 -0.76718739504262401 0.0099999999994510001
1 49.431405623019998 101.2375003052 -1.2388576498849999 0.98418332397358166 0 -0.1771529983158967 0.1771529983158967 0 0.98418332397358166 0 -1 0 
Triangulations 0

TShapes 6
Ve
0.22393548569054
49.6451315367221 99.79967713355 -0.0341443868203946
0 0

0101101
*
Ve
0.121858367688443
49.64558129292 99.89400348893 -0.036217439122501
0 0

0101101
*
Ed
 0.00226321914755458 1 1 0
1  1 0 0.7886752 0.999999999999978
2  1 1 0 0.7886752 0.999999999999978
4 C0 2 0 1 0
0

0101000
+6 0 -5 0 *
Ed
 0.00226321914755458 1 1 0
1  1 0 0.999999999999978 1.7886752
2  2 1 0 0.999999999999978 1.7886752
4 C0 2 0 1 0
0

0101000
+5 0 -6 0 *
Wi

0101100
+4 0 +3 0 *
Fa
0  1e-07 1 0

0111000
+2 0 *

+1 0 