DBRep_DrawableShape

CASCADE Topology V3, (c) Open Cascade
Locations 0
Curve2ds 2
7 0 0  1 2 2  -0.017155197617608309 0.22816998790000298  0.21973677042921924 0.0040504550000122208 
 0 2 0.22413050470816465 2
7 0 0  1 2 2  -0.017155197617608309 0.22816998790000298  0.21973677042945372 0.0040504550000122208 
 0 2 0.22413050470816465 2
Curves 2
1 15.5544756589 102.45505790919999 -0.034386249940099999 -0.00043064894428700997 0.99995104723392325 -0.0098852252006192288 
1 15.5544756589 102.45505790919999 -0.034386249940099999 -0.00043064894429500997 0.99995104723392325 -0.0098852252006192288 
Polygon3D 0
PolygonOnTriangulations 2
3 42 43 33 
p 0.0166666666666667 1 0 0.0747101682360549 0.224130504708165 
3 25 26 24 
p 0.0166666666666667 1 0 0.0747101682360549 0.224130504708165 
Surfaces 3
2 15.56096070864 102.6832278971 -0.040000000000000001 0 -1 0 -0.76718739504239408 0 0.64142302803069506 -0.64142302803069506 -0 -0.76718739504239408 0.0099999999994469999
1 17.099 102.9148512269 -0.029999999999999999 0 0 1 1 0 -0 -0 1 0 
1 15.766594376980001 101.23750037569999 -1.238857649893 0.98418332397358166 0 0.1771529983158967 -0.1771529983158967 0 0.98418332397358166 0 -1 0 
Triangulations 2
63 61 1 0 0.00512026740475153
18.33748169413 102.4568134481 -0.03195632349633 18.64229486828 102.456520455 -0.03291088838896 18.64396339297 102.6791772627 -0.0360407621718 18.61061750873 102.7451605209 -0.03 18.6161016356101 102.739228241496 -0.0300894927729156 18.6194441908599 102.735052359831 -0.030165727357251 18.6245922801149 102.726873544153 -0.0300414932198154 18.6277340207282 102.719505937438 -0.0295138058907346 18.6308395749554 102.710776646899 -0.0292032543393903 18.6329117872075 102.705650578891 -0.0296097383033955 18.6374199386948 102.697052127525 -0.0317717595411706 18.6419057995042 102.688296432319 -0.0346197393756976 15.58738249429 102.7451605239 -0.03 15.7105445241335 102.859295033408 -0.03 15.8422954213064 102.963397256717 -0.03 15.9818201860849 103.056823226431 -0.03 16.1282557301446 103.138995017452 -0.03 16.2806962156684 103.209404322071 -0.03 16.4381986587822 103.267615594319 -0.03 16.599788762773 103.313268744219 -0.03 16.7644669450053 103.346081365271 -0.03 16.9312145202543 103.365850481391 -0.03 17.0990000022061 103.37245380251 -0.03 17.2667854841443 103.365850481045 -0.03 17.4335330593524 103.34608136458 -0.03 17.5982112415169 103.313268743188 -0.03 17.7598013454134 103.267615592953 -0.03 17.9173037884069 103.209404320379 -0.03 18.0697442737852 103.138995015446 -0.03 18.216179817675 103.056823224122 -0.03 18.3557045822604 102.96339725412 -0.03 18.4874554792182 102.859295030539 -0.03 15.55437913734 102.6791774421 -0.03660183045289 15.5560172499742 102.687403051009 -0.0352814643623118 15.5584001692465 102.692716575556 -0.0334775073990528 15.5630275221771 102.701328456383 -0.03046296490692 15.5662415290146 102.708470633943 -0.0292297178478965 15.5687228054343 102.71530253904 -0.0291994138355327 15.5707446524981 102.720852780392 -0.0296034624344337 15.5749636881525 102.729617650917 -0.0301595704178579 15.5806633810261 102.737688141325 -0.0301310512063558 15.5544756589 102.4550579092 -0.0343862499401 15.5544434850449 102.529764420167 -0.0351247767778895 15.86051830174 102.4568134481 -0.03195632349633 18.2372244387774 102.551402390643 -0.02999999999999 18.1295365913738 102.637460249081 -0.02999999999999 18.0153684039645 102.714714714719 -0.02999999999999 17.8954378022189 102.782679987045 -0.02999999999999 17.7704989476903 102.840928678931 -0.02999999999999 17.6413374954092 102.889094504181 -0.02999999999999 17.5087656534365 102.926874580852 -0.02999999999999 17.3736170754418 102.954031335875 -0.02999999999999 17.2367416184259 102.970393998985 -0.02999999999999 17.0989999985509 102.975859676582 -0.02999999999999 16.9612583786851 102.970393998756 -0.02999999999999 16.8243829216965 102.954031335418 -0.02999999999999 16.689234343747 102.926874580169 -0.02999999999999 16.5566625018373 102.889094503276 -0.02999999999999 16.4275010496365 102.840928677811 -0.02999999999999 16.302562195205 102.782679985717 -0.02999999999999 16.1826315935727 102.714714713191 -0.02999999999999 16.0684634062922 102.637460247363 -0.02999999999999 15.9607755590321 102.551402388745 -0.02999999999999 1.23875477093325 -0.457768928464838 1.54329486828 -0.458330771899995 1.54496339297 -0.235673964200004 1.51161750870883 -0.169690706021109 1.51710163561009 -0.175622985404316 1.52044419085994 -0.179798867069384 1.52559228011494 -0.187977682747434 1.52873402072817 -0.195345289461786 1.53183957495544 -0.204074580001044 1.53391178720753 -0.209200648008978 1.53841993869476 -0.217799099374857 1.54290579950418 -0.226554794580817 -1.51161750571 -0.169690703000001 -1.38845547586647 -0.0555561934915483 -1.25670457869358 0.0485460298167791 -1.11717981391509 0.141971999531343 -0.970744269855408 0.224143790552005 -0.818303784331605 0.294553095170542 -0.660801341217765 0.352764367418884 -0.499211237226961 0.398417517319413 -0.334533054994681 0.431230138370934 -0.167785479745684 0.450999254491263 2.20612772494633e-09 0.457602575610001 0.167785484144293 0.450999254144505 0.334533059352433 0.431230137679563 0.499211241516901 0.398417516287705 0.660801345413354 0.352764366053222 0.81830378840689 0.294553093479374 0.970744273785181 0.224143788545792 1.11717981767504 0.141971997222496 1.25670458226045 0.0485460272195793 1.3884554792182 -0.0555561963610347 -1.54462086266524 -0.235673784800014 -1.5429827500258 -0.227448175890735 -1.54059983075353 -0.222134651343546 -1.53597247782288 -0.213522770517327 -1.53275847098544 -0.206380592957303 -1.53027719456566 -0.199548687860194 -1.52825534750187 -0.193998446508101 -1.5240363118475 -0.185233575982554 -1.51833661897388 -0.177163085575151 -1.5445243411 -0.459793317700004 -1.54455651495508 -0.385086806733341 -1.23875477296649 -0.457768930530042 1.13822443877741 -0.363448836257481 1.03053659137384 -0.27739097781938 0.916368403964533 -0.200136512181192 0.796437802218948 -0.132171239855472 0.671498947690301 -0.0739225479694117 0.542337495409235 -0.0257567227194149 0.409765653436501 0.0120233539523435 0.274617075441809 0.0391801089753641 0.137741618425899 0.0555427720854222 -1.44906020516089e-09 0.0610084496819996 -0.137741621314907 0.055542771855785 -0.274617078303538 0.0391801085175341 -0.409765656252955 0.0120233532691996 -0.542337498162703 -0.0257567236235772 -0.67149895036347 -0.0739225490889062 -0.796437804795007 -0.13217124118326 -0.916368406427284 -0.200136513708923 -1.03053659370779 -0.277390979537448 -1.13822444096789 -0.363448838155081 35 34 33 36 35 33 44 37 36 44 43 42 44 33 43 44 36 33 41 39 38 41 40 39 13 38 37 13 37 44 13 41 38 63 13 44 14 13 63 62 14 63 15 14 62 61 15 62 16 15 61 60 16 61 17 16 60 59 17 60 18 17 59 18 59 58 19 18 58 19 58 57 20 19 57 20 57 56 21 20 56 21 56 55 22 21 55 22 55 54 23 22 54 24 23 54 24 54 53 25 24 53 25 53 52 26 52 51 26 25 52 27 51 50 27 26 51 28 27 50 28 50 49 29 49 48 29 28 49 30 29 48 30 48 47 31 47 46 31 30 47 3 1 2 11 3 12 10 1 3 10 3 11 32 31 46 32 46 45 6 8 7 5 8 6 4 9 8 4 10 9 4 45 1 4 1 10 4 32 45 4 8 5 
132 130 1 0 0.0296442309189124
15.5573531583774 99.7972594601462 -0.0306840107312351 15.6062312859545 99.9980412676755 -0.319049512636488 15.7025151487162 100.171385364044 -0.876025738155798 15.7527879763377 100.275820267326 -1.16318445915451 15.8182814137126 100.443965977375 -1.52782019462635 15.9000408831671 100.68830516231 -1.98001718356715 15.9392614588215 100.823975802563 -2.19815430808609 15.9516439071669 100.873333391604 -2.26695972726194 15.9644934151696 100.931934715664 -2.33832957364686 15.9729547982704 100.977012543968 -2.38531929968776 15.9787683166876 101.012427702625 -2.41760607142804 15.98418875361 101.0500265513 -2.447715297764 15.9841887507 101.4249734362 -2.447715281595 15.9790419255166 101.46077123882 -2.41912338206561 15.9735371896325 101.494551797997 -2.38854541527329 15.9677149682896 101.526509083043 -2.35620473295727 15.9616156867299 101.556837063272 -2.32232468685675 15.9531221995463 101.595075151686 -2.27514276621214 15.9398027978877 101.648653599434 -2.20114129855685 15.9150634705419 101.737448659819 -2.06364012211495 15.8873761346396 101.82755215637 -1.90978175174474 15.8183114329098 102.025739933834 -1.52643727419698 15.7221703621715 102.27624529815 -0.984736657777798 15.55437913734 102.6791774421 -0.03660183045289 15.5544756589 102.4550579092 -0.0343862499401 15.5544434850449 102.529764420167 -0.0351247767778895 15.83683222174 101.9299466682 -1.629067898566 15.839575252177 101.924530941281 -1.64430695654278 15.8415909363513 101.919765131839 -1.65550520196035 15.8426032267699 101.916884135239 -1.66112903762135 15.8439329036312 101.912075165559 -1.66851613129636 15.8489006378542 101.884457956921 -1.69611465474453 15.8496565608533 101.879964249267 -1.70031422695935 15.850329633753 101.875544572003 -1.70405352084446 15.8512019513076 101.868987337273 -1.7088997294779 15.8521320143324 101.860451765991 -1.71406674627895 15.8525366071256 101.856000962161 -1.71631448401714 15.8529087315391 101.851366724183 -1.71838184186801 15.8536294361578 101.840597539581 -1.72238575641403 15.8543497191108 101.827453684429 -1.72638732837571 15.8548994213671 101.814462251006 -1.72944122980294 15.8552252343837 101.802920897867 -1.73125130212234 15.8553665470893 101.792669426698 -1.73203637271565 15.8553679763586 101.782542947841 -1.73204431310711 15.8552198777076 101.77142505667 -1.73122154283026 15.8548892883228 101.759220204481 -1.72938493514163 15.8544183566514 101.747793307767 -1.72676864807886 15.8538489068026 101.737639211183 -1.72360503780792 15.8532066018758 101.728616506611 -1.72003667710326 15.8523875380208 101.719223176245 -1.71548632235459 15.8511905219248 101.707792516342 -1.70883623293434 15.8498141696469 101.696522101597 -1.70118983139266 15.8482660250073 101.685405191248 -1.692589027839 15.8471015574135 101.678379206381 -1.68611976342771 15.8463116278839 101.674283824761 -1.68173126603958 15.8455082426409 101.67060056812 -1.6772680146882 15.8441498686747 101.665278677083 -1.6697214926513 15.8427229299546 101.66064011242 -1.66179405531515 15.8362741735846 101.642427012869 -1.6259676310231 15.8346263465349 101.639903528902 -1.61681303630399 15.8328994106817 101.638533619449 -1.60721894823493 15.8309097089654 101.637772119472 -1.59616504981831 15.82837232374 101.6375 -1.582068465244 15.60684568113 101.6375 -0.3513648951449 15.5924048406275 101.583228628366 -0.271138002383953 15.5812153416828 101.533938621014 -0.208974119038498 15.5734140677565 101.493747267621 -0.165633708398028 15.5673635806186 101.457399837295 -0.132019891176368 15.563139543336 101.427853447915 -0.10855301761167 15.5597704877186 101.400423595191 -0.0898360421791787 15.5571853861729 101.375685853066 -0.075474367104776 15.5552219264678 101.353386854867 -0.064566257759605 15.5536033869295 101.331060112751 -0.0555743715144093 15.5528402304369 101.318408339986 -0.0513346132382 15.55218808643 101.3057503081 -0.04771159097041 15.5496408001234 101.261621544832 -0.0330032225960303 15.54900000615 101.2375 -0.02999989752989 15.5496429692762 101.213308775051 -0.0330120509922339 15.55218808642 101.1692496919 -0.04771159095162 15.5532965452527 101.148808290426 -0.0538696955702195 15.5546943456493 101.128384745202 -0.0616352532660995 15.5563808233814 101.107983070138 -0.0710045738933721 15.5583553142206 101.087607279144 -0.0819739673061492 15.5606171539383 101.067261386131 -0.0945397433585429 15.5631656783062 101.046949405008 -0.108698211904665 15.5660002230957 101.026675349686 -0.124445682798628 15.5691201240785 101.006443234076 -0.141778465894544 15.5737227314181 100.979539257101 -0.167348506528873 15.5795036747039 100.94938178106 -0.199464858056058 15.5859209404541 100.919353289343 -0.235116334529353 15.5929722868978 100.8894673289 -0.274290481706387 15.5996673870718 100.863419247564 -0.311485483091302 15.60684568113 100.8375 -0.3513648951447 15.82837232374 100.8375 -1.582068465244 15.8312819561546 100.83713128551 -1.59823308975174 15.8334643883911 100.836112784083 -1.61035771327827 15.8345879974826 100.83513771042 -1.61659998600511 15.8361237340304 100.832879629811 -1.62513185571384 15.8423921006913 100.815331636962 -1.6599561149573 15.8433822530037 100.812319870662 -1.66545696113851 15.8442863133185 100.809231177185 -1.67047951844441 15.8457215639665 100.803464644086 -1.6784531331577 15.8464091609613 100.800237399295 -1.68227311646373 15.847062105893 100.796837561429 -1.68590058830773 15.8481897264641 100.790093114641 -1.69216514703792 15.8497479971058 100.778985252343 -1.70082220615989 15.8511318190239 100.767721512065 -1.7085101057038 15.8523375626699 100.756298650632 -1.71520868151325 15.853164615784 100.746912459038 -1.71980342103486 15.8538466185187 100.737396658224 -1.72359232511711 15.8543912744038 100.727758131654 -1.72661819114612 15.8548497477959 100.716917574631 -1.72916526554637 15.8551959882846 100.704726707426 -1.7310888238137 15.8553571816525 100.693926595478 -1.73198434251844 15.8553751603901 100.683809192103 -1.73208422438787 15.8552547214611 100.673568106149 -1.73141511922146 15.854989065444 100.663197262016 -1.72993925245494 15.8545891762832 100.652706474367 -1.72771764600346 15.8540699300095 100.642109035626 -1.72483294448219 15.85344514572 100.631417293796 -1.72136192065234 15.8527577037869 100.621682911294 -1.71754279880453 15.8522466229623 100.615754164143 -1.71470346089262 15.8517224639243 100.610541857758 -1.71179146623946 15.8511627853924 100.605693141905 -1.70868214106445 15.8501673010336 100.598345934061 -1.70315167240896 15.8489583625709 100.590872579141 -1.69643534762121 15.8458820059278 100.573828278475 -1.67934447739161 15.8445181411497 100.565713420122 -1.67176745084891 15.843145205477 100.559889183898 -1.66414003044467 15.8417046734049 100.555537032101 -1.65613707448722 15.8396544793907 100.550640119206 -1.64474710773891 15.83683222174 100.5450533318 -1.629067898566 1.26008901389353 1.35911643247726 0.933668632337429 1.23945910802452 0.368444944353907 1.06611501165589 0.0769221376664346 0.961680108374104 -0.293548631310768 0.793534398325067 -0.753077302131957 0.549195213389638 -0.974712264995895 0.413524573136751 -1.04462299899867 0.364166984096478 -1.11714034051482 0.305565660035773 -1.16488580466856 0.260487831732017 -1.19769178921867 0.225072673074517 -1.22828503432742 0.187473824400001 -1.22828501790047 -0.187473060500011 -1.19923357166987 -0.223270863120389 -1.16816406620504 -0.257051422297072 -1.13530348201593 -0.289008707343164 -1.10087879961247 -0.319336687571765 -1.05293849340027 -0.357574775985586 -0.977747911044769 -0.411153223733699 -0.838038900148287 -0.499948284118926 -0.681709163205701 -0.590051780669826 -0.292192902076606 -0.788239558134218 0.257971490131968 -1.03874492245005 1.22083469463406 -1.44167706639999 1.22299813292866 -1.21755753354594 1.22227698684039 -1.29226404446666 -0.396481264367269 -0.692446292500009 -0.411965227182234 -0.687030565580602 -0.423343438075095 -0.682264756139464 -0.42905765363225 -0.679383759539511 -0.436563464282599 -0.674574789858577 -0.464605519839024 -0.646957581221297 -0.468872582806453 -0.642463873566604 -0.472671970373878 -0.638044196303081 -0.477596061765688 -0.631486961573227 -0.482846116989446 -0.622951390290541 -0.485129977814453 -0.618500586461246 -0.487230559891553 -0.613866348482955 -0.491298820802464 -0.603097163880575 -0.495364701481596 -0.589953308729078 -0.498467681742226 -0.576961875305759 -0.500306843486931 -0.5654205221673 -0.501104530842523 -0.555169050997873 -0.501112598842719 -0.545042572141286 -0.500276605936707 -0.533924680969566 -0.498410482376155 -0.521719828781396 -0.495752149320647 -0.510292932066824 -0.492537697100337 -0.500138835482797 -0.488911989757266 -0.491116130911156 -0.484288506877743 -0.481722800545021 -0.477531544776947 -0.470292140642366 -0.469762258958467 -0.459021725896636 -0.461023233063444 -0.447904815548144 -0.454450001985796 -0.440878830680568 -0.44999097765446 -0.436783449060767 -0.445455997999137 -0.43310019242019 -0.437788196835467 -0.427778301383426 -0.429733358734721 -0.423139736719617 -0.393331172862521 -0.404926637169379 -0.384029455899669 -0.40240315320248 -0.374281182549074 -0.401033243749233 -0.363049638437745 -0.400271743772263 -0.348726509574164 -0.399999624299994 0.901755529817338 -0.399999624300008 0.983271738000106 -0.345728252666211 1.04643464862984 -0.296438245314474 1.09047157710308 -0.256246891920585 1.12462559740549 -0.21989946159474 1.14846960390327 -0.190353072215392 1.16748737730328 -0.162923219491402 1.1820798569056 -0.138185477365958 1.19316326899303 -0.115886479166721 1.20229966261871 -0.0935597370514025 1.20660755747269 -0.0809079642862727 1.21028880483719 -0.0682499324000077 1.22218155564452 -0.0233191080928234 1.22828513614115 3.75699997334777e-07 1.22216361518992 0.0233871858714287 1.21028880485745 0.0682506837999881 1.20403173417882 0.0886920852739044 1.19614137726187 0.109115630497969 1.18662148355671 0.129517305561985 1.17547580251345 0.149893096555753 1.16270808358219 0.170238989569076 1.14832207621305 0.190550970691756 1.13232152985612 0.210825026013594 1.11471019396152 0.231057141624392 1.0887292206856 0.257961118599052 1.0560967316495 0.288118594640454 1.0198723051608 0.318147086356559 0.980068595613614 0.348033046800447 0.942275838445561 0.374081128135706 0.901755529817535 0.400000375699989 -0.34872650957318 0.400000375699989 -0.365150913559209 0.400369090189571 -0.377470390257806 0.401387591616644 -0.383812981698743 0.402362665280207 -0.392481965922469 0.404620745889029 -0.427865881088132 0.422168738737517 -0.433455130618354 0.425180505037822 -0.438558404757944 0.428269198514799 -0.446660162346183 0.434035731614301 -0.450541536083102 0.437262976404849 -0.454227304532537 0.44066281427089 -0.460592540131971 0.447407261058632 -0.469388725670838 0.458515123357184 -0.477200176400266 0.469778863634763 -0.484006404108393 0.481201725068429 -0.488674985062481 0.490587916662279 -0.492524780105689 0.500103717475571 -0.495599274415106 0.509742244045613 -0.498187282500808 0.520582801069208 -0.500141754010929 0.532773668274257 -0.501051664474858 0.543573780222083 -0.501153151532392 0.553691183596901 -0.500473293268259 0.563932269550905 -0.498973708048277 0.574303113684076 -0.496716398462473 0.584793901332832 -0.493785337296349 0.595391340074022 -0.490258531115708 0.606083081903591 -0.486378032681253 0.615817464406157 -0.483493064156769 0.621746211556547 -0.480534271234453 0.626958517941957 -0.477374976518365 0.631807233794787 -0.471755628454946 0.639154441638737 -0.464931366527007 0.646627796558727 -0.447565831251617 0.663672097224566 -0.439867035348253 0.671786955577518 -0.432117035710552 0.677611191802125 -0.423985465338997 0.681963343598606 -0.412412451987935 0.686860256493728 -0.396481264370487 0.692447043871326 33 21 32 31 32 21 34 21 33 35 21 34 30 31 21 36 21 35 37 21 36 38 21 37 39 21 38 40 21 39 22 27 28 22 28 29 22 29 30 22 30 21 41 21 40 42 21 41 43 21 42 44 21 43 12 13 14 45 21 44 46 21 45 47 21 46 48 21 47 49 21 48 11 14 15 11 12 14 50 21 49 50 20 21 51 20 50 52 20 51 53 20 52 10 15 16 10 11 15 54 20 53 55 20 54 55 19 20 56 19 55 57 19 56 9 16 17 9 10 16 8 9 17 8 17 18 8 18 19 7 8 19 26 23 24 103 104 7 105 6 7 105 7 104 102 103 7 106 6 105 101 19 57 101 7 19 101 102 7 100 101 57 100 57 58 107 6 106 99 100 58 99 58 59 108 6 107 109 6 108 25 23 26 110 6 109 98 99 59 98 59 60 111 6 110 97 98 60 112 6 111 96 60 61 96 97 60 113 6 112 95 96 61 95 61 62 114 6 113 94 62 63 94 95 62 115 6 114 116 6 115 117 6 116 118 6 117 119 6 118 120 6 119 121 6 120 122 6 121 123 6 122 124 6 123 125 6 124 126 6 125 127 6 126 128 6 127 129 6 128 5 6 129 5 129 130 5 130 131 5 131 132 64 94 63 78 75 76 78 76 77 79 75 78 79 74 75 80 74 79 80 73 74 93 94 64 81 73 80 81 72 73 82 72 81 82 71 72 92 93 64 92 64 65 83 70 71 83 71 82 91 92 65 84 69 70 84 70 83 90 65 66 90 91 65 85 69 84 86 68 69 86 69 85 89 66 67 89 90 66 87 67 68 87 68 86 88 89 67 88 67 87 25 27 22 25 22 23 132 1 2 132 2 5 5 2 3 5 3 4 

TShapes 6
Ve
0.00660189647177319
15.5544756589 102.4550579092 -0.0343862499401
0 0

0101101
*
Ve
0.0077354817483579
15.55437913734 102.6791774421 -0.03660183045289
0 0

0101101
*
Ed
 0.00660189647177319 1 1 0
1  1 0 0 0.224130504708165
2  1 1 0 0 0.224130504708165
4 C0 2 0 1 0
6  1 1 0
0

0101000
+6 0 -5 0 *
Ed
 0.00461206097055938 1 1 0
1  2 0 0 0.224130504708165
2  2 1 0 0 0.224130504708165
4 C0 1 0 3 0
6  2 2 0
0

0101000
+6 0 -5 0 *
Wi

0101100
+4 0 -3 0 *
Fa
0  1e-07 1 0

0111000
+2 0 *

+1 0 