DBRep_DrawableShape

CASCADE Topology V3, (c) Open Cascade
Locations 0
Curve2ds 3
7 0 0  1 2 2  0.31889538377465931 0.0043251650357076787  0.3319587970771124 0.074325165035635132 
 0 2 0.070003533097522289 2
7 0 0  1 2 2  6.3151499829480811 0.0043251650357076787  6.3267469865129087 0.074325165035635132 
 0 2 0.070003533097522289 2
7 0 0  1 2 2  0.31889538377465931 0.0043251650357076787  0.33195879709674453 0.074325165035625362 
 0 2 1 2
Curves 2
1 -4.3850143737670004 2.4849442916290001 -1.2894951586059999 0.71173960003220926 0.702402586592909 0.0075728524072410965 
7 0 0  3 4 2  -4.3850143737670004 2.4849442916290001 -1.2894951586059999  -4.3685152155400004 2.5014434498560001 -1.2894951586050001  -4.351689245347 2.5176157961190002 -1.288965032181  -4.3351900871189999 2.5341149543469998 -1.288965032181 
 0 4 1 4
Polygon3D 0
PolygonOnTriangulations 2
3 3 8 9 
p 0.0166666666666667 1 0 0.0233345110325074 0.0700035330975223 
3 4 5 1 
p 0.0166666666666667 1 0 0.5 1 
Surfaces 3
2 -4.3545690307139999 2.4483822415229999 -1.3051387818939999 0.70710678118654757 0.70710678118654757 0 -0.70710678118654757 0.70710678118654757 0 0 -0 1 0.049999999999540003
2 -4.3545690307139999 2.4483822415229999 -1.291010205152 0.70710678118654757 0.70710678118654757 0 -0.70710678118654757 0.70710678118654757 0 0 -0 1 0.049999999999540003
1 -4.3479751432820004 2.4974025358260001 -1.260000000007 -0.58834840541432087 0.58834840541432087 0.55470019622571975 0.39223227027671498 -0.39223227027671498 0.83205029433751665 0.70710678118654757 0.70710678118654757 -8.1524687095804742e-18 
Triangulations 2
13 11 1 0 0.0061305886772197
-4.375246128776 2.475176046637 -1.327916992577 -4.32322640594 2.522151273167 -1.331010205152 -4.385014373767 2.484944291629 -1.289495158606 -4.38469693485739 2.48462685271877 -1.29524109107894 -4.38465523196241 2.48458514982341 -1.30829125812546 -4.38351638268137 2.48344630054237 -1.31384120370203 -4.37878315559733 2.47871307345833 -1.32225815068409 -4.36840627821778 2.50133451253511 -1.28931844979796 -4.335190087119 2.534114954347 -1.288965032181 -4.33167144145974 2.5305963086873 -1.31918361534778 -4.33381874336834 2.53274361059575 -1.31422507612502 -4.3348320150276 2.53375688225525 -1.30294073285896 -4.33487667599944 2.53380154322737 -1.29438189616571 5.45043204557848 0.00432516503500047 5.40310822333641 0.0743251650349186 6.31514998294808 0.00432516503570768 6.23547026917199 0.00432516503564251 6.03022644105912 0.00432516503547465 5.88279101426328 0.00432516503535407 5.61893796883844 0.00432516503513828 6.31901565080302 0.0276584983690168 6.32674698653179 0.0743251650356254 5.81361434031214 0.0743251650352327 5.95044971263738 0.0743251650353374 6.13859834958459 0.0743251650354814 6.25311197199583 0.074325165035569 7 2 1 10 7 6 10 2 7 11 6 5 11 10 6 12 5 4 12 11 5 8 4 3 13 12 4 13 4 8 9 13 8 
6 4 1 0 0.00164265339030694
-4.335190087119 2.534114954347 -1.288965032181 -4.32510613811237 2.52403100533988 -1.2657806300565 -4.315022189105 2.513947056332 -1.242596227932 -4.385014373767 2.484944291629 -1.289495158606 -4.36010223044337 2.50952962298763 -1.28923009539313 -4.364519663788 2.464449581649 -1.242596227932 -0.033485447205284 0.035000000000666 -0.0062843581689121 0.0350000000003126 0.0209167308680455 0.0349999999999585 -0.0341829114512098 -0.0349999999998926 -0.0338341793279365 1.76789971551017e-13 0.020916730868048 -0.0349999999999589 6 5 4 2 1 5 2 5 6 3 2 6 

TShapes 6
Ve
0.00724753242817363
-4.335190087119 2.534114954347 -1.288965032181
0 0

0101101
*
Ve
0.00501962046144576
-4.385014373767 2.484944291629 -1.289495158606
0 0

0101101
*
Ed
 0.00303627755231839 1 1 0
1  1 0 0 0.0700035330975223
2  1 1 0 0 0.0700035330975223
2  2 2 0 0 0.0700035330975223
4 C0 1 0 2 0
6  1 1 0
0

0101000
-6 0 +5 0 *
Ed
 0.00198930343433802 1 1 0
1  2 0 0 1
2  3 1 0 0 1
4 C0 3 0 1 0
6  2 2 0
0

0101000
+5 0 -6 0 *
Wi

0101100
-4 0 +3 0 *
Fa
0  1e-07 1 0

0111000
+2 0 *

-1 0 