DBRep_DrawableShape

CASCADE Topology V3, (c) Open Cascade
Locations 0
Curve2ds 2
7 0 0  3 4 2  6.0880171623051371 0.15408534677513336  6.0880171623051318 0.15408534324576392  6.0880171623051362 0.14838264108174257  6.0880171623051353 0.13280257737999079 
 0.78867520000000002 4 0.99999999999997935 4
7 0 0  3 25 23  6.0880171623051353 0.13280257737999079  6.0880171623051353 0.13015959500971441  6.0880171623051353 0.1254421179008138  6.0880171623051353 0.11994908728789277  6.0880171623051336 0.11591696388082368  6.0880171623051345 0.11322346983520759  6.0880171623051353 0.11174632730640716  6.0880171623051336 0.11136325844996293  6.0880171623051345 0.11195198542136833  6.0880171623051362 0.11339023037604259  6.0880171623051345 0.11555571546949264  6.0880171623051345 0.11832616285720447  6.0880171623051345 0.12157929469466093  6.0880171623051345 0.12519283313729224  6.0880171623051345 0.12904450034065754  6.0880171623051362 0.13301201846019359  6.0880171623051353 0.13697310965135698  6.0880171623051362 0.14080549606964723  6.0880171623051353 0.1443868998705429  6.0880171623051345 0.14759504320956354  6.0880171623051345 0.15030764824208531  6.0880171623051345 0.15240243712367649  6.0880171623051353 0.15375713200979146  6.0880171623051353 0.15408534737385873  6.0880171623051353 0.1540853467751333 
 0.99999999999997935 4 1.035848872727253 1 1.0716977454545267 1 1.1075466181818003 1 1.143395490909074 1 1.1792443636363477 1 1.2150932363636213 1 1.250942109090895 1 1.2867909818181686 1 1.3226398545454423 1 1.358488727272716 1 1.3943375999999896 1 1.4301864727272633 1 1.466035345454537 1 1.5018842181818106 1 1.5377330909090843 1 1.5735819636363582 1 1.6094308363636318 1 1.6452797090909055 1 1.6811285818181791 1 1.7169774545454528 1 1.7528263272727265 1 1.7886752000000001 4
Curves 1
7 0 1  3 3 2  15.55568743181 99.893034010020003 -0.03346934665983  15.55568743181 99.966759685870002 -0.03346934665983  15.55568743181 99.819308334179993 -0.03346934665983 
 0 3 1 3
Polygon3D 0
PolygonOnTriangulations 2
3 1 10 8 
p 0.0248541481000493 1 0.7886752 0.859116799999993 0.999999999999979 
3 8 9 1 
p 0.0248541481000493 1 0.999999999999979 1.26289173333332 1.7886752 
Surfaces 2
1 17.099 99.560148773090006 -0.029999999999999999 0 0 1 1 0 -0 -0 1 0 
2 15.56096070864 100.02583658739999 -0.040000000000000001 0 -1 0 -0.76718739504239408 0 0.64142302803069506 -0.64142302803069506 -0 -0.76718739504239408 0.0099999999994469999
Triangulations 1
10 6 1 0 0.0479119597971325
15.5573531583774 99.7972594601469 -0.0306840107312328 15.5528886001111 99.799087536387 -0.0339539704174752 15.5514856626368 99.7934383970208 -0.0368169825219663 15.5507579061464 99.7816130036836 -0.0395633769257232 15.5508447341852 99.7871090799907 -0.0394591172921666 15.5511319737744 99.8016583585838 -0.0384807637399405 15.554698917373 99.9099452831003 -0.0321313297695626 15.5573531583774 99.7972594601469 -0.0306840107312328 15.55568743181 99.9133587463517 -0.03346934665983 15.55568743181 99.8738067608437 -0.03346934665983 6.08801716230514 0.154085346775133 6.33667351217231 0.226748835942969 6.65542947175313 0.232395673432498 6.93676303427766 0.24422311170591 6.92619456505122 0.238731205495894 6.82621817607704 0.224180370452199 6.0809203448783 0.115891332960427 6.08801716230514 0.132802577379991 6.08801716230514 0.112477841048265 6.08801716230513 0.152029826556321 4 6 5 4 3 6 2 8 7 2 7 3 3 7 6 8 10 7 

TShapes 6
Ve
0.220533887914169
15.5573531583774 99.7972594601469 -0.0306840107312328
0 0

0101101
*
Ve
0.132311620333589
15.55568743181 99.89303401002 -0.03346934665983
0 0

0101101
*
Ed
 0.0034693813532966 1 1 0
1  1 0 0.7886752 0.999999999999979
2  1 2 0 0.7886752 0.999999999999979
4 C0 1 0 2 0
6  1 1 0
0

0101000
+6 0 -5 0 *
Ed
 0.0034693813532966 1 1 0
1  1 0 0.999999999999979 1.7886752
2  2 2 0 0.999999999999979 1.7886752
4 C0 1 0 2 0
6  2 1 0
0

0101000
+5 0 -6 0 *
Wi

0101100
+4 0 +3 0 *
Fa
0  1e-07 1 0

0111000
+2 0 *

+1 0 