DBRep_DrawableShape

CASCADE Topology V3, (c) Open Cascade
Locations 0
Curve2ds 3
7 0 0  1 2 2  6.3267469865715205 0.074325165031250862  6.331812735179871 0.0043251650306324052 
 0 2 0.070000413604327627 2
7 0 0  1 2 2  2.8096338564551022 0.0043251650340643266  2.805243788674471 0.074325165034682783 
 0 2 0.070000413604327627 2
7 0 0  1 2 2  2.8096338564551022 0.0043251650340643266  2.805243788674475 0.074325165034682783 
 0 2 0.070000413604327627 2
Curves 2
1 33.228455725659998 -2.828385643521 -1.288965032179 -0.70735035939530033 -0.70685484697040035 0.0034197043426710009 
1 33.228455725659998 -2.828385643521 -1.288965032179 -0.70735035939530033 -0.70685484697040035 0.0034197043426680012 
Polygon3D 0
PolygonOnTriangulations 2
3 7 8 3 
p 0.0166666666666667 1 0 0.0233334712014425 0.0700004136043276 
3 1 4 5 
p 0.0166666666666667 1 0 0.0233334712014425 0.0700004136043276 
Surfaces 3
2 33.2646909638 -2.8585041746100002 -1.3051387818939999 -0.70710678118304759 -0.70710678119004766 0 0.70710678119004766 -0.70710678118304759 0 0 0 1 0.050000000003589999
2 33.209076782069999 -2.9141183563439998 -1.291010205152 0.70710678118854764 0.70710678118454762 0 -0.70710678118454762 0.70710678118854764 0 0 -0 1 0.049999999997869998
1 33.2156706695 -2.8650980620430002 -1.2600000000060001 -0.58834840540551736 0.58834840540021727 0.55470019625001632 -0.39223227031864527 0.39223227026914531 -0.83205029432131894 -0.70710678117061376 -0.70710678120248138 2.7044350992617538e-11 
Triangulations 2
12 10 1 0 0.006341539617399
33.24041940684 -2.840349324701 -1.331010205153 33.188399684 -2.887324551231 -1.327916992577 33.17894090794 -2.877865775168 -1.288725651461 33.179172070703 -2.87809693793041 -1.29828668899026 33.1791047331956 -2.87802960041923 -1.30984925248015 33.1810004673104 -2.87992533453292 -1.31575188409046 33.22845572566 -2.828385643521 -1.288965032179 33.2119507864197 -2.84487902073638 -1.2888852386062 33.2319743713193 -2.83190428917854 -1.31918361534373 33.2298270694108 -2.82975698727077 -1.31422507612185 33.2288137977544 -2.82874371561229 -1.30294073285681 33.2287691367825 -2.82869905464065 -1.29438189616752 5.40310822339243 0.0743251650291761 5.45043204565212 0.00432516502853986 6.33181273517987 0.00432516503063241 6.19960563174469 0.0043251650303155 6.00800512274407 0.00432516502986138 5.8250188386984 0.00432516502942768 6.32674698657152 0.0743251650312509 6.32843556944097 0.0509918316977114 5.81361434036091 0.0743251650300982 5.95044971268374 0.0743251650304056 6.13859834962763 0.0743251650308282 6.25311197198613 0.0743251650310855 9 1 2 9 2 6 10 6 5 10 9 6 11 5 4 11 10 5 12 11 4 8 4 3 8 12 4 7 12 8 
6 4 1 0 0.00164071494633173
33.22845572566 -2.828385643521 -1.288965032179 33.2385396746662 -2.83846959252937 -1.2657806300555 33.24862362368 -2.848553541537 -1.242596227932 33.2119507864197 -2.84487902073638 -1.2888852386062 33.17894090794 -2.877865775168 -1.288725651461 33.19912614899 -2.898051016218 -1.242596227931 0.0334854472047382 -0.0350000000004162 0.00628435816888386 -0.0349999999979654 -0.0209167308696156 -0.0350000000013445 0.0334235899390983 -0.0116666666668751 0.0332998754075171 0.0350000000013704 -0.0209167308657138 0.0350000000021085 6 3 2 4 2 1 4 6 2 5 6 4 

TShapes 6
Ve
0.00724753242622908
33.22845572566 -2.828385643521 -1.288965032179
0 0

0101101
*
Ve
0.00556240310618934
33.17894090794 -2.877865775168 -1.288725651461
0 0

0101101
*
Ed
 0.00303627754795899 1 1 0
1  1 0 0 0.0700004136043276
2  1 2 0 0 0.0700004136043276
2  2 1 0 0 0.0700004136043276
4 C0 1 0 2 0
6  1 1 0
0

0101000
+6 0 -5 0 *
Ed
 0.00198930343253697 1 1 0
1  2 0 0 0.0700004136043276
2  3 1 0 0 0.0700004136043276
4 C0 3 0 1 0
6  2 2 0
0

0101000
+6 0 -5 0 *
Wi

0101100
-4 0 +3 0 *
Fa
0  1e-07 1 0

0111000
+2 0 *

+1 0 