DBRep_DrawableShape

CASCADE Topology V3, (c) Open Cascade
Locations 0
Curve2ds 2
7 0 0  1 2 2  2.905095934042679 0.019273990838765812  6.2823817592336759 0.24148067446713029 
 0 2 1 2
7 0 0  1 2 2  6.2823817592336759 0.24148067446713029  2.905095934042679 0.019273990838765812 
 0 2 0.22222092032415428 2
Curves 2
7 0 0  3 10 8  11.77387877906 90.826233922149996 -0.42676823033869998  11.7644208811 90.829222752060005 -0.42677718751780003  11.75057855921 90.840648926680004 -0.43969239330650001  11.71503456324 90.849062488580003 -0.43454481679610002  11.68131316725 90.860430904759994 -0.43587279596739997  11.64706531711 90.871250378300005 -0.435766008496  11.614679511129999 90.880823369550001 -0.43486014370039999  11.58654556578 90.892409638730001 -0.43852489099859998  11.569055040409999 90.89122409254 -0.42928202031270002  11.562076386559999 90.893432165899995 -0.42927422273799998 
 0 4 0.14285714285709999 1 0.28571428571430002 1 0.42857142857140001 1 0.57142857142860004 1 0.71428571428569998 1 0.85714285714289995 1 1 4
1 11.562076386559999 90.893432165899995 -0.42927422273799998 0.95311635012347062 -0.30239386845579069 0.011277031863739653 
Polygon3D 0
PolygonOnTriangulations 2
15 2 129 130 131 132 133 134 135 136 137 138 139 140 141 121 
p 0.05 1 0 0.0271622703440039 0.059464666725039 0.129154530452804 0.160684163529873 0.195702853690859 0.325604779896188 0.686673440274924 0.765005080206193 0.800717212976027 0.829610889679096 0.856056714891096 0.882502540103096 0.958786175976805 1 
2 23 22 
p 0.05 1 0 0.222220920324154 
Surfaces 3
2 11.79067153451 90.815412130430005 -0.43385734195039999 -0.95347212563759043 0.30148118619929698 0 0.23129256598006051 0.73149179658393948 0.64142302769136694 0.19337697524393777 0.6115789776457865 -0.76718739532609626 0.010000000002279999
1 12.872601372649999 90.257645264429996 -1.632714991834 0.29671275595430685 0.93839136592482153 -0.17715299831430409 0.053408296071604092 0.16891044586548137 0.98418332397386832 0.95347212563594541 -0.30148118620449965 -1.3210933162276242e-13 
1 10.87159879617 89.492923388389997 -0.42385734195039998 0 0 1 0.30148118620270414 0.95347212563651307 -0 -0.95347212563651307 0.30148118620270414 0 
Triangulations 2
141 139 1 0 0.00534264552847004
12.19119767835 90.39943498816 -2.022925240518 11.77387877906 90.82623392215 -0.4267682303387 12.47258792476 90.31933409667 -1.975925807195 12.4713591663401 90.3166710037541 -1.99209043170544 12.4697300913597 90.3148971744724 -2.00421505523285 12.4684616387989 90.3141198108897 -2.01045732795998 12.465845626204 90.3133362977206 -2.01898919766779 12.447224309537 90.312649974537 -2.05381345689691 12.444054162022 90.3126138827839 -2.05931430308483 12.4408366217073 90.3126830694468 -2.06433686039649 12.4349056920704 90.3130530991983 -2.07231047510956 12.4316213065606 90.313370448217 -2.07613045842038 12.4281828053101 90.313772870577 -2.07975793026806 12.4214122069104 90.3147310396102 -2.08602248899984 12.4103513805549 90.3165940834893 -2.09467954812092 12.3991945218892 90.3186704536455 -2.10236744766415 12.3879396328824 90.3209645885063 -2.10906602347276 12.3787408198737 90.3230057765926 -2.11366076299361 12.3694621580547 90.3252243409111 -2.11744966707516 12.3601078881428 90.3276108611279 -2.12047553310356 12.3496334980996 90.3304419435167 -2.12302260750322 12.3379054610393 90.3337871299686 -2.1249461657699 12.3275592585766 90.3368894671479 -2.12584168447354 12.3179071762232 90.3399225316951 -2.125941566343 12.3081788963028 90.3431248615989 -2.12527246117781 12.2983706758004 90.3465047715963 -2.1237965944137 12.2884885612698 90.3500488298661 -2.1215749879656 12.27854074182 90.3537388451129 -2.11869028644848 12.2685348247284 90.3575579185224 -2.11521926262361 12.2594606131667 90.3611481084226 -2.11140014078356 12.2539617992744 90.3634228154631 -2.10856080287865 12.2491500345074 90.3654939988077 -2.10564880822784 12.2446956516378 90.3674894332947 -2.10253948305491 12.2379904135522 90.3706536448196 -2.09700901440198 12.2312292501418 90.3740594098535 -2.09029268961516 12.2159054481914 90.3821311661495 -2.07320181936919 12.2085793365291 90.3858780503185 -2.06562479282032 12.2034400039247 90.388943003854 -2.05799737241793 12.1997246418291 90.391628602914 -2.04999441645989 12.1956736668173 90.395059732865 -2.03860444970664 12.53937403975 90.53055357549 -0.7452222370954 12.87216636011 90.48265177788 -0.4415689328953 12.8523418739244 90.4877575913036 -0.447727037515476 12.8324471822116 90.4925821422645 -0.455492595212071 12.8124863123653 90.4971248539709 -0.464861915839346 12.792463291779 90.5013851496307 -0.475831309251561 12.7723821478463 90.5053624524523 -0.488397085302974 12.7522469079607 90.5090561856436 -0.502555553847846 12.7320615995158 90.512465772413 -0.518303024740436 12.7118302499051 90.5155906359684 -0.535635807835005 12.6847904584268 90.5193132210075 -0.561205848467833 12.6542933001525 90.5228931643271 -0.593322199994134 12.6237272855246 90.5258275055855 -0.628973676467876 12.5931060069966 90.5281142981102 -0.668147823647186 12.566251440663 90.5295837132098 -0.705342825035991 12.9148492192338 90.4718219266997 -0.426881548714523 12.93820227271 90.46511533969 -0.4238572394864 12.9610480757676 90.4572182315102 -0.426865833800306 13.00231589286 90.44149941016 -0.4415689329146 13.30215174026 90.28936862653 -0.7452222370949 13.2547591415403 90.3194993630357 -0.664995344313621 13.2111359169305 90.3450282482456 -0.602831460962325 13.1751665192965 90.364583482311 -0.559491050323178 13.1423343659038 90.381310519483 -0.525877233105612 13.1154361751506 90.394245701756 -0.502410359545239 13.0902982821571 90.4057275868802 -0.483693384116855 13.0674908941043 90.4156503729751 -0.469331709045726 13.0468213670182 90.4242452055131 -0.458423599702788 13.0260213998637 90.4325195305797 -0.44943171345882 13.0141883644144 90.4370614505166 -0.445191955182741 13.23536562526 90.07814914771 -1.975925807195 13.5116548715 89.98191570237 -2.022925240516 13.5056641547882 89.980933039082 -2.0381642984719 13.5005123974901 89.980447942289 -2.0493625438739 13.4974602610283 89.9803513178628 -2.05498637953174 13.4924741699297 89.9805333219215 -2.06237347321433 13.4646442528758 89.9841227946295 -2.08997199671108 13.4601317313793 89.9847568114255 -2.09417156888095 13.45571477354 89.985447504711 -2.0979108627311 13.4491996456863 89.9865926571374 -2.10275707136844 13.4407808199018 89.988279182118 -2.10792408817635 13.4364151254059 89.9892352477829 -2.11017182591765 13.4318843201687 89.9902775730877 -2.11223918377111 13.4213989239497 89.9928371078711 -2.1162430983277 13.4086494726823 89.9961129631946 -2.12024467029671 13.3960967781547 89.9995055101734 -2.12329857173241 13.384994193148 90.0026743573772 -2.12510864406058 13.3751770980114 90.0056302453389 -2.12589371466233 13.3655213517824 90.0086818254277 -2.12590165506162 13.3549654014013 90.0121748683808 -2.12507888479266 13.3434280815197 90.016169609457 -2.12324227711185 13.3326748310973 90.0200636240396 -2.12062599006632 13.3231648614941 90.023667847666 -2.11746237981691 13.3147556070649 90.0270004431746 -2.11389401913718 13.30604626073 90.0306133101099 -2.10934366440469 13.2955083229544 90.0352007604989 -2.10269357500212 13.2851772409569 90.0399108920381 -2.09504717347533 13.2750443132976 90.044738544115 -2.08644636994114 13.2686962976321 90.0479670337612 -2.079977105542 13.2650296142934 90.0499548900616 -2.07558860815674 13.2617599372797 90.0518313280819 -2.07112535680789 13.2570951866971 90.0547309498238 -2.06357883477316 13.2531026397471 90.0574899361025 -2.05565139743528 13.237681135655 90.0691295524426 -2.01982497304254 13.2357718528724 90.0714614925449 -2.01067037832399 13.2349863210557 90.0735210796735 -2.00107629024589 13.2348601096838 90.0756477827185 -1.99002239180839 14.09836915166 90.09382746913 -0.4297076350301 14.31100876414 90.02630170078 -0.4316379746323 12.98575176048 89.99365528193 -2.841572639643 13.0215373854002 89.9877526853726 -2.81290394191972 13.0555128427534 89.9827991785281 -2.78224269313953 13.0878468768322 89.9786988545283 -2.74981269255873 13.1187082319298 89.9753558065046 -2.71583773943363 13.1578575282247 89.9719106290339 -2.66852135594953 13.2131099941129 89.9684501316473 -2.59430337701829 13.3431836682309 89.964767662525 -2.3958327097651 13.4832436410901 89.9659648194911 -2.15512403320536 13.8016952234081 89.982477835742 -1.53450848446364 12.6282503557 90.10669471649 -2.84157262653 11.56207638656 90.8934321659 -0.429274222738 11.9592089307564 90.5614639720481 -1.54729841237268 12.2592581939208 90.3307087822859 -2.27397404400302 12.3741450444491 90.2515797364296 -2.49982259898342 12.4631068625169 90.1950091866135 -2.65026079270366 12.5169552115792 90.1637050728179 -2.72592010913388 12.5589613396338 90.1410308517809 -2.77571016256079 12.5923728686213 90.1240264078822 -2.80984671964891 11.7687246734872 90.8282055107875 -0.427400309968133 11.7630261222836 90.8310809462509 -0.42937157605624 11.750752018628 90.8379326996658 -0.434819932069101 11.7444921531299 90.8407248441688 -0.436312358796945 11.7368292965403 90.8434224227103 -0.436820569939872 11.7057302536546 90.8524193421005 -0.435314546024723 11.6213135098302 90.8791477066556 -0.435434201111856 11.6048952410552 90.8849272487152 -0.436234891259085 11.5977716279138 90.8873606723288 -0.436477311673862 11.5921391545563 90.8890072443661 -0.436287060574378 11.5870686667899 90.8901445372712 -0.435641650692209 11.5820741487758 90.8908703022424 -0.434464039814599 11.5685226274606 90.8920997089184 -0.430252024350209 -0.396481264396523 -0.692446362922084 1.22423235437449 -1.2190201497865 -0.348726509584722 -0.399999694761884 -0.365150913571486 -0.400368409253149 -0.377470390270377 -0.401386910681577 -0.383812981711384 -0.402361984345949 -0.392481965934043 -0.404620064955824 -0.427865881085839 -0.422168057812994 -0.433455130622921 -0.425179824118145 -0.438558404768423 -0.428268517598539 -0.446660162356531 -0.434035050694811 -0.450541536098392 -0.437262295486802 -0.454227304551632 -0.440662133353565 -0.460592540152806 -0.447406580138263 -0.469388725690931 -0.458514442433397 -0.477200176419758 -0.46977818271849 -0.484006404127069 -0.481201044162785 -0.488674985080425 -0.490587235760957 -0.49252478012297 -0.500103036571008 -0.495599274431816 -0.509741563133519 -0.498187282516904 -0.520582120149586 -0.50014175402622 -0.532772987354668 -0.501051664488809 -0.543573099301784 -0.501153151546124 -0.553690502677634 -0.500473293282969 -0.563931588630166 -0.498973708065205 -0.57430243275661 -0.49671639848268 -0.584793220395061 -0.493785337320753 -0.595390659124994 -0.490258531145307 -0.606082400944923 -0.48637803271902 -0.615816783440963 -0.483493064201867 -0.621745530588156 -0.480534271282134 -0.626957836980144 -0.477374976568339 -0.631806552839432 -0.471755628507787 -0.639153760693689 -0.464931366581041 -0.646627115624707 -0.447565831289384 -0.663671416306103 -0.439867035379804 -0.671786274649196 -0.432117035743947 -0.677610510859454 -0.42398546537171 -0.681962662644471 -0.41241245201551 -0.686859575527574 0.901755529808228 -0.399999694763716 1.21028880485561 -0.068250002909994 1.20403173417537 -0.0886914045805372 1.19614137725768 -0.109114949923358 1.18662148355251 -0.129516625039061 1.17547580250981 -0.149892416028251 1.16270808357953 -0.170238308991532 1.14832207621164 -0.19055029002951 1.13232152985608 -0.210824345242788 1.11471019396283 -0.23105646073197 1.0887292206884 -0.25796043754284 1.05609673165316 -0.288117913427075 1.01987230516397 -0.318146405049811 0.980068595614434 -0.348032365500588 0.942275838442395 -0.374080446952953 1.22213891297364 -0.0234804338535815 1.22828513612592 3.05232359537903e-07 1.22217084777203 0.0233605049317906 1.2102888048353 0.0682506133670225 0.901755529809498 0.400000305236387 0.983271738012482 0.345728933212763 1.04643464864797 0.296438925921352 1.09047157711984 0.256247572738922 1.12462559741813 0.219900142646035 1.14846960391161 0.190353753437364 1.16748737730754 0.162923900823715 1.18207985690665 0.138186158734458 1.19316326899192 0.115887160499048 1.20229966261647 0.0935604182669184 1.20660755747039 0.0809086453942201 -0.348726509584481 0.400000305228688 -0.396481264389588 0.692446973383247 -0.411965227169402 0.687031246481603 -0.423343438046465 0.682265437056326 -0.429057653600399 0.679384440462992 -0.436563464258383 0.674575470785132 -0.464605519864299 0.646958262125611 -0.468872582786137 0.642464554526688 -0.472671970318095 0.638044877315776 -0.477596061713894 0.631487642600443 -0.482846116944567 0.622952071332541 -0.485129977772671 0.618501267510982 -0.487230559852328 0.61386702954132 -0.491298820773752 0.60309784493762 -0.495364701460084 0.589953989788158 -0.498467681729178 0.576962556367074 -0.500306843482885 0.565421203226805 -0.501104530847336 0.555169732050312 -0.501112598855907 0.54504325318387 -0.500276605958368 0.533925362002894 -0.498410482406048 0.521720509812968 -0.495752149368046 0.510293613139774 -0.492537697169493 0.500139516593275 -0.488911989851626 0.491116812050589 -0.484288506988502 0.481723481678502 -0.477531544905669 0.470292821762887 -0.469762259102271 0.459022407006952 -0.461023233226848 0.44790549665802 -0.454450002161363 0.440879511779666 -0.449990977832824 0.43678413014716 -0.445455998179937 0.433100873494595 -0.437788197018305 0.427778982438713 -0.429733358915635 0.423140417755577 -0.393331172941395 0.404927318127236 -0.384029455979395 0.40240383414585 -0.37428118261984 0.401033924684182 -0.363049638487515 0.400272424702445 1.22177541088948 1.21812338228954 1.21982651449024 1.44122708508425 -1.22828503426615 0.187473753871162 -1.19915554101229 0.223373871542887 -1.16800137903482 0.257261912204154 -1.13504999515646 0.289327682951031 -1.10052883619994 0.319760990879587 -1.05245186987929 0.358127409825575 -0.977041346775771 0.411852370779621 -0.775384819970117 0.536984188489296 -0.53080077774905 0.67016654822565 0.0997958732518668 0.968822891603308 -1.22828502094114 -0.18747313328129 1.22180447887097 -1.44122683341487 0.0866009924965542 -0.962489857475979 -0.651532888197565 -0.606832900398608 -0.881039081241622 -0.473435572209789 -1.03390190046369 -0.371558001973434 -1.11077618124653 -0.310777500770834 -1.1613651585901 -0.26388997751037 -1.19604956418238 -0.226906496028546 1.2236680220632 -1.22452884266386 1.22190927602848 -1.23082914208743 1.21704888865976 -1.24459783253729 1.215717360785 -1.25140821883677 1.21526357693379 -1.2595278081763 1.21660450733221 -1.29189228063171 1.21649289031751 -1.38043939185659 1.2158042176934 -1.39783617668055 1.21559620219158 -1.40536197468229 1.21576074656333 -1.41122879151806 1.21631724274633 -1.41640623268074 1.21733206832225 -1.42138717087258 1.22096135966978 -1.4346788116896 36 35 123 36 123 37 34 123 35 38 37 123 33 123 34 32 123 33 39 38 123 31 123 32 30 123 31 40 39 123 29 123 30 28 123 29 27 123 28 26 123 27 25 123 26 24 123 25 23 123 24 22 123 23 21 123 22 20 123 21 19 123 20 18 124 123 18 123 19 111 110 120 111 120 128 17 124 18 16 124 17 15 124 16 112 111 128 112 128 127 14 124 15 13 124 14 12 124 13 11 124 12 122 1 40 122 40 123 10 124 11 10 125 124 113 112 127 113 127 126 114 113 126 115 126 125 115 114 126 116 115 125 116 125 10 140 122 121 140 121 141 139 122 140 138 122 139 137 122 138 136 122 137 135 122 136 134 122 135 133 122 134 132 122 133 131 122 132 99 117 116 100 99 116 98 117 99 101 100 116 97 117 98 102 10 9 102 116 10 102 101 116 96 117 97 103 9 8 103 102 9 95 117 96 94 117 95 2 130 129 2 131 130 2 122 131 93 117 94 104 8 7 104 103 8 92 117 93 105 6 5 105 7 6 105 104 7 91 117 92 106 105 5 106 5 4 90 117 91 107 4 3 107 106 4 89 117 90 71 107 3 88 117 89 87 117 88 118 117 87 118 83 82 118 84 83 118 85 84 118 86 85 118 87 86 81 118 82 80 118 81 79 118 80 78 118 79 77 118 78 76 118 77 75 118 76 74 118 75 73 118 74 72 118 73 41 71 3 119 118 72 58 56 57 59 42 56 59 56 58 70 43 42 70 42 59 69 44 43 69 43 70 60 41 55 60 71 41 68 44 69 68 45 44 67 46 45 67 45 68 61 54 53 61 55 54 61 60 55 66 47 46 66 46 67 65 48 47 65 49 48 65 47 66 62 61 53 62 53 52 64 49 65 64 50 49 63 62 52 63 50 64 63 51 50 63 52 51 109 119 108 2 1 122 72 108 119 
69 67 1 0 0.0063894622899584
11.68170398916 90.53569141468 -0.4258136654495 11.5612903993547 90.4686156862378 -0.4238573419504 11.4467707680594 90.39188315087 -0.4238573419504 11.3386912258941 90.3063177343672 -0.4238573419504 11.2377314112176 90.2124574991423 -0.4238573419504 11.1445261912898 90.1108926680532 -0.4238573419504 11.0596616700248 90.0022619128941 -0.4238573419504 10.9836715023846 89.8872483382258 -0.4238573419504 10.9170335385878 89.7665751857975 -0.4238573419504 10.8601668192357 89.6410012865744 -0.4238573419504 10.8134289402531 89.511316288968 -0.4238573419504 10.7771138042115 89.3783356932773 -0.4238573419504 10.7514497721769 89.2428957235649 -0.4238573419504 10.7365982277032 89.1058480692154 -0.4238573419504 10.7326525620013 88.9680545292429 -0.4238573419504 10.7396375866656 88.8303815930267 -0.4238573419504 10.7575093776507 88.6936949915511 -0.4238573419504 10.7861555514802 88.5588542534157 -0.4238573419504 10.825395971949 88.4267072998473 -0.4238573419504 10.8749838828769 88.2980851127031 -0.4238573419504 10.93494611316 88.17397581862 -0.4258136654489 11.77387877906 90.82623392215 -0.4267682303387 11.56207638656 90.8934321659 -0.429274222738 11.489118394 90.88304999224 -0.4238573419504 11.4964278942636 90.8864679728255 -0.423937592036145 11.501417093027 90.888376880365 -0.424005953220299 11.5107675898158 90.8908509306296 -0.423894549809093 11.5187403035538 90.8917580317952 -0.423421361281968 11.5280001347862 90.892165490108 -0.423142883056168 11.5335118680969 90.8924936271461 -0.423507385930548 11.5430663819976 90.8936559202172 -0.425446116668857 11.5527631537944 90.8945770084342 -0.427999961169005 10.5776699128 88.00047967763 -0.4238573419504 10.5059768742451 88.1523206473445 -0.4238573419504 10.4464387228664 88.309326317097 -0.4238573419504 10.3994237565229 88.4705254633223 -0.4238573419504 10.3652228057965 88.6349209218163 -0.4238573419504 10.3440474348586 88.8014957562591 -0.4238573419504 10.3360286327522 88.969219548897 -0.4238573419504 10.341216003105 89.1370547746181 -0.4238573419504 10.3595774572853 89.3039632189953 -0.4238573419504 10.3909994128996 89.4689124005919 -0.4238573419504 10.435287496404 89.6308819578042 -0.4238573419504 10.4921677454817 89.7888699607313 -0.4238573419504 10.5612883037512 89.9418991090284 -0.4238573419504 10.6422215973198 90.0890227774037 -0.4238573419504 10.734466979719 90.2293308713614 -0.4238573419504 10.8374538288615 90.3619554569696 -0.4238573419504 10.9505450768603 90.4860761298251 -0.4238573419504 11.0730411508769 90.6009250900056 -0.4238573419504 11.2041843006192 90.7057918916146 -0.4238573419504 11.3431632857203 90.8000278375392 -0.4238573419504 10.63080299651 87.94816396997 -0.43162853504 10.6234199786557 87.9523967848505 -0.430074296422086 10.6190256486107 87.9565317878728 -0.427950809915306 10.6121319192025 87.9639763569956 -0.424402310457425 10.6062592681036 87.9693725029643 -0.422950622006585 10.6004925151123 87.9738024066297 -0.422914950334431 10.5958204646553 87.9773450099291 -0.423390566862602 10.5887496802519 87.9839297188962 -0.424045176602831 10.5827723086262 87.9918014448626 -0.424011605868031 10.84344208647 87.88063931526 -0.429703205805 10.8310761940604 87.893114722469 -0.423516832563826 10.8256653684303 87.8954439402474 -0.423070227704595 10.8155658486878 87.8974859682373 -0.423901803792281 10.8103688691015 87.898895777667 -0.424070400550525 10.7484565971878 87.9187701944948 -0.423855437232091 10.643779927215 87.95110795114 -0.424611212106956 10.6366983822427 87.9489018740731 -0.429037581258989 1.23848172110412 -0.45803777884919 1.13822445183823 -0.363448847598157 1.03053660394925 -0.277390987102981 0.916368415819096 -0.200136519561979 0.796437813139065 -0.132171245511394 0.671498957486457 -0.0739225520995796 0.542337503917943 -0.0257567255413742 0.409765660521973 0.0120233522055122 0.274617080997324 0.0391801080580847 0.137741622374867 0.0555427717427824 8.47644772453701e-10 0.0610084496529895 -0.137741620684887 0.0555427718765933 -0.27461707932324 0.0391801083248653 -0.40976565887427 0.0120233526035846 -0.542337502306943 -0.0257567250145127 -0.671498955922248 -0.0739225514472426 -0.796437811631442 -0.132171244737683 -0.916368414377499 -0.20013651867176 -1.0305366025827 -0.277390986101852 -1.13822445055528 -0.363448846492413 -1.23848171868281 -0.45803777885726 1.54329486828778 -0.458330771910878 1.54351208406221 -0.236124088282517 1.5116175087302 -0.169690706068264 1.51708013475823 -0.175629653976913 1.52040437444888 -0.17981121621768 1.52558231127713 -0.187980774658135 1.52885083014867 -0.195309061037616 1.53203099519617 -0.204015210990297 1.53400554861196 -0.209171567922577 1.5379942688415 -0.217931121107073 1.54179589504528 -0.226899031955712 -1.51161750570881 -0.169690703047929 -1.38845547586246 -0.055556193519922 -1.25670457868848 0.0485460297891094 -1.11717981390878 0.141971999504204 -0.970744269847805 0.224143790525211 -0.818303784322643 0.294553095143898 -0.660801341207401 0.352764367392186 -0.499211237215175 0.398417517292454 -0.334533054981479 0.431230138343503 -0.167785479731095 0.450999254463148 2.2220491405467e-09 0.457602575580993 0.167785484161469 0.450999254114401 0.334533059370761 0.431230137648166 0.499211241536256 0.398417516254829 0.66080134543359 0.352764366018692 0.818303788427838 0.294553093443031 0.970744273806653 0.224143788507492 1.11717981769683 0.141971997182114 1.25670458228234 0.0485460271770133 1.38845547923995 -0.0555561964058655 -1.54548044959207 -0.236123818916898 -1.54367041957102 -0.227808203138646 -1.5410526172844 -0.222371706313691 -1.53603275785776 -0.2135543299514 -1.53265817691015 -0.206328084337433 -1.53017295477828 -0.199494113492995 -1.52820371659391 -0.193971415367746 -1.52405708860763 -0.185244453662531 -1.51835368240612 -0.177172019151074 -1.54575664057708 -0.459226677014371 -1.53758977145942 -0.443675042729467 -1.53700018936245 -0.437813755975682 -1.53809798778642 -0.427568512398333 -1.53832056536311 -0.422188306206111 -1.5380362480815 -0.357164917941231 -1.53876114514586 -0.247609405685155 -1.54299953071454 -0.2415224406786 66 65 64 54 69 68 54 53 69 55 54 68 56 55 68 57 56 68 21 63 62 21 64 63 21 67 66 21 68 67 21 66 64 61 59 58 61 60 59 33 61 58 33 58 57 33 57 68 33 68 21 20 33 21 34 33 20 19 34 20 35 34 19 18 35 19 36 35 18 17 36 18 37 36 17 16 37 17 38 16 15 38 37 16 39 15 14 39 38 15 40 14 13 40 39 14 41 13 12 41 40 13 42 12 11 42 41 12 43 42 11 44 11 10 44 43 11 45 10 9 45 44 10 46 9 8 46 45 9 47 8 7 47 46 8 48 7 6 48 47 7 49 6 5 49 48 6 50 5 4 50 49 5 51 4 3 51 50 4 23 1 22 31 23 32 30 1 23 30 23 31 52 3 2 52 51 3 26 28 27 25 28 26 24 2 1 24 28 25 24 29 28 24 30 29 24 1 30 24 52 2 

TShapes 6
Ve
0.020378566175509
11.77387877906 90.82623392215 -0.4267682303387
0 0

0101101
*
Ve
0.020378566175509
11.56207638656 90.8934321659 -0.429274222738
0 0

0101101
*
Ed
 0.020378566175509 1 1 0
1  1 0 0 1
2  1 1 0 0 1
4 C0 2 0 1 0
6  1 1 0
0

0101000
+6 0 -5 0 *
Ed
 0.0188249597620268 1 1 0
1  2 0 0 0.222220920324154
2  2 1 0 0 0.222220920324154
4 C0 1 0 3 0
6  2 2 0
0

0101000
+5 0 -6 0 *
Wi

0101100
+4 0 +3 0 *
Fa
0  1e-07 1 0

0111000
+2 0 *

+1 0 