DBRep_DrawableShape

CASCADE Topology V3, (c) Open Cascade
Locations 0
Curve2ds 8
7 0 0  1 2 2  6.1242386845839407 0.025614847071000924  6.9907697439063572 0.025614847071000924 
 0.093733632546476528 2 4.1018573454586882 2
1 2.8889123984476068 0.025614847071000924 1 0 
1 2.8889123984476139 0.025614847071000924 1 0 
1 2.8889123984475731 0.025614847071000924 1 0 
1 8.7171935240579135 1.3063572005999999 -2.1725566782183802e-11 -1 
1 9.4247779607713689 1.306357200603868 -1 6.9414000734032877e-13 
1 0 0 0 1 
7 0 0  1 2 2  9.4247779607693793 1.3063572006099999  9.2658313382223412 0.025614847070949409 
 0 2 1.2808444439068958 2
Curves 4
2 72.355000000079997 71.650000000040009 4.9875000000000007 0 0 1 0.96824583655182661 -0.25000000000010686 0 0.25000000000010691 0.96824583655182672 -0 0.10000000000000001
1 72.430993420850001 71.585000000039997 6.2682423535289997 -3.0166692895330002e-12 -2.7739487719840007e-13 -1 
2 72.355000000079997 71.650000000040009 6.2682423535380005 -5.1330416483599997e-11 1.139999206536e-11 -1 1 1.9539925233970549e-12 -5.1330416483577722e-11 1.9539925228118884e-12 -1 -1.1399992065460299e-11 0.09999999999709
1 72.455000000079991 71.650000000040009 6.2682423535389997 0.0006001087158574931 -0.01261128658716985 -0.99992029448358799 
Polygon3D 0
PolygonOnTriangulations 7
52 1 2 3 4 5 6 7 8 9 10 11 12 13 14 15 16 17 18 19 20 21 22 23 24 25 26 27 28 29 30 31 32 33 34 35 36 37 38 39 40 41 42 43 44 45 46 47 48 49 50 51 52 
p 0.05 1 0.0937336325464765 0.172324293583971 0.250914954621465 0.32950561565896 0.408096276696454 0.486686937733948 0.565277598771443 0.643868259808937 0.722458920846431 0.801049581883926 0.87964024292142 0.958230903958914 1.03682156499641 1.1154122260339 1.1940028870714 1.27259354810889 1.35118420914639 1.42977487018388 1.50836553122137 1.58695619225887 1.66554685329636 1.74413751433386 1.82272817537135 1.90131883640885 1.97990949744634 2.05850015848383 2.13709081952133 2.21568148055882 2.29427214159632 2.37286280263381 2.45145346367131 2.5300441247088 2.60863478574629 2.68722544678379 2.76581610782128 2.84440676885878 2.92299742989627 3.00158809093376 3.08017875197126 3.15876941300875 3.23736007404625 3.31595073508374 3.39454139612124 3.47313205715873 3.55172271819622 3.63031337923372 3.70890404027121 3.78749470130871 3.8660853623462 3.9446760233837 4.02326668442119 4.10185734545869 
8 4 5 6 7 8 9 10 3 
p 0.05 1 4.10185734545869 4.17980795088905 4.25775855631942 4.33570916174978 4.41365976718014 4.49161037261051 4.56956097804087 4.64751158347124 
9 1 2 3 4 5 6 7 8 9 
p 0.05 1 4.64751158347124 4.72690084569349 4.80629010791575 4.88567937013801 4.96506863236026 5.04445789458252 5.12384715680477 5.20323641902703 5.28262568124929 
8 54 55 56 57 58 59 60 53 
p 0.05 1 5.28262568124929 5.36057645901313 5.43852723677698 5.51647801454082 5.59442879230467 5.67237957006852 5.75033034783236 5.82828112559621 
2 9 1 
p 0.05 1 0 1.280742353529 
10 1 2 3 4 5 6 7 8 9 10 
p 0.05 1 0 0.0786204929681578 0.157240985936316 0.235861478904473 0.314481971872631 0.393102464840789 0.471722957808947 0.550343450777104 0.628963943745262 0.70758443671342 
2 3 4 
p 0.05 1 0 1.2808444439069 
Surfaces 5
2 72.355000000079997 71.650000000040009 4.9618851529289998 0 0 1 -1 0 0 0 -1 0 0.10000000000000001
1 72.565000000080005 71.800000000050005 4.9875000000000007 0 0 1 0 -1 0 1 0 -0 
1 72.35299671045999 71.585000000039997 5.8375000816080007 0 1 0 0 0 -1 -1 0 0 
5 72.255000000080003 71.650000000049999 6.2682423535430001 -7.5999651016900006e-11 -1 -1.139999206146e-11 1 -7.5999651016313974e-11 -5.140589976661e-11 5.1405899765743606e-11 -1.1399992065366831e-11 1 0.10000000000000001 0.09999999999709
1 72.455000000079991 71.800000000040001 5.6278711767710003 1 0 0 0 0 1 0 -1 0 
Triangulations 6
77 69 1 0 0.0010275477574447
72.45576864599 71.63384690368 4.9875 72.4546773197392 71.6419730488413 4.9875 72.4549998442657 71.6498234700796 4.9875 72.4547050383972 71.6576749810928 4.9875 72.4537947220628 71.6654791120412 4.9875 72.4522745149306 71.6731876855776 4.9875 72.4501538017159 71.6807531142601 4.9875 72.4474456742465 71.6881286943254 4.9875 72.4441668506423 71.6952688940048 4.9875 72.4403375721097 71.7021296346069 4.9875 72.4359814779857 71.7086685626286 4.9875 72.4311254598053 71.7148453112168 4.9875 72.4257994952914 71.7206217493656 4.9875 72.4200364632931 71.725962217311 4.9875 72.413871940814 71.7308337466698 4.9875 72.4073439833843 71.7352062639637 4.9875 72.4004928901322 71.7390527762724 4.9875 72.3933609550046 71.7423495378692 4.9875 72.3859922056735 71.7450761968111 4.9875 72.3784321317391 71.7472159205773 4.9875 72.3707274039084 71.7487554999821 4.9875 72.3629255858822 71.7496854307192 4.9875 72.3550748407296 71.7499999720344 4.9875 72.3472236335622 71.7496971821656 4.9875 72.3394204323438 71.7487789303296 4.9875 72.3317134086822 71.7472508851829 4.9875 72.3241501404514 71.7451224798274 4.9875 72.3167773180775 71.7424068535766 4.9875 72.3096404563051 71.7391207708431 4.9875 72.3027836132198 71.7352845176459 4.9875 72.296249118264 71.7309217763789 4.9875 72.2900773109241 71.7260594796121 4.9875 72.2843062917022 71.7207276438279 4.9875 72.2789716869093 71.7149591841207 4.9875 72.2741064287339 71.7087897110009 4.9875 72.26974055194 71.7022573105608 4.9875 72.2659010084542 71.6954023093565 4.9875 72.2626115009824 71.68826702546 4.9875 72.2598923366857 71.6808955072163 4.9875 72.257760301818 71.673333261319 4.9875 72.256228558099 71.6656269718831 4.9875 72.2553065614629 71.65782421225 4.9875 72.2550000036843 71.6499731513014 4.9875 72.2553107772403 71.6421222560985 4.9875 72.2562369636283 71.6343199926792 4.9875 72.2577728452093 71.6266145268621 4.9875 72.2599089405048 71.6190534269039 4.9875 72.2626320627287 71.6116833698455 4.9875 72.2659254011935 71.6045498533602 4.9875 72.2697686250883 71.5976969148822 4.9875 72.2741380089869 71.5911668597494 4.9875 72.2790065793122 71.5850000000399 4.9875 72.43099342084 71.58500000004 4.9875 72.3862246116327 71.5549998756539 4.9875 72.3935276305622 71.5577198738512 4.9875 72.4005966616537 71.5610003121005 4.9875 72.4073887729311 71.5648212674881 4.9875 72.4138627142213 71.569159534406 4.9875 72.4199791676759 71.5739887654852 4.9875 72.425700986559 71.5792796316098 4.9875 72.46000000008 71.55499983115 4.9875 72.4356988303088 71.5909432578364 4.9875 72.4399405185367 71.597225874521 4.9875 72.4436941114375 71.6038117481733 4.9875 72.4341801992509 71.5889459185642 4.9875 72.4372359331907 71.5931842095932 4.9875 72.4404960897657 71.5982525059951 4.9875 72.4484570449072 71.6133371550012 4.9875 72.4520934918668 71.6221563252341 4.9875 72.4540481702162 71.6278535965971 4.9875 72.45576864599 71.63384690368 4.9875 72.4358494090072 71.591149570338 4.9875 72.4402089992935 71.5976604695394 4.9875 72.444045424765 71.6044927221311 4.9875 72.4473351305994 71.6116043795609 4.9875 72.4500579187148 71.6189517777912 4.9875 72.4521970717816 71.6264898053868 4.9875 0.166153096369811 -0.109231354086288 0.15802695120873 -0.11032268034076 0.150176529970382 -0.11000015581427 0.142325018957234 -0.110294961682787 0.13452088800876 -0.111205278017242 0.12681231447244 -0.112725485149457 0.119246885789881 -0.114846198364113 0.111871305724626 -0.117554325833547 0.104731106045169 -0.120833149437706 0.0978703654430779 -0.124662427970343 0.0913314374214041 -0.129018522094334 0.0851546888332306 -0.133874540274715 0.0793782506844287 -0.139200504788563 0.0740377827390028 -0.144963536786875 0.0691662533801849 -0.15112805926602 0.0647937360862677 -0.157656016695729 0.060947223777592 -0.164507109947824 0.0576504621807864 -0.17163904507537 0.05492380323895 -0.179007794406471 0.0527840794727264 -0.186567868340895 0.0512445000678755 -0.19427259617164 0.0503145693308277 -0.202074414197843 0.0500000280156204 -0.209925159350421 0.0503028178844226 -0.217776366517797 0.0512210697204288 -0.225579567736231 0.0527491148671199 -0.23328659139776 0.0548775202226579 -0.240849859628638 0.0575931464733812 -0.24822268200247 0.0608792292069081 -0.255359543774854 0.0647154824041107 -0.262216386860171 0.0690782236710728 -0.268750881815961 0.0739405204379333 -0.274922689155847 0.0792723562220847 -0.280693708377834 0.0850408159293335 -0.286028313170651 0.0912102890490966 -0.290893571346145 0.0977426894892505 -0.295259448140007 0.10459769069352 -0.299098991625782 0.111732974589956 -0.302388499097573 0.119104492833661 -0.305107663394267 0.126666738731038 -0.307239698262017 0.134373028166877 -0.308771441981044 0.142175787800037 -0.309693438617062 0.150026848748599 -0.309999996395728 0.157877743951479 -0.309689222839747 0.165680007370791 -0.30876303645173 0.173385473187903 -0.307227154870672 0.180946573146128 -0.305091059575179 0.188316630204498 -0.302367937351323 0.195450146689772 -0.299074598886478 0.202303085167836 -0.295231374991677 0.208833140300595 -0.290861991093137 0.215000000010094 -0.285993420767769 0.215000000010008 -0.134006579232173 0.245000124396142 -0.178775388447332 0.242280126198805 -0.171472369517765 0.238999687949524 -0.164403338426322 0.23517873256192 -0.157611227148886 0.230840465644008 -0.151137285858755 0.226011234564794 -0.145020832404122 0.220720368440186 -0.139299013521057 0.245000168900006 -0.105000000000004 0.209056742213647 -0.129301169771248 0.202774125529045 -0.125059481543276 0.196188251876722 -0.12130588864252 0.211054081485827 -0.130819800829052 0.206815790456754 -0.127764066889287 0.201747494054935 -0.124503910314284 0.186662845048815 -0.116542955172824 0.177843674815888 -0.112906508213248 0.172146403452865 -0.110951829863778 0.165827819560326 -0.111260544217221 0.20885042971204 -0.129150591072771 0.202339530510622 -0.12479100078647 0.195507277918857 -0.120954575315051 0.188395620489074 -0.117664869480658 0.181048222258839 -0.114942081365182 0.173510194663219 -0.112802928298406 1 2 71 70 1 71 61 55 54 61 56 55 61 57 56 61 58 57 61 59 58 61 60 59 62 53 65 52 53 51 51 53 50 50 53 49 49 53 48 48 53 47 47 53 46 46 53 45 45 53 44 44 53 43 43 53 42 42 53 41 41 53 40 40 53 39 39 53 38 38 53 37 37 53 36 36 53 35 35 53 72 35 72 73 35 73 64 35 64 34 34 64 33 33 64 32 32 64 31 31 64 30 30 64 29 29 64 28 28 64 27 27 64 26 26 64 25 25 64 24 24 64 23 23 64 22 22 64 21 21 64 20 20 64 19 19 64 18 18 64 17 15 68 14 14 68 13 13 68 12 12 68 11 11 68 10 10 68 9 9 68 8 8 68 7 7 68 6 6 68 5 5 68 4 4 68 3 3 68 2 2 68 71 53 60 61 61 1 70 61 70 69 61 69 68 68 64 61 15 16 17 15 17 68 68 17 64 
17 15 1 0 2.8421709430404e-14
72.25500000008 71.60500006148 4.9875 72.25000000008 71.55499995782 4.9875 72.3237752739255 71.5549999133212 4.9875 72.2790065793122 71.5850000000399 4.9875 72.2842990014136 71.5792796437939 4.9875 72.2900208062856 71.5739887878813 4.9875 72.2961372441443 71.569159564838 4.9875 72.3026111685124 71.5648213036014 4.9875 72.3094032618183 71.5610003513896 4.9875 72.3164722741801 71.5577199136888 4.9875 72.27500000008 71.58500000004 4.9875 72.2555014301178 71.6005496327034 4.9875 72.2569806036807 71.5963223647973 4.9875 72.2593633485408 71.5925302314518 4.9875 72.2625301834561 71.589363386808 4.9875 72.2663223094818 71.5869806302985 4.9875 72.2705495728438 71.5855014437495 4.9875 0.19499993856998 -0.309999999999917 0.245000042230004 -0.314999999999998 0.245000086728786 -0.241224726154469 0.215000000010094 -0.285993420767769 0.220720356256118 -0.280700998666365 0.226011212168691 -0.274979193794365 0.230840435212014 -0.268862755935718 0.235178696448601 -0.262388831567611 0.238999648660386 -0.255596738261706 0.242280086361195 -0.248527725899858 0.215000000010003 -0.290000000000006 0.199450367346606 -0.309498569962172 0.203677635252657 -0.308019396399319 0.207469768598162 -0.305636651539189 0.210636613241967 -0.302469816623919 0.213019369751522 -0.298677690598226 0.214498556300539 -0.294450427236217 2 12 1 2 13 12 2 14 13 2 15 14 2 16 15 2 17 16 5 4 11 5 11 17 5 17 2 6 5 2 7 6 2 8 7 2 9 8 2 10 9 2 2 3 10 
9 7 1 0 2.00971834711523e-14
72.3237752739255 71.5549999133212 4.9875 72.331407688461 71.5528228276564 4.9875 72.3391887191152 71.5512578945619 4.9875 72.3470693504889 71.5503149720917 4.9875 72.3549999397633 71.55000000004 4.9875 72.3629305294177 71.5503149625247 4.9875 72.3708111619289 71.5512578754883 4.9875 72.3785921944709 71.5528227991963 4.9875 72.3862246116327 71.5549998756539 4.9875 0.245000086728786 -0.241224726154469 0.247177172393586 -0.233592311619023 0.248742105488115 -0.22581128096477 0.249685027958341 -0.217930649591085 0.250000000009971 -0.21000006031667 0.249685037525274 -0.202069470662299 0.248742124561717 -0.194188838151141 0.247177200853705 -0.186407805609063 0.245000124396142 -0.178775388447332 9 1 8 8 1 7 7 1 2 7 2 3 7 3 6 6 3 5 5 3 4 
9 7 1 0 7.31533337435037e-12
72.43099342084 71.58500000004 4.9875 72.2790065793122 71.5850000000399 4.9875 72.27500000008 71.58500000004 4.9875 72.27500000008 71.58500000004 6.6875001632 72.35279197336 71.58500000004 6.687500163214 72.427759926 71.58500000004 6.301823481381 72.4295538565379 71.5850000000465 6.29070644380176 72.4306331610477 71.5850000000465 6.27949743790456 72.43099342085 71.58500000004 6.268242353529 0.850000081608 -0.077996710386147 0.850000081608 0.0739901311477543 0.850000081608 0.0779967103800274 -0.850000081592882 0.0779967103799919 -0.850000081605999 0.00020473709999181 -0.464323399780159 -0.074763215552224 -0.453206362193758 -0.0765571460779114 -0.441997356296555 -0.0776364505877384 -0.430742271920999 -0.0779967103900105 6 4 5 9 6 7 9 7 8 9 4 6 2 9 1 3 9 2 3 4 9 
40 54 1 0 0.000179586311535701
72.45500000008 71.65000000004 6.268242353539 72.4546911001445 71.6421460477003 6.26824235353279 72.4537663087299 71.6343406170673 6.26824235353275 72.4522313391936 71.6266319300812 6.26824235353274 72.4500956745752 71.6190676109999 6.26824235353277 72.4473725090078 71.6116943921764 6.26824235353282 72.4440786662047 71.6045578253467 6.26824235353291 72.4402344955223 71.597702000211 6.26824235353303 72.4358637462418 71.5911692720478 6.26824235353318 72.43099342085 71.58500000004 6.268242353529 72.45132543677 71.65000000004 6.306404152618 72.4533640703855 71.6500000000346 6.29377068311412 72.4545905986305 71.6500000000347 6.28103270025882 72.4510222121908 71.6421460476997 6.30634521173118 72.4501144117992 71.6343406170664 6.30616875321042 72.4486076439764 71.62663193008 6.30587586721523 72.4465112175321 71.6190676109984 6.30546836319489 72.4438380841859 71.6116943921746 6.30494875870869 72.4406047585521 71.6045578253447 6.30432026387245 72.436831216112 71.5977020002088 6.30358676152642 72.4325407698059 71.5911692720454 6.3027527832471 72.427759926 71.58500000004 6.301823481381 72.4295538565379 71.5850000000465 6.29070644380176 72.4306331610477 71.5850000000465 6.27949743790456 72.4542823310176 71.6421460476948 6.28101294557253 72.4533594326572 71.6343406170619 6.28095380355828 72.4530576971451 71.6421460476947 6.2937312546176 72.451827605214 71.6266319300759 6.28085563959535 72.4521404701986 71.6343406170618 6.29361321271744 72.4496963123159 71.6190676109948 6.28071906014057 72.4506180561728 71.6266319300759 6.29341728667632 72.4469787210876 71.6116943921715 6.28054490898163 72.4484998605396 71.6190676109947 6.29314468692506 72.443691620804 71.604557825342 6.28033426202415 72.4457989695087 71.6116943921714 6.29279709758457 72.4398553191662 71.5977020002067 6.28008842064475 72.4425320691813 71.604557825342 6.29237666606132 72.4354935168407 71.5911692720438 6.27980890365115 72.4387193424632 71.5977020002066 6.29188598978069 72.4343843443748 71.5911692720438 6.29132810014008 3.13992165601462e-11 0 9.15234468026643e-28 0.0786204929681578 9.15234468026643e-28 0.157240985936316 9.15234468026643e-28 0.235861478904473 9.15234468026643e-28 0.314481971872631 9.15234468026643e-28 0.393102464840789 9.15234468026643e-28 0.471722957808947 9.15234468026643e-28 0.550343450777104 9.15234468026643e-28 0.628963943745262 -2.92614266150792e-11 0.707584436581347 0.191986217771845 0 0.127990811861148 0 0.0639954059462734 0 0.191986217771735 0.0786204929717946 0.191986217771624 0.157240985943589 0.191986217771514 0.235861478915384 0.191986217771403 0.314481971887178 0.191986217771293 0.393102464858973 0.191986217771182 0.471722957830767 0.191986217771072 0.550343450802562 0.191986217770961 0.628963943774356 0.191986217969504 0.707584436582172 0.127990811969916 0.707584436581897 0.063995405970327 0.707584436581622 0.0639954059462734 0.0786204929681578 0.0639954059462734 0.157240985936316 0.127990811861148 0.0786204929681578 0.0639954059462734 0.235861478904473 0.127990811861148 0.157240985936316 0.0639954059462734 0.314481971872631 0.127990811861148 0.235861478904473 0.0639954059462734 0.393102464840789 0.127990811861148 0.314481971872631 0.0639954059462734 0.471722957808947 0.127990811861148 0.393102464840789 0.0639954059462734 0.550343450777104 0.127990811861148 0.471722957808947 0.0639954059462734 0.628963943745262 0.127990811861148 0.550343450777104 0.127990811861148 0.628963943745262 24 10 9 22 23 21 25 2 1 25 1 13 26 3 2 26 2 25 27 12 11 27 13 12 27 11 14 27 25 13 28 4 3 28 3 26 29 14 15 29 25 27 29 26 25 29 27 14 30 5 4 30 4 28 31 15 16 31 28 26 31 26 29 31 29 15 32 6 5 32 5 30 33 16 17 33 28 31 33 30 28 33 31 16 34 7 6 34 6 32 35 17 18 35 33 17 35 30 33 35 32 30 36 8 7 36 7 34 37 18 19 37 35 18 37 34 32 37 32 35 38 9 8 38 24 9 38 8 36 39 19 20 39 34 37 39 36 34 39 37 19 40 20 21 40 23 24 40 21 23 40 39 20 40 24 38 40 38 36 40 36 39 
4 2 1 0 0.000256215303338081
72.45500000008 71.95000000004 6.268242353542 72.45500000008 71.95000000004 4.9875 72.45500000008 71.65000000004 6.268242353539 72.45576864599 71.63384690368 4.9875 0.640371176771 -0.149999999999991 -0.640371176771 -0.149999999999991 0.640371176767999 0.149999999999991 -0.640371176771 0.166153096359992 3 2 1 3 4 2 

TShapes 16
Ve
0.202055115720393
72.45576864599 71.63384690368 4.9875
0 0

0101101
*
Ve
0.200001999999994
72.2790065793122 71.5850000000399 4.9875
0 0

0101101
*
Ed
 0.200001999999994 1 1 0
1  1 0 0.0937336325464765 4.10185734545869
2  1 1 0 0.0937336325464765 4.10185734545869
4 C0 2 0 1 0
6  1 1 0
0

0101000
+16 0 -15 0 *
Ve
1.2438737725461e-07
72.3237752739255 71.5549999133212 4.9875
0 0

0101101
*
Ed
 1e-07 1 1 0
1  1 0 4.10185734545869 4.64751158347124
2  2 1 0 4.10185734545869 4.64751158347124
4 C0 2 0 1 0
6  2 2 0
0

0101000
+15 0 -13 0 *
Ve
1.68886669516729e-07
72.3862246116327 71.5549998756539 4.9875
0 0

0101101
*
Ed
 1e-07 1 1 0
1  1 0 4.64751158347124 5.28262568124929
2  3 1 0 4.64751158347124 5.28262568124929
4 C0 2 0 1 0
6  3 3 0
0

0101000
+13 0 -11 0 *
Ve
0.200001999999994
72.43099342084 71.58500000004 4.9875
0 0

0101101
*
Ed
 1e-07 1 1 0
1  1 0 5.28262568124929 5.82828112559621
2  4 1 0 5.28262568124929 5.82828112559621
4 C0 2 0 1 0
6  4 1 0
0

0101000
+11 0 -9 0 *
Ve
1e-07
72.43099342085 71.58500000004 6.268242353529
0 0

0101101
*
Ed
 1e-07 1 1 0
1  2 0 0 1.280742353529
2  5 1 0 0 1.280742353529
4 C0 1 0 3 0
6  5 4 0
0

0101000
+7 0 -9 0 *
Ve
0.00205511606954124
72.45500000008 71.65000000004 6.268242353539
0 0

0101101
*
Ed
 1e-07 1 1 0
1  3 0 0 0.70758443671342
2  6 1 0 0 0.70758443671342
2  7 4 0 0 0.70758443671342
4 G1 1 0 4 0
6  6 5 0
0

0101000
+5 0 -7 0 *
Ed
 0.00205511606954124 1 1 0
1  4 0 0 1.2808444439069
2  8 1 0 0 1.2808444439069
4 C0 5 0 1 0
6  7 6 0
0

0101000
+5 0 -16 0 *
Wi

0101100
+14 0 +12 0 +10 0 +8 0 -6 0 -4 0 +3 0 *
Fa
0  1e-07 1 0

0111000
+2 0 *

+1 0 