DBRep_DrawableShape

CASCADE Topology V3, (c) Open Cascade
Locations 0
Curve2ds 3
7 0 0  1 2 2  8.9446614479809892 0.025614847071000924  9.265831338173804 0.025614847071000924 
 0.5000000003949624 2 1 2
7 0 0  1 2 2  8.7171935240000806 0.025614847071000924  6.1242386845839754 0.025614847071000924 
 5.828281125555411 2 6.3769189397290864 2
7 0 0  1 2 2  8.944661447980863 0.025614847071000924  8.7171935240000806 0.025614847071000924 
 5.828281125555411 2 6.0557490495361446 2
Curves 2
7 0 0  3 5 3  71.409006579319993 68.815000000040001 4.9875000000000007  71.404887758740003 68.810184565189999 4.9875000000000007  71.39653676894001 68.798338352419989 4.9875000000000007  71.387262258310002 68.777891737670004 4.9875000000000007  71.384231354169998 68.766153096400004 4.9875000000000007 
 0 4 0.5 1 1 4
2 71.485000000080007 68.750000000040004 4.9875000000000007 0 0 1 -0.96824583655110508 0.25000000000290135 0 -0.25000000000290135 -0.96824583655110508 0 0.10000000000000001
Polygon3D 0
PolygonOnTriangulations 3
5 64 68 69 70 71 
p 0.05 1 0.500000000394962 0.680000000252776 0.825800000137605 0.912900000068802 1 
8 53 72 73 74 75 76 77 71 
p 0.05 1 5.82828112555541 5.90665795615165 5.98503478674789 6.06341161734413 6.14178844794037 6.22016527853661 6.29854210913285 6.37691893972909 
4 53 62 63 64 
p 0.05 1 5.82828112555541 5.90410376688232 5.97992640820923 6.05574904953614 
Surfaces 2
2 71.485000000080007 68.750000000040004 4.9618851529289998 0 0 1 1 0 -0 -0 1 0 0.10000000000000001
1 71.275000000079999 68.600000000039998 4.9875000000000007 0 0 1 0 -1 0 1 0 -0 
Triangulations 1
77 74 1 0 0.0010275477574447
71.38423135417 68.7661530964 4.9875 71.3853226804208 68.7580269512387 4.9875 71.3850001558943 68.7501765300004 4.9875 71.3852949617628 68.7423250189872 4.9875 71.3862052780972 68.7345208880388 4.9875 71.3877254852295 68.7268123145024 4.9875 71.3898461984441 68.7192468858199 4.9875 71.3925543259135 68.7118713057546 4.9875 71.3958331495177 68.7047311060752 4.9875 71.3996624280503 68.6978703654731 4.9875 71.4040185221743 68.6913314374514 4.9875 71.4088745403547 68.6851546888632 4.9875 71.4142005048686 68.6793782507144 4.9875 71.4199635368669 68.674037782769 4.9875 71.426128059346 68.6691662534102 4.9875 71.4326560167757 68.6647937361163 4.9875 71.4395071100278 68.6609472238076 4.9875 71.4466390451554 68.6576504622108 4.9875 71.4540077944865 68.654923803269 4.9875 71.4615678684209 68.6527840795027 4.9875 71.4692725962516 68.6512445000979 4.9875 71.4770744142778 68.6503145693608 4.9875 71.4849251594304 68.6500000280456 4.9875 71.4927763665978 68.6503028179144 4.9875 71.5005795678162 68.6512210697504 4.9875 71.5082865914778 68.6527491148971 4.9875 71.5158498597086 68.6548775202527 4.9875 71.5232226820825 68.6575931465034 4.9875 71.5303595438549 68.6608792292369 4.9875 71.5372163869402 68.6647154824341 4.9875 71.543750881896 68.6690782237011 4.9875 71.5499226892358 68.6739405204679 4.9875 71.5556937084578 68.6792723562521 4.9875 71.5610283132506 68.6850408159593 4.9875 71.5658935714261 68.6912102890791 4.9875 71.57025944822 68.6977426895192 4.9875 71.5740989917058 68.7045976907235 4.9875 71.5773884991776 68.7117329746199 4.9875 71.5801076634743 68.7191044928637 4.9875 71.582239698342 68.726666738761 4.9875 71.583771442061 68.7343730281969 4.9875 71.5846934386971 68.74217578783 4.9875 71.5849999964757 68.7500268487786 4.9875 71.5846892229197 68.7578777439815 4.9875 71.5837630365317 68.7656800074008 4.9875 71.5822271549507 68.7733854732179 4.9875 71.5800910596552 68.7809465731761 4.9875 71.5773679374313 68.7883166302345 4.9875 71.5740745989665 68.7954501467198 4.9875 71.5702313750717 68.8023030851978 4.9875 71.5658619911732 68.8088331403306 4.9875 71.5609934208478 68.8150000000401 4.9875 71.40900657932 68.81500000004 4.9875 71.4537750100881 68.84500000004 4.9875 71.4464720545087 68.8422799946762 4.9875 71.4394030852662 68.8389995582382 4.9875 71.4326110333346 68.8351786133378 4.9875 71.4261371479245 68.8308403651809 4.9875 71.420020745971 68.8260111606379 4.9875 71.4142989733554 68.8207203282356 4.9875 71.38000000008 68.84500000004 4.9875 71.404301169851 68.8090567422434 4.9875 71.4000594816229 68.8027741255585 4.9875 71.3963058887221 68.7961882519059 4.9875 71.4058198009126 68.8110540815205 4.9875 71.4027640669691 68.8068157904864 4.9875 71.3995039103959 68.8017474940875 4.9875 71.3915429552525 68.7866628450782 4.9875 71.3879065082931 68.7778436748455 4.9875 71.3859518299437 68.7721464034827 4.9875 71.38423135417 68.7661530964 4.9875 71.4041505911543 68.8088504297441 4.9875 71.3997910008676 68.8023395305425 4.9875 71.3959545753958 68.7955072779504 4.9875 71.3926648695611 68.7883956205203 4.9875 71.3899420814454 68.7810482222897 4.9875 71.3878029283785 68.7735101946936 4.9875 -0.166153096359803 0.109231354086218 -0.158026951198727 0.110322680340757 -0.150176529960379 0.110000155814268 -0.142325018947232 0.110294961682786 -0.134520887998759 0.111205278017242 -0.126812314462439 0.112725485149457 -0.119246885779881 0.114846198364114 -0.111871305714626 0.117554325833548 -0.10473110603517 0.120833149437707 -0.0978703654330799 0.124662427970345 -0.0913314374114069 0.129018522094336 -0.0851546888232341 0.133874540274717 -0.0793782506744329 0.139200504788565 -0.0740377827290076 0.144963536786878 -0.0691662533701903 0.151128059266022 -0.0647937360762736 0.15765601669573 -0.0609472237675985 0.164507109947825 -0.0576504621707932 0.171639045075371 -0.0549238032289571 0.179007794406472 -0.0527840794627338 0.186567868340895 -0.051244500057883 0.19427259617164 -0.0503145693208353 0.202074414197843 -0.0500000280056279 0.20992515935042 -0.05030281787443 0.217776366517795 -0.0512210697104359 0.225579567736229 -0.0527491148571268 0.233286591397757 -0.0548775202126644 0.240849859628635 -0.0575931464633873 0.248222682002467 -0.0608792291969136 0.255359543774851 -0.0647154823941156 0.262216386860167 -0.0690782236610771 0.268750881815957 -0.0739405204279368 0.274922689155843 -0.0792723562120875 0.28069370837783 -0.0850408159193355 0.286028313170647 -0.0912102890390978 0.290893571346142 -0.0977426894792509 0.295259448140003 -0.10459769068352 0.299098991625779 -0.111732974579954 0.30238849909757 -0.119104492823659 0.305107663394266 -0.126666738721035 0.307239698262016 -0.134373028156873 0.308771441981044 -0.142175787790033 0.309693438617063 -0.150026848738594 0.30999999639573 -0.157877743941474 0.30968922283975 -0.165680007360786 0.308763036451734 -0.173385473177897 0.307227154870678 -0.180946573136122 0.305091059575187 -0.188316630194492 0.302367937351332 -0.195450146679766 0.299074598886489 -0.20230308515783 0.295231374991689 -0.208833140290591 0.290861991093151 -0.21500000000009 0.285993420767784 -0.215000000000006 0.134006579232161 -0.245000000000023 0.178775010008083 -0.242279994636176 0.171472054428675 -0.238999558198158 0.164403085186253 -0.235178613297844 0.157611033254552 -0.230840365140903 0.151137147844463 -0.226011160597902 0.145020745891024 -0.220720328195573 0.139298973275424 -0.245000000000005 0.105000000000004 -0.209056742203389 0.12930116977105 -0.202774125518504 0.125059481542931 -0.196188251865876 0.121305888642071 -0.211054081480474 0.130819800832597 -0.206815790446422 0.127764066889068 -0.201747494047543 0.124503910315881 -0.186662845038167 0.116542955172538 -0.177843674805495 0.112906508213106 -0.172146403442656 0.110951829863714 -0.165827819550323 0.111260544217217 -0.208850429704124 0.129150591074278 -0.202339530502452 0.124791000787585 -0.195507277910386 0.120954575315825 -0.188395620480261 0.117664869481146 -0.181048222249653 0.114942081365442 -0.173510194653633 0.112802928298502 35 67 34 34 67 33 33 67 32 32 67 31 31 67 30 30 67 29 29 67 28 28 67 27 27 67 26 26 67 25 25 67 24 24 67 23 23 67 22 22 67 21 21 67 20 20 67 19 19 67 18 18 67 17 17 67 16 16 67 15 15 67 14 14 67 13 13 67 12 12 67 11 11 67 10 10 67 9 9 67 8 8 67 7 7 67 6 6 67 5 5 67 4 4 67 3 3 67 2 68 64 61 61 64 63 68 61 69 69 61 70 70 61 71 71 61 2 2 61 1 71 2 67 35 36 67 53 36 37 53 37 38 53 38 39 53 39 40 53 40 41 53 41 42 53 42 43 53 43 44 53 44 45 53 45 46 53 46 47 53 47 48 53 48 49 53 49 50 53 50 51 53 51 52 67 63 64 67 64 71 71 64 68 71 68 69 71 69 70 55 54 61 55 61 56 56 61 57 57 61 58 58 61 59 59 61 60 60 61 53 53 61 65 65 66 53 53 66 67 53 67 36 

TShapes 8
Ve
0.200001999999994
71.3963058887221 68.7961882519059 4.9875
0 0

0101101
*
Ve
0.202055115720391
71.38423135417 68.7661530964 4.9875
0 0

0101101
*
Ed
 0.00205511606584229 1 1 0
1  1 0 0.500000000394962 1
2  1 1 0 0.500000000394962 1
4 C0 2 0 1 0
6  1 1 0
0

0101000
+8 0 -7 0 *
Ve
0.200001999999994
71.40900657932 68.81500000004 4.9875
0 0

0101101
*
Ed
 0.200001999999994 1 1 0
1  2 0 5.82828112555541 6.37691893972909
2  2 1 0 5.82828112555541 6.37691893972909
4 C0 2 0 1 0
6  2 1 0
0

0101000
+5 0 -7 0 *
Ed
 0.200001999999994 1 1 0
1  2 0 5.82828112555541 6.05574904953614
2  3 1 0 5.82828112555541 6.05574904953614
4 C0 2 0 1 0
6  3 1 0
0

0101000
+8 0 -5 0 *
Wi

0101100
+6 0 -4 0 -3 0 *
Fa
0  1e-07 1 0

0111000
+2 0 *

+1 0 