DBRep_DrawableShape

CASCADE Topology V3, (c) Open Cascade
Locations 0
Curve2ds 3
7 0 0  1 2 2  2.8096338564597754 0.0043251650332507552  2.8052437886883737 0.07432516503600084 
 0 2 0.070000413606453413 2
7 0 0  1 2 2  2.8096338564597754 0.0043251650332507552  2.805243788688415 0.074325165035993734 
 0 2 0.070000413606453413 2
7 0 0  1 2 2  6.3267469865736823 0.074325165029272  6.3318127351738065 0.0043251650265219155 
 0 2 0.070000413606453413 2
Curves 2
1 27.521544274339998 30.578385643520001 -1.288965032171 0.70735035939676327 0.70685484696896328 0.0034197043371138221 
1 27.521544274339998 30.578385643520001 -1.288965032171 0.70735035939681334 0.70685484696891321 0.0034197043371110643 
Polygon3D 0
PolygonOnTriangulations 2
3 1 4 5 
p 0.0166666666666667 1 0 0.0233334712021511 0.0700004136064534 
3 7 8 3 
p 0.0166666666666667 1 0 0.0233334712021511 0.0700004136064534 
Surfaces 3
2 27.4853090362 30.608504174610001 -1.3051387818860001 0.70710678118154768 0.70710678119154757 0 -0.70710678119154757 0.70710678118154768 0 0 -0 1 0.050000000004729997
1 27.5343293305 30.615098062049999 -1.2599999999980001 0.58834840544078626 -0.58834840538788624 0.55470019622568711 0.3922322702271418 -0.39223227032624186 -0.8320502943375383 0.70710678119202519 0.70710678118106984 -7.9054452325467653e-11 
2 27.540923217930001 30.664118356340001 -1.291010205144 -0.70710678118654757 -0.70710678118654757 0 0.70710678118654757 -0.70710678118654757 0 0 0 1 0.049999999997419997
Triangulations 2
6 4 1 0 0.00164071494337728
27.52154427434 30.57838564352 -1.288965032171 27.51146032533 30.5884695925338 -1.26578063004612 27.50137637632 30.59855354154 -1.242596227922 27.5380492135808 30.5948790207359 -1.28888523859833 27.57105909206 30.62786577517 -1.288725651453 27.55087385101 30.64805101622 -1.242596227923 0.0334854472116104 -0.0350000000024891 0.00628435817100498 -0.0350000000017788 -0.020916730866035 -0.0350000000063741 0.0334235899436499 -0.0116666666682467 0.0332998754058658 0.0349999999999818 -0.0209167308671438 0.034999999996371 6 3 2 4 2 1 4 6 2 5 6 4 
12 10 1 0 0.0063415396195515
27.50958059316 30.5903493247 -1.331010205149 27.561600316 30.63732455123 -1.327916992569 27.57105909206 30.62786577517 -1.288725651453 27.570827929297 30.6280969379307 -1.29828668898226 27.5708952668044 30.6280296004174 -1.30984925247194 27.5689995326896 30.6299253345314 -1.31575188408246 27.52154427434 30.57838564352 -1.288965032171 27.5380492135808 30.5948790207358 -1.28888523859833 27.5180256286807 30.5819042891793 -1.31918361534561 27.5201729305892 30.5797569872708 -1.31422507612202 27.5211862022456 30.5787437156144 -1.30294073285287 27.5212308632174 30.5786990546426 -1.29438189616424 5.40310822317076 0.074325165029272 5.45043204562042 0.00432516502652192 6.33181273517381 0.00432516502652192 6.19960563174367 0.00432516502652192 6.00800512273995 0.00432516502652192 5.82501883868205 0.00432516502652192 6.32674698657368 0.074325165029272 6.32843556944039 0.050991831695022 5.81361434023873 0.074325165029272 5.95044971259471 0.074325165029272 6.1385983495842 0.074325165029272 6.2531119719278 0.074325165029272 9 1 2 9 2 6 10 6 5 10 9 6 11 5 4 11 10 5 12 11 4 8 4 3 8 12 4 7 12 8 

TShapes 6
Ve
0.00724753243051455
27.52154427434 30.57838564352 -1.288965032171
0 0

0101101
*
Ve
0.00556240310634564
27.57105909206 30.62786577517 -1.288725651453
0 0

0101101
*
Ed
 0.00198930342803341 1 1 0
1  1 0 0 0.0700004136064534
2  1 1 0 0 0.0700004136064534
4 C0 2 0 1 0
6  1 1 0
0

0101000
+6 0 -5 0 *
Ed
 0.00303627754984299 1 1 0
1  2 0 0 0.0700004136064534
2  2 1 0 0 0.0700004136064534
2  3 3 0 0 0.0700004136064534
4 C0 1 0 3 0
6  2 2 0
0

0101000
+6 0 -5 0 *
Wi

0101100
-4 0 +3 0 *
Fa
0  1e-07 1 0

0111000
+2 0 *

-1 0 