DBRep_DrawableShape

CASCADE Topology V3, (c) Open Cascade
Locations 0
Curve2ds 2
7 0 0  3 4 2  6.5630806701751609 0.080577839024485357  6.563080670107194 0.080577842615351683  6.5629708517932324 0.086379894315474312  6.5626708227352566 0.10223138614000504 
 0.78867520000000002 4 0.99999999999998701 4
7 0 0  3 25 23  6.5626708227352566 0.10223138614000504  6.5626199407223513 0.10492041322184972  6.5625291300277819 0.10972007584785518  6.562423408229793 0.11530880328154537  6.5623458131303956 0.11941117231766593  6.5622939834682557 0.12215159106391404  6.5622655609964493 0.12365446762800658  6.5622581903400174 0.12404421011767516  6.562269518119078 0.12344522664065821  6.5622971923572466 0.12198192530465227  6.5623388619139185 0.11977871421738633  6.5623921760024908 0.11696000148658732  6.5624547837827354 0.11365019521995738  6.5625243340242285 0.10997370352525772  6.5625984748514572 0.10605493451016544  6.5626748535582262 0.10201829628242234  6.5627511164988617 0.097988196949765669  6.5628249090556814 0.094089044619886875  6.5628938756788076 0.090445247400536097  6.5629556600050449 0.087181213399403365  6.563007905043011 0.084421350724232389  6.5630482534630019 0.082290067482739662  6.5630743478445668 0.08091177178265499  6.5630806702533624 0.080577838415339414  6.5630806701751592 0.080577839024485343 
 0.99999999999998701 4 1.0358488727272603 1 1.0716977454545336 1 1.107546618181807 1 1.1433954909090802 1 1.1792443636363537 1 1.2150932363636269 1 1.2509421090909003 1 1.2867909818181735 1 1.322639854545447 1 1.3584887272727202 1 1.3943375999999936 1 1.4301864727272668 1 1.4660353454545403 1 1.5018842181818135 1 1.5377330909090869 1 1.5735819636363602 1 1.6094308363636334 1 1.6452797090909068 1 1.68112858181818 1 1.7169774545454535 1 1.7528263272727267 1 1.7886752000000001 4
Curves 1
7 0 1  3 3 2  -15.46841870708 43.324503489050002 -0.78621743943599998  -15.468415870719999 43.3995135766 -0.78620168185759998  -15.46842154344 43.249493401510001 -0.78623319701439998 
 0 3 1 3
Polygon3D 0
PolygonOnTriangulations 0
Surfaces 2
2 -15.47696070864 43.222272102909997 -0.79000000000000004 0 1 0 0.76718739504006983 -0 0.64142302803347484 0.64142302803347484 0 -0.76718739504006983 0.0099999999994790003
1 -15.682594376979999 44.668000304549999 -1.9888576498849999 0.98418332397358166 0 -0.1771529983158967 0.1771529983158967 0 0.98418332397358166 0 -1 0 
Triangulations 0

TShapes 6
Ve
0.223935485690684
-15.4688684630349 43.2301771335745 -0.784144387148934
0 0

0101101
*
Ve
0.121858367681875
-15.46841870708 43.32450348905 -0.786217439436001
0 0

0101101
*
Ed
 0.00226321909181518 1 1 0
1  1 0 0.7886752 0.999999999999987
2  1 1 0 0.7886752 0.999999999999987
4 C0 2 0 1 0
0

0101000
+6 0 -5 0 *
Ed
 0.00226321909298466 1 1 0
1  1 0 0.999999999999987 1.7886752
2  2 1 0 0.999999999999987 1.7886752
4 C0 2 0 1 0
0

0101000
+5 0 -6 0 *
Wi

0101100
+4 0 +3 0 *
Fa
0  1e-07 1 0

0111000
+2 0 *

+1 0 