DBRep_DrawableShape

CASCADE Topology V3, (c) Open Cascade
Locations 0
Curve2ds 3
7 0 0  1 2 2  2.8096338565167414 0.0043251650350004667  2.8052437886911017 0.074325165034920815 
 0 2 0.070000413603634251 2
7 0 0  1 2 2  2.8096338565167414 0.0043251650350004667  2.8052437886911017 0.074325165034920815 
 0 2 0.070000413603634251 2
7 0 0  1 2 2  6.326746986509864 0.07432516503491815  6.3318127351550215 0.0043251650349978021 
 0 2 0.070000413603634251 2
Curves 2
1 4.271544274339 2.8283856435220001 -1.2889650321820001 0.7073503593779995 0.70685484698759959 0.003419704366189998 
1 4.271544274339 2.8283856435220001 -1.2889650321820001 0.7073503593779995 0.70685484698759959 0.003419704366189998 
Polygon3D 0
PolygonOnTriangulations 2
3 1 4 5 
p 0.0166666666666667 1 0 0.0233334712012114 0.0700004136036343 
3 7 8 3 
p 0.0166666666666667 1 0 0.0233334712012114 0.0700004136036343 
Surfaces 3
2 4.2353090361980001 2.8585041746109998 -1.3051387818939999 0.70710678118654757 0.70710678118654757 0 -0.70710678118654757 0.70710678118654757 0 0 -0 1 0.04999999999989
1 4.2843293305010004 2.8650980620430002 -1.2600000000080001 0.58834840541432087 -0.58834840541432087 0.55470019622571975 0.39223227027671498 -0.39223227027671498 -0.83205029433751665 0.70710678118654757 0.70710678118654757 8.1524687095804742e-18 
2 4.2909232179329999 2.914118356346 -1.291010205152 -0.70710678118654757 -0.70710678118654757 0 0.70710678118654757 -0.70710678118654757 0 0 0 1 0.04999999999989
Triangulations 2
6 4 1 0 0.00164071494769406
4.271544274339 2.828385643522 -1.288965032182 4.26146032533187 2.83846959252987 -1.265780630057 4.251376376324 2.848553541537 -1.242596227932 4.28804921357871 2.84487902073762 -1.28888523860865 4.321059092058 2.877865775169 -1.288725651461 4.300873851007 2.89805101622 -1.242596227933 0.0334854472056763 -0.0349999999999592 0.00628435816839795 -0.0349999999994288 -0.0209167308688804 -0.0349999999999592 0.0334235899384465 -0.0116666666666524 0.0332998754030699 0.0349999999997742 -0.0209167308688715 0.0349999999999585 6 3 2 4 2 1 4 6 2 5 6 4 
12 10 1 0 0.00634153961755242
4.259580593159 2.840349324702 -1.331010205152 4.311600315995 2.887324551232 -1.327916992577 4.321059092058 2.877865775169 -1.288725651461 4.32082792929573 2.87809693793152 -1.29828668899064 4.3208952668055 2.87802960042254 -1.30984925248003 4.31899953269185 2.87992533453662 -1.31575188409014 4.271544274339 2.828385643522 -1.288965032182 4.28804921357871 2.84487902073762 -1.28888523860865 4.26802562867937 2.83190428918262 -1.31918361534778 4.27017293058775 2.82975698727413 -1.31422507612502 4.27118620224725 2.82874371561414 -1.30294073285902 4.27123086321937 2.8286990546417 -1.29438189616598 5.40310822333825 0.0743251650342112 5.45043204557848 0.00432516503500047 6.33181273515502 0.0043251650349978 6.19960563173614 0.00432516503500047 6.00800512271202 0.00432516503500047 5.82501883865731 0.00432516503500047 6.32674698650986 0.0743251650349182 6.32843556939158 0.0509918317016114 5.81361434030341 0.0743251650345254 5.95044971262513 0.0743251650346301 6.1385983495675 0.0743251650347741 6.25311197197802 0.0743251650348618 9 1 2 9 2 6 10 6 5 10 9 6 11 5 4 11 10 5 12 11 4 8 4 3 8 12 4 7 12 8 

TShapes 6
Ve
0.00724753242766169
4.271544274339 2.828385643522 -1.288965032182
0 0

0101101
*
Ve
0.00556240310577934
4.321059092058 2.877865775169 -1.288725651461
0 0

0101101
*
Ed
 0.00198930343374936 1 1 0
1  1 0 0 0.0700004136036343
2  1 1 0 0 0.0700004136036343
4 C0 2 0 1 0
6  1 1 0
0

0101000
+6 0 -5 0 *
Ed
 0.00303627755244214 1 1 0
1  2 0 0 0.0700004136036343
2  2 1 0 0 0.0700004136036343
2  3 3 0 0 0.0700004136036343
4 C0 1 0 3 0
6  2 2 0
0

0101000
+6 0 -5 0 *
Wi

0101100
-4 0 +3 0 *
Fa
0  1e-07 1 0

0111000
+2 0 *

-1 0 