DBRep_DrawableShape

CASCADE Topology V3, (c) Open Cascade
Locations 0
Curve2ds 3
7 0 0  1 2 2  2.8096338564930456 0.0043251650342934767  2.8052437886720947 0.074325165034208496 
 0 2 0.070000413603627396 2
7 0 0  1 2 2  2.8096338564930456 0.0043251650342934767  2.8052437886720987 0.074325165034208496 
 0 2 0.070000413603627396 2
7 0 0  1 2 2  6.3267469865311385 0.07432516503491815  6.3318127351706037 0.0043251650350031312 
 0 2 0.070000413603627396 2
Curves 2
1 -4.271544274339 -2.8283856435220001 -1.288965032181 -0.70735035937730906 -0.70685484698830914 0.0034197043623320437 
1 -4.271544274339 -2.8283856435220001 -1.288965032181 -0.70735035937730906 -0.70685484698830914 0.0034197043623290439 
Polygon3D 0
PolygonOnTriangulations 2
3 4 5 3 
p 0.0166666666666667 1 0 0.0233334712012091 0.0700004136036274 
3 7 8 3 
p 0.0166666666666667 1 0 0.0233334712012091 0.0700004136036274 
Surfaces 3
2 -4.2353090361990002 -2.8585041746109998 -1.3051387818939999 -0.70710678118654757 -0.70710678118654757 0 0.70710678118654757 -0.70710678118654757 0 0 0 1 0.050000000000239998
1 -4.2843293305010004 -2.8650980620439999 -1.2600000000080001 0.58834840541432087 -0.58834840541432087 -0.55470019622571975 -0.39223227027671498 0.39223227027671498 -0.83205029433751665 0.70710678118654757 0.70710678118654757 -8.1524687095804742e-18 
2 -4.2909232179329999 -2.914118356346 -1.291010205152 0.70710678118654757 0.70710678118654757 0 -0.70710678118654757 0.70710678118654757 0 0 -0 1 0.04999999999989
Triangulations 2
6 4 1 0 0.00164071494671119
-4.251376376325 -2.848553541537 -1.242596227932 -4.300873851007 -2.89805101622 -1.242596227932 -4.321059092058 -2.877865775169 -1.288725651462 -4.271544274339 -2.828385643522 -1.288965032181 -4.2880492135787 -2.84487902073764 -1.28888523860774 -4.261460325332 -2.83846959252987 -1.26578063005688 -0.0209167308680957 0.0349999999999589 -0.0209167308684677 -0.0349999999999592 0.0332998754037332 -0.0349999999992489 0.0334854472052363 0.035000000000666 0.0334235899380686 0.0116666666673611 0.00628435816873526 0.0350000000000473 6 1 2 5 2 3 5 6 2 4 6 5 
12 10 1 0 0.00634153961740788
-4.259580593159 -2.840349324702 -1.331010205152 -4.311600315995 -2.887324551232 -1.327916992577 -4.321059092058 -2.877865775169 -1.288725651462 -4.32082792929573 -2.87809693793212 -1.29828668899081 -4.32089526680549 -2.87802960042274 -1.3098492524802 -4.31899953269185 -2.87992533453662 -1.31575188409014 -4.271544274339 -2.828385643522 -1.288965032181 -4.2880492135787 -2.84487902073764 -1.28888523860774 -4.26802562867937 -2.83190428918262 -1.31918361534778 -4.27017293058775 -2.82975698727413 -1.31422507612502 -4.27118620224725 -2.82874371561414 -1.30294073285896 -4.27123086321937 -2.8286990546417 -1.29438189616551 5.40310822332548 0.0743251650342112 5.45043204557848 0.00432516503500047 6.3318127351706 0.00432516503500313 6.19960563171807 0.00432516503500047 6.0080051226947 0.00432516503500047 5.82501883864828 0.00432516503500047 6.32674698653114 0.0743251650349182 6.32843556941096 0.0509918317016131 5.81361434030577 0.0743251650345254 5.95044971263254 0.0743251650346301 6.13859834958184 0.0743251650347741 6.25311197199695 0.0743251650348618 9 1 2 9 2 6 10 6 5 10 9 6 11 5 4 11 10 5 12 11 4 8 4 3 8 12 4 7 12 8 

TShapes 6
Ve
0.00724753242802897
-4.271544274339 -2.828385643522 -1.288965032181
0 0

0101101
*
Ve
0.00556240310512212
-4.321059092058 -2.877865775169 -1.288725651462
0 0

0101101
*
Ed
 0.00198930343260655 1 1 0
1  1 0 0 0.0700004136036274
2  1 1 0 0 0.0700004136036274
4 C0 2 0 1 0
6  1 1 0
0

0101000
+6 0 -5 0 *
Ed
 0.00303627755239844 1 1 0
1  2 0 0 0.0700004136036274
2  2 1 0 0 0.0700004136036274
2  3 3 0 0 0.0700004136036274
4 C0 1 0 3 0
6  2 2 0
0

0101000
+6 0 -5 0 *
Wi

0101100
-4 0 +3 0 *
Fa
0  1e-07 1 0

0111000
+2 0 *

-1 0 