DBRep_DrawableShape

CASCADE Topology V3, (c) Open Cascade
Locations 0
Curve2ds 1
7 0 0  3 25 23  6.3456458076500395 0.0022505479599956857  6.2953400086422597 0.017504128636811663  6.2010901480586886 0.04690931100194045  6.0775917428469031 0.087363383557527957  5.9704513715453302 0.12381626915211087  5.8792340203240121 0.15591950861484999  5.8043560348414793 0.18332825752518278  5.7471696524275142 0.20568418566316732  5.709563087876977 0.22267929125623098  5.694756361426963 0.23381774454157442  5.7016256001241734 0.23971678165491964  5.7267857038577699 0.24151966085002596  5.7674022893742691 0.2402431038954152  5.8205274146353165 0.23693546668079996  5.8832457788182122 0.23264510509598307  5.9527587907469179 0.22838874090942923  6.0262515368599985 0.22530963237490723  6.1021876731706142 0.22402501562820193  6.181229892708143 0.22403906090638007  6.2639598530065745 0.22504376643700116  6.3512929260333717 0.22668080200002738  6.4443437383113711 0.22860532317497687  6.5444176694765703 0.23046887079095435  6.6167192713791652 0.23143892951636896  6.6544899967376141 0.23179792162000012 
 0 4 0.045454545454545456 1 0.090909090909090912 1 0.13636363636363635 1 0.18181818181818182 1 0.22727272727272729 1 0.27272727272727271 1 0.31818181818181818 1 0.36363636363636365 1 0.40909090909090912 1 0.45454545454545459 1 0.5 1 0.54545454545454541 1 0.59090909090909094 1 0.63636363636363635 1 0.68181818181818188 1 0.72727272727272729 1 0.77272727272727271 1 0.81818181818181823 1 0.86363636363636365 1 0.90909090909090917 1 0.95454545454545459 1 1 4
Curves 1
7 0 0  3 6 4  18.645096580560001 56.794022650869998 -0.034077155187740002  18.642909566210001 56.905882242499999 -0.031101995829660001  18.637928686519999 57.070339029229999 -0.02995002635753  18.64268578027 57.002116606199998 -0.031150506893930001  18.645631238610001 57.02093741577 -0.034182105717599998  18.646515648520001 57.023570024530002 -0.036806466705030003 
 0 4 0.33333333333330001 1 0.66666666666670005 1 1 4
Polygon3D 0
PolygonOnTriangulations 0
Surfaces 1
2 18.637039291360001 56.791772102910002 -0.040000000000000001 0 1 0 0.76718739504248434 -0 0.64142302803058693 0.64142302803058693 0 -0.76718739504248434 0.0099999999994460007
Triangulations 0

TShapes 4
Ve
0.223935485711045
18.6451315367222 56.7996771335595 -0.0341443868205085
0 0

0101101
*
Ed
 6.62255945321239e-05 1 1 0
1  1 0 0 1
2  1 1 0 0 1
0

0101000
-4 0 +4 0 *
Wi

0101100
-3 0 *
Fa
0  1e-07 1 0

0111000
+2 0 *

+1 0 