DBRep_DrawableShape

CASCADE Topology V3, (c) Open Cascade
Locations 0
Curve2ds 3
7 0 0  1 2 2  2.8096338564597958 0.0043251650332578606  2.8052437886885109 0.074325165035993734 
 0 2 0.070000413606448375 2
7 0 0  1 2 2  2.8096338564597958 0.0043251650332578606  2.8052437886885149 0.074325165035993734 
 0 2 0.070000413606448389 2
7 0 0  1 2 2  6.3267469865736832 0.074325165029257789  6.3318127351737008 0.0043251650265148101 
 0 2 0.070000413606448389 2
Curves 2
1 32.771544274340002 28.328385643520001 -1.288965032171 0.70735035939676338 0.7068548469689635 0.0034197043370438229 
1 32.771544274340002 28.328385643520001 -1.288965032171 0.7073503593967635 0.70685484696896361 0.0034197043370408236 
Polygon3D 0
PolygonOnTriangulations 2
3 1 4 5 
p 0.0166666666666667 1 0 0.0233334712021495 0.0700004136064484 
3 7 8 3 
p 0.0166666666666667 1 0 0.0233334712021495 0.0700004136064484 
Surfaces 3
2 32.7353090362 28.358504174610001 -1.3051387818860001 0.70710678118154768 0.70710678119154757 0 -0.70710678119154757 0.70710678118154768 0 0 -0 1 0.050000000004729997
1 32.7843293305 28.365098062049999 -1.2599999999980001 0.58834840544078626 -0.58834840538788624 0.55470019622568711 0.39223227022729196 -0.39223227032609193 -0.83205029433753841 0.70710678119194204 0.70710678118115322 -7.8877891945645847e-11 
2 32.790923217930001 28.414118356340001 -1.291010205144 -0.70710678118654757 -0.70710678118654757 0 0.70710678118654757 -0.70710678118654757 0 0 0 1 0.049999999997409998
Triangulations 2
6 4 1 0 0.00164071494337703
32.77154427434 28.32838564352 -1.288965032171 32.76146032533 28.3384695925338 -1.26578063004612 32.75137637632 28.34855354154 -1.242596227922 32.7880492135808 28.3448790207358 -1.28888523859833 32.82105909206 28.37786577517 -1.288725651453 32.80087385101 28.39805101622 -1.242596227923 0.0334854472116039 -0.0350000000024912 0.00628435817099726 -0.0350000000017792 -0.0209167308660429 -0.0350000000063672 0.0334235899436494 -0.0116666666682505 0.0332998754058718 0.0349999999999898 -0.0209167308671346 0.034999999996378 6 3 2 4 2 1 4 6 2 5 6 4 
12 10 1 0 0.00634153961956221
32.75958059316 28.3403493247 -1.331010205149 32.811600316 28.38732455123 -1.327916992569 32.82105909206 28.37786577517 -1.288725651453 32.820827929297 28.3780969379307 -1.29828668898226 32.8208952668044 28.3780296004174 -1.30984925247181 32.8189995326896 28.3799253345314 -1.31575188408246 32.77154427434 28.32838564352 -1.288965032171 32.7880492135808 28.3448790207358 -1.28888523859833 32.7680256286807 28.3319042891793 -1.31918361534561 32.7701729305892 28.3297569872708 -1.31422507612202 32.7711862022456 28.3287437156144 -1.30294073285287 32.7712308632174 28.3286990546426 -1.29438189616425 5.40310822317071 0.0743251650292649 5.45043204562041 0.00432516502651481 6.3318127351737 0.00432516502651481 6.19960563174367 0.00432516502651481 6.00800512274302 0.00432516502651481 5.82501883868204 0.00432516502651481 6.32674698657368 0.0743251650292578 6.32843556944036 0.0509918316950101 5.8136143402387 0.0743251650292617 5.95044971259469 0.0743251650292607 6.13859834958419 0.0743251650292592 6.25311197192768 0.0743251650292584 9 1 2 9 2 6 10 6 5 10 9 6 11 5 4 11 10 5 12 11 4 8 4 3 8 12 4 7 12 8 

TShapes 6
Ve
0.0072475324305145
32.77154427434 28.32838564352 -1.288965032171
0 0

0101101
*
Ve
0.00556240310634535
32.82105909206 28.37786577517 -1.288725651453
0 0

0101101
*
Ed
 0.00198930342803082 1 1 0
1  1 0 0 0.0700004136064484
2  1 1 0 0 0.0700004136064484
4 C0 2 0 1 0
6  1 1 0
0

0101000
+6 0 -5 0 *
Ed
 0.00303627754983293 1 1 0
1  2 0 0 0.0700004136064484
2  2 1 0 0 0.0700004136064484
2  3 3 0 0 0.0700004136064484
4 C0 1 0 3 0
6  2 2 0
0

0101000
+6 0 -5 0 *
Wi

0101100
-4 0 +3 0 *
Fa
0  1e-07 1 0

0111000
+2 0 *

-1 0 