DBRep_DrawableShape

CASCADE Topology V3, (c) Open Cascade
Locations 0
Curve2ds 1
7 0 0  3 25 23  -0.124000423128989 0.60048988601361186  -0.124000423128989 0.60053919080465179  -0.12400042312898903 0.60063780798433319  -0.124000423128989 0.60078575659532307  -0.12400042312898898 0.60093372809644541  -0.12400042312898901 0.60108172253636871  -0.124000423128989 0.60122973996375961  -0.12400042312898901 0.60137778042729528  -0.12400042312898897 0.60152584397564646  -0.12400042312898901 0.60167393065749197  -0.12400042312898898 0.60182204052151234  -0.12400042312898901 0.60197017361638916  -0.124000423128989 0.60211832999080761  -0.12400042312898901 0.60226650969345574  -0.12400042312898898 0.60241471277302561  -0.12400042312898901 0.60256293927821059  -0.12400042312898901 0.60271118925770639  -0.12400042312898903 0.60285946276021618  -0.12400042312898898 0.60300775983443888  -0.12400042312898901 0.60315608052908487  -0.12400042312898901 0.60330442489286207  -0.12400042312898903 0.60345279297448295  -0.12400042312898898 0.60360118482266467  -0.12400042312898898 0.60370012859830646  -0.124000423128989 0.60374960446346093 
 0.98818731258283032 4 0.98872425291997446 1 0.98926119325711848 1 0.9897981335942625 1 0.99033507393140663 1 0.99087201426855076 1 0.99140895460569478 1 0.9919458949428388 1 0.99248283527998293 1 0.99301977561712707 1 0.99355671595427109 1 0.99409365629141511 1 0.99463059662855924 1 0.99516753696570337 1 0.99570447730284739 1 0.99624141763999141 1 0.99677835797713554 1 0.99731529831427967 1 0.9978522386514237 1 0.99838917898856772 1 0.99892611932571185 1 0.99946305966285598 1 1 4
Curves 2
7 0 0  3 7 5  18.213811246399999 58.050026551359998 -2.4477152976930001  18.228110375789999 57.943611030950002 -2.3682756899380002  18.266638395579999 57.784867818499997 -2.1543153249459999  18.34866627789 57.52849338027 -1.698099732268  18.475976497480001 57.165333537400002 -0.99532739213179999  18.58153361199 57.041530365969997 -0.3920378888055  18.645581292919999 56.894003488929997 -0.036217439122470003 
 0 4 0.14393066406220001 1 0.2878613281072 1 0.5757226561969 1 1 4
1 18.645581292919999 56.894003488929997 -0.036217439122470003 -0.16307059456449541 0.37328424811878952 -0.91327260513757436 
Polygon3D 0
PolygonOnTriangulations 3
2 1 2 
p 0.0943502047902261 1 0.98818731258283 1 
2 5 5 
p 0.0868066783634767 1 -0.0391968923135803 2.93677014669147e-06 
2 5 6 
p 0.05 1 2.93677014669181e-06 0.0325588242354515 
Surfaces 3
1 18.431405623020002 58.237500305220003 -1.2388576498849999 0.98418332397358166 0 -0.1771529983158967 0.1771529983158967 0 0.98418332397358166 0 -1 0 
9 0 0 0 0 3 3 4 7 2 5 18.20609630745 58.116018743170002 -2.490569730981  18.220674582169998 57.975293213169998 -2.4095738550579999  18.26269492622 57.798981872059997 -2.176119546797  18.34879308579 57.526314458880002 -1.697777683824  18.481327531030001 57.183163360050003 -0.96145037969049996  18.594477221649999 56.918049305670003 -0.3328422415717  18.664333493849998 56.757819556949997 0.05526041327602  
18.204778519040001 58.11215134535 -2.498119015846  18.219357957100001 57.967037987600001 -2.4172816089640001  18.261362604169999 57.786178881490002 -2.1842320474079999  18.347452737579999 57.508265912349998 -1.706552607281  18.479987348440002 57.160797164900004 -0.97099084357370002  18.59309193815 56.893779520819997 -0.3427888381627  18.66296366636 56.732589828000002 0.045091152110189998  
18.202386595899998 58.108281632160001 -2.5054793907900001  18.21632945619 57.958777399650003 -2.424687744062  18.256686987390001 57.773357237319999 -2.1917547111150002  18.340110320059999 57.490188067200002 -1.714261222023  18.46959213513 57.138412588469997 -0.97890881138639996  18.58103973699 56.869506183790001 -0.35081662287479998  18.650053643490001 56.70737536227 0.037005395139260003  
18.19899909399 58.104534746299997 -2.512413530001  18.211726509719998 57.950848510299998 -2.4314150152359999  18.249076537490001 57.761665315659997 -2.197953987145  18.327948565700002 57.475032971570002 -1.7196014009909999  18.452610438610002 57.121410230359999 -0.98326202417999997  18.56172616409 56.852103251119999 -0.35464755330030001  18.629523709899999 56.689832750710003 0.033458444598310003  

-0.020000383254990001 4
1.020000015485 4

0.32308980207650001 4
0.3706034809223 1
0.410341016926 1
0.48981608893329998 1
0.61753584644780002 4

1 17.099 57.282539606829999 -0.8334369126176 0 0.94964445434216971 0.31332955547979002 0 -0.31332955547979002 0.94964445434216971 1 0 -0 
Triangulations 2
100 160 1 0 0.0521595058994573
18.640253119551 56.9061571851544 -0.065949139774534 18.6451315367222 56.7996771335595 -0.0341443868205085 18.2138112464 58.05002655136 -2.447715297693 18.2189856114064 58.0140252017839 -2.41897033001228 18.2245207304851 57.9800288363288 -2.38822339170961 18.2303758206005 57.9478552495009 -2.35569986944095 18.2365100987172 57.9173222358065 -2.32162514986227 18.2450529394553 57.8788486304569 -2.27416877401382 18.2550498792402 57.8381270964031 -2.21862820721656 18.2883676709304 57.7196661996091 -2.03345400745434 18.3335482555181 57.5782070931228 -1.78255639084046 18.3842978728728 57.4306555875264 -1.5013129261606 18.427524462668 57.3174151653103 -1.26120008191542 18.4702701494254 57.2215723380266 -1.02218583856372 18.5549223629678 57.0690514512141 -0.544820459719032 18.6027057310599 56.9835694180513 -0.275731749878999 18.20606167042 58.03330271754 -2.468723248423 18.2086933512189 58.0374072069978 -2.463698668545 18.2108717381813 58.0415819135413 -2.4584984345 18.2125800783967 58.045793837527 -2.45316373638541 18.61714544421 56.72332862985 -0.04387232486556 18.4230188294219 57.213819741195 -1.16501653274097 18.3296086431579 57.4847090724558 -1.7158209282484 18.2695408817149 57.6940235562457 -2.07706511458518 18.2413907425124 57.8129128874177 -2.24925282751237 18.2316041044769 57.8612075661691 -2.30964431567721 18.2215155383853 57.9185169864477 -2.37219768582588 18.2141791186264 57.9675537932256 -2.41789961763874 18.2099935943415 57.9995684556142 -2.44406723512685 18.623004186681 56.7297124999184 -0.0437475202547643 18.6283113090546 56.7366723441884 -0.0435739450895974 18.6335212387572 56.7450409420182 -0.0433460284969679 18.6372759200134 56.7524877221082 -0.0431398563370005 18.6408180596777 56.7613071287134 -0.0428860428745922 18.643671104278 56.77082750001 -0.0425911626422865 18.6449360577781 56.7765383997539 -0.0424035510848282 18.6458942723238 56.7823482252651 -0.0422105627738388 18.6465357027435 56.7882439336529 -0.0420182256414508 18.2649564124526 57.7808463993107 -2.1580652066716 18.2604798935456 57.7687076960416 -2.16527626974618 18.319374281374 57.5626391283906 -1.82563580354754 18.4518078540212 57.2328658039288 -1.11236234022534 18.2244472134524 57.9495095284878 -2.38086587046745 18.2273335792146 57.9330776047075 -2.36436497252575 18.2302879084179 57.9170792602443 -2.34748033699862 18.235759658857 57.8893511113728 -2.31624470453641 18.2399300411423 57.8695398013626 -2.29243678987305 18.2451913538464 57.8459222272273 -2.262429188085 18.250086862153 57.8250654096002 -2.23453059174637 18.2686174134459 57.7372688263612 -2.11816242147365 18.2815077163215 57.7060767053545 -2.05608497954036 18.3054868691416 57.6405321977584 -1.93053691486098 18.3255586024507 57.578343227455 -1.81838724459115 18.3279080296614 57.5700362867936 -1.80451121951032 18.3353358006754 57.5308250419157 -1.75036997640359 18.3594430759665 57.4552480771529 -1.6098817519459 18.4080144683535 57.3207150840193 -1.33498851280699 18.4293398190521 57.2643804753513 -1.21450297661899 18.4395267276523 57.2222711447049 -1.13953241428358 18.4430221741754 57.213169228296 -1.11966928351035 18.4592260891389 57.2156709236871 -1.07210267051681 18.6408189723624 56.7958828372193 -0.0713773544873827 18.6400705941069 56.7912630488928 -0.0718394513783393 18.6392382765762 56.7871819950255 -0.0722094247823289 18.6380359212551 56.7823245166427 -0.0726000516274468 18.6367663674841 56.7779934696415 -0.0728996492945922 18.6353206514818 56.7737036567876 -0.0731477236527508 18.4592892179483 57.162532783095 -1.01671466988914 18.4833043799099 57.1669619865323 -0.945308375274356 18.5008276460035 57.1162181374205 -0.842942737812663 18.4935331388714 57.1144036288761 -0.866887176309916 18.5249260174482 57.0689155713918 -0.715612192910357 18.5753496750617 56.9484395825532 -0.435172755840191 18.5578271577147 56.9160525038273 -0.457057847470677 18.5936392571523 56.8718094424988 -0.306263605176384 18.5986816536258 56.8935091425506 -0.305419383503845 18.6103572219117 56.8661885645656 -0.240493149203172 18.6289248896011 56.8229526994363 -0.137249536071664 18.6075177418778 56.7964180382918 -0.175954346253371 18.6387564420009 56.8058689532983 -0.0851222500505153 18.6385086326067 56.8036400338955 -0.0853689117856906 18.6382131499241 56.8014111284167 -0.0856056740056952 18.6190167079993 56.7690545747416 -0.110982059796956 18.6304269669822 56.7513094768602 -0.0593847449623679 18.62816190037 56.7473719246456 -0.0593374873980554 18.4679741107518 57.1904382260389 -1.02075801344302 18.4726968138549 57.164192131857 -0.981486410448584 18.5434799354875 56.9919208068009 -0.587023917821704 18.5598685927311 56.969911491072 -0.511271502393348 18.6110467402575 56.8306698498142 -0.208882318978753 18.6168528976366 56.8170024488108 -0.176408140140913 18.6202760324655 56.8089608412924 -0.157268382246423 18.6260848245194 56.7953273746844 -0.124784716114181 18.6326911276297 56.7982279733565 -0.10534799355091 18.6307022731692 56.7845092945604 -0.0989678000834016 18.4729219700156 57.1917985161289 -1.00259835476385 18.5501170093747 57.0083977425355 -0.57550293895311 18.6335686848153 56.8121758621808 -0.111429251185786 18.6358992150928 56.8138230374821 -0.101457044175927 18.4674982079061 57.1767269718417 -1.01010146578168 -0.124000423128989 0.600489886013612 0.0248324377660819 0.607025776594134 -8.99517305059036e-08 0.330865944918689 0.000301918800164837 0.335480526801706 0.000936866503912043 0.34009579437277 0.00171681980098335 0.34471130988222 0.00245370494140761 0.349326634320259 0.00304375587191151 0.355479340625328 0.00266078672621868 0.362398495929864 -0.00835376971889631 0.384499750778694 0.00610866339912014 0.413592697362258 0.0865950700080952 0.445728863505957 0.0868481121829647 0.472613504347182 -0.0489545806867781 0.498683143110209 -0.124146364005091 0.549267693164689 -0.123996297373306 0.577809509873835 1.00000000416783 0.330865944907939 0.75024998166152 0.330865944910624 0.499999957108083 0.330865944913314 0.249999933578176 0.330865944916001 1.00000000790895 0.609028694836196 1.00000001234793 0.485400805987335 1.00000000907589 0.423586861555577 1.00000000686726 0.38186244906414 1.00000000577399 0.361208864880879 1.00000000537245 0.353623134887644 1.00000000493337 0.345328139140041 1.00000000458888 0.338820151735595 1.00000000437835 0.334843048321767 0.887201290551623 0.60879701505562 0.774627947253709 0.608565798175809 0.649662029005771 0.608309127912196 0.545523763799156 0.608095236025852 0.428368215441714 0.607854607653716 0.307307482139025 0.607605958335841 0.236688721045789 0.607460912900414 0.166069959952553 0.607315867464988 0.0954511988593175 0.607170822029561 0.31999974861265 0.3706034809223 0.65999988048029 0.3706034809223 0.65999988048029 0.410341016926 0.31999974861265 0.4898160889333 0.500468435718641 0.342711966756406 0.500858412367176 0.345019724511131 0.501226854937388 0.34732738673015 0.501226855156931 0.351474884603951 0.501521880622183 0.354551237756486 0.501521880822953 0.358344102753104 0.501330396250106 0.361803680405371 0.659999877739957 0.37623296499322 0.495823118574184 0.383181099921417 0.325823055380697 0.397420383852347 0.31999974861265 0.410341016926 0.333054271939705 0.411966857144129 0.503054336237506 0.418589779458918 0.543297539541993 0.434657862530767 0.543297541178013 0.465564834746646 0.543424062265448 0.479007155167259 0.65999988048029 0.487608447460318 0.65999988048029 0.4898160889333 0.305522649896756 0.494249616021755 0.152183896156363 0.604172246833664 0.210761670335083 0.604292561019732 0.262830802938391 0.604399506962904 0.32531376206236 0.60452784209471 0.381600433711317 0.604643450534616 0.43799979238998 0.604759290424904 0.718963418259675 0.501367527781674 0.194486121742321 0.508008696343111 0.2679267582376 0.519541891048994 0.43792682417142 0.517334249576012 0.156890230083165 0.53330097137035 0.156890228973419 0.564207943582566 0.718963416040184 0.563181472206104 0.437926821951929 0.579148194000443 0.156965262289312 0.578478851937139 0.157002778947258 0.585614306114426 0.157000716069416 0.596954494184314 0.718963414930439 0.59408844441832 0.100656669466685 0.602508864054161 0.128800005291164 0.602566668274114 0.156999684630495 0.602624588219258 0.719000931588385 0.601223898595606 0.662600541470802 0.606778152740262 0.718999900149464 0.60689399263055 0.335004418786449 0.500025335445942 0.456724770000998 0.504688112062392 0.437926823061674 0.548241221788227 0.297408526017547 0.556224582685396 0.437983096938849 0.589851375266373 0.438001855267822 0.593419102355016 0.437982065499928 0.595521469301317 0.438000823828901 0.59908919638996 0.297500254229698 0.600856892304609 0.43800030810944 0.601924243407432 0.20388509465711 0.501685627586301 0.156890229528292 0.548754457476458 0.157000200349956 0.599789541201786 0.0867499155503545 0.600673389159111 0.461424256458393 0.501526577683987 4 20 19 4 3 20 29 18 17 29 19 18 29 4 19 28 5 4 28 4 29 39 10 9 40 25 24 41 24 23 42 14 13 43 6 5 43 28 27 43 5 28 44 43 27 44 6 43 45 44 27 45 6 44 45 7 6 46 8 7 46 27 26 46 7 45 46 45 27 47 8 46 47 46 26 48 9 8 48 26 25 48 8 47 48 47 26 49 48 25 49 39 9 49 9 48 49 25 40 49 40 39 50 10 39 50 40 24 50 39 40 51 10 50 51 50 24 52 11 10 52 41 53 52 51 24 52 10 51 52 53 11 52 24 41 54 53 41 54 11 53 55 54 41 55 11 54 55 41 23 56 12 11 56 55 23 56 11 55 57 13 12 57 23 22 57 56 23 57 12 56 58 57 22 58 42 13 58 13 57 59 58 22 59 42 58 59 22 60 59 60 42 61 42 60 61 14 42 62 2 1 63 2 62 64 2 63 64 38 2 65 37 38 65 38 64 66 36 37 66 37 65 67 35 36 67 36 66 68 61 60 68 60 22 69 70 14 69 71 70 72 15 14 72 14 70 72 70 71 73 16 15 74 22 21 74 68 22 74 71 68 74 75 73 76 16 73 76 73 75 77 1 16 77 16 76 77 76 75 78 1 77 79 74 21 79 75 74 80 62 1 81 62 80 82 63 62 82 64 63 82 62 81 83 79 21 84 32 33 84 33 34 84 34 35 84 35 67 85 83 21 85 67 83 85 21 30 85 30 31 85 31 32 85 84 67 85 32 84 86 14 61 86 61 68 87 68 71 87 71 69 88 71 74 88 72 71 89 88 74 89 73 15 89 74 73 90 91 78 90 79 91 90 77 75 90 78 77 90 75 79 92 78 91 92 91 79 93 78 92 93 92 79 93 79 83 94 82 81 94 93 83 94 81 80 95 64 82 95 94 83 95 83 67 95 67 66 95 65 64 95 66 65 95 82 94 96 87 69 96 14 86 96 69 14 97 72 88 97 89 15 97 88 89 97 15 72 98 78 93 98 93 94 98 1 78 99 80 1 99 94 80 99 98 94 99 1 98 100 68 87 100 86 68 100 96 86 100 87 96 
8 6 1 0 0.109568915227498
15.5573531583771 56.7972594601322 -0.0306840107312774 15.55568743181 56.89303401003 -0.03346934665963 15.86075917521 57.01739589584 -0.02999999999999 18.33748169826 57.01818655192 -0.03195632349897 18.6451315367222 56.7996771335595 -0.0341443868205085 18.640253119551 56.9061571851544 -0.065949139774534 18.36116777826 57.54505333185 -1.629067898566 15.83683222174 57.54505333185 -1.629067898566 0.920364497920828 -1.54962954349553 0.88172655198833 -1.54329783240926 0.843951221904075 -1.23824082479 0.843951221904075 1.23848169826 0.878812010505609 1.54658081401914 0.846769032833401 1.5412719060936 -0.837819862276552 1.26216777826 -0.837819862276967 -1.2621677782631 3 8 2 7 8 3 4 7 3 6 7 4 5 6 4 8 1 2 

TShapes 8
Ve
0.119179737535342
18.640253119551 56.9061571851544 -0.065949139774534
0 0

0101101
*
Ve
0.223935485711045
18.6451315367222 56.7996771335595 -0.0341443868205085
0 0

0101101
*
Ed
 0.0828601342324761 1 1 0
1  1 0 0.98818731258283 1
2  1 2 0 0.98818731258283 1
4 C0 2 0 1 0
6  1 1 0
0

0101000
+8 0 -7 0 *
Ve
0.12185836769773
18.6466949930547 56.89400348893 -0.0364179051467102
0 0

0101101
*
Ed
 0.12185836769773 1 1 0
1  2 0 -0.0391968923135803 2.93677014669147e-06
4 C0 1 0 3 0
6  2 2 0
0

0101000
+7 0 -5 0 *
Ed
 0.119179737535342 1 1 0
1  2 0 2.93677014669181e-06 0.0325588242354515
4 C0 1 0 3 0
6  3 2 0
0

0101000
+5 0 -8 0 *
Wi

0101100
+6 0 +4 0 +3 0 *
Fa
0  1e-07 1 0

0111000
+2 0 *

-1 0 