DBRep_DrawableShape

CASCADE Topology V3, (c) Open Cascade
Locations 0
Curve2ds 3
7 0 0  1 2 2  0.31889538379236915 0.0043251650355122795  0.33195879709270021 0.074325165035290297 
 0 2 0.070003533097372145 2
7 0 0  1 2 2  6.3151499829690207 0.0043251650355122795  6.3267469865308765 0.074325165035290297 
 0 2 0.070003533097372145 2
7 0 0  1 2 2  0.31889538379236915 0.0043251650355122795  0.3319587970945953 0.074325165035288299 
 0 2 1 2
Curves 2
1 -0.86498562623289998 -1.7349442916290001 -1.2894951586050001 -0.71173960003321401 -0.70240258659191379 0.007572852405093148 
7 0 0  3 4 2  -0.86498562623289998 -1.7349442916290001 -1.2894951586050001  -0.88148478446059997 -1.7514434498560001 -1.2894951586050001  -0.89831075465300003 -1.767615796119 -1.288965032181  -0.91480991288070002 -1.7841149543470001 -1.288965032181 
 0 4 1 4
Polygon3D 0
PolygonOnTriangulations 2
3 3 8 9 
p 0.0166666666666667 1 0 0.0233345110324574 0.0700035330973721 
3 4 5 1 
p 0.0166666666666667 1 0 0.5 1 
Surfaces 3
2 -0.89543096928620003 -1.6983822415230001 -1.3051387818939999 -0.70710678118629755 -0.70710678118679759 0 0.70710678118679759 -0.70710678118629755 0 0 0 1 0.050000000000189997
2 -0.89543096928620003 -1.6983822415230001 -1.291010205152 -0.70710678118629755 -0.70710678118679759 0 0.70710678118679759 -0.70710678118629755 0 0 0 1 0.050000000000189997
1 -0.9020248567186 -1.7474025358259999 -1.2600000000080001 0.5883484054148862 -0.58834840541378619 0.55470019622568711 -0.39223227027669194 0.39223227027669194 0.83205029433753841 -0.70710678118608994 -0.70710678118700521 4.3147052544327362e-13 
Triangulations 2
13 11 1 0 0.0061305886774797
-0.8747538712244 -1.725176046637 -1.327916992577 -0.9267735940601 -1.772151273167 -1.331010205152 -0.8649856262329 -1.734944291629 -1.289495158605 -0.865303065142756 -1.73462685271878 -1.29524109107835 -0.86534476803832 -1.73458514982341 -1.30829125812511 -0.866483617319544 -1.73344630054238 -1.31384120370159 -0.87121684439133 -1.72871307347045 -1.32225815066342 -0.881593721782112 -1.75133451253506 -1.28931844979701 -0.9148099128807 -1.784114954347 -1.288965032181 -0.918328558540285 -1.78059630868766 -1.31918361534833 -0.916181256631818 -1.78274361059634 -1.31422507612532 -0.915167984972324 -1.7837568822556 -1.302940732859 -0.915123324000267 -1.78380154322744 -1.29438189616568 5.45043204557636 0.00432516503515412 5.40310822332944 0.0743251650353536 6.31514998296902 0.00432516503551228 6.23547026919975 0.00432516503547928 6.03022644107321 0.00432516503539427 5.88279101427269 0.0043251650353332 5.6189379693983 0.00432516503522391 6.31901565082297 0.0276584983687716 6.32674698653149 0.0743251650352883 5.81361434030813 0.0743251650353246 5.95044971263436 0.0743251650353149 6.13859834958293 0.0743251650353016 6.25311197199543 0.0743251650352935 7 2 1 10 7 6 10 2 7 11 6 5 11 10 6 12 5 4 12 11 5 8 4 3 13 12 4 13 4 8 9 13 8 
6 4 1 0 0.00164265338945955
-0.9148099128807 -1.784114954347 -1.288965032181 -0.924893861887862 -1.77403100534 -1.26578063005688 -0.9349778108951 -1.763947056333 -1.242596227932 -0.8649856262329 -1.734944291629 -1.289495158605 -0.8898977695568 -1.75952962298763 -1.289230095393 -0.8854803362118 -1.714449581649 -1.242596227932 -0.0334854472048052 0.0350000000000279 -0.00628435816858349 0.0350000000001436 0.0209167308683477 0.0350000000003124 -0.0341829114498245 -0.0349999999997113 -0.0338341793271672 -1.25149890450871e-13 0.0209167308683309 -0.0350000000005244 6 5 4 2 1 5 2 5 6 3 2 6 

TShapes 6
Ve
0.00724753242816598
-0.9148099128807 -1.784114954347 -1.288965032181
0 0

0101101
*
Ve
0.0050196204620272
-0.8649856262329 -1.734944291629 -1.289495158605
0 0

0101101
*
Ed
 0.00303627755284442 1 1 0
1  1 0 0 0.0700035330973721
2  1 1 0 0 0.0700035330973721
2  2 2 0 0 0.0700035330973721
4 C0 1 0 2 0
6  1 1 0
0

0101000
-6 0 +5 0 *
Ed
 0.00198930343327915 1 1 0
1  2 0 0 1
2  3 1 0 0 1
4 C0 3 0 1 0
6  2 2 0
0

0101000
+5 0 -6 0 *
Wi

0101100
-4 0 +3 0 *
Fa
0  1e-07 1 0

0111000
+2 0 *

-1 0 