DBRep_DrawableShape

CASCADE Topology V3, (c) Open Cascade
Locations 0
Curve2ds 3
7 0 0  1 2 2  0.31889538372578791 0.0043251650335898173  0.33195879703083747 0.074325165029324514 
 0 2 0.070003533093324924 2
7 0 0  1 2 2  6.3151499829428372 0.0043251650335898173  6.326746986514391 0.074325165029324514 
 0 2 0.070003533093324924 2
7 0 0  1 2 2  0.31889538372578791 0.0043251650335898173  0.33195879709214116 0.074325165029264562 
 0 2 1 2
Curves 2
1 -32.135014373769998 33.234944291630001 -1.2894951585979999 0.71173960002720671 0.70240258659790666 0.0075728524138580699 
7 0 0  3 4 2  -32.135014373769998 33.234944291630001 -1.2894951585979999  -32.11851521554 33.251443449859998 -1.2894951585979999  -32.101689245350002 33.267615796119998 -1.288965032174  -32.085190087119997 33.284114954339998 -1.288965032173 
 0 4 1 4
Polygon3D 0
PolygonOnTriangulations 2
3 3 8 9 
p 0.0166666666666667 1 0 0.0233345110311083 0.0700035330933249 
3 3 4 5 
p 0.0166666666666667 1 0 0.5 1 
Surfaces 3
2 -32.104569030710003 33.198382241520001 -1.3051387818860001 0.70710678118654757 0.70710678118654757 0 -0.70710678118654757 0.70710678118654757 0 0 -0 1 0.049999999997419997
2 -32.104569030710003 33.198382241520001 -1.291010205144 0.70710678118654757 0.70710678118654757 0 -0.70710678118654757 0.70710678118654757 0 0 -0 1 0.049999999997419997
1 -32.097975143280003 33.247402535820001 -1.26 0.58834840544072087 -0.58834840538792088 -0.55470019622571975 0.39223227032611496 -0.39223227022731499 0.83205029433751665 -0.70710678113717929 -0.70710678123591586 3.7418931375531172e-11 
Triangulations 2
13 11 1 0 0.00613058867738192
-32.12524612878 33.22517604664 -1.327916992568 -32.07322640594 33.27215127316 -1.331010205143 -32.13501437377 33.23494429163 -1.289495158598 -32.1346969348604 33.2346268527204 -1.29524109106414 -32.1346552319648 33.2345851498248 -1.30829125811491 -32.1335163826834 33.2334463005434 -1.31384120369356 -32.1287831556299 33.2287130734899 -1.32225815062454 -32.1184062782219 33.2513345125353 -1.28931844978981 -32.08519008712 33.28411495434 -1.288965032173 -32.0816714414615 33.2805963086907 -1.31918361534236 -32.0838187433704 33.2827436105992 -1.31422507611891 -32.0848320150312 33.283756882255 -1.30294073285202 -32.0848766760025 33.2838015432233 -1.29438189615516 5.45043204573878 0.00432516503358937 5.40310822341479 0.0743251650292632 6.31514998294284 0.00432516503358982 6.23547026928238 0.00432516503358978 6.03022644115377 0.00432516503358967 5.88279101434081 0.0043251650335896 5.61893797034072 0.00432516503358946 6.31901565080002 0.0276584983655014 6.32674698653114 0.0743251650292646 5.81361434035539 0.0743251650292638 5.95044971266892 0.074325165029264 6.13859834960003 0.0743251650292643 6.25311197204292 0.0743251650292645 7 2 1 10 7 6 10 2 7 11 6 5 11 10 6 12 5 4 12 11 5 8 4 3 13 12 4 13 4 8 9 13 8 
6 4 1 0 0.00164265338720163
-32.11451966379 33.21444958165 -1.242596227925 -32.06502218911 33.26394705633 -1.242596227924 -32.13501437377 33.23494429163 -1.289495158598 -32.110102230445 33.2595296229888 -1.28923009538588 -32.08519008712 33.28411495434 -1.288965032173 -32.075106138115 33.274031005335 -1.26578063004887 0.0209167308612874 0.0349999999992955 0.0209167308670125 -0.0349999999963729 -0.0341829114575297 0.0349999999955165 -0.0338341793319425 -4.94307428322576e-12 -0.0334854472027882 -0.0350000000001083 -0.00628435816820079 -0.0349999999982406 4 5 6 1 3 4 1 6 2 1 4 6 

TShapes 6
Ve
0.00724753242880251
-32.08519008712 33.28411495434 -1.288965032173
0 0

0101101
*
Ve
0.00501962046095077
-32.13501437377 33.23494429163 -1.289495158598
0 0

0101101
*
Ed
 0.00303627754189416 1 1 0
1  1 0 0 0.0700035330933249
2  1 1 0 0 0.0700035330933249
2  2 2 0 0 0.0700035330933249
4 C0 2 0 1 0
6  1 1 0
0

0101000
-6 0 +5 0 *
Ed
 0.00198930343391815 1 1 0
1  2 0 0 1
2  3 1 0 0 1
4 C0 1 0 3 0
6  2 2 0
0

0101000
+5 0 -6 0 *
Wi

0101100
-4 0 +3 0 *
Fa
0  1e-07 1 0

0111000
+2 0 *

-1 0 