DBRep_DrawableShape

CASCADE Topology V3, (c) Open Cascade
Locations 0
Curve2ds 3
7 0 0  1 2 2  8.9446614479713311 0.025614847071000924  9.2658313381736672 0.025614847071000924 
 0.50000000037751724 2 1 2
7 0 0  1 2 2  8.7171935240300851 0.025614847071000924  6.1242386845839407 0.025614847071000924 
 5.8282811255824578 2 6.3769189397260631 2
7 0 0  1 2 2  8.9446614479712672 0.025614847071000924  8.7171935240300851 0.025614847071000924 
 5.8282811255824578 2 6.0557490495235937 2
Curves 2
7 0 0  3 5 3  72.430993420839997 71.585000000039997 4.9875000000000007  72.435112241420001 71.589815434889999 4.9875000000000007  72.443463231220008 71.601661647659995 4.9875000000000007  72.452737741850001 71.622108262409995 4.9875000000000007  72.455768645990005 71.633846903679995 4.9875000000000007 
 0 4 0.5 1 1 4
2 72.355000000079997 71.650000000040009 4.9875000000000007 0 0 1 0.96824583655182661 -0.25000000000010686 0 0.25000000000010691 0.96824583655182672 -0 0.10000000000000001
Polygon3D 0
PolygonOnTriangulations 3
5 64 68 69 70 71 
p 0.05 1 0.500000000377517 0.680000000241611 0.825800000131527 0.912900000065763 1 
8 53 72 73 74 75 76 77 71 
p 0.05 1 5.82828112558246 5.9066579561744 5.98503478676634 6.06341161735829 6.14178844795023 6.22016527854217 6.29854210913412 6.37691893972606 
4 53 62 63 64 
p 0.05 1 5.82828112558246 5.90410376689617 5.97992640820988 6.05574904952359 
Surfaces 2
2 72.355000000079997 71.650000000040009 4.9618851529289998 0 0 1 -1 0 0 0 -1 0 0.10000000000000001
1 72.565000000080005 71.800000000050005 4.9875000000000007 0 0 1 0 -1 0 1 0 -0 
Triangulations 1
77 69 1 0 0.0010275477574447
72.45576864599 71.63384690368 4.9875 72.4546773197392 71.6419730488413 4.9875 72.4549998442657 71.6498234700796 4.9875 72.4547050383972 71.6576749810928 4.9875 72.4537947220628 71.6654791120412 4.9875 72.4522745149306 71.6731876855776 4.9875 72.4501538017159 71.6807531142601 4.9875 72.4474456742465 71.6881286943254 4.9875 72.4441668506423 71.6952688940048 4.9875 72.4403375721097 71.7021296346069 4.9875 72.4359814779857 71.7086685626286 4.9875 72.4311254598053 71.7148453112168 4.9875 72.4257994952914 71.7206217493656 4.9875 72.4200364632931 71.725962217311 4.9875 72.413871940814 71.7308337466698 4.9875 72.4073439833843 71.7352062639637 4.9875 72.4004928901322 71.7390527762724 4.9875 72.3933609550046 71.7423495378692 4.9875 72.3859922056735 71.7450761968111 4.9875 72.3784321317391 71.7472159205773 4.9875 72.3707274039084 71.7487554999821 4.9875 72.3629255858822 71.7496854307192 4.9875 72.3550748407296 71.7499999720344 4.9875 72.3472236335622 71.7496971821656 4.9875 72.3394204323438 71.7487789303296 4.9875 72.3317134086822 71.7472508851829 4.9875 72.3241501404514 71.7451224798274 4.9875 72.3167773180775 71.7424068535766 4.9875 72.3096404563051 71.7391207708431 4.9875 72.3027836132198 71.7352845176459 4.9875 72.296249118264 71.7309217763789 4.9875 72.2900773109241 71.7260594796121 4.9875 72.2843062917022 71.7207276438279 4.9875 72.2789716869093 71.7149591841207 4.9875 72.2741064287339 71.7087897110009 4.9875 72.26974055194 71.7022573105608 4.9875 72.2659010084542 71.6954023093565 4.9875 72.2626115009824 71.68826702546 4.9875 72.2598923366857 71.6808955072163 4.9875 72.257760301818 71.673333261319 4.9875 72.256228558099 71.6656269718831 4.9875 72.2553065614629 71.65782421225 4.9875 72.2550000036843 71.6499731513014 4.9875 72.2553107772403 71.6421222560985 4.9875 72.2562369636283 71.6343199926792 4.9875 72.2577728452093 71.6266145268621 4.9875 72.2599089405048 71.6190534269039 4.9875 72.2626320627287 71.6116833698455 4.9875 72.2659254011935 71.6045498533602 4.9875 72.2697686250883 71.5976969148822 4.9875 72.2741380089869 71.5911668597494 4.9875 72.2790065793122 71.5850000000399 4.9875 72.43099342084 71.58500000004 4.9875 72.3862246116327 71.5549998756539 4.9875 72.3935276305622 71.5577198738512 4.9875 72.4005966616537 71.5610003121005 4.9875 72.4073887729311 71.5648212674881 4.9875 72.4138627142213 71.569159534406 4.9875 72.4199791676759 71.5739887654852 4.9875 72.425700986559 71.5792796316098 4.9875 72.46000000008 71.55499983115 4.9875 72.4356988303088 71.5909432578364 4.9875 72.4399405185367 71.597225874521 4.9875 72.4436941114375 71.6038117481733 4.9875 72.4341801992509 71.5889459185642 4.9875 72.4372359331907 71.5931842095932 4.9875 72.4404960897657 71.5982525059951 4.9875 72.4484570449072 71.6133371550012 4.9875 72.4520934918668 71.6221563252341 4.9875 72.4540481702162 71.6278535965971 4.9875 72.45576864599 71.63384690368 4.9875 72.4358494090072 71.591149570338 4.9875 72.4402089992935 71.5976604695394 4.9875 72.444045424765 71.6044927221311 4.9875 72.4473351305994 71.6116043795609 4.9875 72.4500579187148 71.6189517777912 4.9875 72.4521970717816 71.6264898053868 4.9875 0.166153096369811 -0.109231354086288 0.15802695120873 -0.11032268034076 0.150176529970382 -0.11000015581427 0.142325018957234 -0.110294961682787 0.13452088800876 -0.111205278017242 0.12681231447244 -0.112725485149457 0.119246885789881 -0.114846198364113 0.111871305724626 -0.117554325833547 0.104731106045169 -0.120833149437706 0.0978703654430779 -0.124662427970343 0.0913314374214041 -0.129018522094334 0.0851546888332306 -0.133874540274715 0.0793782506844287 -0.139200504788563 0.0740377827390028 -0.144963536786875 0.0691662533801849 -0.15112805926602 0.0647937360862677 -0.157656016695729 0.060947223777592 -0.164507109947824 0.0576504621807864 -0.17163904507537 0.05492380323895 -0.179007794406471 0.0527840794727264 -0.186567868340895 0.0512445000678755 -0.19427259617164 0.0503145693308277 -0.202074414197843 0.0500000280156204 -0.209925159350421 0.0503028178844226 -0.217776366517797 0.0512210697204288 -0.225579567736231 0.0527491148671199 -0.23328659139776 0.0548775202226579 -0.240849859628638 0.0575931464733812 -0.24822268200247 0.0608792292069081 -0.255359543774854 0.0647154824041107 -0.262216386860171 0.0690782236710728 -0.268750881815961 0.0739405204379333 -0.274922689155847 0.0792723562220847 -0.280693708377834 0.0850408159293335 -0.286028313170651 0.0912102890490966 -0.290893571346145 0.0977426894892505 -0.295259448140007 0.10459769069352 -0.299098991625782 0.111732974589956 -0.302388499097573 0.119104492833661 -0.305107663394267 0.126666738731038 -0.307239698262017 0.134373028166877 -0.308771441981044 0.142175787800037 -0.309693438617062 0.150026848748599 -0.309999996395728 0.157877743951479 -0.309689222839747 0.165680007370791 -0.30876303645173 0.173385473187903 -0.307227154870672 0.180946573146128 -0.305091059575179 0.188316630204498 -0.302367937351323 0.195450146689772 -0.299074598886478 0.202303085167836 -0.295231374991677 0.208833140300595 -0.290861991093137 0.215000000010094 -0.285993420767769 0.215000000010008 -0.134006579232173 0.245000124396142 -0.178775388447332 0.242280126198805 -0.171472369517765 0.238999687949524 -0.164403338426322 0.23517873256192 -0.157611227148886 0.230840465644008 -0.151137285858755 0.226011234564794 -0.145020832404122 0.220720368440186 -0.139299013521057 0.245000168900006 -0.105000000000004 0.209056742213647 -0.129301169771248 0.202774125529045 -0.125059481543276 0.196188251876722 -0.12130588864252 0.211054081485827 -0.130819800829052 0.206815790456754 -0.127764066889287 0.201747494054935 -0.124503910314284 0.186662845048815 -0.116542955172824 0.177843674815888 -0.112906508213248 0.172146403452865 -0.110951829863778 0.165827819560326 -0.111260544217221 0.20885042971204 -0.129150591072771 0.202339530510622 -0.12479100078647 0.195507277918857 -0.120954575315051 0.188395620489074 -0.117664869480658 0.181048222258839 -0.114942081365182 0.173510194663219 -0.112802928298406 1 2 71 70 1 71 61 55 54 61 56 55 61 57 56 61 58 57 61 59 58 61 60 59 62 53 65 52 53 51 51 53 50 50 53 49 49 53 48 48 53 47 47 53 46 46 53 45 45 53 44 44 53 43 43 53 42 42 53 41 41 53 40 40 53 39 39 53 38 38 53 37 37 53 36 36 53 35 35 53 72 35 72 73 35 73 64 35 64 34 34 64 33 33 64 32 32 64 31 31 64 30 30 64 29 29 64 28 28 64 27 27 64 26 26 64 25 25 64 24 24 64 23 23 64 22 22 64 21 21 64 20 20 64 19 19 64 18 18 64 17 15 68 14 14 68 13 13 68 12 12 68 11 11 68 10 10 68 9 9 68 8 8 68 7 7 68 6 6 68 5 5 68 4 4 68 3 3 68 2 2 68 71 53 60 61 61 1 70 61 70 69 61 69 68 68 64 61 15 16 17 15 17 68 68 17 64 

TShapes 8
Ve
0.200001999999994
72.4436941114375 71.6038117481733 4.9875
0 0

0101101
*
Ve
0.202055115720393
72.45576864599 71.63384690368 4.9875
0 0

0101101
*
Ed
 0.00205511606584454 1 1 0
1  1 0 0.500000000377517 1
2  1 1 0 0.500000000377517 1
4 C0 2 0 1 0
6  1 1 0
0

0101000
+8 0 -7 0 *
Ve
0.200001999999994
72.43099342084 71.58500000004 4.9875
0 0

0101101
*
Ed
 0.200001999999994 1 1 0
1  2 0 5.82828112558246 6.37691893972606
2  2 1 0 5.82828112558246 6.37691893972606
4 C0 2 0 1 0
6  2 1 0
0

0101000
+5 0 -7 0 *
Ed
 0.200001999999994 1 1 0
1  2 0 5.82828112558246 6.05574904952359
2  3 1 0 5.82828112558246 6.05574904952359
4 C0 2 0 1 0
6  3 1 0
0

0101000
+8 0 -5 0 *
Wi

0101100
+6 0 -4 0 -3 0 *
Fa
0  1e-07 1 0

0111000
+2 0 *

+1 0 