DBRep_DrawableShape

CASCADE Topology V3, (c) Open Cascade
Locations 0
Curve2ds 3
7 0 0  1 2 2  0.31889538377466281 0.0043251650357079008  0.3319587970783866 0.074325165035634466 
 0 2 0.070003533097521956 2
7 0 0  1 2 2  6.3151499829480811 0.0043251650357079008  6.3267469865138857 0.074325165035634466 
 0 2 0.070003533097521956 2
7 0 0  1 2 2  0.31889538377466281 0.0043251650357079008  0.33195879709674558 0.074325165035624696 
 0 2 1 2
Curves 2
1 -3.114985626233 -2.4849442916290001 -1.2894951586059999 -0.71173960003290115 -0.70240258659220112 0.0075728524078530115 
7 0 0  3 4 2  -3.114985626233 -2.4849442916290001 -1.2894951586059999  -3.13148478446 -2.5014434498560001 -1.2894951586050001  -3.148310754653 -2.5176157961199999 -1.288965032181  -3.1648099128810001 -2.5341149543469998 -1.288965032181 
 0 4 1 4
Polygon3D 0
PolygonOnTriangulations 2
3 3 8 9 
p 0.0166666666666667 1 0 0.0233345110325073 0.070003533097522 
3 4 5 1 
p 0.0166666666666667 1 0 0.5 1 
Surfaces 3
2 -3.1454309692860001 -2.4483822415229999 -1.3051387818939999 -0.70710678118654757 -0.70710678118654757 0 0.70710678118654757 -0.70710678118654757 0 0 0 1 0.04999999999989
2 -3.1454309692860001 -2.4483822415229999 -1.291010205152 -0.70710678118654757 -0.70710678118654757 0 0.70710678118654757 -0.70710678118654757 0 0 0 1 0.04999999999989
1 -3.1520248567190001 -2.4974025358260001 -1.2600000000080001 0.58834840541432087 -0.58834840541432087 0.55470019622571975 -0.39223227027671498 0.39223227027671498 0.83205029433751665 -0.70710678118654757 -0.70710678118654757 -8.1524687095804742e-18 
Triangulations 2
13 11 1 0 0.00613058867735786
-3.124753871224 -2.475176046637 -1.327916992577 -3.17677359406 -2.522151273167 -1.331010205152 -3.114985626233 -2.484944291629 -1.289495158606 -3.11530306514268 -2.48462685271879 -1.29524109107747 -3.11534476803832 -2.48458514982342 -1.30829125812531 -3.11648361731956 -2.48344630054237 -1.31384120370203 -3.1212168444244 -2.47871307343697 -1.32225815072045 -3.13159372178224 -2.5013345125351 -1.28931844979794 -3.164809912881 -2.534114954347 -1.288965032181 -3.16832855854026 -2.53059630868821 -1.31918361534833 -3.16618125663166 -2.53274361059663 -1.31422507612532 -3.1651679849724 -2.53375688225564 -1.302940732859 -3.16512332400056 -2.53380154322744 -1.29438189616586 5.45043204557847 0.00432516503500047 5.40310822333641 0.0743251650349177 6.31514998294808 0.0043251650357079 6.23547026919241 0.00432516503564271 6.03022644106222 0.0043251650354748 5.88279101426328 0.00432516503535418 5.61893796785636 0.00432516503513832 6.31901565080335 0.0276584983690168 6.32674698653179 0.0743251650356247 5.81361434031213 0.0743251650352319 5.95044971263738 0.0743251650353367 6.13859834958459 0.0743251650354807 6.2531119719939 0.0743251650355683 7 2 1 10 7 6 10 2 7 11 6 5 11 10 6 12 5 4 12 11 5 8 4 3 13 12 4 13 4 8 9 13 8 
6 4 1 0 0.00164265338920813
-3.164809912881 -2.534114954347 -1.288965032181 -3.174893861888 -2.52403100534 -1.26578063005688 -3.184977810895 -2.513947056333 -1.242596227932 -3.114985626233 -2.484944291629 -1.289495158606 -3.13989776955663 -2.509529622988 -1.28923009539313 -3.135480336212 -2.464449581649 -1.242596227932 -0.0334854472048442 0.0349999999999585 -0.00628435816868636 0.0349999999999585 0.0209167308680963 0.0349999999999586 -0.0341829114507954 -0.0350000000003181 -0.0338341793276438 -2.65341637550875e-13 0.0209167308680959 -0.035000000000666 6 5 4 2 1 5 2 5 6 3 2 6 

TShapes 6
Ve
0.00724753242825673
-3.164809912881 -2.534114954347 -1.288965032181
0 0

0101101
*
Ve
0.00501962046163808
-3.114985626233 -2.484944291629 -1.289495158606
0 0

0101101
*
Ed
 0.00303627755273625 1 1 0
1  1 0 0 0.070003533097522
2  1 1 0 0 0.070003533097522
2  2 2 0 0 0.070003533097522
4 C0 2 0 1 0
6  1 1 0
0

0101000
-6 0 +5 0 *
Ed
 0.00198930343319457 1 1 0
1  2 0 0 1
2  3 1 0 0 1
4 C0 1 0 3 0
6  2 2 0
0

0101000
+5 0 -6 0 *
Wi

0101100
-4 0 +3 0 *
Fa
0  1e-07 1 0

0111000
+2 0 *

-1 0 