DBRep_DrawableShape

CASCADE Topology V3, (c) Open Cascade
Locations 0
Curve2ds 2
7 0 0  1 2 2  3.3441395634757427 0.23952029571089639  6.6885167852198215 0.016417437603493568 
 0 2 1 2
7 0 0  1 2 2  3.3441395634757427 0.23952029571089639  6.6885167852594165 0.016417437603486462 
 0 2 0.22311133648879741 2
Curves 2
7 0 0  3 15 13  44.356167566090001 55.92244909443 -0.42970320580459997  44.357382839869999 55.919373794409999 -0.42970320580459997  44.350807243010003 55.90526948107 -0.4211442597192  44.361259522200001 55.89117643702 -0.42458433397829998  44.366480869820002 55.874652294480001 -0.42366245607000003  44.373785545120001 55.857055874019998 -0.42390989344399999  44.381520762530002 55.837239461869999 -0.42384202185629999  44.390003565630003 55.81585353469 -0.42386607083310002  44.398655426639998 55.793881162150001 -0.42383774651380002  44.40684008689 55.773403328800001 -0.42392699481399998  44.413721540179999 55.755132877260003 -0.42359832593270003  44.421091885030002 55.739674743850003 -0.42482375315780002  44.423248212689998 55.72230341801 -0.42025071313849999  44.436512125969998 55.718382393619997 -0.43162853503979998  44.437904796989997 55.714858182630003 -0.43162853503979998 
 0 4 0.083333333333329998 1 0.16666666666669999 1 0.25 1 0.33333333333330001 1 0.41666666666669999 1 0.5 1 0.58333333333329995 1 0.66666666666670005 1 0.75 1 0.83333333333329995 1 0.91666666666670005 1 1 4
1 44.356167566090001 55.92244909443 -0.42970320580459997 0.36635176045768458 -0.93043641379526054 -0.0086294549868446337 
Polygon3D 0
PolygonOnTriangulations 2
9 62 63 64 65 66 67 68 69 53 
p 0.05 1 0 0.0903620039026505 0.119590941677617 0.169811689545797 0.195854837427177 0.465408324165196 0.925309193891855 0.962654596945928 1 
2 138 12 
p 0.05 1 0 0.223111336488797 
Surfaces 3
2 44.43701808222 55.696854937639998 -0.43385734195039999 -0.367517000228401 0.93001680336600245 0 0.71349716842141586 0.28195440992102261 0.64142302841471943 0.59653419449159784 0.23573386728039405 -0.76718739472132236 0.0099999999931980003
1 43.087361527200002 54.927268724629997 -0.42385734195039998 0 0 1 -0.93001680336702619 -0.36751700022581035 0 0.36751700022581035 -0.93001680336702619 0 
1 43.710066192340001 56.97691491906 -1.632714991843 0.91530702888998516 0.3617041028972941 -0.17715299831459713 0.16475526519956532 0.065106738521235774 0.98418332397381558 0.36751700022394734 -0.93001680336776238 -2.5092405270836869e-14 
Triangulations 2
69 67 1 0 0.00638946231267901
41.76721604544 54.89808846856 -0.4258136654498 41.8952200307843 54.8469654239354 -0.4238573419504 42.026999265574 54.8065072824303 -0.4238573419504 42.1615699291092 54.7766180795051 -0.4238573419504 42.2980857984776 54.7574857679251 -0.4238573419504 42.4356884186972 54.7492306577191 -0.4238573419504 42.5735125009528 54.7519046596322 -0.4238573419504 42.7106913638056 54.7654909586944 -0.4238573419504 42.846362383161 54.789904119958 -0.4238573419504 42.979672416721 54.8249906257406 -0.4238573419504 43.1097831688136 54.870529840992 -0.4238573419504 43.2358764618609 54.9262354007173 -0.4238573419504 43.3571593813385 54.991757010731 -0.4238573419504 43.4728692618733 55.0666826504176 -0.4238573419504 43.5822784831243 55.1505411636471 -0.4238573419504 43.6846990452897 55.2428052215545 -0.4238573419504 43.7794868954674 55.34289463855 -0.4238573419504 43.8660459776634 55.4501800207099 -0.4238573419504 43.9438319809804 55.5639867236047 -0.4238573419504 44.0123557624169 55.6835990946766 -0.4238573419504 44.07083366576 55.80841464162 -0.4258136654486 41.48362701673 54.78633694355 -0.4267682303389 41.56508973621 54.57960116346 -0.4292742227387 41.61916762455 54.52953880035 -0.4238573419504 41.6119046262419 54.533054513762 -0.423937592036156 41.6072762322612 54.5357217223087 -0.424005953220321 41.5994582123926 54.5414165691217 -0.423894549809105 41.5937251650915 54.5470307623438 -0.423421361281925 41.5875679000441 54.5539588633755 -0.423142883056093 41.5838364833561 54.5580286800199 -0.42350738593052 41.5769076218102 54.5647092891803 -0.425446116669075 41.5700761858673 54.5716524347038 -0.427999961169544 44.43082698963 55.64062906102 -0.4238573419504 44.3582306048888 55.4892179095641 -0.4238573419504 44.2739593934853 55.3439803981127 -0.4238573419504 44.1785346498868 55.2058149533981 -0.4238573419504 44.0725466634388 55.0755762551064 -0.4238573419504 43.9566510668081 54.9540699487448 -0.4238573419504 43.8315647802954 54.842047661987 -0.4238573419504 43.6980615770267 54.7402023551681 -0.4238573419504 43.5569672964595 54.6491640346914 -0.4238573419504 43.4091547358092 54.5694958558619 -0.4238573419504 43.2555382510003 54.5016906392558 -0.4238573419504 43.0970681005386 54.4461678221744 -0.4238573419504 42.9347245672924 54.4032708640403 -0.4238573419504 42.7695118945465 54.373265121787 -0.4238573419504 42.6024520738385 54.3563362083832 -0.4238573419504 42.4345785230062 54.3525888446468 -0.4238573419504 42.2669296935527 54.3620462114513 -0.4238573419504 42.1005426468737 54.3846498063302 -0.4238573419504 41.936446639084 54.4202598053685 -0.4238573419504 41.7756567541269 54.4686559281419 -0.4238573419504 44.43790479699 55.71485818263 -0.4316285350398 44.4392775688174 55.7064593034276 -0.430074296421914 44.438840973707 55.7004411831872 -0.427950809915173 44.4374129558009 55.6903959913317 -0.424402310457363 44.4369303069274 55.6824352456184 -0.422950622006562 44.4371306090501 55.675166176516 -0.422914950334426 44.4373288698979 55.6693062459491 -0.423390566862602 44.4366797429821 55.6596660686429 -0.424045176602831 44.4343422362961 55.6500624701652 -0.424011605868031 44.35616756609 55.92244909443 -0.4297032058046 44.3542877304744 55.9049843502362 -0.423516832564153 44.3558935317525 55.8993165735924 -0.423070227704377 44.3606798040083 55.890191784257 -0.423901803790341 44.3628641222388 55.8852699028805 -0.424070400550497 44.3864969030375 55.8246925676174 -0.423855437232134 44.4274345827168 55.7230705126097 -0.424611212222941 44.4336134155524 55.71896721169 -0.429037581327523 1.23848172110253 -0.458037778846441 1.13822445183728 -0.36344884759558 1.03053660394861 -0.27739098710092 0.916368415818824 -0.20013651956037 0.796437813139223 -0.132171245510168 0.671498957487094 -0.0739225520986606 0.542337503919096 -0.0257567255406812 0.40976566052367 0.0120233522060633 0.274617080999585 0.0391801080585823 0.137741622377698 0.0555427717433148 8.51045032560123e-10 0.0610084496536468 -0.137741620680932 0.0555427718774649 -0.274617079318754 0.0391801083260386 -0.409765658869288 0.0120233526051445 -0.542337502301509 -0.0257567250124851 -0.671498955916417 -0.0739225514446707 -0.796437811625276 -0.132171244734497 -0.91636841437107 -0.200136518667896 -1.03053660257609 -0.277390986097254 -1.13822445054858 -0.363448846487035 -1.23848171867749 -0.458037778849715 1.54329486829241 -0.4583307719137 1.54351208406934 -0.236124088279286 1.51161750873512 -0.169690706071273 1.51708013475946 -0.175629653969257 1.52040437445007 -0.179811216207403 1.52558231127941 -0.187980774645975 1.5288508301523 -0.195309061026124 1.53203099520073 -0.204015210980874 1.53400554861631 -0.209171567914482 1.53799426884394 -0.217931121100726 1.54179589504698 -0.226899031950752 -1.51161750571328 -0.169690703039004 -1.38845547585646 -0.0555561935152038 -1.25670457868221 0.0485460297934087 -1.11717981390229 0.141971999508068 -0.970744269841129 0.224143790528629 -0.818303784315819 0.29455309514686 -0.660801341200466 0.352764367394686 -0.499211237208169 0.398417517294489 -0.334533054974437 0.431230138345073 -0.167785479724056 0.450999254464257 2.22904985392198e-09 0.457602575581647 0.167785484168395 0.450999254114608 0.334533059377579 0.431230137647938 0.499211241542932 0.39841751625418 0.660801345440093 0.352764366017638 0.818303788434139 0.294553093441592 0.970744273812723 0.224143788505689 1.11717981770265 0.141971997179971 1.25670458228787 0.048546027174554 1.38845547924518 -0.0555561964086147 -1.54548044959258 -0.236123818906359 -1.54367041956952 -0.227808203134635 -1.54105261728285 -0.22237170631173 -1.53603275785727 -0.213554329950193 -1.53265817691062 -0.206328084335608 -1.53017295477956 -0.199494113490273 -1.52820371659596 -0.193971415364405 -1.52405708861154 -0.185244453659138 -1.51835368241167 -0.177172019147306 -1.54575664057377 -0.459226677013769 -1.53758977146785 -0.443675042993444 -1.53700018936931 -0.437813756208237 -1.53809798778842 -0.427568512377419 -1.53832056536774 -0.422188305909512 -1.53803624808326 -0.357164917505433 -1.53876114526264 -0.247609405523628 -1.54299953077994 -0.241522440610413 66 65 64 54 69 68 54 53 69 55 54 68 56 55 68 57 56 68 21 63 62 21 64 63 21 67 66 21 68 67 21 66 64 61 59 58 61 60 59 33 61 58 33 58 57 33 57 68 33 68 21 20 33 21 34 33 20 19 34 20 35 34 19 18 35 19 36 35 18 17 36 18 37 36 17 16 37 17 38 16 15 38 37 16 39 15 14 39 38 15 40 14 13 40 39 14 41 13 12 41 40 13 42 12 11 42 41 12 43 42 11 44 11 10 44 43 11 45 10 9 45 44 10 46 9 8 46 45 9 47 8 7 47 46 8 48 7 6 48 47 7 49 6 5 49 48 6 50 5 4 50 49 5 51 4 3 51 50 4 23 1 22 31 23 32 30 1 23 30 23 31 52 3 2 52 51 3 26 28 27 25 28 26 24 2 1 24 28 25 24 29 28 24 30 29 24 1 30 24 52 2 
138 136 1 0 0.0058200901132806
43.57659930527 56.72259219114 -2.841572623549 43.5945419703496 56.6911915179855 -2.81298102418494 43.6120760738329 56.6617983311461 -2.78240328875064 43.6292353388667 56.6342174253267 -2.75006282232998 43.6460534885983 56.608253595232 -2.71618303000684 43.6680053513577 56.5758132143649 -2.66900159886032 43.7000833657418 56.5308800355578 -2.59500144614309 43.7557273878282 56.4573921643001 -2.45750178673663 43.8145907107271 56.3837736251971 -2.30365092569278 43.9515508518825 56.2249373152709 -1.9205764514957 44.1333357643751 56.0274235810885 -1.37896564075659 44.43790479699 55.71485818263 -0.4316285350398 43.43879994821 57.07129909335 -2.841572639709 43.37672327742 58.39486558328 -0.4292742133995 43.3705485686614 57.8777713308143 -1.5484055971655 43.37496971015 57.5988127971871 -2.09486234618455 43.3879686842711 57.390131515522 -2.4531163161834 43.3949111934476 57.3208519890968 -2.55881978844152 43.4022008033242 57.2615261291294 -2.64231796573285 43.4109053618347 57.2045920166418 -2.7135804733787 43.4203134919053 57.1536975696337 -2.76886681719462 43.4287879129952 57.1137453957495 -2.8066423196221 43.383807686922 58.3781248031294 -0.42990348289714 43.3914530401704 58.3617093429201 -0.431439374556868 43.4133404720342 58.3156814951445 -0.436557490629112 43.423649807499 58.291053522958 -0.437524677700895 43.4311223053172 58.2710263051292 -0.436887127677014 43.4372915687936 58.2524988526578 -0.434961971568245 43.451982231076 58.2050865159434 -0.427718655323141 43.4549527002057 58.196640936049 -0.427036644466605 43.45818691218 58.18812341696 -0.4267765891201 43.39025775611 57.59508870328 -2.022925240517 43.5056047256 57.32621754415 -1.975925807195 43.5027632097228 57.3254911154485 -1.9920904317029 43.5003591944828 57.325636257944 -2.00421505522884 43.4989558629997 57.3261301473943 -2.01045732795541 43.4966977191923 57.3276657910162 -2.01898919766354 43.4844188471666 57.3416819879302 -2.05381345690865 43.4823911135627 57.3441190833893 -2.05931430308747 43.4804151749184 57.3466593626866 -2.06433686039132 43.4769610687537 57.351494856349 -2.07231047510403 43.475135524669 57.3542435446478 -2.07613045841413 43.4732787766962 57.3571654826288 -2.07975793026127 43.4697513717666 57.3630235117364 -2.08602248899214 43.4642198256563 57.3727813193671 -2.09467954811266 43.4587932319798 57.3827482090197 -2.10236744765547 43.453473774358 57.3929285308168 -2.10906602346374 43.4492550160861 57.4013538906425 -2.11366076298436 43.445123523515 57.4099530976934 -2.11744966706569 43.4410746620212 57.4187169190587 -2.12047553309389 43.4366641850675 57.4286303224758 -2.12302260749337 43.4318618246499 57.4398407845595 -2.12494616575993 43.4277426873654 57.4498258288466 -2.1258416844635 43.4240076490998 57.4592285765014 -2.12594156633306 43.4203558861406 57.4687972218754 -2.1252724611681 43.4167914891791 57.4785399142785 -2.12379659440434 43.4133078500169 57.4884434891246 -2.12157498795668 43.4098960188856 57.4984901170456 -2.11869028644011 43.4065476818926 57.5086632354404 -2.11521926261593 43.4036094633863 57.517969021327 -2.11140014077695 43.4019058617728 57.5236706866871 -2.10856080287297 43.4004777272753 57.5287108565734 -2.10564880822258 43.399216252206 57.5334259351728 -2.10253948305003 43.3974418455952 57.540624819361 -2.09700901439762 43.3958195936931 57.5480194704625 -2.09029268961113 43.392416586808 57.5650015698661 -2.07320181936405 43.3907026555725 57.5730497679746 -2.06562479281528 43.3898390029958 57.578970982717 -2.05799737241378 43.38957923226 57.5835479770347 -2.04999441645611 43.3896862484118 57.5888556694568 -2.03860444970269 43.71162822563 57.40763235131 -0.7452222370949 43.88438435871 57.11918715862 -0.4415689328963 43.8758409107472 57.1377906281926 -0.447727037516754 43.867034932772 57.1562711531371 -0.455492595213536 43.8579685177045 57.1746252445746 -0.464861915840914 43.8486437584644 57.1928494136266 -0.475831309253157 43.8390627479717 57.2109401714144 -0.488397085304534 43.8292275791463 57.2288940290592 -0.502555553849315 43.819140344908 57.2467074976825 -0.518303024741768 43.8088031381767 57.2643770884054 -0.535635807836162 43.7946349671605 57.2877067024749 -0.561205848468716 43.778175207695 57.3136290668601 -0.593322199994677 43.7611710615543 57.3391976143911 -0.628973676468077 43.743629592343 57.3644005701023 -0.668147823647073 43.7278299239255 57.3861651604156 -0.705342825035651 43.9029282958883 57.0791828452902 -0.426874295133113 43.91243247545 57.05688489891 -0.4238572394802 43.920712905022 57.0341845587655 -0.426864736755054 43.93455065573 56.99223929181 -0.4415689329147 44.00564182581 56.66361890862 -0.7452222370949 43.9991263982886 56.7193994509274 -0.664995344314184 43.9914179047079 56.7693523170321 -0.602831460963 43.9839022149904 56.809598051632 -0.559491050323763 43.9761709712235 56.8456254292591 -0.525877233106037 43.9692405965447 56.8746564732119 -0.502410359545518 43.9622929377309 56.9014048822697 -0.483693384117009 43.9556055848415 56.9253614668549 -0.469331709045794 43.9492363744201 56.9468215147326 -0.458423599702814 43.9425361860572 56.9681806009688 -0.449431713458849 43.9385961928051 56.9802274353178 -0.445191955182795 43.79961832578 56.58220410146 -1.975925807195 43.8992296007 56.30711462965 -2.022925240516 43.8946881645915 56.3111432363525 -2.03816429847503 43.891062028456 56.3148347210024 -2.04936254387889 43.8890617661309 56.3171420623081 -2.05498637953708 43.8860577661949 56.321125806065 -2.06237347321921 43.8712878962017 56.344984547411 -2.08997199673018 43.8689333611837 56.3488859564356 -2.09417156889637 43.8666830855745 56.3527489647748 -2.0979108627431 43.8634619203579 56.3585267117146 -2.10275707137963 43.8594599785683 56.3661231224477 -2.1079240881852 43.8574479544023 56.3701137500614 -2.11017182592569 43.8553987112071 56.374286907197 -2.11223918377855 43.8507705853796 56.3840375586367 -2.11624309833312 43.8452701199137 56.3959968485556 -2.12024467030067 43.8399843149384 56.4078770750116 -2.12329857173465 43.8354396598721 56.4184909855418 -2.12510864406105 43.831540646744 56.4279730911721 -2.12589371466112 43.8278176643605 56.4373903613946 -2.12590165505887 43.8238693845754 56.4477846157815 -2.12507888478836 43.819691347591 56.4592568306187 -2.123242277106 43.8159297431672 56.4700571119356 -2.12062599005707 43.8127275379883 56.4797098748517 -2.11746237980344 43.8100088950508 56.4883371996723 -2.11389401911884 43.8073184295958 56.4973741746487 -2.10934366438323 43.8042307128324 56.5084448042085 -2.10269357497727 43.8013686745527 56.5194323121722 -2.09504717344766 43.7987228215365 56.5303401950696 -2.0864463699098 43.7972236270802 56.537302440699 -2.07997710550842 43.7964531524454 56.5414015269608 -2.07558860812268 43.7958466547863 56.5451222752699 -2.07112535677343 43.7951540799658 56.5505709488981 -2.06357883473844 43.7947764055771 56.5554093162312 -2.05565139740107 43.7940802336417 56.5747178325211 -2.01982497302778 43.7946853172247 56.5776703194799 -2.01067037830915 43.7957879315714 56.5795790365826 -2.00107629023293 43.7973585234137 56.5810184935683 -1.99002239179968 44.35616756609 55.92244909443 -0.4297032058046 -1.2282850179048 0.187473060478759 -1.19923388947783 0.223270448595592 -1.16816465083895 0.257050687374498 -1.13530432666028 0.289007714849967 -1.10087994161394 0.319335469056489 -1.05294016630241 0.357573251121248 -0.977750880983198 0.411151078060138 -0.83804291914612 0.499946157251078 -0.681720487928706 0.590045907511293 -0.292481388304116 0.788101524955278 0.25765348613049 1.03860166236601 1.2198361057368 1.44122704305974 -1.22828503432322 -0.187473824366337 1.2218044883155 -1.44122713220842 0.0856904070120913 -0.962590098930617 -0.469556886614095 -0.701529130557015 -0.83358937784537 -0.502674688085176 -0.940987721599266 -0.435692074233823 -1.02582674691563 -0.377838972035217 -1.09823479109405 -0.321690217504822 -1.15441022120989 -0.270899878847941 -1.1927931909981 -0.230629191986958 1.22126242794002 -1.42305428443832 1.21994168410752 -1.40497783331714 1.21551386621049 -1.35412715816183 1.21465704717636 -1.32743387415113 1.21521173980332 -1.30606195506337 1.21691660297823 -1.28656380373496 1.22337885538808 -1.23707046577025 1.22398961536723 -1.22812423665052 1.22422386306593 -1.21901417289183 -0.396481264381879 -0.692447043855588 -0.34872650957622 -0.400000375711833 -0.365150913560641 -0.400369090204244 -0.377470390258235 -0.401387591633491 -0.38381298169879 -0.402362665298237 -0.39248196592194 -0.404620745908754 -0.427865881090109 -0.422168738771113 -0.433455130617908 -0.425180505070842 -0.43855840475545 -0.428269198545771 -0.44666016234318 -0.434035731640533 -0.450541536084301 -0.437262976431403 -0.454227304537001 -0.440662814297219 -0.46059254013725 -0.447407261080243 -0.469388725674751 -0.458515123373837 -0.477200176402978 -0.46977886365749 -0.484006404109753 -0.481201725100427 -0.488674985062741 -0.490587916697589 -0.492524780104989 -0.500103717506761 -0.495599274413608 -0.509742244068698 -0.498187282498524 -0.520582801084718 -0.500141754007751 -0.532773668290754 -0.501051664470306 -0.543573780238423 -0.501153151527733 -0.553691183614371 -0.500473293264816 -0.563932269565874 -0.498973708047385 -0.574303113689758 -0.496716398465265 -0.584793901324743 -0.493785337303808 -0.595391340051158 -0.490258531128921 -0.606083081868355 -0.486378032703541 -0.615817464362887 -0.483493064187202 -0.621746211509493 -0.480534271267774 -0.626958517902069 -0.477374976554246 -0.631807233761993 -0.471755628494025 -0.639154441617306 -0.464931366567408 -0.64662779654943 -0.447565831274441 -0.663672097233334 -0.439867035365259 -0.671786955577342 -0.432117035730514 -0.677611191788401 -0.423985465358696 -0.68196334357436 -0.412412452002218 -0.686860256458925 0.901755529817646 -0.400000375706947 1.21028880486173 -0.0682506838547503 1.20403173418121 -0.0886920855251281 1.19614137726334 -0.109115630867975 1.18662148355807 -0.129517305983857 1.17547580251535 -0.149893096973342 1.16270808358513 -0.170238989936997 1.14832207621736 -0.190550970975387 1.13232152986199 -0.210825026189082 1.11471019396897 -0.231057141678646 1.08872922069494 -0.257961118489904 1.05609673166023 -0.288118594374309 1.01987230517162 -0.318147085996811 0.980068595622714 -0.348033046446823 0.942275838451244 -0.374081127897982 1.22215365324759 -0.0234250659999105 1.22828513614082 -3.75710455857714e-07 1.22217307712962 0.0233513470147511 1.210288804843 0.0682499324233743 0.90175552981808 0.399999624289448 0.983271738020491 0.34572825226478 1.04643464865587 0.296438244973939 1.09047157712782 0.25624689179259 1.12462559742624 0.219899461700862 1.1484696039198 0.190353072493095 1.16748737731577 0.162923219880138 1.18207985691486 0.1381854777913 1.19316326900005 0.115886479556041 1.20229966262444 0.0935597373237935 1.20660755747824 0.0809079644508899 -0.348726509574802 0.399999624284563 -0.396481264381302 0.692446292444504 -0.411965227164915 0.687030565541709 -0.423343438043944 0.68226475611305 -0.429057653598272 0.679383759518232 -0.436563464255854 0.674574789838866 -0.464605519875099 0.646957581166279 -0.468872582792957 0.642463873569829 -0.472671970321274 0.638044196361228 -0.477596061716104 0.631486961644069 -0.482846116944402 0.622951390375371 -0.485129977771738 0.618500586552789 -0.487230559850862 0.613866348581711 -0.491298820770475 0.603097163978281 -0.495364701455517 0.589953308829424 -0.498467681722952 0.57696187540925 -0.500306843474892 0.565420522269732 -0.501104530837663 0.555169051093627 -0.501112598844682 0.545042572227313 -0.50027660594556 0.533924681046358 -0.498410482391614 0.521719828856547 -0.495752149350091 0.510292932176883 -0.492537697147208 0.500138835624506 -0.48891198982442 0.491116131076246 -0.484288506958211 0.481722800703322 -0.477531544872124 0.470292140786419 -0.469762259066064 0.459021726030007 -0.461023233187075 0.447904815682622 -0.454450002119386 0.440878830808824 -0.449990977790404 0.436783449180358 -0.445455998137158 0.43310019253144 -0.437788196975346 0.427778301480684 -0.429733358873302 0.423139736801659 -0.393331172918014 0.404926637182616 -0.384029455955607 0.402403153202546 -0.37428118259784 0.401033243741295 -0.363049638469852 0.400271743759314 1.22177991081717 1.21812417420408 66 65 16 66 16 67 64 16 65 68 67 16 63 16 64 62 16 63 69 68 16 61 16 62 60 17 16 60 16 61 70 69 16 59 17 60 58 17 59 32 70 16 57 17 58 56 17 57 55 17 56 54 17 55 53 17 54 52 17 53 51 17 52 50 17 51 49 17 50 48 17 49 2 1 13 2 13 22 47 17 48 46 17 47 45 17 46 3 2 22 3 22 21 44 17 45 43 17 44 42 18 17 42 17 43 41 18 42 15 32 16 40 18 41 4 3 21 4 21 20 5 4 20 6 20 19 6 5 20 7 19 18 7 18 40 7 6 19 24 15 14 24 14 23 25 15 24 26 15 25 27 15 26 28 15 27 130 8 7 130 129 8 128 8 129 131 130 7 127 8 128 132 131 7 132 40 39 132 7 40 126 8 127 133 39 38 133 132 39 125 9 8 125 8 126 124 9 125 31 28 29 31 29 30 31 15 28 123 9 124 134 38 37 134 133 38 122 9 123 135 36 35 135 37 36 135 134 37 121 9 122 136 35 34 136 135 35 120 9 121 137 34 33 137 136 34 119 9 120 101 137 33 118 9 119 117 9 118 116 9 117 115 9 116 114 9 115 113 9 114 112 9 113 111 9 112 110 9 111 109 9 110 108 9 109 107 9 108 106 9 107 105 9 106 10 103 102 10 104 103 10 105 104 10 9 105 71 101 33 88 86 87 89 72 86 89 86 88 100 72 89 100 73 72 99 73 100 99 74 73 90 101 71 90 71 85 98 74 99 98 75 74 97 76 75 97 75 98 91 84 83 91 85 84 91 90 85 96 77 76 96 76 97 95 77 96 95 78 77 95 79 78 92 83 82 92 91 83 94 79 95 94 80 79 93 80 94 93 92 82 93 81 80 93 82 81 12 11 138 31 32 15 102 138 10 10 138 11 

TShapes 6
Ve
0.0187645658784391
44.35616756609 55.92244909443 -0.4297032058046
0 0

0101101
*
Ve
0.0187645658784391
44.43790479699 55.71485818263 -0.4316285350398
0 0

0101101
*
Ed
 0.0187645658784391 1 1 0
1  1 0 0 1
2  1 1 0 0 1
4 C0 1 0 2 0
6  1 1 0
0

0101000
+6 0 -5 0 *
Ed
 0.0187645658784391 1 1 0
1  2 0 0 0.223111336488797
2  2 1 0 0 0.223111336488797
4 C0 3 0 1 0
6  2 2 0
0

0101000
+6 0 -5 0 *
Wi

0101100
+4 0 -3 0 *
Fa
0  1e-07 1 0

0111000
+2 0 *

+1 0 