DBRep_DrawableShape

CASCADE Topology V3, (c) Open Cascade
Locations 0
Curve2ds 3
7 0 0  1 2 2  6.3151499829476032 0.0043251650406566089  6.3267469865209058 0.074325165036387197 
 0 2 0.070003533093324938 2
7 0 0  1 2 2  0.31889538377021015 0.0043251650406566089  0.33195879707714454 0.074325165036387197 
 0 2 0.070003533093324938 2
7 0 0  1 2 2  0.31889538377021015 0.0043251650406566089  0.33195879713852028 0.074325165036331242 
 0 2 1 2
Curves 2
1 31.385014373770002 -33.984944291630001 -1.2894951585979999 -0.71173960002710757 -0.70240258659800747 0.0075728524138380807 
7 0 0  3 4 2  31.385014373770002 -33.984944291630001 -1.2894951585979999  31.36851521554 -34.001443449859998 -1.289495158597  31.351689245349998 -34.017615796119998 -1.288965032174  31.335190087120001 -34.034114954339998 -1.288965032173 
 0 4 1 4
Polygon3D 0
PolygonOnTriangulations 2
3 3 8 9 
p 0.0166666666666667 1 0 0.0233345110311083 0.0700035330933249 
3 4 5 1 
p 0.0166666666666667 1 0 0.5 1 
Surfaces 3
2 31.35456903072 -33.948382241520001 -1.3051387818860001 -0.70710678118654757 -0.70710678118654757 0 0.70710678118654757 -0.70710678118654757 0 0 0 1 0.049999999997419997
2 31.35456903072 -33.948382241520001 -1.291010205144 -0.70710678118654757 -0.70710678118654757 0 0.70710678118654757 -0.70710678118654757 0 0 0 1 0.049999999997419997
1 31.347975143279999 -33.997402535820001 -1.26 0.58834840543639533 -0.58834840538359534 0.55470019623489553 -0.39223227033270325 0.39223227023370333 0.83205029433139954 -0.70710678113712389 -0.70710678123597137 -3.7536599015952574e-11 
Triangulations 2
13 11 1 0 0.00613058867764571
31.37524612878 -33.97517604664 -1.327916992569 31.32322640595 -34.02215127317 -1.331010205146 31.38501437377 -33.98494429163 -1.289495158598 31.3846969348604 -33.9846268527204 -1.2952410910676 31.3846552319648 -33.9845851498248 -1.30829125811527 31.3835163826834 -33.9834463005434 -1.31384120369359 31.3787831555455 -33.9787130734055 -1.32225815076862 31.3684062782219 -34.0013345125353 -1.28931844978981 31.33519008712 -34.03411495434 -1.288965032173 31.3316714414615 -34.0305963086907 -1.31918361534188 31.3338187433704 -34.0327436105992 -1.31422507611862 31.3348320150312 -34.033756882255 -1.30294073285198 31.3348766760025 -34.0338015432233 -1.29438189615522 5.45043204562046 0.00432516504065861 5.40310822329278 0.0743251650363324 6.3151499829476 0.00432516504065661 6.23547026922905 0.00432516504065679 6.03022644111935 0.00432516504065727 5.88279101428403 0.00432516504065761 5.61893796636392 0.00432516504065822 6.31901565080537 0.0276584983725668 6.32674698653769 0.0743251650363312 5.81361434029052 0.0743251650363319 5.9504497126231 0.0743251650363317 6.1385983495804 0.0743251650363315 6.25311197203838 0.0743251650363313 7 2 1 10 7 6 10 2 7 11 6 5 11 10 6 12 5 4 12 11 5 8 4 3 13 12 4 13 4 8 9 13 8 
6 4 1 0 0.00164265338740475
31.33519008712 -34.03411495434 -1.288965032173 31.325106138115 -34.024031005335 -1.26578063004887 31.31502218911 -34.01394705633 -1.242596227924 31.38501437377 -33.98494429163 -1.289495158598 31.360102230445 -34.0095296229888 -1.2892300953855 31.36451966379 -33.96444958165 -1.242596227925 -0.0334854472027655 0.0350000000001055 -0.00628435816818667 0.0349999999982387 0.020916730866181 0.0349999999963675 -0.0341829114574933 -0.0349999999964361 -0.0338341793316105 4.94440682841107e-12 0.0209167308612839 -0.0349999999993035 6 5 4 2 1 5 2 5 6 3 2 6 

TShapes 6
Ve
0.00724753242844391
31.33519008712 -34.03411495434 -1.288965032173
0 0

0101101
*
Ve
0.00501962046191752
31.38501437377 -33.98494429163 -1.289495158598
0 0

0101101
*
Ed
 0.00303627754893831 1 1 0
1  1 0 0 0.0700035330933249
2  1 2 0 0 0.0700035330933249
2  2 1 0 0 0.0700035330933249
4 C0 2 0 1 0
6  1 1 0
0

0101000
-6 0 +5 0 *
Ed
 0.00198930343428452 1 1 0
1  2 0 0 1
2  3 1 0 0 1
4 C0 1 0 3 0
6  2 2 0
0

0101000
+5 0 -6 0 *
Wi

0101100
-4 0 +3 0 *
Fa
0  1e-07 1 0

0111000
+2 0 *

-1 0 