DBRep_DrawableShape

CASCADE Topology V3, (c) Open Cascade
Locations 0
Curve2ds 2
7 0 0  1 2 2  0.75373244343179402 0.007111999085594789  1.0521013236738452 0.37385342102417951 
 0 2 0.36687370548248444 2
7 0 0  1 2 2  0.75373244343179402 0.007111999085594789  1.0521013236609398 0.37385342102419372 
 0 2 1 2
Curves 2
1 -23.634921023936919 67.442199999963194 0.089879367155053999 -0.014095444291860279 0.99963943029461988 0.022854493003840459 
7 0 0  3 4 2  -23.634921023936919 67.442199999963194 0.089879367155053999  -23.634921023936919 67.560733323195791 0.089879367117233391  -23.640092271813856 67.690408098694604 0.098264079728114989  -23.640092271813856 67.808941421901793 0.098264079690294395 
 0 4 1 4
Polygon3D 0
PolygonOnTriangulations 2
3 5 6 4 
p 0.0166666666666667 1 0 0.122291235160828 0.366873705482484 
3 6 7 2 
p 0.0166666666666667 1 0 0.5 1 
Surfaces 3
2 -23.612000000000037 67.435088000877599 0.11429999999999998 0 1 0 0 0 -1 -1 0 0 0.038100000000000002
1 -22.850000000000041 67.822996799988601 0.076200000000000004 0 0 1 0 -1 0 1 0 -0 
1 -23.650100000000037 67.6200000019698 0.457199999554738 1 0 0 0 -1 0 0 0 -1 
Triangulations 2
22 20 1 0 0.0220616964234836
-22.0624984 68.4579967999886 0.08255 -22.0599101079605 67.808917206888 0.0982593131566728 -23.6375016 68.4579967999886 0.08255 -23.6400922718139 67.8089414219018 0.0982640796902944 -23.6349210239369 67.4421999999632 0.089879367155054 -23.6366447732295 67.5644471406094 0.0926742713334682 -23.6375016 67.1879967999886 0.08255 -23.5391730384025 67.1879967999886 0.0846666666666582 -23.492366 67.1879967999886 0.079756 -23.5017274076803 67.1879967999886 0.0802667093333325 -23.5142092845878 67.1879967999886 0.0819661637530826 -23.5266911614954 67.1879967999886 0.0838052993580177 -23.5333080197207 67.1879967999886 0.0844546870003864 -22.207634 67.1879967999886 0.079756 -22.1608248306391 67.1879967999886 0.0846666666666836 -22.1701870736551 67.1879967999886 0.0841559573333485 -22.1826691803904 67.1879967999886 0.0824565029135896 -22.195151165898 67.1879967999886 0.0806173673086449 -22.2017683642527 67.1879967999886 0.0799679796662705 -22.0624984 67.1879967999886 0.08255 -22.06129952 67.4421692289554 0.0927100002855468 -22.060373245307 67.6866678809105 0.0964095421995771 -0.634999999999991 0.787501600000002 0.0140795931006039 0.79008989203956 -0.634999999999991 -0.787501600000255 0.0140553780868231 -0.790092271814654 0.380796800025408 -0.784921023935834 0.258549659379213 -0.78664477322947 0.635000000000005 -0.787501599999999 0.635000000000005 -0.689173038402497 0.635000000000005 -0.642365999999999 0.635000000000005 -0.651727407680256 0.635000000000005 -0.664209284587791 0.635000000000005 -0.676691161495398 0.635000000000005 -0.683308019720673 0.635000000000005 0.642366000000003 0.635000000000005 0.689175169360901 0.635000000000005 0.679812926344952 0.635000000000005 0.667330819609608 0.635000000000005 0.654848834102048 0.635000000000005 0.648231635747314 0.635000000000019 0.787501600000049 0.380827571033208 0.788700480000074 0.136328919078139 0.789626754693065 8 5 7 13 5 8 12 5 13 11 5 12 10 5 11 9 6 5 9 5 10 1 3 4 2 1 4 22 4 6 22 6 9 22 2 4 14 21 22 14 22 9 19 21 14 18 21 19 17 21 18 16 21 17 15 21 16 20 21 15 
7 5 1 0 0.00994385742872694
-23.6500990163774 67.7977999633364 0.800099997482098 -23.6400922718139 67.8089414219018 0.0982640796902944 -23.6501 67.4421999999886 0.800099999204472 -23.647433 67.4421999999886 0.676838564857882 -23.6480407559016 67.4421999999886 0.242549922004672 -23.6349210239369 67.4421999999632 0.089879367155054 -23.6375066478754 67.625570710942 0.0940717234226742 -0.177799961366603 -0.34289999792736 -0.188941419931993 0.358935919864444 0.177800001981211 -0.342899999649357 0.177800001981211 -0.219638565303144 0.177800001981211 0.214650077550066 0.177800002006606 0.367320632399684 -0.00557070897222189 0.363128276132064 4 1 3 5 2 1 5 7 2 5 1 4 6 7 5 

TShapes 6
Ve
0.0232114506560854
-23.6400922718139 67.8089414219018 0.0982640796902944
0 0

0101101
*
Ve
0.0220643003310934
-23.6349210239369 67.4421999999632 0.089879367155054
0 0

0101101
*
Ed
 0.0220643003310934 1 1 0
1  1 0 0 0.366873705482484
2  1 1 0 0 0.366873705482484
4 C0 2 0 1 0
6  1 1 0
0

0101000
-6 0 +5 0 *
Ed
 0.0151791278528795 1 1 0
1  2 0 0 1
2  2 1 0 0 1
4 C0 3 0 1 0
6  2 2 0
0

0101000
+5 0 -6 0 *
Wi

0101100
+4 0 -3 0 *
Fa
0  1e-07 1 0

0111000
+2 0 *

-1 0 