DBRep_DrawableShape

CASCADE Topology V3, (c) Open Cascade
Locations 0
Curve2ds 8
7 0 0  1 2 2  6.1242386845839478 0.025614847071000924  6.9907697439057168 0.025614847071000924 
 0.093733632546395412 2 4.1018573454579679 2
1 2.8889123984478324 0.025614847071000924 1 0 
1 2.8889123984478005 0.025614847071000924 1 0 
1 2.8889123984478751 0.025614847071000924 1 0 
1 8.7171935239930853 1.3063572006010009 -7.230297474172347e-12 -1 
1 9.4247779607709425 1.3063572006037782 -1 1.0920466660597728e-12 
1 0 0 0 1 
7 0 0  1 2 2  9.4247779607693793 1.3063572006099999  9.2658313382127417 0.025614847070965396 
 0 2 1.2808444439068956 2
Curves 4
2 72.355000000069992 75.650000000039995 4.9875000000000007 0 0 1 0.96824583655188134 -0.24999999999989517 0 0.24999999999989517 0.96824583655188134 -0 0.10000000000000001
1 72.430993420830006 75.585000000039997 6.2682423535300007 -1.553411312311e-12 3.814179561477e-13 -1 
2 72.355000000069992 75.650000000039995 6.2682423535380005 -5.2228062719599999e-11 7.3999695274960007e-12 -1 1 1.5987211555090234e-12 -5.2228062719588167e-11 1.5987211551225374e-12 -1 -7.3999695275794991e-12 0.099999999996960007
1 72.455000000070001 75.650000000039995 6.2682423535389997 0.00060010871696698515 -0.012611286588119686 -0.99992029448357533 
Polygon3D 0
PolygonOnTriangulations 7
52 1 2 3 4 5 6 7 8 9 10 11 12 13 14 15 16 17 18 19 20 21 22 23 24 25 26 27 28 29 30 31 32 33 34 35 36 37 38 39 40 41 42 43 44 45 46 47 48 49 50 51 52 
p 0.05 1 0.0937336325463954 0.172324293583877 0.250914954621359 0.329505615658841 0.408096276696323 0.486686937733804 0.565277598771286 0.643868259808768 0.72245892084625 0.801049581883732 0.879640242921213 0.958230903958695 1.03682156499618 1.11541222603366 1.19400288707114 1.27259354810862 1.3511842091461 1.42977487018359 1.50836553122107 1.58695619225855 1.66554685329603 1.74413751433351 1.822728175371 1.90131883640848 1.97990949744596 2.05850015848344 2.13709081952092 2.2156814805584 2.29427214159589 2.37286280263337 2.45145346367085 2.53004412470833 2.60863478574581 2.6872254467833 2.76581610782078 2.84440676885826 2.92299742989574 3.00158809093322 3.0801787519707 3.15876941300819 3.23736007404567 3.31595073508315 3.39454139612063 3.47313205715811 3.55172271819559 3.63031337923308 3.70890404027056 3.78749470130804 3.86608536234552 3.944676023383 4.02326668442049 4.10185734545797 
8 4 5 6 7 8 9 10 3 
p 0.05 1 4.10185734545797 4.17980795088828 4.25775855631859 4.3357091617489 4.41365976717921 4.49161037260953 4.56956097803984 4.64751158347015 
9 1 2 3 4 5 6 7 8 9 
p 0.05 1 4.64751158347015 4.72690084569263 4.80629010791512 4.8856793701376 4.96506863236008 5.04445789458257 5.12384715680505 5.20323641902753 5.28262568125002 
8 54 55 56 57 58 59 60 53 
p 0.05 1 5.28262568125002 5.36057645901377 5.43852723677752 5.51647801454127 5.59442879230502 5.67237957006877 5.75033034783252 5.82828112559626 
2 9 1 
p 0.05 1 0 1.28074235353 
10 1 2 3 4 5 6 7 8 9 10 
p 0.05 1 0 0.0786204929753215 0.157240985950643 0.235861478925964 0.314481971901286 0.393102464876607 0.471722957851929 0.55034345082725 0.628963943802572 0.707584436777893 
2 3 4 
p 0.05 1 0 1.2808444439069 
Surfaces 5
2 72.355000000069992 75.650000000039995 4.9618851529289998 0 0 1 -1 0 0 0 -1 0 0.10000000000000001
1 72.56500000007 75.800000000040001 4.9875000000000007 0 0 1 0 -1 0 1 0 -0 
1 72.35299671045 75.585000000039997 5.8375000816080007 0 1 0 0 0 -1 -1 0 0 
5 72.255000000069998 75.650000000039995 6.2682423535430001 -2.7999824681049999e-11 -1 -7.3999695260339993e-12 1 -2.7999824680662694e-11 -5.2338533801280001e-11 5.2338533801072805e-11 -7.3999695274994694e-12 1 0.10000000000000001 0.099999999996960007
1 72.455000000060011 75.800000000040001 5.6278711767710003 1 2.53593700402e-11 0 0 -0 1 2.53593700402e-11 -1 -0 
Triangulations 6
77 69 1 0 0.00102754775743066
72.45576864598 75.63384690368 4.9875 72.4546773197292 75.6419730488413 4.9875 72.4549998442557 75.6498234700796 4.9875 72.4547050383872 75.6576749810928 4.9875 72.4537947220528 75.6654791120412 4.9875 72.4522745149205 75.6731876855776 4.9875 72.4501538017059 75.6807531142601 4.9875 72.4474456742365 75.6881286943254 4.9875 72.4441668506323 75.6952688940048 4.9875 72.4403375720997 75.7021296346069 4.9875 72.4359814779757 75.7086685626286 4.9875 72.4311254597953 75.7148453112168 4.9875 72.4257994952814 75.7206217493656 4.9875 72.4200364632831 75.725962217311 4.9875 72.413871940804 75.7308337466698 4.9875 72.4073439833743 75.7352062639637 4.9875 72.4004928901222 75.7390527762724 4.9875 72.3933609549946 75.7423495378692 4.9875 72.3859922056635 75.745076196811 4.9875 72.3784321317291 75.7472159205773 4.9875 72.3707274038984 75.7487554999821 4.9875 72.3629255858722 75.7496854307192 4.9875 72.3550748407196 75.7499999720344 4.9875 72.3472236335522 75.7496971821656 4.9875 72.3394204323338 75.7487789303296 4.9875 72.3317134086723 75.7472508851829 4.9875 72.3241501404414 75.7451224798273 4.9875 72.3167773180676 75.7424068535766 4.9875 72.3096404562952 75.7391207708431 4.9875 72.3027836132098 75.7352845176459 4.9875 72.2962491182541 75.7309217763789 4.9875 72.2900773109142 75.7260594796121 4.9875 72.2843062916922 75.7207276438279 4.9875 72.2789716868994 75.7149591841207 4.9875 72.2741064287239 75.7087897110009 4.9875 72.26974055193 75.7022573105608 4.9875 72.2659010084442 75.6954023093565 4.9875 72.2626115009724 75.6882670254601 4.9875 72.2598923366757 75.6808955072164 4.9875 72.257760301808 75.673333261319 4.9875 72.2562285580889 75.6656269718832 4.9875 72.2553065614529 75.65782421225 4.9875 72.2550000036743 75.6499731513014 4.9875 72.2553107772302 75.6421222560985 4.9875 72.2562369636183 75.6343199926792 4.9875 72.2577728451993 75.6266145268621 4.9875 72.2599089404948 75.6190534269039 4.9875 72.2626320627187 75.6116833698455 4.9875 72.2659254011835 75.6045498533603 4.9875 72.2697686250783 75.5976969148822 4.9875 72.2741380089768 75.5911668597494 4.9875 72.2790065793022 75.5850000000399 4.9875 72.43099342083 75.58500000004 4.9875 72.3862246116228 75.5549998756539 4.9875 72.3935276305523 75.5577198738512 4.9875 72.4005966616437 75.5610003121005 4.9875 72.4073887729212 75.5648212674881 4.9875 72.4138627142113 75.569159534406 4.9875 72.4199791676659 75.5739887654852 4.9875 72.425700986549 75.5792796316098 4.9875 72.46000000007 75.55499983115 4.9875 72.435698830299 75.5909432578366 4.9875 72.4399405185271 75.5972258745215 4.9875 72.4436941114279 75.6038117481741 4.9875 72.4341801992418 75.5889459185653 4.9875 72.4372359331809 75.5931842095936 4.9875 72.4404960897578 75.5982525059985 4.9875 72.4484570448975 75.6133371550018 4.9875 72.4520934918569 75.6221563252345 4.9875 72.4540481702063 75.6278535965973 4.9875 72.45576864598 75.63384690368 4.9875 72.4358494089949 75.5911495703347 4.9875 72.4402089992818 75.5976604695365 4.9875 72.4440454247538 75.6044927221288 4.9875 72.4473351305886 75.6116043795591 4.9875 72.4500579187044 75.6189517777899 4.9875 72.4521970717715 75.6264898053861 4.9875 0.166153096359814 -0.10923135408642 0.158026951198728 -0.110322680340749 0.15017652996038 -0.11000015581426 0.142325018947233 -0.110294961682778 0.13452088799876 -0.111205278017234 0.12681231446244 -0.112725485149448 0.119246885779882 -0.114846198364105 0.111871305714627 -0.117554325833539 0.104731106035171 -0.120833149437698 0.0978703654330802 -0.124662427970335 0.091331437411407 -0.129018522094326 0.0851546888232338 -0.133874540274707 0.0793782506744322 -0.139200504788555 0.0740377827290064 -0.144963536786867 0.0691662533701887 -0.151128059266011 0.0647937360762714 -0.157656016695719 0.0609472237675956 -0.164507109947814 0.0576504621707896 -0.171639045075359 0.0549238032289528 -0.179007794406459 0.0527840794627286 -0.186567868340883 0.051244500057877 -0.194272596171627 0.0503145693208283 -0.20207441419783 0.05000002800562 -0.209925159350407 0.050302817874421 -0.217776366517782 0.0512210697104259 -0.225579567736216 0.0527491148571157 -0.233286591397745 0.0548775202126522 -0.240849859628624 0.057593146463374 -0.248222682002456 0.0608792291968991 -0.25535954377484 0.0647154823941 -0.262216386860157 0.0690782236610604 -0.268750881815947 0.0739405204279191 -0.274922689155835 0.0792723562120688 -0.280693708377822 0.0850408159193158 -0.286028313170641 0.0912102890390772 -0.290893571346137 0.0977426894792294 -0.29525944814 0.104597690683497 -0.299098991625777 0.111732974579932 -0.30238849909757 0.119104492823635 -0.305107663394267 0.126666738721011 -0.307239698262019 0.134373028156849 -0.308771441981048 0.142175787790008 -0.309693438617069 0.15002684873857 -0.309999996395738 0.157877743941449 -0.30968922283976 0.165680007360762 -0.308763036451746 0.173385473177874 -0.307227154870692 0.180946573136099 -0.305091059575202 0.18831663019447 -0.30236793735135 0.195450146679745 -0.299074598886508 0.20230308515781 -0.29523137499171 0.208833140290572 -0.290861991093174 0.215000000000073 -0.285993420767809 0.215000000000003 -0.134006579232148 0.245000124386132 -0.178775388447238 0.242280126188791 -0.171472369517682 0.238999687939509 -0.16440333842625 0.235178732551904 -0.157611227148824 0.230840465633992 -0.151137285858703 0.226011234554781 -0.14502083240408 0.220720368430177 -0.139299013521023 0.245000168890002 -0.105000000000004 0.20905674220339 -0.12930116977104 0.202774125518509 -0.125059481542925 0.196188251865886 -0.121305888642067 0.211054081474662 -0.130819800828161 0.206815790446432 -0.127764066889069 0.201747494041531 -0.124503910312219 0.186662845038177 -0.116542955172539 0.177843674805496 -0.112906508213107 0.172146403442655 -0.110951829863715 0.165827819550324 -0.111260544217209 0.20885042970526 -0.129150591075095 0.202339530503449 -0.124791000788189 0.19550727791122 -0.120954575316242 0.188395620480911 -0.117664869481407 0.181048222250099 -0.11494208136558 0.173510194653862 -0.112802928298549 1 2 71 70 1 71 61 55 54 61 56 55 61 57 56 61 58 57 61 59 58 61 60 59 62 53 65 52 53 51 51 53 50 50 53 49 49 53 48 48 53 47 47 53 46 46 53 45 45 53 44 44 53 43 43 53 42 42 53 41 41 53 40 40 53 39 39 53 38 38 53 37 37 53 36 36 53 35 35 53 72 35 72 73 35 73 64 35 64 34 34 64 33 33 64 32 32 64 31 31 64 30 30 64 29 29 64 28 28 64 27 27 64 26 26 64 25 25 64 24 24 64 23 23 64 22 22 64 21 21 64 20 20 64 19 19 64 18 18 64 17 15 68 14 14 68 13 13 68 12 12 68 11 11 68 10 10 68 9 9 68 8 8 68 7 7 68 6 6 68 5 5 68 4 4 68 3 3 68 2 2 68 71 53 60 61 61 1 70 61 70 69 61 69 68 68 64 61 15 16 17 15 17 68 68 17 64 
17 15 1 0 3.17764371615651e-14
72.25500000007 75.60500006148 4.9875 72.25000000007 75.55499995782 4.9875 72.3237752739154 75.5549999133212 4.9875 72.2790065793022 75.5850000000399 4.9875 72.2842990014036 75.5792796437939 4.9875 72.2900208062756 75.5739887878813 4.9875 72.2961372441342 75.569159564838 4.9875 72.3026111685023 75.5648213036014 4.9875 72.3094032618082 75.5610003513896 4.9875 72.3164722741701 75.5577199136888 4.9875 72.27500000007 75.58500000004 4.9875 72.2555014301078 75.6005496327033 4.9875 72.2569806036707 75.5963223647973 4.9875 72.2593633485308 75.5925302314518 4.9875 72.2625301834461 75.589363386808 4.9875 72.2663223094718 75.5869806302985 4.9875 72.2705495728338 75.5855014437495 4.9875 0.194999938560034 -0.309999999999917 0.245000042219999 -0.314999999999998 0.245000086718778 -0.241224726154554 0.215000000000073 -0.285993420767809 0.220720356246096 -0.280700998666412 0.226011212158669 -0.274979193794417 0.230840435201994 -0.268862755935777 0.235178696438582 -0.262388831567677 0.23899964865037 -0.255596738261779 0.242280086351183 -0.248527725899937 0.215000000000013 -0.290000000000006 0.199450367336653 -0.309498569962163 0.203677635242695 -0.308019396399305 0.207469768588192 -0.305636651539173 0.210636613231988 -0.302469816623904 0.213019369741538 -0.298677690598214 0.21449855629055 -0.294450427236211 2 12 1 2 13 12 2 14 13 2 15 14 2 16 15 2 17 16 5 4 11 5 11 17 5 17 2 6 5 2 7 6 2 8 7 2 9 8 2 10 9 2 2 3 10 
9 7 1 0 2.00971834711523e-14
72.3237752739154 75.5549999133212 4.9875 72.3314076884509 75.5528228276564 4.9875 72.3391887191052 75.5512578945619 4.9875 72.3470693504789 75.5503149720916 4.9875 72.3549999397533 75.55000000004 4.9875 72.3629305294077 75.5503149625247 4.9875 72.3708111619189 75.5512578754883 4.9875 72.378592194461 75.5528227991963 4.9875 72.3862246116228 75.5549998756539 4.9875 0.245000086718778 -0.241224726154554 0.247177172383591 -0.233592311619087 0.248742105478129 -0.225811280964812 0.249685027948359 -0.217930649591104 0.249999999999991 -0.210000060316666 0.249685037515292 -0.202069470662272 0.248742124551729 -0.194188838151091 0.247177200843708 -0.186407805608991 0.245000124386132 -0.178775388447238 9 1 2 9 2 3 9 3 4 9 4 5 9 5 6 9 6 7 9 7 8 
9 7 1 0 4.9366059986049e-12
72.43099342083 75.58500000004 4.9875 72.2790065793022 75.5850000000399 4.9875 72.27500000007 75.58500000004 4.9875 72.27500000007 75.58500000004 6.6875001632 72.35279197335 75.58500000004 6.687500163214 72.42775992599 75.58500000004 6.301823481382 72.4295538565225 75.5850000000449 6.2907064438023 72.4306331610323 75.585000000045 6.27949743790532 72.43099342083 75.58500000004 6.26824235353 0.850000081608 -0.0779967103780166 0.850000081608 0.0739901311478088 0.850000081608 0.0779967103800416 -0.850000081592644 0.0779967103800061 -0.850000081605999 0.00020473709999181 -0.464323399780463 -0.0747632155468382 -0.453206362194294 -0.0765571460725066 -0.441997356297323 -0.0776364505823222 -0.430742271922 -0.0779967103800061 6 4 5 9 6 7 9 7 8 9 4 6 2 9 1 3 9 2 3 4 9 
40 54 1 0 0.000179586311535811
72.45500000007 75.65000000004 6.268242353539 72.4546911001343 75.6421460476995 6.26824235353274 72.4537663087196 75.6343406170658 6.26824235353273 72.4522313391829 75.6266319300791 6.26824235353275 72.4500956745641 75.6190676109972 6.2682423535328 72.4473725089963 75.6116943921731 6.26824235353289 72.4440786661926 75.6045578253429 6.26824235353301 72.4402344955095 75.5977020002068 6.26824235353316 72.4358637462283 75.5911692720432 6.26824235353334 72.43099342083 75.58500000004 6.26824235353 72.45132543676 75.65000000004 6.306404152618 72.4533640703754 75.6500000000343 6.29377068311412 72.4545905986204 75.6500000000343 6.28103270025882 72.4510222121856 75.6421460476993 6.30634521173212 72.450114411794 75.6343406170657 6.30616875321135 72.4486076439711 75.6266319300789 6.30587586721614 72.4465112175267 75.6190676109969 6.30546836319579 72.4438380841803 75.6116943921728 6.30494875870956 72.4406047585464 75.6045578253425 6.30432026387329 72.4368312161062 75.5977020002063 6.30358676152723 72.4325407697999 75.5911692720426 6.30275278324788 72.42775992599 75.58500000004 6.301823481382 72.4295538565225 75.5850000000449 6.2907064438023 72.4306331610323 75.585000000045 6.27949743790532 72.4542823310078 75.642146047694 6.28101294557256 72.4533594326477 75.6343406170608 6.28095380355834 72.4530576971353 75.642146047694 6.29373125461763 72.4518276052047 75.6266319300744 6.28085563959543 72.4521404701891 75.6343406170607 6.29361321271748 72.4496963123068 75.6190676109929 6.28071906014067 72.4506180561636 75.6266319300744 6.29341728667638 72.4469787210786 75.6116943921692 6.28054490898174 72.4484998605306 75.6190676109928 6.29314468692513 72.4436916207951 75.6045578253393 6.28033426202427 72.4457989694998 75.6116943921691 6.29279709758464 72.4398553191573 75.5977020002036 6.28008842064488 72.4425320691724 75.6045578253393 6.29237666606138 72.4354935168317 75.5911692720404 6.27980890365128 72.4387193424543 75.5977020002035 6.29188598978074 72.4343843443659 75.5911692720403 6.29132810014011 3.2333052901734e-11 0 -3.9620582943298e-28 0.0786204929753215 -3.9620582943298e-28 0.157240985950643 -3.9620582943298e-28 0.235861478925964 -3.9620582943298e-28 0.314481971901286 -3.9620582943298e-28 0.393102464876607 -3.9620582943298e-28 0.471722957851929 -3.9620582943298e-28 0.55034345082725 -3.9620582943298e-28 0.628963943802572 -2.08042194582703e-11 0.707584436636568 0.191986217772769 0 0.127990811862159 0 0.0639954059472463 0 0.191986217772874 0.0786204929716365 0.191986217772978 0.157240985943273 0.191986217773083 0.23586147891491 0.191986217773188 0.314481971886546 0.191986217773292 0.393102464858183 0.191986217773397 0.471722957829819 0.191986217773501 0.550343450801456 0.191986217773606 0.628963943773092 0.191986217979898 0.707584436636212 0.127990811979664 0.707584436636331 0.0639954059794297 0.70758443663645 0.0639954059472463 0.0786204929716365 0.0639954059472463 0.157240985943273 0.127990811862159 0.0786204929716365 0.0639954059472463 0.23586147891491 0.127990811862159 0.157240985943273 0.0639954059472463 0.314481971886546 0.127990811862159 0.23586147891491 0.0639954059472463 0.393102464858183 0.127990811862159 0.314481971886546 0.0639954059472463 0.471722957829819 0.127990811862159 0.393102464858183 0.0639954059472463 0.550343450801456 0.127990811862159 0.471722957829819 0.0639954059472463 0.628963943773092 0.127990811862159 0.550343450801456 0.127990811862159 0.628963943773092 22 23 21 25 2 1 25 1 13 26 3 2 26 2 25 27 12 11 27 13 12 27 11 14 27 25 13 28 4 3 28 3 26 29 14 15 29 25 27 29 26 25 29 27 14 30 5 4 30 4 28 31 15 16 31 28 26 31 26 29 31 29 15 32 6 5 32 5 30 33 16 17 33 28 31 33 31 16 33 30 28 34 7 6 34 6 32 35 17 18 35 33 17 35 30 33 35 32 30 36 8 7 36 7 34 37 18 19 37 35 18 37 34 32 37 32 35 38 9 8 38 10 9 38 24 10 38 8 36 39 19 20 39 34 37 39 36 34 39 37 19 40 20 21 40 23 24 40 21 23 40 39 20 40 24 38 40 38 36 40 36 39 
4 2 1 0 0.000256215311907226
72.45500000006 75.95000000004 6.268242353542 72.45500000007 75.95000000004 4.9875 72.45500000007 75.65000000004 6.268242353539 72.45576864598 75.63384690368 4.9875 0.640371176771 -0.150000000000006 -0.640371176771 -0.150000000000006 0.640371176767999 0.150000000000006 -0.640371176771 0.166153096360006 3 2 1 3 4 2 

TShapes 16
Ve
0.202055115720391
72.45576864598 75.63384690368 4.9875
0 0

0101101
*
Ve
0.200001999999994
72.2790065793022 75.5850000000399 4.9875
0 0

0101101
*
Ed
 0.200001999999994 1 1 0
1  1 0 0.0937336325463954 4.10185734545797
2  1 1 0 0.0937336325463954 4.10185734545797
4 C0 2 0 1 0
6  1 1 0
0

0101000
+16 0 -15 0 *
Ve
1.2438737725461e-07
72.3237752739154 75.5549999133212 4.9875
0 0

0101101
*
Ed
 1e-07 1 1 0
1  1 0 4.10185734545797 4.64751158347015
2  2 1 0 4.10185734545797 4.64751158347015
4 C0 2 0 1 0
6  2 2 0
0

0101000
+15 0 -13 0 *
Ve
1.68886669516729e-07
72.3862246116228 75.5549998756539 4.9875
0 0

0101101
*
Ed
 1e-07 1 1 0
1  1 0 4.64751158347015 5.28262568125002
2  3 1 0 4.64751158347015 5.28262568125002
4 C0 2 0 1 0
6  3 3 0
0

0101000
+13 0 -11 0 *
Ve
0.200001999999994
72.43099342083 75.58500000004 4.9875
0 0

0101101
*
Ed
 1e-07 1 1 0
1  1 0 5.28262568125002 5.82828112559626
2  4 1 0 5.28262568125002 5.82828112559626
4 C0 2 0 1 0
6  4 1 0
0

0101000
+11 0 -9 0 *
Ve
1e-07
72.43099342083 75.58500000004 6.26824235353
0 0

0101101
*
Ed
 1e-07 1 1 0
1  2 0 0 1.28074235353
2  5 1 0 0 1.28074235353
4 C0 1 0 3 0
6  5 4 0
0

0101000
+7 0 -9 0 *
Ve
0.00205511607114151
72.45500000007 75.65000000004 6.268242353539
0 0

0101101
*
Ed
 1e-07 1 1 0
1  3 0 0 0.707584436777893
2  6 1 0 0 0.707584436777893
2  7 4 0 0 0.707584436777893
4 G1 1 0 4 0
6  6 5 0
0

0101000
+5 0 -7 0 *
Ed
 0.00205511607114151 1 1 0
1  4 0 0 1.2808444439069
2  8 1 0 0 1.2808444439069
4 C0 5 0 1 0
6  7 6 0
0

0101000
+5 0 -16 0 *
Wi

0101100
+14 0 +12 0 +10 0 +8 0 -6 0 -4 0 +3 0 *
Fa
0  1e-07 1 0

0111000
+2 0 *

+1 0 