DBRep_DrawableShape

CASCADE Topology V3, (c) Open Cascade
Locations 0
Curve2ds 3
7 0 0  1 2 2  6.3267469865736814 0.074325165029259455  6.3318127351696232 0.0043251650265160313 
 0 2 0.070000413606448389 2
7 0 0  1 2 2  2.8096338564597403 0.0043251650332589708  2.8052437886921036 0.074325165036003615 
 0 2 0.070000413606448389 2
7 0 0  1 2 2  2.8096338564597403 0.0043251650332589708  2.8052437886921076 0.074325165036003615 
 0 2 0.070000413606448375 2
Curves 2
1 -33.228455725659998 34.328385643520001 -1.288965032171 0.70735035939677016 0.70685484696897016 0.0034197043342988555 
1 -33.228455725659998 34.328385643520001 -1.288965032171 0.70735035939682012 0.70685484696892009 0.0034197043342960973 
Polygon3D 0
PolygonOnTriangulations 2
3 7 8 3 
p 0.0166666666666667 1 0 0.0233334712021495 0.0700004136064484 
3 1 4 5 
p 0.0166666666666667 1 0 0.0233334712021495 0.0700004136064484 
Surfaces 3
2 -33.2646909638 34.358504174609998 -1.3051387818860001 0.70710678118154768 0.70710678119154757 0 -0.70710678119154757 0.70710678118154768 0 0 -0 1 0.050000000004719998
2 -33.209076782069999 34.414118356339998 -1.291010205144 -0.70710678118654757 -0.70710678118654757 0 0.70710678118654757 -0.70710678118654757 0 0 0 1 0.049999999997419997
1 -33.2156706695 34.365098062050002 -1.2599999999980001 0.58834840544072087 -0.58834840538792088 0.55470019622571975 0.39223227022711499 -0.39223227032631497 -0.83205029433751665 0.70710678119209458 0.70710678118100057 -7.9074009194676232e-11 
Triangulations 2
12 10 1 0 0.00634153961957468
-33.24041940684 34.3403493247 -1.331010205149 -33.188399684 34.38732455123 -1.327916992569 -33.17894090794 34.37786577517 -1.288725651453 -33.179172070703 34.3780969379307 -1.29828668898226 -33.1791047331955 34.3780296004173 -1.30984925247164 -33.1810004673104 34.3799253345314 -1.31575188408246 -33.22845572566 34.32838564352 -1.288965032171 -33.2119507864192 34.3448790207359 -1.2888852385984 -33.2319743713193 34.3319042891793 -1.31918361534561 -33.2298270694108 34.3297569872708 -1.31422507612202 -33.2288137977544 34.3287437156144 -1.30294073285287 -33.2287691367826 34.3286990546426 -1.29438189616425 5.40310822317067 0.0743251650292589 5.45043204562046 0.00432516502651092 6.33181273516962 0.00432516502651603 6.19960563174368 0.00432516502651498 6.00800512274705 0.00432516502651394 5.82501883868207 0.00432516502651295 6.32674698657368 0.0743251650292595 6.328435569439 0.0509918316950116 5.81361434023868 0.0743251650292591 5.95044971259468 0.0743251650292592 6.13859834958418 0.0743251650292593 6.25311197192764 0.0743251650292594 9 1 2 9 2 6 10 6 5 10 9 6 11 5 4 11 10 5 12 11 4 8 4 3 8 12 4 7 12 8 
6 4 1 0 0.00164071494264703
-33.22845572566 34.32838564352 -1.288965032171 -33.23853967467 34.33846959253 -1.26578063004612 -33.24862362368 34.34855354154 -1.242596227922 -33.2119507864192 34.3448790207359 -1.2888852385984 -33.17894090794 34.37786577517 -1.288725651453 -33.19912614899 34.39805101622 -1.242596227923 0.0334854472116167 -0.0350000000024842 0.00628435817247985 -0.0350000000044318 -0.0209167308660292 -0.0350000000063756 0.0334235899437095 -0.0116666666682444 0.0332998754058591 0.0349999999999992 -0.0209167308671374 0.034999999996372 6 3 2 4 2 1 4 6 2 5 6 4 

TShapes 6
Ve
0.00724753243051544
-33.22845572566 34.32838564352 -1.288965032171
0 0

0101101
*
Ve
0.00556240310634627
-33.17894090794 34.37786577517 -1.288725651453
0 0

0101101
*
Ed
 0.00303627754984299 1 1 0
1  1 0 0 0.0700004136064484
2  1 2 0 0 0.0700004136064484
2  2 1 0 0 0.0700004136064484
4 C0 1 0 2 0
6  1 1 0
0

0101000
+6 0 -5 0 *
Ed
 0.0019893034280291 1 1 0
1  2 0 0 0.0700004136064484
2  3 1 0 0 0.0700004136064484
4 C0 3 0 1 0
6  2 2 0
0

0101000
+6 0 -5 0 *
Wi

0101100
-4 0 +3 0 *
Fa
0  1e-07 1 0

0111000
+2 0 *

+1 0 