DBRep_DrawableShape

CASCADE Topology V3, (c) Open Cascade
Locations 0
Curve2ds 5
1 0 0.67479999999999984 1 0 
1 5.2494873932613624 -4.0350000000000001 1 0 
1 0 -4.0350000000000001 1 0 
1 1.4113512809057775 0.67479999999999984 1 0 
1 1.8526512613398882 0.67479999999999984 -1 0 
Curves 5
2 0.94702493241800001 0.55959251011699995 2.0699999999999998 0 0 1 0.60077538799827301 -0.79941787143866416 0 0.79941787143866416 0.60077538799827301 -0 0.29999999999999999
2 0 0 2.0699999999999998 0 0 -1 0.8609317567467909 0.50872046373709467 0 0.50872046373709467 -0.8609317567467909 0 1.3999999999999999
2 0 0 2.0699999999999998 0 0 -1 0.87758256189091599 -0.47942553860320869 0 -0.47942553860320869 -0.87758256189091599 -0 1.3999999999999999
2 0.94702493241800001 -0.55959251011699995 2.0699999999999998 0 0 1 0.86093175673561462 -0.50872046375600866 0 0.50872046375600866 0.86093175673561462 -0 0.29999999999999999
2 1.36756770387 0 2.0699999999999998 0 0 -1 -0.60077538763778349 -0.7994178717095779 -0 -0.7994178717095779 0.60077538763778349 0 0.40000000000000002
Polygon3D 0
PolygonOnTriangulations 5
20 1 2 3 4 5 6 7 8 9 10 11 12 13 14 15 16 17 18 19 20 
p 0.05 1 0 0.0768433444299046 0.153686688859809 0.230530033289714 0.307373377719618 0.384216722149523 0.461060066579427 0.537903411009332 0.614746755439236 0.691590099869141 0.768433444299046 0.84527678872895 0.922120133158855 0.998963477588759 1.07580682201866 1.15265016644857 1.22949351087847 1.30633685530838 1.38318019973828 1.46002354416819 
14 28 74 75 76 77 78 79 80 81 82 83 84 85 73 
p 0.05 1 0 0.0795152241475209 0.159030448295042 0.238545672442563 0.318060896590084 0.397576120737605 0.477091344885126 0.556606569032646 0.636121793180167 0.715637017327688 0.795152241475209 0.87466746562273 0.954182689770251 1.03369791391777 
4 29 30 31 1 
p 0.05 1 0 0.0112326379763245 0.0224652759526489 0.0336979139289734 
20 19 65 66 67 68 69 70 71 72 73 74 75 76 77 78 79 80 81 82 64 
p 0.05 1 0 0.0768433444349843 0.153686688869969 0.230530033304953 0.307373377739937 0.384216722174922 0.461060066609906 0.53790341104489 0.614746755479875 0.691590099914859 0.768433444349843 0.845276788784827 0.922120133219812 0.998963477654796 1.07580682208978 1.15265016652476 1.22949351095975 1.30633685539473 1.38318019982972 1.4600235442647 
25 31 32 33 34 35 36 37 38 39 40 41 42 43 44 45 46 47 48 49 50 51 52 53 54 55 
p 0.05 1 0 0.077193802564042 0.154387605128084 0.231581407692126 0.308775210256168 0.38596901282021 0.463162815384252 0.540356617948294 0.617550420512336 0.694744223076378 0.77193802564042 0.849131828204462 0.926325630768504 1.00351943333255 1.08071323589659 1.15790703846063 1.23510084102467 1.31229464358871 1.38948844615276 1.4666822487168 1.54387605128084 1.62106985384488 1.69826365640892 1.77545745897297 1.85265126153701 
Surfaces 6
1 1.3999999999999999 0 2.0699999999999998 0 0 -1 1 0 0 0 -1 0 
2 0.94702493241800001 0.55959251011699995 1.3952 0 0 1 0.60077538779010464 -0.79941787159510613 0 0.79941787159510613 0.60077538779010464 -0 0.29999999999999999
2 0 0 -1.9650000000000001 0 0 -1 0.87758256189038031 -0.47942553860418924 0 -0.47942553860418924 -0.87758256189038031 -0 1.3999999999999999
2 0 0 -1.9650000000000001 0 0 -1 0.87758256189038031 -0.47942553860418924 0 -0.47942553860418924 -0.87758256189038031 -0 1.3999999999999999
2 0.94702493241800001 -0.55959251011699995 1.3952 0 0 1 -0.36557721494990686 -0.93078101608781738 0 0.93078101608781738 -0.36557721494990686 0 0.29999999999999999
2 1.36756770387 0 1.3952 0 0 1 -0.60077538779010464 0.79941787159510613 0 -0.79941787159510613 -0.60077538779010464 0 0.40000000000000002
Triangulations 5
103 101 1 0 0.000221406496574542
1.127257548817 0.3197671486854 2.07 1.14513653418536 0.33431092355216 2.07 1.16184626596887 0.350184309104177 2.07 1.17728812342289 0.367293620707198 2.07 1.19137096878965 0.385537879298212 2.07 1.20401168519321 0.404809407363328 2.07 1.21513566719486 0.424994464449864 2.07 1.22467726111399 0.445973918461877 2.07 1.23258015251575 0.467623948777137 2.07 1.23879769857854 0.489816777035762 2.07 1.24329320337969 0.51242142128739 2.07 1.24604013447457 0.535304469045932 2.07 1.24702227949096 0.558330864689335 2.07 1.24623384181438 0.581364706557116 2.07 1.24367947479967 0.604270049041215 2.07 1.23937425430688 0.62691170493623 2.07 1.23334358972372 0.649156043313559 2.07 1.22562307399938 0.670871778210402 2.07 1.21625827357522 0.691930743478796 2.07 1.205304459452 0.7122086492216 2.07 1.127257548763 0.3197671486446 1.216917977317 1.14632341843739 0.335361062316006 1.22515749412446 1.15764927286107 0.345963808663114 1.23020489471343 1.16838245660517 0.357105453530966 1.23511765471844 1.17741732175886 0.367447643603886 1.23937046749014 1.18595273895591 0.378170933628767 1.2435074250696 1.19397561005385 0.389254184386799 1.24752463086327 1.20147259360493 0.400672942787266 1.25141765760061 1.20842991577175 0.412396866495011 1.25518113491902 1.21483375821723 0.424395007079775 1.25880959539699 1.22067149004522 0.436637487073859 1.26229805385192 1.22593668973986 0.449100029299993 1.26564404683075 1.23062495868794 0.46176018105319 1.2688459324138 1.23473191073278 0.474595374394556 1.27190204608941 1.23825337796483 0.487580806966836 1.27481028041516 1.24118538927005 0.500689661616343 1.27756812855371 1.24352398496301 0.513895046989092 1.28017306992273 1.24526665537249 0.527169395575787 1.28262276893947 1.24641442980184 0.540483489609949 1.2849153415399 1.24696886732528 0.553807864287954 1.28704897125061 1.24693164899801 0.567114078575923 1.28902198473226 1.2463053668241 0.580381336908944 1.29083377756462 1.24509302481822 0.593592301670707 1.29248422878597 1.2432977036359 0.606729470744233 1.29397320518724 1.24092499362193 0.619769237596808 1.29530008172117 1.23798353556378 0.632680575984049 1.2964636355278 1.23448215423465 0.64543201244381 1.29746260771386 1.23042912231154 0.657995644128815 1.29829602271443 1.22583083277209 0.670355724919098 1.29896386960108 1.22069327891589 0.682499093563857 1.29946634255485 1.21502292160978 0.694411810171068 1.29980360851193 1.20883135743656 0.706071382324721 1.29997553515431 1.20213335934894 0.717450027989912 1.29998180507931 1.19494373726735 0.728519947367946 1.29982210176361 1.18727658183619 0.739257644143561 1.29949636569062 1.17914480006577 0.749646703774982 1.29900496027163 1.17056118866551 0.759671371659178 1.29834828832992 1.16153871170214 0.769315696151033 1.29752668943929 1.15209113606271 0.778562780386182 1.29654019976317 1.14223246907602 0.787395444410517 1.29538876459469 1.13197701635049 0.79579645893947 1.29407238090334 1.12134416215393 0.803747755530981 1.29259192594474 1.11035754155943 0.811230563373549 1.29094901376833 1.09904090914848 0.818226099908667 1.28914527907214 1.08741547274241 0.824717773293898 1.28718190055415 1.07549670480681 0.830693925224072 1.28505902999095 1.06329929346391 0.836143572084038 1.28277667872162 1.05083954524961 0.841055485696513 1.28033519988376 1.03814480403525 0.845416770007665 1.27773727762872 1.02524702097948 0.849213832746124 1.27498656913711 1.01217792863376 0.852433191352498 1.27208668625128 0.998962502365288 0.855064598781579 1.26903983771509 0.985618094237886 0.85710145822253 1.26584664932824 0.972161650078069 0.858537368381976 1.26250766265245 0.958614091821723 0.859366291316754 1.25902450629136 0.945008784138762 0.859583326142484 1.25540221060951 0.931381519063419 0.859183793795483 1.25164646959671 0.917767305406601 0.858163299856333 1.24776281856193 0.904193367536158 0.856520278980065 1.24375521568769 0.890682470930458 0.854254786301195 1.2396267157865 0.877257371258725 0.851366915974419 1.23538037984426 0.863943285252571 0.847857903925927 1.23102023612433 0.850769182270288 0.843730727054496 1.22655178779427 0.844035930803755 0.84136043013467 1.22420563360321 0.8373517679088 0.8388268149346 1.22183291584 0.8373517676161 0.8388268148189 2.07 1.19255680019022 0.731970298443349 2.07 1.17830041417689 0.750672732895798 2.07 1.16262290303821 0.76820103119044 2.07 1.1456206008292 0.784447486687033 2.07 1.12739798208677 0.799312269321758 2.07 1.10806701986207 0.81270403903589 2.07 1.08774649767638 0.824540507035699 2.07 1.06656127962867 0.83474894143477 2.07 1.04464154313948 0.843266614171726 2.07 1.02212197904603 0.850041186457154 2.07 0.999140963963527 0.855031030381277 2.07 0.975839709998375 0.858205484706172 2.07 0.952361397038083 0.859545043270762 2.07 0.928850292949677 0.859041474850887 2.07 0.905450867092772 0.856697873737944 2.07 0.882306902594534 0.85252864072531 2.07 0.859560612841345 0.846559394619363 2.07 0 0.6748 0.0768433444299046 0.6748 0.153686688859809 0.6748 0.230530033289714 0.6748 0.307373377719618 0.6748 0.384216722149523 0.6748 0.461060066579427 0.6748 0.537903411009332 0.6748 0.614746755439236 0.6748 0.691590099869141 0.6748 0.768433444299046 0.6748 0.84527678872895 0.6748 0.922120133158855 0.6748 0.998963477588759 0.6748 1.07580682201866 0.6748 1.15265016644857 0.6748 1.22949351087847 0.6748 1.30633685530838 0.6748 1.38318019973828 0.6748 1.46002354442917 0.6748 0 -0.178282022683 0.0821259069371213 -0.170042506404723 0.133846056084453 -0.164995105102889 0.185420247358508 -0.160082342435855 0.231200146710902 -0.155829532734443 0.276889214627996 -0.151692576281554 0.322500861826481 -0.147675365749425 0.368037874802744 -0.143782342361848 0.413484873280273 -0.140018864246334 0.45882272178431 -0.136390408247586 0.504036869365467 -0.132901946725547 0.549137705372705 -0.129555952638353 0.594142571998189 -0.126354068254984 0.639067170936299 -0.123297955179781 0.683919176436303 -0.120389719266681 0.72869879353591 -0.117631871424606 0.773405420795251 -0.115026931329649 0.818036695615576 -0.112577230828398 0.862585476497796 -0.110284658156615 0.907042171963781 -0.108151032596042 0.951400079989382 -0.106178014767352 0.99567694605578 -0.104366222036373 1.03990185162215 -0.102715773066155 1.08410310989761 -0.101226794860193 1.12828657081632 -0.0998999178360744 1.17243100061062 -0.0987363646834832 1.21651276248396 -0.0977373927423214 1.26052021996722 -0.0969039771230401 1.30448253424324 -0.096236130329296 1.34843744299166 -0.0957336564958931 1.39241886412217 -0.095396392118637 1.4364279363645 -0.0952244648419985 1.48044399552399 -0.0952181940672073 1.52444670412164 -0.0953778996231073 1.56843046175926 -0.0957036344152894 1.61241100411838 -0.0961950397422476 1.6564059805361 -0.0968517115158079 1.70043201495227 -0.0976733104363058 1.74450184868749 -0.0986598008514176 1.78862759347742 -0.0998112352197691 1.83282159559132 -0.101127616372455 1.87708235553534 -0.102608074584099 1.92139549685787 -0.104250986677504 1.96574667972906 -0.106054717249393 2.0101340380736 -0.108018099659495 2.0545810972714 -0.110140969279216 2.09911631165972 -0.112423327650039 2.14376333659575 -0.1148647999426 2.1885107709592 -0.117462721177798 2.23333189979399 -0.120213435425157 2.27820155433057 -0.123113315932986 2.32312123127245 -0.126160160846626 2.36812132555807 -0.129353351542565 2.41323455009711 -0.132692342153278 2.45848150341694 -0.136175492588947 2.50384255468209 -0.139797789301108 2.54929033686537 -0.143553524842505 2.59480239511281 -0.147437183764632 2.64038287167895 -0.151444784608683 2.68605173628138 -0.155573280464247 2.731829756587 -0.159819623725945 2.77772962874348 -0.164179764550604 2.82375195799608 -0.168648212029376 2.84754682678246 -0.170994366443873 2.87137482550645 -0.17336708416 2.87137482655561 0.6748 1.53843194899175 0.6748 1.61684035355433 0.6748 1.69524875811691 0.6748 1.77365716267949 0.6748 1.85206556724207 0.6748 1.93047397180465 0.6748 2.00888237636723 0.6748 2.08729078092981 0.6748 2.16569918549239 0.6748 2.24410759005497 0.6748 2.32251599461755 0.6748 2.40092439918013 0.6748 2.47933280374271 0.6748 2.55774120830529 0.6748 2.63614961286787 0.6748 2.71455801743045 0.6748 2.79296642199303 0.6748 2 1 21 2 21 22 2 22 23 3 2 23 3 23 24 4 3 24 4 24 25 4 25 26 5 4 26 5 26 27 5 27 28 6 28 29 6 5 28 7 29 30 7 30 31 7 6 29 8 31 32 8 32 33 8 7 31 9 33 34 9 8 33 10 34 35 10 35 36 10 9 34 11 36 37 11 37 38 11 10 36 12 38 39 12 11 38 13 39 40 13 40 41 13 12 39 14 41 42 14 42 43 14 13 41 15 43 44 15 44 45 15 14 43 16 45 46 16 15 45 17 46 47 17 47 48 17 16 46 18 48 49 18 49 50 18 17 48 19 18 50 19 50 51 19 51 52 20 19 52 20 52 53 87 20 53 87 53 54 87 54 55 88 87 55 88 55 56 88 56 57 89 88 57 89 57 58 89 58 59 90 89 59 90 59 60 90 60 61 91 90 61 91 61 62 92 91 62 92 62 63 92 63 64 93 92 64 93 64 65 93 65 66 94 93 66 94 66 67 94 67 68 95 94 68 95 68 69 96 95 69 96 69 70 96 70 71 97 96 71 97 71 72 97 72 73 98 73 74 98 74 75 98 97 73 99 75 76 99 98 75 100 76 77 100 77 78 100 99 76 101 78 79 101 79 80 101 100 78 102 80 81 102 101 80 103 81 82 103 82 83 103 102 81 86 103 83 86 83 84 86 84 85 
85 83 1 0 0.00107934926291014
-1.227485580252 0.6732600911041 2.07 -1.17128633696309 0.766869165401499 2.07 -1.10796315463694 0.855814026507492 2.07 -1.03790117435844 0.939553698446965 2.07 -0.961526523591548 1.01757886398547 2.07 -0.879303724408178 1.08941496237288 2.07 -0.791732868195353 1.15462507569304 2.07 -0.699346574024441 1.21281258626396 2.07 -0.60270674918214 1.26362358892603 2.07 -0.502401171566152 1.30674904354622 2.07 -0.399039914731917 1.3419266546465 2.07 -0.293251637333825 1.36894246672423 2.07 -0.185679759529061 1.38763216556162 2.07 -0.0769785495997853 1.39788207760938 2.07 0.0321908554046121 1.39962986136633 2.07 0.141164470802129 1.39286488654972 2.07 0.249279502732493 1.37762829875023 2.07 0.355878379368752 1.35401276917829 2.07 0.460312750367673 1.32216193102394 2.07 0.561947430233694 1.28226950585817 2.07 0.660164261612302 1.23457812538935 2.07 0.754365875015702 1.17937785574081 2.07 0.84397932211357 1.11700443322519 2.07 0.928459560490662 1.04783722234586 2.07 1.00729276867646 0.972296908445206 2.07 1.07999947128438 0.890842939033281 2.07 1.14613745525291 0.803970729359217 2.07 1.205304459452 0.7122086492216 2.07 -1.228609200599 0.6711923162666 2.07 -1.22823646320559 0.671882553120398 2.07 -1.22786192223649 0.672571812970496 2.07 -1.228615586647 0.6711957540445 2.2 1.228615586647 -0.6711957540446 2.2 1.27748958674202 -0.572730613609662 2.2 1.31848743872616 -0.470734398489565 2.2 1.35135637720899 -0.365835949267709 2.2 1.37589375425472 -0.258681999765818 2.2 1.39194828877438 -0.149933189714878 2.2 1.39942099922397 -0.0402599916915004 2.2 1.39826581385863 0.0696614225684609 2.2 1.38848985478029 0.179153350993514 2.2 1.3701533940275 0.287540739435158 2.2 1.34336948197829 0.394155343601185 2.2 1.30830325035701 0.498339849003959 2.2 1.26517089414229 0.599451923522807 2.2 1.21423833865317 0.696868177595146 2.2 1.15581960003104 0.789988007620425 2.2 1.09027484922569 0.878237298881055 2.2 1.01800819142169 0.961071965150546 2.2 0.939465174595504 1.03798130316602 2.2 0.855130042564061 1.10849114128368 2.2 0.765522749460616 1.1721667629046 2.2 0.6711957540446 1.22861558664722 2.2 0.572730613609662 1.27748958674202 2.2 0.470734398489565 1.31848743872616 2.2 0.365835949267709 1.35135637720899 2.2 0.258681999765818 1.37589375425472 2.2 0.149933189714878 1.39194828877438 2.2 0.0402599916915004 1.39942099922397 2.2 -0.0696614225684609 1.39826581385863 2.2 -0.179153350993514 1.38848985478029 2.2 -0.287540739435158 1.3701533940275 2.2 -0.394155343601185 1.34336948197829 2.2 -0.498339849003959 1.30830325035701 2.2 -0.599451923522807 1.26517089414229 2.2 -0.696868177595145 1.21423833865317 2.2 -0.789988007620425 1.15581960003104 2.2 -0.878237298881055 1.09027484922569 2.2 -0.961071965150546 1.01800819142169 2.2 -1.03798130316602 0.939465174595504 2.2 -1.10849114128368 0.855130042564061 2.2 -1.1721667629046 0.765522749460616 2.2 1.228615586647 -0.6711957540454 2.07 1.25806786723192 0.614219212853632 2.07 1.30288111613788 0.512348316295959 2.07 1.33946101599693 0.407239716413391 2.07 1.36757640597643 0.299557630209265 2.07 1.3870496153615 0.18998253742255 2.07 1.39775758631675 0.0792068803448617 2.07 1.39963265153059 -0.0320693119579662 2.07 1.39266296182797 -0.143142847367717 2.07 1.37689256104941 -0.253311814424033 2.07 1.35242110772292 -0.361880017941736 2.07 1.3194032452879 -0.468161378505073 2.07 1.2780476248506 -0.571484268036959 2.07 3.14327364018753 -4.035 3.22128155696832 -4.035 3.29928947374916 -4.035 3.37729739052999 -4.035 3.45530530731083 -4.035 3.53331322409167 -4.035 3.6113211408725 -4.035 3.68932905765334 -4.035 3.76733697443418 -4.035 3.84534489121501 -4.035 3.92335280799585 -4.035 4.00136072477669 -4.035 4.07936864155752 -4.035 4.15737655833836 -4.035 4.2353844751192 -4.035 4.31339239190003 -4.035 4.39140030868087 -4.035 4.46940822546171 -4.035 4.54741614224254 -4.035 4.62542405902338 -4.035 4.70343197580422 -4.035 4.78143989258506 -4.035 4.85944780936589 -4.035 4.93745572614673 -4.035 5.01546364292756 -4.035 5.0934715597084 -4.035 5.17147947648924 -4.035 5.24948739326136 -4.035 3.14159267055132 -4.03499999987672 3.14215300374121 -4.035 3.14271332196437 -4.035 3.14159265358979 -4.165 6.28318530717959 -4.165 6.20464549083984 -4.165 6.1261056745001 -4.165 6.04756585816035 -4.165 5.96902604182061 -4.165 5.89048622548086 -4.165 5.81194640914112 -4.165 5.73340659280137 -4.165 5.65486677646163 -4.165 5.57632696012188 -4.165 5.49778714378214 -4.165 5.41924732744239 -4.165 5.34070751110265 -4.165 5.2621676947629 -4.165 5.18362787842316 -4.165 5.10508806208341 -4.165 5.02654824574367 -4.165 4.94800842940392 -4.165 4.86946861306418 -4.165 4.79092879672443 -4.165 4.71238898038469 -4.165 4.63384916404494 -4.165 4.5553093477052 -4.165 4.47676953136546 -4.165 4.39822971502571 -4.165 4.31968989868597 -4.165 4.24115008234622 -4.165 4.16261026600648 -4.165 4.08407044966673 -4.165 4.00553063332699 -4.165 3.92699081698724 -4.165 3.8484510006475 -4.165 3.76991118430775 -4.165 3.69137136796801 -4.165 3.61283155162826 -4.165 3.53429173528852 -4.165 3.45575191894877 -4.165 3.37721210260903 -4.165 3.29867228626928 -4.165 3.22013246992954 -4.165 6.28318530717913 -4.035 5.32900261740888 -4.035 5.4085178415564 -4.035 5.48803306570393 -4.035 5.56754828985145 -4.035 5.64706351399897 -4.035 5.72657873814649 -4.035 5.80609396229401 -4.035 5.88560918644153 -4.035 5.96512441058905 -4.035 6.04463963473657 -4.035 6.12415485888409 -4.035 6.20367008303161 -4.035 30 29 32 31 30 32 1 32 72 1 31 32 2 72 71 2 1 72 3 2 71 3 71 70 4 3 70 5 4 70 5 70 69 6 5 69 6 69 68 7 6 68 7 68 67 8 7 67 8 67 66 9 8 66 9 66 65 10 9 65 10 65 64 11 10 64 11 64 63 12 11 63 12 63 62 13 12 62 13 62 61 14 13 61 14 61 60 15 14 60 15 60 59 16 15 59 16 59 58 17 58 57 17 16 58 18 57 56 18 17 57 19 56 55 19 18 56 20 55 54 20 19 55 21 54 53 21 20 54 22 53 52 22 21 53 23 52 51 23 22 52 24 51 50 24 23 51 25 50 49 25 24 50 26 49 48 26 25 49 27 48 47 27 26 48 28 27 47 28 47 46 74 28 46 74 46 45 75 74 45 75 45 44 76 75 44 76 44 43 77 76 43 77 43 42 78 77 42 78 42 41 79 78 41 79 41 40 80 79 40 80 40 39 81 80 39 81 39 38 82 81 38 82 38 37 83 37 36 83 82 37 84 36 35 84 83 36 85 35 34 85 84 35 73 34 33 73 85 34 
86 84 1 0 0.000896386959435085
1.205304459439 -0.7122086492437 2.07 1.14613745509895 -0.803970729578703 2.07 1.07999947096206 -0.890842939424047 2.07 1.00729276815907 -0.972296908981226 2.07 0.928459559754599 -1.04783722299806 2.07 0.843979321138673 -1.11700443396179 2.07 0.754365873785495 -1.17937785652769 2.07 0.660164260114243 -1.23457812619041 2.07 0.56194742845937 -1.28226950663575 2.07 0.460312748312958 -1.32216193173929 2.07 0.355878377033925 -1.35401276979196 2.07 0.249279500122306 -1.37762829922253 2.07 0.141164467925842 -1.39286488684122 2.07 0.0321908522759708 -1.39962986143828 2.07 -0.0769785529626065 -1.3978820774242 2.07 -0.185679763103565 -1.38763216508331 2.07 -0.293251641093342 -1.36894246591888 2.07 -0.399039918645798 -1.34192665348265 2.07 -0.502401175599998 -1.30674904199534 2.07 -0.602706753298081 -1.26362358696286 2.07 -0.699346578181443 -1.2128125838669 2.07 -0.791732872349568 -1.15462507284447 2.07 -0.879303728513323 -1.08941495905948 2.07 -0.961526527599313 -1.01757886019847 2.07 -1.03790117821892 -0.939553694182385 2.07 -1.10796315829911 -0.85581402176633 2.07 -1.17128634037526 -0.766869160189873 2.07 -1.227485583362 -0.6732600854331 2.07 1.228615586647 -0.6711957540454 2.07 1.22099893854773 -0.684953715272296 2.07 1.21322823599953 -0.698625255321816 2.07 1.228615586647 -0.6711957540446 2.2 -1.4 0 2.2 -1.39577668544956 -0.108662064932713 2.2 -1.38313222234937 -0.216668538322696 2.2 -1.36214289862085 -0.323367784011935 2.2 -1.33293534928729 -0.4281160527478 2.2 -1.29568579244597 -0.530281366119599 2.2 -1.2506189660903 -0.629247329478025 2.2 -1.19800677219671 -0.724416850833008 2.2 -1.13816663625663 -0.815215743292696 2.2 -1.07145959215123 -0.90109618930896 2.2 -0.998288103923332 -0.981540045828574 2.2 -0.919093637588536 -1.05606197040906 2.2 -0.834353997635391 -1.12421234943842 2.2 -0.744580444284486 -1.18558001079181 2.2 -0.650314608898838 -1.23979470455909 2.2 -0.552125226155867 -1.2865293368759 2.2 -0.450604702696768 -1.32550194338128 2.2 -0.346365542955675 -1.35647739039507 2.2 -0.240036653732673 -1.37926879355143 2.2 -0.132259549806317 -1.39373864532954 2.2 -0.0236844834783443 -1.39979964467861 2.2 0.0850334785977626 -1.39741522373186 2.2 0.193238407634674 -1.38659976843169 2.2 0.300277470130633 -1.36741853173487 2.2 0.40550486661406 -1.33998723992145 2.2 0.508285727949707 -1.30447139438266 2.2 0.607999945698739 -1.26108527310025 2.2 0.704045913423004 -1.2100906378418 2.2 0.795844156361073 -1.1517951548717 2.2 0.882840827577081 -1.08655053870633 2.2 0.964511049489047 -1.01475043011252 2.2 1.0403620806162 -0.936828021152189 2.2 1.10993628843937 -0.853253441601873 2.2 1.17281391043821 -0.764530922515656 2.2 -1.228615586647 0.6711957540445 2.2 -1.2733844923444 0.581800596989036 2.2 -1.31165930018726 0.489438331388417 2.2 -1.34324481355694 0.394579992970224 2.2 -1.36797995037978 0.297709347113793 2.2 -1.38573856462533 0.199320421708721 2.2 -1.3964300896349 0.0999149876758839 2.2 -1.228609200599 0.6711923162666 2.07 -1.27566852901765 -0.576775349745419 2.07 -1.3162814895242 -0.476867948530775 2.07 -1.34908346013734 -0.374130749316149 2.07 -1.37387978958909 -0.269173408342347 2.07 -1.39052333315374 -0.162618756467441 2.07 -1.39891532582425 -0.0550991032054025 2.07 -1.39900596839698 0.0527475154828753 2.07 -1.39079472298683 0.160281123380058 2.07 -1.37433031621909 0.266863601716588 2.07 -1.34971045007913 0.371862475852559 2.07 -1.31708122213586 0.474654668466575 2.07 -1.27663625857921 0.574630196979665 2.07 0.0336979139289734 -4.035 0.111705830881879 -4.035 0.189713747833035 -4.035 0.267721664784192 -4.035 0.345729581735348 -4.035 0.423737498686504 -4.035 0.501745415637661 -4.035 0.579753332588817 -4.035 0.657761249539973 -4.035 0.735769166491129 -4.035 0.813777083442286 -4.035 0.891785000393442 -4.035 0.969792917344598 -4.035 1.04780083429575 -4.035 1.12580875124691 -4.035 1.20381666819807 -4.035 1.28182458514922 -4.035 1.35983250210038 -4.035 1.43784041905154 -4.035 1.51584833600269 -4.035 1.59385625295385 -4.035 1.671864169905 -4.035 1.74987208685616 -4.035 1.82788000380732 -4.035 1.90588792075847 -4.035 1.98389583770963 -4.035 2.06190375466079 -4.035 2.13991166861012 -4.035 4.80920707146522e-29 -4.035 0.0112326379763245 -4.035 0.0224652759526489 -4.035 -9.53015444338234e-13 -4.165 2.64159265358981 -4.165 2.56389875201361 -4.165 2.48620485043741 -4.165 2.40851094886121 -4.165 2.33081704728501 -4.165 2.25312314570881 -4.165 2.17542924413262 -4.165 2.09773534255642 -4.165 2.02004144098022 -4.165 1.94234753940402 -4.165 1.86465363782782 -4.165 1.78695973625162 -4.165 1.70926583467542 -4.165 1.63157193309922 -4.165 1.55387803152302 -4.165 1.47618412994683 -4.165 1.39849022837063 -4.165 1.32079632679443 -4.165 1.24310242521823 -4.165 1.16540852364203 -4.165 1.08771462206583 -4.165 1.01002072048963 -4.165 0.932326818913434 -4.165 0.854632917337235 -4.165 0.776939015761036 -4.165 0.699245114184837 -4.165 0.621551212608638 -4.165 0.543857311032439 -4.165 0.46616340945624 -4.165 0.388469507880041 -4.165 0.310775606303842 -4.165 0.233081704727643 -4.165 0.155387803151444 -4.165 0.0776939015752451 -4.165 3.14159265758005 -4.165 3.07016408216027 -4.165 2.99873551073186 -4.165 2.92730693930345 -4.165 2.85587836787504 -4.165 2.78444979644663 -4.165 2.71302122501822 -4.165 3.14159268551792 -4.035 2.2169640545261 -4.035 2.29401644044209 -4.035 2.37106882635807 -4.035 2.44812121227406 -4.035 2.52517359819004 -4.035 2.60222598410602 -4.035 2.67927837002201 -4.035 2.75633075593799 -4.035 2.83338314185398 -4.035 2.91043552776996 -4.035 2.98748791368595 -4.035 3.06454029960193 -4.035 30 29 32 31 30 32 1 31 32 1 32 66 2 1 66 2 66 65 3 2 65 3 65 64 4 3 64 4 64 63 5 4 63 5 63 62 6 5 62 6 62 61 7 6 61 7 61 60 8 7 60 8 60 59 9 8 59 9 59 58 10 9 58 10 58 57 11 10 57 11 57 56 12 11 56 12 56 55 13 12 55 13 55 54 14 13 54 14 54 53 15 53 52 15 14 53 16 15 52 16 52 51 17 51 50 17 16 51 18 50 49 18 17 50 19 49 48 19 18 49 20 48 47 20 19 48 21 47 46 21 20 47 22 46 45 22 21 46 23 45 44 23 22 45 24 44 43 24 23 44 25 43 42 25 24 43 26 42 41 26 25 42 27 26 41 27 41 40 28 27 40 28 40 39 75 28 39 75 39 38 76 75 38 76 38 37 77 76 37 77 37 36 78 77 36 78 36 35 79 78 35 79 35 34 80 79 34 80 34 33 81 80 33 81 33 73 82 81 73 82 73 72 83 82 72 83 72 71 84 83 71 84 71 70 85 84 70 85 70 69 86 85 69 86 69 68 74 86 68 74 68 67 
82 80 1 0 0.000230515887529213
0.8373517676165 -0.838826814819 2.07 0.859560612840368 -0.846559394619065 2.07 0.882306902592132 -0.852528640724779 2.07 0.905450867088912 -0.856697873737404 2.07 0.928850292944351 -0.859041474850563 2.07 0.952361397031311 -0.859545043270882 2.07 0.975839709990201 -0.858205484706961 2.07 0.999140963954024 -0.855031030382953 2.07 1.0221219790353 -0.850041186459929 2.07 1.04464154312763 -0.843266614175801 2.07 1.06656127961586 -0.834748941440334 2.07 1.08774649766278 -0.824540507042923 2.07 1.10806701984786 -0.812704039044929 2.07 1.12739798207217 -0.799312269332746 2.07 1.14562060081442 -0.784447486700084 2.07 1.1626229030235 -0.768201031205642 2.07 1.1783004141625 -0.750672732913213 2.07 1.19255680017642 -0.731970298463015 2.07 1.205304459439 -0.7122086492437 2.07 0.8373517679332 -0.8388268149441 1.221832915849 0.860585844061591 -0.846870304939409 1.22989642575724 0.884205017931183 -0.852944693441864 1.23759631465493 0.908057393946656 -0.857055841890365 1.24491037386398 0.931991020311975 -0.859209962677408 1.2518164370492 0.955850302643072 -0.859436014869824 1.25829508228619 0.979473839229205 -0.857799222236184 1.26433126302587 1.00269970946297 -0.85436804887122 1.26991032366801 1.02537263275034 -0.849208122701492 1.27501868669467 1.04742073144873 -0.842349447508901 1.27965631601344 1.06882904124915 -0.833797717518026 1.2838324160642 1.08958369618578 -0.823558157814948 1.28755636961543 1.10964554834355 -0.811649050043117 1.29083248462827 1.12886426175511 -0.798146097572772 1.29364275045473 1.1452907119039 -0.784706314925925 1.29575373332197 1.1592563315458 -0.771625172157358 1.29729972532075 1.17235550118218 -0.757663700489276 1.2984991923902 1.18453377795332 -0.742884120494336 1.29934950841044 1.19574501270076 -0.727351358540726 1.29985007739066 1.20594305626604 -0.711130340996634 1.30000030334006 1.21508204482096 -0.69428646135318 1.29979967184675 1.22312402565632 -0.676898064637463 1.29924993037052 1.23003978789714 -0.659057807401966 1.29835532575303 1.23580057266119 -0.640859086170382 1.29712023406537 1.24037762106626 -0.622395297466404 1.29554903137867 1.24374870284023 -0.603758898801669 1.29364731349356 1.24592461527012 -0.585037597323549 1.29142684669554 1.24692657530284 -0.566317601516446 1.28890134395811 1.24677580383993 -0.547685119295966 1.28608451899361 1.24549336580734 -0.529225672856297 1.28298992639603 1.24309357435079 -0.510995101280365 1.27962423293643 1.23958155149382 -0.493008836367105 1.27598472907035 1.23496176082072 -0.475279415193617 1.2720680335471 1.22923866591577 -0.457819374836996 1.26787076511596 1.22241830123982 -0.44064814240416 1.26339085714346 1.21451684878884 -0.423829653158984 1.25863473514948 1.20555452356116 -0.407445531538074 1.2536121997469 1.19555155082095 -0.391577447005056 1.24833306013974 1.18452824194627 -0.37630696397384 1.24280713625515 1.17251142579944 -0.361707696225417 1.23704505959442 1.15953889758958 -0.347839879771953 1.23105882721699 1.14564950464881 -0.334762467148226 1.22486056719538 1.13661687397043 -0.327095372542554 1.22092607330268 1.127257548749 -0.3197671486329 1.216917977304 1.127257548815 -0.3197671486836 2.07 1.21625827356447 -0.691930743500662 2.07 1.2256230739909 -0.670871778231613 2.07 1.23334358971735 -0.649156043333904 2.07 1.23937425430244 -0.626911704955519 2.07 1.24367947479694 -0.60427004905928 2.07 1.24623384181317 -0.581364706573817 2.07 1.24702227949103 -0.558330864704557 2.07 1.24604013447568 -0.535304469059585 2.07 1.2432932033816 -0.512421421299412 2.07 1.23879769858102 -0.48981677704612 2.07 1.23258015251855 -0.467623948785824 2.07 1.22467726111687 -0.445973918468912 2.07 1.21513566719759 -0.424994464455296 2.07 1.20401168519556 -0.404809407367229 2.07 1.19137096879141 -0.38553787930068 2.07 1.17728812342386 -0.367293620708353 2.07 1.16184626596885 -0.350184309104164 2.07 1.1451365341842 -0.334310923551142 2.07 0 0.6748 0.0784084034242255 0.6748 0.156816807982013 0.6748 0.2352252125398 0.6748 0.313633617097587 0.6748 0.392042021655374 0.6748 0.470450426213162 0.6748 0.548858830770949 0.6748 0.627267235328736 0.6748 0.705675639886523 0.6748 0.78408404444431 0.6748 0.862492449002098 0.6748 0.940900853559885 0.6748 1.01930925811767 0.6748 1.09771766267546 0.6748 1.17612606723325 0.6748 1.25453447179103 0.6748 1.33294287634882 0.6748 1.41135128090578 0.6748 0 -0.173367084151 0.0819796558288061 -0.165303573755471 0.163294030110029 -0.157603689199906 0.243995079491831 -0.150289607737066 0.324117968439859 -0.143383585657197 0.403677631174647 -0.136904917146662 0.482640076363335 -0.130868728265336 0.560924300696091 -0.125289739725579 0.638452993903358 -0.120181272675142 0.715428525064466 -0.115543693821214 0.792279686954163 -0.111367580409798 0.869438204539782 -0.107643561950155 0.94722820541459 -0.104367544916031 1.02555294697282 -0.101557253826675 1.09632242900467 -0.0994462240037168 1.16011852890455 -0.0979004084094232 1.22394448312431 -0.096700760788192 1.28778810585342 -0.0958505047878465 1.35165100327473 -0.0953499189699221 1.4155285554232 -0.0951996974849145 1.47941781983226 -0.0954003285810474 1.5432907233204 -0.095950067202862 1.60708401359973 -0.0968446829767271 1.67072648111218 -0.0980797356731657 1.7341460256452 -0.0996510594955317 1.79728750738235 -0.101552655362533 1.86012466845668 -0.103773157353816 1.92262885680142 -0.106298667974343 1.98475195825352 -0.109115436873799 2.04644316435223 -0.11221011959106 2.10774063182543 -0.115575755480456 2.1688298630043 -0.119215275880529 2.22990395121678 -0.123131959277477 2.29115760971759 -0.127329249393333 2.35275565174348 -0.131809140602678 2.41471061370847 -0.136565264257836 2.47697654944898 -0.141587801286486 2.5395161282111 -0.146866936360342 2.60230537708908 -0.152392871393093 2.66534455202573 -0.158154937650415 2.7286528938308 -0.164141173705093 2.79225341112124 -0.170339432517855 2.83174930158906 -0.174273926859527 2.87137482544658 -0.178282022696 2.87137482517048 0.6748 1.48819462534076 0.6748 1.56503796977575 0.6748 1.64188131421073 0.6748 1.71872465864571 0.6748 1.7955680030807 0.6748 1.87241134751568 0.6748 1.94925469195067 0.6748 2.02609803638565 0.6748 2.10294138082064 0.6748 2.17978472525562 0.6748 2.2566280696906 0.6748 2.33347141412559 0.6748 2.41031475856057 0.6748 2.48715810299556 0.6748 2.56400144743054 0.6748 2.64084479186553 0.6748 2.71768813630051 0.6748 2.7945314807355 0.6748 2 1 20 2 20 21 3 21 22 3 2 21 4 22 23 4 3 22 5 4 23 5 23 24 6 5 24 6 24 25 7 6 25 7 25 26 8 7 26 8 26 27 9 8 27 9 27 28 10 9 28 10 28 29 11 10 29 11 29 30 12 30 31 12 11 30 13 31 32 13 12 31 14 32 33 14 13 32 15 33 34 15 34 35 15 14 33 16 35 36 16 15 35 17 36 37 17 16 36 18 37 38 18 17 37 19 38 39 19 39 40 19 18 38 65 40 41 65 19 40 66 41 42 66 65 41 67 42 43 67 66 42 68 43 44 68 67 43 69 44 45 69 45 46 69 68 44 70 46 47 70 69 46 71 47 48 71 70 47 72 48 49 72 71 48 73 49 50 73 50 51 73 72 49 74 73 51 74 51 52 75 74 52 75 52 53 76 75 53 76 53 54 77 76 54 77 54 55 77 55 56 78 77 56 78 56 57 79 78 57 79 57 58 80 79 58 80 58 59 81 80 59 81 59 60 82 81 60 82 60 61 82 61 62 64 82 62 64 62 63 
55 53 1 0 0.000297907170710047
1.127257548763 0.3197671486446 1.216917977317 1.1033221710776 0.30028718819798 1.20662583703758 1.08198070945698 0.280075020964978 1.19723015768766 1.0631056252784 0.259432187001209 1.18873528955358 1.04639708139004 0.238429581692043 1.18106094205063 1.03162242908412 0.21711873427332 1.17414736248089 1.01861591999046 0.195537446656744 1.16795659998092 1.00721995362359 0.173634617692305 1.1624472731607 0.997313986124802 0.15136468059903 1.15759137325839 0.988857080408097 0.128762159231012 1.15339447036023 0.981818231914656 0.105821180672452 1.14986380558969 0.976170408727784 0.0825000900457122 1.14700565554675 0.971925893122633 0.0588884260901378 1.14484245277239 0.969109012793849 0.0351038645458707 1.1433996276061 0.967725013834145 0.0111616187598554 1.1426884807069 0.967775887938223 -0.0128660440050895 1.14271463463591 0.9692635854942 -0.0368106146706843 1.14347895926705 0.972182973882176 -0.0605884073214926 1.14497383879938 0.976523061471558 -0.0841611207845667 1.14718480565893 0.982266783640054 -0.10744187854327 1.15008982977016 0.989408296006178 -0.130369251435026 1.15366947792216 0.997965463759811 -0.152950223531441 1.15791271864431 1.00796835907132 -0.175180096541752 1.16281158045253 1.01946735784149 -0.197048347832817 1.16836496819302 1.03258498153107 -0.218600756066928 1.17460156299268 1.04747372497672 -0.239872973840525 1.18155994123842 1.0642985688305 -0.260826750965336 1.18927762609688 1.08330770446746 -0.2814211912972 1.19782067036146 1.104060703119 -0.30093527282786 1.20694719135378 1.127257548749 -0.3197671486329 1.216917977304 1.127257548815 -0.3197671486836 2.07 1.10331364885327 -0.300282857331577 2.07 1.08094362614975 -0.279010103886966 2.07 1.06028071487548 -0.256075587268058 2.07 1.04144798177446 -0.231615903729278 2.07 1.02455759318729 -0.205776733304407 2.07 1.00971014699683 -0.178711972147271 2.07 0.99699407347486 -0.150582815937829 2.07 0.986485108597978 -0.121556799812846 2.07 0.978245842969856 -0.0918068005392231 2.07 0.972325349036305 -0.0615100068729929 2.07 0.968758888813488 -0.0308468642364269 2.07 0.96756770387 1.31595426086609e-12 2.07 0.968758888813691 0.030846864239051 2.07 0.97232534903671 0.0615100068755935 2.07 0.97824584297046 0.0918068005417847 2.07 0.986485108598778 0.121556799815354 2.07 0.996994073475851 0.150582815940268 2.07 1.00971014699801 0.178711972149625 2.07 1.02455759318864 0.205776733306664 2.07 1.04144798177599 0.231615903731424 2.07 1.06028071487716 0.25607558727008 2.07 1.08094362615158 0.279010103888852 2.07 1.10331364885525 0.300282857333316 2.07 1.127257548817 0.3197671486854 2.07 0 -0.178282022683 0.0771706530620967 -0.188574162660655 0.150671472837189 -0.197969845429044 0.22061356744323 -0.206464708530287 0.287721329943419 -0.214139059054545 0.352561472705371 -0.221052636265706 0.415565865251173 -0.227243400693551 0.477300731761412 -0.232752719622274 0.538244668497683 -0.237608627020568 0.598585823223872 -0.241805529513239 0.658585948289196 -0.245336193429996 0.718583157354026 -0.24819434472988 0.778567538633268 -0.250357542284443 0.838453389648747 -0.251800372208322 0.89841780477309 -0.252511519985137 0.958496435040488 -0.252485367046683 1.01848220270691 -0.251721040411325 1.07838194654555 -0.250226158711008 1.13831326343522 -0.248015194444813 1.19826935307362 -0.245110169961376 1.25831290961408 -0.241530522147935 1.31869202860404 -0.237287281398328 1.37964338265766 -0.232388416664166 1.44142110797137 -0.226835031901863 1.5045076726242 -0.2205984369901 1.56943171975933 -0.213640058370627 1.6366256229389 -0.205922374956982 1.70670550070398 -0.197379323238361 1.77793704297457 -0.188252809033904 1.8526512611327 -0.178282022696 1.85265126133989 0.6748 1.77545745877585 0.6748 1.6982636562118 0.6748 1.62106985364776 0.6748 1.54387605108372 0.6748 1.46668224851968 0.6748 1.38948844595564 0.6748 1.31229464339159 0.6748 1.23510084082755 0.6748 1.15790703826351 0.6748 1.08071323569947 0.6748 1.00351943313543 0.6748 0.926325630571384 0.6748 0.849131828007342 0.6748 0.7719380254433 0.6748 0.694744222879258 0.6748 0.617550420315216 0.6748 0.540356617751174 0.6748 0.463162815187133 0.6748 0.385969012623091 0.6748 0.308775210059049 0.6748 0.231581407495007 0.6748 0.154387604930965 0.6748 0.0771938023669227 0.6748 0 0.6748 54 1 2 54 2 3 54 55 1 53 3 4 53 54 3 52 4 5 52 53 4 51 5 6 51 52 5 50 6 7 50 51 6 49 7 8 49 50 7 48 8 9 48 9 10 48 49 8 47 10 11 47 48 10 46 11 12 46 47 11 45 46 12 45 12 13 45 13 14 44 45 14 44 14 15 43 44 15 43 15 16 42 43 16 42 16 17 41 17 18 41 18 19 41 42 17 40 19 20 40 41 19 39 20 21 39 40 20 38 21 22 38 22 23 38 39 21 37 23 24 37 38 23 36 24 25 36 37 24 35 25 26 35 36 25 34 26 27 34 35 26 33 27 28 33 34 27 32 28 29 32 29 30 32 33 28 31 32 30 

TShapes 12
Ve
1e-07
1.127257548817 0.3197671486854 2.07
0 0

0101101
*
Ve
1e-07
1.205304459452 0.7122086492216 2.07
0 0

0101101
*
Ed
 1e-07 1 1 0
1  1 0 0 1.46002354416819
2  1 2 0 0 1.46002354416819
4 C0 2 0 1 0
6  1 1 0
0

0101000
+12 0 -11 0 *
Ve
1e-07
1.228615586647 -0.6711957540454 2.07
0 0

0101101
*
Ed
 1e-07 1 1 0
1  2 0 0 1.03369791391777
2  2 3 0 0 1.03369791391777
4 C0 3 0 1 0
6  2 2 0
0

0101000
+11 0 -9 0 *
Ve
1e-07
1.205304459439 -0.7122086492437 2.07
0 0

0101101
*
Ed
 1e-07 1 1 0
1  3 0 0 0.0336979139289734
2  3 4 0 0 0.0336979139289734
4 C0 1 0 4 0
6  3 3 0
0

0101000
+9 0 -7 0 *
Ve
1e-07
1.127257548815 -0.3197671486836 2.07
0 0

0101101
*
Ed
 1e-07 1 1 0
1  4 0 0 1.4600235442647
2  4 5 0 0 1.4600235442647
4 C0 1 0 5 0
6  4 4 0
0

0101000
+7 0 -5 0 *
Ed
 1e-07 1 1 0
1  5 0 0 1.85265126153701
2  5 6 0 0 1.85265126153701
4 C0 1 0 6 0
6  5 5 0
0

0101000
+5 0 -12 0 *
Wi

0101100
+10 0 +8 0 +6 0 +4 0 +3 0 *
Fa
0  1e-07 1 0

0111000
+2 0 *

-1 0 