DBRep_DrawableShape

CASCADE Topology V3, (c) Open Cascade
Locations 0
Curve2ds 3
7 0 0  1 2 2  0.31889538374056131 0.0043251650314850565  0.33195879706631043 0.07432516503225628 
 0 2 0.070003533098384099 2
7 0 0  1 2 2  6.3151499829444226 0.0043251650314850565  6.3267469865240598 0.07432516503225628 
 0 2 0.070003533098384099 2
7 0 0  1 2 2  0.31889538374056131 0.0043251650314850565  0.33195879707638948 0.074325165032249174 
 0 2 1 2
Curves 2
1 31.385014373770002 -0.98494429162880004 -1.2894951586059999 -0.71173960004671089 -0.70240258657811061 0.007572852416889115 
7 0 0  3 4 2  31.385014373770002 -0.98494429162880004 -1.2894951586059999  31.36851521554 -1.001443449857 -1.2894951586059999  31.351689245349998 -1.017615796117 -1.288965032181  31.335190087120001 -1.034114954346 -1.288965032181 
 0 4 1 4
Polygon3D 0
PolygonOnTriangulations 2
3 3 8 9 
p 0.0166666666666667 1 0 0.0233345110327947 0.0700035330983841 
3 3 4 5 
p 0.0166666666666667 1 0 0.5 1 
Surfaces 3
2 31.35456903071 -0.94838224152210004 -1.3051387818939999 -0.70710678118304759 -0.70710678119004766 0 0.70710678119004766 -0.70710678118304759 0 0 0 1 0.050000000003349997
2 31.35456903071 -0.94838224152210004 -1.291010205152 -0.70710678118304759 -0.70710678119004766 0 0.70710678119004766 -0.70710678118304759 0 0 0 1 0.050000000003349997
1 31.347975143279999 -0.99740253582670002 -1.260000000007 -0.58834840540639255 0.58834840540219258 -0.55470019624699296 -0.39223227031955743 0.39223227026395741 0.83205029432333455 0.70710678116937964 0.70710678120371562 3.1064820669297545e-11 
Triangulations 2
13 11 1 0 0.00613058867559184
31.37524612878 -0.9751760466386 -1.327916992579 31.32322640595 -1.022151273169 -1.331010205155 31.38501437377 -0.9849442916288 -1.289495158606 31.3846969348604 -0.98462685271935 -1.29524109107622 31.3846552319647 -0.984585149825644 -1.30829125812466 31.3835163826834 -0.983446300544775 -1.31384120370162 31.3787831555604 -0.978713073420319 -1.32225815075186 31.3684062782202 -1.00133451253477 -1.28931844979773 31.33519008712 -1.034114954346 -1.288965032181 31.3316714414615 -1.03059630869044 -1.31918361534492 31.3338187433704 -1.03274361059799 -1.31422507612256 31.3348320150312 -1.03375688225549 -1.30294073285756 31.3348766760025 -1.03380154322664 -1.29438189616346 5.45043204566129 0.00432516503127545 5.40310822341521 0.0743251650314676 6.31514998294442 0.00432516503148506 6.23547026922125 0.00432516503146574 6.03022644110225 0.00432516503141599 5.88279101430286 0.00432516503138025 5.61893796708428 0.00432516503131629 6.3190156508043 0.0276584983650755 6.32674698652892 0.0743251650322492 5.81361434035464 0.074325165031815 5.95044971266778 0.0743251650319307 6.13859834959835 0.07432516503209 6.25311197202086 0.0743251650321869 7 2 1 10 7 6 10 2 7 11 6 5 11 10 6 12 5 4 12 11 5 8 4 3 13 12 4 13 4 8 9 13 8 
6 4 1 0 0.00164265338984764
31.36451966379 -0.9644495816497 -1.242596227932 31.31502218911 -1.013947056331 -1.242596227932 31.38501437377 -0.9849442916288 -1.289495158606 31.360102230445 -1.0095296229871 -1.2892300953935 31.33519008712 -1.034114954346 -1.288965032181 31.325106138115 -1.02403100533812 -1.26578063005612 0.0209167308650962 0.0350000000033262 0.0209167308673454 -0.0349999999929847 -0.0341829114541494 0.0350000000020874 -0.0338341793291402 1.92841465018744e-12 -0.0334854472043677 -0.0349999999986524 -0.00628435816805233 -0.034999999995553 4 5 6 1 3 4 1 6 2 1 4 6 

TShapes 6
Ve
0.00724753242536387
31.33519008712 -1.034114954346 -1.288965032181
0 0

0101101
*
Ve
0.00501962046097445
31.38501437377 -0.9849442916288 -1.289495158606
0 0

0101101
*
Ed
 0.00303627755248032 1 1 0
1  1 0 0 0.0700035330983841
2  1 1 0 0 0.0700035330983841
2  2 2 0 0 0.0700035330983841
4 C0 1 0 2 0
6  1 1 0
0

0101000
-6 0 +5 0 *
Ed
 0.00198930343453181 1 1 0
1  2 0 0 1
2  3 1 0 0 1
4 C0 3 0 1 0
6  2 2 0
0

0101000
+5 0 -6 0 *
Wi

0101100
-4 0 +3 0 *
Fa
0  1e-07 1 0

0111000
+2 0 *

-1 0 