DBRep_DrawableShape

CASCADE Topology V3, (c) Open Cascade
Locations 0
Curve2ds 3
7 0 0  1 2 2  6.3151499829480811 0.0043251650357079008  6.326746986512938 0.07432516503563491 
 0 2 0.070003533097521983 2
7 0 0  1 2 2  0.31889538377466281 0.0043251650357079008  0.33195879707714071 0.07432516503563491 
 0 2 0.070003533097521983 2
7 0 0  1 2 2  0.31889538377466281 0.0043251650357079008  0.33195879709674303 0.074325165035626028 
 0 2 1 2
Curves 2
1 2.364985626233 3.2349442916290001 -1.2894951586059999 0.71173960003220915 0.702402586592909 0.0075728524072600969 
7 0 0  3 4 2  2.364985626233 3.2349442916290001 -1.2894951586059999  2.38148478446 3.2514434498560001 -1.2894951586050001  2.398310754653 3.2676157961190002 -1.288965032181  2.4148099128810001 3.2841149543469998 -1.288965032181 
 0 4 1 4
Polygon3D 0
PolygonOnTriangulations 2
3 3 8 9 
p 0.0166666666666667 1 0 0.0233345110325073 0.070003533097522 
3 3 4 5 
p 0.0166666666666667 1 0 0.5 1 
Surfaces 3
2 2.3954309692860001 3.1983822415229999 -1.3051387818939999 0.70710678118654757 0.70710678118654757 0 -0.70710678118654757 0.70710678118654757 0 0 -0 1 0.049999999999540003
2 2.3954309692860001 3.1983822415229999 -1.291010205152 0.70710678118654757 0.70710678118654757 0 -0.70710678118654757 0.70710678118654757 0 0 -0 1 0.049999999999540003
1 2.402024856718 3.2474025358260001 -1.260000000007 0.58834840541432087 -0.58834840541432087 -0.55470019622571975 0.39223227027671498 -0.39223227027671498 0.83205029433751665 -0.70710678118654757 -0.70710678118654757 8.1524687095804742e-18 
Triangulations 2
13 11 1 0 0.0061305886772139
2.374753871224 3.225176046637 -1.327916992577 2.42677359406 3.272151273167 -1.331010205152 2.364985626233 3.234944291629 -1.289495158606 2.36530306514259 3.23462685271879 -1.29524109107771 2.3653447680376 3.2345851498234 -1.30829125812574 2.36648361731863 3.23344630054237 -1.31384120370203 2.37121684440266 3.22871307345834 -1.32225815068407 2.38159372178222 3.25133451253511 -1.28931844979796 2.414809912881 3.284114954347 -1.288965032181 2.41832855854026 3.2805963086873 -1.31918361534778 2.41618125663166 3.28274361059575 -1.31422507612502 2.4151679849724 3.28375688225525 -1.30294073285896 2.41512332400056 3.28380154322737 -1.29438189616571 5.45043204557848 0.00432516503500091 5.40310822333641 0.0743251650349182 6.31514998294808 0.0043251650357079 6.23547026918914 0.00432516503564275 6.03022644105355 0.00432516503547495 5.88279101426328 0.00432516503535441 5.61893796883893 0.00432516503513868 6.31901565080303 0.0276584983690169 6.32674698653179 0.074325165035626 5.81361434031213 0.0743251650352328 5.95044971263738 0.0743251650353376 6.13859834958459 0.0743251650354818 6.25311197199581 0.0743251650355696 7 2 1 10 7 6 10 2 7 11 6 5 11 10 6 12 5 4 12 11 5 8 4 3 13 12 4 13 4 8 9 13 8 
6 4 1 0 0.00164265339030642
2.385480336212 3.214449581649 -1.242596227932 2.434977810895 3.263947056332 -1.242596227932 2.364985626233 3.234944291629 -1.289495158606 2.38989776955663 3.25952962298763 -1.28923009539313 2.414809912881 3.284114954347 -1.288965032181 2.42489386188763 3.27403100533988 -1.2657806300565 0.020916730868048 0.0349999999999589 0.0209167308680482 -0.0349999999999585 -0.0341829114512127 0.0349999999992517 -0.0338341793279365 -1.76752779079692e-13 -0.0334854472052842 -0.0350000000006657 -0.00628435816891239 -0.0350000000003121 4 5 6 1 3 4 1 6 2 1 4 6 

TShapes 6
Ve
0.00724753242817363
2.414809912881 3.284114954347 -1.288965032181
0 0

0101101
*
Ve
0.00501962046144566
2.364985626233 3.234944291629 -1.289495158606
0 0

0101101
*
Ed
 0.00303627755231902 1 1 0
1  1 0 0 0.070003533097522
2  1 2 0 0 0.070003533097522
2  2 1 0 0 0.070003533097522
4 C0 1 0 2 0
6  1 1 0
0

0101000
-6 0 +5 0 *
Ed
 0.0019893034343379 1 1 0
1  2 0 0 1
2  3 1 0 0 1
4 C0 3 0 1 0
6  2 2 0
0

0101000
+5 0 -6 0 *
Wi

0101100
-4 0 +3 0 *
Fa
0  1e-07 1 0

0111000
+2 0 *

-1 0 