DBRep_DrawableShape

CASCADE Topology V3, (c) Open Cascade
Locations 0
Curve2ds 3
7 0 0  1 2 2  2.8096338564967667 0.0043251650348494763  2.8052437886788004 0.074325165034835328 
 0 2 0.070000413603697922 2
7 0 0  1 2 2  6.3267469865313055 0.074325165035110441  6.3318127351676363 0.0043251650351245896 
 0 2 0.070000413603697922 2
7 0 0  1 2 2  2.8096338564967667 0.0043251650348494763  2.8052437886788004 0.074325165034835328 
 0 2 0.070000413603697922 2
Curves 2
1 -0.52154427433929995 -2.0783856435220001 -1.288965032181 -0.70735035937731428 -0.70685484698831436 0.0034197043601840692 
1 -0.52154427433929995 -2.0783856435220001 -1.288965032181 -0.70735035937731428 -0.70685484698831436 0.0034197043601840692 
Polygon3D 0
PolygonOnTriangulations 2
3 4 5 3 
p 0.0166666666666667 1 0 0.0233334712012326 0.0700004136036979 
3 7 8 3 
p 0.0166666666666667 1 0 0.0233334712012326 0.0700004136036979 
Surfaces 3
2 -0.48530903619850002 -2.1085041746109998 -1.3051387818939999 -0.70710678118639758 -0.70710678118669756 0 0.70710678118669756 -0.70710678118639758 0 0 0 1 0.050000000000530002
1 -0.53432933050120002 -2.1150980620430002 -1.2600000000080001 0.5883484054148862 -0.58834840541378619 -0.55470019622568711 -0.39223227027669194 0.39223227027669194 -0.83205029433753841 0.70710678118608994 0.70710678118700521 4.3147052544327362e-13 
2 -0.54092321793359999 -2.164118356346 -1.291010205152 0.70710678118684767 0.70710678118624759 0 -0.70710678118624759 0.70710678118684767 0 0 -0 1 0.04999999999976
Triangulations 2
6 4 1 0 0.00164071494718628
-0.5013763763247 -2.098553541537 -1.242596227932 -0.5508738510079 -2.14805101622 -1.242596227932 -0.5710590920584 -2.127865775169 -1.288725651462 -0.5215442743393 -2.078385643522 -1.288965032181 -0.538049213579012 -2.09487902073765 -1.28888523860779 -0.511460325332 -2.0884695925295 -1.2657806300565 -0.0209167308686839 0.0349999999996055 -0.0209167308686098 -0.0350000000003123 0.0332998754035055 -0.0350000000000993 0.0334854472048837 0.0349999999998867 0.0334235899377576 0.011666666666558 0.00628435816810002 0.0349999999997461 6 1 2 5 2 3 5 6 2 4 6 5 
12 10 1 0 0.00634153961777579
-0.5095805931599 -2.090349324701 -1.331010205152 -0.5616003159955 -2.137324551232 -1.327916992577 -0.5710590920584 -2.127865775169 -1.288725651462 -0.570827929295759 -2.1280969379321 -1.29828668899043 -0.570895266805121 -2.12802960042252 -1.30984925248073 -0.5689995326914 -2.12992533453605 -1.31575188409046 -0.5215442743393 -2.078385643522 -1.288965032181 -0.538049213579012 -2.09487902073765 -1.28888523860779 -0.51802562867945 -2.08190428918262 -1.31918361534778 -0.520172930587877 -2.07975698727413 -1.31422507612502 -0.521186202247472 -2.07874371561414 -1.30294073285896 -0.521230863219659 -2.0786990546417 -1.29438189616548 5.40310822333143 0.0743251650352581 5.45043204557746 0.00432516503505709 6.33181273516764 0.00432516503512459 6.19960563171804 0.00432516503511239 6.00800512269192 0.00432516503509825 5.82501883864775 0.00432516503508474 6.32674698653131 0.0743251650351104 6.32843556941008 0.0509918317017818 5.81361434030915 0.0743251650351925 5.95044971263506 0.0743251650351706 6.13859834958318 0.0743251650351405 6.25311197199798 0.0743251650351222 9 1 2 9 2 6 10 6 5 10 9 6 11 5 4 11 10 5 12 11 4 8 4 3 8 12 4 7 12 8 

TShapes 6
Ve
0.00724753242825419
-0.5215442743393 -2.078385643522 -1.288965032181
0 0

0101101
*
Ve
0.0055624031055341
-0.5710590920584 -2.127865775169 -1.288725651462
0 0

0101101
*
Ed
 0.00198930343316155 1 1 0
1  1 0 0 0.0700004136036979
2  1 1 0 0 0.0700004136036979
4 C0 1 0 2 0
6  1 1 0
0

0101000
+6 0 -5 0 *
Ed
 0.00303627755244883 1 1 0
1  2 0 0 0.0700004136036979
2  2 3 0 0 0.0700004136036979
2  3 1 0 0 0.0700004136036979
4 C0 3 0 1 0
6  2 2 0
0

0101000
+6 0 -5 0 *
Wi

0101100
-4 0 +3 0 *
Fa
0  1e-07 1 0

0111000
+2 0 *

-1 0 