DBRep_DrawableShape

CASCADE Topology V3, (c) Open Cascade
Locations 0
Curve2ds 3
7 0 0  1 2 2  2.8096338564741492 0.0043251650340643266  2.8052437886886179 0.074325165034682783 
 0 2 0.070000413604331055 2
7 0 0  1 2 2  2.8096338564741492 0.0043251650340643266  2.8052437886886179 0.074325165034682783 
 0 2 0.070000413604331055 2
7 0 0  1 2 2  6.3267469865502504 0.074325165031247309  6.3318127351643918 0.0043251650306288525 
 0 2 0.070000413604331055 2
Curves 2
1 -32.478455725659998 2.078385643521 -1.2889650321799999 0.70735035939589064 0.70685484696979073 0.0034197043465929544 
1 -32.478455725659998 2.078385643521 -1.2889650321799999 0.70735035939589064 0.70685484696979073 0.0034197043465929544 
Polygon3D 0
PolygonOnTriangulations 2
3 4 5 3 
p 0.0166666666666667 1 0 0.0233334712014437 0.0700004136043311 
3 7 8 3 
p 0.0166666666666667 1 0 0.0233334712014437 0.0700004136043311 
Surfaces 3
2 -32.5146909638 2.1085041746100002 -1.3051387818939999 0.70710678118304759 0.70710678119004766 0 -0.70710678119004766 0.70710678118304759 0 0 -0 1 0.050000000003240001
1 -32.4656706695 2.1150980620430002 -1.2600000000060001 -0.58834840540551736 0.58834840540021727 -0.55470019625001632 0.39223227031864527 -0.39223227026914531 -0.83205029432131894 -0.70710678117061376 -0.70710678120248138 -2.7044350992617538e-11 
2 -32.459076782069999 2.1641183563439998 -1.291010205152 -0.70710678118854764 -0.70710678118454762 0 0.70710678118454762 -0.70710678118854764 0 0 0 1 0.049999999997869998
Triangulations 2
6 4 1 0 0.00164071494670734
-32.49862362368 2.098553541537 -1.242596227932 -32.44912614899 2.148051016219 -1.242596227931 -32.42894090794 2.127865775168 -1.288725651461 -32.47845572566 2.078385643521 -1.28896503218 -32.4619507864197 2.09487902073637 -1.28888523860711 -32.4885396746662 2.08846959252937 -1.26578063005562 -0.0209167308696156 0.0350000000013445 -0.0209167308648572 -0.0350000000021063 0.0332998754084558 -0.0350000000002136 0.0334854472055703 0.0350000000004159 0.0334235899398655 0.0116666666668727 0.00628435816898787 0.0349999999979653 6 1 2 5 2 3 5 6 2 4 6 5 
12 10 1 0 0.00634153961704493
-32.49041940684 2.090349324701 -1.331010205152 -32.438399684 2.137324551231 -1.327916992577 -32.42894090794 2.127865775168 -1.288725651461 -32.429172070703 2.1280969379298 -1.29828668899026 -32.4291047331956 2.12802960041882 -1.30984925248011 -32.4310004673104 2.12992533453235 -1.31575188409046 -32.47845572566 2.078385643521 -1.28896503218 -32.4619507864197 2.09487902073637 -1.28888523860711 -32.4819743713193 2.08190428917854 -1.31918361534373 -32.4798270694108 2.07975698727077 -1.31422507612185 -32.4788137977544 2.07874371561229 -1.30294073285687 -32.4787691367825 2.07869905464065 -1.29438189616797 5.40310822339238 0.0743251650291725 5.45043204565207 0.00432516502853986 6.33181273516439 0.00432516503062885 6.19960563174468 0.0043251650303155 6.00800512274493 0.00432516502986138 5.82501883869837 0.00432516502942768 6.32674698655025 0.0743251650312473 6.32843556942163 0.0509918316977078 5.81361434035143 0.0743251650300946 5.95044971267112 0.074325165030402 6.13859834961068 0.0743251650308247 6.25311197196647 0.0743251650310819 9 1 2 9 2 6 10 6 5 10 9 6 11 5 4 11 10 5 12 11 4 8 4 3 8 12 4 7 12 8 

TShapes 6
Ve
0.00724753242559992
-32.47845572566 2.078385643521 -1.28896503218
0 0

0101101
*
Ve
0.00556240310609194
-32.42894090794 2.127865775168 -1.288725651461
0 0

0101101
*
Ed
 0.0019893034330919 1 1 0
1  1 0 0 0.0700004136043311
2  1 1 0 0 0.0700004136043311
4 C0 2 0 1 0
6  1 1 0
0

0101000
+6 0 -5 0 *
Ed
 0.00303627754800301 1 1 0
1  2 0 0 0.0700004136043311
2  2 1 0 0 0.0700004136043311
2  3 3 0 0 0.0700004136043311
4 C0 1 0 3 0
6  2 2 0
0

0101000
+6 0 -5 0 *
Wi

0101100
-4 0 +3 0 *
Fa
0  1e-07 1 0

0111000
+2 0 *

-1 0 