DBRep_DrawableShape

CASCADE Topology V3, (c) Open Cascade
Locations 0
Curve2ds 3
7 0 0  1 2 2  6.3151499829480811 0.0043251650357074567  6.3267469865129469 0.07432516503563491 
 0 2 0.070003533097522441 2
7 0 0  1 2 2  0.31889538377466209 0.0043251650357074567  0.33195879707714626 0.07432516503563491 
 0 2 0.070003533097522441 2
7 0 0  1 2 2  0.31889538377466209 0.0043251650357074567  0.33195879709674453 0.07432516503562514 
 0 2 1 2
Curves 2
1 5.3649856262329996 1.7349442916290001 -1.2894951586059999 0.71173960003220904 0.70240258659290888 0.0075728524072660973 
7 0 0  3 4 2  5.3649856262329996 1.7349442916290001 -1.2894951586059999  5.3814847844599996 1.7514434498560001 -1.2894951586050001  5.398310754653 1.767615796119 -1.288965032181  5.4148099128810001 1.7841149543470001 -1.288965032181 
 0 4 1 4
Polygon3D 0
PolygonOnTriangulations 2
3 3 8 9 
p 0.0166666666666667 1 0 0.0233345110325075 0.0700035330975224 
3 4 5 1 
p 0.0166666666666667 1 0 0.5 1 
Surfaces 3
2 5.3954309692860001 1.6983822415230001 -1.3051387818939999 0.70710678118654757 0.70710678118654757 0 -0.70710678118654757 0.70710678118654757 0 0 -0 1 0.049999999999540003
2 5.3954309692860001 1.6983822415230001 -1.291010205152 0.70710678118654757 0.70710678118654757 0 -0.70710678118654757 0.70710678118654757 0 0 -0 1 0.049999999999540003
1 5.4020248567179996 1.7474025358259999 -1.260000000007 -0.58834840541432087 0.58834840541432087 0.55470019622571975 0.39223227027671498 -0.39223227027671498 0.83205029433751665 0.70710678118654757 0.70710678118654757 -8.1524687095804742e-18 
Triangulations 2
13 11 1 0 0.00613058867721525
5.374753871224 1.725176046637 -1.327916992577 5.42677359406 1.772151273167 -1.331010205152 5.364985626233 1.734944291629 -1.289495158606 5.36530306514257 1.7346268527188 -1.29524109107695 5.3653447680376 1.7345851498234 -1.30829125812567 5.36648361731863 1.73344630054238 -1.31384120370203 5.37121684440273 1.72871307345827 -1.32225815068419 5.38159372178222 1.75133451253511 -1.28931844979796 5.414809912881 1.784114954347 -1.288965032181 5.41832855854026 1.7805963086873 -1.31918361534778 5.41618125663166 1.78274361059575 -1.31422507612502 5.4151679849724 1.78375688225525 -1.30294073285896 5.41512332400056 1.78380154322737 -1.29438189616571 5.45043204557848 0.00432516503500047 5.4031082233364 0.0743251650349182 6.31514998294808 0.00432516503570746 6.23547026919969 0.00432516503564231 6.03022644105494 0.0043251650354745 5.88279101426328 0.00432516503535396 5.61893796883583 0.00432516503513824 6.31901565080304 0.0276584983690166 6.32674698653179 0.0743251650356251 5.81361434031213 0.0743251650352324 5.95044971263737 0.0743251650353371 6.13859834958458 0.0743251650354811 6.25311197199583 0.0743251650355688 7 2 1 10 7 6 10 2 7 11 6 5 11 10 6 12 5 4 12 11 5 8 4 3 13 12 4 13 4 8 9 13 8 
6 4 1 0 0.00164265339030681
5.414809912881 1.784114954347 -1.288965032181 5.42489386188763 1.77403100533988 -1.2657806300565 5.434977810895 1.763947056332 -1.242596227932 5.364985626233 1.734944291629 -1.289495158606 5.38989776955663 1.75952962298763 -1.28923009539313 5.385480336212 1.714449581649 -1.242596227932 -0.0334854472052841 0.0350000000006662 -0.00628435816891228 0.0350000000003127 0.0209167308680456 0.034999999999959 -0.0341829114512098 -0.0349999999998926 -0.0338341793279364 1.77053649519365e-13 0.0209167308680479 -0.0349999999999587 6 5 4 2 1 5 2 5 6 3 2 6 

TShapes 6
Ve
0.00724753242817388
5.414809912881 1.784114954347 -1.288965032181
0 0

0101101
*
Ve
0.00501962046144571
5.364985626233 1.734944291629 -1.289495158606
0 0

0101101
*
Ed
 0.00303627755231902 1 1 0
1  1 0 0 0.0700035330975224
2  1 2 0 0 0.0700035330975224
2  2 1 0 0 0.0700035330975224
4 C0 1 0 2 0
6  1 1 0
0

0101000
-6 0 +5 0 *
Ed
 0.00198930343433789 1 1 0
1  2 0 0 1
2  3 1 0 0 1
4 C0 3 0 1 0
6  2 2 0
0

0101000
+5 0 -6 0 *
Wi

0101100
-4 0 +3 0 *
Fa
0  1e-07 1 0

0111000
+2 0 *

-1 0 