DBRep_DrawableShape

CASCADE Topology V3, (c) Open Cascade
Locations 0
Curve2ds 3
7 0 0  1 2 2  6.3267469865304831 0.074325165035625584  6.3318127351698772 0.0043251650357110094 
 0 2 0.070000413603627076 2
7 0 0  1 2 2  2.8096338564976926 0.0043251650335864866  2.8052437886767896 0.074325165033501062 
 0 2 0.070000413603627076 2
7 0 0  1 2 2  2.8096338564976926 0.0043251650335864866  2.805243788676798 0.074325165033501062 
 0 2 0.070000413603627076 2
Curves 2
1 -2.771544274339 -2.8283856435220001 -1.288965032181 -0.70735035937730906 -0.70685484698830914 0.0034197043623320437 
1 -2.771544274339 -2.8283856435220001 -1.288965032181 -0.70735035937730906 -0.70685484698830914 0.0034197043623260433 
Polygon3D 0
PolygonOnTriangulations 2
3 7 8 3 
p 0.0166666666666667 1 0 0.023333471201209 0.0700004136036271 
3 4 5 3 
p 0.0166666666666667 1 0 0.023333471201209 0.0700004136036271 
Surfaces 3
2 -2.7353090361989998 -2.8585041746119999 -1.3051387818939999 -0.70710678118654757 -0.70710678118654757 0 0.70710678118654757 -0.70710678118654757 0 0 0 1 0.050000000000239998
2 -2.7909232179329999 -2.9141183563470001 -1.291010205152 0.70710678118654757 0.70710678118654757 0 -0.70710678118654757 0.70710678118654757 0 0 -0 1 0.04999999999989
1 -2.784329330501 -2.8650980620439999 -1.2600000000080001 0.58834840541432087 -0.58834840541432087 -0.55470019622571975 -0.39223227027671498 0.39223227027671498 -0.83205029433751665 0.70710678118654757 0.70710678118654757 -8.1524687095804742e-18 
Triangulations 2
12 10 1 0 0.00634153961738646
-2.759580593159 -2.840349324702 -1.331010205152 -2.811600315995 -2.887324551232 -1.327916992577 -2.821059092058 -2.877865775169 -1.288725651462 -2.82082792929573 -2.87809693793212 -1.29828668899081 -2.82089526680549 -2.87802960042274 -1.3098492524802 -2.81899953269185 -2.87992533453662 -1.31575188409014 -2.771544274339 -2.828385643522 -1.288965032181 -2.7880492135787 -2.84487902073764 -1.28888523860774 -2.76802562867937 -2.83190428918262 -1.31918361534778 -2.77017293058775 -2.82975698727413 -1.31422507612502 -2.77118620224725 -2.82874371561414 -1.30294073285896 -2.77123086321937 -2.8286990546417 -1.29438189616551 5.40310822333641 0.0743251650349186 5.45043204558896 0.00432516503570834 6.33181273516988 0.00432516503571101 6.19960563171902 0.00432516503570834 6.0080051226981 0.00432516503570834 5.82501883865399 0.00432516503570834 6.32674698653048 0.0743251650356256 6.32843556941028 0.0509918317023207 5.81361434031155 0.0743251650352328 5.9504497126366 0.0743251650353376 6.13859834958354 0.0743251650354816 6.25311197199729 0.0743251650355692 9 1 2 9 2 6 10 6 5 10 9 6 11 5 4 11 10 5 12 11 4 8 4 3 8 12 4 7 12 8 
6 4 1 0 0.00164071494671159
-2.751376376325 -2.848553541537 -1.242596227932 -2.800873851007 -2.89805101622 -1.242596227932 -2.821059092058 -2.877865775169 -1.288725651462 -2.771544274339 -2.828385643522 -1.288965032181 -2.7880492135787 -2.84487902073764 -1.28888523860774 -2.761460325332 -2.83846959252987 -1.26578063005688 -0.0209167308680959 0.0349999999999585 -0.020916730868468 -0.0349999999999589 0.0332998754037339 -0.0349999999992492 0.0334854472052367 0.0350000000006657 0.0334235899380691 0.0116666666673607 0.00628435816873541 0.0350000000000469 6 1 2 5 2 3 5 6 2 4 6 5 

TShapes 6
Ve
0.00724753242801082
-2.771544274339 -2.828385643522 -1.288965032181
0 0

0101101
*
Ve
0.00556240310503867
-2.821059092058 -2.877865775169 -1.288725651462
0 0

0101101
*
Ed
 0.00303627755169176 1 1 0
1  1 0 0 0.0700004136036271
2  1 2 0 0 0.0700004136036271
2  2 1 0 0 0.0700004136036271
4 C0 1 0 2 0
6  1 1 0
0

0101000
+6 0 -5 0 *
Ed
 0.00198930343260631 1 1 0
1  2 0 0 0.0700004136036271
2  3 1 0 0 0.0700004136036271
4 C0 3 0 1 0
6  2 2 0
0

0101000
+6 0 -5 0 *
Wi

0101100
-4 0 +3 0 *
Fa
0  1e-07 1 0

0111000
+2 0 *

+1 0 