DBRep_DrawableShape

CASCADE Topology V3, (c) Open Cascade
Locations 0
Curve2ds 3
7 0 0  1 2 2  2.8096338564598007 0.0043251650332507552  2.8052437886919863 0.07432516503600084 
 0 2 0.070000413606453413 2
7 0 0  1 2 2  6.3267469865736858 0.074325165029257789  6.3318127351697031 0.0043251650265148101 
 0 2 0.070000413606453413 2
7 0 0  1 2 2  2.8096338564598007 0.0043251650332507552  2.8052437886919863 0.07432516503600084 
 0 2 0.070000413606453413 2
Curves 2
1 -30.521544274339998 -29.078385643520001 -1.288965032171 -0.70735035939662005 -0.70685484696912004 0.0034197043343410973 
1 -30.521544274339998 -29.078385643520001 -1.288965032171 -0.70735035939662005 -0.70685484696912004 0.0034197043343410973 
Polygon3D 0
PolygonOnTriangulations 2
3 4 5 3 
p 0.0166666666666667 1 0 0.0233334712021511 0.0700004136064534 
3 7 8 3 
p 0.0166666666666667 1 0 0.0233334712021511 0.0700004136064534 
Surfaces 3
2 -30.4853090362 -29.108504174610001 -1.3051387818860001 -0.70710678118154768 -0.70710678119154757 0 0.70710678119154757 -0.70710678118154768 0 0 0 1 0.050000000004729997
1 -30.5343293305 -29.115098062049999 -1.2599999999980001 0.58834840544078626 -0.58834840538788624 -0.55470019622568711 -0.39223227022709189 0.39223227032629188 -0.83205029433753841 0.70710678119205295 0.7071067811810422 7.9113244291946286e-11 
2 -30.540923217930001 -29.164118356340001 -1.291010205144 0.70710678118654757 0.70710678118654757 0 -0.70710678118654757 0.70710678118654757 0 0 -0 1 0.049999999997419997
Triangulations 2
6 4 1 0 0.00164071494265957
-30.50137637632 -29.09855354154 -1.242596227922 -30.55087385101 -29.14805101622 -1.242596227923 -30.57105909206 -29.12786577517 -1.288725651453 -30.52154427434 -29.07838564352 -1.288965032171 -30.5380492135808 -29.0948790207359 -1.28888523859839 -30.51146032533 -29.08846959253 -1.26578063004612 -0.0209167308660325 0.0350000000063756 -0.0209167308662065 -0.0349999999963695 0.0332998754078801 -0.0350000000002404 0.0334854472116129 0.0350000000024867 0.033423589943702 0.0116666666682444 0.00628435817247837 0.0350000000044293 6 1 2 5 2 3 5 6 2 4 6 5 
12 10 1 0 0.00634153961955182
-30.50958059316 -29.0903493247 -1.331010205149 -30.561600316 -29.13732455123 -1.327916992569 -30.57105909206 -29.12786577517 -1.288725651453 -30.570827929297 -29.1280969379307 -1.29828668898226 -30.5708952668044 -29.1280296004174 -1.30984925247194 -30.5689995326896 -29.1299253345314 -1.31575188408246 -30.52154427434 -29.07838564352 -1.288965032171 -30.5380492135808 -29.0948790207359 -1.28888523859839 -30.5180256286807 -29.0819042891793 -1.31918361534561 -30.5201729305892 -29.0797569872708 -1.31422507612202 -30.5211862022456 -29.0787437156144 -1.30294073285287 -30.5212308632174 -29.0786990546426 -1.29438189616424 5.40310822317071 0.0743251650292578 5.45043204562043 0.00432516502651481 6.3318127351697 0.00432516502651481 6.19960563174367 0.00432516502651481 6.00800512273996 0.00432516502651481 5.82501883868205 0.00432516502651481 6.32674698657369 0.0743251650292578 6.32843556943902 0.0509918316950101 5.8136143402387 0.0743251650292578 5.9504497125947 0.0743251650292578 6.13859834958419 0.0743251650292578 6.2531119719278 0.0743251650292578 9 1 2 9 2 6 10 6 5 10 9 6 11 5 4 11 10 5 12 11 4 8 4 3 8 12 4 7 12 8 

TShapes 6
Ve
0.00724753243051449
-30.52154427434 -29.07838564352 -1.288965032171
0 0

0101101
*
Ve
0.00556240310634564
-30.57105909206 -29.12786577517 -1.288725651453
0 0

0101101
*
Ed
 0.00198930342803341 1 1 0
1  1 0 0 0.0700004136064534
2  1 1 0 0 0.0700004136064534
4 C0 1 0 2 0
6  1 1 0
0

0101000
+6 0 -5 0 *
Ed
 0.003036277549843 1 1 0
1  2 0 0 0.0700004136064534
2  2 3 0 0 0.0700004136064534
2  3 1 0 0 0.0700004136064534
4 C0 3 0 1 0
6  2 2 0
0

0101000
+6 0 -5 0 *
Wi

0101100
-4 0 +3 0 *
Fa
0  1e-07 1 0

0111000
+2 0 *

-1 0 