DBRep_DrawableShape

CASCADE Topology V3, (c) Open Cascade
Locations 0
Curve2ds 3
7 0 0  1 2 2  6.3151499829480811 0.0043251650357074567  6.3267469865129424 0.07432516503563491 
 0 2 0.070003533097522455 2
7 0 0  1 2 2  0.31889538377465931 0.0043251650357074567  0.33195879707714204 0.07432516503563491 
 0 2 0.070003533097522455 2
7 0 0  1 2 2  0.31889538377465931 0.0043251650357074567  0.33195879709674453 0.07432516503562514 
 0 2 1 2
Curves 2
1 -5.1350143737670004 1.7349442916290001 -1.2894951586059999 0.71173960003220915 0.702402586592909 0.0075728524072630971 
7 0 0  3 4 2  -5.1350143737670004 1.7349442916290001 -1.2894951586059999  -5.1185152155400004 1.7514434498560001 -1.2894951586050001  -5.101689245347 1.767615796119 -1.288965032181  -5.0851900871189999 1.7841149543470001 -1.288965032181 
 0 4 1 4
Polygon3D 0
PolygonOnTriangulations 2
3 3 8 9 
p 0.0166666666666667 1 0 0.0233345110325075 0.0700035330975225 
3 4 5 1 
p 0.0166666666666667 1 0 0.5 1 
Surfaces 3
2 -5.1045690307139999 1.6983822415230001 -1.3051387818939999 0.70710678118654757 0.70710678118654757 0 -0.70710678118654757 0.70710678118654757 0 0 -0 1 0.049999999999540003
2 -5.1045690307139999 1.6983822415230001 -1.291010205152 0.70710678118654757 0.70710678118654757 0 -0.70710678118654757 0.70710678118654757 0 0 -0 1 0.049999999999540003
1 -5.0979751432820004 1.7474025358259999 -1.260000000007 -0.58834840541432087 0.58834840541432087 0.55470019622571975 0.39223227027671498 -0.39223227027671498 0.83205029433751665 0.70710678118654757 0.70710678118654757 -8.1524687095804742e-18 
Triangulations 2
13 11 1 0 0.00613058867721525
-5.125246128776 1.725176046637 -1.327916992577 -5.07322640594 1.772151273167 -1.331010205152 -5.135014373767 1.734944291629 -1.289495158606 -5.13469693485743 1.7346268527188 -1.29524109107695 -5.1346552319624 1.7345851498234 -1.30829125812567 -5.13351638268137 1.73344630054238 -1.31384120370203 -5.12878315559727 1.72871307345827 -1.32225815068419 -5.11840627821778 1.75133451253511 -1.28931844979796 -5.085190087119 1.784114954347 -1.288965032181 -5.08167144145974 1.7805963086873 -1.31918361534778 -5.08381874336834 1.78274361059575 -1.31422507612502 -5.0848320150276 1.78375688225525 -1.30294073285896 -5.08487667599944 1.78380154322737 -1.29438189616571 5.45043204557848 0.00432516503500047 5.40310822333639 0.0743251650349182 6.31514998294808 0.00432516503570746 6.2354702691997 0.00432516503564231 6.03022644105494 0.0043251650354745 5.88279101426328 0.00432516503535396 5.61893796883584 0.00432516503513824 6.31901565080303 0.0276584983690166 6.32674698653179 0.0743251650356251 5.81361434031213 0.0743251650352324 5.95044971263737 0.0743251650353371 6.13859834958458 0.0743251650354811 6.25311197199582 0.0743251650355688 7 2 1 10 7 6 10 2 7 11 6 5 11 10 6 12 5 4 12 11 5 8 4 3 13 12 4 13 4 8 9 13 8 
6 4 1 0 0.00164265339030681
-5.085190087119 1.784114954347 -1.288965032181 -5.07510613811237 1.77403100533988 -1.2657806300565 -5.065022189105 1.763947056332 -1.242596227932 -5.135014373767 1.734944291629 -1.289495158606 -5.11010223044337 1.75952962298763 -1.28923009539313 -5.114519663788 1.714449581649 -1.242596227932 -0.0334854472052841 0.0350000000006662 -0.00628435816891228 0.0350000000003127 0.0209167308680454 0.034999999999959 -0.0341829114512098 -0.0349999999998926 -0.0338341793279364 1.77053649519365e-13 0.0209167308680479 -0.0349999999999587 6 5 4 2 1 5 2 5 6 3 2 6 

TShapes 6
Ve
0.00724753242817367
-5.085190087119 1.784114954347 -1.288965032181
0 0

0101101
*
Ve
0.00501962046144571
-5.135014373767 1.734944291629 -1.289495158606
0 0

0101101
*
Ed
 0.00303627755231902 1 1 0
1  1 0 0 0.0700035330975225
2  1 2 0 0 0.0700035330975225
2  2 1 0 0 0.0700035330975225
4 C0 2 0 1 0
6  1 1 0
0

0101000
-6 0 +5 0 *
Ed
 0.00198930343433789 1 1 0
1  2 0 0 1
2  3 1 0 0 1
4 C0 1 0 3 0
6  2 2 0
0

0101000
+5 0 -6 0 *
Wi

0101100
-4 0 +3 0 *
Fa
0  1e-07 1 0

0111000
+2 0 *

-1 0 