DBRep_DrawableShape

CASCADE Topology V3, (c) Open Cascade
Locations 0
Curve2ds 3
7 0 0  1 2 2  2.8096338564597581 0.0043251650332578606  2.8052437886883816 0.074325165036007945 
 0 2 0.070000413606453413 2
7 0 0  1 2 2  6.3267469865736858 0.074325165029264895  6.3318127351738136 0.0043251650265219155 
 0 2 0.070000413606453413 2
7 0 0  1 2 2  2.8096338564597581 0.0043251650332578606  2.8052437886883901 0.074325165036007945 
 0 2 0.070000413606453413 2
Curves 2
1 26.771544274339998 34.328385643520001 -1.288965032171 0.70735035939681334 0.70685484696891321 0.0034197043371230642 
1 26.771544274339998 34.328385643520001 -1.288965032171 0.70735035939681334 0.70685484696891321 0.0034197043371170643 
Polygon3D 0
PolygonOnTriangulations 2
3 1 4 5 
p 0.0166666666666667 1 0 0.0233334712021511 0.0700004136064534 
3 7 8 3 
p 0.0166666666666667 1 0 0.0233334712021511 0.0700004136064534 
Surfaces 3
2 26.7353090362 34.358504174609998 -1.3051387818860001 0.70710678118154768 0.70710678119154757 0 -0.70710678119154757 0.70710678118154768 0 0 -0 1 0.050000000004729997
1 26.7843293305 34.365098062050002 -1.2599999999980001 0.58834840544072087 -0.58834840538792088 0.55470019622571975 0.39223227022711499 -0.39223227032631497 -0.83205029433751665 0.70710678119209458 0.70710678118100057 -7.9074009194676232e-11 
2 26.790923217930001 34.414118356339998 -1.291010205144 -0.70710678118654757 -0.70710678118654757 0 0.70710678118654757 -0.70710678118654757 0 0 0 1 0.049999999997419997
Triangulations 2
6 4 1 0 0.00164071494337186
26.77154427434 34.32838564352 -1.288965032171 26.76146032533 34.3384695925337 -1.26578063004612 26.75137637632 34.34855354154 -1.242596227922 26.7880492135808 34.3448790207359 -1.28888523859833 26.82105909206 34.37786577517 -1.288725651453 26.80087385101 34.39805101622 -1.242596227923 0.0334854472116143 -0.0350000000024867 0.00628435817100964 -0.0350000000017805 -0.0209167308660315 -0.0350000000063781 0.0334235899436529 -0.011666666668246 0.0332998754058652 0.0349999999999841 -0.0209167308671383 0.0349999999963695 6 3 2 4 2 1 4 6 2 5 6 4 
12 10 1 0 0.00634153961956515
26.75958059316 34.3403493247 -1.331010205149 26.811600316 34.38732455123 -1.327916992569 26.82105909206 34.37786577517 -1.288725651453 26.820827929297 34.3780969379307 -1.29828668898226 26.8208952668045 34.3780296004174 -1.30984925247177 26.8189995326896 34.3799253345314 -1.31575188408246 26.77154427434 34.32838564352 -1.288965032171 26.7880492135808 34.3448790207359 -1.28888523859833 26.7680256286807 34.3319042891793 -1.31918361534561 26.7701729305892 34.3297569872708 -1.31422507612202 26.7711862022456 34.3287437156144 -1.30294073285287 26.7712308632174 34.3286990546426 -1.29438189616424 5.40310822317066 0.0743251650292649 5.45043204562038 0.00432516502651481 6.33181273517381 0.00432516502652192 6.19960563174366 0.00432516502651481 6.00800512274396 0.00432516502651481 5.82501883868202 0.00432516502651481 6.32674698657369 0.0743251650292649 6.3284355694404 0.0509918316950172 5.81361434023867 0.0743251650292649 5.95044971259467 0.0743251650292649 6.13859834958418 0.0743251650292649 6.25311197192776 0.0743251650292649 9 1 2 9 2 6 10 6 5 10 9 6 11 5 4 11 10 5 12 11 4 8 4 3 8 12 4 7 12 8 

TShapes 6
Ve
0.00724753243051365
26.77154427434 34.32838564352 -1.288965032171
0 0

0101101
*
Ve
0.00556240310634442
26.82105909206 34.37786577517 -1.288725651453
0 0

0101101
*
Ed
 0.00198930342803021 1 1 0
1  1 0 0 0.0700004136064534
2  1 1 0 0 0.0700004136064534
4 C0 1 0 2 0
6  1 1 0
0

0101000
+6 0 -5 0 *
Ed
 0.00303627754984551 1 1 0
1  2 0 0 0.0700004136064534
2  2 3 0 0 0.0700004136064534
2  3 1 0 0 0.0700004136064534
4 C0 3 0 1 0
6  2 2 0
0

0101000
+6 0 -5 0 *
Wi

0101100
-4 0 +3 0 *
Fa
0  1e-07 1 0

0111000
+2 0 *

-1 0 