DBRep_DrawableShape

CASCADE Topology V3, (c) Open Cascade
Locations 0
Curve2ds 3
7 0 0  1 2 2  0.31889538377021015 0.0043251650406566089  0.33195879707721221 0.074325165036387197 
 0 2 0.070003533093324924 2
7 0 0  1 2 2  6.3151499829476032 0.0043251650406566089  6.3267469865209813 0.074325165036387197 
 0 2 0.070003533093324924 2
7 0 0  1 2 2  0.31889538377021015 0.0043251650406566089  0.33195879713852028 0.074325165036331242 
 0 2 1 2
Curves 2
1 -31.385014373770002 33.984944291630001 -1.2894951585979999 0.71173960002710723 0.70240258659800714 0.0075728524138870762 
7 0 0  3 4 2  -31.385014373770002 33.984944291630001 -1.2894951585979999  -31.36851521554 34.001443449859998 -1.2894951585979999  -31.351689245349998 34.017615796119998 -1.288965032174  -31.335190087120001 34.034114954339998 -1.288965032173 
 0 4 1 4
Polygon3D 0
PolygonOnTriangulations 2
3 3 8 9 
p 0.0166666666666667 1 0 0.0233345110311083 0.0700035330933249 
3 3 4 5 
p 0.0166666666666667 1 0 0.5 1 
Surfaces 3
2 -31.35456903072 33.948382241520001 -1.3051387818860001 0.70710678118654757 0.70710678118654757 0 -0.70710678118654757 0.70710678118654757 0 0 -0 1 0.049999999997419997
2 -31.35456903072 33.948382241520001 -1.291010205144 0.70710678118654757 0.70710678118654757 0 -0.70710678118654757 0.70710678118654757 0 0 -0 1 0.049999999997419997
1 -31.347975143279999 33.997402535820001 -1.26 0.58834840544072087 -0.58834840538792088 -0.55470019622571975 0.39223227032616498 -0.39223227022726498 0.83205029433751665 -0.70710678113715153 -0.70710678123594362 3.7477806608736646e-11 
Triangulations 2
13 11 1 0 0.00613058867778807
-31.37524612878 33.97517604664 -1.327916992568 -31.32322640594 34.02215127316 -1.331010205143 -31.38501437377 33.98494429163 -1.289495158598 -31.3846969348605 33.9846268527205 -1.29524109106296 -31.3846552319647 33.9845851498247 -1.3082912581168 -31.3835163826834 33.9834463005434 -1.31384120369356 -31.3787831556297 33.9787130734897 -1.32225815062493 -31.3684062782219 34.0013345125353 -1.28931844978981 -31.33519008712 34.03411495434 -1.288965032173 -31.3316714414615 34.0305963086907 -1.31918361534236 -31.3338187433704 34.0327436105992 -1.31422507611891 -31.3348320150312 34.033756882255 -1.30294073285202 -31.3348766760025 34.0338015432233 -1.29438189615522 5.45043204563394 0.00432516504065861 5.40310822330555 0.0743251650363324 6.3151499829476 0.00432516504065661 6.23547026929338 0.00432516504065679 6.03022644108405 0.00432516504065727 5.88279101429077 0.00432516504065761 5.61893797024685 0.00432516504065822 6.3190156508054 0.0276584983725668 6.32674698653769 0.0743251650363312 5.81361434029762 0.0743251650363319 5.9504497126283 0.0743251650363317 6.138598349583 0.0743251650363315 6.25311197203941 0.0743251650363313 7 2 1 10 7 6 10 2 7 11 6 5 11 10 6 12 5 4 12 11 5 8 4 3 13 12 4 13 4 8 9 13 8 
6 4 1 0 0.00164265338719868
-31.36451966379 33.96444958165 -1.242596227925 -31.31502218911 34.01394705633 -1.242596227924 -31.38501437377 33.98494429163 -1.289495158598 -31.360102230445 34.0095296229888 -1.28923009538588 -31.33519008712 34.03411495434 -1.288965032173 -31.325106138115 34.024031005335 -1.26578063004887 0.0209167308612868 0.034999999999302 0.020916730867015 -0.0349999999963714 -0.034182911457537 0.0349999999955191 -0.0338341793319442 -4.942637965577e-12 -0.0334854472027878 -0.0350000000001006 -0.00628435816820037 -0.0349999999982379 4 5 6 1 3 4 1 6 2 1 4 6 

TShapes 6
Ve
0.00724753242898655
-31.33519008712 34.03411495434 -1.288965032173
0 0

0101101
*
Ve
0.00501962046172898
-31.38501437377 33.98494429163 -1.289495158598
0 0

0101101
*
Ed
 0.00303627754893832 1 1 0
1  1 0 0 0.0700035330933249
2  1 1 0 0 0.0700035330933249
2  2 2 0 0 0.0700035330933249
4 C0 1 0 2 0
6  1 1 0
0

0101000
-6 0 +5 0 *
Ed
 0.00198930343391311 1 1 0
1  2 0 0 1
2  3 1 0 0 1
4 C0 3 0 1 0
6  2 2 0
0

0101000
+5 0 -6 0 *
Wi

0101100
-4 0 +3 0 *
Fa
0  1e-07 1 0

0111000
+2 0 *

-1 0 