DBRep_DrawableShape

CASCADE Topology V3, (c) Open Cascade
Locations 0
Curve2ds 2
7 0 0  1 2 2  6.2823808815985807 0.24148029231958645  2.9055243647080649 0.019267332993610602 
 0 2 1 2
7 0 0  1 2 2  6.2823808815985807 0.24148029231958645  2.9055243647080649 0.019267332993610602 
 0 2 0.22222710287951028 2
Curves 2
7 0 0  3 6 4  15.810193602369999 56.564615611880001 -3.244219710881  15.80606951679 56.589684314940001 -3.244243345338  15.79219744057 56.638217499920003 -3.252354845698  15.779951263639999 56.71175619073 -3.2538392385480002  15.77846011371 56.758707950640002 -3.2417693572539998  15.774301005730001 56.783910775149998 -3.2417220866009999 
 0 4 0.33333333333330001 1 0.66666666666670005 1 1 4
1 15.810193602369999 56.564615611880001 -3.244219710881 -0.16151313760680336 0.98680656151872059 0.011239062416650234 
Polygon3D 0
PolygonOnTriangulations 2
10 110 111 112 113 114 115 116 117 118 109 
p 0.05 1 0 0.07971615 0.1594323 0.385294725 0.50486895 0.60172407225 0.691404741 0.91994097853125 0.959970489265625 1 
2 3 1 
p 0.05 1 0 0.22222710287951 
Surfaces 3
2 15.77635442131 56.803775794350003 -3.2488028394319999 0.16249457979920243 -0.98670943622521456 0 -0.7569910421520869 -0.12466379340289151 0.64142302789648808 -0.63289815423761375 -0.1042277653915719 -0.76718739515460044 0.010000000001460001
1 15.78430274366 58.020991678880002 -4.4476604893239999 0.97110297274081991 0.15992445567110328 0.17715299831570361 -0.17479853509357837 -0.028786402022182914 0.98418332397361641 0.16249457979600862 -0.98670943622574059 -1.3074134396282373e-12 
1 17.371560488610001 56.582441716529999 -3.2388028394320001 0 0 1 0.98670943622567675 0.16249457979639617 -0 -0.16249457979639617 0.98670943622567675 0 
Triangulations 2
138 136 1 0 0.00582009011704085
15.37584870558 59.18825791212 -3.244648703286 15.33986822065 59.40844048699 -3.246574032522 15.74108831854 58.71564823878 -4.837870737997 15.7446749188211 58.7107502175175 -4.85310979595224 15.7474382316169 58.7063752861393 -4.86430804135525 15.7489052144569 58.7036970713215 -4.86993187701323 15.7509986506728 58.6991680808459 -4.87731897069496 15.7603880076293 58.6727251503441 -4.90491749419437 15.7618640871039 58.6684140000431 -4.90911706636198 15.7632463880688 58.6641624335324 -4.91285636021019 15.7651726271306 58.657834095037 -4.91770256884723 15.76747731316 58.6495630965232 -4.92286958565438 15.7685997601838 58.6452371905289 -4.92511732339558 15.7697199774057 58.6407250123939 -4.92718468124901 15.7721810375818 58.6302160669191 -4.93118859580519 15.7750275527886 58.6173639430923 -4.93519016777404 15.7776809867083 58.6046344967858 -4.93824406920967 15.7798778768175 58.5932994775874 -4.94005414153776 15.7816831199023 58.5832072167927 -4.94083921213937 15.7833300281078 58.5732155567886 -4.94084715253848 15.7849904948309 58.5622213634212 -4.94002438226931 15.7866475214962 58.5501250016133 -4.93818777458826 15.7880396575482 58.5387734509904 -4.93557148754162 15.7891277616633 58.5286617755941 -4.93240787729073 15.7899601339177 58.5196546168099 -4.92883951660922 15.7906783211567 58.5102530356579 -4.92428916187592 15.7913546343616 58.498779787031 -4.91763907247256 15.7918279558936 58.4874355126578 -4.90999267094519 15.7921068246475 58.4762147872033 -4.90139186741015 15.7920995179466 58.469092961954 -4.89492260301048 15.7919855643434 58.4649236509863 -4.89053410562516 15.7917913657855 58.4611588011446 -4.88607085427625 15.7913158238262 58.4556869126159 -4.87852433224153 15.7906615915451 58.4508781272662 -4.87059689490385 15.7872580727371 58.4318592020463 -4.83477047051872 15.7860421987067 58.4291014936256 -4.82561587580045 15.784560817665 58.4274691733161 -4.81602178772293 15.7827212998222 58.426394478352 -4.80496788928651 15.78026185581 58.42571366416 -4.790871304676 15.56167942717 58.38971678545 -3.560167734577 15.556249317312 58.3338201525993 -3.47994084180963 15.5532178921478 58.2833670043149 -3.41777695846091 15.5520511786278 58.2424421519624 -3.37443654781922 15.5519873662885 58.2055946281387 -3.34082273059731 15.5526205969663 58.1757545437881 -3.31735585703288 15.5537535203872 58.1481417960079 -3.29863888160093 15.5552225253087 58.1233127674386 -3.28427720652717 15.5569086274316 58.1009910839362 -3.27336909718267 15.5589395737748 58.0786980728998 -3.26437721093819 15.560242404562 58.0660904405249 -3.26013745266239 15.56165578949 58.05349467114 -3.256514430395 15.5663073536263 58.009581204693 -3.24181145094721 15.56960038574 57.98563340232 -3.238802736962 15.5741705693584 57.9618436308956 -3.2418180174471 15.58383639977 57.91880822501 -3.256514430378 15.5882517435049 57.8988186198242 -3.26267253499758 15.5929496817463 57.8788936500114 -3.27043809269447 15.5979289068552 57.8590371682001 -3.27980741332274 15.6031881111928 57.8392530270188 -3.2907768067365 15.6087259871199 57.8195450790962 -3.30334258278982 15.6145412269977 57.7999171770608 -3.31750105133679 15.620632523187 57.7803731735411 -3.3332485222315 15.626998568049 57.7609169211657 -3.35058130532804 15.6359117545723 57.735118411976 -3.37615134596296 15.6465162922564 57.70630111776 -3.40826769749042 15.6577277360675 57.6777144925399 -3.4439191739635 15.6695416727243 57.6493715389372 -3.48309332113973 15.6803804632735 57.6247575687674 -3.52028832252341 15.691675091 57.60034923647 -3.560167734575 15.91025751965 57.63634611518 -4.790871304676 15.9131883955095 57.6364551006027 -4.80703592917553 15.9155073229492 57.6358047690448 -4.81916055269744 15.9167744428264 57.635025235048 -4.82540282542301 15.9186566944289 57.6330467144696 -4.83393469513157 15.9276932046929 57.6167505199346 -4.86875895437807 15.9291595930181 57.6139396760995 -4.87425980054334 15.9305535338065 57.6110389380121 -4.8792823578363 15.9329067395361 57.6055822658494 -4.88725597254935 15.9341096077664 57.6025096437482 -4.89107595586068 15.935306329918 57.5992610916591 -4.89470342770867 15.937514899822 57.5927895146124 -4.90096798643966 15.9408574275862 57.5820824926032 -4.90962504556501 15.9440531544767 57.5711933173381 -4.91731294511125 15.9470990261814 57.5601181989701 -4.92401152092349 15.9494402925536 57.550991146799 -4.92860626044776 15.9516594971421 57.5417126380952 -4.93239516453282 15.9537631225674 57.5322907166149 -4.93542103056446 15.9559770343465 57.5216687361556 -4.93796810496736 15.9582996229467 57.5096961546526 -4.93989166323727 15.9602136336123 57.499065775347 -4.94078718194327 15.9618753966094 57.489085759429 -4.94088706381744 15.9634206793381 57.4789612126255 -4.94021795865971 15.9648437599966 57.4686850352181 -4.9387420919053 15.9661538817173 57.4582686962576 -4.93652048546825 15.9673635628734 57.4477277287752 -4.93363578396311 15.9684844324148 57.4370765621891 -4.9301647601515 15.969387911369 57.4273598495545 -4.92634563833275 15.9698470123766 57.4214268509476 -4.92350630044698 15.9701767912489 57.4161986460316 -4.92059430580336 15.9704124412103 57.4113234276008 -4.91748498063674 15.9706240688586 57.4039121074516 -4.91195451199155 15.9706455775437 57.3963416316553 -4.90523818720744 15.9703797138908 57.379023968006 -4.88814731691271 15.9703525961407 57.3707953400456 -4.88057029034803 15.9699443143758 57.3648254165987 -4.87294286995308 15.9692301288632 57.3602970286996 -4.86493991399332 15.9680029048822 57.3551320531204 -4.85354994722369 15.96612597929 57.34916091569 -4.837870737998 15.77430100573 56.78391077515 -3.241722086601 15.81019360237 56.56461561188 -3.244219710881 15.8068103105344 56.5824760686081 -3.24484898037872 15.8028099574518 56.6001372105703 -3.24638487203865 15.7911530505397 56.6497531250049 -3.25150298811144 15.7862860122858 56.6760044364065 -3.25247017518325 15.7832185260685 56.6971590625183 -3.25183262515927 15.7811075745841 56.7165722073136 -3.24990746905037 15.7767774496399 56.7660191005415 -3.24266415280458 15.7756605077091 56.7749018899309 -3.2419821419478 15.9255991169341 57.0687050485686 -4.36335109464727 15.9802804642366 57.3422875045724 -4.90980784366565 16.0117137171743 57.5489969655443 -5.26806181366442 16.0195815751305 57.6181775121349 -5.3737652859263 16.0250048872082 57.6777030004441 -5.4572634632137 16.0285393845887 57.7351901279739 -5.52852597085937 16.030108779648 57.7869230444467 -5.58381231467508 16.0302763613151 57.8277637585362 -5.62158781710236 16.02946864866 57.87136739413 -5.656518137189 15.9685418093 58.24133102302 -5.65651812103 15.9576466314693 58.2758163330056 -5.62792652166677 15.9467261688538 58.3082531595124 -5.59734878623325 15.9357887490964 58.3388394242629 -5.56500831981333 15.9248426998398 58.3677730489798 -5.53112852749091 15.9102489372893 58.4041225288112 -5.48394709634531 15.8884004676466 58.4548239483055 -5.40994694362946 15.8495587479338 58.5384184769883 -5.2724472842243 15.807598198796 58.6228216309469 -5.11859642318551 15.7073320973578 58.8070328209192 -4.73552194902214 15.5714360001028 59.038527270876 -4.19391113824364 1.22177991081513 -1.21812417420993 1.21983610582679 -1.44122703230721 -0.396481264377096 -0.692446292430064 -0.411965227160849 -0.687030565535765 -0.423343438039487 -0.682264756110518 -0.429057653593833 -0.679383759517333 -0.43656346425129 -0.674574789840237 -0.464605519859111 -0.646957581179445 -0.468872582778383 -0.642463873582435 -0.472671970308152 -0.638044196373205 -0.477596061703404 -0.631486961657186 -0.482846116933151 -0.622951390388743 -0.485129977761117 -0.618500586566433 -0.48723055984074 -0.61386634859589 -0.49129882076184 -0.60309716399197 -0.495364701448202 -0.58995330884409 -0.498467681717441 -0.576961875425743 -0.500306843471225 -0.565420522287728 -0.501104530835617 -0.555169051112273 -0.50111259884403 -0.545042572245871 -0.50027660594623 -0.533924681064073 -0.498410482393558 -0.521719828872572 -0.495752149354266 -0.510292932194424 -0.492537697154051 -0.500138835643855 -0.488911989834265 -0.491116131098162 -0.484288506970209 -0.481722800726502 -0.477531544886499 -0.470292140812133 -0.469762259082513 -0.459021726057486 -0.461023233206312 -0.447904815709247 -0.454450002140397 -0.440878830831931 -0.449990977811886 -0.43678344920041 -0.445455998159047 -0.433100192548763 -0.437788196997607 -0.42777830149432 -0.429733358895366 -0.423139736812607 -0.393331172928705 -0.404926637189798 -0.38402945596661 -0.402403153208463 -0.374281182607323 -0.401033243746004 -0.363049638475806 -0.400271743762794 -0.348726509575655 -0.399999624290353 0.901755529816134 -0.399999624292951 0.983271738005504 -0.345728252625609 1.0464346486385 -0.296438245284454 1.09047157711292 -0.256246891915364 1.12462559741554 -0.219899461616217 1.14846960391309 -0.190353072256853 1.16748737731264 -0.16292321954678 1.18207985691445 -0.138185477427742 1.19316326900139 -0.115886479227581 1.20229966262661 -0.093559737103477 1.20660755748036 -0.0809079643293286 1.21028880484466 -0.0682499324307861 1.22217060460361 -0.0233607485941397 1.22828513614033 3.75697428598715e-07 1.22215726064188 0.0234113490234263 1.2102888048622 0.0682506838444671 1.20403173418268 0.0886920853325718 1.19614137726481 0.109115630563859 1.18662148355871 0.129517305629132 1.17547580251453 0.149893096619192 1.16270808358241 0.170238989624842 1.14832207621247 0.190550970736886 1.13232152985485 0.210825026046125 1.11471019395969 0.231057141643361 1.08872922068329 0.257961118600172 1.05609673164707 0.288118594624529 1.0198723051588 0.318147086330053 0.980068595612678 0.348033046773203 0.942275838446163 0.37408112811856 0.901755529820305 0.400000375701258 -0.348726509574913 0.400000375713272 -0.365150913550909 0.400369090199664 -0.377470390244405 0.401387591624436 -0.38381298168391 0.402362665286923 -0.392481965907398 0.404620745894649 -0.427865881076734 0.422168738755136 -0.4334551305908 0.425180505045688 -0.438558404717304 0.42826919851126 -0.446660162305403 0.434035731600706 -0.450541536047781 0.437262976389606 -0.45422730450134 0.440662814253195 -0.460592540101726 0.447407261030934 -0.469388725644221 0.458515123325783 -0.477200176376164 0.469778863610733 -0.484006404087218 0.48120172505456 -0.488674985044063 0.490587916652085 -0.492524780090145 0.500103717461291 -0.495599274402227 0.509742244022829 -0.498187282490522 0.520582801037692 -0.500141754003014 0.532773668241308 -0.501051664467936 0.543573780171619 -0.501153151530008 0.553691183531513 -0.500473293274492 0.563932269467725 -0.498973708066733 0.574303113577608 -0.496716398495603 0.584793901199306 -0.493785337345967 0.595391339912235 -0.490258531183974 0.606083081714736 -0.486378032779195 0.615817464193435 -0.483493064281374 0.621746211329234 -0.48053427136885 0.626958517733661 -0.477374976661402 0.631807233604485 -0.471755628608621 0.639154441476358 -0.464931366684598 0.64662779642595 -0.44756583134336 0.663672097159547 -0.439867035417552 0.671786955527877 -0.432117035789107 0.677611191752675 -0.423985465415065 0.681963343548759 -0.412412452042201 0.686860256445551 -0.396481264381315 0.692447043853715 1.22422386306665 1.21901417288132 1.22180448831875 1.44122713220729 1.2212624279418 1.42305428443322 1.21994168410866 1.4049778333114 1.215513866212 1.35412715816148 1.21465704717818 1.32743387415229 1.2152117398053 1.30606195506395 1.21691660298025 1.28656380373319 1.22337885538944 1.23707046575991 1.22398961536831 1.22812423663975 0.0856904070132922 0.962590098921598 -0.469556886613597 0.701529130550149 -0.833589377845797 0.502674688080316 -0.940987721603371 0.435692074228743 -1.0258267469154 0.377838972035358 -1.09823479109339 0.321690217506901 -1.15441022120901 0.270899878850466 -1.19279319099722 0.23062919198875 -1.22828503432297 0.18747382436622 -1.22828501790588 -0.187473060479969 -1.19923388947958 -0.223270448597393 -1.16816465084145 -0.257050687376757 -1.13530432666359 -0.289007714852567 -1.10087994161812 -0.319335469059326 -1.05294016630781 -0.357573251124262 -0.97775088099044 -0.411151078063194 -0.83804291915504 -0.499946157254768 -0.681720487942457 -0.590045907513375 -0.2924813883515 -0.788101524938873 0.257653486123287 -1.03860166236517 9 136 8 7 8 136 10 136 9 11 136 10 6 7 136 12 136 11 13 136 12 14 136 13 15 136 14 16 136 15 137 3 4 137 4 5 137 5 6 137 6 136 17 136 16 18 136 17 19 136 18 20 136 19 127 128 129 21 136 20 22 136 21 23 136 22 24 136 23 25 136 24 26 136 25 26 135 136 126 129 130 126 127 129 27 135 26 28 135 27 29 135 28 30 135 29 31 135 30 31 134 135 125 130 131 125 126 130 32 134 31 33 134 32 124 131 132 124 132 133 124 125 131 123 124 133 123 133 134 122 123 134 79 121 122 79 80 121 81 121 80 78 79 122 82 121 81 77 122 134 77 134 33 77 78 122 76 33 34 76 77 33 83 121 82 75 34 35 75 76 34 84 121 83 85 121 84 1 138 2 86 121 85 74 35 36 74 75 35 87 121 86 73 74 36 88 121 87 72 36 37 72 73 36 89 121 88 71 37 38 71 72 37 90 121 89 70 38 39 70 71 38 91 121 90 92 121 91 93 121 92 94 121 93 95 121 94 96 121 95 97 121 96 120 101 102 120 102 103 120 103 104 120 121 97 120 97 98 120 98 99 120 99 100 120 100 101 105 120 104 106 120 105 107 120 106 108 120 107 119 120 108 54 51 52 54 52 53 55 50 51 55 51 54 56 49 50 56 50 55 69 39 40 69 70 39 57 49 56 57 48 49 58 47 48 58 48 57 68 40 41 68 69 40 59 46 47 59 47 58 67 68 41 60 45 46 60 46 59 66 41 42 66 67 41 61 45 60 62 44 45 62 45 61 65 42 43 65 66 42 63 43 44 63 44 62 64 65 43 64 43 63 117 109 118 116 119 109 116 109 117 115 119 116 114 119 115 113 119 114 112 119 113 110 112 111 110 119 112 1 3 137 1 137 138 108 109 119 
73 71 1 0 0.0064461491980774
15.77430100573 56.78391077515 -3.241722086601 16.07547640339 56.83240434473 -3.238802839432 15.81019360237 56.56461561188 -3.244219710881 15.85245940881 56.50424748555 -3.238802839432 15.846104336381 56.5092198599418 -3.23888308937945 15.8421447957103 56.5128056806831 -3.23895145044583 15.8357081689202 56.520025266663 -3.23884004722679 15.831292289234 56.5267250064647 -3.2383668595154 15.8267396914568 56.5347986678212 -3.23808838176958 15.8239534966462 56.539565664995 -3.2384528840155 15.818594386132 56.547560788241 -3.24039161141142 15.8133860188582 56.5557919445174 -3.24294545150879 18.83551392598 56.99550678586 -3.238802839432 18.7325350281041 56.8628760260263 -3.238802839432 18.6194512216638 56.7387485732814 -3.238802839432 18.4969620333594 56.6238922693511 -3.238802839432 18.3658251708887 56.5190176055599 -3.238802839432 18.226851835726 56.4247733276554 -3.238802839432 18.0809017050991 56.3417424227226 -3.238802839432 17.9288776140988 56.2704385128753 -3.238802839432 17.7717199708181 56.2113026780333 -3.238802839432 17.6104009390677 56.16470072744 -3.238802839432 17.4459184246533 56.1309209367968 -3.238802839432 17.2792899024152 56.1101722650147 -3.238802839432 17.1115461222155 56.1025830616122 -3.238802839432 16.9437247328071 56.1082002727557 -3.238802839432 16.7768638630271 56.1269891508551 -3.238802839432 16.6119957000196 56.1588334695089 -3.238802839432 16.4501401042144 56.2035362424713 -3.238802839432 16.2922983005568 56.2608209421919 -3.238802839432 16.1394466850152 56.3303332103918 -3.238802839432 15.992530784679 56.4116430500941 -3.238802839432 18.85813001218 57.06655985668 -3.246583472114 18.8576956367325 57.0580605713247 -3.24502734557764 18.8559965138447 57.0522708560148 -3.24290127969256 18.8524769592939 57.042754810674 -3.23934846990708 18.850321786463 57.0350761906223 -3.23789501810447 18.8489800857192 57.0279292103977 -3.23785930310227 18.8479343194631 57.0221599425459 -3.23833549735717 18.845260736637 57.0128751914601 -3.23899090224541 18.8409448664605 57.0039832700778 -3.23895729073252 18.8560601560491 57.0772867482954 -3.24626221408367 18.8534922549879 57.0879390234794 -3.24540353069472 18.8495385845615 57.1020547102054 -3.24369508188277 18.8371648306306 57.144440857209 -3.23822790660596 18.8328325220575 57.1637415395157 -3.23720329179222 18.8295632615019 57.1832741000003 -3.23723811920626 18.8273566596343 57.2031604537209 -3.23819705809457 18.8261810618754 57.2235030361691 -3.23992632655198 18.8251324901194 57.2550976467894 -3.24302988037818 18.823895026268 57.2731999021408 -3.24430173558479 18.8231295594318 57.2800220995452 -3.24456098266076 18.82215028402 57.28674340138 -3.244653132512 18.51915341048 57.23563847821 -3.24075916293 16.1899982376681 56.7557408594299 -3.238802839432 16.3102331283272 56.6883901981665 -3.238802839432 16.4354254016938 56.6307756583891 -3.238802839432 16.5647882270465 56.5832593462298 -3.238802839432 16.6975085618354 56.5461399006795 -3.238802839432 16.8327522616367 56.5196506166478 -3.238802839432 16.969669322732 56.50395797871 -3.238802839432 17.1073992243639 56.4991606147549 -3.238802839432 17.2450763370896 56.505288676111 -3.238802839432 17.3818353632433 56.5223036480456 -3.238802839432 17.5168167753136 56.5500985918294 -3.238802839432 17.6491722180551 56.5884988168438 -3.238802839432 17.7780698403824 56.637262978508 -3.238802839432 17.9026995235365 56.6960845951242 -3.238802839432 18.0222779726636 56.7645939741085 -3.238802839432 18.1360536398058 56.8423605355008 -3.238802839432 18.2433114473644 56.9288955181504 -3.238802839432 18.3433772823466 57.0236550515694 -3.238802839432 18.435622233151 57.1260435741465 -3.238802839432 -1.54329337384365 0.45833742974426 -1.23824082478887 0.457247122761474 -1.54351208544782 0.236124470418277 -1.51161750872664 0.169690706062221 -1.51708013477106 0.175629659620729 -1.52040437447942 0.179811226680275 -1.52558231128054 0.187980777257891 -1.52885083003234 0.195309030254443 -1.53203099500894 0.20401516056257 -1.53400554851704 0.209171543211447 -1.53799426923884 0.217931233173111 -1.54179589609487 0.226899324193691 1.51161750571734 0.169690703036199 1.38845547586382 0.0555561935127604 1.25670457868984 -0.0485460297960336 1.11717981391018 -0.141971999510902 0.970744269849264 -0.224143790531698 0.818303784324183 -0.29455309515019 0.660801341209041 -0.352764367398301 0.499211237216934 -0.398417517298413 0.334533054983368 -0.431230138349327 0.167785479733128 -0.450999254468861 -2.21986468579428e-09 -0.457602575586618 -0.167785484159126 -0.450999254119962 -0.334533059368258 -0.431230137653688 -0.499211241533591 -0.398417516260337 -0.660801345430766 -0.35276436602421 -0.818303788424862 -0.294553093448583 -0.970744273803532 -0.224143788513101 -1.11717981769358 -0.141971997187802 -1.25670458227896 -0.0485460271828015 -1.38845547923647 0.0555561963999598 1.54547875026751 0.236124447063396 1.54366906011222 0.227808705657984 1.54105172216906 0.22237203718833 1.5360326386935 0.213554373992748 1.53265837518591 0.2063280110341 1.53017316085299 0.199494037304577 1.52820381866465 0.193971377623437 1.52405704753546 0.185244468831916 1.51835364867814 0.177172031608625 1.54517946543711 0.247045112643855 1.54437663020857 0.25797308308916 1.5427692288742 0.272543614395059 1.53744744825566 0.316377093554237 1.53630897476715 0.336125235573034 1.53625709973575 0.35592943443706 1.53731124954244 0.375910048148585 1.53945683552747 0.396173294471255 1.54355615285781 0.427518382131079 1.54527665397531 0.445581129471819 1.54562993072544 0.452437040238363 1.54575584555334 0.459228139124396 1.23875477298147 0.45776893056877 -1.13769845108786 0.362993361059287 -1.0300056673119 0.277000310020091 -0.91583932026988 0.199808434103462 -0.795916942975353 0.13190288257433 -0.670992244967076 0.0737104403503817 -0.541850375260939 0.0255968456681128 -0.40930298770543 -0.0121355085740513 -0.274183139754814 -0.0392494753485602 -0.137340056721115 -0.0555746439626583 0.000366205588545438 -0.0610084110858924 0.138070166304028 -0.0555166256098147 0.274906359020665 -0.0391338032869615 0.410014771236825 -0.0119629098000944 0.54254624951383 0.0258252863748796 0.671667836386883 0.0739932872450735 0.796568005484663 0.132238357970352 0.91646176195495 0.20019442954523 1.03059557614024 0.277434399534632 1.1382521194953 0.363472816403421 8 5 4 8 6 5 8 7 6 9 8 4 10 9 4 3 11 10 3 12 11 2 1 3 2 10 4 2 3 10 55 2 4 55 4 32 56 55 32 56 32 31 57 56 31 57 31 30 58 57 30 58 30 29 59 58 29 59 29 28 60 59 28 60 28 27 61 60 27 61 27 26 62 26 25 62 61 26 63 62 25 63 25 24 64 23 22 64 24 23 64 63 24 65 64 22 65 22 21 66 21 20 66 65 21 67 20 19 67 66 20 68 19 18 68 67 19 69 68 18 17 69 18 70 69 17 16 70 17 71 70 16 15 71 16 72 71 15 14 72 15 73 72 14 13 73 14 54 73 13 39 41 40 38 13 41 38 41 39 37 13 38 33 35 34 42 36 35 42 35 33 43 36 42 44 37 36 44 36 43 44 13 37 45 54 13 45 13 44 46 54 45 47 54 46 48 54 47 49 54 48 50 54 49 51 54 50 52 54 51 53 54 52 

TShapes 6
Ve
0.0212955099024175
15.81019360237 56.56461561188 -3.244219710881
0 0

0101101
*
Ve
0.0212955099024175
15.77430100573 56.78391077515 -3.241722086601
0 0

0101101
*
Ed
 0.0212955099024175 1 1 0
1  1 0 0 1
2  1 1 0 0 1
4 C0 2 0 1 0
6  1 1 0
0

0101000
+6 0 -5 0 *
Ed
 0.0188173557117989 1 1 0
1  2 0 0 0.22222710287951
2  2 1 0 0 0.22222710287951
4 C0 3 0 1 0
6  2 2 0
0

0101000
+6 0 -5 0 *
Wi

0101100
-4 0 +3 0 *
Fa
0  1e-07 1 0

0111000
+2 0 *

+1 0 