DBRep_DrawableShape

CASCADE Topology V3, (c) Open Cascade
Locations 0
Curve2ds 3
7 0 0  1 2 2  0.31889538377022203 0.0043251650406617159  0.33195879707710269 0.074325165036391638 
 0 2 0.070003533093327422 2
7 0 0  1 2 2  6.3151499829476041 0.0043251650406617159  6.326746986520825 0.074325165036391638 
 0 2 0.070003533093327422 2
7 0 0  1 2 2  0.31889538377022203 0.0043251650406617159  0.33195879713854359 0.074325165036334795 
 0 2 1 2
Curves 2
1 28.614985626229998 29.484944291630001 -1.2894951585979999 0.71173960002710779 0.70240258659800781 0.0075728524137810838 
7 0 0  3 4 2  28.614985626229998 29.484944291630001 -1.2894951585979999  28.63148478446 29.501443449859998 -1.2894951585979999  28.648310754650002 29.517615796120001 -1.288965032174  28.664809912879999 29.534114954340001 -1.288965032173 
 0 4 1 4
Polygon3D 0
PolygonOnTriangulations 2
3 3 8 9 
p 0.0166666666666667 1 0 0.0233345110311091 0.0700035330933274 
3 3 4 5 
p 0.0166666666666667 1 0 0.5 1 
Surfaces 3
2 28.64543096928 29.448382241520001 -1.3051387818860001 0.70710678118654757 0.70710678118654757 0 -0.70710678118654757 0.70710678118654757 0 0 -0 1 0.049999999997419997
2 28.64543096928 29.448382241520001 -1.291010205144 0.70710678118654757 0.70710678118654757 0 -0.70710678118654757 0.70710678118654757 0 0 -0 1 0.049999999997419997
1 28.652024856720001 29.497402535820001 -1.26 0.58834840544078626 -0.58834840538788624 -0.55470019622568711 0.39223227032619196 -0.39223227022719187 0.83205029433753841 -0.70710678113708214 -0.707106781236013 3.7497446744678548e-11 
Triangulations 2
13 11 1 0 0.00613058867780705
28.62475387122 29.47517604664 -1.327916992568 28.67677359406 29.52215127316 -1.331010205143 28.61498562623 29.48494429163 -1.289495158598 28.6153030651397 29.4846268527203 -1.29524109107097 28.6153447680352 29.4845851498248 -1.30829125811574 28.6164836173166 29.4834463005434 -1.31384120369356 28.6212168443699 29.4787130734901 -1.32225815062419 28.6315937217781 29.5013345125353 -1.28931844978981 28.66480991288 29.53411495434 -1.288965032173 28.6683285585385 29.5305963086907 -1.31918361534236 28.6661812566296 29.5327436105992 -1.31422507611891 28.6651679849688 29.5337568822551 -1.30294073285202 28.6651233239975 29.5338015432233 -1.29438189615531 5.45043204563388 0.00432516504066172 5.40310822330548 0.0743251650363348 6.3151499829476 0.00432516504066172 6.2354702691822 0.00432516504066172 6.03022644110565 0.00432516504066172 5.88279101429074 0.00432516504066172 5.61893797026677 0.00432516504066172 6.31901565080534 0.0276584983725717 6.3267469865377 0.0743251650363348 5.81361434029758 0.0743251650363348 5.95044971262828 0.0743251650363348 6.13859834958299 0.0743251650363348 6.25311197203821 0.0743251650363348 7 2 1 10 7 6 10 2 7 11 6 5 11 10 6 12 5 4 12 11 5 8 4 3 13 12 4 13 4 8 9 13 8 
6 4 1 0 0.00164265338720065
28.63548033621 29.46444958165 -1.242596227925 28.68497781089 29.51394705633 -1.242596227924 28.61498562623 29.48494429163 -1.289495158598 28.639897769555 29.5095296229888 -1.28923009538588 28.66480991288 29.53411495434 -1.288965032173 28.674893861885 29.524031005335 -1.26578063004887 0.0209167308612822 0.034999999999301 0.0209167308670166 -0.0349999999963725 -0.0341829114575386 0.0349999999955167 -0.0338341793319452 -4.94722762756095e-12 -0.0334854472027871 -0.0350000000001055 -0.00628435816819705 -0.034999999998239 4 5 6 1 3 4 1 6 2 1 4 6 

TShapes 6
Ve
0.00724753242898549
28.66480991288 29.53411495434 -1.288965032173
0 0

0101101
*
Ve
0.00501962046172814
28.61498562623 29.48494429163 -1.289495158598
0 0

0101101
*
Ed
 0.00303627754894333 1 1 0
1  1 0 0 0.0700035330933274
2  1 1 0 0 0.0700035330933274
2  2 2 0 0 0.0700035330933274
4 C0 1 0 2 0
6  1 1 0
0

0101000
-6 0 +5 0 *
Ed
 0.00198930343391261 1 1 0
1  2 0 0 1
2  3 1 0 0 1
4 C0 3 0 1 0
6  2 2 0
0

0101000
+5 0 -6 0 *
Wi

0101100
-4 0 +3 0 *
Fa
0  1e-07 1 0

0111000
+2 0 *

-1 0 