DBRep_DrawableShape

CASCADE Topology V3, (c) Open Cascade
Locations 0
Curve2ds 3
7 0 0  1 2 2  0.31889538373926662 0.0043251650317053247  0.33195879706316561 0.074325165032341545 
 0 2 0.070003533098243739 2
7 0 0  1 2 2  6.3151499829442832 0.0043251650317053247  6.3267469865219814 0.074325165032341545 
 0 2 0.070003533098243739 2
7 0 0  1 2 2  0.31889538373926662 0.0043251650317053247  0.33195879707596954 0.074325165032327334 
 0 2 1 2
Curves 2
1 32.885014373769998 -2.4849442916290001 -1.2894951586059999 -0.71173960004651882 -0.70240258657831856 0.0075728524156482005 
7 0 0  3 4 2  32.885014373769998 -2.4849442916290001 -1.2894951586059999  32.86851521554 -2.5014434498570002 -1.2894951586059999  32.851689245350002 -2.5176157961180001 -1.288965032181  32.835190087119997 -2.5341149543460002 -1.288965032181 
 0 4 1 4
Polygon3D 0
PolygonOnTriangulations 2
3 3 8 9 
p 0.0166666666666667 1 0 0.0233345110327479 0.0700035330982437 
3 3 4 5 
p 0.0166666666666667 1 0 0.5 1 
Surfaces 3
2 32.854569030710003 -2.4483822415219998 -1.3051387818939999 -0.70710678118304759 -0.70710678119004766 0 0.70710678119004766 -0.70710678118304759 0 0 0 1 0.050000000003240001
2 32.854569030710003 -2.4483822415219998 -1.291010205152 -0.70710678118304759 -0.70710678119004766 0 0.70710678119004766 -0.70710678118304759 0 0 0 1 0.050000000003240001
1 32.847975143280003 -2.4974025358269998 -1.260000000007 -0.58834840540551536 0.5883484054003153 -0.5547001962499144 -0.39223227031857322 0.39223227026907326 0.83205029432138689 0.7071067811706554 0.70710678120243975 2.7083586085122792e-11 
Triangulations 2
13 11 1 0 0.00613058867544291
32.87524612878 -2.475176046638 -1.327916992579 32.82322640595 -2.522151273169 -1.331010205155 32.88501437377 -2.484944291629 -1.289495158606 32.8846969348602 -2.48462685271951 -1.29524109108342 32.8846552319647 -2.48458514982577 -1.30829125812494 32.8835163826834 -2.48344630054478 -1.31384120370162 32.8787831555521 -2.47871307341177 -1.32225815076609 32.8684062782203 -2.50133451253494 -1.28931844979776 32.83519008712 -2.534114954346 -1.288965032181 32.8316714414615 -2.53059630869081 -1.31918361534492 32.8338187433704 -2.53274361059858 -1.31422507612256 32.8348320150312 -2.53375688225584 -1.30294073285756 32.8348766760025 -2.53380154322672 -1.29438189616338 5.45043204565602 0.00432516503092728 5.40310822341625 0.0743251650315422 6.31514998294428 0.00432516503170532 6.23547026912079 0.00432516503163363 6.03022644109483 0.00432516503144896 5.88279101430015 0.0043251650313163 5.6189379666955 0.0043251650310789 6.31901565080352 0.0276584983652507 6.32674698652886 0.0743251650323273 5.81361434035519 0.0743251650318911 5.95044971266817 0.0743251650320075 6.13859834959851 0.0743251650321674 6.25311197202191 0.0743251650322647 7 2 1 10 7 6 10 2 7 11 6 5 11 10 6 12 5 4 12 11 5 8 4 3 13 12 4 13 4 8 9 13 8 
6 4 1 0 0.00164265339005441
32.86451966379 -2.464449581649 -1.242596227932 32.81502218911 -2.513947056331 -1.242596227932 32.88501437377 -2.484944291629 -1.289495158606 32.860102230445 -2.5095296229875 -1.2892300953935 32.83519008712 -2.534114954346 -1.288965032181 32.825106138115 -2.52403100533812 -1.26578063005612 0.0209167308656235 0.0350000000035193 0.0209167308673123 -0.0349999999928631 -0.0341829114539489 0.0350000000022998 -0.0338341793291716 2.00263305938364e-12 -0.0334854472043914 -0.0349999999982997 -0.00628435816808072 -0.0349999999953159 4 5 6 1 3 4 1 6 2 1 4 6 

TShapes 6
Ve
0.00724753242523357
32.83519008712 -2.534114954346 -1.288965032181
0 0

0101101
*
Ve
0.00501962046081937
32.88501437377 -2.484944291629 -1.289495158606
0 0

0101101
*
Ed
 0.00303627755215079 1 1 0
1  1 0 0 0.0700035330982437
2  1 1 0 0 0.0700035330982437
2  2 2 0 0 0.0700035330982437
4 C0 2 0 1 0
6  1 1 0
0

0101000
-6 0 +5 0 *
Ed
 0.00198930343485454 1 1 0
1  2 0 0 1
2  3 1 0 0 1
4 C0 1 0 3 0
6  2 2 0
0

0101000
+5 0 -6 0 *
Wi

0101100
-4 0 +3 0 *
Fa
0  1e-07 1 0

0111000
+2 0 *

-1 0 