DBRep_DrawableShape

CASCADE Topology V3, (c) Open Cascade
Locations 0
Curve2ds 3
7 0 0  1 2 2  8.9446614479827087 0.025614847071000924  9.265831338173804 0.025614847071000924 
 0.50000000039816961 2 1 2
7 0 0  1 2 2  8.7171935240140979 0.025614847071000924  6.1242386845839523 0.025614847071000924 
 5.8282811255696405 2 6.3769189397293049 2
7 0 0  1 2 2  8.944661447982643 0.025614847071000924  8.7171935240140979 0.025614847071000924 
 5.8282811255696405 2 6.0557490495381865 2
Curves 2
7 0 0  3 5 3  71.409006579310002 72.815000000040001 4.9875000000000007  71.404887758729998 72.810184565189999 4.9875000000000007  71.396536768930005 72.798338352420004 4.9875000000000007  71.387262258299998 72.777891737670004 4.9875000000000007  71.384231354159994 72.766153096400004 4.9875000000000007 
 0 4 0.5 1 1 4
2 71.485000000070002 72.750000000040004 4.9875000000000007 0 0 1 -0.96824583655105045 0.25000000000311307 0 -0.25000000000311307 -0.96824583655105045 0 0.10000000000000001
Polygon3D 0
PolygonOnTriangulations 3
5 64 68 69 70 71 
p 0.05 1 0.50000000039817 0.680000000254829 0.825800000138722 0.912900000069361 1 
8 53 72 73 74 75 76 77 71 
p 0.05 1 5.82828112556964 5.90665795616388 5.98503478675812 6.06341161735235 6.14178844794659 6.22016527854083 6.29854210913506 6.3769189397293 
4 53 62 63 64 
p 0.05 1 5.82828112556964 5.90410376689249 5.97992640821534 6.05574904953819 
Surfaces 2
2 71.485000000070002 72.750000000040004 4.9618851529289998 0 0 1 1 0 -0 -0 1 0 0.10000000000000001
1 71.275000000070008 72.600000000039998 4.9875000000000007 0 0 1 0 -1 0 1 0 -0 
Triangulations 1
77 74 1 0 0.0010275477574447
71.38423135416 72.7661530964 4.9875 71.3853226804108 72.7580269512387 4.9875 71.3850001558843 72.7501765300004 4.9875 71.3852949617528 72.7423250189872 4.9875 71.3862052780872 72.7345208880388 4.9875 71.3877254852194 72.7268123145024 4.9875 71.3898461984341 72.7192468858199 4.9875 71.3925543259035 72.7118713057546 4.9875 71.3958331495077 72.7047311060752 4.9875 71.3996624280403 72.6978703654731 4.9875 71.4040185221643 72.6913314374514 4.9875 71.4088745403447 72.6851546888632 4.9875 71.4142005048586 72.6793782507144 4.9875 71.4199635368569 72.674037782769 4.9875 71.426128059336 72.6691662534102 4.9875 71.4326560167657 72.6647937361163 4.9875 71.4395071100178 72.6609472238076 4.9875 71.4466390451454 72.6576504622108 4.9875 71.4540077944765 72.6549238032689 4.9875 71.4615678684109 72.6527840795027 4.9875 71.4692725962417 72.6512445000979 4.9875 71.4770744142678 72.6503145693608 4.9875 71.4849251594204 72.6500000280456 4.9875 71.4927763665878 72.6503028179144 4.9875 71.5005795678062 72.6512210697504 4.9875 71.5082865914678 72.6527491148971 4.9875 71.5158498596986 72.6548775202527 4.9875 71.5232226820725 72.6575931465034 4.9875 71.5303595438449 72.6608792292369 4.9875 71.5372163869302 72.6647154824341 4.9875 71.543750881886 72.6690782237011 4.9875 71.5499226892259 72.673940520468 4.9875 71.5556937084478 72.6792723562521 4.9875 71.5610283132407 72.6850408159594 4.9875 71.5658935714162 72.6912102890791 4.9875 71.57025944821 72.6977426895193 4.9875 71.5740989916958 72.7045976907235 4.9875 71.5773884991676 72.71173297462 4.9875 71.5801076634643 72.7191044928637 4.9875 71.582239698332 72.7266667387611 4.9875 71.583771442051 72.7343730281969 4.9875 71.5846934386871 72.7421757878301 4.9875 71.5849999964657 72.7500268487786 4.9875 71.5846892229097 72.7578777439815 4.9875 71.5837630365217 72.7656800074008 4.9875 71.5822271549407 72.7733854732179 4.9875 71.5800910596452 72.7809465731762 4.9875 71.5773679374213 72.7883166302345 4.9875 71.5740745989565 72.7954501467198 4.9875 71.5702313750617 72.8023030851979 4.9875 71.5658619911631 72.8088331403306 4.9875 71.5609934208378 72.8150000000401 4.9875 71.40900657931 72.81500000004 4.9875 71.4537750100781 72.84500000004 4.9875 71.4464720544987 72.8422799946762 4.9875 71.4394030852562 72.8389995582382 4.9875 71.4326110333245 72.8351786133378 4.9875 71.4261371479144 72.8308403651809 4.9875 71.420020745961 72.8260111606379 4.9875 71.4142989733454 72.8207203282356 4.9875 71.38000000007 72.84500000004 4.9875 71.404301169841 72.8090567422433 4.9875 71.4000594816129 72.8027741255584 4.9875 71.396305888712 72.7961882519057 4.9875 71.4058198008949 72.8110540815104 4.9875 71.402764066959 72.8068157904864 4.9875 71.3995039103776 72.8017474940739 4.9875 71.3915429552425 72.7866628450781 4.9875 71.3879065082831 72.7778436748454 4.9875 71.3859518299337 72.7721464034826 4.9875 71.38423135416 72.7661530964 4.9875 71.4041505911436 72.8088504297432 4.9875 71.399791000857 72.8023395305416 4.9875 71.3959545753854 72.7955072779497 4.9875 71.3926648695509 72.7883956205197 4.9875 71.3899420814353 72.7810482222893 4.9875 71.3878029283684 72.7735101946934 4.9875 -0.166153096359796 0.109231354086084 -0.158026951198727 0.110322680340736 -0.150176529960378 0.110000155814247 -0.142325018947229 0.110294961682765 -0.134520887998755 0.111205278017221 -0.126812314462433 0.112725485149437 -0.119246885779874 0.114846198364094 -0.111871305714618 0.11755432583353 -0.104731106035162 0.12083314943769 -0.0978703654330702 0.124662427970328 -0.0913314374113965 0.129018522094321 -0.085154688823223 0.133874540274703 -0.0793782506744213 0.139200504788552 -0.0740377827289956 0.144963536786867 -0.0691662533701782 0.151128059266012 -0.0647937360762615 0.157656016695722 -0.0609472237675865 0.164507109947819 -0.0576504621707816 0.171639045075366 -0.054923803228946 0.179007794406469 -0.0527840794627234 0.186567868340894 -0.0512445000578735 0.19427259617164 -0.0503145693208269 0.202074414197844 -0.0500000280056208 0.209925159350423 -0.0503028178744243 0.217776366517799 -0.0512210697104318 0.225579567736234 -0.0527491148571244 0.233286591397764 -0.0548775202126639 0.240849859628643 -0.0575931464633887 0.248222682002475 -0.0608792291969171 0.255359543774859 -0.0647154823941213 0.262216386860176 -0.0690782236610849 0.268750881815965 -0.073940520427947 0.274922689155852 -0.0792723562121 0.280693708377838 -0.0850408159193502 0.286028313170655 -0.0912102890391148 0.290893571346149 -0.0977426894792701 0.295259448140009 -0.104597690683541 0.299098991625784 -0.111732974579978 0.302388499097574 -0.119104492823684 0.305107663394267 -0.126666738721063 0.307239698262016 -0.134373028156903 0.308771441981041 -0.142175787790063 0.309693438617058 -0.150026848738626 0.309999996395723 -0.157877743941507 0.309689222839741 -0.165680007360821 0.308763036451722 -0.173385473177932 0.307227154870663 -0.180946573136158 0.305091059575168 -0.188316630194529 0.30236793735131 -0.195450146679802 0.299074598886464 -0.202303085157866 0.295231374991661 -0.208833140290626 0.29086199109312 -0.215000000000125 0.285993420767749 -0.215000000000003 0.134006579232135 -0.245000000000026 0.178775010008055 -0.242279994636178 0.171472054428647 -0.23899955819816 0.164403085186226 -0.235178613297844 0.157611033254525 -0.230840365140903 0.151137147844436 -0.226011160597901 0.145020745890997 -0.220720328195571 0.139298973275398 -0.245000000000005 0.10499999999999 -0.209056742203339 0.12930116977099 -0.202774125518401 0.125059481542845 -0.196188251865718 0.121305888641966 -0.211054081470391 0.130819800824896 -0.206815790446366 0.127764066889015 -0.201747494033893 0.124503910307569 -0.186662845038054 0.116542955172471 -0.177843674805426 0.112906508213066 -0.17214640344262 0.110951829863688 -0.165827819550324 0.111260544217196 -0.208850429703157 0.129150591073552 -0.202339530501603 0.124791000787041 -0.195507277909676 0.12095457531544 -0.18839562047971 0.117664869480894 -0.181048222249275 0.114942081365297 -0.17351019465344 0.112802928298434 35 67 34 34 67 33 33 67 32 32 67 31 31 67 30 30 67 29 29 67 28 28 67 27 27 67 26 26 67 25 25 67 24 24 67 23 23 67 22 22 67 21 21 67 20 20 67 19 19 67 18 18 67 17 17 67 16 16 67 15 15 67 14 14 67 13 13 67 12 12 67 11 11 67 10 10 67 9 9 67 8 8 67 7 7 67 6 6 67 5 5 67 4 4 67 3 3 67 2 68 64 61 61 64 63 68 61 69 69 61 70 70 61 71 71 61 2 2 61 1 71 2 67 35 36 67 53 36 37 53 37 38 53 38 39 53 39 40 53 40 41 53 41 42 53 42 43 53 43 44 53 44 45 53 45 46 53 46 47 53 47 48 53 48 49 53 49 50 53 50 51 53 51 52 67 63 64 67 64 71 71 64 68 71 68 69 71 69 70 55 54 61 55 61 56 56 61 57 57 61 58 58 61 59 59 61 60 60 61 53 53 61 65 65 66 53 53 66 67 53 67 36 

TShapes 8
Ve
0.200001999999994
71.396305888712 72.7961882519057 4.9875
0 0

0101101
*
Ve
0.202055115720391
71.38423135416 72.7661530964 4.9875
0 0

0101101
*
Ed
 0.00205511606584229 1 1 0
1  1 0 0.50000000039817 1
2  1 1 0 0.50000000039817 1
4 C0 2 0 1 0
6  1 1 0
0

0101000
+8 0 -7 0 *
Ve
0.200001999999994
71.40900657931 72.81500000004 4.9875
0 0

0101101
*
Ed
 0.200001999999994 1 1 0
1  2 0 5.82828112556964 6.3769189397293
2  2 1 0 5.82828112556964 6.3769189397293
4 C0 2 0 1 0
6  2 1 0
0

0101000
+5 0 -7 0 *
Ed
 0.200001999999994 1 1 0
1  2 0 5.82828112556964 6.05574904953819
2  3 1 0 5.82828112556964 6.05574904953819
4 C0 2 0 1 0
6  3 1 0
0

0101000
+8 0 -5 0 *
Wi

0101100
+6 0 -4 0 -3 0 *
Fa
0  1e-07 1 0

0111000
+2 0 *

+1 0 