DBRep_DrawableShape

CASCADE Topology V3, (c) Open Cascade
Locations 0
Curve2ds 3
7 0 0  1 2 2  2.8096338564597754 0.0043251650332578606  2.8052437886920529 0.07432516503600084 
 0 2 0.070000413606453413 2
7 0 0  1 2 2  6.3267469865736894 0.074325165029264895  6.331812735169656 0.0043251650265148101 
 0 2 0.070000413606453399 2
7 0 0  1 2 2  2.8096338564597754 0.0043251650332578606  2.8052437886920574 0.07432516503600084 
 0 2 0.070000413606453399 2
Curves 2
1 -27.521544274339998 -33.578385643520001 -1.288965032171 -0.70735035939672009 -0.70685484696902012 0.0034197043343150973 
1 -27.521544274339998 -33.578385643520001 -1.288965032171 -0.70735035939672009 -0.70685484696902012 0.0034197043343120971 
Polygon3D 0
PolygonOnTriangulations 2
3 4 5 3 
p 0.0166666666666667 1 0 0.0233334712021511 0.0700004136064534 
3 7 8 3 
p 0.0166666666666667 1 0 0.0233334712021511 0.0700004136064534 
Surfaces 3
2 -27.4853090362 -33.608504174609998 -1.3051387818860001 -0.70710678118154768 -0.70710678119154757 0 0.70710678119154757 -0.70710678118154768 0 0 0 1 0.050000000004740003
1 -27.5343293305 -33.615098062050002 -1.2599999999980001 0.58834840544072087 -0.58834840538792088 -0.55470019622571975 -0.39223227022721502 0.39223227032621499 -0.83205029433751665 0.70710678119203918 0.70710678118105608 7.8956346899313827e-11 
2 -27.540923217930001 -33.664118356339998 -1.291010205144 0.70710678118654757 0.70710678118654757 0 -0.70710678118654757 0.70710678118654757 0 0 -0 1 0.049999999997419997
Triangulations 2
6 4 1 0 0.00164071494264801
-27.50137637632 -33.59855354154 -1.242596227922 -27.55087385101 -33.64805101622 -1.242596227923 -27.57105909206 -33.62786577517 -1.288725651453 -27.52154427434 -33.57838564352 -1.288965032171 -27.5380492135808 -33.5948790207359 -1.2888852385984 -27.51146032533 -33.58846959253 -1.26578063004612 -0.0209167308660364 0.0350000000063752 -0.0209167308662033 -0.034999999996375 0.0332998754078919 -0.0350000000002357 0.0334854472116094 0.0350000000024915 0.0334235899437036 0.0116666666682491 0.00628435817247525 0.0350000000044324 6 1 2 5 2 3 5 6 2 4 6 5 
12 10 1 0 0.00634153961956493
-27.50958059316 -33.5903493247 -1.331010205149 -27.561600316 -33.63732455123 -1.327916992569 -27.57105909206 -33.62786577517 -1.288725651453 -27.570827929297 -33.6280969379307 -1.29828668898226 -27.5708952668045 -33.6280296004174 -1.30984925247177 -27.5689995326896 -33.6299253345314 -1.31575188408246 -27.52154427434 -33.57838564352 -1.288965032171 -27.5380492135808 -33.5948790207359 -1.2888852385984 -27.5180256286807 -33.5819042891793 -1.31918361534561 -27.5201729305892 -33.5797569872708 -1.31422507612202 -27.5211862022456 -33.5787437156144 -1.30294073285287 -27.5212308632174 -33.5786990546426 -1.29438189616424 5.40310822317065 0.0743251650292649 5.45043204562037 0.00432516502651481 6.33181273516966 0.00432516502651481 6.19960563174366 0.00432516502651481 6.00800512274395 0.00432516502651481 5.82501883868201 0.00432516502651481 6.32674698657369 0.0743251650292649 6.32843556943901 0.0509918316950149 5.81361434023867 0.0743251650292649 5.95044971259467 0.0743251650292649 6.13859834958418 0.0743251650292649 6.25311197192776 0.0743251650292649 9 1 2 9 2 6 10 6 5 10 9 6 11 5 4 11 10 5 12 11 4 8 4 3 8 12 4 7 12 8 

TShapes 6
Ve
0.00724753243051344
-27.52154427434 -33.57838564352 -1.288965032171
0 0

0101101
*
Ve
0.00556240310634421
-27.57105909206 -33.62786577517 -1.288725651453
0 0

0101101
*
Ed
 0.00198930342803021 1 1 0
1  1 0 0 0.0700004136064534
2  1 1 0 0 0.0700004136064534
4 C0 1 0 2 0
6  1 1 0
0

0101000
+6 0 -5 0 *
Ed
 0.00303627754984551 1 1 0
1  2 0 0 0.0700004136064534
2  2 3 0 0 0.0700004136064534
2  3 1 0 0 0.0700004136064534
4 C0 3 0 1 0
6  2 2 0
0

0101000
+6 0 -5 0 *
Wi

0101100
-4 0 +3 0 *
Fa
0  1e-07 1 0

0111000
+2 0 *

-1 0 