DBRep_DrawableShape

CASCADE Topology V3, (c) Open Cascade
Locations 0
Curve2ds 3
7 0 0  1 2 2  2.8096338565167427 0.0043251650350011328  2.8052437886911048 0.074325165034921925 
 0 2 0.070000413603634098 2
7 0 0  1 2 2  2.8096338565167427 0.0043251650350011328  2.8052437886911048 0.074325165034921925 
 0 2 0.070000413603634098 2
7 0 0  1 2 2  6.3267469865092085 0.07432516503562514  6.3318127351542906 0.0043251650357043481 
 0 2 0.070000413603634098 2
Curves 2
1 -1.728455725661 2.8283856435220001 -1.2889650321820001 0.7073503593779995 0.70685484698759959 0.003419704366189998 
1 -1.728455725661 2.8283856435220001 -1.2889650321820001 0.7073503593779995 0.70685484698759959 0.003419704366189998 
Polygon3D 0
PolygonOnTriangulations 2
3 1 4 5 
p 0.0166666666666667 1 0 0.0233334712012114 0.0700004136036341 
3 7 8 3 
p 0.0166666666666667 1 0 0.0233334712012114 0.0700004136036341 
Surfaces 3
2 -1.7646909638020001 2.8585041746109998 -1.3051387818939999 0.70710678118654757 0.70710678118654757 0 -0.70710678118654757 0.70710678118654757 0 0 -0 1 0.04999999999989
1 -1.715670669499 2.8650980620430002 -1.2600000000080001 0.58834840541432087 -0.58834840541432087 0.55470019622571975 0.39223227027671498 -0.39223227027671498 -0.83205029433751665 0.70710678118654757 0.70710678118654757 8.1524687095804742e-18 
2 -1.7090767820670001 2.9141183563470001 -1.291010205152 -0.70710678118654757 -0.70710678118654757 0 0.70710678118654757 -0.70710678118654757 0 0 0 1 0.04999999999989
Triangulations 2
6 4 1 0 0.00164071494769394
-1.728455725661 2.828385643522 -1.288965032182 -1.73853967466812 2.83846959252987 -1.265780630057 -1.748623623676 2.848553541537 -1.242596227932 -1.71195078642129 2.84487902073762 -1.28888523860865 -1.678940907942 2.877865775169 -1.288725651461 -1.699126148993 2.89805101622 -1.242596227933 0.0334854472056767 -0.0349999999999589 0.00628435816839827 -0.0349999999994285 -0.0209167308688801 -0.0349999999999589 0.0334235899384469 -0.0116666666666519 0.0332998754030702 0.0349999999997747 -0.0209167308688675 0.0349999999999587 6 3 2 4 2 1 4 6 2 5 6 4 
12 10 1 0 0.00634153961753011
-1.740419406841 2.840349324702 -1.331010205152 -1.688399684005 2.887324551232 -1.327916992577 -1.678940907942 2.877865775169 -1.288725651461 -1.67917207070427 2.87809693793152 -1.29828668899064 -1.6791047331945 2.87802960042254 -1.30984925248005 -1.68100046730815 2.87992533453662 -1.31575188409014 -1.728455725661 2.828385643522 -1.288965032182 -1.71195078642129 2.84487902073762 -1.28888523860865 -1.73197437132063 2.83190428918262 -1.31918361534778 -1.72982706941225 2.82975698727413 -1.31422507612502 -1.72881379775275 2.82874371561414 -1.30294073285902 -1.72876913678063 2.8286990546417 -1.29438189616598 5.40310822334918 0.0743251650349182 5.45043204558896 0.00432516503570779 6.33181273515429 0.00432516503570435 6.19960563173709 0.0043251650357076 6.0080051227151 0.00432516503570765 5.82501883866302 0.0043251650357077 6.32674698650921 0.0743251650356251 6.3284355693909 0.0509918317023182 5.81361434030919 0.0743251650352324 5.9504497126292 0.0743251650353371 6.1385983495692 0.0743251650354811 6.25311197197831 0.0743251650355688 9 1 2 9 2 6 10 6 5 10 9 6 11 5 4 11 10 5 12 11 4 8 4 3 8 12 4 7 12 8 

TShapes 6
Ve
0.00724753242764344
-1.728455725661 2.828385643522 -1.288965032182
0 0

0101101
*
Ve
0.00556240310569574
-1.678940907942 2.877865775169 -1.288725651461
0 0

0101101
*
Ed
 0.00198930343374924 1 1 0
1  1 0 0 0.0700004136036341
2  1 1 0 0 0.0700004136036341
4 C0 2 0 1 0
6  1 1 0
0

0101000
+6 0 -5 0 *
Ed
 0.00303627755173563 1 1 0
1  2 0 0 0.0700004136036341
2  2 1 0 0 0.0700004136036341
2  3 3 0 0 0.0700004136036341
4 C0 1 0 3 0
6  2 2 0
0

0101000
+6 0 -5 0 *
Wi

0101100
-4 0 +3 0 *
Fa
0  1e-07 1 0

0111000
+2 0 *

-1 0 